G04 #@! TF.GenerationSoftware,KiCad,Pcbnew,8.0.6*
G04 #@! TF.CreationDate,2026-09-02T22:55:58+08:00*
G04 #@! TF.ProjectId,AuraPCB,41757261-5043-4422-9e6b-696361645f70,rev?*
G04 #@! TF.SameCoordinates,Original*
G04 #@! TF.FileFunction,Copper,L4,Bot*
G04 #@! TF.FilePolarity,Positive*
%FSLAX46Y46*%
G04 Gerber Fmt 4.6, Leading zero omitted, Abs format (unit mm)*
G04 Created by KiCad (PCBNEW 8.0.6) date 2026-09-02 22:55:58*
%MOMM*%
%LPD*%
G01*
G04 APERTURE LIST*
G04 #@! TA.AperFunction,ComponentPad*
%ADD10R,1.600000X1.600000*%
G04 #@! TD*
G04 #@! TA.AperFunction,ComponentPad*
%ADD11O,1.600000X1.600000*%
G04 #@! TD*
G04 #@! TA.AperFunction,ComponentPad*
%ADD12C,1.600000*%
G04 #@! TD*
G04 #@! TA.AperFunction,ComponentPad*
%ADD13R,1.800000X1.800000*%
G04 #@! TD*
G04 #@! TA.AperFunction,ComponentPad*
%ADD14C,1.800000*%
G04 #@! TD*
G04 #@! TA.AperFunction,ComponentPad*
%ADD15R,1.524000X1.524000*%
G04 #@! TD*
G04 #@! TA.AperFunction,ComponentPad*
%ADD16C,1.524000*%
G04 #@! TD*
G04 #@! TA.AperFunction,ComponentPad*
%ADD17C,2.000000*%
G04 #@! TD*
G04 #@! TA.AperFunction,ViaPad*
%ADD18C,0.600000*%
G04 #@! TD*
G04 #@! TA.AperFunction,Conductor*
%ADD19C,0.200000*%
G04 #@! TD*
G04 APERTURE END LIST*
D10*
X141500000Y-119700000D03*
D11*
X141500000Y-117160000D03*
X141500000Y-114620000D03*
X141500000Y-112080000D03*
X141500000Y-109540000D03*
X141500000Y-107000000D03*
X141500000Y-104460000D03*
X141500000Y-101920000D03*
X141500000Y-99380000D03*
X141500000Y-96840000D03*
X141500000Y-94300000D03*
X141500000Y-91760000D03*
X141500000Y-89220000D03*
X141500000Y-86680000D03*
X141500000Y-84140000D03*
X126260000Y-84140000D03*
X126260000Y-86680000D03*
X126260000Y-89220000D03*
X126260000Y-91760000D03*
X126260000Y-94300000D03*
X126260000Y-96840000D03*
X126260000Y-99380000D03*
X126260000Y-101920000D03*
X126260000Y-104460000D03*
X126260000Y-107000000D03*
X126260000Y-109540000D03*
X126260000Y-112080000D03*
X126260000Y-114620000D03*
X126260000Y-117160000D03*
X126260000Y-119700000D03*
D12*
X146800000Y-92700000D03*
X146800000Y-87700000D03*
X153500000Y-86200000D03*
D11*
X153500000Y-93820000D03*
D13*
X160100000Y-80700000D03*
D14*
X157560000Y-80700000D03*
D15*
X103880000Y-79700000D03*
D16*
X106420000Y-79700000D03*
X108960000Y-79700000D03*
X111500000Y-79700000D03*
D17*
X158600000Y-88300000D03*
X165100000Y-88300000D03*
X158600000Y-92800000D03*
X165100000Y-92800000D03*
D12*
X145580000Y-79100000D03*
D11*
X153200000Y-79100000D03*
D18*
X144200000Y-90700000D03*
D19*
X128500000Y-109840000D02*
X126260000Y-112080000D01*
X128500000Y-108200000D02*
X128500000Y-109840000D01*
X141200000Y-95500000D02*
X128500000Y-108200000D01*
X144200000Y-95500000D02*
X141200000Y-95500000D01*
X144200000Y-90700000D02*
X144200000Y-95500000D01*
G04 #@! TA.AperFunction,Conductor*
G36*
X168842539Y-76320185D02*
G01*
X168888294Y-76372989D01*
X168899500Y-76424500D01*
X168899500Y-125075500D01*
X168879815Y-125142539D01*
X168827011Y-125188294D01*
X168775500Y-125199500D01*
X92524500Y-125199500D01*
X92457461Y-125179815D01*
X92411706Y-125127011D01*
X92400500Y-125075500D01*
X92400500Y-84139998D01*
X124954532Y-84139998D01*
X124954532Y-84140001D01*
X124974364Y-84366686D01*
X124974366Y-84366697D01*
X125033258Y-84586488D01*
X125033261Y-84586497D01*
X125129431Y-84792732D01*
X125129432Y-84792734D01*
X125259954Y-84979141D01*
X125420858Y-85140045D01*
X125420861Y-85140047D01*
X125607266Y-85270568D01*
X125665275Y-85297618D01*
X125717714Y-85343791D01*
X125736866Y-85410984D01*
X125716650Y-85477865D01*
X125665275Y-85522382D01*
X125607267Y-85549431D01*
X125607265Y-85549432D01*
X125420858Y-85679954D01*
X125259954Y-85840858D01*
X125129432Y-86027265D01*
X125129431Y-86027267D01*
X125033261Y-86233502D01*
X125033258Y-86233511D01*
X124974366Y-86453302D01*
X124974364Y-86453313D01*
X124954532Y-86679998D01*
X124954532Y-86680001D01*
X124974364Y-86906686D01*
X124974366Y-86906697D01*
X125033258Y-87126488D01*
X125033261Y-87126497D01*
X125129431Y-87332732D01*
X125129432Y-87332734D01*
X125259954Y-87519141D01*
X125420858Y-87680045D01*
X125420861Y-87680047D01*
X125607266Y-87810568D01*
X125665275Y-87837618D01*
X125717714Y-87883791D01*
X125736866Y-87950984D01*
X125716650Y-88017865D01*
X125665275Y-88062382D01*
X125607267Y-88089431D01*
X125607265Y-88089432D01*
X125420858Y-88219954D01*
X125259954Y-88380858D01*
X125129432Y-88567265D01*
X125129431Y-88567267D01*
X125033261Y-88773502D01*
X125033258Y-88773511D01*
X124974366Y-88993302D01*
X124974364Y-88993313D01*
X124954532Y-89219998D01*
X124954532Y-89220001D01*
X124974364Y-89446686D01*
X124974366Y-89446697D01*
X125033258Y-89666488D01*
X125033261Y-89666497D01*
X125129431Y-89872732D01*
X125129432Y-89872734D01*
X125259954Y-90059141D01*
X125420858Y-90220045D01*
X125420861Y-90220047D01*
X125607266Y-90350568D01*
X125665275Y-90377618D01*
X125717714Y-90423791D01*
X125736866Y-90490984D01*
X125716650Y-90557865D01*
X125665275Y-90602382D01*
X125607267Y-90629431D01*
X125607265Y-90629432D01*
X125420858Y-90759954D01*
X125259954Y-90920858D01*
X125129432Y-91107265D01*
X125129431Y-91107267D01*
X125033261Y-91313502D01*
X125033258Y-91313511D01*
X124974366Y-91533302D01*
X124974364Y-91533313D01*
X124954532Y-91759998D01*
X124954532Y-91760001D01*
X124974364Y-91986686D01*
X124974366Y-91986697D01*
X125033258Y-92206488D01*
X125033261Y-92206497D01*
X125129431Y-92412732D01*
X125129432Y-92412734D01*
X125259954Y-92599141D01*
X125420858Y-92760045D01*
X125420861Y-92760047D01*
X125607266Y-92890568D01*
X125665275Y-92917618D01*
X125717714Y-92963791D01*
X125736866Y-93030984D01*
X125716650Y-93097865D01*
X125665275Y-93142382D01*
X125607267Y-93169431D01*
X125607265Y-93169432D01*
X125420858Y-93299954D01*
X125259954Y-93460858D01*
X125129432Y-93647265D01*
X125129431Y-93647267D01*
X125033261Y-93853502D01*
X125033258Y-93853511D01*
X124974366Y-94073302D01*
X124974364Y-94073313D01*
X124954532Y-94299998D01*
X124954532Y-94300001D01*
X124974364Y-94526686D01*
X124974366Y-94526697D01*
X125033258Y-94746488D01*
X125033261Y-94746497D01*
X125129431Y-94952732D01*
X125129432Y-94952734D01*
X125259954Y-95139141D01*
X125420858Y-95300045D01*
X125420861Y-95300047D01*
X125607266Y-95430568D01*
X125665275Y-95457618D01*
X125717714Y-95503791D01*
X125736866Y-95570984D01*
X125716650Y-95637865D01*
X125665275Y-95682382D01*
X125607267Y-95709431D01*
X125607265Y-95709432D01*
X125420858Y-95839954D01*
X125259954Y-96000858D01*
X125129432Y-96187265D01*
X125129431Y-96187267D01*
X125033261Y-96393502D01*
X125033258Y-96393511D01*
X124974366Y-96613302D01*
X124974364Y-96613313D01*
X124954532Y-96839998D01*
X124954532Y-96840001D01*
X124974364Y-97066686D01*
X124974366Y-97066697D01*
X125033258Y-97286488D01*
X125033261Y-97286497D01*
X125129431Y-97492732D01*
X125129432Y-97492734D01*
X125259954Y-97679141D01*
X125420858Y-97840045D01*
X125420861Y-97840047D01*
X125607266Y-97970568D01*
X125665275Y-97997618D01*
X125717714Y-98043791D01*
X125736866Y-98110984D01*
X125716650Y-98177865D01*
X125665275Y-98222382D01*
X125607267Y-98249431D01*
X125607265Y-98249432D01*
X125420858Y-98379954D01*
X125259954Y-98540858D01*
X125129432Y-98727265D01*
X125129431Y-98727267D01*
X125033261Y-98933502D01*
X125033258Y-98933511D01*
X124974366Y-99153302D01*
X124974364Y-99153313D01*
X124954532Y-99379998D01*
X124954532Y-99380001D01*
X124974364Y-99606686D01*
X124974366Y-99606697D01*
X125033258Y-99826488D01*
X125033261Y-99826497D01*
X125129431Y-100032732D01*
X125129432Y-100032734D01*
X125259954Y-100219141D01*
X125420858Y-100380045D01*
X125420861Y-100380047D01*
X125607266Y-100510568D01*
X125665275Y-100537618D01*
X125717714Y-100583791D01*
X125736866Y-100650984D01*
X125716650Y-100717865D01*
X125665275Y-100762382D01*
X125607267Y-100789431D01*
X125607265Y-100789432D01*
X125420858Y-100919954D01*
X125259954Y-101080858D01*
X125129432Y-101267265D01*
X125129431Y-101267267D01*
X125033261Y-101473502D01*
X125033258Y-101473511D01*
X124974366Y-101693302D01*
X124974364Y-101693313D01*
X124954532Y-101919998D01*
X124954532Y-101920001D01*
X124974364Y-102146686D01*
X124974366Y-102146697D01*
X125033258Y-102366488D01*
X125033261Y-102366497D01*
X125129431Y-102572732D01*
X125129432Y-102572734D01*
X125259954Y-102759141D01*
X125420858Y-102920045D01*
X125420861Y-102920047D01*
X125607266Y-103050568D01*
X125665275Y-103077618D01*
X125717714Y-103123791D01*
X125736866Y-103190984D01*
X125716650Y-103257865D01*
X125665275Y-103302382D01*
X125607267Y-103329431D01*
X125607265Y-103329432D01*
X125420858Y-103459954D01*
X125259954Y-103620858D01*
X125129432Y-103807265D01*
X125129431Y-103807267D01*
X125033261Y-104013502D01*
X125033258Y-104013511D01*
X124974366Y-104233302D01*
X124974364Y-104233313D01*
X124954532Y-104459998D01*
X124954532Y-104460001D01*
X124974364Y-104686686D01*
X124974366Y-104686697D01*
X125033258Y-104906488D01*
X125033261Y-104906497D01*
X125129431Y-105112732D01*
X125129432Y-105112734D01*
X125259954Y-105299141D01*
X125420858Y-105460045D01*
X125420861Y-105460047D01*
X125607266Y-105590568D01*
X125665275Y-105617618D01*
X125717714Y-105663791D01*
X125736866Y-105730984D01*
X125716650Y-105797865D01*
X125665275Y-105842382D01*
X125607267Y-105869431D01*
X125607265Y-105869432D01*
X125420858Y-105999954D01*
X125259954Y-106160858D01*
X125129432Y-106347265D01*
X125129431Y-106347267D01*
X125033261Y-106553502D01*
X125033258Y-106553511D01*
X124974366Y-106773302D01*
X124974364Y-106773313D01*
X124954532Y-106999998D01*
X124954532Y-107000001D01*
X124974364Y-107226686D01*
X124974366Y-107226697D01*
X125033258Y-107446488D01*
X125033261Y-107446497D01*
X125129431Y-107652732D01*
X125129432Y-107652734D01*
X125259954Y-107839141D01*
X125420858Y-108000045D01*
X125420861Y-108000047D01*
X125607266Y-108130568D01*
X125665275Y-108157618D01*
X125717714Y-108203791D01*
X125736866Y-108270984D01*
X125716650Y-108337865D01*
X125665275Y-108382382D01*
X125607267Y-108409431D01*
X125607265Y-108409432D01*
X125420858Y-108539954D01*
X125259954Y-108700858D01*
X125129432Y-108887265D01*
X125129431Y-108887267D01*
X125033261Y-109093502D01*
X125033258Y-109093511D01*
X124974366Y-109313302D01*
X124974364Y-109313313D01*
X124954532Y-109539998D01*
X124954532Y-109540001D01*
X124974364Y-109766686D01*
X124974366Y-109766697D01*
X125033258Y-109986488D01*
X125033261Y-109986497D01*
X125129431Y-110192732D01*
X125129432Y-110192734D01*
X125259954Y-110379141D01*
X125420858Y-110540045D01*
X125420861Y-110540047D01*
X125607266Y-110670568D01*
X125665275Y-110697618D01*
X125717714Y-110743791D01*
X125736866Y-110810984D01*
X125716650Y-110877865D01*
X125665275Y-110922382D01*
X125607267Y-110949431D01*
X125607265Y-110949432D01*
X125420858Y-111079954D01*
X125259954Y-111240858D01*
X125129432Y-111427265D01*
X125129431Y-111427267D01*
X125033261Y-111633502D01*
X125033258Y-111633511D01*
X124974366Y-111853302D01*
X124974364Y-111853313D01*
X124954532Y-112079998D01*
X124954532Y-112080001D01*
X124974364Y-112306686D01*
X124974366Y-112306697D01*
X125033258Y-112526488D01*
X125033261Y-112526497D01*
X125129431Y-112732732D01*
X125129432Y-112732734D01*
X125259954Y-112919141D01*
X125420858Y-113080045D01*
X125420861Y-113080047D01*
X125607266Y-113210568D01*
X125664681Y-113237341D01*
X125665275Y-113237618D01*
X125717714Y-113283791D01*
X125736866Y-113350984D01*
X125716650Y-113417865D01*
X125665275Y-113462382D01*
X125607267Y-113489431D01*
X125607265Y-113489432D01*
X125420858Y-113619954D01*
X125259954Y-113780858D01*
X125129432Y-113967265D01*
X125129431Y-113967267D01*
X125033261Y-114173502D01*
X125033258Y-114173511D01*
X124974366Y-114393302D01*
X124974364Y-114393313D01*
X124954532Y-114619998D01*
X124954532Y-114620001D01*
X124974364Y-114846686D01*
X124974366Y-114846697D01*
X125033258Y-115066488D01*
X125033261Y-115066497D01*
X125129431Y-115272732D01*
X125129432Y-115272734D01*
X125259954Y-115459141D01*
X125420858Y-115620045D01*
X125420861Y-115620047D01*
X125607266Y-115750568D01*
X125665865Y-115777893D01*
X125718305Y-115824065D01*
X125737457Y-115891258D01*
X125717242Y-115958139D01*
X125665867Y-116002657D01*
X125607515Y-116029867D01*
X125421179Y-116160342D01*
X125260342Y-116321179D01*
X125129865Y-116507517D01*
X125033734Y-116713673D01*
X125033730Y-116713682D01*
X124981127Y-116909999D01*
X124981128Y-116910000D01*
X125826988Y-116910000D01*
X125794075Y-116967007D01*
X125760000Y-117094174D01*
X125760000Y-117225826D01*
X125794075Y-117352993D01*
X125826988Y-117410000D01*
X124981128Y-117410000D01*
X125033730Y-117606317D01*
X125033734Y-117606326D01*
X125129865Y-117812482D01*
X125260342Y-117998820D01*
X125421179Y-118159657D01*
X125607518Y-118290134D01*
X125607520Y-118290135D01*
X125665865Y-118317342D01*
X125718305Y-118363514D01*
X125737457Y-118430707D01*
X125717242Y-118497589D01*
X125665867Y-118542105D01*
X125607268Y-118569431D01*
X125607264Y-118569433D01*
X125420858Y-118699954D01*
X125259954Y-118860858D01*
X125129432Y-119047265D01*
X125129431Y-119047267D01*
X125033261Y-119253502D01*
X125033258Y-119253511D01*
X124974366Y-119473302D01*
X124974364Y-119473313D01*
X124954532Y-119699998D01*
X124954532Y-119700001D01*
X124974364Y-119926686D01*
X124974366Y-119926697D01*
X125033258Y-120146488D01*
X125033261Y-120146497D01*
X125129431Y-120352732D01*
X125129432Y-120352734D01*
X125259954Y-120539141D01*
X125420858Y-120700045D01*
X125420861Y-120700047D01*
X125607266Y-120830568D01*
X125813504Y-120926739D01*
X126033308Y-120985635D01*
X126195230Y-120999801D01*
X126259998Y-121005468D01*
X126260000Y-121005468D01*
X126260002Y-121005468D01*
X126316807Y-121000498D01*
X126486692Y-120985635D01*
X126706496Y-120926739D01*
X126912734Y-120830568D01*
X127099139Y-120700047D01*
X127260047Y-120539139D01*
X127390568Y-120352734D01*
X127486739Y-120146496D01*
X127545635Y-119926692D01*
X127565468Y-119700000D01*
X127545635Y-119473308D01*
X127486739Y-119253504D01*
X127390568Y-119047266D01*
X127260047Y-118860861D01*
X127260045Y-118860858D01*
X127099141Y-118699954D01*
X126912734Y-118569432D01*
X126912732Y-118569431D01*
X126901275Y-118564088D01*
X126854132Y-118542105D01*
X126801694Y-118495934D01*
X126782542Y-118428740D01*
X126802758Y-118361859D01*
X126854134Y-118317341D01*
X126912484Y-118290132D01*
X127098820Y-118159657D01*
X127259657Y-117998820D01*
X127390134Y-117812482D01*
X127486265Y-117606326D01*
X127486269Y-117606317D01*
X127538872Y-117410000D01*
X126693012Y-117410000D01*
X126725925Y-117352993D01*
X126760000Y-117225826D01*
X126760000Y-117094174D01*
X126725925Y-116967007D01*
X126693012Y-116910000D01*
X127538872Y-116910000D01*
X127538872Y-116909999D01*
X127486269Y-116713682D01*
X127486265Y-116713673D01*
X127390134Y-116507517D01*
X127259657Y-116321179D01*
X127098820Y-116160342D01*
X126912482Y-116029865D01*
X126854133Y-116002657D01*
X126801694Y-115956484D01*
X126782542Y-115889291D01*
X126802758Y-115822410D01*
X126854129Y-115777895D01*
X126912734Y-115750568D01*
X127099139Y-115620047D01*
X127260047Y-115459139D01*
X127390568Y-115272734D01*
X127486739Y-115066496D01*
X127545635Y-114846692D01*
X127565468Y-114620000D01*
X127545635Y-114393308D01*
X127486739Y-114173504D01*
X127390568Y-113967266D01*
X127260047Y-113780861D01*
X127260045Y-113780858D01*
X127099141Y-113619954D01*
X126912734Y-113489432D01*
X126912728Y-113489429D01*
X126854725Y-113462382D01*
X126802285Y-113416210D01*
X126783133Y-113349017D01*
X126803348Y-113282135D01*
X126854725Y-113237618D01*
X126855319Y-113237341D01*
X126912734Y-113210568D01*
X127099139Y-113080047D01*
X127260047Y-112919139D01*
X127390568Y-112732734D01*
X127486739Y-112526496D01*
X127545635Y-112306692D01*
X127565468Y-112080000D01*
X127545635Y-111853308D01*
X127525082Y-111776604D01*
X127519847Y-111757066D01*
X127521510Y-111687217D01*
X127551939Y-111637294D01*
X128858506Y-110330728D01*
X128858511Y-110330724D01*
X128868714Y-110320520D01*
X128868716Y-110320520D01*
X128980520Y-110208716D01*
X129059577Y-110071784D01*
X129100500Y-109919057D01*
X129100500Y-108500096D01*
X129120185Y-108433057D01*
X129136814Y-108412420D01*
X140144695Y-97404538D01*
X140206016Y-97371055D01*
X140275708Y-97376039D01*
X140331641Y-97417911D01*
X140344756Y-97439816D01*
X140369431Y-97492732D01*
X140369432Y-97492734D01*
X140499954Y-97679141D01*
X140660858Y-97840045D01*
X140660861Y-97840047D01*
X140847266Y-97970568D01*
X140905275Y-97997618D01*
X140957714Y-98043791D01*
X140976866Y-98110984D01*
X140956650Y-98177865D01*
X140905275Y-98222382D01*
X140847267Y-98249431D01*
X140847265Y-98249432D01*
X140660858Y-98379954D01*
X140499954Y-98540858D01*
X140369432Y-98727265D01*
X140369431Y-98727267D01*
X140273261Y-98933502D01*
X140273258Y-98933511D01*
X140214366Y-99153302D01*
X140214364Y-99153313D01*
X140194532Y-99379998D01*
X140194532Y-99380001D01*
X140214364Y-99606686D01*
X140214366Y-99606697D01*
X140273258Y-99826488D01*
X140273261Y-99826497D01*
X140369431Y-100032732D01*
X140369432Y-100032734D01*
X140499954Y-100219141D01*
X140660858Y-100380045D01*
X140660861Y-100380047D01*
X140847266Y-100510568D01*
X140905275Y-100537618D01*
X140957714Y-100583791D01*
X140976866Y-100650984D01*
X140956650Y-100717865D01*
X140905275Y-100762382D01*
X140847267Y-100789431D01*
X140847265Y-100789432D01*
X140660858Y-100919954D01*
X140499954Y-101080858D01*
X140369432Y-101267265D01*
X140369431Y-101267267D01*
X140273261Y-101473502D01*
X140273258Y-101473511D01*
X140214366Y-101693302D01*
X140214364Y-101693313D01*
X140194532Y-101919998D01*
X140194532Y-101920001D01*
X140214364Y-102146686D01*
X140214366Y-102146697D01*
X140273258Y-102366488D01*
X140273261Y-102366497D01*
X140369431Y-102572732D01*
X140369432Y-102572734D01*
X140499954Y-102759141D01*
X140660858Y-102920045D01*
X140660861Y-102920047D01*
X140847266Y-103050568D01*
X140905275Y-103077618D01*
X140957714Y-103123791D01*
X140976866Y-103190984D01*
X140956650Y-103257865D01*
X140905275Y-103302382D01*
X140847267Y-103329431D01*
X140847265Y-103329432D01*
X140660858Y-103459954D01*
X140499954Y-103620858D01*
X140369432Y-103807265D01*
X140369431Y-103807267D01*
X140273261Y-104013502D01*
X140273258Y-104013511D01*
X140214366Y-104233302D01*
X140214364Y-104233313D01*
X140194532Y-104459998D01*
X140194532Y-104460001D01*
X140214364Y-104686686D01*
X140214366Y-104686697D01*
X140273258Y-104906488D01*
X140273261Y-104906497D01*
X140369431Y-105112732D01*
X140369432Y-105112734D01*
X140499954Y-105299141D01*
X140660858Y-105460045D01*
X140660861Y-105460047D01*
X140847266Y-105590568D01*
X140905275Y-105617618D01*
X140957714Y-105663791D01*
X140976866Y-105730984D01*
X140956650Y-105797865D01*
X140905275Y-105842382D01*
X140847267Y-105869431D01*
X140847265Y-105869432D01*
X140660858Y-105999954D01*
X140499954Y-106160858D01*
X140369432Y-106347265D01*
X140369431Y-106347267D01*
X140273261Y-106553502D01*
X140273258Y-106553511D01*
X140214366Y-106773302D01*
X140214364Y-106773313D01*
X140194532Y-106999998D01*
X140194532Y-107000001D01*
X140214364Y-107226686D01*
X140214366Y-107226697D01*
X140273258Y-107446488D01*
X140273261Y-107446497D01*
X140369431Y-107652732D01*
X140369432Y-107652734D01*
X140499954Y-107839141D01*
X140660858Y-108000045D01*
X140660861Y-108000047D01*
X140847266Y-108130568D01*
X140905275Y-108157618D01*
X140957714Y-108203791D01*
X140976866Y-108270984D01*
X140956650Y-108337865D01*
X140905275Y-108382382D01*
X140847267Y-108409431D01*
X140847265Y-108409432D01*
X140660858Y-108539954D01*
X140499954Y-108700858D01*
X140369432Y-108887265D01*
X140369431Y-108887267D01*
X140273261Y-109093502D01*
X140273258Y-109093511D01*
X140214366Y-109313302D01*
X140214364Y-109313313D01*
X140194532Y-109539998D01*
X140194532Y-109540001D01*
X140214364Y-109766686D01*
X140214366Y-109766697D01*
X140273258Y-109986488D01*
X140273261Y-109986497D01*
X140369431Y-110192732D01*
X140369432Y-110192734D01*
X140499954Y-110379141D01*
X140660858Y-110540045D01*
X140660861Y-110540047D01*
X140847266Y-110670568D01*
X140905865Y-110697893D01*
X140958305Y-110744065D01*
X140977457Y-110811258D01*
X140957242Y-110878139D01*
X140905867Y-110922657D01*
X140847515Y-110949867D01*
X140661179Y-111080342D01*
X140500342Y-111241179D01*
X140369865Y-111427517D01*
X140273734Y-111633673D01*
X140273730Y-111633682D01*
X140221127Y-111829999D01*
X140221128Y-111830000D01*
X141066988Y-111830000D01*
X141034075Y-111887007D01*
X141000000Y-112014174D01*
X141000000Y-112145826D01*
X141034075Y-112272993D01*
X141066988Y-112330000D01*
X140221128Y-112330000D01*
X140273730Y-112526317D01*
X140273734Y-112526326D01*
X140369865Y-112732482D01*
X140500342Y-112918820D01*
X140661179Y-113079657D01*
X140847518Y-113210134D01*
X140847520Y-113210135D01*
X140905865Y-113237342D01*
X140958305Y-113283514D01*
X140977457Y-113350707D01*
X140957242Y-113417589D01*
X140905867Y-113462105D01*
X140847268Y-113489431D01*
X140847264Y-113489433D01*
X140660858Y-113619954D01*
X140499954Y-113780858D01*
X140369432Y-113967265D01*
X140369431Y-113967267D01*
X140273261Y-114173502D01*
X140273258Y-114173511D01*
X140214366Y-114393302D01*
X140214364Y-114393313D01*
X140194532Y-114619998D01*
X140194532Y-114620001D01*
X140214364Y-114846686D01*
X140214366Y-114846697D01*
X140273258Y-115066488D01*
X140273261Y-115066497D01*
X140369431Y-115272732D01*
X140369432Y-115272734D01*
X140499954Y-115459141D01*
X140660858Y-115620045D01*
X140660861Y-115620047D01*
X140847266Y-115750568D01*
X140905275Y-115777618D01*
X140957714Y-115823791D01*
X140976866Y-115890984D01*
X140956650Y-115957865D01*
X140905275Y-116002382D01*
X140847267Y-116029431D01*
X140847265Y-116029432D01*
X140660858Y-116159954D01*
X140499954Y-116320858D01*
X140369432Y-116507265D01*
X140369431Y-116507267D01*
X140273261Y-116713502D01*
X140273258Y-116713511D01*
X140214366Y-116933302D01*
X140214364Y-116933313D01*
X140194532Y-117159998D01*
X140194532Y-117160001D01*
X140214364Y-117386686D01*
X140214366Y-117386697D01*
X140273258Y-117606488D01*
X140273261Y-117606497D01*
X140369431Y-117812732D01*
X140369432Y-117812734D01*
X140499954Y-117999141D01*
X140660858Y-118160045D01*
X140685462Y-118177273D01*
X140729087Y-118231849D01*
X140736281Y-118301348D01*
X140704758Y-118363703D01*
X140644529Y-118399117D01*
X140627593Y-118402138D01*
X140592516Y-118405908D01*
X140457671Y-118456202D01*
X140457664Y-118456206D01*
X140342455Y-118542452D01*
X140342452Y-118542455D01*
X140256206Y-118657664D01*
X140256202Y-118657671D01*
X140205908Y-118792517D01*
X140199501Y-118852116D01*
X140199501Y-118852123D01*
X140199500Y-118852135D01*
X140199500Y-120547870D01*
X140199501Y-120547876D01*
X140205908Y-120607483D01*
X140256202Y-120742328D01*
X140256206Y-120742335D01*
X140342452Y-120857544D01*
X140342455Y-120857547D01*
X140457664Y-120943793D01*
X140457671Y-120943797D01*
X140592517Y-120994091D01*
X140592516Y-120994091D01*
X140599444Y-120994835D01*
X140652127Y-121000500D01*
X142347872Y-121000499D01*
X142407483Y-120994091D01*
X142542331Y-120943796D01*
X142657546Y-120857546D01*
X142743796Y-120742331D01*
X142794091Y-120607483D01*
X142800500Y-120547873D01*
X142800499Y-118852128D01*
X142794091Y-118792517D01*
X142759567Y-118699954D01*
X142743797Y-118657671D01*
X142743793Y-118657664D01*
X142657547Y-118542455D01*
X142657544Y-118542452D01*
X142542335Y-118456206D01*
X142542328Y-118456202D01*
X142407482Y-118405908D01*
X142407483Y-118405908D01*
X142372404Y-118402137D01*
X142307853Y-118375399D01*
X142268005Y-118318006D01*
X142265512Y-118248181D01*
X142301165Y-118188092D01*
X142314539Y-118177272D01*
X142339140Y-118160046D01*
X142500045Y-117999141D01*
X142500047Y-117999139D01*
X142630568Y-117812734D01*
X142726739Y-117606496D01*
X142785635Y-117386692D01*
X142805468Y-117160000D01*
X142785635Y-116933308D01*
X142726739Y-116713504D01*
X142630568Y-116507266D01*
X142500047Y-116320861D01*
X142500045Y-116320858D01*
X142339141Y-116159954D01*
X142152734Y-116029432D01*
X142152728Y-116029429D01*
X142094725Y-116002382D01*
X142042285Y-115956210D01*
X142023133Y-115889017D01*
X142043348Y-115822135D01*
X142094725Y-115777618D01*
X142152734Y-115750568D01*
X142339139Y-115620047D01*
X142500047Y-115459139D01*
X142630568Y-115272734D01*
X142726739Y-115066496D01*
X142785635Y-114846692D01*
X142805468Y-114620000D01*
X142785635Y-114393308D01*
X142726739Y-114173504D01*
X142630568Y-113967266D01*
X142500047Y-113780861D01*
X142500045Y-113780858D01*
X142339141Y-113619954D01*
X142152734Y-113489432D01*
X142152732Y-113489431D01*
X142094725Y-113462382D01*
X142094132Y-113462105D01*
X142041694Y-113415934D01*
X142022542Y-113348740D01*
X142042758Y-113281859D01*
X142094134Y-113237341D01*
X142152484Y-113210132D01*
X142338820Y-113079657D01*
X142499657Y-112918820D01*
X142630134Y-112732482D01*
X142726265Y-112526326D01*
X142726269Y-112526317D01*
X142778872Y-112330000D01*
X141933012Y-112330000D01*
X141965925Y-112272993D01*
X142000000Y-112145826D01*
X142000000Y-112014174D01*
X141965925Y-111887007D01*
X141933012Y-111830000D01*
X142778872Y-111830000D01*
X142778872Y-111829999D01*
X142726269Y-111633682D01*
X142726265Y-111633673D01*
X142630134Y-111427517D01*
X142499657Y-111241179D01*
X142338820Y-111080342D01*
X142152482Y-110949865D01*
X142094133Y-110922657D01*
X142041694Y-110876484D01*
X142022542Y-110809291D01*
X142042758Y-110742410D01*
X142094129Y-110697895D01*
X142152734Y-110670568D01*
X142339139Y-110540047D01*
X142500047Y-110379139D01*
X142630568Y-110192734D01*
X142726739Y-109986496D01*
X142785635Y-109766692D01*
X142805468Y-109540000D01*
X142805459Y-109539902D01*
X142785635Y-109313313D01*
X142785635Y-109313308D01*
X142726739Y-109093504D01*
X142630568Y-108887266D01*
X142500047Y-108700861D01*
X142500045Y-108700858D01*
X142339141Y-108539954D01*
X142152734Y-108409432D01*
X142152728Y-108409429D01*
X142094725Y-108382382D01*
X142042285Y-108336210D01*
X142023133Y-108269017D01*
X142043348Y-108202135D01*
X142094725Y-108157618D01*
X142152734Y-108130568D01*
X142339139Y-108000047D01*
X142500047Y-107839139D01*
X142630568Y-107652734D01*
X142726739Y-107446496D01*
X142785635Y-107226692D01*
X142805468Y-107000000D01*
X142785635Y-106773308D01*
X142726739Y-106553504D01*
X142630568Y-106347266D01*
X142500047Y-106160861D01*
X142500045Y-106160858D01*
X142339141Y-105999954D01*
X142152734Y-105869432D01*
X142152728Y-105869429D01*
X142094725Y-105842382D01*
X142042285Y-105796210D01*
X142023133Y-105729017D01*
X142043348Y-105662135D01*
X142094725Y-105617618D01*
X142152734Y-105590568D01*
X142339139Y-105460047D01*
X142500047Y-105299139D01*
X142630568Y-105112734D01*
X142726739Y-104906496D01*
X142785635Y-104686692D01*
X142805468Y-104460000D01*
X142785635Y-104233308D01*
X142726739Y-104013504D01*
X142630568Y-103807266D01*
X142500047Y-103620861D01*
X142500045Y-103620858D01*
X142339141Y-103459954D01*
X142152734Y-103329432D01*
X142152728Y-103329429D01*
X142094725Y-103302382D01*
X142042285Y-103256210D01*
X142023133Y-103189017D01*
X142043348Y-103122135D01*
X142094725Y-103077618D01*
X142152734Y-103050568D01*
X142339139Y-102920047D01*
X142500047Y-102759139D01*
X142630568Y-102572734D01*
X142726739Y-102366496D01*
X142785635Y-102146692D01*
X142805468Y-101920000D01*
X142785635Y-101693308D01*
X142726739Y-101473504D01*
X142630568Y-101267266D01*
X142500047Y-101080861D01*
X142500045Y-101080858D01*
X142339141Y-100919954D01*
X142152734Y-100789432D01*
X142152728Y-100789429D01*
X142094725Y-100762382D01*
X142042285Y-100716210D01*
X142023133Y-100649017D01*
X142043348Y-100582135D01*
X142094725Y-100537618D01*
X142152734Y-100510568D01*
X142339139Y-100380047D01*
X142500047Y-100219139D01*
X142630568Y-100032734D01*
X142726739Y-99826496D01*
X142785635Y-99606692D01*
X142805468Y-99380000D01*
X142785635Y-99153308D01*
X142726739Y-98933504D01*
X142630568Y-98727266D01*
X142500047Y-98540861D01*
X142500045Y-98540858D01*
X142339141Y-98379954D01*
X142152734Y-98249432D01*
X142152728Y-98249429D01*
X142094725Y-98222382D01*
X142042285Y-98176210D01*
X142023133Y-98109017D01*
X142043348Y-98042135D01*
X142094725Y-97997618D01*
X142152734Y-97970568D01*
X142339139Y-97840047D01*
X142500047Y-97679139D01*
X142630568Y-97492734D01*
X142726739Y-97286496D01*
X142785635Y-97066692D01*
X142805468Y-96840000D01*
X142785635Y-96613308D01*
X142726739Y-96393504D01*
X142672368Y-96276905D01*
X142661876Y-96207827D01*
X142690396Y-96144043D01*
X142748873Y-96105804D01*
X142784750Y-96100500D01*
X144279055Y-96100500D01*
X144279057Y-96100500D01*
X144431784Y-96059577D01*
X144568716Y-95980520D01*
X144680520Y-95868716D01*
X144759577Y-95731784D01*
X144800500Y-95579057D01*
X144800500Y-92699998D01*
X145494532Y-92699998D01*
X145494532Y-92700001D01*
X145514364Y-92926686D01*
X145514366Y-92926697D01*
X145573258Y-93146488D01*
X145573261Y-93146497D01*
X145669431Y-93352732D01*
X145669432Y-93352734D01*
X145799954Y-93539141D01*
X145960858Y-93700045D01*
X145960861Y-93700047D01*
X146147266Y-93830568D01*
X146353504Y-93926739D01*
X146573308Y-93985635D01*
X146735230Y-93999801D01*
X146799998Y-94005468D01*
X146800000Y-94005468D01*
X146800002Y-94005468D01*
X146856673Y-94000509D01*
X147026692Y-93985635D01*
X147246496Y-93926739D01*
X147452734Y-93830568D01*
X147467830Y-93819998D01*
X152194532Y-93819998D01*
X152194532Y-93820001D01*
X152214364Y-94046686D01*
X152214366Y-94046697D01*
X152273258Y-94266488D01*
X152273261Y-94266497D01*
X152369431Y-94472732D01*
X152369432Y-94472734D01*
X152499954Y-94659141D01*
X152660858Y-94820045D01*
X152660861Y-94820047D01*
X152847266Y-94950568D01*
X153053504Y-95046739D01*
X153273308Y-95105635D01*
X153435230Y-95119801D01*
X153499998Y-95125468D01*
X153500000Y-95125468D01*
X153500002Y-95125468D01*
X153556673Y-95120509D01*
X153726692Y-95105635D01*
X153946496Y-95046739D01*
X154152734Y-94950568D01*
X154339139Y-94820047D01*
X154500047Y-94659139D01*
X154630568Y-94472734D01*
X154726739Y-94266496D01*
X154785635Y-94046692D01*
X154805468Y-93820000D01*
X154785635Y-93593308D01*
X154726739Y-93373504D01*
X154630568Y-93167266D01*
X154500047Y-92980861D01*
X154500045Y-92980858D01*
X154339141Y-92819954D01*
X154310635Y-92799994D01*
X157094357Y-92799994D01*
X157094357Y-92800005D01*
X157114890Y-93047812D01*
X157114892Y-93047824D01*
X157175936Y-93288881D01*
X157275826Y-93516606D01*
X157411833Y-93724782D01*
X157411836Y-93724785D01*
X157580256Y-93907738D01*
X157776491Y-94060474D01*
X157995190Y-94178828D01*
X158230386Y-94259571D01*
X158475665Y-94300500D01*
X158724335Y-94300500D01*
X158969614Y-94259571D01*
X159204810Y-94178828D01*
X159423509Y-94060474D01*
X159619744Y-93907738D01*
X159788164Y-93724785D01*
X159924173Y-93516607D01*
X160024063Y-93288881D01*
X160085108Y-93047821D01*
X160086666Y-93029017D01*
X160105643Y-92800005D01*
X160105643Y-92799994D01*
X163594357Y-92799994D01*
X163594357Y-92800005D01*
X163614890Y-93047812D01*
X163614892Y-93047824D01*
X163675936Y-93288881D01*
X163775826Y-93516606D01*
X163911833Y-93724782D01*
X163911836Y-93724785D01*
X164080256Y-93907738D01*
X164276491Y-94060474D01*
X164495190Y-94178828D01*
X164730386Y-94259571D01*
X164975665Y-94300500D01*
X165224335Y-94300500D01*
X165469614Y-94259571D01*
X165704810Y-94178828D01*
X165923509Y-94060474D01*
X166119744Y-93907738D01*
X166288164Y-93724785D01*
X166424173Y-93516607D01*
X166524063Y-93288881D01*
X166585108Y-93047821D01*
X166586666Y-93029017D01*
X166605643Y-92800005D01*
X166605643Y-92799994D01*
X166585109Y-92552187D01*
X166585107Y-92552175D01*
X166524063Y-92311118D01*
X166424173Y-92083393D01*
X166288166Y-91875217D01*
X166266557Y-91851744D01*
X166119744Y-91692262D01*
X165923509Y-91539526D01*
X165923507Y-91539525D01*
X165923506Y-91539524D01*
X165704811Y-91421172D01*
X165704802Y-91421169D01*
X165469616Y-91340429D01*
X165224335Y-91299500D01*
X164975665Y-91299500D01*
X164730383Y-91340429D01*
X164495197Y-91421169D01*
X164495188Y-91421172D01*
X164276493Y-91539524D01*
X164080257Y-91692261D01*
X163911833Y-91875217D01*
X163775826Y-92083393D01*
X163675936Y-92311118D01*
X163614892Y-92552175D01*
X163614890Y-92552187D01*
X163594357Y-92799994D01*
X160105643Y-92799994D01*
X160085109Y-92552187D01*
X160085107Y-92552175D01*
X160024063Y-92311118D01*
X159924173Y-92083393D01*
X159788166Y-91875217D01*
X159766557Y-91851744D01*
X159619744Y-91692262D01*
X159423509Y-91539526D01*
X159423507Y-91539525D01*
X159423506Y-91539524D01*
X159204811Y-91421172D01*
X159204802Y-91421169D01*
X158969616Y-91340429D01*
X158724335Y-91299500D01*
X158475665Y-91299500D01*
X158230383Y-91340429D01*
X157995197Y-91421169D01*
X157995188Y-91421172D01*
X157776493Y-91539524D01*
X157580257Y-91692261D01*
X157411833Y-91875217D01*
X157275826Y-92083393D01*
X157175936Y-92311118D01*
X157114892Y-92552175D01*
X157114890Y-92552187D01*
X157094357Y-92799994D01*
X154310635Y-92799994D01*
X154152734Y-92689432D01*
X154152732Y-92689431D01*
X153946497Y-92593261D01*
X153946488Y-92593258D01*
X153726697Y-92534366D01*
X153726693Y-92534365D01*
X153726692Y-92534365D01*
X153726691Y-92534364D01*
X153726686Y-92534364D01*
X153500002Y-92514532D01*
X153499998Y-92514532D01*
X153273313Y-92534364D01*
X153273302Y-92534366D01*
X153053511Y-92593258D01*
X153053502Y-92593261D01*
X152847267Y-92689431D01*
X152847265Y-92689432D01*
X152660858Y-92819954D01*
X152499954Y-92980858D01*
X152369432Y-93167265D01*
X152369431Y-93167267D01*
X152273261Y-93373502D01*
X152273258Y-93373511D01*
X152214366Y-93593302D01*
X152214364Y-93593313D01*
X152194532Y-93819998D01*
X147467830Y-93819998D01*
X147639139Y-93700047D01*
X147800047Y-93539139D01*
X147930568Y-93352734D01*
X148026739Y-93146496D01*
X148085635Y-92926692D01*
X148105468Y-92700000D01*
X148104543Y-92689432D01*
X148096644Y-92599139D01*
X148085635Y-92473308D01*
X148026739Y-92253504D01*
X147930568Y-92047266D01*
X147800047Y-91860861D01*
X147800045Y-91860858D01*
X147639141Y-91699954D01*
X147452734Y-91569432D01*
X147452732Y-91569431D01*
X147246497Y-91473261D01*
X147246488Y-91473258D01*
X147026697Y-91414366D01*
X147026693Y-91414365D01*
X147026692Y-91414365D01*
X147026691Y-91414364D01*
X147026686Y-91414364D01*
X146800002Y-91394532D01*
X146799998Y-91394532D01*
X146573313Y-91414364D01*
X146573302Y-91414366D01*
X146353511Y-91473258D01*
X146353502Y-91473261D01*
X146147267Y-91569431D01*
X146147265Y-91569432D01*
X145960858Y-91699954D01*
X145799954Y-91860858D01*
X145669432Y-92047265D01*
X145669431Y-92047267D01*
X145573261Y-92253502D01*
X145573258Y-92253511D01*
X145514366Y-92473302D01*
X145514364Y-92473313D01*
X145494532Y-92699998D01*
X144800500Y-92699998D01*
X144800500Y-91282412D01*
X144820185Y-91215373D01*
X144827555Y-91205097D01*
X144829810Y-91202267D01*
X144829816Y-91202262D01*
X144925789Y-91049522D01*
X144985368Y-90879255D01*
X145005565Y-90700000D01*
X144994566Y-90602382D01*
X144985369Y-90520750D01*
X144985368Y-90520745D01*
X144950863Y-90422135D01*
X144925789Y-90350478D01*
X144829816Y-90197738D01*
X144702262Y-90070184D01*
X144684684Y-90059139D01*
X144549523Y-89974211D01*
X144379254Y-89914631D01*
X144379249Y-89914630D01*
X144200004Y-89894435D01*
X144199996Y-89894435D01*
X144020750Y-89914630D01*
X144020745Y-89914631D01*
X143850476Y-89974211D01*
X143697737Y-90070184D01*
X143570184Y-90197737D01*
X143474211Y-90350476D01*
X143414631Y-90520745D01*
X143414630Y-90520750D01*
X143394435Y-90699996D01*
X143394435Y-90700003D01*
X143414630Y-90879249D01*
X143414631Y-90879254D01*
X143474211Y-91049523D01*
X143570185Y-91202263D01*
X143572445Y-91205097D01*
X143573334Y-91207275D01*
X143573889Y-91208158D01*
X143573734Y-91208255D01*
X143598855Y-91269783D01*
X143599500Y-91282412D01*
X143599500Y-94775500D01*
X143579815Y-94842539D01*
X143527011Y-94888294D01*
X143475500Y-94899500D01*
X142847342Y-94899500D01*
X142780303Y-94879815D01*
X142734548Y-94827011D01*
X142724604Y-94757853D01*
X142727567Y-94743407D01*
X142750146Y-94659139D01*
X142785635Y-94526692D01*
X142805468Y-94300000D01*
X142785635Y-94073308D01*
X142726739Y-93853504D01*
X142630568Y-93647266D01*
X142500047Y-93460861D01*
X142500045Y-93460858D01*
X142339141Y-93299954D01*
X142152734Y-93169432D01*
X142152728Y-93169429D01*
X142103548Y-93146496D01*
X142094724Y-93142381D01*
X142042285Y-93096210D01*
X142023133Y-93029017D01*
X142043348Y-92962135D01*
X142094725Y-92917618D01*
X142152734Y-92890568D01*
X142339139Y-92760047D01*
X142500047Y-92599139D01*
X142630568Y-92412734D01*
X142726739Y-92206496D01*
X142785635Y-91986692D01*
X142805468Y-91760000D01*
X142785635Y-91533308D01*
X142740916Y-91366415D01*
X142726741Y-91313511D01*
X142726738Y-91313502D01*
X142677203Y-91207275D01*
X142630568Y-91107266D01*
X142500047Y-90920861D01*
X142500045Y-90920858D01*
X142339141Y-90759954D01*
X142152734Y-90629432D01*
X142152728Y-90629429D01*
X142094725Y-90602382D01*
X142042285Y-90556210D01*
X142023133Y-90489017D01*
X142043348Y-90422135D01*
X142094725Y-90377618D01*
X142152734Y-90350568D01*
X142339139Y-90220047D01*
X142500047Y-90059139D01*
X142630568Y-89872734D01*
X142726739Y-89666496D01*
X142785635Y-89446692D01*
X142805468Y-89220000D01*
X142785635Y-88993308D01*
X142726739Y-88773504D01*
X142630568Y-88567266D01*
X142500047Y-88380861D01*
X142500045Y-88380858D01*
X142339141Y-88219954D01*
X142152734Y-88089432D01*
X142152728Y-88089429D01*
X142094725Y-88062382D01*
X142042285Y-88016210D01*
X142023133Y-87949017D01*
X142043348Y-87882135D01*
X142094725Y-87837618D01*
X142152734Y-87810568D01*
X142310647Y-87699997D01*
X145495034Y-87699997D01*
X145495034Y-87700002D01*
X145514858Y-87926599D01*
X145514860Y-87926610D01*
X145573730Y-88146317D01*
X145573735Y-88146331D01*
X145669863Y-88352478D01*
X145720974Y-88425472D01*
X146400000Y-87746446D01*
X146400000Y-87752661D01*
X146427259Y-87854394D01*
X146479920Y-87945606D01*
X146554394Y-88020080D01*
X146645606Y-88072741D01*
X146747339Y-88100000D01*
X146753553Y-88100000D01*
X146074526Y-88779025D01*
X146147513Y-88830132D01*
X146147521Y-88830136D01*
X146353668Y-88926264D01*
X146353682Y-88926269D01*
X146573389Y-88985139D01*
X146573400Y-88985141D01*
X146799998Y-89004966D01*
X146800002Y-89004966D01*
X147026599Y-88985141D01*
X147026610Y-88985139D01*
X147246317Y-88926269D01*
X147246331Y-88926264D01*
X147452478Y-88830136D01*
X147525471Y-88779024D01*
X146846447Y-88100000D01*
X146852661Y-88100000D01*
X146954394Y-88072741D01*
X147045606Y-88020080D01*
X147120080Y-87945606D01*
X147172741Y-87854394D01*
X147200000Y-87752661D01*
X147200000Y-87746447D01*
X147879024Y-88425471D01*
X147930136Y-88352478D01*
X147954610Y-88299994D01*
X157094859Y-88299994D01*
X157094859Y-88300005D01*
X157115385Y-88547729D01*
X157115387Y-88547738D01*
X157176412Y-88788717D01*
X157276266Y-89016364D01*
X157376564Y-89169882D01*
X158076212Y-88470234D01*
X158087482Y-88512292D01*
X158159890Y-88637708D01*
X158262292Y-88740110D01*
X158387708Y-88812518D01*
X158429765Y-88823787D01*
X157729942Y-89523609D01*
X157776768Y-89560055D01*
X157776770Y-89560056D01*
X157995385Y-89678364D01*
X157995396Y-89678369D01*
X158230506Y-89759083D01*
X158475707Y-89800000D01*
X158724293Y-89800000D01*
X158969493Y-89759083D01*
X159204603Y-89678369D01*
X159204614Y-89678364D01*
X159423228Y-89560057D01*
X159423231Y-89560055D01*
X159470056Y-89523609D01*
X158770234Y-88823787D01*
X158812292Y-88812518D01*
X158937708Y-88740110D01*
X159040110Y-88637708D01*
X159112518Y-88512292D01*
X159123787Y-88470235D01*
X159823434Y-89169882D01*
X159923731Y-89016369D01*
X160023587Y-88788717D01*
X160084612Y-88547738D01*
X160084614Y-88547729D01*
X160105141Y-88300005D01*
X160105141Y-88299994D01*
X163594859Y-88299994D01*
X163594859Y-88300005D01*
X163615385Y-88547729D01*
X163615387Y-88547738D01*
X163676412Y-88788717D01*
X163776266Y-89016364D01*
X163876564Y-89169882D01*
X164576212Y-88470234D01*
X164587482Y-88512292D01*
X164659890Y-88637708D01*
X164762292Y-88740110D01*
X164887708Y-88812518D01*
X164929765Y-88823787D01*
X164229942Y-89523609D01*
X164276768Y-89560055D01*
X164276770Y-89560056D01*
X164495385Y-89678364D01*
X164495396Y-89678369D01*
X164730506Y-89759083D01*
X164975707Y-89800000D01*
X165224293Y-89800000D01*
X165469493Y-89759083D01*
X165704603Y-89678369D01*
X165704614Y-89678364D01*
X165923228Y-89560057D01*
X165923231Y-89560055D01*
X165970056Y-89523609D01*
X165270234Y-88823787D01*
X165312292Y-88812518D01*
X165437708Y-88740110D01*
X165540110Y-88637708D01*
X165612518Y-88512292D01*
X165623787Y-88470234D01*
X166323434Y-89169882D01*
X166423731Y-89016369D01*
X166523587Y-88788717D01*
X166584612Y-88547738D01*
X166584614Y-88547729D01*
X166605141Y-88300005D01*
X166605141Y-88299994D01*
X166584614Y-88052270D01*
X166584612Y-88052261D01*
X166523587Y-87811282D01*
X166423731Y-87583630D01*
X166323434Y-87430116D01*
X165623787Y-88129764D01*
X165612518Y-88087708D01*
X165540110Y-87962292D01*
X165437708Y-87859890D01*
X165312292Y-87787482D01*
X165270235Y-87776212D01*
X165970057Y-87076390D01*
X165970056Y-87076389D01*
X165923229Y-87039943D01*
X165704614Y-86921635D01*
X165704603Y-86921630D01*
X165469493Y-86840916D01*
X165224293Y-86800000D01*
X164975707Y-86800000D01*
X164730506Y-86840916D01*
X164495396Y-86921630D01*
X164495390Y-86921632D01*
X164276761Y-87039949D01*
X164229942Y-87076388D01*
X164229942Y-87076390D01*
X164929765Y-87776212D01*
X164887708Y-87787482D01*
X164762292Y-87859890D01*
X164659890Y-87962292D01*
X164587482Y-88087708D01*
X164576212Y-88129764D01*
X163876564Y-87430116D01*
X163776267Y-87583632D01*
X163676412Y-87811282D01*
X163615387Y-88052261D01*
X163615385Y-88052270D01*
X163594859Y-88299994D01*
X160105141Y-88299994D01*
X160084614Y-88052270D01*
X160084612Y-88052261D01*
X160023587Y-87811282D01*
X159923731Y-87583630D01*
X159823434Y-87430116D01*
X159123787Y-88129764D01*
X159112518Y-88087708D01*
X159040110Y-87962292D01*
X158937708Y-87859890D01*
X158812292Y-87787482D01*
X158770235Y-87776212D01*
X159470057Y-87076390D01*
X159470056Y-87076389D01*
X159423229Y-87039943D01*
X159204614Y-86921635D01*
X159204603Y-86921630D01*
X158969493Y-86840916D01*
X158724293Y-86800000D01*
X158475707Y-86800000D01*
X158230506Y-86840916D01*
X157995396Y-86921630D01*
X157995390Y-86921632D01*
X157776761Y-87039949D01*
X157729942Y-87076388D01*
X157729942Y-87076390D01*
X158429765Y-87776212D01*
X158387708Y-87787482D01*
X158262292Y-87859890D01*
X158159890Y-87962292D01*
X158087482Y-88087708D01*
X158076212Y-88129764D01*
X157376564Y-87430116D01*
X157276267Y-87583632D01*
X157176412Y-87811282D01*
X157115387Y-88052261D01*
X157115385Y-88052270D01*
X157094859Y-88299994D01*
X147954610Y-88299994D01*
X148026264Y-88146331D01*
X148026269Y-88146317D01*
X148085139Y-87926610D01*
X148085141Y-87926599D01*
X148104966Y-87700002D01*
X148104966Y-87699997D01*
X148085141Y-87473400D01*
X148085139Y-87473389D01*
X148026269Y-87253682D01*
X148026264Y-87253668D01*
X147930136Y-87047521D01*
X147930132Y-87047513D01*
X147879025Y-86974526D01*
X147200000Y-87653551D01*
X147200000Y-87647339D01*
X147172741Y-87545606D01*
X147120080Y-87454394D01*
X147045606Y-87379920D01*
X146954394Y-87327259D01*
X146852661Y-87300000D01*
X146846448Y-87300000D01*
X147525472Y-86620974D01*
X147452478Y-86569863D01*
X147246331Y-86473735D01*
X147246317Y-86473730D01*
X147026610Y-86414860D01*
X147026599Y-86414858D01*
X146800002Y-86395034D01*
X146799998Y-86395034D01*
X146573400Y-86414858D01*
X146573389Y-86414860D01*
X146353682Y-86473730D01*
X146353673Y-86473734D01*
X146147516Y-86569866D01*
X146147512Y-86569868D01*
X146074526Y-86620973D01*
X146074526Y-86620974D01*
X146753553Y-87300000D01*
X146747339Y-87300000D01*
X146645606Y-87327259D01*
X146554394Y-87379920D01*
X146479920Y-87454394D01*
X146427259Y-87545606D01*
X146400000Y-87647339D01*
X146400000Y-87653552D01*
X145720974Y-86974526D01*
X145720973Y-86974526D01*
X145669868Y-87047512D01*
X145669866Y-87047516D01*
X145573734Y-87253673D01*
X145573730Y-87253682D01*
X145514860Y-87473389D01*
X145514858Y-87473400D01*
X145495034Y-87699997D01*
X142310647Y-87699997D01*
X142339139Y-87680047D01*
X142500047Y-87519139D01*
X142630568Y-87332734D01*
X142726739Y-87126496D01*
X142785635Y-86906692D01*
X142805468Y-86680000D01*
X142785635Y-86453308D01*
X142726739Y-86233504D01*
X142711115Y-86199998D01*
X152194532Y-86199998D01*
X152194532Y-86200001D01*
X152214364Y-86426686D01*
X152214366Y-86426697D01*
X152273258Y-86646488D01*
X152273261Y-86646497D01*
X152369431Y-86852732D01*
X152369432Y-86852734D01*
X152499954Y-87039141D01*
X152660858Y-87200045D01*
X152660861Y-87200047D01*
X152847266Y-87330568D01*
X153053504Y-87426739D01*
X153273308Y-87485635D01*
X153435230Y-87499801D01*
X153499998Y-87505468D01*
X153500000Y-87505468D01*
X153500002Y-87505468D01*
X153556673Y-87500509D01*
X153726692Y-87485635D01*
X153946496Y-87426739D01*
X154152734Y-87330568D01*
X154339139Y-87200047D01*
X154500047Y-87039139D01*
X154630568Y-86852734D01*
X154726739Y-86646496D01*
X154785635Y-86426692D01*
X154805468Y-86200000D01*
X154785635Y-85973308D01*
X154726739Y-85753504D01*
X154630568Y-85547266D01*
X154500047Y-85360861D01*
X154500045Y-85360858D01*
X154339141Y-85199954D01*
X154152734Y-85069432D01*
X154152732Y-85069431D01*
X153946497Y-84973261D01*
X153946488Y-84973258D01*
X153726697Y-84914366D01*
X153726693Y-84914365D01*
X153726692Y-84914365D01*
X153726691Y-84914364D01*
X153726686Y-84914364D01*
X153500002Y-84894532D01*
X153499998Y-84894532D01*
X153273313Y-84914364D01*
X153273302Y-84914366D01*
X153053511Y-84973258D01*
X153053502Y-84973261D01*
X152847267Y-85069431D01*
X152847265Y-85069432D01*
X152660858Y-85199954D01*
X152499954Y-85360858D01*
X152369432Y-85547265D01*
X152369431Y-85547267D01*
X152273261Y-85753502D01*
X152273258Y-85753511D01*
X152214366Y-85973302D01*
X152214364Y-85973313D01*
X152194532Y-86199998D01*
X142711115Y-86199998D01*
X142630568Y-86027266D01*
X142500047Y-85840861D01*
X142500045Y-85840858D01*
X142339141Y-85679954D01*
X142152734Y-85549432D01*
X142152728Y-85549429D01*
X142094725Y-85522382D01*
X142042285Y-85476210D01*
X142023133Y-85409017D01*
X142043348Y-85342135D01*
X142094725Y-85297618D01*
X142152734Y-85270568D01*
X142339139Y-85140047D01*
X142500047Y-84979139D01*
X142630568Y-84792734D01*
X142726739Y-84586496D01*
X142785635Y-84366692D01*
X142805468Y-84140000D01*
X142785635Y-83913308D01*
X142726739Y-83693504D01*
X142630568Y-83487266D01*
X142500047Y-83300861D01*
X142500045Y-83300858D01*
X142339141Y-83139954D01*
X142152734Y-83009432D01*
X142152732Y-83009431D01*
X141946497Y-82913261D01*
X141946488Y-82913258D01*
X141726697Y-82854366D01*
X141726693Y-82854365D01*
X141726692Y-82854365D01*
X141726691Y-82854364D01*
X141726686Y-82854364D01*
X141500002Y-82834532D01*
X141499998Y-82834532D01*
X141273313Y-82854364D01*
X141273302Y-82854366D01*
X141053511Y-82913258D01*
X141053502Y-82913261D01*
X140847267Y-83009431D01*
X140847265Y-83009432D01*
X140660858Y-83139954D01*
X140499954Y-83300858D01*
X140369432Y-83487265D01*
X140369431Y-83487267D01*
X140273261Y-83693502D01*
X140273258Y-83693511D01*
X140214366Y-83913302D01*
X140214364Y-83913313D01*
X140194532Y-84139998D01*
X140194532Y-84140001D01*
X140214364Y-84366686D01*
X140214366Y-84366697D01*
X140273258Y-84586488D01*
X140273261Y-84586497D01*
X140369431Y-84792732D01*
X140369432Y-84792734D01*
X140499954Y-84979141D01*
X140660858Y-85140045D01*
X140660861Y-85140047D01*
X140847266Y-85270568D01*
X140905275Y-85297618D01*
X140957714Y-85343791D01*
X140976866Y-85410984D01*
X140956650Y-85477865D01*
X140905275Y-85522382D01*
X140847267Y-85549431D01*
X140847265Y-85549432D01*
X140660858Y-85679954D01*
X140499954Y-85840858D01*
X140369432Y-86027265D01*
X140369431Y-86027267D01*
X140273261Y-86233502D01*
X140273258Y-86233511D01*
X140214366Y-86453302D01*
X140214364Y-86453313D01*
X140194532Y-86679998D01*
X140194532Y-86680001D01*
X140214364Y-86906686D01*
X140214366Y-86906697D01*
X140273258Y-87126488D01*
X140273261Y-87126497D01*
X140369431Y-87332732D01*
X140369432Y-87332734D01*
X140499954Y-87519141D01*
X140660858Y-87680045D01*
X140660861Y-87680047D01*
X140847266Y-87810568D01*
X140905275Y-87837618D01*
X140957714Y-87883791D01*
X140976866Y-87950984D01*
X140956650Y-88017865D01*
X140905275Y-88062382D01*
X140847267Y-88089431D01*
X140847265Y-88089432D01*
X140660858Y-88219954D01*
X140499954Y-88380858D01*
X140369432Y-88567265D01*
X140369431Y-88567267D01*
X140273261Y-88773502D01*
X140273258Y-88773511D01*
X140214366Y-88993302D01*
X140214364Y-88993313D01*
X140194532Y-89219998D01*
X140194532Y-89220001D01*
X140214364Y-89446686D01*
X140214366Y-89446697D01*
X140273258Y-89666488D01*
X140273261Y-89666497D01*
X140369431Y-89872732D01*
X140369432Y-89872734D01*
X140499954Y-90059141D01*
X140660858Y-90220045D01*
X140660861Y-90220047D01*
X140847266Y-90350568D01*
X140905275Y-90377618D01*
X140957714Y-90423791D01*
X140976866Y-90490984D01*
X140956650Y-90557865D01*
X140905275Y-90602382D01*
X140847267Y-90629431D01*
X140847265Y-90629432D01*
X140660858Y-90759954D01*
X140499954Y-90920858D01*
X140369432Y-91107265D01*
X140369431Y-91107267D01*
X140273261Y-91313502D01*
X140273258Y-91313511D01*
X140214366Y-91533302D01*
X140214364Y-91533313D01*
X140194532Y-91759998D01*
X140194532Y-91760001D01*
X140214364Y-91986686D01*
X140214366Y-91986697D01*
X140273258Y-92206488D01*
X140273261Y-92206497D01*
X140369431Y-92412732D01*
X140369432Y-92412734D01*
X140499954Y-92599141D01*
X140660858Y-92760045D01*
X140660861Y-92760047D01*
X140847266Y-92890568D01*
X140905275Y-92917618D01*
X140957714Y-92963791D01*
X140976866Y-93030984D01*
X140956650Y-93097865D01*
X140905275Y-93142382D01*
X140847267Y-93169431D01*
X140847265Y-93169432D01*
X140660858Y-93299954D01*
X140499954Y-93460858D01*
X140369432Y-93647265D01*
X140369431Y-93647267D01*
X140273261Y-93853502D01*
X140273258Y-93853511D01*
X140214366Y-94073302D01*
X140214364Y-94073313D01*
X140194532Y-94299998D01*
X140194532Y-94300001D01*
X140214364Y-94526686D01*
X140214366Y-94526697D01*
X140273258Y-94746488D01*
X140273261Y-94746497D01*
X140369431Y-94952732D01*
X140369432Y-94952734D01*
X140499954Y-95139141D01*
X140518107Y-95157294D01*
X140551592Y-95218617D01*
X140546608Y-95288309D01*
X140518107Y-95332656D01*
X128131286Y-107719478D01*
X128019481Y-107831282D01*
X128019479Y-107831285D01*
X128003502Y-107858958D01*
X127987525Y-107886632D01*
X127940423Y-107968215D01*
X127899499Y-108120943D01*
X127899499Y-108120945D01*
X127899499Y-108289046D01*
X127899500Y-108289059D01*
X127899500Y-109539902D01*
X127879815Y-109606941D01*
X127863181Y-109627584D01*
X127769428Y-109721336D01*
X127708104Y-109754820D01*
X127638413Y-109749836D01*
X127582479Y-109707964D01*
X127558063Y-109642499D01*
X127558218Y-109622857D01*
X127565468Y-109540000D01*
X127565459Y-109539902D01*
X127545635Y-109313313D01*
X127545635Y-109313308D01*
X127486739Y-109093504D01*
X127390568Y-108887266D01*
X127260047Y-108700861D01*
X127260045Y-108700858D01*
X127099141Y-108539954D01*
X126912734Y-108409432D01*
X126912728Y-108409429D01*
X126854725Y-108382382D01*
X126802285Y-108336210D01*
X126783133Y-108269017D01*
X126803348Y-108202135D01*
X126854725Y-108157618D01*
X126912734Y-108130568D01*
X127099139Y-108000047D01*
X127260047Y-107839139D01*
X127390568Y-107652734D01*
X127486739Y-107446496D01*
X127545635Y-107226692D01*
X127565468Y-107000000D01*
X127545635Y-106773308D01*
X127486739Y-106553504D01*
X127390568Y-106347266D01*
X127260047Y-106160861D01*
X127260045Y-106160858D01*
X127099141Y-105999954D01*
X126912734Y-105869432D01*
X126912728Y-105869429D01*
X126854725Y-105842382D01*
X126802285Y-105796210D01*
X126783133Y-105729017D01*
X126803348Y-105662135D01*
X126854725Y-105617618D01*
X126912734Y-105590568D01*
X127099139Y-105460047D01*
X127260047Y-105299139D01*
X127390568Y-105112734D01*
X127486739Y-104906496D01*
X127545635Y-104686692D01*
X127565468Y-104460000D01*
X127545635Y-104233308D01*
X127486739Y-104013504D01*
X127390568Y-103807266D01*
X127260047Y-103620861D01*
X127260045Y-103620858D01*
X127099141Y-103459954D01*
X126912734Y-103329432D01*
X126912728Y-103329429D01*
X126854725Y-103302382D01*
X126802285Y-103256210D01*
X126783133Y-103189017D01*
X126803348Y-103122135D01*
X126854725Y-103077618D01*
X126912734Y-103050568D01*
X127099139Y-102920047D01*
X127260047Y-102759139D01*
X127390568Y-102572734D01*
X127486739Y-102366496D01*
X127545635Y-102146692D01*
X127565468Y-101920000D01*
X127545635Y-101693308D01*
X127486739Y-101473504D01*
X127390568Y-101267266D01*
X127260047Y-101080861D01*
X127260045Y-101080858D01*
X127099141Y-100919954D01*
X126912734Y-100789432D01*
X126912728Y-100789429D01*
X126854725Y-100762382D01*
X126802285Y-100716210D01*
X126783133Y-100649017D01*
X126803348Y-100582135D01*
X126854725Y-100537618D01*
X126912734Y-100510568D01*
X127099139Y-100380047D01*
X127260047Y-100219139D01*
X127390568Y-100032734D01*
X127486739Y-99826496D01*
X127545635Y-99606692D01*
X127565468Y-99380000D01*
X127545635Y-99153308D01*
X127486739Y-98933504D01*
X127390568Y-98727266D01*
X127260047Y-98540861D01*
X127260045Y-98540858D01*
X127099141Y-98379954D01*
X126912734Y-98249432D01*
X126912728Y-98249429D01*
X126854725Y-98222382D01*
X126802285Y-98176210D01*
X126783133Y-98109017D01*
X126803348Y-98042135D01*
X126854725Y-97997618D01*
X126912734Y-97970568D01*
X127099139Y-97840047D01*
X127260047Y-97679139D01*
X127390568Y-97492734D01*
X127486739Y-97286496D01*
X127545635Y-97066692D01*
X127565468Y-96840000D01*
X127545635Y-96613308D01*
X127486739Y-96393504D01*
X127390568Y-96187266D01*
X127260047Y-96000861D01*
X127260045Y-96000858D01*
X127099141Y-95839954D01*
X126912734Y-95709432D01*
X126912728Y-95709429D01*
X126854725Y-95682382D01*
X126802285Y-95636210D01*
X126783133Y-95569017D01*
X126803348Y-95502135D01*
X126854725Y-95457618D01*
X126912734Y-95430568D01*
X127099139Y-95300047D01*
X127260047Y-95139139D01*
X127390568Y-94952734D01*
X127486739Y-94746496D01*
X127545635Y-94526692D01*
X127565468Y-94300000D01*
X127545635Y-94073308D01*
X127486739Y-93853504D01*
X127390568Y-93647266D01*
X127260047Y-93460861D01*
X127260045Y-93460858D01*
X127099141Y-93299954D01*
X126912734Y-93169432D01*
X126912728Y-93169429D01*
X126863548Y-93146496D01*
X126854724Y-93142381D01*
X126802285Y-93096210D01*
X126783133Y-93029017D01*
X126803348Y-92962135D01*
X126854725Y-92917618D01*
X126912734Y-92890568D01*
X127099139Y-92760047D01*
X127260047Y-92599139D01*
X127390568Y-92412734D01*
X127486739Y-92206496D01*
X127545635Y-91986692D01*
X127565468Y-91760000D01*
X127545635Y-91533308D01*
X127500916Y-91366415D01*
X127486741Y-91313511D01*
X127486738Y-91313502D01*
X127437203Y-91207275D01*
X127390568Y-91107266D01*
X127260047Y-90920861D01*
X127260045Y-90920858D01*
X127099141Y-90759954D01*
X126912734Y-90629432D01*
X126912728Y-90629429D01*
X126854725Y-90602382D01*
X126802285Y-90556210D01*
X126783133Y-90489017D01*
X126803348Y-90422135D01*
X126854725Y-90377618D01*
X126912734Y-90350568D01*
X127099139Y-90220047D01*
X127260047Y-90059139D01*
X127390568Y-89872734D01*
X127486739Y-89666496D01*
X127545635Y-89446692D01*
X127565468Y-89220000D01*
X127545635Y-88993308D01*
X127486739Y-88773504D01*
X127390568Y-88567266D01*
X127260047Y-88380861D01*
X127260045Y-88380858D01*
X127099141Y-88219954D01*
X126912734Y-88089432D01*
X126912728Y-88089429D01*
X126854725Y-88062382D01*
X126802285Y-88016210D01*
X126783133Y-87949017D01*
X126803348Y-87882135D01*
X126854725Y-87837618D01*
X126912734Y-87810568D01*
X127099139Y-87680047D01*
X127260047Y-87519139D01*
X127390568Y-87332734D01*
X127486739Y-87126496D01*
X127545635Y-86906692D01*
X127565468Y-86680000D01*
X127545635Y-86453308D01*
X127486739Y-86233504D01*
X127390568Y-86027266D01*
X127260047Y-85840861D01*
X127260045Y-85840858D01*
X127099141Y-85679954D01*
X126912734Y-85549432D01*
X126912728Y-85549429D01*
X126854725Y-85522382D01*
X126802285Y-85476210D01*
X126783133Y-85409017D01*
X126803348Y-85342135D01*
X126854725Y-85297618D01*
X126912734Y-85270568D01*
X127099139Y-85140047D01*
X127260047Y-84979139D01*
X127390568Y-84792734D01*
X127486739Y-84586496D01*
X127545635Y-84366692D01*
X127565468Y-84140000D01*
X127545635Y-83913308D01*
X127486739Y-83693504D01*
X127390568Y-83487266D01*
X127260047Y-83300861D01*
X127260045Y-83300858D01*
X127099141Y-83139954D01*
X126912734Y-83009432D01*
X126912732Y-83009431D01*
X126706497Y-82913261D01*
X126706488Y-82913258D01*
X126486697Y-82854366D01*
X126486693Y-82854365D01*
X126486692Y-82854365D01*
X126486691Y-82854364D01*
X126486686Y-82854364D01*
X126260002Y-82834532D01*
X126259998Y-82834532D01*
X126033313Y-82854364D01*
X126033302Y-82854366D01*
X125813511Y-82913258D01*
X125813502Y-82913261D01*
X125607267Y-83009431D01*
X125607265Y-83009432D01*
X125420858Y-83139954D01*
X125259954Y-83300858D01*
X125129432Y-83487265D01*
X125129431Y-83487267D01*
X125033261Y-83693502D01*
X125033258Y-83693511D01*
X124974366Y-83913302D01*
X124974364Y-83913313D01*
X124954532Y-84139998D01*
X92400500Y-84139998D01*
X92400500Y-78890155D01*
X102618000Y-78890155D01*
X102618000Y-79450000D01*
X103591184Y-79450000D01*
X103575124Y-79466060D01*
X103524964Y-79552939D01*
X103499000Y-79649840D01*
X103499000Y-79750160D01*
X103524964Y-79847061D01*
X103575124Y-79933940D01*
X103591184Y-79950000D01*
X102618000Y-79950000D01*
X102618000Y-80509844D01*
X102624401Y-80569372D01*
X102624403Y-80569379D01*
X102674645Y-80704086D01*
X102674649Y-80704093D01*
X102760809Y-80819187D01*
X102760812Y-80819190D01*
X102875906Y-80905350D01*
X102875913Y-80905354D01*
X103010620Y-80955596D01*
X103010627Y-80955598D01*
X103070155Y-80961999D01*
X103070172Y-80962000D01*
X103630000Y-80962000D01*
X103630000Y-79988816D01*
X103646060Y-80004876D01*
X103732939Y-80055036D01*
X103829840Y-80081000D01*
X103930160Y-80081000D01*
X104027061Y-80055036D01*
X104113940Y-80004876D01*
X104130000Y-79988816D01*
X104130000Y-80962000D01*
X104689828Y-80962000D01*
X104689844Y-80961999D01*
X104749372Y-80955598D01*
X104749379Y-80955596D01*
X104884086Y-80905354D01*
X104884093Y-80905350D01*
X104999187Y-80819190D01*
X104999190Y-80819187D01*
X105085350Y-80704093D01*
X105085354Y-80704086D01*
X105135596Y-80569379D01*
X105135598Y-80569372D01*
X105141999Y-80509844D01*
X105142000Y-80509827D01*
X105142000Y-80469207D01*
X105161685Y-80402168D01*
X105214489Y-80356413D01*
X105283647Y-80346469D01*
X105347203Y-80375494D01*
X105367573Y-80398082D01*
X105372745Y-80405468D01*
X105449170Y-80514615D01*
X105449175Y-80514621D01*
X105605378Y-80670824D01*
X105605384Y-80670829D01*
X105786333Y-80797531D01*
X105786335Y-80797532D01*
X105786338Y-80797534D01*
X105986550Y-80890894D01*
X106199932Y-80948070D01*
X106357123Y-80961822D01*
X106419998Y-80967323D01*
X106420000Y-80967323D01*
X106420002Y-80967323D01*
X106475017Y-80962509D01*
X106640068Y-80948070D01*
X106853450Y-80890894D01*
X107053662Y-80797534D01*
X107234620Y-80670826D01*
X107390826Y-80514620D01*
X107517534Y-80333662D01*
X107577618Y-80204811D01*
X107623790Y-80152371D01*
X107690983Y-80133219D01*
X107757865Y-80153435D01*
X107802382Y-80204811D01*
X107862464Y-80333658D01*
X107862468Y-80333666D01*
X107989170Y-80514615D01*
X107989175Y-80514621D01*
X108145378Y-80670824D01*
X108145384Y-80670829D01*
X108326333Y-80797531D01*
X108326335Y-80797532D01*
X108326338Y-80797534D01*
X108526550Y-80890894D01*
X108739932Y-80948070D01*
X108897123Y-80961822D01*
X108959998Y-80967323D01*
X108960000Y-80967323D01*
X108960002Y-80967323D01*
X109015017Y-80962509D01*
X109180068Y-80948070D01*
X109393450Y-80890894D01*
X109593662Y-80797534D01*
X109774620Y-80670826D01*
X109930826Y-80514620D01*
X110057534Y-80333662D01*
X110117618Y-80204811D01*
X110163790Y-80152371D01*
X110230983Y-80133219D01*
X110297865Y-80153435D01*
X110342382Y-80204811D01*
X110402464Y-80333658D01*
X110402468Y-80333666D01*
X110529170Y-80514615D01*
X110529175Y-80514621D01*
X110685378Y-80670824D01*
X110685384Y-80670829D01*
X110866333Y-80797531D01*
X110866335Y-80797532D01*
X110866338Y-80797534D01*
X111066550Y-80890894D01*
X111279932Y-80948070D01*
X111437123Y-80961822D01*
X111499998Y-80967323D01*
X111500000Y-80967323D01*
X111500002Y-80967323D01*
X111555017Y-80962509D01*
X111720068Y-80948070D01*
X111933450Y-80890894D01*
X112133662Y-80797534D01*
X112272965Y-80699993D01*
X156154700Y-80699993D01*
X156154700Y-80700006D01*
X156173864Y-80931297D01*
X156173866Y-80931308D01*
X156230842Y-81156300D01*
X156324075Y-81368848D01*
X156451016Y-81563147D01*
X156451019Y-81563151D01*
X156451021Y-81563153D01*
X156608216Y-81733913D01*
X156608219Y-81733915D01*
X156608222Y-81733918D01*
X156791365Y-81876464D01*
X156791371Y-81876468D01*
X156791374Y-81876470D01*
X156995497Y-81986936D01*
X157109487Y-82026068D01*
X157215015Y-82062297D01*
X157215017Y-82062297D01*
X157215019Y-82062298D01*
X157443951Y-82100500D01*
X157443952Y-82100500D01*
X157676048Y-82100500D01*
X157676049Y-82100500D01*
X157904981Y-82062298D01*
X158124503Y-81986936D01*
X158328626Y-81876470D01*
X158511784Y-81733913D01*
X158520511Y-81724432D01*
X158580394Y-81688441D01*
X158650232Y-81690538D01*
X158707850Y-81730060D01*
X158727924Y-81765080D01*
X158756645Y-81842086D01*
X158756649Y-81842093D01*
X158842809Y-81957187D01*
X158842812Y-81957190D01*
X158957906Y-82043350D01*
X158957913Y-82043354D01*
X159092620Y-82093596D01*
X159092627Y-82093598D01*
X159152155Y-82099999D01*
X159152172Y-82100000D01*
X159850000Y-82100000D01*
X159850000Y-81075277D01*
X159926306Y-81119333D01*
X160040756Y-81150000D01*
X160159244Y-81150000D01*
X160273694Y-81119333D01*
X160350000Y-81075277D01*
X160350000Y-82100000D01*
X161047828Y-82100000D01*
X161047844Y-82099999D01*
X161107372Y-82093598D01*
X161107379Y-82093596D01*
X161242086Y-82043354D01*
X161242093Y-82043350D01*
X161357187Y-81957190D01*
X161357190Y-81957187D01*
X161443350Y-81842093D01*
X161443354Y-81842086D01*
X161493596Y-81707379D01*
X161493598Y-81707372D01*
X161499999Y-81647844D01*
X161500000Y-81647827D01*
X161500000Y-80950000D01*
X160475278Y-80950000D01*
X160519333Y-80873694D01*
X160550000Y-80759244D01*
X160550000Y-80640756D01*
X160519333Y-80526306D01*
X160475278Y-80450000D01*
X161500000Y-80450000D01*
X161500000Y-79752172D01*
X161499999Y-79752155D01*
X161493598Y-79692627D01*
X161493596Y-79692620D01*
X161443354Y-79557913D01*
X161443350Y-79557906D01*
X161357190Y-79442812D01*
X161357187Y-79442809D01*
X161242093Y-79356649D01*
X161242086Y-79356645D01*
X161107379Y-79306403D01*
X161107372Y-79306401D01*
X161047844Y-79300000D01*
X160350000Y-79300000D01*
X160350000Y-80324722D01*
X160273694Y-80280667D01*
X160159244Y-80250000D01*
X160040756Y-80250000D01*
X159926306Y-80280667D01*
X159850000Y-80324722D01*
X159850000Y-79300000D01*
X159152155Y-79300000D01*
X159092627Y-79306401D01*
X159092620Y-79306403D01*
X158957913Y-79356645D01*
X158957906Y-79356649D01*
X158842812Y-79442809D01*
X158842809Y-79442812D01*
X158756649Y-79557906D01*
X158756646Y-79557911D01*
X158727924Y-79634920D01*
X158686052Y-79690853D01*
X158620588Y-79715270D01*
X158552315Y-79700418D01*
X158520514Y-79675571D01*
X158511784Y-79666087D01*
X158511779Y-79666083D01*
X158511777Y-79666081D01*
X158328634Y-79523535D01*
X158328628Y-79523531D01*
X158124504Y-79413064D01*
X158124495Y-79413061D01*
X157904984Y-79337702D01*
X157717404Y-79306401D01*
X157676049Y-79299500D01*
X157443951Y-79299500D01*
X157402596Y-79306401D01*
X157215015Y-79337702D01*
X156995504Y-79413061D01*
X156995495Y-79413064D01*
X156791371Y-79523531D01*
X156791365Y-79523535D01*
X156608222Y-79666081D01*
X156608219Y-79666084D01*
X156608216Y-79666086D01*
X156608216Y-79666087D01*
X156583791Y-79692620D01*
X156451016Y-79836852D01*
X156324075Y-80031151D01*
X156230842Y-80243699D01*
X156173866Y-80468691D01*
X156173864Y-80468702D01*
X156154700Y-80699993D01*
X112272965Y-80699993D01*
X112314620Y-80670826D01*
X112470826Y-80514620D01*
X112597534Y-80333662D01*
X112690894Y-80133450D01*
X112748070Y-79920068D01*
X112765987Y-79715270D01*
X112767323Y-79700002D01*
X112767323Y-79699997D01*
X112754892Y-79557911D01*
X112748070Y-79479932D01*
X112690894Y-79266550D01*
X112613229Y-79099998D01*
X144274532Y-79099998D01*
X144274532Y-79100001D01*
X144294364Y-79326686D01*
X144294366Y-79326697D01*
X144353258Y-79546488D01*
X144353261Y-79546497D01*
X144449431Y-79752732D01*
X144449432Y-79752734D01*
X144579954Y-79939141D01*
X144740858Y-80100045D01*
X144740861Y-80100047D01*
X144927266Y-80230568D01*
X145133504Y-80326739D01*
X145353308Y-80385635D01*
X145495601Y-80398084D01*
X145579998Y-80405468D01*
X145580000Y-80405468D01*
X145580002Y-80405468D01*
X145636673Y-80400509D01*
X145806692Y-80385635D01*
X146026496Y-80326739D01*
X146232734Y-80230568D01*
X146419139Y-80100047D01*
X146580047Y-79939139D01*
X146710568Y-79752734D01*
X146806739Y-79546496D01*
X146865635Y-79326692D01*
X146885468Y-79100000D01*
X146885468Y-79099998D01*
X151894532Y-79099998D01*
X151894532Y-79100001D01*
X151914364Y-79326686D01*
X151914366Y-79326697D01*
X151973258Y-79546488D01*
X151973261Y-79546497D01*
X152069431Y-79752732D01*
X152069432Y-79752734D01*
X152199954Y-79939141D01*
X152360858Y-80100045D01*
X152360861Y-80100047D01*
X152547266Y-80230568D01*
X152753504Y-80326739D01*
X152973308Y-80385635D01*
X153115601Y-80398084D01*
X153199998Y-80405468D01*
X153200000Y-80405468D01*
X153200002Y-80405468D01*
X153256673Y-80400509D01*
X153426692Y-80385635D01*
X153646496Y-80326739D01*
X153852734Y-80230568D01*
X154039139Y-80100047D01*
X154200047Y-79939139D01*
X154330568Y-79752734D01*
X154426739Y-79546496D01*
X154485635Y-79326692D01*
X154505468Y-79100000D01*
X154485635Y-78873308D01*
X154426739Y-78653504D01*
X154330568Y-78447266D01*
X154200047Y-78260861D01*
X154200045Y-78260858D01*
X154039141Y-78099954D01*
X153852734Y-77969432D01*
X153852732Y-77969431D01*
X153646497Y-77873261D01*
X153646488Y-77873258D01*
X153426697Y-77814366D01*
X153426693Y-77814365D01*
X153426692Y-77814365D01*
X153426691Y-77814364D01*
X153426686Y-77814364D01*
X153200002Y-77794532D01*
X153199998Y-77794532D01*
X152973313Y-77814364D01*
X152973302Y-77814366D01*
X152753511Y-77873258D01*
X152753502Y-77873261D01*
X152547267Y-77969431D01*
X152547265Y-77969432D01*
X152360858Y-78099954D01*
X152199954Y-78260858D01*
X152069432Y-78447265D01*
X152069431Y-78447267D01*
X151973261Y-78653502D01*
X151973258Y-78653511D01*
X151914366Y-78873302D01*
X151914364Y-78873313D01*
X151894532Y-79099998D01*
X146885468Y-79099998D01*
X146865635Y-78873308D01*
X146806739Y-78653504D01*
X146710568Y-78447266D01*
X146580047Y-78260861D01*
X146580045Y-78260858D01*
X146419141Y-78099954D01*
X146232734Y-77969432D01*
X146232732Y-77969431D01*
X146026497Y-77873261D01*
X146026488Y-77873258D01*
X145806697Y-77814366D01*
X145806693Y-77814365D01*
X145806692Y-77814365D01*
X145806691Y-77814364D01*
X145806686Y-77814364D01*
X145580002Y-77794532D01*
X145579998Y-77794532D01*
X145353313Y-77814364D01*
X145353302Y-77814366D01*
X145133511Y-77873258D01*
X145133502Y-77873261D01*
X144927267Y-77969431D01*
X144927265Y-77969432D01*
X144740858Y-78099954D01*
X144579954Y-78260858D01*
X144449432Y-78447265D01*
X144449431Y-78447267D01*
X144353261Y-78653502D01*
X144353258Y-78653511D01*
X144294366Y-78873302D01*
X144294364Y-78873313D01*
X144274532Y-79099998D01*
X112613229Y-79099998D01*
X112597534Y-79066339D01*
X112502624Y-78930793D01*
X112470827Y-78885381D01*
X112416066Y-78830620D01*
X112314620Y-78729174D01*
X112314616Y-78729171D01*
X112314615Y-78729170D01*
X112133666Y-78602468D01*
X112133662Y-78602466D01*
X112133660Y-78602465D01*
X111933450Y-78509106D01*
X111933447Y-78509105D01*
X111933445Y-78509104D01*
X111720070Y-78451930D01*
X111720062Y-78451929D01*
X111500002Y-78432677D01*
X111499998Y-78432677D01*
X111279937Y-78451929D01*
X111279929Y-78451930D01*
X111066554Y-78509104D01*
X111066548Y-78509107D01*
X110866340Y-78602465D01*
X110866338Y-78602466D01*
X110685377Y-78729175D01*
X110529175Y-78885377D01*
X110402466Y-79066338D01*
X110402465Y-79066340D01*
X110342382Y-79195189D01*
X110296209Y-79247628D01*
X110229016Y-79266780D01*
X110162135Y-79246564D01*
X110117618Y-79195189D01*
X110057534Y-79066340D01*
X110057533Y-79066338D01*
X109930827Y-78885381D01*
X109876066Y-78830620D01*
X109774620Y-78729174D01*
X109774616Y-78729171D01*
X109774615Y-78729170D01*
X109593666Y-78602468D01*
X109593662Y-78602466D01*
X109593660Y-78602465D01*
X109393450Y-78509106D01*
X109393447Y-78509105D01*
X109393445Y-78509104D01*
X109180070Y-78451930D01*
X109180062Y-78451929D01*
X108960002Y-78432677D01*
X108959998Y-78432677D01*
X108739937Y-78451929D01*
X108739929Y-78451930D01*
X108526554Y-78509104D01*
X108526548Y-78509107D01*
X108326340Y-78602465D01*
X108326338Y-78602466D01*
X108145377Y-78729175D01*
X107989175Y-78885377D01*
X107862466Y-79066338D01*
X107862465Y-79066340D01*
X107802382Y-79195189D01*
X107756209Y-79247628D01*
X107689016Y-79266780D01*
X107622135Y-79246564D01*
X107577618Y-79195189D01*
X107517534Y-79066340D01*
X107517533Y-79066338D01*
X107390827Y-78885381D01*
X107336066Y-78830620D01*
X107234620Y-78729174D01*
X107234616Y-78729171D01*
X107234615Y-78729170D01*
X107053666Y-78602468D01*
X107053662Y-78602466D01*
X107053660Y-78602465D01*
X106853450Y-78509106D01*
X106853447Y-78509105D01*
X106853445Y-78509104D01*
X106640070Y-78451930D01*
X106640062Y-78451929D01*
X106420002Y-78432677D01*
X106419998Y-78432677D01*
X106199937Y-78451929D01*
X106199929Y-78451930D01*
X105986554Y-78509104D01*
X105986548Y-78509107D01*
X105786340Y-78602465D01*
X105786338Y-78602466D01*
X105605377Y-78729175D01*
X105449175Y-78885377D01*
X105367575Y-79001916D01*
X105312998Y-79045541D01*
X105243500Y-79052735D01*
X105181145Y-79021212D01*
X105145731Y-78960983D01*
X105142000Y-78930793D01*
X105142000Y-78890172D01*
X105141999Y-78890155D01*
X105135598Y-78830627D01*
X105135596Y-78830620D01*
X105085354Y-78695913D01*
X105085350Y-78695906D01*
X104999190Y-78580812D01*
X104999187Y-78580809D01*
X104884093Y-78494649D01*
X104884086Y-78494645D01*
X104749379Y-78444403D01*
X104749372Y-78444401D01*
X104689844Y-78438000D01*
X104130000Y-78438000D01*
X104130000Y-79411184D01*
X104113940Y-79395124D01*
X104027061Y-79344964D01*
X103930160Y-79319000D01*
X103829840Y-79319000D01*
X103732939Y-79344964D01*
X103646060Y-79395124D01*
X103630000Y-79411184D01*
X103630000Y-78438000D01*
X103070155Y-78438000D01*
X103010627Y-78444401D01*
X103010620Y-78444403D01*
X102875913Y-78494645D01*
X102875906Y-78494649D01*
X102760812Y-78580809D01*
X102760809Y-78580812D01*
X102674649Y-78695906D01*
X102674645Y-78695913D01*
X102624403Y-78830620D01*
X102624401Y-78830627D01*
X102618000Y-78890155D01*
X92400500Y-78890155D01*
X92400500Y-76424500D01*
X92420185Y-76357461D01*
X92472989Y-76311706D01*
X92524500Y-76300500D01*
X168775500Y-76300500D01*
X168842539Y-76320185D01*
G37*
G04 #@! TD.AperFunction*
M02*
