%TF.GenerationSoftware,KiCad,Pcbnew,10.0.6*%
%TF.CreationDate,2026-09-14T21:37:06+08:00*%
%TF.ProjectId,Tamagotchi,54616d61-676f-4746-9368-692e6b696361,rev?*%
%TF.SameCoordinates,Original*%
%TF.FileFunction,Soldermask,Top*%
%TF.FilePolarity,Negative*%
%FSLAX46Y46*%
G04 Gerber Fmt 4.6, Leading zero omitted, Abs format (unit mm)*
G04 Created by KiCad (PCBNEW 10.0.6) date 2026-09-14 21:37:06*
%MOMM*%
%LPD*%
G01*
G04 APERTURE LIST*
%ADD10R,1.524000X1.524000*%
%ADD11C,1.524000*%
%ADD12C,1.600000*%
%ADD13C,2.000000*%
%ADD14R,1.700000X1.700000*%
%ADD15C,1.700000*%
%ADD16O,1.500000X2.500000*%
%ADD17R,1.500000X2.500000*%
%ADD18O,2.200000X3.500000*%
%ADD19C,1.140000*%
%ADD20C,1.800000*%
%ADD21R,1.800000X1.800000*%
G04 APERTURE END LIST*
D10*
%TO.C,U2*%
X131190000Y-67660000D03*
D11*
X133730000Y-67660000D03*
X136270000Y-67660000D03*
X138810000Y-67660000D03*
%TD*%
D12*
%TO.C,R1*%
X157000000Y-72720000D03*
X157000000Y-65100000D03*
%TD*%
%TO.C,R3*%
X157000000Y-98220000D03*
X157000000Y-90600000D03*
%TD*%
%TO.C,R4*%
X157000000Y-111620000D03*
X157000000Y-104000000D03*
%TD*%
%TO.C,C3*%
X152400000Y-91800000D03*
X152400000Y-96800000D03*
%TD*%
%TO.C,R5*%
X132500000Y-104000000D03*
X132500000Y-111620000D03*
%TD*%
D13*
%TO.C,SW1*%
X166700000Y-71000000D03*
X160200000Y-71000000D03*
X166700000Y-66500000D03*
X160200000Y-66500000D03*
%TD*%
D14*
%TO.C,J1*%
X102000000Y-64000000D03*
D15*
X104540000Y-64000000D03*
D14*
X107080000Y-64000000D03*
D15*
X109620000Y-64000000D03*
X112160000Y-64000000D03*
D14*
X114700000Y-64000000D03*
%TD*%
D16*
%TO.C,SW5*%
X134250000Y-98500000D03*
X136250000Y-98500000D03*
D17*
X138250000Y-98500000D03*
D18*
X132150000Y-98500000D03*
X140350000Y-98500000D03*
%TD*%
D13*
%TO.C,SW2*%
X166700000Y-84500000D03*
X160200000Y-84500000D03*
X166700000Y-80000000D03*
X160200000Y-80000000D03*
%TD*%
D12*
%TO.C,R2*%
X157000000Y-85820000D03*
X157000000Y-78200000D03*
%TD*%
%TO.C,C2*%
X152400000Y-79100000D03*
X152400000Y-84100000D03*
%TD*%
D19*
%TO.C,U1*%
X115500000Y-98790000D03*
X100260000Y-114030000D03*
X100260000Y-111490000D03*
X100260000Y-108950000D03*
X100260000Y-106410000D03*
X100260000Y-103870000D03*
X100260000Y-101330000D03*
X100260000Y-98790000D03*
X115500000Y-96250000D03*
X100260000Y-96250000D03*
X115500000Y-103870000D03*
X115500000Y-101330000D03*
X115500000Y-106410000D03*
X115500000Y-108950000D03*
X115500000Y-111490000D03*
X115500000Y-114030000D03*
%TD*%
D12*
%TO.C,C1*%
X152400000Y-66700000D03*
X152400000Y-71700000D03*
%TD*%
D13*
%TO.C,SW3*%
X166700000Y-97000000D03*
X160200000Y-97000000D03*
X166700000Y-92500000D03*
X160200000Y-92500000D03*
%TD*%
D12*
%TO.C,C4*%
X152250000Y-105000000D03*
X152250000Y-110000000D03*
%TD*%
D20*
%TO.C,D1*%
X138210000Y-108000000D03*
D21*
X140750000Y-108000000D03*
%TD*%
D13*
%TO.C,SW4*%
X166750000Y-110500000D03*
X160250000Y-110500000D03*
X166750000Y-106000000D03*
X160250000Y-106000000D03*
%TD*%
M02*
