%TF.GenerationSoftware,KiCad,Pcbnew,10.0.6*%
%TF.CreationDate,2026-09-14T21:37:06+08:00*%
%TF.ProjectId,Tamagotchi,54616d61-676f-4746-9368-692e6b696361,rev?*%
%TF.SameCoordinates,Original*%
%TF.FileFunction,Legend,Top*%
%TF.FilePolarity,Positive*%
%FSLAX46Y46*%
G04 Gerber Fmt 4.6, Leading zero omitted, Abs format (unit mm)*
G04 Created by KiCad (PCBNEW 10.0.6) date 2026-09-14 21:37:06*
%MOMM*%
%LPD*%
G01*
G04 APERTURE LIST*
%ADD10C,0.100000*%
%ADD11C,0.150000*%
%ADD12C,0.120000*%
G04 APERTURE END LIST*
D10*
X120688095Y-94807419D02*
X120688095Y-95616942D01*
X120688095Y-95616942D02*
X120735714Y-95712180D01*
X120735714Y-95712180D02*
X120783333Y-95759800D01*
X120783333Y-95759800D02*
X120878571Y-95807419D01*
X120878571Y-95807419D02*
X121069047Y-95807419D01*
X121069047Y-95807419D02*
X121164285Y-95759800D01*
X121164285Y-95759800D02*
X121211904Y-95712180D01*
X121211904Y-95712180D02*
X121259523Y-95616942D01*
X121259523Y-95616942D02*
X121259523Y-94807419D01*
X121688095Y-94902657D02*
X121735714Y-94855038D01*
X121735714Y-94855038D02*
X121830952Y-94807419D01*
X121830952Y-94807419D02*
X122069047Y-94807419D01*
X122069047Y-94807419D02*
X122164285Y-94855038D01*
X122164285Y-94855038D02*
X122211904Y-94902657D01*
X122211904Y-94902657D02*
X122259523Y-94997895D01*
X122259523Y-94997895D02*
X122259523Y-95093133D01*
X122259523Y-95093133D02*
X122211904Y-95235990D01*
X122211904Y-95235990D02*
X121640476Y-95807419D01*
X121640476Y-95807419D02*
X122259523Y-95807419D01*
X130432466Y-70870877D02*
X130399133Y-70937544D01*
X130399133Y-70937544D02*
X130399133Y-71037544D01*
X130399133Y-71037544D02*
X130432466Y-71137544D01*
X130432466Y-71137544D02*
X130499133Y-71204211D01*
X130499133Y-71204211D02*
X130565800Y-71237544D01*
X130565800Y-71237544D02*
X130699133Y-71270877D01*
X130699133Y-71270877D02*
X130799133Y-71270877D01*
X130799133Y-71270877D02*
X130932466Y-71237544D01*
X130932466Y-71237544D02*
X130999133Y-71204211D01*
X130999133Y-71204211D02*
X131065800Y-71137544D01*
X131065800Y-71137544D02*
X131099133Y-71037544D01*
X131099133Y-71037544D02*
X131099133Y-70970877D01*
X131099133Y-70970877D02*
X131065800Y-70870877D01*
X131065800Y-70870877D02*
X131032466Y-70837544D01*
X131032466Y-70837544D02*
X130799133Y-70837544D01*
X130799133Y-70837544D02*
X130799133Y-70970877D01*
X131099133Y-70537544D02*
X130399133Y-70537544D01*
X130399133Y-70537544D02*
X131099133Y-70137544D01*
X131099133Y-70137544D02*
X130399133Y-70137544D01*
X131099133Y-69804211D02*
X130399133Y-69804211D01*
X130399133Y-69804211D02*
X130399133Y-69637544D01*
X130399133Y-69637544D02*
X130432466Y-69537544D01*
X130432466Y-69537544D02*
X130499133Y-69470878D01*
X130499133Y-69470878D02*
X130565800Y-69437544D01*
X130565800Y-69437544D02*
X130699133Y-69404211D01*
X130699133Y-69404211D02*
X130799133Y-69404211D01*
X130799133Y-69404211D02*
X130932466Y-69437544D01*
X130932466Y-69437544D02*
X130999133Y-69470878D01*
X130999133Y-69470878D02*
X131065800Y-69537544D01*
X131065800Y-69537544D02*
X131099133Y-69637544D01*
X131099133Y-69637544D02*
X131099133Y-69804211D01*
X132939133Y-71337544D02*
X133639133Y-71104211D01*
X133639133Y-71104211D02*
X132939133Y-70870877D01*
X133572466Y-70237544D02*
X133605800Y-70270877D01*
X133605800Y-70270877D02*
X133639133Y-70370877D01*
X133639133Y-70370877D02*
X133639133Y-70437544D01*
X133639133Y-70437544D02*
X133605800Y-70537544D01*
X133605800Y-70537544D02*
X133539133Y-70604211D01*
X133539133Y-70604211D02*
X133472466Y-70637544D01*
X133472466Y-70637544D02*
X133339133Y-70670877D01*
X133339133Y-70670877D02*
X133239133Y-70670877D01*
X133239133Y-70670877D02*
X133105800Y-70637544D01*
X133105800Y-70637544D02*
X133039133Y-70604211D01*
X133039133Y-70604211D02*
X132972466Y-70537544D01*
X132972466Y-70537544D02*
X132939133Y-70437544D01*
X132939133Y-70437544D02*
X132939133Y-70370877D01*
X132939133Y-70370877D02*
X132972466Y-70270877D01*
X132972466Y-70270877D02*
X133005800Y-70237544D01*
X133572466Y-69537544D02*
X133605800Y-69570877D01*
X133605800Y-69570877D02*
X133639133Y-69670877D01*
X133639133Y-69670877D02*
X133639133Y-69737544D01*
X133639133Y-69737544D02*
X133605800Y-69837544D01*
X133605800Y-69837544D02*
X133539133Y-69904211D01*
X133539133Y-69904211D02*
X133472466Y-69937544D01*
X133472466Y-69937544D02*
X133339133Y-69970877D01*
X133339133Y-69970877D02*
X133239133Y-69970877D01*
X133239133Y-69970877D02*
X133105800Y-69937544D01*
X133105800Y-69937544D02*
X133039133Y-69904211D01*
X133039133Y-69904211D02*
X132972466Y-69837544D01*
X132972466Y-69837544D02*
X132939133Y-69737544D01*
X132939133Y-69737544D02*
X132939133Y-69670877D01*
X132939133Y-69670877D02*
X132972466Y-69570877D01*
X132972466Y-69570877D02*
X133005800Y-69537544D01*
X136145800Y-71270877D02*
X136179133Y-71170877D01*
X136179133Y-71170877D02*
X136179133Y-71004211D01*
X136179133Y-71004211D02*
X136145800Y-70937544D01*
X136145800Y-70937544D02*
X136112466Y-70904211D01*
X136112466Y-70904211D02*
X136045800Y-70870877D01*
X136045800Y-70870877D02*
X135979133Y-70870877D01*
X135979133Y-70870877D02*
X135912466Y-70904211D01*
X135912466Y-70904211D02*
X135879133Y-70937544D01*
X135879133Y-70937544D02*
X135845800Y-71004211D01*
X135845800Y-71004211D02*
X135812466Y-71137544D01*
X135812466Y-71137544D02*
X135779133Y-71204211D01*
X135779133Y-71204211D02*
X135745800Y-71237544D01*
X135745800Y-71237544D02*
X135679133Y-71270877D01*
X135679133Y-71270877D02*
X135612466Y-71270877D01*
X135612466Y-71270877D02*
X135545800Y-71237544D01*
X135545800Y-71237544D02*
X135512466Y-71204211D01*
X135512466Y-71204211D02*
X135479133Y-71137544D01*
X135479133Y-71137544D02*
X135479133Y-70970877D01*
X135479133Y-70970877D02*
X135512466Y-70870877D01*
X136112466Y-70170877D02*
X136145800Y-70204210D01*
X136145800Y-70204210D02*
X136179133Y-70304210D01*
X136179133Y-70304210D02*
X136179133Y-70370877D01*
X136179133Y-70370877D02*
X136145800Y-70470877D01*
X136145800Y-70470877D02*
X136079133Y-70537544D01*
X136079133Y-70537544D02*
X136012466Y-70570877D01*
X136012466Y-70570877D02*
X135879133Y-70604210D01*
X135879133Y-70604210D02*
X135779133Y-70604210D01*
X135779133Y-70604210D02*
X135645800Y-70570877D01*
X135645800Y-70570877D02*
X135579133Y-70537544D01*
X135579133Y-70537544D02*
X135512466Y-70470877D01*
X135512466Y-70470877D02*
X135479133Y-70370877D01*
X135479133Y-70370877D02*
X135479133Y-70304210D01*
X135479133Y-70304210D02*
X135512466Y-70204210D01*
X135512466Y-70204210D02*
X135545800Y-70170877D01*
X136179133Y-69537544D02*
X136179133Y-69870877D01*
X136179133Y-69870877D02*
X135479133Y-69870877D01*
X138685800Y-71270877D02*
X138719133Y-71170877D01*
X138719133Y-71170877D02*
X138719133Y-71004211D01*
X138719133Y-71004211D02*
X138685800Y-70937544D01*
X138685800Y-70937544D02*
X138652466Y-70904211D01*
X138652466Y-70904211D02*
X138585800Y-70870877D01*
X138585800Y-70870877D02*
X138519133Y-70870877D01*
X138519133Y-70870877D02*
X138452466Y-70904211D01*
X138452466Y-70904211D02*
X138419133Y-70937544D01*
X138419133Y-70937544D02*
X138385800Y-71004211D01*
X138385800Y-71004211D02*
X138352466Y-71137544D01*
X138352466Y-71137544D02*
X138319133Y-71204211D01*
X138319133Y-71204211D02*
X138285800Y-71237544D01*
X138285800Y-71237544D02*
X138219133Y-71270877D01*
X138219133Y-71270877D02*
X138152466Y-71270877D01*
X138152466Y-71270877D02*
X138085800Y-71237544D01*
X138085800Y-71237544D02*
X138052466Y-71204211D01*
X138052466Y-71204211D02*
X138019133Y-71137544D01*
X138019133Y-71137544D02*
X138019133Y-70970877D01*
X138019133Y-70970877D02*
X138052466Y-70870877D01*
X138719133Y-70570877D02*
X138019133Y-70570877D01*
X138019133Y-70570877D02*
X138019133Y-70404210D01*
X138019133Y-70404210D02*
X138052466Y-70304210D01*
X138052466Y-70304210D02*
X138119133Y-70237544D01*
X138119133Y-70237544D02*
X138185800Y-70204210D01*
X138185800Y-70204210D02*
X138319133Y-70170877D01*
X138319133Y-70170877D02*
X138419133Y-70170877D01*
X138419133Y-70170877D02*
X138552466Y-70204210D01*
X138552466Y-70204210D02*
X138619133Y-70237544D01*
X138619133Y-70237544D02*
X138685800Y-70304210D01*
X138685800Y-70304210D02*
X138719133Y-70404210D01*
X138719133Y-70404210D02*
X138719133Y-70570877D01*
X138519133Y-69904210D02*
X138519133Y-69570877D01*
X138719133Y-69970877D02*
X138019133Y-69737544D01*
X138019133Y-69737544D02*
X138719133Y-69504210D01*
D11*
X159824819Y-69076666D02*
X159348628Y-69409999D01*
X159824819Y-69648094D02*
X158824819Y-69648094D01*
X158824819Y-69648094D02*
X158824819Y-69267142D01*
X158824819Y-69267142D02*
X158872438Y-69171904D01*
X158872438Y-69171904D02*
X158920057Y-69124285D01*
X158920057Y-69124285D02*
X159015295Y-69076666D01*
X159015295Y-69076666D02*
X159158152Y-69076666D01*
X159158152Y-69076666D02*
X159253390Y-69124285D01*
X159253390Y-69124285D02*
X159301009Y-69171904D01*
X159301009Y-69171904D02*
X159348628Y-69267142D01*
X159348628Y-69267142D02*
X159348628Y-69648094D01*
X159824819Y-68124285D02*
X159824819Y-68695713D01*
X159824819Y-68409999D02*
X158824819Y-68409999D01*
X158824819Y-68409999D02*
X158967676Y-68505237D01*
X158967676Y-68505237D02*
X159062914Y-68600475D01*
X159062914Y-68600475D02*
X159110533Y-68695713D01*
X159824819Y-94576666D02*
X159348628Y-94909999D01*
X159824819Y-95148094D02*
X158824819Y-95148094D01*
X158824819Y-95148094D02*
X158824819Y-94767142D01*
X158824819Y-94767142D02*
X158872438Y-94671904D01*
X158872438Y-94671904D02*
X158920057Y-94624285D01*
X158920057Y-94624285D02*
X159015295Y-94576666D01*
X159015295Y-94576666D02*
X159158152Y-94576666D01*
X159158152Y-94576666D02*
X159253390Y-94624285D01*
X159253390Y-94624285D02*
X159301009Y-94671904D01*
X159301009Y-94671904D02*
X159348628Y-94767142D01*
X159348628Y-94767142D02*
X159348628Y-95148094D01*
X158824819Y-94243332D02*
X158824819Y-93624285D01*
X158824819Y-93624285D02*
X159205771Y-93957618D01*
X159205771Y-93957618D02*
X159205771Y-93814761D01*
X159205771Y-93814761D02*
X159253390Y-93719523D01*
X159253390Y-93719523D02*
X159301009Y-93671904D01*
X159301009Y-93671904D02*
X159396247Y-93624285D01*
X159396247Y-93624285D02*
X159634342Y-93624285D01*
X159634342Y-93624285D02*
X159729580Y-93671904D01*
X159729580Y-93671904D02*
X159777200Y-93719523D01*
X159777200Y-93719523D02*
X159824819Y-93814761D01*
X159824819Y-93814761D02*
X159824819Y-94100475D01*
X159824819Y-94100475D02*
X159777200Y-94195713D01*
X159777200Y-94195713D02*
X159729580Y-94243332D01*
X159824819Y-107976666D02*
X159348628Y-108309999D01*
X159824819Y-108548094D02*
X158824819Y-108548094D01*
X158824819Y-108548094D02*
X158824819Y-108167142D01*
X158824819Y-108167142D02*
X158872438Y-108071904D01*
X158872438Y-108071904D02*
X158920057Y-108024285D01*
X158920057Y-108024285D02*
X159015295Y-107976666D01*
X159015295Y-107976666D02*
X159158152Y-107976666D01*
X159158152Y-107976666D02*
X159253390Y-108024285D01*
X159253390Y-108024285D02*
X159301009Y-108071904D01*
X159301009Y-108071904D02*
X159348628Y-108167142D01*
X159348628Y-108167142D02*
X159348628Y-108548094D01*
X159158152Y-107119523D02*
X159824819Y-107119523D01*
X158777200Y-107357618D02*
X159491485Y-107595713D01*
X159491485Y-107595713D02*
X159491485Y-106976666D01*
X150259580Y-94466666D02*
X150307200Y-94514285D01*
X150307200Y-94514285D02*
X150354819Y-94657142D01*
X150354819Y-94657142D02*
X150354819Y-94752380D01*
X150354819Y-94752380D02*
X150307200Y-94895237D01*
X150307200Y-94895237D02*
X150211961Y-94990475D01*
X150211961Y-94990475D02*
X150116723Y-95038094D01*
X150116723Y-95038094D02*
X149926247Y-95085713D01*
X149926247Y-95085713D02*
X149783390Y-95085713D01*
X149783390Y-95085713D02*
X149592914Y-95038094D01*
X149592914Y-95038094D02*
X149497676Y-94990475D01*
X149497676Y-94990475D02*
X149402438Y-94895237D01*
X149402438Y-94895237D02*
X149354819Y-94752380D01*
X149354819Y-94752380D02*
X149354819Y-94657142D01*
X149354819Y-94657142D02*
X149402438Y-94514285D01*
X149402438Y-94514285D02*
X149450057Y-94466666D01*
X149354819Y-94133332D02*
X149354819Y-93514285D01*
X149354819Y-93514285D02*
X149735771Y-93847618D01*
X149735771Y-93847618D02*
X149735771Y-93704761D01*
X149735771Y-93704761D02*
X149783390Y-93609523D01*
X149783390Y-93609523D02*
X149831009Y-93561904D01*
X149831009Y-93561904D02*
X149926247Y-93514285D01*
X149926247Y-93514285D02*
X150164342Y-93514285D01*
X150164342Y-93514285D02*
X150259580Y-93561904D01*
X150259580Y-93561904D02*
X150307200Y-93609523D01*
X150307200Y-93609523D02*
X150354819Y-93704761D01*
X150354819Y-93704761D02*
X150354819Y-93990475D01*
X150354819Y-93990475D02*
X150307200Y-94085713D01*
X150307200Y-94085713D02*
X150259580Y-94133332D01*
X130584819Y-107976666D02*
X130108628Y-108309999D01*
X130584819Y-108548094D02*
X129584819Y-108548094D01*
X129584819Y-108548094D02*
X129584819Y-108167142D01*
X129584819Y-108167142D02*
X129632438Y-108071904D01*
X129632438Y-108071904D02*
X129680057Y-108024285D01*
X129680057Y-108024285D02*
X129775295Y-107976666D01*
X129775295Y-107976666D02*
X129918152Y-107976666D01*
X129918152Y-107976666D02*
X130013390Y-108024285D01*
X130013390Y-108024285D02*
X130061009Y-108071904D01*
X130061009Y-108071904D02*
X130108628Y-108167142D01*
X130108628Y-108167142D02*
X130108628Y-108548094D01*
X129584819Y-107071904D02*
X129584819Y-107548094D01*
X129584819Y-107548094D02*
X130061009Y-107595713D01*
X130061009Y-107595713D02*
X130013390Y-107548094D01*
X130013390Y-107548094D02*
X129965771Y-107452856D01*
X129965771Y-107452856D02*
X129965771Y-107214761D01*
X129965771Y-107214761D02*
X130013390Y-107119523D01*
X130013390Y-107119523D02*
X130061009Y-107071904D01*
X130061009Y-107071904D02*
X130156247Y-107024285D01*
X130156247Y-107024285D02*
X130394342Y-107024285D01*
X130394342Y-107024285D02*
X130489580Y-107071904D01*
X130489580Y-107071904D02*
X130537200Y-107119523D01*
X130537200Y-107119523D02*
X130584819Y-107214761D01*
X130584819Y-107214761D02*
X130584819Y-107452856D01*
X130584819Y-107452856D02*
X130537200Y-107548094D01*
X130537200Y-107548094D02*
X130489580Y-107595713D01*
X162116667Y-64907200D02*
X162259524Y-64954819D01*
X162259524Y-64954819D02*
X162497619Y-64954819D01*
X162497619Y-64954819D02*
X162592857Y-64907200D01*
X162592857Y-64907200D02*
X162640476Y-64859580D01*
X162640476Y-64859580D02*
X162688095Y-64764342D01*
X162688095Y-64764342D02*
X162688095Y-64669104D01*
X162688095Y-64669104D02*
X162640476Y-64573866D01*
X162640476Y-64573866D02*
X162592857Y-64526247D01*
X162592857Y-64526247D02*
X162497619Y-64478628D01*
X162497619Y-64478628D02*
X162307143Y-64431009D01*
X162307143Y-64431009D02*
X162211905Y-64383390D01*
X162211905Y-64383390D02*
X162164286Y-64335771D01*
X162164286Y-64335771D02*
X162116667Y-64240533D01*
X162116667Y-64240533D02*
X162116667Y-64145295D01*
X162116667Y-64145295D02*
X162164286Y-64050057D01*
X162164286Y-64050057D02*
X162211905Y-64002438D01*
X162211905Y-64002438D02*
X162307143Y-63954819D01*
X162307143Y-63954819D02*
X162545238Y-63954819D01*
X162545238Y-63954819D02*
X162688095Y-64002438D01*
X163021429Y-63954819D02*
X163259524Y-64954819D01*
X163259524Y-64954819D02*
X163450000Y-64240533D01*
X163450000Y-64240533D02*
X163640476Y-64954819D01*
X163640476Y-64954819D02*
X163878572Y-63954819D01*
X164783333Y-64954819D02*
X164211905Y-64954819D01*
X164497619Y-64954819D02*
X164497619Y-63954819D01*
X164497619Y-63954819D02*
X164402381Y-64097676D01*
X164402381Y-64097676D02*
X164307143Y-64192914D01*
X164307143Y-64192914D02*
X164211905Y-64240533D01*
X114374819Y-64333333D02*
X115089104Y-64333333D01*
X115089104Y-64333333D02*
X115231961Y-64380952D01*
X115231961Y-64380952D02*
X115327200Y-64476190D01*
X115327200Y-64476190D02*
X115374819Y-64619047D01*
X115374819Y-64619047D02*
X115374819Y-64714285D01*
X115374819Y-63333333D02*
X115374819Y-63904761D01*
X115374819Y-63619047D02*
X114374819Y-63619047D01*
X114374819Y-63619047D02*
X114517676Y-63714285D01*
X114517676Y-63714285D02*
X114612914Y-63809523D01*
X114612914Y-63809523D02*
X114660533Y-63904761D01*
X132926667Y-101897200D02*
X133069524Y-101944819D01*
X133069524Y-101944819D02*
X133307619Y-101944819D01*
X133307619Y-101944819D02*
X133402857Y-101897200D01*
X133402857Y-101897200D02*
X133450476Y-101849580D01*
X133450476Y-101849580D02*
X133498095Y-101754342D01*
X133498095Y-101754342D02*
X133498095Y-101659104D01*
X133498095Y-101659104D02*
X133450476Y-101563866D01*
X133450476Y-101563866D02*
X133402857Y-101516247D01*
X133402857Y-101516247D02*
X133307619Y-101468628D01*
X133307619Y-101468628D02*
X133117143Y-101421009D01*
X133117143Y-101421009D02*
X133021905Y-101373390D01*
X133021905Y-101373390D02*
X132974286Y-101325771D01*
X132974286Y-101325771D02*
X132926667Y-101230533D01*
X132926667Y-101230533D02*
X132926667Y-101135295D01*
X132926667Y-101135295D02*
X132974286Y-101040057D01*
X132974286Y-101040057D02*
X133021905Y-100992438D01*
X133021905Y-100992438D02*
X133117143Y-100944819D01*
X133117143Y-100944819D02*
X133355238Y-100944819D01*
X133355238Y-100944819D02*
X133498095Y-100992438D01*
X133831429Y-100944819D02*
X134069524Y-101944819D01*
X134069524Y-101944819D02*
X134260000Y-101230533D01*
X134260000Y-101230533D02*
X134450476Y-101944819D01*
X134450476Y-101944819D02*
X134688572Y-100944819D01*
X135545714Y-100944819D02*
X135069524Y-100944819D01*
X135069524Y-100944819D02*
X135021905Y-101421009D01*
X135021905Y-101421009D02*
X135069524Y-101373390D01*
X135069524Y-101373390D02*
X135164762Y-101325771D01*
X135164762Y-101325771D02*
X135402857Y-101325771D01*
X135402857Y-101325771D02*
X135498095Y-101373390D01*
X135498095Y-101373390D02*
X135545714Y-101421009D01*
X135545714Y-101421009D02*
X135593333Y-101516247D01*
X135593333Y-101516247D02*
X135593333Y-101754342D01*
X135593333Y-101754342D02*
X135545714Y-101849580D01*
X135545714Y-101849580D02*
X135498095Y-101897200D01*
X135498095Y-101897200D02*
X135402857Y-101944819D01*
X135402857Y-101944819D02*
X135164762Y-101944819D01*
X135164762Y-101944819D02*
X135069524Y-101897200D01*
X135069524Y-101897200D02*
X135021905Y-101849580D01*
X162116667Y-78407200D02*
X162259524Y-78454819D01*
X162259524Y-78454819D02*
X162497619Y-78454819D01*
X162497619Y-78454819D02*
X162592857Y-78407200D01*
X162592857Y-78407200D02*
X162640476Y-78359580D01*
X162640476Y-78359580D02*
X162688095Y-78264342D01*
X162688095Y-78264342D02*
X162688095Y-78169104D01*
X162688095Y-78169104D02*
X162640476Y-78073866D01*
X162640476Y-78073866D02*
X162592857Y-78026247D01*
X162592857Y-78026247D02*
X162497619Y-77978628D01*
X162497619Y-77978628D02*
X162307143Y-77931009D01*
X162307143Y-77931009D02*
X162211905Y-77883390D01*
X162211905Y-77883390D02*
X162164286Y-77835771D01*
X162164286Y-77835771D02*
X162116667Y-77740533D01*
X162116667Y-77740533D02*
X162116667Y-77645295D01*
X162116667Y-77645295D02*
X162164286Y-77550057D01*
X162164286Y-77550057D02*
X162211905Y-77502438D01*
X162211905Y-77502438D02*
X162307143Y-77454819D01*
X162307143Y-77454819D02*
X162545238Y-77454819D01*
X162545238Y-77454819D02*
X162688095Y-77502438D01*
X163021429Y-77454819D02*
X163259524Y-78454819D01*
X163259524Y-78454819D02*
X163450000Y-77740533D01*
X163450000Y-77740533D02*
X163640476Y-78454819D01*
X163640476Y-78454819D02*
X163878572Y-77454819D01*
X164211905Y-77550057D02*
X164259524Y-77502438D01*
X164259524Y-77502438D02*
X164354762Y-77454819D01*
X164354762Y-77454819D02*
X164592857Y-77454819D01*
X164592857Y-77454819D02*
X164688095Y-77502438D01*
X164688095Y-77502438D02*
X164735714Y-77550057D01*
X164735714Y-77550057D02*
X164783333Y-77645295D01*
X164783333Y-77645295D02*
X164783333Y-77740533D01*
X164783333Y-77740533D02*
X164735714Y-77883390D01*
X164735714Y-77883390D02*
X164164286Y-78454819D01*
X164164286Y-78454819D02*
X164783333Y-78454819D01*
X159824819Y-82176666D02*
X159348628Y-82509999D01*
X159824819Y-82748094D02*
X158824819Y-82748094D01*
X158824819Y-82748094D02*
X158824819Y-82367142D01*
X158824819Y-82367142D02*
X158872438Y-82271904D01*
X158872438Y-82271904D02*
X158920057Y-82224285D01*
X158920057Y-82224285D02*
X159015295Y-82176666D01*
X159015295Y-82176666D02*
X159158152Y-82176666D01*
X159158152Y-82176666D02*
X159253390Y-82224285D01*
X159253390Y-82224285D02*
X159301009Y-82271904D01*
X159301009Y-82271904D02*
X159348628Y-82367142D01*
X159348628Y-82367142D02*
X159348628Y-82748094D01*
X158920057Y-81795713D02*
X158872438Y-81748094D01*
X158872438Y-81748094D02*
X158824819Y-81652856D01*
X158824819Y-81652856D02*
X158824819Y-81414761D01*
X158824819Y-81414761D02*
X158872438Y-81319523D01*
X158872438Y-81319523D02*
X158920057Y-81271904D01*
X158920057Y-81271904D02*
X159015295Y-81224285D01*
X159015295Y-81224285D02*
X159110533Y-81224285D01*
X159110533Y-81224285D02*
X159253390Y-81271904D01*
X159253390Y-81271904D02*
X159824819Y-81843332D01*
X159824819Y-81843332D02*
X159824819Y-81224285D01*
X150259580Y-81766666D02*
X150307200Y-81814285D01*
X150307200Y-81814285D02*
X150354819Y-81957142D01*
X150354819Y-81957142D02*
X150354819Y-82052380D01*
X150354819Y-82052380D02*
X150307200Y-82195237D01*
X150307200Y-82195237D02*
X150211961Y-82290475D01*
X150211961Y-82290475D02*
X150116723Y-82338094D01*
X150116723Y-82338094D02*
X149926247Y-82385713D01*
X149926247Y-82385713D02*
X149783390Y-82385713D01*
X149783390Y-82385713D02*
X149592914Y-82338094D01*
X149592914Y-82338094D02*
X149497676Y-82290475D01*
X149497676Y-82290475D02*
X149402438Y-82195237D01*
X149402438Y-82195237D02*
X149354819Y-82052380D01*
X149354819Y-82052380D02*
X149354819Y-81957142D01*
X149354819Y-81957142D02*
X149402438Y-81814285D01*
X149402438Y-81814285D02*
X149450057Y-81766666D01*
X149450057Y-81385713D02*
X149402438Y-81338094D01*
X149402438Y-81338094D02*
X149354819Y-81242856D01*
X149354819Y-81242856D02*
X149354819Y-81004761D01*
X149354819Y-81004761D02*
X149402438Y-80909523D01*
X149402438Y-80909523D02*
X149450057Y-80861904D01*
X149450057Y-80861904D02*
X149545295Y-80814285D01*
X149545295Y-80814285D02*
X149640533Y-80814285D01*
X149640533Y-80814285D02*
X149783390Y-80861904D01*
X149783390Y-80861904D02*
X150354819Y-81433332D01*
X150354819Y-81433332D02*
X150354819Y-80814285D01*
D10*
X109922580Y-104378095D02*
X109113057Y-104378095D01*
X109113057Y-104378095D02*
X109017819Y-104425714D01*
X109017819Y-104425714D02*
X108970200Y-104473333D01*
X108970200Y-104473333D02*
X108922580Y-104568571D01*
X108922580Y-104568571D02*
X108922580Y-104759047D01*
X108922580Y-104759047D02*
X108970200Y-104854285D01*
X108970200Y-104854285D02*
X109017819Y-104901904D01*
X109017819Y-104901904D02*
X109113057Y-104949523D01*
X109113057Y-104949523D02*
X109922580Y-104949523D01*
X108922580Y-105949523D02*
X108922580Y-105378095D01*
X108922580Y-105663809D02*
X109922580Y-105663809D01*
X109922580Y-105663809D02*
X109779723Y-105568571D01*
X109779723Y-105568571D02*
X109684485Y-105473333D01*
X109684485Y-105473333D02*
X109636866Y-105378095D01*
D11*
X150259580Y-69366666D02*
X150307200Y-69414285D01*
X150307200Y-69414285D02*
X150354819Y-69557142D01*
X150354819Y-69557142D02*
X150354819Y-69652380D01*
X150354819Y-69652380D02*
X150307200Y-69795237D01*
X150307200Y-69795237D02*
X150211961Y-69890475D01*
X150211961Y-69890475D02*
X150116723Y-69938094D01*
X150116723Y-69938094D02*
X149926247Y-69985713D01*
X149926247Y-69985713D02*
X149783390Y-69985713D01*
X149783390Y-69985713D02*
X149592914Y-69938094D01*
X149592914Y-69938094D02*
X149497676Y-69890475D01*
X149497676Y-69890475D02*
X149402438Y-69795237D01*
X149402438Y-69795237D02*
X149354819Y-69652380D01*
X149354819Y-69652380D02*
X149354819Y-69557142D01*
X149354819Y-69557142D02*
X149402438Y-69414285D01*
X149402438Y-69414285D02*
X149450057Y-69366666D01*
X150354819Y-68414285D02*
X150354819Y-68985713D01*
X150354819Y-68699999D02*
X149354819Y-68699999D01*
X149354819Y-68699999D02*
X149497676Y-68795237D01*
X149497676Y-68795237D02*
X149592914Y-68890475D01*
X149592914Y-68890475D02*
X149640533Y-68985713D01*
X162116667Y-90907200D02*
X162259524Y-90954819D01*
X162259524Y-90954819D02*
X162497619Y-90954819D01*
X162497619Y-90954819D02*
X162592857Y-90907200D01*
X162592857Y-90907200D02*
X162640476Y-90859580D01*
X162640476Y-90859580D02*
X162688095Y-90764342D01*
X162688095Y-90764342D02*
X162688095Y-90669104D01*
X162688095Y-90669104D02*
X162640476Y-90573866D01*
X162640476Y-90573866D02*
X162592857Y-90526247D01*
X162592857Y-90526247D02*
X162497619Y-90478628D01*
X162497619Y-90478628D02*
X162307143Y-90431009D01*
X162307143Y-90431009D02*
X162211905Y-90383390D01*
X162211905Y-90383390D02*
X162164286Y-90335771D01*
X162164286Y-90335771D02*
X162116667Y-90240533D01*
X162116667Y-90240533D02*
X162116667Y-90145295D01*
X162116667Y-90145295D02*
X162164286Y-90050057D01*
X162164286Y-90050057D02*
X162211905Y-90002438D01*
X162211905Y-90002438D02*
X162307143Y-89954819D01*
X162307143Y-89954819D02*
X162545238Y-89954819D01*
X162545238Y-89954819D02*
X162688095Y-90002438D01*
X163021429Y-89954819D02*
X163259524Y-90954819D01*
X163259524Y-90954819D02*
X163450000Y-90240533D01*
X163450000Y-90240533D02*
X163640476Y-90954819D01*
X163640476Y-90954819D02*
X163878572Y-89954819D01*
X164164286Y-89954819D02*
X164783333Y-89954819D01*
X164783333Y-89954819D02*
X164450000Y-90335771D01*
X164450000Y-90335771D02*
X164592857Y-90335771D01*
X164592857Y-90335771D02*
X164688095Y-90383390D01*
X164688095Y-90383390D02*
X164735714Y-90431009D01*
X164735714Y-90431009D02*
X164783333Y-90526247D01*
X164783333Y-90526247D02*
X164783333Y-90764342D01*
X164783333Y-90764342D02*
X164735714Y-90859580D01*
X164735714Y-90859580D02*
X164688095Y-90907200D01*
X164688095Y-90907200D02*
X164592857Y-90954819D01*
X164592857Y-90954819D02*
X164307143Y-90954819D01*
X164307143Y-90954819D02*
X164211905Y-90907200D01*
X164211905Y-90907200D02*
X164164286Y-90859580D01*
X150109580Y-107666666D02*
X150157200Y-107714285D01*
X150157200Y-107714285D02*
X150204819Y-107857142D01*
X150204819Y-107857142D02*
X150204819Y-107952380D01*
X150204819Y-107952380D02*
X150157200Y-108095237D01*
X150157200Y-108095237D02*
X150061961Y-108190475D01*
X150061961Y-108190475D02*
X149966723Y-108238094D01*
X149966723Y-108238094D02*
X149776247Y-108285713D01*
X149776247Y-108285713D02*
X149633390Y-108285713D01*
X149633390Y-108285713D02*
X149442914Y-108238094D01*
X149442914Y-108238094D02*
X149347676Y-108190475D01*
X149347676Y-108190475D02*
X149252438Y-108095237D01*
X149252438Y-108095237D02*
X149204819Y-107952380D01*
X149204819Y-107952380D02*
X149204819Y-107857142D01*
X149204819Y-107857142D02*
X149252438Y-107714285D01*
X149252438Y-107714285D02*
X149300057Y-107666666D01*
X149538152Y-106809523D02*
X150204819Y-106809523D01*
X149157200Y-107047618D02*
X149871485Y-107285713D01*
X149871485Y-107285713D02*
X149871485Y-106666666D01*
X138741905Y-112414819D02*
X138741905Y-111414819D01*
X138741905Y-111414819D02*
X138980000Y-111414819D01*
X138980000Y-111414819D02*
X139122857Y-111462438D01*
X139122857Y-111462438D02*
X139218095Y-111557676D01*
X139218095Y-111557676D02*
X139265714Y-111652914D01*
X139265714Y-111652914D02*
X139313333Y-111843390D01*
X139313333Y-111843390D02*
X139313333Y-111986247D01*
X139313333Y-111986247D02*
X139265714Y-112176723D01*
X139265714Y-112176723D02*
X139218095Y-112271961D01*
X139218095Y-112271961D02*
X139122857Y-112367200D01*
X139122857Y-112367200D02*
X138980000Y-112414819D01*
X138980000Y-112414819D02*
X138741905Y-112414819D01*
X140265714Y-112414819D02*
X139694286Y-112414819D01*
X139980000Y-112414819D02*
X139980000Y-111414819D01*
X139980000Y-111414819D02*
X139884762Y-111557676D01*
X139884762Y-111557676D02*
X139789524Y-111652914D01*
X139789524Y-111652914D02*
X139694286Y-111700533D01*
X162166667Y-104407200D02*
X162309524Y-104454819D01*
X162309524Y-104454819D02*
X162547619Y-104454819D01*
X162547619Y-104454819D02*
X162642857Y-104407200D01*
X162642857Y-104407200D02*
X162690476Y-104359580D01*
X162690476Y-104359580D02*
X162738095Y-104264342D01*
X162738095Y-104264342D02*
X162738095Y-104169104D01*
X162738095Y-104169104D02*
X162690476Y-104073866D01*
X162690476Y-104073866D02*
X162642857Y-104026247D01*
X162642857Y-104026247D02*
X162547619Y-103978628D01*
X162547619Y-103978628D02*
X162357143Y-103931009D01*
X162357143Y-103931009D02*
X162261905Y-103883390D01*
X162261905Y-103883390D02*
X162214286Y-103835771D01*
X162214286Y-103835771D02*
X162166667Y-103740533D01*
X162166667Y-103740533D02*
X162166667Y-103645295D01*
X162166667Y-103645295D02*
X162214286Y-103550057D01*
X162214286Y-103550057D02*
X162261905Y-103502438D01*
X162261905Y-103502438D02*
X162357143Y-103454819D01*
X162357143Y-103454819D02*
X162595238Y-103454819D01*
X162595238Y-103454819D02*
X162738095Y-103502438D01*
X163071429Y-103454819D02*
X163309524Y-104454819D01*
X163309524Y-104454819D02*
X163500000Y-103740533D01*
X163500000Y-103740533D02*
X163690476Y-104454819D01*
X163690476Y-104454819D02*
X163928572Y-103454819D01*
X164738095Y-103788152D02*
X164738095Y-104454819D01*
X164500000Y-103407200D02*
X164261905Y-104121485D01*
X164261905Y-104121485D02*
X164880952Y-104121485D01*
%TO.C,U2*%
D10*
X121500000Y-65550000D02*
X149500000Y-65550000D01*
X121500000Y-94050000D02*
X121500000Y-65550000D01*
X149500000Y-65550000D02*
X149500000Y-94050000D01*
X149500000Y-94050000D02*
X121500000Y-94050000D01*
X121500000Y-65550000D02*
X149500000Y-65550000D01*
X149500000Y-94050000D01*
X121500000Y-94050000D01*
X121500000Y-65550000D01*
%TO.C,R1*%
D12*
X158370000Y-72180000D02*
X158040000Y-72180000D01*
X158370000Y-65640000D02*
X158370000Y-72180000D01*
X158040000Y-65640000D02*
X158370000Y-65640000D01*
X155960000Y-65640000D02*
X155630000Y-65640000D01*
X155630000Y-72180000D02*
X155960000Y-72180000D01*
X155630000Y-65640000D02*
X155630000Y-72180000D01*
%TO.C,R3*%
X158370000Y-97680000D02*
X158040000Y-97680000D01*
X158370000Y-91140000D02*
X158370000Y-97680000D01*
X158040000Y-91140000D02*
X158370000Y-91140000D01*
X155960000Y-91140000D02*
X155630000Y-91140000D01*
X155630000Y-97680000D02*
X155960000Y-97680000D01*
X155630000Y-91140000D02*
X155630000Y-97680000D01*
%TO.C,R4*%
X158370000Y-111080000D02*
X158040000Y-111080000D01*
X158370000Y-104540000D02*
X158370000Y-111080000D01*
X158040000Y-104540000D02*
X158370000Y-104540000D01*
X155960000Y-104540000D02*
X155630000Y-104540000D01*
X155630000Y-111080000D02*
X155960000Y-111080000D01*
X155630000Y-104540000D02*
X155630000Y-111080000D01*
%TO.C,C3*%
X153770000Y-96770000D02*
X153440000Y-96770000D01*
X153770000Y-91830000D02*
X153770000Y-96770000D01*
X153440000Y-91830000D02*
X153770000Y-91830000D01*
X151360000Y-96770000D02*
X151030000Y-96770000D01*
X151030000Y-96770000D02*
X151030000Y-91830000D01*
X151030000Y-91830000D02*
X151360000Y-91830000D01*
%TO.C,R5*%
X133870000Y-111080000D02*
X133870000Y-104540000D01*
X133870000Y-104540000D02*
X133540000Y-104540000D01*
X133540000Y-111080000D02*
X133870000Y-111080000D01*
X131460000Y-111080000D02*
X131130000Y-111080000D01*
X131130000Y-111080000D02*
X131130000Y-104540000D01*
X131130000Y-104540000D02*
X131460000Y-104540000D01*
%TO.C,SW1*%
X166950000Y-69500000D02*
X166950000Y-68000000D01*
X165700000Y-65500000D02*
X161200000Y-65500000D01*
X161200000Y-72000000D02*
X165700000Y-72000000D01*
X159950000Y-68000000D02*
X159950000Y-69500000D01*
%TO.C,J1*%
D10*
X98300000Y-62000000D02*
X118300000Y-62000000D01*
X118300000Y-92000000D01*
X98300000Y-92000000D01*
X98300000Y-62000000D01*
D12*
X116080000Y-62620000D02*
X116080000Y-64000000D01*
X114700000Y-62620000D02*
X116080000Y-62620000D01*
X113430000Y-65380000D02*
X100620000Y-65380000D01*
X113430000Y-62620000D02*
X113430000Y-65380000D01*
X113430000Y-62620000D02*
X100620000Y-62620000D01*
X100620000Y-62620000D02*
X100620000Y-65380000D01*
%TO.C,SW5*%
X140660000Y-100760000D02*
X131840000Y-100760000D01*
X140660000Y-100450000D02*
X140660000Y-100760000D01*
X140660000Y-96240000D02*
X140660000Y-96550000D01*
X138750000Y-101460000D02*
X138250000Y-100960000D01*
X138250000Y-100960000D02*
X137750000Y-101460000D01*
X137750000Y-101460000D02*
X138750000Y-101460000D01*
X131840000Y-100760000D02*
X131840000Y-100450000D01*
X131840000Y-96240000D02*
X140660000Y-96240000D01*
X131840000Y-96240000D02*
X131840000Y-96550000D01*
%TO.C,SW2*%
X166950000Y-83000000D02*
X166950000Y-81500000D01*
X165700000Y-79000000D02*
X161200000Y-79000000D01*
X161200000Y-85500000D02*
X165700000Y-85500000D01*
X159950000Y-81500000D02*
X159950000Y-83000000D01*
%TO.C,R2*%
X158370000Y-85280000D02*
X158040000Y-85280000D01*
X158370000Y-78740000D02*
X158370000Y-85280000D01*
X158040000Y-78740000D02*
X158370000Y-78740000D01*
X155960000Y-78740000D02*
X155630000Y-78740000D01*
X155630000Y-85280000D02*
X155960000Y-85280000D01*
X155630000Y-78740000D02*
X155630000Y-85280000D01*
%TO.C,C2*%
X153770000Y-84070000D02*
X153440000Y-84070000D01*
X153770000Y-79130000D02*
X153770000Y-84070000D01*
X153440000Y-79130000D02*
X153770000Y-79130000D01*
X151360000Y-84070000D02*
X151030000Y-84070000D01*
X151030000Y-84070000D02*
X151030000Y-79130000D01*
X151030000Y-79130000D02*
X151360000Y-79130000D01*
%TO.C,U1*%
X98660000Y-93660000D02*
X117100000Y-93660000D01*
X117100000Y-116620000D01*
X98660000Y-116620000D01*
X98660000Y-93660000D01*
%TO.C,C1*%
X153770000Y-71670000D02*
X153440000Y-71670000D01*
X153770000Y-66730000D02*
X153770000Y-71670000D01*
X153440000Y-66730000D02*
X153770000Y-66730000D01*
X151360000Y-71670000D02*
X151030000Y-71670000D01*
X151030000Y-71670000D02*
X151030000Y-66730000D01*
X151030000Y-66730000D02*
X151360000Y-66730000D01*
%TO.C,SW3*%
X166950000Y-95500000D02*
X166950000Y-94000000D01*
X165700000Y-91500000D02*
X161200000Y-91500000D01*
X161200000Y-98000000D02*
X165700000Y-98000000D01*
X159950000Y-94000000D02*
X159950000Y-95500000D01*
%TO.C,C4*%
X153620000Y-109970000D02*
X153290000Y-109970000D01*
X153620000Y-105030000D02*
X153620000Y-109970000D01*
X153290000Y-105030000D02*
X153620000Y-105030000D01*
X151210000Y-109970000D02*
X150880000Y-109970000D01*
X150880000Y-109970000D02*
X150880000Y-105030000D01*
X150880000Y-105030000D02*
X151210000Y-105030000D01*
%TO.C,D1*%
X141980000Y-108000000D02*
G75*
G02*
X136980000Y-108000000I-2500000J0D01*
G01*
X136980000Y-108000000D02*
G75*
G02*
X141980000Y-108000000I2500000J0D01*
G01*
X142040000Y-109544830D02*
G75*
G02*
X136490000Y-108000000I-2560000J1544830D01*
G01*
X136490000Y-108000000D02*
G75*
G02*
X142040000Y-106455170I2990000J0D01*
G01*
X142040000Y-109545000D02*
X142040000Y-106455000D01*
%TO.C,SW4*%
X167000000Y-109000000D02*
X167000000Y-107500000D01*
X165750000Y-105000000D02*
X161250000Y-105000000D01*
X161250000Y-111500000D02*
X165750000Y-111500000D01*
X160000000Y-107500000D02*
X160000000Y-109000000D01*
%TD*%
M02*
