%TF.GenerationSoftware,KiCad,Pcbnew,10.0.6*%
%TF.CreationDate,2026-09-15T20:50:20+08:00*%
%TF.ProjectId,Tamagotchi,54616d61-676f-4746-9368-692e6b696361,rev?*%
%TF.SameCoordinates,Original*%
%TF.FileFunction,Copper,L1,Top*%
%TF.FilePolarity,Positive*%
%FSLAX46Y46*%
G04 Gerber Fmt 4.6, Leading zero omitted, Abs format (unit mm)*
G04 Created by KiCad (PCBNEW 10.0.6) date 2026-09-15 20:50:20*
%MOMM*%
%LPD*%
G01*
G04 APERTURE LIST*
%TA.AperFunction,ComponentPad*%
%ADD10R,1.700000X1.700000*%
%TD*%
%TA.AperFunction,ComponentPad*%
%ADD11C,1.700000*%
%TD*%
%TA.AperFunction,ComponentPad*%
%ADD12R,1.524000X1.524000*%
%TD*%
%TA.AperFunction,ComponentPad*%
%ADD13C,1.524000*%
%TD*%
%TA.AperFunction,ComponentPad*%
%ADD14C,1.140000*%
%TD*%
%TA.AperFunction,ComponentPad*%
%ADD15C,1.600000*%
%TD*%
%TA.AperFunction,ComponentPad*%
%ADD16C,2.000000*%
%TD*%
%TA.AperFunction,ComponentPad*%
%ADD17O,2.200000X3.500000*%
%TD*%
%TA.AperFunction,ComponentPad*%
%ADD18R,1.500000X2.500000*%
%TD*%
%TA.AperFunction,ComponentPad*%
%ADD19O,1.500000X2.500000*%
%TD*%
%TA.AperFunction,ComponentPad*%
%ADD20R,1.800000X1.800000*%
%TD*%
%TA.AperFunction,ComponentPad*%
%ADD21C,1.800000*%
%TD*%
%TA.AperFunction,ViaPad*%
%ADD22C,0.600000*%
%TD*%
%TA.AperFunction,Conductor*%
%ADD23C,0.200000*%
%TD*%
G04 APERTURE END LIST*
D10*
%TO.P,J1,1,Pin_1_1*%
%TO.N,Net-(J1-Pin_1)*%
X114750000Y-64010000D03*
D11*
%TO.P,J1,2,Pin_2_2*%
%TO.N,GND*%
X112210000Y-64010000D03*
%TO.P,J1,3,Pin_3_3*%
%TO.N,Net-(BT1-+)*%
X109670000Y-64010000D03*
D10*
%TO.P,J1,4,Pin_4_4*%
%TO.N,GND*%
X107130000Y-64010000D03*
D11*
%TO.P,J1,5,Pin_5_5*%
X104590000Y-64010000D03*
D10*
%TO.P,J1,6,Pin_6_6*%
%TO.N,unconnected-(J1-Pin_6-Pad6)*%
X102050000Y-64010000D03*
%TD*%
D12*
%TO.P,U2,1,GND_1*%
%TO.N,GND*%
X131190000Y-67660000D03*
D13*
%TO.P,U2,2,VCC_2*%
%TO.N,Net-(SW5-C)*%
X133730000Y-67660000D03*
%TO.P,U2,3,SCL_3*%
%TO.N,Net-(U1-GPIO9)*%
X136270000Y-67660000D03*
%TO.P,U2,4,SDA_4*%
%TO.N,Net-(U1-GPIO8)*%
X138810000Y-67660000D03*
%TD*%
D14*
%TO.P,U1,0,GPIO0_0*%
%TO.N,Net-(U1-GPIO0)*%
X115500000Y-114030000D03*
%TO.P,U1,1,GPIO1_1*%
%TO.N,Net-(U1-GPIO1)*%
X115500000Y-111490000D03*
%TO.P,U1,2,GPIO2_2*%
%TO.N,Net-(U1-GPIO2)*%
X115500000Y-108950000D03*
%TO.P,U1,3,GPIO3_3*%
%TO.N,Net-(U1-GPIO3)*%
X115500000Y-106410000D03*
%TO.P,U1,3V3,3V3_3V3*%
%TO.N,Net-(SW5-C)*%
X115500000Y-101330000D03*
%TO.P,U1,4,GPIO4_4*%
%TO.N,Net-(U1-GPIO4)*%
X115500000Y-103870000D03*
%TO.P,U1,5,GPIO5_5*%
%TO.N,unconnected-(U1-GPIO5-Pad5)*%
X100260000Y-96250000D03*
%TO.P,U1,5V,5V_5V*%
%TO.N,unconnected-(U1-Pad5V)*%
X115500000Y-96250000D03*
%TO.P,U1,6,GPIO6_6*%
%TO.N,unconnected-(U1-GPIO6-Pad6)*%
X100260000Y-98790000D03*
%TO.P,U1,7,GPIO7_7*%
%TO.N,unconnected-(U1-GPIO7-Pad7)*%
X100260000Y-101330000D03*
%TO.P,U1,8,GPIO8_8*%
%TO.N,Net-(U1-GPIO8)*%
X100260000Y-103870000D03*
%TO.P,U1,9,GPIO9_9*%
%TO.N,Net-(U1-GPIO9)*%
X100260000Y-106410000D03*
%TO.P,U1,10,GPIO10_10*%
%TO.N,unconnected-(U1-GPIO10-Pad10)*%
X100260000Y-108950000D03*
%TO.P,U1,20,GPIO20_20*%
%TO.N,unconnected-(U1-GPIO20-Pad20)*%
X100260000Y-111490000D03*
%TO.P,U1,21,GPIO21_21*%
%TO.N,unconnected-(U1-GPIO21-Pad21)*%
X100260000Y-114030000D03*
%TO.P,U1,GND,GND_GND*%
%TO.N,GND*%
X115500000Y-98790000D03*
%TD*%
D15*
%TO.P,R2,1*%
%TO.N,Net-(SW5-C)*%
X157000000Y-78200000D03*
%TO.P,R2,2*%
%TO.N,Net-(U1-GPIO1)*%
X157000000Y-85820000D03*
%TD*%
D16*
%TO.P,SW2,1,1_1*%
%TO.N,GND*%
X160200000Y-80000000D03*
X166700000Y-80000000D03*
%TO.P,SW2,2,2_2*%
%TO.N,Net-(U1-GPIO1)*%
X160200000Y-84500000D03*
X166700000Y-84500000D03*
%TD*%
D17*
%TO.P,SW5,*%
%TO.N,*%
X140350000Y-98500000D03*
X132150000Y-98500000D03*
D18*
%TO.P,SW5,1,A_1*%
%TO.N,unconnected-(SW5-A-Pad1)*%
X138250000Y-98500000D03*
D19*
%TO.P,SW5,2,B_2*%
%TO.N,Net-(J1-Pin_1)*%
X136250000Y-98500000D03*
%TO.P,SW5,3,C_3*%
%TO.N,Net-(SW5-C)*%
X134250000Y-98500000D03*
%TD*%
D15*
%TO.P,C2,1*%
%TO.N,Net-(U1-GPIO1)*%
X152400000Y-84100000D03*
%TO.P,C2,2*%
%TO.N,GND*%
X152400000Y-79100000D03*
%TD*%
%TO.P,R1,1*%
%TO.N,Net-(SW5-C)*%
X157000000Y-65100000D03*
%TO.P,R1,2*%
%TO.N,Net-(U1-GPIO0)*%
X157000000Y-72720000D03*
%TD*%
%TO.P,C4,1*%
%TO.N,Net-(U1-GPIO3)*%
X152250000Y-110000000D03*
%TO.P,C4,2*%
%TO.N,GND*%
X152250000Y-105000000D03*
%TD*%
D16*
%TO.P,SW4,1,1_1*%
%TO.N,GND*%
X160250000Y-106000000D03*
X166750000Y-106000000D03*
%TO.P,SW4,2,2_2*%
%TO.N,Net-(U1-GPIO3)*%
X160250000Y-110500000D03*
X166750000Y-110500000D03*
%TD*%
%TO.P,SW3,1,1_1*%
%TO.N,GND*%
X160200000Y-92500000D03*
X166700000Y-92500000D03*
%TO.P,SW3,2,2_2*%
%TO.N,Net-(U1-GPIO2)*%
X160200000Y-97000000D03*
X166700000Y-97000000D03*
%TD*%
D15*
%TO.P,C1,1*%
%TO.N,Net-(U1-GPIO0)*%
X152400000Y-71700000D03*
%TO.P,C1,2*%
%TO.N,GND*%
X152400000Y-66700000D03*
%TD*%
D20*
%TO.P,D1,1,K_1*%
%TO.N,GND*%
X140750000Y-108000000D03*
D21*
%TO.P,D1,2,A_2*%
%TO.N,Net-(D1-A)*%
X138210000Y-108000000D03*
%TD*%
D16*
%TO.P,SW1,1,1_1*%
%TO.N,GND*%
X160200000Y-66500000D03*
X166700000Y-66500000D03*
%TO.P,SW1,2,2_2*%
%TO.N,Net-(U1-GPIO0)*%
X160200000Y-71000000D03*
X166700000Y-71000000D03*
%TD*%
D15*
%TO.P,R3,1*%
%TO.N,Net-(SW5-C)*%
X157000000Y-90600000D03*
%TO.P,R3,2*%
%TO.N,Net-(U1-GPIO2)*%
X157000000Y-98220000D03*
%TD*%
%TO.P,R5,1*%
%TO.N,Net-(U1-GPIO4)*%
X132500000Y-111620000D03*
%TO.P,R5,2*%
%TO.N,Net-(D1-A)*%
X132500000Y-104000000D03*
%TD*%
%TO.P,R4,1*%
%TO.N,Net-(SW5-C)*%
X157000000Y-104000000D03*
%TO.P,R4,2*%
%TO.N,Net-(U1-GPIO3)*%
X157000000Y-111620000D03*
%TD*%
%TO.P,C3,1*%
%TO.N,Net-(U1-GPIO2)*%
X152400000Y-96800000D03*
%TO.P,C3,2*%
%TO.N,GND*%
X152400000Y-91800000D03*
%TD*%
D22*
%TO.N,Net-(SW5-C)*%
X149500000Y-102250000D03*
X140772057Y-102272057D03*
X121250000Y-95250000D03*
%TD*%
%TO.N,Net-(U1-GPIO0)*%
D23*
X160200000Y-71000000D02*
X166700000Y-71000000D01*
X152400000Y-71700000D02*
X155980000Y-71700000D01*
X157000000Y-72720000D02*
X158480000Y-72720000D01*
X155980000Y-71700000D02*
X157000000Y-72720000D01*
X158480000Y-72720000D02*
X160200000Y-71000000D01*
%TO.N,Net-(U1-GPIO1)*%
X158880000Y-85820000D02*
X160200000Y-84500000D01*
X155280000Y-84100000D02*
X157000000Y-85820000D01*
X157000000Y-85820000D02*
X158880000Y-85820000D01*
X152400000Y-84100000D02*
X155280000Y-84100000D01*
X160200000Y-84500000D02*
X166700000Y-84500000D01*
%TO.N,Net-(U1-GPIO2)*%
X155580000Y-96800000D02*
X157000000Y-98220000D01*
X157000000Y-98220000D02*
X158980000Y-98220000D01*
X114630000Y-108080000D02*
X115500000Y-108950000D01*
X115239634Y-102900000D02*
X114630000Y-103509634D01*
X114630000Y-103509634D02*
X114630000Y-108080000D01*
X160200000Y-97000000D02*
X166700000Y-97000000D01*
X158980000Y-98220000D02*
X160200000Y-97000000D01*
X146300000Y-102900000D02*
X115239634Y-102900000D01*
X152400000Y-96800000D02*
X146300000Y-102900000D01*
X152400000Y-96800000D02*
X155580000Y-96800000D01*
%TO.N,Net-(U1-GPIO3)*%
X152250000Y-110000000D02*
X149530000Y-112720000D01*
X149530000Y-112720000D02*
X121810000Y-112720000D01*
X159130000Y-111620000D02*
X160250000Y-110500000D01*
X160250000Y-110500000D02*
X166750000Y-110500000D01*
X157000000Y-111620000D02*
X159130000Y-111620000D01*
X152250000Y-110000000D02*
X155380000Y-110000000D01*
X121810000Y-112720000D02*
X115500000Y-106410000D01*
X155380000Y-110000000D02*
X157000000Y-111620000D01*
%TO.N,Net-(SW5-C)*%
X116250000Y-100580000D02*
X115500000Y-101330000D01*
X116250000Y-100250000D02*
X116250000Y-100580000D01*
X155250000Y-102250000D02*
X149500000Y-102250000D01*
X157000000Y-104000000D02*
X155250000Y-102250000D01*
X140772057Y-102272057D02*
X138022057Y-102272057D01*
X138022057Y-102272057D02*
X134250000Y-98500000D01*
X121250000Y-95250000D02*
X116250000Y-100250000D01*
%TO.N,Net-(U1-GPIO4)*%
X132500000Y-111620000D02*
X123250000Y-111620000D01*
X123250000Y-111620000D02*
X115500000Y-103870000D01*
%TO.N,Net-(D1-A)*%
X134210000Y-104000000D02*
X138210000Y-108000000D01*
X132500000Y-104000000D02*
X134210000Y-104000000D01*
%TD*%
%TA.AperFunction,Conductor*%
%TO.N,GND*%
G36*
X170442539Y-61270185D02*
G01*
X170488294Y-61322989D01*
X170499500Y-61374500D01*
X170499500Y-115125500D01*
X170479815Y-115192539D01*
X170427011Y-115238294D01*
X170375500Y-115249500D01*
X115976609Y-115249500D01*
X115909570Y-115229815D01*
X115863815Y-115177011D01*
X115853871Y-115107853D01*
X115882896Y-115044297D01*
X115929156Y-115010939D01*
X115930697Y-115010300D01*
X116007072Y-114978665D01*
X116182404Y-114861512D01*
X116331512Y-114712404D01*
X116448665Y-114537072D01*
X116529362Y-114342253D01*
X116570500Y-114135435D01*
X116570500Y-113924565D01*
X116529362Y-113717747D01*
X116448665Y-113522928D01*
X116448664Y-113522927D01*
X116448661Y-113522921D01*
X116331512Y-113347596D01*
X116331509Y-113347592D01*
X116182407Y-113198490D01*
X116182403Y-113198487D01*
X116007078Y-113081338D01*
X116007069Y-113081333D01*
X115812253Y-113000638D01*
X115812245Y-113000636D01*
X115605439Y-112959500D01*
X115605435Y-112959500D01*
X115394565Y-112959500D01*
X115394560Y-112959500D01*
X115187754Y-113000636D01*
X115187746Y-113000638D01*
X114992930Y-113081333D01*
X114992921Y-113081338D01*
X114817596Y-113198487D01*
X114817592Y-113198490D01*
X114668490Y-113347592D01*
X114668487Y-113347596D01*
X114551338Y-113522921D01*
X114551333Y-113522930D01*
X114470638Y-113717746D01*
X114470636Y-113717754D01*
X114429500Y-113924560D01*
X114429500Y-114135439D01*
X114470636Y-114342245D01*
X114470638Y-114342253D01*
X114551333Y-114537069D01*
X114551338Y-114537078D01*
X114668487Y-114712403D01*
X114668490Y-114712407D01*
X114817592Y-114861509D01*
X114817596Y-114861512D01*
X114992921Y-114978661D01*
X114992930Y-114978666D01*
X115070844Y-115010939D01*
X115125247Y-115054780D01*
X115147312Y-115121074D01*
X115130033Y-115188773D01*
X115078896Y-115236384D01*
X115023391Y-115249500D01*
X100736609Y-115249500D01*
X100669570Y-115229815D01*
X100623815Y-115177011D01*
X100613871Y-115107853D01*
X100642896Y-115044297D01*
X100689156Y-115010939D01*
X100690697Y-115010300D01*
X100767072Y-114978665D01*
X100942404Y-114861512D01*
X101091512Y-114712404D01*
X101208665Y-114537072D01*
X101289362Y-114342253D01*
X101330500Y-114135435D01*
X101330500Y-113924565D01*
X101289362Y-113717747D01*
X101208665Y-113522928D01*
X101208664Y-113522927D01*
X101208661Y-113522921D01*
X101091512Y-113347596D01*
X101091509Y-113347592D01*
X100942407Y-113198490D01*
X100942403Y-113198487D01*
X100767078Y-113081338D01*
X100767069Y-113081333D01*
X100572253Y-113000638D01*
X100572245Y-113000636D01*
X100365439Y-112959500D01*
X100365435Y-112959500D01*
X100154565Y-112959500D01*
X100154560Y-112959500D01*
X99947754Y-113000636D01*
X99947746Y-113000638D01*
X99752930Y-113081333D01*
X99752921Y-113081338D01*
X99577596Y-113198487D01*
X99577592Y-113198490D01*
X99428490Y-113347592D01*
X99428487Y-113347596D01*
X99311338Y-113522921D01*
X99311333Y-113522930D01*
X99230638Y-113717746D01*
X99230636Y-113717754D01*
X99189500Y-113924560D01*
X99189500Y-114135439D01*
X99230636Y-114342245D01*
X99230638Y-114342253D01*
X99311333Y-114537069D01*
X99311338Y-114537078D01*
X99428487Y-114712403D01*
X99428490Y-114712407D01*
X99577592Y-114861509D01*
X99577596Y-114861512D01*
X99752921Y-114978661D01*
X99752930Y-114978666D01*
X99830844Y-115010939D01*
X99885247Y-115054780D01*
X99907312Y-115121074D01*
X99890033Y-115188773D01*
X99838896Y-115236384D01*
X99783391Y-115249500D01*
X97874500Y-115249500D01*
X97807461Y-115229815D01*
X97761706Y-115177011D01*
X97750500Y-115125500D01*
X97750500Y-114999460D01*
X97750539Y-114135435D01*
X97750663Y-111384560D01*
X99189500Y-111384560D01*
X99189500Y-111595439D01*
X99230636Y-111802245D01*
X99230638Y-111802253D01*
X99311333Y-111997069D01*
X99311338Y-111997078D01*
X99428487Y-112172403D01*
X99428490Y-112172407D01*
X99577592Y-112321509D01*
X99577596Y-112321512D01*
X99752921Y-112438661D01*
X99752927Y-112438664D01*
X99752928Y-112438665D01*
X99947747Y-112519362D01*
X100154560Y-112560499D01*
X100154564Y-112560500D01*
X100154565Y-112560500D01*
X100365436Y-112560500D01*
X100365437Y-112560499D01*
X100572253Y-112519362D01*
X100767072Y-112438665D01*
X100942404Y-112321512D01*
X101091512Y-112172404D01*
X101208665Y-111997072D01*
X101289362Y-111802253D01*
X101330500Y-111595435D01*
X101330500Y-111384565D01*
X101330499Y-111384560D01*
X114429500Y-111384560D01*
X114429500Y-111595439D01*
X114470636Y-111802245D01*
X114470638Y-111802253D01*
X114551333Y-111997069D01*
X114551338Y-111997078D01*
X114668487Y-112172403D01*
X114668490Y-112172407D01*
X114817592Y-112321509D01*
X114817596Y-112321512D01*
X114992921Y-112438661D01*
X114992927Y-112438664D01*
X114992928Y-112438665D01*
X115187747Y-112519362D01*
X115394560Y-112560499D01*
X115394564Y-112560500D01*
X115394565Y-112560500D01*
X115605436Y-112560500D01*
X115605437Y-112560499D01*
X115812253Y-112519362D01*
X116007072Y-112438665D01*
X116182404Y-112321512D01*
X116331512Y-112172404D01*
X116448665Y-111997072D01*
X116529362Y-111802253D01*
X116570500Y-111595435D01*
X116570500Y-111384565D01*
X116529362Y-111177747D01*
X116448665Y-110982928D01*
X116448664Y-110982927D01*
X116448661Y-110982921D01*
X116331512Y-110807596D01*
X116331509Y-110807592D01*
X116182407Y-110658490D01*
X116182403Y-110658487D01*
X116007078Y-110541338D01*
X116007069Y-110541333D01*
X115812253Y-110460638D01*
X115812245Y-110460636D01*
X115605439Y-110419500D01*
X115605435Y-110419500D01*
X115394565Y-110419500D01*
X115394560Y-110419500D01*
X115187754Y-110460636D01*
X115187746Y-110460638D01*
X114992930Y-110541333D01*
X114992921Y-110541338D01*
X114817596Y-110658487D01*
X114817592Y-110658490D01*
X114668490Y-110807592D01*
X114668487Y-110807596D01*
X114551338Y-110982921D01*
X114551333Y-110982930D01*
X114470638Y-111177746D01*
X114470636Y-111177754D01*
X114429500Y-111384560D01*
X101330499Y-111384560D01*
X101289362Y-111177747D01*
X101208665Y-110982928D01*
X101208664Y-110982927D01*
X101208661Y-110982921D01*
X101091512Y-110807596D01*
X101091509Y-110807592D01*
X100942407Y-110658490D01*
X100942403Y-110658487D01*
X100767078Y-110541338D01*
X100767069Y-110541333D01*
X100572253Y-110460638D01*
X100572245Y-110460636D01*
X100365439Y-110419500D01*
X100365435Y-110419500D01*
X100154565Y-110419500D01*
X100154560Y-110419500D01*
X99947754Y-110460636D01*
X99947746Y-110460638D01*
X99752930Y-110541333D01*
X99752921Y-110541338D01*
X99577596Y-110658487D01*
X99577592Y-110658490D01*
X99428490Y-110807592D01*
X99428487Y-110807596D01*
X99311338Y-110982921D01*
X99311333Y-110982930D01*
X99230638Y-111177746D01*
X99230636Y-111177754D01*
X99189500Y-111384560D01*
X97750663Y-111384560D01*
X97750778Y-108844560D01*
X99189500Y-108844560D01*
X99189500Y-109055439D01*
X99230636Y-109262245D01*
X99230638Y-109262253D01*
X99311333Y-109457069D01*
X99311338Y-109457078D01*
X99428487Y-109632403D01*
X99428490Y-109632407D01*
X99577592Y-109781509D01*
X99577596Y-109781512D01*
X99752921Y-109898661D01*
X99752930Y-109898666D01*
X99797063Y-109916946D01*
X99947747Y-109979362D01*
X100154560Y-110020499D01*
X100154564Y-110020500D01*
X100154565Y-110020500D01*
X100365436Y-110020500D01*
X100365437Y-110020499D01*
X100572253Y-109979362D01*
X100767072Y-109898665D01*
X100942404Y-109781512D01*
X101091512Y-109632404D01*
X101208665Y-109457072D01*
X101289362Y-109262253D01*
X101330500Y-109055435D01*
X101330500Y-108844565D01*
X101289362Y-108637747D01*
X101212646Y-108452539D01*
X101208666Y-108442930D01*
X101208661Y-108442921D01*
X101091512Y-108267596D01*
X101091509Y-108267592D01*
X100982971Y-108159054D01*
X114029498Y-108159054D01*
X114070423Y-108311787D01*
X114079757Y-108327952D01*
X114079756Y-108327952D01*
X114079758Y-108327954D01*
X114149475Y-108448709D01*
X114149481Y-108448717D01*
X114268349Y-108567585D01*
X114268355Y-108567590D01*
X114401850Y-108701085D01*
X114435335Y-108762408D01*
X114435787Y-108812955D01*
X114429500Y-108844564D01*
X114429500Y-109055439D01*
X114470636Y-109262245D01*
X114470638Y-109262253D01*
X114551333Y-109457069D01*
X114551338Y-109457078D01*
X114668487Y-109632403D01*
X114668490Y-109632407D01*
X114817592Y-109781509D01*
X114817596Y-109781512D01*
X114992921Y-109898661D01*
X114992930Y-109898666D01*
X115037063Y-109916946D01*
X115187747Y-109979362D01*
X115394560Y-110020499D01*
X115394564Y-110020500D01*
X115394565Y-110020500D01*
X115605436Y-110020500D01*
X115605437Y-110020499D01*
X115812253Y-109979362D01*
X116007072Y-109898665D01*
X116182404Y-109781512D01*
X116331512Y-109632404D01*
X116448665Y-109457072D01*
X116529362Y-109262253D01*
X116570500Y-109055435D01*
X116570500Y-108844565D01*
X116529362Y-108637747D01*
X116521035Y-108617646D01*
X116513567Y-108548178D01*
X116544842Y-108485699D01*
X116604931Y-108450046D01*
X116674756Y-108452539D01*
X116723277Y-108482512D01*
X121441284Y-113200520D01*
X121441286Y-113200521D01*
X121441290Y-113200524D01*
X121578209Y-113279573D01*
X121578216Y-113279577D01*
X121730943Y-113320501D01*
X121730945Y-113320501D01*
X121896654Y-113320501D01*
X121896670Y-113320500D01*
X149443331Y-113320500D01*
X149443347Y-113320501D01*
X149450943Y-113320501D01*
X149609054Y-113320501D01*
X149609057Y-113320501D01*
X149761785Y-113279577D01*
X149811904Y-113250639D01*
X149898716Y-113200520D01*
X150010520Y-113088716D01*
X150010520Y-113088714D01*
X150020728Y-113078507D01*
X150020730Y-113078504D01*
X151805158Y-111294075D01*
X151866479Y-111260592D01*
X151931151Y-111263825D01*
X151945466Y-111268477D01*
X152147648Y-111300500D01*
X152147649Y-111300500D01*
X152352351Y-111300500D01*
X152352352Y-111300500D01*
X152554534Y-111268477D01*
X152749219Y-111205220D01*
X152931610Y-111112287D01*
X153024590Y-111044732D01*
X153097213Y-110991971D01*
X153097215Y-110991968D01*
X153097219Y-110991966D01*
X153241966Y-110847219D01*
X153241968Y-110847215D01*
X153241971Y-110847213D01*
X153362284Y-110681614D01*
X153362283Y-110681614D01*
X153362287Y-110681610D01*
X153369117Y-110668204D01*
X153417091Y-110617409D01*
X153479602Y-110600500D01*
X155079903Y-110600500D01*
X155146942Y-110620185D01*
X155167584Y-110636819D01*
X155705922Y-111175157D01*
X155739407Y-111236480D01*
X155736173Y-111301155D01*
X155731522Y-111315468D01*
X155699500Y-111517648D01*
X155699500Y-111722351D01*
X155731522Y-111924534D01*
X155794781Y-112119223D01*
X155887715Y-112301613D01*
X156008028Y-112467213D01*
X156152786Y-112611971D01*
X156307749Y-112724556D01*
X156318390Y-112732287D01*
X156434607Y-112791503D01*
X156500776Y-112825218D01*
X156500778Y-112825218D01*
X156500781Y-112825220D01*
X156605137Y-112859127D01*
X156695465Y-112888477D01*
X156796557Y-112904488D01*
X156897648Y-112920500D01*
X156897649Y-112920500D01*
X157102351Y-112920500D01*
X157102352Y-112920500D01*
X157304534Y-112888477D01*
X157499219Y-112825220D01*
X157681610Y-112732287D01*
X157774590Y-112664732D01*
X157847213Y-112611971D01*
X157847215Y-112611968D01*
X157847219Y-112611966D01*
X157991966Y-112467219D01*
X157991968Y-112467215D01*
X157991971Y-112467213D01*
X158112284Y-112301614D01*
X158112285Y-112301613D01*
X158112287Y-112301610D01*
X158119117Y-112288204D01*
X158167091Y-112237409D01*
X158229602Y-112220500D01*
X159043331Y-112220500D01*
X159043347Y-112220501D01*
X159050943Y-112220501D01*
X159209054Y-112220501D01*
X159209057Y-112220501D01*
X159361785Y-112179577D01*
X159411904Y-112150639D01*
X159498716Y-112100520D01*
X159610520Y-111988716D01*
X159610520Y-111988714D01*
X159620728Y-111978507D01*
X159620730Y-111978504D01*
X159646437Y-111952796D01*
X159707758Y-111919313D01*
X159772433Y-111922547D01*
X159898632Y-111963553D01*
X159986110Y-111977408D01*
X160131903Y-112000500D01*
X160131908Y-112000500D01*
X160368097Y-112000500D01*
X160601368Y-111963553D01*
X160634468Y-111952798D01*
X160825992Y-111890568D01*
X161036433Y-111783343D01*
X161227510Y-111644517D01*
X161394517Y-111477510D01*
X161533343Y-111286433D01*
X161593583Y-111168204D01*
X161641558Y-111117409D01*
X161704068Y-111100500D01*
X165295932Y-111100500D01*
X165362971Y-111120185D01*
X165406416Y-111168203D01*
X165466657Y-111286433D01*
X165605483Y-111477510D01*
X165772490Y-111644517D01*
X165963567Y-111783343D01*
X166062991Y-111834002D01*
X166174003Y-111890566D01*
X166174005Y-111890566D01*
X166174008Y-111890568D01*
X166262476Y-111919313D01*
X166398631Y-111963553D01*
X166631903Y-112000500D01*
X166631908Y-112000500D01*
X166868097Y-112000500D01*
X167101368Y-111963553D01*
X167134468Y-111952798D01*
X167325992Y-111890568D01*
X167536433Y-111783343D01*
X167727510Y-111644517D01*
X167894517Y-111477510D01*
X168033343Y-111286433D01*
X168140568Y-111075992D01*
X168213553Y-110851368D01*
X168220486Y-110807596D01*
X168250500Y-110618097D01*
X168250500Y-110381902D01*
X168213553Y-110148631D01*
X168158554Y-109979363D01*
X168140568Y-109924008D01*
X168140566Y-109924005D01*
X168140566Y-109924003D01*
X168033342Y-109713566D01*
X167894517Y-109522490D01*
X167727510Y-109355483D01*
X167536433Y-109216657D01*
X167325996Y-109109433D01*
X167101368Y-109036446D01*
X166868097Y-108999500D01*
X166868092Y-108999500D01*
X166631908Y-108999500D01*
X166631903Y-108999500D01*
X166398631Y-109036446D01*
X166174003Y-109109433D01*
X165963566Y-109216657D01*
X165854550Y-109295862D01*
X165772490Y-109355483D01*
X165772488Y-109355485D01*
X165772487Y-109355485D01*
X165605485Y-109522487D01*
X165605485Y-109522488D01*
X165605483Y-109522490D01*
X165545862Y-109604550D01*
X165466657Y-109713566D01*
X165406417Y-109831795D01*
X165358442Y-109882591D01*
X165295932Y-109899500D01*
X161704068Y-109899500D01*
X161637029Y-109879815D01*
X161593583Y-109831795D01*
X161533343Y-109713567D01*
X161394517Y-109522490D01*
X161227510Y-109355483D01*
X161036433Y-109216657D01*
X160825996Y-109109433D01*
X160601368Y-109036446D01*
X160368097Y-108999500D01*
X160368092Y-108999500D01*
X160131908Y-108999500D01*
X160131903Y-108999500D01*
X159898631Y-109036446D01*
X159674003Y-109109433D01*
X159463566Y-109216657D01*
X159354550Y-109295862D01*
X159272490Y-109355483D01*
X159272488Y-109355485D01*
X159272487Y-109355485D01*
X159105485Y-109522487D01*
X159105485Y-109522488D01*
X159105483Y-109522490D01*
X159045862Y-109604550D01*
X158966657Y-109713566D01*
X158859433Y-109924003D01*
X158786446Y-110148631D01*
X158749500Y-110381902D01*
X158749500Y-110618097D01*
X158786446Y-110851364D01*
X158786447Y-110851370D01*
X158788337Y-110857186D01*
X158790330Y-110927028D01*
X158754247Y-110986859D01*
X158691545Y-111017685D01*
X158670405Y-111019500D01*
X158229602Y-111019500D01*
X158162563Y-110999815D01*
X158119117Y-110951795D01*
X158112284Y-110938385D01*
X157991971Y-110772786D01*
X157847213Y-110628028D01*
X157681613Y-110507715D01*
X157681612Y-110507714D01*
X157681610Y-110507713D01*
X157624653Y-110478691D01*
X157499223Y-110414781D01*
X157304534Y-110351522D01*
X157129995Y-110323878D01*
X157102352Y-110319500D01*
X156897648Y-110319500D01*
X156859599Y-110325526D01*
X156695468Y-110351522D01*
X156686717Y-110354365D01*
X156681154Y-110356173D01*
X156611313Y-110358167D01*
X156555157Y-110325922D01*
X155867590Y-109638355D01*
X155867588Y-109638352D01*
X155748717Y-109519481D01*
X155748716Y-109519480D01*
X155661904Y-109469360D01*
X155661904Y-109469359D01*
X155661900Y-109469358D01*
X155611785Y-109440423D01*
X155459057Y-109399499D01*
X155300943Y-109399499D01*
X155293347Y-109399499D01*
X155293331Y-109399500D01*
X153479602Y-109399500D01*
X153412563Y-109379815D01*
X153369117Y-109331795D01*
X153362284Y-109318385D01*
X153241971Y-109152786D01*
X153097213Y-109008028D01*
X152931613Y-108887715D01*
X152931612Y-108887714D01*
X152931610Y-108887713D01*
X152874653Y-108858691D01*
X152749223Y-108794781D01*
X152554534Y-108731522D01*
X152379995Y-108703878D01*
X152352352Y-108699500D01*
X152147648Y-108699500D01*
X152137641Y-108701085D01*
X151945465Y-108731522D01*
X151750776Y-108794781D01*
X151568386Y-108887715D01*
X151402786Y-109008028D01*
X151258028Y-109152786D01*
X151137715Y-109318386D01*
X151044781Y-109500776D01*
X150981522Y-109695465D01*
X150949500Y-109897648D01*
X150949500Y-110102351D01*
X150981522Y-110304534D01*
X150986173Y-110318848D01*
X150988165Y-110388690D01*
X150955921Y-110444842D01*
X149317584Y-112083181D01*
X149256261Y-112116666D01*
X149229903Y-112119500D01*
X133875801Y-112119500D01*
X133808762Y-112099815D01*
X133763007Y-112047011D01*
X133753063Y-111977853D01*
X133757870Y-111957183D01*
X133768475Y-111924542D01*
X133768475Y-111924538D01*
X133768477Y-111924534D01*
X133800500Y-111722352D01*
X133800500Y-111517648D01*
X133768477Y-111315466D01*
X133763614Y-111300500D01*
X133732655Y-111205218D01*
X133705220Y-111120781D01*
X133705218Y-111120778D01*
X133705218Y-111120776D01*
X133671503Y-111054607D01*
X133612287Y-110938390D01*
X133604032Y-110927028D01*
X133491971Y-110772786D01*
X133347213Y-110628028D01*
X133181613Y-110507715D01*
X133181612Y-110507714D01*
X133181610Y-110507713D01*
X133124653Y-110478691D01*
X132999223Y-110414781D01*
X132804534Y-110351522D01*
X132629995Y-110323878D01*
X132602352Y-110319500D01*
X132397648Y-110319500D01*
X132373329Y-110323351D01*
X132195465Y-110351522D01*
X132000776Y-110414781D01*
X131818386Y-110507715D01*
X131652786Y-110628028D01*
X131508028Y-110772786D01*
X131387715Y-110938385D01*
X131380883Y-110951795D01*
X131332909Y-111002591D01*
X131270398Y-111019500D01*
X123550097Y-111019500D01*
X123483058Y-110999815D01*
X123462416Y-110983181D01*
X116598149Y-104118914D01*
X116564664Y-104057591D01*
X116564213Y-104007040D01*
X116570500Y-103975435D01*
X116570500Y-103764564D01*
X116570499Y-103764560D01*
X116547452Y-103648691D01*
X116553679Y-103579099D01*
X116596542Y-103523922D01*
X116662432Y-103500678D01*
X116669069Y-103500500D01*
X131124199Y-103500500D01*
X131191238Y-103520185D01*
X131236993Y-103572989D01*
X131246937Y-103642147D01*
X131242130Y-103662817D01*
X131231524Y-103695457D01*
X131231523Y-103695464D01*
X131199500Y-103897648D01*
X131199500Y-104102351D01*
X131231522Y-104304534D01*
X131294781Y-104499223D01*
X131346385Y-104600500D01*
X131387712Y-104681609D01*
X131387715Y-104681613D01*
X131508028Y-104847213D01*
X131652786Y-104991971D01*
X131804667Y-105102317D01*
X131818390Y-105112287D01*
X131901030Y-105154394D01*
X132000776Y-105205218D01*
X132000778Y-105205218D01*
X132000781Y-105205220D01*
X132069897Y-105227677D01*
X132195465Y-105268477D01*
X132296557Y-105284488D01*
X132397648Y-105300500D01*
X132397649Y-105300500D01*
X132602351Y-105300500D01*
X132602352Y-105300500D01*
X132804534Y-105268477D01*
X132999219Y-105205220D01*
X133181610Y-105112287D01*
X133336160Y-105000001D01*
X133347213Y-104991971D01*
X133347215Y-104991968D01*
X133347219Y-104991966D01*
X133491966Y-104847219D01*
X133491968Y-104847215D01*
X133491971Y-104847213D01*
X133612284Y-104681614D01*
X133612285Y-104681613D01*
X133612287Y-104681610D01*
X133619117Y-104668204D01*
X133667091Y-104617409D01*
X133729602Y-104600500D01*
X133909903Y-104600500D01*
X133976942Y-104620185D01*
X133997584Y-104636819D01*
X136836561Y-107475796D01*
X136870046Y-107537119D01*
X136866811Y-107601794D01*
X136843985Y-107672045D01*
X136809500Y-107889778D01*
X136809500Y-108110221D01*
X136843985Y-108327952D01*
X136912103Y-108537603D01*
X136912104Y-108537606D01*
X136952888Y-108617647D01*
X137010911Y-108731522D01*
X137012187Y-108734025D01*
X137141752Y-108912358D01*
X137141756Y-108912363D01*
X137297636Y-109068243D01*
X137297641Y-109068247D01*
X137453192Y-109181260D01*
X137475978Y-109197815D01*
X137592501Y-109257187D01*
X137672393Y-109297895D01*
X137672396Y-109297896D01*
X137735472Y-109318390D01*
X137882049Y-109366015D01*
X138099778Y-109400500D01*
X138099779Y-109400500D01*
X138320221Y-109400500D01*
X138320222Y-109400500D01*
X138537951Y-109366015D01*
X138747606Y-109297895D01*
X138944022Y-109197815D01*
X139122365Y-109068242D01*
X139172924Y-109017682D01*
X139234245Y-108984198D01*
X139303936Y-108989182D01*
X139359870Y-109031053D01*
X139376786Y-109062030D01*
X139406646Y-109142087D01*
X139406649Y-109142093D01*
X139492809Y-109257187D01*
X139492812Y-109257190D01*
X139607906Y-109343350D01*
X139607913Y-109343354D01*
X139742620Y-109393596D01*
X139742627Y-109393598D01*
X139802155Y-109399999D01*
X139802172Y-109400000D01*
X140500000Y-109400000D01*
X140500000Y-108375277D01*
X140576306Y-108419333D01*
X140690756Y-108450000D01*
X140809244Y-108450000D01*
X140923694Y-108419333D01*
X141000000Y-108375277D01*
X141000000Y-109400000D01*
X141697828Y-109400000D01*
X141697844Y-109399999D01*
X141757372Y-109393598D01*
X141757379Y-109393596D01*
X141892086Y-109343354D01*
X141892093Y-109343350D01*
X142007187Y-109257190D01*
X142007190Y-109257187D01*
X142093350Y-109142093D01*
X142093354Y-109142086D01*
X142143596Y-109007379D01*
X142143598Y-109007372D01*
X142149999Y-108947844D01*
X142150000Y-108947827D01*
X142150000Y-108250000D01*
X141125278Y-108250000D01*
X141169333Y-108173694D01*
X141200000Y-108059244D01*
X141200000Y-107940756D01*
X141169333Y-107826306D01*
X141125278Y-107750000D01*
X142150000Y-107750000D01*
X142150000Y-107052172D01*
X142149999Y-107052155D01*
X142143598Y-106992627D01*
X142143596Y-106992620D01*
X142093354Y-106857913D01*
X142093350Y-106857906D01*
X142007190Y-106742812D01*
X142007187Y-106742809D01*
X141892093Y-106656649D01*
X141892086Y-106656645D01*
X141757379Y-106606403D01*
X141757372Y-106606401D01*
X141697844Y-106600000D01*
X141000000Y-106600000D01*
X141000000Y-107624722D01*
X140923694Y-107580667D01*
X140809244Y-107550000D01*
X140690756Y-107550000D01*
X140576306Y-107580667D01*
X140500000Y-107624722D01*
X140500000Y-106600000D01*
X139802155Y-106600000D01*
X139742627Y-106606401D01*
X139742620Y-106606403D01*
X139607913Y-106656645D01*
X139607906Y-106656649D01*
X139492812Y-106742809D01*
X139492809Y-106742812D01*
X139406649Y-106857906D01*
X139406643Y-106857918D01*
X139376785Y-106937969D01*
X139334914Y-106993903D01*
X139269449Y-107018319D01*
X139201176Y-107003467D01*
X139172923Y-106982316D01*
X139122363Y-106931756D01*
X139122358Y-106931752D01*
X138944025Y-106802187D01*
X138944024Y-106802186D01*
X138944022Y-106802185D01*
X138881096Y-106770122D01*
X138747606Y-106702104D01*
X138747603Y-106702103D01*
X138537952Y-106633985D01*
X138399440Y-106612047D01*
X138320222Y-106599500D01*
X138099778Y-106599500D01*
X138056232Y-106606397D01*
X137882045Y-106633985D01*
X137811794Y-106656811D01*
X137741953Y-106658806D01*
X137685796Y-106626561D01*
X135956917Y-104897682D01*
X150950000Y-104897682D01*
X150950000Y-105102317D01*
X150982009Y-105304417D01*
X151045244Y-105499031D01*
X151138141Y-105681350D01*
X151138147Y-105681359D01*
X151170523Y-105725921D01*
X151170524Y-105725922D01*
X151850000Y-105046446D01*
X151850000Y-105052661D01*
X151877259Y-105154394D01*
X151929920Y-105245606D01*
X152004394Y-105320080D01*
X152095606Y-105372741D01*
X152197339Y-105400000D01*
X152203553Y-105400000D01*
X151524076Y-106079474D01*
X151568650Y-106111859D01*
X151750968Y-106204755D01*
X151945582Y-106267990D01*
X152147683Y-106300000D01*
X152352317Y-106300000D01*
X152554417Y-106267990D01*
X152749031Y-106204755D01*
X152931349Y-106111859D01*
X152975921Y-106079474D01*
X152975922Y-106079474D01*
X152861204Y-105964756D01*
X152778395Y-105881947D01*
X158750000Y-105881947D01*
X158750000Y-106118052D01*
X158786934Y-106351247D01*
X158859897Y-106575802D01*
X158967087Y-106786174D01*
X159027338Y-106869104D01*
X159027340Y-106869105D01*
X159726212Y-106170233D01*
X159737482Y-106212292D01*
X159809890Y-106337708D01*
X159912292Y-106440110D01*
X160037708Y-106512518D01*
X160079765Y-106523787D01*
X159380893Y-107222658D01*
X159463828Y-107282914D01*
X159674197Y-107390102D01*
X159898752Y-107463065D01*
X159898751Y-107463065D01*
X160131948Y-107500000D01*
X160368052Y-107500000D01*
X160601247Y-107463065D01*
X160825802Y-107390102D01*
X161036163Y-107282918D01*
X161036169Y-107282914D01*
X161119104Y-107222658D01*
X161119105Y-107222658D01*
X160420233Y-106523787D01*
X160462292Y-106512518D01*
X160587708Y-106440110D01*
X160690110Y-106337708D01*
X160762518Y-106212292D01*
X160773787Y-106170234D01*
X161472658Y-106869105D01*
X161472658Y-106869104D01*
X161532914Y-106786169D01*
X161532918Y-106786163D01*
X161640102Y-106575802D01*
X161713065Y-106351247D01*
X161750000Y-106118052D01*
X161750000Y-105881947D01*
X165250000Y-105881947D01*
X165250000Y-106118052D01*
X165286934Y-106351247D01*
X165359897Y-106575802D01*
X165467087Y-106786174D01*
X165527338Y-106869104D01*
X165527340Y-106869105D01*
X166226212Y-106170233D01*
X166237482Y-106212292D01*
X166309890Y-106337708D01*
X166412292Y-106440110D01*
X166537708Y-106512518D01*
X166579765Y-106523787D01*
X165880893Y-107222658D01*
X165963828Y-107282914D01*
X166174197Y-107390102D01*
X166398752Y-107463065D01*
X166398751Y-107463065D01*
X166631948Y-107500000D01*
X166868052Y-107500000D01*
X167101247Y-107463065D01*
X167325802Y-107390102D01*
X167536163Y-107282918D01*
X167536169Y-107282914D01*
X167619104Y-107222658D01*
X167619105Y-107222658D01*
X166920233Y-106523787D01*
X166962292Y-106512518D01*
X167087708Y-106440110D01*
X167190110Y-106337708D01*
X167262518Y-106212292D01*
X167273787Y-106170233D01*
X167972658Y-106869105D01*
X167972658Y-106869104D01*
X168032914Y-106786169D01*
X168032918Y-106786163D01*
X168140102Y-106575802D01*
X168213065Y-106351247D01*
X168250000Y-106118052D01*
X168250000Y-105881947D01*
X168213065Y-105648752D01*
X168140102Y-105424197D01*
X168032914Y-105213828D01*
X167972658Y-105130894D01*
X167972658Y-105130893D01*
X167273787Y-105829765D01*
X167262518Y-105787708D01*
X167190110Y-105662292D01*
X167087708Y-105559890D01*
X166962292Y-105487482D01*
X166920234Y-105476212D01*
X167619105Y-104777340D01*
X167619104Y-104777338D01*
X167536174Y-104717087D01*
X167325802Y-104609897D01*
X167101247Y-104536934D01*
X167101248Y-104536934D01*
X166868052Y-104500000D01*
X166631948Y-104500000D01*
X166398752Y-104536934D01*
X166174197Y-104609897D01*
X165963830Y-104717084D01*
X165880894Y-104777340D01*
X166579766Y-105476212D01*
X166537708Y-105487482D01*
X166412292Y-105559890D01*
X166309890Y-105662292D01*
X166237482Y-105787708D01*
X166226212Y-105829766D01*
X165527340Y-105130894D01*
X165467084Y-105213830D01*
X165359897Y-105424197D01*
X165286934Y-105648752D01*
X165250000Y-105881947D01*
X161750000Y-105881947D01*
X161713065Y-105648752D01*
X161640102Y-105424197D01*
X161532914Y-105213828D01*
X161472658Y-105130894D01*
X161472658Y-105130893D01*
X160773787Y-105829765D01*
X160762518Y-105787708D01*
X160690110Y-105662292D01*
X160587708Y-105559890D01*
X160462292Y-105487482D01*
X160420234Y-105476212D01*
X161119105Y-104777340D01*
X161119104Y-104777339D01*
X161036174Y-104717087D01*
X160825802Y-104609897D01*
X160601247Y-104536934D01*
X160601248Y-104536934D01*
X160368052Y-104500000D01*
X160131948Y-104500000D01*
X159898752Y-104536934D01*
X159674197Y-104609897D01*
X159463830Y-104717084D01*
X159380894Y-104777340D01*
X160079766Y-105476212D01*
X160037708Y-105487482D01*
X159912292Y-105559890D01*
X159809890Y-105662292D01*
X159737482Y-105787708D01*
X159726212Y-105829766D01*
X159027340Y-105130894D01*
X158967084Y-105213830D01*
X158859897Y-105424197D01*
X158786934Y-105648752D01*
X158750000Y-105881947D01*
X152778395Y-105881947D01*
X152296447Y-105400000D01*
X152302661Y-105400000D01*
X152404394Y-105372741D01*
X152495606Y-105320080D01*
X152570080Y-105245606D01*
X152622741Y-105154394D01*
X152650000Y-105052661D01*
X152650000Y-105046447D01*
X153329474Y-105725921D01*
X153361859Y-105681349D01*
X153454755Y-105499031D01*
X153517990Y-105304417D01*
X153550000Y-105102317D01*
X153550000Y-104897682D01*
X153517990Y-104695582D01*
X153454755Y-104500968D01*
X153361859Y-104318650D01*
X153329474Y-104274077D01*
X153329474Y-104274076D01*
X152650000Y-104953551D01*
X152650000Y-104947339D01*
X152622741Y-104845606D01*
X152570080Y-104754394D01*
X152495606Y-104679920D01*
X152404394Y-104627259D01*
X152302661Y-104600000D01*
X152296446Y-104600000D01*
X152975922Y-103920524D01*
X152975921Y-103920523D01*
X152931359Y-103888147D01*
X152931350Y-103888141D01*
X152749031Y-103795244D01*
X152554417Y-103732009D01*
X152352317Y-103700000D01*
X152147683Y-103700000D01*
X151945582Y-103732009D01*
X151750968Y-103795244D01*
X151568644Y-103888143D01*
X151524077Y-103920523D01*
X151524077Y-103920524D01*
X152203554Y-104600000D01*
X152197339Y-104600000D01*
X152095606Y-104627259D01*
X152004394Y-104679920D01*
X151929920Y-104754394D01*
X151877259Y-104845606D01*
X151850000Y-104947339D01*
X151850000Y-104953553D01*
X151170524Y-104274077D01*
X151170523Y-104274077D01*
X151138143Y-104318644D01*
X151045244Y-104500968D01*
X150982009Y-104695582D01*
X150950000Y-104897682D01*
X135956917Y-104897682D01*
X134771416Y-103712181D01*
X134737931Y-103650858D01*
X134742915Y-103581166D01*
X134784787Y-103525233D01*
X134850251Y-103500816D01*
X134859097Y-103500500D01*
X146213331Y-103500500D01*
X146213347Y-103500501D01*
X146220943Y-103500501D01*
X146379054Y-103500501D01*
X146379057Y-103500501D01*
X146531785Y-103459577D01*
X146590002Y-103425965D01*
X146668716Y-103380520D01*
X146780520Y-103268716D01*
X146780520Y-103268714D01*
X146790724Y-103258511D01*
X146790727Y-103258506D01*
X147878080Y-102171153D01*
X148699500Y-102171153D01*
X148699500Y-102328846D01*
X148730261Y-102483489D01*
X148730264Y-102483501D01*
X148790602Y-102629172D01*
X148790609Y-102629185D01*
X148878210Y-102760288D01*
X148878213Y-102760292D01*
X148989707Y-102871786D01*
X148989711Y-102871789D01*
X149120814Y-102959390D01*
X149120827Y-102959397D01*
X149238249Y-103008034D01*
X149266503Y-103019737D01*
X149421153Y-103050499D01*
X149421156Y-103050500D01*
X149421158Y-103050500D01*
X149578844Y-103050500D01*
X149578845Y-103050499D01*
X149733497Y-103019737D01*
X149879179Y-102959394D01*
X149936134Y-102921338D01*
X150010875Y-102871398D01*
X150077553Y-102850520D01*
X150079766Y-102850500D01*
X154949903Y-102850500D01*
X155016942Y-102870185D01*
X155037584Y-102886819D01*
X155705921Y-103555157D01*
X155739406Y-103616480D01*
X155736173Y-103681149D01*
X155731523Y-103695460D01*
X155731523Y-103695462D01*
X155699500Y-103897648D01*
X155699500Y-104102351D01*
X155731522Y-104304534D01*
X155794781Y-104499223D01*
X155846385Y-104600500D01*
X155887712Y-104681609D01*
X155887715Y-104681613D01*
X156008028Y-104847213D01*
X156152786Y-104991971D01*
X156304667Y-105102317D01*
X156318390Y-105112287D01*
X156401030Y-105154394D01*
X156500776Y-105205218D01*
X156500778Y-105205218D01*
X156500781Y-105205220D01*
X156569897Y-105227677D01*
X156695465Y-105268477D01*
X156796557Y-105284488D01*
X156897648Y-105300500D01*
X156897649Y-105300500D01*
X157102351Y-105300500D01*
X157102352Y-105300500D01*
X157304534Y-105268477D01*
X157499219Y-105205220D01*
X157681610Y-105112287D01*
X157836160Y-105000001D01*
X157847213Y-104991971D01*
X157847215Y-104991968D01*
X157847219Y-104991966D01*
X157991966Y-104847219D01*
X158042736Y-104777340D01*
X158061352Y-104751717D01*
X158061354Y-104751714D01*
X158068671Y-104741641D01*
X158112287Y-104681610D01*
X158205220Y-104499219D01*
X158268477Y-104304534D01*
X158300500Y-104102352D01*
X158300500Y-103897648D01*
X158274265Y-103732009D01*
X158268477Y-103695465D01*
X158228682Y-103572989D01*
X158205220Y-103500781D01*
X158205218Y-103500778D01*
X158205218Y-103500776D01*
X158167098Y-103425963D01*
X158112287Y-103318390D01*
X158104556Y-103307749D01*
X157991971Y-103152786D01*
X157847213Y-103008028D01*
X157681613Y-102887715D01*
X157681612Y-102887714D01*
X157681610Y-102887713D01*
X157608615Y-102850520D01*
X157499223Y-102794781D01*
X157304534Y-102731522D01*
X157129995Y-102703878D01*
X157102352Y-102699500D01*
X156897648Y-102699500D01*
X156857211Y-102705904D01*
X156695462Y-102731523D01*
X156695460Y-102731523D01*
X156681149Y-102736173D01*
X156611308Y-102738164D01*
X156555157Y-102705921D01*
X155737590Y-101888355D01*
X155737588Y-101888352D01*
X155618717Y-101769481D01*
X155618716Y-101769480D01*
X155519988Y-101712480D01*
X155519987Y-101712479D01*
X155481783Y-101690422D01*
X155411377Y-101671557D01*
X155329057Y-101649499D01*
X155170943Y-101649499D01*
X155163347Y-101649499D01*
X155163331Y-101649500D01*
X150079766Y-101649500D01*
X150012727Y-101629815D01*
X150010875Y-101628602D01*
X149879185Y-101540609D01*
X149879172Y-101540602D01*
X149733501Y-101480264D01*
X149733489Y-101480261D01*
X149578845Y-101449500D01*
X149578842Y-101449500D01*
X149421158Y-101449500D01*
X149421155Y-101449500D01*
X149266510Y-101480261D01*
X149266498Y-101480264D01*
X149120827Y-101540602D01*
X149120814Y-101540609D01*
X148989711Y-101628210D01*
X148989707Y-101628213D01*
X148878213Y-101739707D01*
X148878210Y-101739711D01*
X148790609Y-101870814D01*
X148790602Y-101870827D01*
X148730264Y-102016498D01*
X148730261Y-102016510D01*
X148699500Y-102171153D01*
X147878080Y-102171153D01*
X151955159Y-98094075D01*
X152016480Y-98060592D01*
X152081154Y-98063826D01*
X152095466Y-98068477D01*
X152297648Y-98100500D01*
X152297649Y-98100500D01*
X152502351Y-98100500D01*
X152502352Y-98100500D01*
X152704534Y-98068477D01*
X152899219Y-98005220D01*
X153081610Y-97912287D01*
X153178658Y-97841778D01*
X153247213Y-97791971D01*
X153247215Y-97791968D01*
X153247219Y-97791966D01*
X153391966Y-97647219D01*
X153391968Y-97647215D01*
X153391971Y-97647213D01*
X153512284Y-97481614D01*
X153512283Y-97481614D01*
X153512287Y-97481610D01*
X153519117Y-97468204D01*
X153567091Y-97417409D01*
X153629602Y-97400500D01*
X155279903Y-97400500D01*
X155346942Y-97420185D01*
X155367584Y-97436819D01*
X155705922Y-97775157D01*
X155739407Y-97836480D01*
X155736173Y-97901155D01*
X155731522Y-97915468D01*
X155699500Y-98117648D01*
X155699500Y-98322351D01*
X155731522Y-98524534D01*
X155794781Y-98719223D01*
X155846385Y-98820500D01*
X155885661Y-98897583D01*
X155887715Y-98901613D01*
X156008028Y-99067213D01*
X156152786Y-99211971D01*
X156307749Y-99324556D01*
X156318390Y-99332287D01*
X156434607Y-99391503D01*
X156500776Y-99425218D01*
X156500778Y-99425218D01*
X156500781Y-99425220D01*
X156605137Y-99459127D01*
X156695465Y-99488477D01*
X156796557Y-99504488D01*
X156897648Y-99520500D01*
X156897649Y-99520500D01*
X157102351Y-99520500D01*
X157102352Y-99520500D01*
X157304534Y-99488477D01*
X157499219Y-99425220D01*
X157681610Y-99332287D01*
X157774590Y-99264732D01*
X157847213Y-99211971D01*
X157847215Y-99211968D01*
X157847219Y-99211966D01*
X157991966Y-99067219D01*
X157991968Y-99067215D01*
X157991971Y-99067213D01*
X158112284Y-98901614D01*
X158112285Y-98901613D01*
X158112287Y-98901610D01*
X158119117Y-98888204D01*
X158167091Y-98837409D01*
X158229602Y-98820500D01*
X158893331Y-98820500D01*
X158893347Y-98820501D01*
X158900943Y-98820501D01*
X159059054Y-98820501D01*
X159059057Y-98820501D01*
X159211785Y-98779577D01*
X159261904Y-98750639D01*
X159348716Y-98700520D01*
X159460520Y-98588716D01*
X159460520Y-98588714D01*
X159470728Y-98578507D01*
X159470730Y-98578504D01*
X159596437Y-98452796D01*
X159657758Y-98419313D01*
X159722433Y-98422547D01*
X159848632Y-98463553D01*
X159936110Y-98477408D01*
X160081903Y-98500500D01*
X160081908Y-98500500D01*
X160318097Y-98500500D01*
X160551368Y-98463553D01*
X160775992Y-98390568D01*
X160986433Y-98283343D01*
X161177510Y-98144517D01*
X161344517Y-97977510D01*
X161483343Y-97786433D01*
X161543583Y-97668204D01*
X161591558Y-97617409D01*
X161654068Y-97600500D01*
X165245932Y-97600500D01*
X165312971Y-97620185D01*
X165356416Y-97668203D01*
X165416657Y-97786433D01*
X165555483Y-97977510D01*
X165722490Y-98144517D01*
X165913567Y-98283343D01*
X165990125Y-98322351D01*
X166124003Y-98390566D01*
X166124005Y-98390566D01*
X166124008Y-98390568D01*
X166212476Y-98419313D01*
X166348631Y-98463553D01*
X166581903Y-98500500D01*
X166581908Y-98500500D01*
X166818097Y-98500500D01*
X167051368Y-98463553D01*
X167275992Y-98390568D01*
X167486433Y-98283343D01*
X167677510Y-98144517D01*
X167844517Y-97977510D01*
X167983343Y-97786433D01*
X168090568Y-97575992D01*
X168163553Y-97351368D01*
X168168442Y-97320499D01*
X168200500Y-97118097D01*
X168200500Y-96881902D01*
X168163553Y-96648631D01*
X168109128Y-96481130D01*
X168090568Y-96424008D01*
X168090566Y-96424005D01*
X168090566Y-96424003D01*
X168011770Y-96269358D01*
X167983343Y-96213567D01*
X167844517Y-96022490D01*
X167677510Y-95855483D01*
X167486433Y-95716657D01*
X167275996Y-95609433D01*
X167051368Y-95536446D01*
X166818097Y-95499500D01*
X166818092Y-95499500D01*
X166581908Y-95499500D01*
X166581903Y-95499500D01*
X166348631Y-95536446D01*
X166124003Y-95609433D01*
X165913566Y-95716657D01*
X165804550Y-95795862D01*
X165722490Y-95855483D01*
X165722488Y-95855485D01*
X165722487Y-95855485D01*
X165555485Y-96022487D01*
X165555485Y-96022488D01*
X165555483Y-96022490D01*
X165534705Y-96051089D01*
X165416657Y-96213566D01*
X165402973Y-96240423D01*
X165362692Y-96319480D01*
X165356417Y-96331795D01*
X165308442Y-96382591D01*
X165245932Y-96399500D01*
X161654068Y-96399500D01*
X161587029Y-96379815D01*
X161543583Y-96331795D01*
X161537309Y-96319481D01*
X161483343Y-96213567D01*
X161344517Y-96022490D01*
X161177510Y-95855483D01*
X160986433Y-95716657D01*
X160775996Y-95609433D01*
X160551368Y-95536446D01*
X160318097Y-95499500D01*
X160318092Y-95499500D01*
X160081908Y-95499500D01*
X160081903Y-95499500D01*
X159848631Y-95536446D01*
X159624003Y-95609433D01*
X159413566Y-95716657D01*
X159304550Y-95795862D01*
X159222490Y-95855483D01*
X159222488Y-95855485D01*
X159222487Y-95855485D01*
X159055485Y-96022487D01*
X159055485Y-96022488D01*
X159055483Y-96022490D01*
X159034705Y-96051089D01*
X158916657Y-96213566D01*
X158809433Y-96424003D01*
X158736446Y-96648631D01*
X158699500Y-96881902D01*
X158699500Y-97118097D01*
X158736446Y-97351368D01*
X158770828Y-97457181D01*
X158772823Y-97527022D01*
X158736743Y-97586855D01*
X158674042Y-97617684D01*
X158652897Y-97619500D01*
X158229602Y-97619500D01*
X158162563Y-97599815D01*
X158119117Y-97551795D01*
X158112284Y-97538385D01*
X157991971Y-97372786D01*
X157847213Y-97228028D01*
X157681613Y-97107715D01*
X157681612Y-97107714D01*
X157681610Y-97107713D01*
X157624653Y-97078691D01*
X157499223Y-97014781D01*
X157304534Y-96951522D01*
X157129995Y-96923878D01*
X157102352Y-96919500D01*
X156897648Y-96919500D01*
X156859599Y-96925526D01*
X156695468Y-96951522D01*
X156686717Y-96954365D01*
X156681154Y-96956173D01*
X156611313Y-96958167D01*
X156555157Y-96925922D01*
X156067590Y-96438355D01*
X156067588Y-96438352D01*
X155948717Y-96319481D01*
X155948716Y-96319480D01*
X155861904Y-96269360D01*
X155861904Y-96269359D01*
X155861900Y-96269358D01*
X155811785Y-96240423D01*
X155659057Y-96199499D01*
X155500943Y-96199499D01*
X155493347Y-96199499D01*
X155493331Y-96199500D01*
X153629602Y-96199500D01*
X153562563Y-96179815D01*
X153519117Y-96131795D01*
X153512284Y-96118385D01*
X153391971Y-95952786D01*
X153247213Y-95808028D01*
X153081613Y-95687715D01*
X153081612Y-95687714D01*
X153081610Y-95687713D01*
X152966743Y-95629185D01*
X152899223Y-95594781D01*
X152704534Y-95531522D01*
X152529995Y-95503878D01*
X152502352Y-95499500D01*
X152297648Y-95499500D01*
X152273329Y-95503351D01*
X152095465Y-95531522D01*
X151900776Y-95594781D01*
X151718386Y-95687715D01*
X151552786Y-95808028D01*
X151408028Y-95952786D01*
X151287715Y-96118386D01*
X151194781Y-96300776D01*
X151131522Y-96495465D01*
X151107263Y-96648632D01*
X151099500Y-96697648D01*
X151099500Y-96902352D01*
X151114073Y-96994359D01*
X151131523Y-97104535D01*
X151136172Y-97118845D01*
X151138165Y-97188687D01*
X151105921Y-97244841D01*
X146087584Y-102263181D01*
X146026261Y-102296666D01*
X145999903Y-102299500D01*
X141695412Y-102299500D01*
X141628373Y-102279815D01*
X141582618Y-102227011D01*
X141575061Y-102198927D01*
X141573746Y-102199189D01*
X141541795Y-102038567D01*
X141541794Y-102038560D01*
X141530960Y-102012404D01*
X141481454Y-101892884D01*
X141481447Y-101892871D01*
X141393846Y-101761768D01*
X141393843Y-101761764D01*
X141282349Y-101650270D01*
X141282345Y-101650267D01*
X141151242Y-101562666D01*
X141151229Y-101562659D01*
X141005558Y-101502321D01*
X141005546Y-101502318D01*
X140850902Y-101471557D01*
X140850899Y-101471557D01*
X140693215Y-101471557D01*
X140693212Y-101471557D01*
X140538567Y-101502318D01*
X140538555Y-101502321D01*
X140392884Y-101562659D01*
X140392871Y-101562666D01*
X140261182Y-101650659D01*
X140194504Y-101671537D01*
X140192291Y-101671557D01*
X138322154Y-101671557D01*
X138255115Y-101651872D01*
X138234473Y-101635238D01*
X136869319Y-100270084D01*
X136835834Y-100208761D01*
X136840818Y-100139069D01*
X136882690Y-100083136D01*
X136900704Y-100071918D01*
X136905405Y-100069524D01*
X136941614Y-100043215D01*
X137007417Y-100019736D01*
X137075471Y-100035560D01*
X137113763Y-100069220D01*
X137142454Y-100107546D01*
X137142455Y-100107546D01*
X137142456Y-100107548D01*
X137257664Y-100193793D01*
X137257671Y-100193797D01*
X137392517Y-100244091D01*
X137392516Y-100244091D01*
X137399444Y-100244835D01*
X137452127Y-100250500D01*
X139047872Y-100250499D01*
X139107483Y-100244091D01*
X139107486Y-100244089D01*
X139114554Y-100243330D01*
X139183314Y-100255736D01*
X139215490Y-100278939D01*
X139307345Y-100370794D01*
X139307350Y-100370798D01*
X139461864Y-100483058D01*
X139511155Y-100518870D01*
X139654184Y-100591747D01*
X139735616Y-100633239D01*
X139735618Y-100633239D01*
X139735621Y-100633241D01*
X139975215Y-100711090D01*
X140224038Y-100750500D01*
X140224039Y-100750500D01*
X140475961Y-100750500D01*
X140475962Y-100750500D01*
X140724785Y-100711090D01*
X140964379Y-100633241D01*
X141188845Y-100518870D01*
X141392656Y-100370793D01*
X141570793Y-100192656D01*
X141718870Y-99988845D01*
X141833241Y-99764379D01*
X141911090Y-99524785D01*
X141950500Y-99275962D01*
X141950500Y-97724038D01*
X141911090Y-97475215D01*
X141833241Y-97235621D01*
X141833239Y-97235618D01*
X141833239Y-97235616D01*
X141786479Y-97143845D01*
X141718870Y-97011155D01*
X141670986Y-96945248D01*
X141570798Y-96807350D01*
X141570794Y-96807345D01*
X141392654Y-96629205D01*
X141392649Y-96629201D01*
X141188848Y-96481132D01*
X141188847Y-96481131D01*
X141188845Y-96481130D01*
X141104894Y-96438355D01*
X140964383Y-96366760D01*
X140724785Y-96288910D01*
X140601352Y-96269360D01*
X140475962Y-96249500D01*
X140224038Y-96249500D01*
X140099626Y-96269205D01*
X139975214Y-96288910D01*
X139735616Y-96366760D01*
X139511151Y-96481132D01*
X139307350Y-96629200D01*
X139215487Y-96721062D01*
X139154163Y-96754546D01*
X139114553Y-96756669D01*
X139105522Y-96755698D01*
X139047873Y-96749500D01*
X139047865Y-96749500D01*
X137452129Y-96749500D01*
X137452123Y-96749501D01*
X137392516Y-96755908D01*
X137257671Y-96806202D01*
X137257664Y-96806206D01*
X137142455Y-96892452D01*
X137113765Y-96930777D01*
X137057830Y-96972648D01*
X136988139Y-96977631D01*
X136941613Y-96956783D01*
X136940773Y-96956173D01*
X136905405Y-96930476D01*
X136882825Y-96918971D01*
X136730029Y-96841117D01*
X136542826Y-96780290D01*
X136348422Y-96749500D01*
X136348417Y-96749500D01*
X136151583Y-96749500D01*
X136151578Y-96749500D01*
X135957173Y-96780290D01*
X135769970Y-96841117D01*
X135594594Y-96930476D01*
X135529692Y-96977631D01*
X135435354Y-97046172D01*
X135435352Y-97046174D01*
X135435351Y-97046174D01*
X135337681Y-97143845D01*
X135276358Y-97177330D01*
X135206666Y-97172346D01*
X135162319Y-97143845D01*
X135064648Y-97046174D01*
X135064646Y-97046172D01*
X134905405Y-96930476D01*
X134882825Y-96918971D01*
X134730029Y-96841117D01*
X134542826Y-96780290D01*
X134348422Y-96749500D01*
X134348417Y-96749500D01*
X134151583Y-96749500D01*
X134151578Y-96749500D01*
X133957173Y-96780290D01*
X133769967Y-96841118D01*
X133590911Y-96932352D01*
X133522242Y-96945248D01*
X133457502Y-96918971D01*
X133434299Y-96894752D01*
X133370798Y-96807349D01*
X133192654Y-96629205D01*
X133192649Y-96629201D01*
X132988848Y-96481132D01*
X132988847Y-96481131D01*
X132988845Y-96481130D01*
X132904894Y-96438355D01*
X132764383Y-96366760D01*
X132524785Y-96288910D01*
X132401352Y-96269360D01*
X132275962Y-96249500D01*
X132024038Y-96249500D01*
X131899626Y-96269205D01*
X131775214Y-96288910D01*
X131535616Y-96366760D01*
X131311151Y-96481132D01*
X131107350Y-96629201D01*
X131107345Y-96629205D01*
X130929205Y-96807345D01*
X130929201Y-96807350D01*
X130781132Y-97011151D01*
X130666760Y-97235616D01*
X130588910Y-97475214D01*
X130566345Y-97617684D01*
X130549500Y-97724038D01*
X130549500Y-99275962D01*
X130558421Y-99332284D01*
X130588910Y-99524785D01*
X130666760Y-99764383D01*
X130781132Y-99988848D01*
X130929201Y-100192649D01*
X130929205Y-100192654D01*
X131107345Y-100370794D01*
X131107350Y-100370798D01*
X131261864Y-100483058D01*
X131311155Y-100518870D01*
X131454184Y-100591747D01*
X131535616Y-100633239D01*
X131535618Y-100633239D01*
X131535621Y-100633241D01*
X131775215Y-100711090D01*
X132024038Y-100750500D01*
X132024039Y-100750500D01*
X132275961Y-100750500D01*
X132275962Y-100750500D01*
X132524785Y-100711090D01*
X132764379Y-100633241D01*
X132988845Y-100518870D01*
X133192656Y-100370793D01*
X133370793Y-100192656D01*
X133434298Y-100105247D01*
X133489628Y-100062581D01*
X133559241Y-100056602D01*
X133590912Y-100067647D01*
X133594593Y-100069522D01*
X133594595Y-100069524D01*
X133631883Y-100088523D01*
X133769970Y-100158882D01*
X133769972Y-100158882D01*
X133769975Y-100158884D01*
X133807089Y-100170943D01*
X133957173Y-100219709D01*
X134151578Y-100250500D01*
X134151583Y-100250500D01*
X134348422Y-100250500D01*
X134542826Y-100219709D01*
X134622574Y-100193797D01*
X134730025Y-100158884D01*
X134868117Y-100088522D01*
X134936785Y-100075627D01*
X135001526Y-100101903D01*
X135012092Y-100111327D01*
X136988584Y-102087819D01*
X137022069Y-102149142D01*
X137017085Y-102218834D01*
X136975213Y-102274767D01*
X136909749Y-102299184D01*
X136900903Y-102299500D01*
X116343779Y-102299500D01*
X116276740Y-102279815D01*
X116230985Y-102227011D01*
X116221041Y-102157853D01*
X116250066Y-102094297D01*
X116256098Y-102087819D01*
X116331509Y-102012407D01*
X116331512Y-102012404D01*
X116448665Y-101837072D01*
X116529362Y-101642253D01*
X116570500Y-101435435D01*
X116570500Y-101224565D01*
X116570500Y-101224564D01*
X116570500Y-101224562D01*
X116564213Y-101192957D01*
X116570440Y-101123365D01*
X116598147Y-101081086D01*
X116608506Y-101070728D01*
X116608511Y-101070724D01*
X116618714Y-101060520D01*
X116618716Y-101060520D01*
X116730520Y-100948716D01*
X116787224Y-100850501D01*
X116809577Y-100811785D01*
X116850500Y-100659057D01*
X116850500Y-100550097D01*
X116870185Y-100483058D01*
X116886819Y-100462416D01*
X119066314Y-98282921D01*
X121264662Y-96084572D01*
X121325983Y-96051089D01*
X121328150Y-96050638D01*
X121386085Y-96039113D01*
X121483497Y-96019737D01*
X121629179Y-95959394D01*
X121760289Y-95871789D01*
X121871789Y-95760289D01*
X121959394Y-95629179D01*
X122019737Y-95483497D01*
X122050500Y-95328842D01*
X122050500Y-95171158D01*
X122050500Y-95171155D01*
X122050499Y-95171153D01*
X122019738Y-95016510D01*
X122019738Y-95016508D01*
X122019737Y-95016503D01*
X122019735Y-95016498D01*
X121959397Y-94870827D01*
X121959390Y-94870814D01*
X121871789Y-94739711D01*
X121871786Y-94739707D01*
X121760292Y-94628213D01*
X121760288Y-94628210D01*
X121629185Y-94540609D01*
X121629172Y-94540602D01*
X121483501Y-94480264D01*
X121483489Y-94480261D01*
X121328845Y-94449500D01*
X121328842Y-94449500D01*
X121171158Y-94449500D01*
X121171155Y-94449500D01*
X121016510Y-94480261D01*
X121016498Y-94480264D01*
X120870827Y-94540602D01*
X120870814Y-94540609D01*
X120739711Y-94628210D01*
X120739707Y-94628213D01*
X120628213Y-94739707D01*
X120628210Y-94739711D01*
X120540609Y-94870814D01*
X120540602Y-94870827D01*
X120480264Y-95016498D01*
X120480261Y-95016508D01*
X120449361Y-95171850D01*
X120416976Y-95233761D01*
X120415425Y-95235339D01*
X116781681Y-98869082D01*
X116720358Y-98902567D01*
X116650666Y-98897583D01*
X116594733Y-98855711D01*
X116570316Y-98790247D01*
X116570000Y-98781401D01*
X116570000Y-98684611D01*
X116528881Y-98477898D01*
X116528879Y-98477892D01*
X116448222Y-98283167D01*
X116448220Y-98283164D01*
X116413039Y-98230513D01*
X115917643Y-98725910D01*
X115891378Y-98627886D01*
X115836084Y-98532114D01*
X115757886Y-98453916D01*
X115662114Y-98398622D01*
X115564089Y-98372356D01*
X116059485Y-97876959D01*
X116059485Y-97876958D01*
X116006833Y-97841778D01*
X115812107Y-97761120D01*
X115812101Y-97761118D01*
X115605388Y-97720000D01*
X115394612Y-97720000D01*
X115187898Y-97761118D01*
X115187892Y-97761120D01*
X114993168Y-97841777D01*
X114993156Y-97841784D01*
X114940513Y-97876958D01*
X114940512Y-97876959D01*
X115435910Y-98372356D01*
X115337886Y-98398622D01*
X115242114Y-98453916D01*
X115163916Y-98532114D01*
X115108622Y-98627886D01*
X115082356Y-98725909D01*
X114586959Y-98230512D01*
X114586958Y-98230513D01*
X114551784Y-98283156D01*
X114551777Y-98283168D01*
X114471120Y-98477892D01*
X114471118Y-98477898D01*
X114430000Y-98684611D01*
X114430000Y-98895388D01*
X114429999Y-98895388D01*
X114471118Y-99102101D01*
X114471120Y-99102107D01*
X114551778Y-99296833D01*
X114586959Y-99349485D01*
X115082356Y-98854089D01*
X115108622Y-98952114D01*
X115163916Y-99047886D01*
X115242114Y-99126084D01*
X115337886Y-99181378D01*
X115435910Y-99207643D01*
X114940513Y-99703039D01*
X114993164Y-99738220D01*
X114993167Y-99738222D01*
X115187892Y-99818879D01*
X115187898Y-99818881D01*
X115394611Y-99860000D01*
X115571217Y-99860000D01*
X115638256Y-99879685D01*
X115684011Y-99932489D01*
X115693955Y-100001647D01*
X115690992Y-100016094D01*
X115690424Y-100018212D01*
X115690423Y-100018215D01*
X115650395Y-100167595D01*
X115614031Y-100227254D01*
X115551184Y-100257783D01*
X115530622Y-100259500D01*
X115394560Y-100259500D01*
X115187754Y-100300636D01*
X115187746Y-100300638D01*
X114992930Y-100381333D01*
X114992921Y-100381338D01*
X114817596Y-100498487D01*
X114817592Y-100498490D01*
X114668490Y-100647592D01*
X114668487Y-100647596D01*
X114551338Y-100822921D01*
X114551333Y-100822930D01*
X114470638Y-101017746D01*
X114470636Y-101017754D01*
X114429500Y-101224560D01*
X114429500Y-101435439D01*
X114470636Y-101642245D01*
X114470638Y-101642253D01*
X114551333Y-101837069D01*
X114551338Y-101837078D01*
X114668487Y-102012403D01*
X114668490Y-102012407D01*
X114817592Y-102161509D01*
X114817596Y-102161512D01*
X114883625Y-102205632D01*
X114928430Y-102259245D01*
X114937137Y-102328570D01*
X114906982Y-102391597D01*
X114876739Y-102416118D01*
X114870924Y-102419475D01*
X114870916Y-102419481D01*
X114254217Y-103036180D01*
X114254214Y-103036182D01*
X114254215Y-103036183D01*
X114149480Y-103140918D01*
X114122531Y-103187596D01*
X114070423Y-103277849D01*
X114029499Y-103430577D01*
X114029499Y-103430579D01*
X114029499Y-103598680D01*
X114029500Y-103598693D01*
X114029500Y-107993330D01*
X114029499Y-107993348D01*
X114029499Y-108159054D01*
X114029498Y-108159054D01*
X100982971Y-108159054D01*
X100942407Y-108118490D01*
X100942403Y-108118487D01*
X100767078Y-108001338D01*
X100767069Y-108001333D01*
X100572253Y-107920638D01*
X100572245Y-107920636D01*
X100365439Y-107879500D01*
X100365435Y-107879500D01*
X100154565Y-107879500D01*
X100154560Y-107879500D01*
X99947754Y-107920636D01*
X99947746Y-107920638D01*
X99752930Y-108001333D01*
X99752921Y-108001338D01*
X99577596Y-108118487D01*
X99577592Y-108118490D01*
X99428490Y-108267592D01*
X99428487Y-108267596D01*
X99311338Y-108442921D01*
X99311333Y-108442930D01*
X99230638Y-108637746D01*
X99230636Y-108637754D01*
X99189500Y-108844560D01*
X97750778Y-108844560D01*
X97750892Y-106304560D01*
X99189500Y-106304560D01*
X99189500Y-106515439D01*
X99230636Y-106722245D01*
X99230638Y-106722253D01*
X99311333Y-106917069D01*
X99311338Y-106917078D01*
X99428487Y-107092403D01*
X99428490Y-107092407D01*
X99577592Y-107241509D01*
X99577596Y-107241512D01*
X99752921Y-107358661D01*
X99752927Y-107358664D01*
X99752928Y-107358665D01*
X99947747Y-107439362D01*
X100154258Y-107480439D01*
X100154560Y-107480499D01*
X100154564Y-107480500D01*
X100154565Y-107480500D01*
X100365436Y-107480500D01*
X100365437Y-107480499D01*
X100572253Y-107439362D01*
X100767072Y-107358665D01*
X100942404Y-107241512D01*
X101091512Y-107092404D01*
X101208665Y-106917072D01*
X101289362Y-106722253D01*
X101330500Y-106515435D01*
X101330500Y-106304565D01*
X101289362Y-106097747D01*
X101212646Y-105912539D01*
X101208666Y-105902930D01*
X101208661Y-105902921D01*
X101091512Y-105727596D01*
X101091509Y-105727592D01*
X100942407Y-105578490D01*
X100942403Y-105578487D01*
X100767078Y-105461338D01*
X100767069Y-105461333D01*
X100572253Y-105380638D01*
X100572245Y-105380636D01*
X100365439Y-105339500D01*
X100365435Y-105339500D01*
X100154565Y-105339500D01*
X100154560Y-105339500D01*
X99947754Y-105380636D01*
X99947746Y-105380638D01*
X99752930Y-105461333D01*
X99752921Y-105461338D01*
X99577596Y-105578487D01*
X99577592Y-105578490D01*
X99428490Y-105727592D01*
X99428487Y-105727596D01*
X99311338Y-105902921D01*
X99311333Y-105902930D01*
X99230638Y-106097746D01*
X99230636Y-106097754D01*
X99189500Y-106304560D01*
X97750892Y-106304560D01*
X97751007Y-103764560D01*
X99189500Y-103764560D01*
X99189500Y-103975439D01*
X99230636Y-104182245D01*
X99230638Y-104182253D01*
X99311333Y-104377069D01*
X99311338Y-104377078D01*
X99428487Y-104552403D01*
X99428490Y-104552407D01*
X99577592Y-104701509D01*
X99577596Y-104701512D01*
X99752921Y-104818661D01*
X99752927Y-104818664D01*
X99752928Y-104818665D01*
X99947747Y-104899362D01*
X100154258Y-104940439D01*
X100154560Y-104940499D01*
X100154564Y-104940500D01*
X100154565Y-104940500D01*
X100365436Y-104940500D01*
X100365437Y-104940499D01*
X100572253Y-104899362D01*
X100767072Y-104818665D01*
X100942404Y-104701512D01*
X101091512Y-104552404D01*
X101208665Y-104377072D01*
X101289362Y-104182253D01*
X101330500Y-103975435D01*
X101330500Y-103764565D01*
X101289362Y-103557747D01*
X101208665Y-103362928D01*
X101208664Y-103362927D01*
X101208661Y-103362921D01*
X101091512Y-103187595D01*
X100942407Y-103038490D01*
X100942403Y-103038487D01*
X100767078Y-102921338D01*
X100767069Y-102921333D01*
X100572253Y-102840638D01*
X100572245Y-102840636D01*
X100365439Y-102799500D01*
X100365435Y-102799500D01*
X100154565Y-102799500D01*
X100154560Y-102799500D01*
X99947754Y-102840636D01*
X99947746Y-102840638D01*
X99752930Y-102921333D01*
X99752921Y-102921338D01*
X99577596Y-103038487D01*
X99577592Y-103038490D01*
X99428490Y-103187592D01*
X99428488Y-103187595D01*
X99311338Y-103362921D01*
X99311333Y-103362930D01*
X99230638Y-103557746D01*
X99230636Y-103557754D01*
X99189500Y-103764560D01*
X97751007Y-103764560D01*
X97751122Y-101224560D01*
X99189500Y-101224560D01*
X99189500Y-101435439D01*
X99230636Y-101642245D01*
X99230638Y-101642253D01*
X99311333Y-101837069D01*
X99311338Y-101837078D01*
X99428487Y-102012403D01*
X99428490Y-102012407D01*
X99577592Y-102161509D01*
X99577596Y-102161512D01*
X99752921Y-102278661D01*
X99752927Y-102278664D01*
X99752928Y-102278665D01*
X99947747Y-102359362D01*
X100109806Y-102391597D01*
X100154560Y-102400499D01*
X100154564Y-102400500D01*
X100154565Y-102400500D01*
X100365436Y-102400500D01*
X100365437Y-102400499D01*
X100572253Y-102359362D01*
X100767072Y-102278665D01*
X100942404Y-102161512D01*
X101091512Y-102012404D01*
X101208665Y-101837072D01*
X101289362Y-101642253D01*
X101330500Y-101435435D01*
X101330500Y-101224565D01*
X101330499Y-101224562D01*
X101330499Y-101224560D01*
X101299901Y-101070732D01*
X101289362Y-101017747D01*
X101208665Y-100822928D01*
X101208664Y-100822927D01*
X101208661Y-100822921D01*
X101091512Y-100647596D01*
X101091509Y-100647592D01*
X100942407Y-100498490D01*
X100942403Y-100498487D01*
X100767078Y-100381338D01*
X100767069Y-100381333D01*
X100572253Y-100300638D01*
X100572245Y-100300636D01*
X100365439Y-100259500D01*
X100365435Y-100259500D01*
X100154565Y-100259500D01*
X100154560Y-100259500D01*
X99947754Y-100300636D01*
X99947746Y-100300638D01*
X99752930Y-100381333D01*
X99752921Y-100381338D01*
X99577596Y-100498487D01*
X99577592Y-100498490D01*
X99428490Y-100647592D01*
X99428487Y-100647596D01*
X99311338Y-100822921D01*
X99311333Y-100822930D01*
X99230638Y-101017746D01*
X99230636Y-101017754D01*
X99189500Y-101224560D01*
X97751122Y-101224560D01*
X97751237Y-98684560D01*
X99189500Y-98684560D01*
X99189500Y-98895439D01*
X99230636Y-99102245D01*
X99230638Y-99102253D01*
X99311333Y-99297069D01*
X99311338Y-99297078D01*
X99428487Y-99472403D01*
X99428490Y-99472407D01*
X99577592Y-99621509D01*
X99577596Y-99621512D01*
X99752921Y-99738661D01*
X99752927Y-99738664D01*
X99752928Y-99738665D01*
X99947747Y-99819362D01*
X100152051Y-99860000D01*
X100154560Y-99860499D01*
X100154564Y-99860500D01*
X100154565Y-99860500D01*
X100365436Y-99860500D01*
X100365437Y-99860499D01*
X100572253Y-99819362D01*
X100767072Y-99738665D01*
X100942404Y-99621512D01*
X101091512Y-99472404D01*
X101208665Y-99297072D01*
X101289362Y-99102253D01*
X101330500Y-98895435D01*
X101330500Y-98684565D01*
X101289362Y-98477747D01*
X101208837Y-98283343D01*
X101208666Y-98282930D01*
X101208661Y-98282921D01*
X101091512Y-98107596D01*
X101091509Y-98107592D01*
X100942407Y-97958490D01*
X100942403Y-97958487D01*
X100767078Y-97841338D01*
X100767069Y-97841333D01*
X100572253Y-97760638D01*
X100572245Y-97760636D01*
X100365439Y-97719500D01*
X100365435Y-97719500D01*
X100154565Y-97719500D01*
X100154560Y-97719500D01*
X99947754Y-97760636D01*
X99947746Y-97760638D01*
X99752930Y-97841333D01*
X99752921Y-97841338D01*
X99577596Y-97958487D01*
X99577592Y-97958490D01*
X99428490Y-98107592D01*
X99428487Y-98107596D01*
X99311338Y-98282921D01*
X99311333Y-98282930D01*
X99230638Y-98477746D01*
X99230636Y-98477754D01*
X99189500Y-98684560D01*
X97751237Y-98684560D01*
X97751352Y-96144560D01*
X99189500Y-96144560D01*
X99189500Y-96355439D01*
X99230636Y-96562245D01*
X99230638Y-96562253D01*
X99311333Y-96757069D01*
X99311338Y-96757078D01*
X99428487Y-96932403D01*
X99428490Y-96932407D01*
X99577592Y-97081509D01*
X99577596Y-97081512D01*
X99752921Y-97198661D01*
X99752927Y-97198664D01*
X99752928Y-97198665D01*
X99947747Y-97279362D01*
X100154560Y-97320499D01*
X100154564Y-97320500D01*
X100154565Y-97320500D01*
X100365436Y-97320500D01*
X100365437Y-97320499D01*
X100572253Y-97279362D01*
X100767072Y-97198665D01*
X100942404Y-97081512D01*
X101091512Y-96932404D01*
X101208665Y-96757072D01*
X101289362Y-96562253D01*
X101330500Y-96355435D01*
X101330500Y-96144565D01*
X101330499Y-96144560D01*
X114429500Y-96144560D01*
X114429500Y-96355439D01*
X114470636Y-96562245D01*
X114470638Y-96562253D01*
X114551333Y-96757069D01*
X114551338Y-96757078D01*
X114668487Y-96932403D01*
X114668490Y-96932407D01*
X114817592Y-97081509D01*
X114817596Y-97081512D01*
X114992921Y-97198661D01*
X114992927Y-97198664D01*
X114992928Y-97198665D01*
X115187747Y-97279362D01*
X115394560Y-97320499D01*
X115394564Y-97320500D01*
X115394565Y-97320500D01*
X115605436Y-97320500D01*
X115605437Y-97320499D01*
X115812253Y-97279362D01*
X116007072Y-97198665D01*
X116182404Y-97081512D01*
X116331512Y-96932404D01*
X116448665Y-96757072D01*
X116529362Y-96562253D01*
X116570500Y-96355435D01*
X116570500Y-96144565D01*
X116529362Y-95937747D01*
X116466946Y-95787063D01*
X116448666Y-95742930D01*
X116448661Y-95742921D01*
X116331512Y-95567596D01*
X116331509Y-95567592D01*
X116182407Y-95418490D01*
X116182403Y-95418487D01*
X116007078Y-95301338D01*
X116007069Y-95301333D01*
X115812253Y-95220638D01*
X115812245Y-95220636D01*
X115605439Y-95179500D01*
X115605435Y-95179500D01*
X115394565Y-95179500D01*
X115394560Y-95179500D01*
X115187754Y-95220636D01*
X115187746Y-95220638D01*
X114992930Y-95301333D01*
X114992921Y-95301338D01*
X114817596Y-95418487D01*
X114817592Y-95418490D01*
X114668490Y-95567592D01*
X114668487Y-95567596D01*
X114551338Y-95742921D01*
X114551333Y-95742930D01*
X114470638Y-95937746D01*
X114470636Y-95937754D01*
X114429500Y-96144560D01*
X101330499Y-96144560D01*
X101289362Y-95937747D01*
X101226946Y-95787063D01*
X101208666Y-95742930D01*
X101208661Y-95742921D01*
X101091512Y-95567596D01*
X101091509Y-95567592D01*
X100942407Y-95418490D01*
X100942403Y-95418487D01*
X100767078Y-95301338D01*
X100767069Y-95301333D01*
X100572253Y-95220638D01*
X100572245Y-95220636D01*
X100365439Y-95179500D01*
X100365435Y-95179500D01*
X100154565Y-95179500D01*
X100154560Y-95179500D01*
X99947754Y-95220636D01*
X99947746Y-95220638D01*
X99752930Y-95301333D01*
X99752921Y-95301338D01*
X99577596Y-95418487D01*
X99577592Y-95418490D01*
X99428490Y-95567592D01*
X99428487Y-95567596D01*
X99311338Y-95742921D01*
X99311333Y-95742930D01*
X99230638Y-95937746D01*
X99230636Y-95937754D01*
X99189500Y-96144560D01*
X97751352Y-96144560D01*
X97751552Y-91697682D01*
X151100000Y-91697682D01*
X151100000Y-91902317D01*
X151132009Y-92104417D01*
X151195244Y-92299031D01*
X151288141Y-92481350D01*
X151288147Y-92481359D01*
X151320523Y-92525921D01*
X151320524Y-92525922D01*
X152000000Y-91846446D01*
X152000000Y-91852661D01*
X152027259Y-91954394D01*
X152079920Y-92045606D01*
X152154394Y-92120080D01*
X152245606Y-92172741D01*
X152347339Y-92200000D01*
X152353553Y-92200000D01*
X151674076Y-92879474D01*
X151718650Y-92911859D01*
X151900968Y-93004755D01*
X152095582Y-93067990D01*
X152297683Y-93100000D01*
X152502317Y-93100000D01*
X152704417Y-93067990D01*
X152899031Y-93004755D01*
X153081349Y-92911859D01*
X153125921Y-92879474D01*
X152446447Y-92200000D01*
X152452661Y-92200000D01*
X152554394Y-92172741D01*
X152645606Y-92120080D01*
X152720080Y-92045606D01*
X152772741Y-91954394D01*
X152800000Y-91852661D01*
X152800000Y-91846447D01*
X153479474Y-92525921D01*
X153511861Y-92481347D01*
X153511861Y-92481346D01*
X153562507Y-92381947D01*
X158700000Y-92381947D01*
X158700000Y-92618052D01*
X158736934Y-92851247D01*
X158809897Y-93075802D01*
X158917087Y-93286174D01*
X158977338Y-93369104D01*
X158977340Y-93369105D01*
X159676212Y-92670233D01*
X159687482Y-92712292D01*
X159759890Y-92837708D01*
X159862292Y-92940110D01*
X159987708Y-93012518D01*
X160029765Y-93023787D01*
X159330893Y-93722658D01*
X159413828Y-93782914D01*
X159624197Y-93890102D01*
X159848752Y-93963065D01*
X159848751Y-93963065D01*
X160081948Y-94000000D01*
X160318052Y-94000000D01*
X160551247Y-93963065D01*
X160775802Y-93890102D01*
X160986163Y-93782918D01*
X160986169Y-93782914D01*
X161069104Y-93722658D01*
X161069105Y-93722658D01*
X160370233Y-93023787D01*
X160412292Y-93012518D01*
X160537708Y-92940110D01*
X160640110Y-92837708D01*
X160712518Y-92712292D01*
X160723787Y-92670234D01*
X161422658Y-93369105D01*
X161422658Y-93369104D01*
X161482914Y-93286169D01*
X161482918Y-93286163D01*
X161590102Y-93075802D01*
X161663065Y-92851247D01*
X161700000Y-92618052D01*
X161700000Y-92381947D01*
X165200000Y-92381947D01*
X165200000Y-92618052D01*
X165236934Y-92851247D01*
X165309897Y-93075802D01*
X165417087Y-93286174D01*
X165477338Y-93369104D01*
X165477340Y-93369105D01*
X166176212Y-92670233D01*
X166187482Y-92712292D01*
X166259890Y-92837708D01*
X166362292Y-92940110D01*
X166487708Y-93012518D01*
X166529765Y-93023787D01*
X165830893Y-93722658D01*
X165913828Y-93782914D01*
X166124197Y-93890102D01*
X166348752Y-93963065D01*
X166348751Y-93963065D01*
X166581948Y-94000000D01*
X166818052Y-94000000D01*
X167051247Y-93963065D01*
X167275802Y-93890102D01*
X167486163Y-93782918D01*
X167486169Y-93782914D01*
X167569104Y-93722658D01*
X167569105Y-93722658D01*
X166870233Y-93023787D01*
X166912292Y-93012518D01*
X167037708Y-92940110D01*
X167140110Y-92837708D01*
X167212518Y-92712292D01*
X167223787Y-92670234D01*
X167922658Y-93369105D01*
X167922658Y-93369104D01*
X167982914Y-93286169D01*
X167982918Y-93286163D01*
X168090102Y-93075802D01*
X168163065Y-92851247D01*
X168200000Y-92618052D01*
X168200000Y-92381947D01*
X168163065Y-92148752D01*
X168090102Y-91924197D01*
X167982914Y-91713828D01*
X167922658Y-91630894D01*
X167922658Y-91630893D01*
X167223787Y-92329765D01*
X167212518Y-92287708D01*
X167140110Y-92162292D01*
X167037708Y-92059890D01*
X166912292Y-91987482D01*
X166870234Y-91976212D01*
X167569105Y-91277340D01*
X167569104Y-91277338D01*
X167486174Y-91217087D01*
X167275802Y-91109897D01*
X167051247Y-91036934D01*
X167051248Y-91036934D01*
X166818052Y-91000000D01*
X166581948Y-91000000D01*
X166348752Y-91036934D01*
X166124197Y-91109897D01*
X165913830Y-91217084D01*
X165830894Y-91277340D01*
X166529766Y-91976212D01*
X166487708Y-91987482D01*
X166362292Y-92059890D01*
X166259890Y-92162292D01*
X166187482Y-92287708D01*
X166176212Y-92329766D01*
X165477340Y-91630894D01*
X165417084Y-91713830D01*
X165309897Y-91924197D01*
X165236934Y-92148752D01*
X165200000Y-92381947D01*
X161700000Y-92381947D01*
X161663065Y-92148752D01*
X161590102Y-91924197D01*
X161482914Y-91713828D01*
X161422658Y-91630894D01*
X161422658Y-91630893D01*
X160723787Y-92329765D01*
X160712518Y-92287708D01*
X160640110Y-92162292D01*
X160537708Y-92059890D01*
X160412292Y-91987482D01*
X160370234Y-91976212D01*
X161069105Y-91277340D01*
X161069104Y-91277339D01*
X160986174Y-91217087D01*
X160775802Y-91109897D01*
X160551247Y-91036934D01*
X160551248Y-91036934D01*
X160318052Y-91000000D01*
X160081948Y-91000000D01*
X159848752Y-91036934D01*
X159624197Y-91109897D01*
X159413830Y-91217084D01*
X159330894Y-91277340D01*
X160029766Y-91976212D01*
X159987708Y-91987482D01*
X159862292Y-92059890D01*
X159759890Y-92162292D01*
X159687482Y-92287708D01*
X159676212Y-92329766D01*
X158977340Y-91630894D01*
X158917084Y-91713830D01*
X158809897Y-91924197D01*
X158736934Y-92148752D01*
X158700000Y-92381947D01*
X153562507Y-92381947D01*
X153593673Y-92320781D01*
X153593673Y-92320780D01*
X153593674Y-92320779D01*
X153604754Y-92299033D01*
X153667990Y-92104417D01*
X153700000Y-91902317D01*
X153700000Y-91697682D01*
X153667990Y-91495582D01*
X153604755Y-91300968D01*
X153511859Y-91118650D01*
X153479474Y-91074077D01*
X153479474Y-91074076D01*
X152800000Y-91753551D01*
X152800000Y-91747339D01*
X152772741Y-91645606D01*
X152720080Y-91554394D01*
X152645606Y-91479920D01*
X152554394Y-91427259D01*
X152452661Y-91400000D01*
X152446446Y-91400000D01*
X153125922Y-90720524D01*
X153125921Y-90720523D01*
X153081359Y-90688147D01*
X153081350Y-90688141D01*
X152914763Y-90603261D01*
X152914761Y-90603259D01*
X152899033Y-90595245D01*
X152704417Y-90532009D01*
X152502317Y-90500000D01*
X152297683Y-90500000D01*
X152095582Y-90532009D01*
X151900968Y-90595244D01*
X151718644Y-90688143D01*
X151674077Y-90720523D01*
X151674077Y-90720524D01*
X152353554Y-91400000D01*
X152347339Y-91400000D01*
X152245606Y-91427259D01*
X152154394Y-91479920D01*
X152079920Y-91554394D01*
X152027259Y-91645606D01*
X152000000Y-91747339D01*
X152000000Y-91753553D01*
X151320524Y-91074077D01*
X151320523Y-91074077D01*
X151288143Y-91118644D01*
X151195244Y-91300968D01*
X151132009Y-91495582D01*
X151100000Y-91697682D01*
X97751552Y-91697682D01*
X97751598Y-90688147D01*
X97751607Y-90497648D01*
X155699500Y-90497648D01*
X155699500Y-90702351D01*
X155731522Y-90904534D01*
X155794781Y-91099223D01*
X155854835Y-91217084D01*
X155885537Y-91277340D01*
X155887715Y-91281613D01*
X156008028Y-91447213D01*
X156152786Y-91591971D01*
X156291582Y-91692810D01*
X156318390Y-91712287D01*
X156434607Y-91771503D01*
X156500776Y-91805218D01*
X156500778Y-91805218D01*
X156500781Y-91805220D01*
X156605137Y-91839127D01*
X156695465Y-91868477D01*
X156796557Y-91884488D01*
X156897648Y-91900500D01*
X156897649Y-91900500D01*
X157102351Y-91900500D01*
X157102352Y-91900500D01*
X157304534Y-91868477D01*
X157499219Y-91805220D01*
X157681610Y-91712287D01*
X157793640Y-91630893D01*
X157847213Y-91591971D01*
X157847215Y-91591968D01*
X157847219Y-91591966D01*
X157991966Y-91447219D01*
X157991968Y-91447215D01*
X157991971Y-91447213D01*
X158112285Y-91281613D01*
X158114463Y-91277340D01*
X158205220Y-91099219D01*
X158268477Y-90904534D01*
X158300500Y-90702352D01*
X158300500Y-90497648D01*
X158268477Y-90295466D01*
X158205220Y-90100781D01*
X158205218Y-90100778D01*
X158205218Y-90100776D01*
X158171503Y-90034607D01*
X158112287Y-89918390D01*
X158104556Y-89907749D01*
X157991971Y-89752786D01*
X157847213Y-89608028D01*
X157681613Y-89487715D01*
X157681612Y-89487714D01*
X157681610Y-89487713D01*
X157624653Y-89458691D01*
X157499223Y-89394781D01*
X157304534Y-89331522D01*
X157129995Y-89303878D01*
X157102352Y-89299500D01*
X156897648Y-89299500D01*
X156873329Y-89303351D01*
X156695465Y-89331522D01*
X156500776Y-89394781D01*
X156318386Y-89487715D01*
X156152786Y-89608028D01*
X156008028Y-89752786D01*
X155887715Y-89918386D01*
X155794781Y-90100776D01*
X155731522Y-90295465D01*
X155699500Y-90497648D01*
X97751607Y-90497648D01*
X97751660Y-89299500D01*
X97751899Y-83997648D01*
X151099500Y-83997648D01*
X151099500Y-84202351D01*
X151131522Y-84404534D01*
X151194781Y-84599223D01*
X151287715Y-84781613D01*
X151408028Y-84947213D01*
X151552786Y-85091971D01*
X151678327Y-85183180D01*
X151718390Y-85212287D01*
X151834607Y-85271503D01*
X151900776Y-85305218D01*
X151900778Y-85305218D01*
X151900781Y-85305220D01*
X152005137Y-85339127D01*
X152095465Y-85368477D01*
X152137641Y-85375157D01*
X152297648Y-85400500D01*
X152297649Y-85400500D01*
X152502351Y-85400500D01*
X152502352Y-85400500D01*
X152704534Y-85368477D01*
X152899219Y-85305220D01*
X153081610Y-85212287D01*
X153208379Y-85120185D01*
X153247213Y-85091971D01*
X153247215Y-85091968D01*
X153247219Y-85091966D01*
X153391966Y-84947219D01*
X153391968Y-84947215D01*
X153391971Y-84947213D01*
X153512284Y-84781614D01*
X153512285Y-84781613D01*
X153512287Y-84781610D01*
X153519117Y-84768204D01*
X153567091Y-84717409D01*
X153629602Y-84700500D01*
X154979903Y-84700500D01*
X155046942Y-84720185D01*
X155067584Y-84736819D01*
X155705922Y-85375157D01*
X155739407Y-85436480D01*
X155736173Y-85501155D01*
X155731522Y-85515468D01*
X155699500Y-85717648D01*
X155699500Y-85922351D01*
X155731522Y-86124534D01*
X155794781Y-86319223D01*
X155887715Y-86501613D01*
X156008028Y-86667213D01*
X156152786Y-86811971D01*
X156307749Y-86924556D01*
X156318390Y-86932287D01*
X156434607Y-86991503D01*
X156500776Y-87025218D01*
X156500778Y-87025218D01*
X156500781Y-87025220D01*
X156605137Y-87059127D01*
X156695465Y-87088477D01*
X156796557Y-87104488D01*
X156897648Y-87120500D01*
X156897649Y-87120500D01*
X157102351Y-87120500D01*
X157102352Y-87120500D01*
X157304534Y-87088477D01*
X157499219Y-87025220D01*
X157681610Y-86932287D01*
X157774590Y-86864732D01*
X157847213Y-86811971D01*
X157847215Y-86811968D01*
X157847219Y-86811966D01*
X157991966Y-86667219D01*
X157991968Y-86667215D01*
X157991971Y-86667213D01*
X158112284Y-86501614D01*
X158112285Y-86501613D01*
X158112287Y-86501610D01*
X158119117Y-86488204D01*
X158167091Y-86437409D01*
X158229602Y-86420500D01*
X158793331Y-86420500D01*
X158793347Y-86420501D01*
X158800943Y-86420501D01*
X158959054Y-86420501D01*
X158959057Y-86420501D01*
X159111785Y-86379577D01*
X159161904Y-86350639D01*
X159248716Y-86300520D01*
X159360520Y-86188716D01*
X159360520Y-86188714D01*
X159370728Y-86178507D01*
X159370730Y-86178504D01*
X159596437Y-85952796D01*
X159657758Y-85919313D01*
X159722433Y-85922547D01*
X159848632Y-85963553D01*
X159936110Y-85977408D01*
X160081903Y-86000500D01*
X160081908Y-86000500D01*
X160318097Y-86000500D01*
X160551368Y-85963553D01*
X160584468Y-85952798D01*
X160775992Y-85890568D01*
X160986433Y-85783343D01*
X161177510Y-85644517D01*
X161344517Y-85477510D01*
X161483343Y-85286433D01*
X161543583Y-85168204D01*
X161591558Y-85117409D01*
X161654068Y-85100500D01*
X165245932Y-85100500D01*
X165312971Y-85120185D01*
X165356416Y-85168203D01*
X165416657Y-85286433D01*
X165555483Y-85477510D01*
X165722490Y-85644517D01*
X165913567Y-85783343D01*
X166012991Y-85834002D01*
X166124003Y-85890566D01*
X166124005Y-85890566D01*
X166124008Y-85890568D01*
X166212476Y-85919313D01*
X166348631Y-85963553D01*
X166581903Y-86000500D01*
X166581908Y-86000500D01*
X166818097Y-86000500D01*
X167051368Y-85963553D01*
X167084468Y-85952798D01*
X167275992Y-85890568D01*
X167486433Y-85783343D01*
X167677510Y-85644517D01*
X167844517Y-85477510D01*
X167983343Y-85286433D01*
X168090568Y-85075992D01*
X168163553Y-84851368D01*
X168174601Y-84781613D01*
X168200500Y-84618097D01*
X168200500Y-84381902D01*
X168163553Y-84148631D01*
X168090566Y-83924003D01*
X167995973Y-83738355D01*
X167983343Y-83713567D01*
X167844517Y-83522490D01*
X167677510Y-83355483D01*
X167486433Y-83216657D01*
X167275996Y-83109433D01*
X167051368Y-83036446D01*
X166818097Y-82999500D01*
X166818092Y-82999500D01*
X166581908Y-82999500D01*
X166581903Y-82999500D01*
X166348631Y-83036446D01*
X166124003Y-83109433D01*
X165913566Y-83216657D01*
X165804550Y-83295862D01*
X165722490Y-83355483D01*
X165722488Y-83355485D01*
X165722487Y-83355485D01*
X165555485Y-83522487D01*
X165555485Y-83522488D01*
X165555483Y-83522490D01*
X165542454Y-83540423D01*
X165416657Y-83713566D01*
X165356417Y-83831795D01*
X165308442Y-83882591D01*
X165245932Y-83899500D01*
X161654068Y-83899500D01*
X161587029Y-83879815D01*
X161543583Y-83831795D01*
X161483343Y-83713567D01*
X161344517Y-83522490D01*
X161177510Y-83355483D01*
X160986433Y-83216657D01*
X160775996Y-83109433D01*
X160551368Y-83036446D01*
X160318097Y-82999500D01*
X160318092Y-82999500D01*
X160081908Y-82999500D01*
X160081903Y-82999500D01*
X159848631Y-83036446D01*
X159624003Y-83109433D01*
X159413566Y-83216657D01*
X159304550Y-83295862D01*
X159222490Y-83355483D01*
X159222488Y-83355485D01*
X159222487Y-83355485D01*
X159055485Y-83522487D01*
X159055485Y-83522488D01*
X159055483Y-83522490D01*
X159042454Y-83540423D01*
X158916657Y-83713566D01*
X158809433Y-83924003D01*
X158736446Y-84148631D01*
X158699500Y-84381902D01*
X158699500Y-84618097D01*
X158736447Y-84851369D01*
X158736447Y-84851372D01*
X158777450Y-84977564D01*
X158779445Y-85047405D01*
X158747201Y-85103562D01*
X158667585Y-85183180D01*
X158606263Y-85216666D01*
X158579903Y-85219500D01*
X158229602Y-85219500D01*
X158162563Y-85199815D01*
X158119117Y-85151795D01*
X158112284Y-85138385D01*
X157991971Y-84972786D01*
X157847213Y-84828028D01*
X157681613Y-84707715D01*
X157681612Y-84707714D01*
X157681610Y-84707713D01*
X157624653Y-84678691D01*
X157499223Y-84614781D01*
X157304534Y-84551522D01*
X157129995Y-84523878D01*
X157102352Y-84519500D01*
X156897648Y-84519500D01*
X156859599Y-84525526D01*
X156695468Y-84551522D01*
X156686717Y-84554365D01*
X156681154Y-84556173D01*
X156611313Y-84558167D01*
X156555157Y-84525922D01*
X155767590Y-83738355D01*
X155767588Y-83738352D01*
X155648717Y-83619481D01*
X155648709Y-83619475D01*
X155561383Y-83569058D01*
X155561382Y-83569058D01*
X155540420Y-83556955D01*
X155511785Y-83540423D01*
X155359057Y-83499499D01*
X155200943Y-83499499D01*
X155193347Y-83499499D01*
X155193331Y-83499500D01*
X153629602Y-83499500D01*
X153562563Y-83479815D01*
X153519117Y-83431795D01*
X153512284Y-83418385D01*
X153391971Y-83252786D01*
X153247213Y-83108028D01*
X153081613Y-82987715D01*
X153081612Y-82987714D01*
X153081610Y-82987713D01*
X153024653Y-82958691D01*
X152899223Y-82894781D01*
X152704534Y-82831522D01*
X152529995Y-82803878D01*
X152502352Y-82799500D01*
X152297648Y-82799500D01*
X152273329Y-82803351D01*
X152095465Y-82831522D01*
X151900776Y-82894781D01*
X151718386Y-82987715D01*
X151552786Y-83108028D01*
X151408028Y-83252786D01*
X151287715Y-83418386D01*
X151194781Y-83600776D01*
X151131522Y-83795465D01*
X151099500Y-83997648D01*
X97751899Y-83997648D01*
X97752125Y-78997682D01*
X151100000Y-78997682D01*
X151100000Y-79202317D01*
X151132009Y-79404417D01*
X151195244Y-79599031D01*
X151288141Y-79781350D01*
X151288147Y-79781359D01*
X151320523Y-79825921D01*
X151320524Y-79825922D01*
X152000000Y-79146446D01*
X152000000Y-79152661D01*
X152027259Y-79254394D01*
X152079920Y-79345606D01*
X152154394Y-79420080D01*
X152245606Y-79472741D01*
X152347339Y-79500000D01*
X152353553Y-79500000D01*
X151674076Y-80179474D01*
X151718650Y-80211859D01*
X151900968Y-80304755D01*
X152095582Y-80367990D01*
X152297683Y-80400000D01*
X152502317Y-80400000D01*
X152704417Y-80367990D01*
X152899031Y-80304755D01*
X153081349Y-80211859D01*
X153125921Y-80179474D01*
X152828394Y-79881947D01*
X158700000Y-79881947D01*
X158700000Y-80118052D01*
X158736934Y-80351247D01*
X158809897Y-80575802D01*
X158917087Y-80786174D01*
X158977338Y-80869104D01*
X158977340Y-80869105D01*
X159676212Y-80170233D01*
X159687482Y-80212292D01*
X159759890Y-80337708D01*
X159862292Y-80440110D01*
X159987708Y-80512518D01*
X160029765Y-80523787D01*
X159330893Y-81222658D01*
X159413828Y-81282914D01*
X159624197Y-81390102D01*
X159848752Y-81463065D01*
X159848751Y-81463065D01*
X160081948Y-81500000D01*
X160318052Y-81500000D01*
X160551247Y-81463065D01*
X160775802Y-81390102D01*
X160986163Y-81282918D01*
X160986169Y-81282914D01*
X161069104Y-81222658D01*
X161069105Y-81222658D01*
X160370233Y-80523787D01*
X160412292Y-80512518D01*
X160537708Y-80440110D01*
X160640110Y-80337708D01*
X160712518Y-80212292D01*
X160723787Y-80170234D01*
X161422658Y-80869105D01*
X161422658Y-80869104D01*
X161482914Y-80786169D01*
X161482918Y-80786163D01*
X161590102Y-80575802D01*
X161663065Y-80351247D01*
X161700000Y-80118052D01*
X161700000Y-79881947D01*
X165200000Y-79881947D01*
X165200000Y-80118052D01*
X165236934Y-80351247D01*
X165309897Y-80575802D01*
X165417087Y-80786174D01*
X165477338Y-80869104D01*
X165477340Y-80869105D01*
X166176212Y-80170233D01*
X166187482Y-80212292D01*
X166259890Y-80337708D01*
X166362292Y-80440110D01*
X166487708Y-80512518D01*
X166529765Y-80523787D01*
X165830893Y-81222658D01*
X165913828Y-81282914D01*
X166124197Y-81390102D01*
X166348752Y-81463065D01*
X166348751Y-81463065D01*
X166581948Y-81500000D01*
X166818052Y-81500000D01*
X167051247Y-81463065D01*
X167275802Y-81390102D01*
X167486163Y-81282918D01*
X167486169Y-81282914D01*
X167569104Y-81222658D01*
X167569105Y-81222658D01*
X166870233Y-80523787D01*
X166912292Y-80512518D01*
X167037708Y-80440110D01*
X167140110Y-80337708D01*
X167212518Y-80212292D01*
X167223787Y-80170234D01*
X167922658Y-80869105D01*
X167922658Y-80869104D01*
X167982914Y-80786169D01*
X167982918Y-80786163D01*
X168090102Y-80575802D01*
X168163065Y-80351247D01*
X168200000Y-80118052D01*
X168200000Y-79881947D01*
X168163065Y-79648752D01*
X168090102Y-79424197D01*
X167982914Y-79213828D01*
X167922658Y-79130894D01*
X167922658Y-79130893D01*
X167223787Y-79829765D01*
X167212518Y-79787708D01*
X167140110Y-79662292D01*
X167037708Y-79559890D01*
X166912292Y-79487482D01*
X166870234Y-79476212D01*
X167569105Y-78777340D01*
X167569104Y-78777338D01*
X167486174Y-78717087D01*
X167275802Y-78609897D01*
X167051247Y-78536934D01*
X167051248Y-78536934D01*
X166818052Y-78500000D01*
X166581948Y-78500000D01*
X166348752Y-78536934D01*
X166124197Y-78609897D01*
X165913830Y-78717084D01*
X165830894Y-78777340D01*
X166529766Y-79476212D01*
X166487708Y-79487482D01*
X166362292Y-79559890D01*
X166259890Y-79662292D01*
X166187482Y-79787708D01*
X166176212Y-79829766D01*
X165477340Y-79130894D01*
X165417084Y-79213830D01*
X165309897Y-79424197D01*
X165236934Y-79648752D01*
X165200000Y-79881947D01*
X161700000Y-79881947D01*
X161663065Y-79648752D01*
X161590102Y-79424197D01*
X161482914Y-79213828D01*
X161422658Y-79130894D01*
X161422658Y-79130893D01*
X160723787Y-79829765D01*
X160712518Y-79787708D01*
X160640110Y-79662292D01*
X160537708Y-79559890D01*
X160412292Y-79487482D01*
X160370234Y-79476212D01*
X161069105Y-78777340D01*
X161069104Y-78777339D01*
X160986174Y-78717087D01*
X160775802Y-78609897D01*
X160551247Y-78536934D01*
X160551248Y-78536934D01*
X160318052Y-78500000D01*
X160081948Y-78500000D01*
X159848752Y-78536934D01*
X159624197Y-78609897D01*
X159413830Y-78717084D01*
X159330894Y-78777340D01*
X160029766Y-79476212D01*
X159987708Y-79487482D01*
X159862292Y-79559890D01*
X159759890Y-79662292D01*
X159687482Y-79787708D01*
X159676212Y-79829766D01*
X158977340Y-79130894D01*
X158917084Y-79213830D01*
X158809897Y-79424197D01*
X158736934Y-79648752D01*
X158700000Y-79881947D01*
X152828394Y-79881947D01*
X152446447Y-79500000D01*
X152452661Y-79500000D01*
X152554394Y-79472741D01*
X152645606Y-79420080D01*
X152720080Y-79345606D01*
X152772741Y-79254394D01*
X152800000Y-79152661D01*
X152800000Y-79146447D01*
X153479474Y-79825921D01*
X153495266Y-79804188D01*
X153511859Y-79781349D01*
X153604755Y-79599031D01*
X153667990Y-79404417D01*
X153700000Y-79202317D01*
X153700000Y-78997682D01*
X153667990Y-78795582D01*
X153604755Y-78600968D01*
X153511859Y-78418650D01*
X153479474Y-78374077D01*
X153479474Y-78374076D01*
X152800000Y-79053551D01*
X152800000Y-79047339D01*
X152772741Y-78945606D01*
X152720080Y-78854394D01*
X152645606Y-78779920D01*
X152554394Y-78727259D01*
X152452661Y-78700000D01*
X152446446Y-78700000D01*
X153048798Y-78097648D01*
X155699500Y-78097648D01*
X155699500Y-78302351D01*
X155731522Y-78504534D01*
X155794781Y-78699223D01*
X155887715Y-78881613D01*
X156008028Y-79047213D01*
X156152786Y-79191971D01*
X156238706Y-79254394D01*
X156318390Y-79312287D01*
X156434607Y-79371503D01*
X156500776Y-79405218D01*
X156500778Y-79405218D01*
X156500781Y-79405220D01*
X156605137Y-79439127D01*
X156695465Y-79468477D01*
X156722387Y-79472741D01*
X156897648Y-79500500D01*
X156897649Y-79500500D01*
X157102351Y-79500500D01*
X157102352Y-79500500D01*
X157304534Y-79468477D01*
X157499219Y-79405220D01*
X157681610Y-79312287D01*
X157817126Y-79213830D01*
X157847213Y-79191971D01*
X157847215Y-79191968D01*
X157847219Y-79191966D01*
X157991966Y-79047219D01*
X157991968Y-79047215D01*
X157991971Y-79047213D01*
X158112284Y-78881614D01*
X158112285Y-78881613D01*
X158112287Y-78881610D01*
X158205220Y-78699219D01*
X158268477Y-78504534D01*
X158300500Y-78302352D01*
X158300500Y-78097648D01*
X158288284Y-78020523D01*
X158268477Y-77895465D01*
X158205218Y-77700776D01*
X158171503Y-77634607D01*
X158112287Y-77518390D01*
X158104556Y-77507749D01*
X157991971Y-77352786D01*
X157847213Y-77208028D01*
X157681613Y-77087715D01*
X157681612Y-77087714D01*
X157681610Y-77087713D01*
X157624653Y-77058691D01*
X157499223Y-76994781D01*
X157304534Y-76931522D01*
X157129995Y-76903878D01*
X157102352Y-76899500D01*
X156897648Y-76899500D01*
X156873329Y-76903351D01*
X156695465Y-76931522D01*
X156500776Y-76994781D01*
X156318386Y-77087715D01*
X156152786Y-77208028D01*
X156008028Y-77352786D01*
X155887715Y-77518386D01*
X155794781Y-77700776D01*
X155731522Y-77895465D01*
X155699500Y-78097648D01*
X153048798Y-78097648D01*
X153125922Y-78020524D01*
X153125921Y-78020523D01*
X153081359Y-77988147D01*
X153081350Y-77988141D01*
X152899031Y-77895244D01*
X152704417Y-77832009D01*
X152502317Y-77800000D01*
X152297683Y-77800000D01*
X152095582Y-77832009D01*
X151900968Y-77895244D01*
X151718644Y-77988143D01*
X151674077Y-78020523D01*
X151674077Y-78020524D01*
X152353554Y-78700000D01*
X152347339Y-78700000D01*
X152245606Y-78727259D01*
X152154394Y-78779920D01*
X152079920Y-78854394D01*
X152027259Y-78945606D01*
X152000000Y-79047339D01*
X152000000Y-79053553D01*
X151320524Y-78374077D01*
X151320523Y-78374077D01*
X151288143Y-78418644D01*
X151195244Y-78600968D01*
X151132009Y-78795582D01*
X151100000Y-78997682D01*
X97752125Y-78997682D01*
X97752459Y-71597648D01*
X151099500Y-71597648D01*
X151099500Y-71802351D01*
X151131522Y-72004534D01*
X151194781Y-72199223D01*
X151237643Y-72283342D01*
X151283320Y-72372989D01*
X151287715Y-72381613D01*
X151408028Y-72547213D01*
X151552786Y-72691971D01*
X151707749Y-72804556D01*
X151718390Y-72812287D01*
X151834607Y-72871503D01*
X151900776Y-72905218D01*
X151900778Y-72905218D01*
X151900781Y-72905220D01*
X152005137Y-72939127D01*
X152095465Y-72968477D01*
X152196557Y-72984488D01*
X152297648Y-73000500D01*
X152297649Y-73000500D01*
X152502351Y-73000500D01*
X152502352Y-73000500D01*
X152704534Y-72968477D01*
X152899219Y-72905220D01*
X153081610Y-72812287D01*
X153174590Y-72744732D01*
X153247213Y-72691971D01*
X153247215Y-72691968D01*
X153247219Y-72691966D01*
X153391966Y-72547219D01*
X153391968Y-72547215D01*
X153391971Y-72547213D01*
X153512284Y-72381614D01*
X153512285Y-72381613D01*
X153512287Y-72381610D01*
X153519117Y-72368204D01*
X153567091Y-72317409D01*
X153629602Y-72300500D01*
X155604547Y-72300500D01*
X155671586Y-72320185D01*
X155717341Y-72372989D01*
X155727285Y-72442147D01*
X155727020Y-72443898D01*
X155699500Y-72617649D01*
X155699500Y-72822351D01*
X155731522Y-73024534D01*
X155794781Y-73219223D01*
X155887715Y-73401613D01*
X156008028Y-73567213D01*
X156152786Y-73711971D01*
X156307749Y-73824556D01*
X156318390Y-73832287D01*
X156434607Y-73891503D01*
X156500776Y-73925218D01*
X156500778Y-73925218D01*
X156500781Y-73925220D01*
X156605137Y-73959127D01*
X156695465Y-73988477D01*
X156796557Y-74004488D01*
X156897648Y-74020500D01*
X156897649Y-74020500D01*
X157102351Y-74020500D01*
X157102352Y-74020500D01*
X157304534Y-73988477D01*
X157499219Y-73925220D01*
X157681610Y-73832287D01*
X157774590Y-73764732D01*
X157847213Y-73711971D01*
X157847215Y-73711968D01*
X157847219Y-73711966D01*
X157991966Y-73567219D01*
X157991968Y-73567215D01*
X157991971Y-73567213D01*
X158112284Y-73401614D01*
X158112285Y-73401613D01*
X158112287Y-73401610D01*
X158119117Y-73388204D01*
X158167091Y-73337409D01*
X158229602Y-73320500D01*
X158393331Y-73320500D01*
X158393347Y-73320501D01*
X158400943Y-73320501D01*
X158559054Y-73320501D01*
X158559057Y-73320501D01*
X158711785Y-73279577D01*
X158761904Y-73250639D01*
X158848716Y-73200520D01*
X158960520Y-73088716D01*
X158960520Y-73088714D01*
X158970728Y-73078507D01*
X158970730Y-73078504D01*
X159596437Y-72452796D01*
X159657758Y-72419313D01*
X159722433Y-72422547D01*
X159848632Y-72463553D01*
X159936110Y-72477408D01*
X160081903Y-72500500D01*
X160081908Y-72500500D01*
X160318097Y-72500500D01*
X160551368Y-72463553D01*
X160584468Y-72452798D01*
X160775992Y-72390568D01*
X160986433Y-72283343D01*
X161177510Y-72144517D01*
X161344517Y-71977510D01*
X161483343Y-71786433D01*
X161543583Y-71668204D01*
X161591558Y-71617409D01*
X161654068Y-71600500D01*
X165245932Y-71600500D01*
X165312971Y-71620185D01*
X165356416Y-71668203D01*
X165416657Y-71786433D01*
X165555483Y-71977510D01*
X165722490Y-72144517D01*
X165913567Y-72283343D01*
X165985874Y-72320185D01*
X166124003Y-72390566D01*
X166124005Y-72390566D01*
X166124008Y-72390568D01*
X166200636Y-72415466D01*
X166348631Y-72463553D01*
X166581903Y-72500500D01*
X166581908Y-72500500D01*
X166818097Y-72500500D01*
X167051368Y-72463553D01*
X167084468Y-72452798D01*
X167275992Y-72390568D01*
X167486433Y-72283343D01*
X167677510Y-72144517D01*
X167844517Y-71977510D01*
X167983343Y-71786433D01*
X168090568Y-71575992D01*
X168163553Y-71351368D01*
X168184442Y-71219479D01*
X168200500Y-71118097D01*
X168200500Y-70881902D01*
X168163553Y-70648631D01*
X168129689Y-70544412D01*
X168090568Y-70424008D01*
X168090566Y-70424005D01*
X168090566Y-70424003D01*
X167983342Y-70213566D01*
X167844517Y-70022490D01*
X167677510Y-69855483D01*
X167486433Y-69716657D01*
X167275996Y-69609433D01*
X167051368Y-69536446D01*
X166818097Y-69499500D01*
X166818092Y-69499500D01*
X166581908Y-69499500D01*
X166581903Y-69499500D01*
X166348631Y-69536446D01*
X166124003Y-69609433D01*
X165913566Y-69716657D01*
X165804550Y-69795862D01*
X165722490Y-69855483D01*
X165722488Y-69855485D01*
X165722487Y-69855485D01*
X165555485Y-70022487D01*
X165555485Y-70022488D01*
X165555483Y-70022490D01*
X165495862Y-70104550D01*
X165416657Y-70213566D01*
X165356417Y-70331795D01*
X165308442Y-70382591D01*
X165245932Y-70399500D01*
X161654068Y-70399500D01*
X161587029Y-70379815D01*
X161543583Y-70331795D01*
X161483342Y-70213566D01*
X161344517Y-70022490D01*
X161177510Y-69855483D01*
X160986433Y-69716657D01*
X160775996Y-69609433D01*
X160551368Y-69536446D01*
X160318097Y-69499500D01*
X160318092Y-69499500D01*
X160081908Y-69499500D01*
X160081903Y-69499500D01*
X159848631Y-69536446D01*
X159624003Y-69609433D01*
X159413566Y-69716657D01*
X159304550Y-69795862D01*
X159222490Y-69855483D01*
X159222488Y-69855485D01*
X159222487Y-69855485D01*
X159055485Y-70022487D01*
X159055485Y-70022488D01*
X159055483Y-70022490D01*
X158995862Y-70104550D01*
X158916657Y-70213566D01*
X158809433Y-70424003D01*
X158736446Y-70648631D01*
X158699500Y-70881902D01*
X158699500Y-71118097D01*
X158736447Y-71351369D01*
X158736447Y-71351372D01*
X158777450Y-71477564D01*
X158779445Y-71547405D01*
X158747200Y-71603563D01*
X158299147Y-72051617D01*
X158237824Y-72085102D01*
X158168133Y-72080118D01*
X158112199Y-72038247D01*
X158111148Y-72036821D01*
X157991971Y-71872787D01*
X157991967Y-71872782D01*
X157847213Y-71728028D01*
X157681613Y-71607715D01*
X157681612Y-71607714D01*
X157681610Y-71607713D01*
X157619354Y-71575992D01*
X157499223Y-71514781D01*
X157304534Y-71451522D01*
X157129995Y-71423878D01*
X157102352Y-71419500D01*
X156897648Y-71419500D01*
X156859599Y-71425526D01*
X156695468Y-71451522D01*
X156686717Y-71454365D01*
X156681154Y-71456173D01*
X156611313Y-71458167D01*
X156555157Y-71425922D01*
X156467590Y-71338355D01*
X156467588Y-71338352D01*
X156348717Y-71219481D01*
X156348716Y-71219480D01*
X156261904Y-71169360D01*
X156261904Y-71169359D01*
X156261900Y-71169358D01*
X156211785Y-71140423D01*
X156059057Y-71099499D01*
X155900943Y-71099499D01*
X155893347Y-71099499D01*
X155893331Y-71099500D01*
X153629602Y-71099500D01*
X153562563Y-71079815D01*
X153519117Y-71031795D01*
X153512284Y-71018385D01*
X153391971Y-70852786D01*
X153247213Y-70708028D01*
X153081613Y-70587715D01*
X153081612Y-70587714D01*
X153081610Y-70587713D01*
X153024653Y-70558691D01*
X152899223Y-70494781D01*
X152704534Y-70431522D01*
X152529995Y-70403878D01*
X152502352Y-70399500D01*
X152297648Y-70399500D01*
X152273329Y-70403351D01*
X152095465Y-70431522D01*
X151900776Y-70494781D01*
X151718386Y-70587715D01*
X151552786Y-70708028D01*
X151408028Y-70852786D01*
X151287715Y-71018386D01*
X151194781Y-71200776D01*
X151131522Y-71395465D01*
X151099500Y-71597648D01*
X97752459Y-71597648D01*
X97752673Y-66850155D01*
X129928000Y-66850155D01*
X129928000Y-67410000D01*
X130901184Y-67410000D01*
X130885124Y-67426060D01*
X130834964Y-67512939D01*
X130809000Y-67609840D01*
X130809000Y-67710160D01*
X130834964Y-67807061D01*
X130885124Y-67893940D01*
X130901184Y-67910000D01*
X129928000Y-67910000D01*
X129928000Y-68469844D01*
X129934401Y-68529372D01*
X129934403Y-68529379D01*
X129984645Y-68664086D01*
X129984649Y-68664093D01*
X130070809Y-68779187D01*
X130070812Y-68779190D01*
X130185906Y-68865350D01*
X130185913Y-68865354D01*
X130320620Y-68915596D01*
X130320627Y-68915598D01*
X130380155Y-68921999D01*
X130380172Y-68922000D01*
X130940000Y-68922000D01*
X130940000Y-67948816D01*
X130956060Y-67964876D01*
X131042939Y-68015036D01*
X131139840Y-68041000D01*
X131240160Y-68041000D01*
X131337061Y-68015036D01*
X131423940Y-67964876D01*
X131440000Y-67948816D01*
X131440000Y-68922000D01*
X131999828Y-68922000D01*
X131999844Y-68921999D01*
X132059372Y-68915598D01*
X132059379Y-68915596D01*
X132194086Y-68865354D01*
X132194093Y-68865350D01*
X132309187Y-68779190D01*
X132309190Y-68779187D01*
X132395350Y-68664093D01*
X132395354Y-68664086D01*
X132445596Y-68529379D01*
X132445598Y-68529372D01*
X132451999Y-68469844D01*
X132452000Y-68469827D01*
X132452000Y-68430510D01*
X132471685Y-68363471D01*
X132524489Y-68317716D01*
X132593647Y-68307772D01*
X132657203Y-68336797D01*
X132676318Y-68357625D01*
X132729272Y-68430510D01*
X132767019Y-68482464D01*
X132907536Y-68622981D01*
X133068306Y-68739787D01*
X133155149Y-68784035D01*
X133245367Y-68830005D01*
X133245370Y-68830006D01*
X133339866Y-68860709D01*
X133434364Y-68891413D01*
X133630639Y-68922500D01*
X133630640Y-68922500D01*
X133829360Y-68922500D01*
X133829361Y-68922500D01*
X134025636Y-68891413D01*
X134214632Y-68830005D01*
X134391694Y-68739787D01*
X134552464Y-68622981D01*
X134692981Y-68482464D01*
X134809787Y-68321694D01*
X134889515Y-68165218D01*
X134937490Y-68114423D01*
X135005311Y-68097628D01*
X135071446Y-68120165D01*
X135110484Y-68165218D01*
X135190213Y-68321694D01*
X135307019Y-68482464D01*
X135447536Y-68622981D01*
X135608306Y-68739787D01*
X135695149Y-68784035D01*
X135785367Y-68830005D01*
X135785370Y-68830006D01*
X135879866Y-68860709D01*
X135974364Y-68891413D01*
X136170639Y-68922500D01*
X136170640Y-68922500D01*
X136369360Y-68922500D01*
X136369361Y-68922500D01*
X136565636Y-68891413D01*
X136754632Y-68830005D01*
X136931694Y-68739787D01*
X137092464Y-68622981D01*
X137232981Y-68482464D01*
X137349787Y-68321694D01*
X137429515Y-68165218D01*
X137477490Y-68114423D01*
X137545311Y-68097628D01*
X137611446Y-68120165D01*
X137650484Y-68165218D01*
X137730213Y-68321694D01*
X137847019Y-68482464D01*
X137987536Y-68622981D01*
X138148306Y-68739787D01*
X138235149Y-68784035D01*
X138325367Y-68830005D01*
X138325370Y-68830006D01*
X138419866Y-68860709D01*
X138514364Y-68891413D01*
X138710639Y-68922500D01*
X138710640Y-68922500D01*
X138909360Y-68922500D01*
X138909361Y-68922500D01*
X139105636Y-68891413D01*
X139294632Y-68830005D01*
X139471694Y-68739787D01*
X139632464Y-68622981D01*
X139772981Y-68482464D01*
X139889787Y-68321694D01*
X139980005Y-68144632D01*
X140041413Y-67955636D01*
X140072500Y-67759361D01*
X140072500Y-67560639D01*
X140041413Y-67364364D01*
X139980005Y-67175368D01*
X139980005Y-67175367D01*
X139917937Y-67053553D01*
X139889787Y-66998306D01*
X139772981Y-66837536D01*
X139632464Y-66697019D01*
X139631615Y-66696402D01*
X139627116Y-66693133D01*
X139495738Y-66597682D01*
X151100000Y-66597682D01*
X151100000Y-66802317D01*
X151132009Y-67004417D01*
X151195244Y-67199031D01*
X151288141Y-67381350D01*
X151288147Y-67381359D01*
X151320523Y-67425921D01*
X151320524Y-67425922D01*
X152000000Y-66746446D01*
X152000000Y-66752661D01*
X152027259Y-66854394D01*
X152079920Y-66945606D01*
X152154394Y-67020080D01*
X152245606Y-67072741D01*
X152347339Y-67100000D01*
X152353553Y-67100000D01*
X151674076Y-67779474D01*
X151718650Y-67811859D01*
X151900968Y-67904755D01*
X152095582Y-67967990D01*
X152297683Y-68000000D01*
X152502317Y-68000000D01*
X152704417Y-67967990D01*
X152899031Y-67904755D01*
X153081349Y-67811859D01*
X153125921Y-67779474D01*
X153125922Y-67779474D01*
X153109528Y-67763080D01*
X152446447Y-67100000D01*
X152452661Y-67100000D01*
X152554394Y-67072741D01*
X152645606Y-67020080D01*
X152720080Y-66945606D01*
X152772741Y-66854394D01*
X152800000Y-66752661D01*
X152800000Y-66746448D01*
X153479474Y-67425922D01*
X153479474Y-67425921D01*
X153511859Y-67381349D01*
X153604755Y-67199031D01*
X153667990Y-67004417D01*
X153700000Y-66802317D01*
X153700000Y-66597682D01*
X153667990Y-66395582D01*
X153604755Y-66200968D01*
X153511859Y-66018650D01*
X153479474Y-65974077D01*
X153479474Y-65974076D01*
X152800000Y-66653551D01*
X152800000Y-66647339D01*
X152772741Y-66545606D01*
X152720080Y-66454394D01*
X152645606Y-66379920D01*
X152554394Y-66327259D01*
X152452661Y-66300000D01*
X152446446Y-66300000D01*
X153125922Y-65620524D01*
X153125921Y-65620523D01*
X153081359Y-65588147D01*
X153081350Y-65588141D01*
X152899031Y-65495244D01*
X152704417Y-65432009D01*
X152502317Y-65400000D01*
X152297683Y-65400000D01*
X152095582Y-65432009D01*
X151900968Y-65495244D01*
X151718644Y-65588143D01*
X151674077Y-65620523D01*
X151674077Y-65620524D01*
X152353554Y-66300000D01*
X152347339Y-66300000D01*
X152245606Y-66327259D01*
X152154394Y-66379920D01*
X152079920Y-66454394D01*
X152027259Y-66545606D01*
X152000000Y-66647339D01*
X152000000Y-66653553D01*
X151320524Y-65974077D01*
X151320523Y-65974077D01*
X151288143Y-66018644D01*
X151195244Y-66200968D01*
X151132009Y-66395582D01*
X151100000Y-66597682D01*
X139495738Y-66597682D01*
X139471697Y-66580215D01*
X139471696Y-66580214D01*
X139471694Y-66580213D01*
X139394360Y-66540809D01*
X139294632Y-66489994D01*
X139294629Y-66489993D01*
X139105637Y-66428587D01*
X139007498Y-66413043D01*
X138909361Y-66397500D01*
X138710639Y-66397500D01*
X138645214Y-66407862D01*
X138514362Y-66428587D01*
X138325370Y-66489993D01*
X138325367Y-66489994D01*
X138148305Y-66580213D01*
X137987533Y-66697021D01*
X137847021Y-66837533D01*
X137730213Y-66998305D01*
X137650485Y-67154780D01*
X137602510Y-67205576D01*
X137534689Y-67222371D01*
X137468554Y-67199833D01*
X137429515Y-67154780D01*
X137377937Y-67053553D01*
X137349787Y-66998306D01*
X137232981Y-66837536D01*
X137092464Y-66697019D01*
X136931694Y-66580213D01*
X136916378Y-66572409D01*
X136754632Y-66489994D01*
X136754629Y-66489993D01*
X136565637Y-66428587D01*
X136467498Y-66413043D01*
X136369361Y-66397500D01*
X136170639Y-66397500D01*
X136105214Y-66407862D01*
X135974362Y-66428587D01*
X135785370Y-66489993D01*
X135785367Y-66489994D01*
X135608305Y-66580213D01*
X135447533Y-66697021D01*
X135307021Y-66837533D01*
X135190213Y-66998305D01*
X135110485Y-67154780D01*
X135062510Y-67205576D01*
X134994689Y-67222371D01*
X134928554Y-67199833D01*
X134889515Y-67154780D01*
X134837937Y-67053553D01*
X134809787Y-66998306D01*
X134692981Y-66837536D01*
X134552464Y-66697019D01*
X134391694Y-66580213D01*
X134376378Y-66572409D01*
X134214632Y-66489994D01*
X134214629Y-66489993D01*
X134025637Y-66428587D01*
X133927498Y-66413043D01*
X133829361Y-66397500D01*
X133630639Y-66397500D01*
X133565214Y-66407862D01*
X133434362Y-66428587D01*
X133245370Y-66489993D01*
X133245367Y-66489994D01*
X133068305Y-66580213D01*
X132907533Y-66697021D01*
X132767021Y-66837533D01*
X132767021Y-66837534D01*
X132767019Y-66837536D01*
X132754771Y-66854394D01*
X132676318Y-66962375D01*
X132620988Y-67005040D01*
X132551374Y-67011019D01*
X132489579Y-66978413D01*
X132455222Y-66917574D01*
X132452000Y-66889489D01*
X132452000Y-66850172D01*
X132451999Y-66850155D01*
X132445598Y-66790627D01*
X132445596Y-66790620D01*
X132395354Y-66655913D01*
X132395350Y-66655906D01*
X132309190Y-66540812D01*
X132309187Y-66540809D01*
X132194093Y-66454649D01*
X132194086Y-66454645D01*
X132059379Y-66404403D01*
X132059372Y-66404401D01*
X131999844Y-66398000D01*
X131440000Y-66398000D01*
X131440000Y-67371184D01*
X131423940Y-67355124D01*
X131337061Y-67304964D01*
X131240160Y-67279000D01*
X131139840Y-67279000D01*
X131042939Y-67304964D01*
X130956060Y-67355124D01*
X130940000Y-67371184D01*
X130940000Y-66398000D01*
X130380155Y-66398000D01*
X130320627Y-66404401D01*
X130320620Y-66404403D01*
X130185913Y-66454645D01*
X130185906Y-66454649D01*
X130070812Y-66540809D01*
X130070809Y-66540812D01*
X129984649Y-66655906D01*
X129984645Y-66655913D01*
X129934403Y-66790620D01*
X129934401Y-66790627D01*
X129928000Y-66850155D01*
X97752673Y-66850155D01*
X97752842Y-63112135D01*
X100699500Y-63112135D01*
X100699500Y-64907870D01*
X100699501Y-64907876D01*
X100705908Y-64967483D01*
X100756202Y-65102328D01*
X100756206Y-65102335D01*
X100842452Y-65217544D01*
X100842455Y-65217547D01*
X100957664Y-65303793D01*
X100957671Y-65303797D01*
X101092517Y-65354091D01*
X101092516Y-65354091D01*
X101099444Y-65354835D01*
X101152127Y-65360500D01*
X102947872Y-65360499D01*
X103007483Y-65354091D01*
X103142331Y-65303796D01*
X103257546Y-65217546D01*
X103343796Y-65102331D01*
X103394091Y-64967483D01*
X103400500Y-64907873D01*
X103400499Y-64883979D01*
X103403330Y-64870963D01*
X103413940Y-64851525D01*
X103420179Y-64830275D01*
X103436803Y-64809643D01*
X103436808Y-64809636D01*
X103436811Y-64809634D01*
X103436818Y-64809626D01*
X104107037Y-64139408D01*
X104124075Y-64202993D01*
X104189901Y-64317007D01*
X104282993Y-64410099D01*
X104397007Y-64475925D01*
X104460590Y-64492962D01*
X103828282Y-65125269D01*
X103828282Y-65125270D01*
X103882449Y-65164624D01*
X104071782Y-65261095D01*
X104273870Y-65326757D01*
X104483754Y-65360000D01*
X104696246Y-65360000D01*
X104906127Y-65326757D01*
X104906130Y-65326757D01*
X105108217Y-65261095D01*
X105239047Y-65194434D01*
X105297554Y-65164622D01*
X105351716Y-65125270D01*
X105351717Y-65125270D01*
X104719408Y-64492962D01*
X104782993Y-64475925D01*
X104897007Y-64410099D01*
X104990099Y-64317007D01*
X105055925Y-64202993D01*
X105072962Y-64139408D01*
X105742356Y-64808803D01*
X105775841Y-64870126D01*
X105774926Y-64884831D01*
X105777497Y-64884555D01*
X105786401Y-64967374D01*
X105795276Y-64991169D01*
X105795276Y-64991170D01*
X106647037Y-64139409D01*
X106664075Y-64202993D01*
X106729901Y-64317007D01*
X106822993Y-64410099D01*
X106937007Y-64475925D01*
X107000590Y-64492962D01*
X106148829Y-65344722D01*
X106172623Y-65353597D01*
X106172627Y-65353598D01*
X106232155Y-65359999D01*
X106232172Y-65360000D01*
X108027828Y-65360000D01*
X108027844Y-65359999D01*
X108087375Y-65353598D01*
X108111170Y-65344723D01*
X108111170Y-65344722D01*
X107259409Y-64492962D01*
X107322993Y-64475925D01*
X107437007Y-64410099D01*
X107530099Y-64317007D01*
X107595925Y-64202993D01*
X107612962Y-64139409D01*
X108464722Y-64991169D01*
X108472421Y-64970528D01*
X108514292Y-64914594D01*
X108579757Y-64890177D01*
X108648029Y-64905029D01*
X108676284Y-64926180D01*
X108790213Y-65040109D01*
X108962179Y-65165048D01*
X108962181Y-65165049D01*
X108962184Y-65165051D01*
X109151588Y-65261557D01*
X109353757Y-65327246D01*
X109563713Y-65360500D01*
X109563714Y-65360500D01*
X109776286Y-65360500D01*
X109776287Y-65360500D01*
X109986243Y-65327246D01*
X110188412Y-65261557D01*
X110377816Y-65165051D01*
X110464138Y-65102335D01*
X110549786Y-65040109D01*
X110549788Y-65040106D01*
X110549792Y-65040104D01*
X110700104Y-64889792D01*
X110700106Y-64889788D01*
X110700109Y-64889786D01*
X110768636Y-64795465D01*
X110825051Y-64717816D01*
X110829793Y-64708508D01*
X110877763Y-64657711D01*
X110945583Y-64640911D01*
X111011719Y-64663445D01*
X111050763Y-64708500D01*
X111055373Y-64717547D01*
X111094728Y-64771716D01*
X111727036Y-64139407D01*
X111744075Y-64202993D01*
X111809901Y-64317007D01*
X111902993Y-64410099D01*
X112017007Y-64475925D01*
X112080590Y-64492962D01*
X111448282Y-65125269D01*
X111448282Y-65125270D01*
X111502449Y-65164624D01*
X111691782Y-65261095D01*
X111893870Y-65326757D01*
X112103754Y-65360000D01*
X112316246Y-65360000D01*
X112526127Y-65326757D01*
X112526130Y-65326757D01*
X112728217Y-65261095D01*
X112917554Y-65164622D01*
X112971716Y-65125270D01*
X112971717Y-65125270D01*
X112339408Y-64492962D01*
X112402993Y-64475925D01*
X112517007Y-64410099D01*
X112610099Y-64317007D01*
X112675925Y-64202993D01*
X112692962Y-64139408D01*
X113363181Y-64809628D01*
X113396666Y-64870951D01*
X113399500Y-64897300D01*
X113399500Y-64907865D01*
X113399501Y-64907876D01*
X113405908Y-64967483D01*
X113456202Y-65102328D01*
X113456206Y-65102335D01*
X113542452Y-65217544D01*
X113542455Y-65217547D01*
X113657664Y-65303793D01*
X113657671Y-65303797D01*
X113792517Y-65354091D01*
X113792516Y-65354091D01*
X113799444Y-65354835D01*
X113852127Y-65360500D01*
X115647872Y-65360499D01*
X115707483Y-65354091D01*
X115842331Y-65303796D01*
X115957546Y-65217546D01*
X116043796Y-65102331D01*
X116082840Y-64997648D01*
X155699500Y-64997648D01*
X155699500Y-65202351D01*
X155731522Y-65404534D01*
X155794781Y-65599223D01*
X155887715Y-65781613D01*
X156008028Y-65947213D01*
X156152786Y-66091971D01*
X156249577Y-66162292D01*
X156318390Y-66212287D01*
X156434607Y-66271503D01*
X156500776Y-66305218D01*
X156500778Y-66305218D01*
X156500781Y-66305220D01*
X156568610Y-66327259D01*
X156695465Y-66368477D01*
X156767713Y-66379920D01*
X156897648Y-66400500D01*
X156897649Y-66400500D01*
X157102351Y-66400500D01*
X157102352Y-66400500D01*
X157219489Y-66381947D01*
X158700000Y-66381947D01*
X158700000Y-66618052D01*
X158736934Y-66851247D01*
X158809897Y-67075802D01*
X158917087Y-67286174D01*
X158977338Y-67369104D01*
X158977340Y-67369105D01*
X159676212Y-66670233D01*
X159687482Y-66712292D01*
X159759890Y-66837708D01*
X159862292Y-66940110D01*
X159987708Y-67012518D01*
X160029765Y-67023787D01*
X159330893Y-67722658D01*
X159413828Y-67782914D01*
X159624197Y-67890102D01*
X159848752Y-67963065D01*
X159848751Y-67963065D01*
X160081948Y-68000000D01*
X160318052Y-68000000D01*
X160551247Y-67963065D01*
X160775802Y-67890102D01*
X160986163Y-67782918D01*
X160986169Y-67782914D01*
X161069104Y-67722658D01*
X161069105Y-67722658D01*
X160370233Y-67023787D01*
X160412292Y-67012518D01*
X160537708Y-66940110D01*
X160640110Y-66837708D01*
X160712518Y-66712292D01*
X160723787Y-66670234D01*
X161422658Y-67369105D01*
X161422658Y-67369104D01*
X161482914Y-67286169D01*
X161482918Y-67286163D01*
X161590102Y-67075802D01*
X161663065Y-66851247D01*
X161700000Y-66618052D01*
X161700000Y-66381947D01*
X165200000Y-66381947D01*
X165200000Y-66618052D01*
X165236934Y-66851247D01*
X165309897Y-67075802D01*
X165417087Y-67286174D01*
X165477338Y-67369104D01*
X165477340Y-67369105D01*
X166176212Y-66670233D01*
X166187482Y-66712292D01*
X166259890Y-66837708D01*
X166362292Y-66940110D01*
X166487708Y-67012518D01*
X166529765Y-67023787D01*
X165830893Y-67722658D01*
X165913828Y-67782914D01*
X166124197Y-67890102D01*
X166348752Y-67963065D01*
X166348751Y-67963065D01*
X166581948Y-68000000D01*
X166818052Y-68000000D01*
X167051247Y-67963065D01*
X167275802Y-67890102D01*
X167486163Y-67782918D01*
X167486169Y-67782914D01*
X167569104Y-67722658D01*
X167569105Y-67722658D01*
X166870233Y-67023787D01*
X166912292Y-67012518D01*
X167037708Y-66940110D01*
X167140110Y-66837708D01*
X167212518Y-66712292D01*
X167223787Y-66670233D01*
X167922658Y-67369105D01*
X167922658Y-67369104D01*
X167982914Y-67286169D01*
X167982918Y-67286163D01*
X168090102Y-67075802D01*
X168163065Y-66851247D01*
X168200000Y-66618052D01*
X168200000Y-66381947D01*
X168163065Y-66148752D01*
X168090102Y-65924197D01*
X167982914Y-65713828D01*
X167922658Y-65630894D01*
X167922658Y-65630893D01*
X167223787Y-66329765D01*
X167212518Y-66287708D01*
X167140110Y-66162292D01*
X167037708Y-66059890D01*
X166912292Y-65987482D01*
X166870234Y-65976212D01*
X167569105Y-65277340D01*
X167569104Y-65277338D01*
X167486174Y-65217087D01*
X167275802Y-65109897D01*
X167051247Y-65036934D01*
X167051248Y-65036934D01*
X166818052Y-65000000D01*
X166581948Y-65000000D01*
X166348752Y-65036934D01*
X166124197Y-65109897D01*
X165913830Y-65217084D01*
X165830894Y-65277340D01*
X166529766Y-65976212D01*
X166487708Y-65987482D01*
X166362292Y-66059890D01*
X166259890Y-66162292D01*
X166187482Y-66287708D01*
X166176212Y-66329765D01*
X165477340Y-65630894D01*
X165417084Y-65713830D01*
X165309897Y-65924197D01*
X165236934Y-66148752D01*
X165200000Y-66381947D01*
X161700000Y-66381947D01*
X161663065Y-66148752D01*
X161590102Y-65924197D01*
X161482914Y-65713828D01*
X161422658Y-65630894D01*
X161422658Y-65630893D01*
X160723787Y-66329765D01*
X160712518Y-66287708D01*
X160640110Y-66162292D01*
X160537708Y-66059890D01*
X160412292Y-65987482D01*
X160370234Y-65976212D01*
X161069105Y-65277340D01*
X161069104Y-65277339D01*
X160986174Y-65217087D01*
X160775802Y-65109897D01*
X160551247Y-65036934D01*
X160551248Y-65036934D01*
X160318052Y-65000000D01*
X160081948Y-65000000D01*
X159848752Y-65036934D01*
X159624197Y-65109897D01*
X159413830Y-65217084D01*
X159330894Y-65277340D01*
X160029766Y-65976212D01*
X159987708Y-65987482D01*
X159862292Y-66059890D01*
X159759890Y-66162292D01*
X159687482Y-66287708D01*
X159676212Y-66329766D01*
X158977340Y-65630894D01*
X158917084Y-65713830D01*
X158809897Y-65924197D01*
X158736934Y-66148752D01*
X158700000Y-66381947D01*
X157219489Y-66381947D01*
X157304534Y-66368477D01*
X157499219Y-66305220D01*
X157681610Y-66212287D01*
X157774590Y-66144732D01*
X157847213Y-66091971D01*
X157847215Y-66091968D01*
X157847219Y-66091966D01*
X157991966Y-65947219D01*
X157991968Y-65947215D01*
X157991971Y-65947213D01*
X158044732Y-65874590D01*
X158112287Y-65781610D01*
X158205220Y-65599219D01*
X158268477Y-65404534D01*
X158300500Y-65202352D01*
X158300500Y-64997648D01*
X158273990Y-64830275D01*
X158268477Y-64795465D01*
X158205218Y-64600776D01*
X158168346Y-64528412D01*
X158112287Y-64418390D01*
X158072446Y-64363553D01*
X157991971Y-64252786D01*
X157847213Y-64108028D01*
X157681613Y-63987715D01*
X157681612Y-63987714D01*
X157681610Y-63987713D01*
X157596160Y-63944174D01*
X157499223Y-63894781D01*
X157304534Y-63831522D01*
X157129995Y-63803878D01*
X157102352Y-63799500D01*
X156897648Y-63799500D01*
X156873329Y-63803351D01*
X156695465Y-63831522D01*
X156500776Y-63894781D01*
X156318386Y-63987715D01*
X156152786Y-64108028D01*
X156008028Y-64252786D01*
X155887715Y-64418386D01*
X155794781Y-64600776D01*
X155731522Y-64795465D01*
X155699500Y-64997648D01*
X116082840Y-64997648D01*
X116094091Y-64967483D01*
X116100500Y-64907873D01*
X116100499Y-63112128D01*
X116094091Y-63052517D01*
X116043797Y-62917673D01*
X116043797Y-62917671D01*
X116043793Y-62917664D01*
X115957547Y-62802455D01*
X115957544Y-62802452D01*
X115842335Y-62716206D01*
X115842328Y-62716202D01*
X115707482Y-62665908D01*
X115707483Y-62665908D01*
X115647883Y-62659501D01*
X115647881Y-62659500D01*
X115647873Y-62659500D01*
X115647864Y-62659500D01*
X113852129Y-62659500D01*
X113852123Y-62659501D01*
X113792516Y-62665908D01*
X113657671Y-62716202D01*
X113657664Y-62716206D01*
X113542455Y-62802452D01*
X113542452Y-62802455D01*
X113456206Y-62917664D01*
X113456202Y-62917671D01*
X113405908Y-63052517D01*
X113399501Y-63112116D01*
X113399501Y-63112123D01*
X113399500Y-63112135D01*
X113399500Y-63122690D01*
X113379815Y-63189729D01*
X113363181Y-63210371D01*
X112692962Y-63880590D01*
X112675925Y-63817007D01*
X112610099Y-63702993D01*
X112517007Y-63609901D01*
X112402993Y-63544075D01*
X112339409Y-63527037D01*
X112971716Y-62894728D01*
X112917550Y-62855375D01*
X112728217Y-62758904D01*
X112526129Y-62693242D01*
X112316246Y-62660000D01*
X112103754Y-62660000D01*
X111893872Y-62693242D01*
X111893869Y-62693242D01*
X111691782Y-62758904D01*
X111502439Y-62855380D01*
X111448282Y-62894727D01*
X111448282Y-62894728D01*
X112080591Y-63527037D01*
X112017007Y-63544075D01*
X111902993Y-63609901D01*
X111809901Y-63702993D01*
X111744075Y-63817007D01*
X111727037Y-63880591D01*
X111094728Y-63248282D01*
X111094727Y-63248282D01*
X111055380Y-63302440D01*
X111055376Y-63302446D01*
X111050760Y-63311505D01*
X111002781Y-63362297D01*
X110934959Y-63379087D01*
X110868826Y-63356543D01*
X110829794Y-63311493D01*
X110825051Y-63302184D01*
X110825049Y-63302181D01*
X110825048Y-63302179D01*
X110700109Y-63130213D01*
X110549786Y-62979890D01*
X110377820Y-62854951D01*
X110188414Y-62758444D01*
X110188413Y-62758443D01*
X110188412Y-62758443D01*
X109986243Y-62692754D01*
X109986241Y-62692753D01*
X109986240Y-62692753D01*
X109819858Y-62666401D01*
X109776287Y-62659500D01*
X109563713Y-62659500D01*
X109520142Y-62666401D01*
X109353760Y-62692753D01*
X109151585Y-62758444D01*
X108962179Y-62854951D01*
X108790215Y-62979889D01*
X108676285Y-63093819D01*
X108614962Y-63127303D01*
X108545270Y-63122319D01*
X108489337Y-63080447D01*
X108472422Y-63049471D01*
X108464722Y-63028829D01*
X107612962Y-63880589D01*
X107595925Y-63817007D01*
X107530099Y-63702993D01*
X107437007Y-63609901D01*
X107322993Y-63544075D01*
X107259410Y-63527037D01*
X108111170Y-62675276D01*
X108087373Y-62666401D01*
X108027844Y-62660000D01*
X106232157Y-62660000D01*
X106172625Y-62666401D01*
X106172615Y-62666404D01*
X106148829Y-62675274D01*
X106148829Y-62675277D01*
X107000590Y-63527037D01*
X106937007Y-63544075D01*
X106822993Y-63609901D01*
X106729901Y-63702993D01*
X106664075Y-63817007D01*
X106647037Y-63880589D01*
X105795277Y-63028829D01*
X105795276Y-63028829D01*
X105786403Y-63052622D01*
X105786401Y-63052631D01*
X105777497Y-63135444D01*
X105774434Y-63135114D01*
X105775336Y-63152094D01*
X105742356Y-63211195D01*
X105072962Y-63880590D01*
X105055925Y-63817007D01*
X104990099Y-63702993D01*
X104897007Y-63609901D01*
X104782993Y-63544075D01*
X104719409Y-63527037D01*
X105351716Y-62894728D01*
X105297550Y-62855375D01*
X105239043Y-62825564D01*
X105108217Y-62758904D01*
X104906129Y-62693242D01*
X104696246Y-62660000D01*
X104483754Y-62660000D01*
X104273872Y-62693242D01*
X104273869Y-62693242D01*
X104071782Y-62758904D01*
X103882439Y-62855380D01*
X103828282Y-62894727D01*
X103828282Y-62894728D01*
X104460591Y-63527037D01*
X104397007Y-63544075D01*
X104282993Y-63609901D01*
X104189901Y-63702993D01*
X104124075Y-63817007D01*
X104107037Y-63880591D01*
X103436818Y-63210372D01*
X103403333Y-63149049D01*
X103403330Y-63149036D01*
X103400499Y-63136015D01*
X103400499Y-63112128D01*
X103394091Y-63052517D01*
X103365926Y-62977002D01*
X103343798Y-62917673D01*
X103343793Y-62917664D01*
X103257547Y-62802455D01*
X103257544Y-62802452D01*
X103142335Y-62716206D01*
X103142328Y-62716202D01*
X103007482Y-62665908D01*
X103007483Y-62665908D01*
X102947883Y-62659501D01*
X102947881Y-62659500D01*
X102947873Y-62659500D01*
X102947864Y-62659500D01*
X101152129Y-62659500D01*
X101152123Y-62659501D01*
X101092516Y-62665908D01*
X100957671Y-62716202D01*
X100957664Y-62716206D01*
X100842455Y-62802452D01*
X100842452Y-62802455D01*
X100756206Y-62917664D01*
X100756202Y-62917671D01*
X100705908Y-63052517D01*
X100699501Y-63112116D01*
X100699501Y-63112123D01*
X100699500Y-63112135D01*
X97752842Y-63112135D01*
X97752866Y-62574169D01*
X97752870Y-62574126D01*
X97752870Y-62500586D01*
X97752870Y-62500539D01*
X97752873Y-62434131D01*
X97752871Y-62434126D01*
X97752872Y-62426556D01*
X97752870Y-62426506D01*
X97752870Y-61374500D01*
X97772555Y-61307461D01*
X97825359Y-61261706D01*
X97876870Y-61250500D01*
X170375500Y-61250500D01*
X170442539Y-61270185D01*
G37*
%TD.AperFunction*%
%TD*%
%TA.AperFunction,NonConductor*%
G36*
X115706631Y-104940439D02*
G01*
X115748914Y-104968149D01*
X115967486Y-105186721D01*
X116000971Y-105248044D01*
X115995987Y-105317736D01*
X115954115Y-105373669D01*
X115888651Y-105398086D01*
X115832354Y-105388964D01*
X115827258Y-105386853D01*
X115812253Y-105380638D01*
X115812249Y-105380637D01*
X115812245Y-105380636D01*
X115605439Y-105339500D01*
X115605435Y-105339500D01*
X115394565Y-105339500D01*
X115394560Y-105339500D01*
X115378691Y-105342657D01*
X115309099Y-105336430D01*
X115253922Y-105293567D01*
X115230678Y-105227677D01*
X115230500Y-105221040D01*
X115230500Y-105058960D01*
X115250185Y-104991921D01*
X115302989Y-104946166D01*
X115372147Y-104936222D01*
X115378692Y-104937343D01*
X115394562Y-104940500D01*
X115394565Y-104940500D01*
X115605436Y-104940500D01*
X115626941Y-104936222D01*
X115637040Y-104934213D01*
X115706631Y-104940439D01*
G37*
%TD.AperFunction*%
%TA.AperFunction,NonConductor*%
G36*
X115706631Y-107480439D02*
G01*
X115748914Y-107508149D01*
X115967486Y-107726721D01*
X116000971Y-107788044D01*
X115995987Y-107857736D01*
X115954115Y-107913669D01*
X115888651Y-107938086D01*
X115832354Y-107928964D01*
X115827258Y-107926853D01*
X115812253Y-107920638D01*
X115812249Y-107920637D01*
X115812245Y-107920636D01*
X115605439Y-107879500D01*
X115605435Y-107879500D01*
X115394565Y-107879500D01*
X115394558Y-107879500D01*
X115378686Y-107882657D01*
X115309094Y-107876427D01*
X115253919Y-107833561D01*
X115230677Y-107767670D01*
X115230500Y-107761039D01*
X115230500Y-107598960D01*
X115250185Y-107531921D01*
X115302989Y-107486166D01*
X115372147Y-107476222D01*
X115378692Y-107477343D01*
X115394562Y-107480500D01*
X115394565Y-107480500D01*
X115605436Y-107480500D01*
X115626941Y-107476222D01*
X115637040Y-107474213D01*
X115706631Y-107480439D01*
G37*
%TD.AperFunction*%
%TA.AperFunction,NonConductor*%
G36*
X116674756Y-105912539D02*
G01*
X116723278Y-105942513D01*
X122688584Y-111907819D01*
X122722069Y-111969142D01*
X122717085Y-112038834D01*
X122675213Y-112094767D01*
X122609749Y-112119184D01*
X122600903Y-112119500D01*
X122110098Y-112119500D01*
X122043059Y-112099815D01*
X122022417Y-112083181D01*
X119319051Y-109379815D01*
X116598148Y-106658913D01*
X116564664Y-106597591D01*
X116564213Y-106547040D01*
X116570500Y-106515435D01*
X116570500Y-106304564D01*
X116570499Y-106304560D01*
X116550647Y-106204755D01*
X116529362Y-106097747D01*
X116521035Y-106077646D01*
X116513567Y-106008178D01*
X116544842Y-105945699D01*
X116604931Y-105910046D01*
X116674756Y-105912539D01*
G37*
%TD.AperFunction*%
M02*
