M48
; DRILL file KiCad 10.0.6 date 2026-09-15T20:49:59
; FORMAT={-:-/ absolute / metric / decimal}
; #@! TF.CreationDate,2026-09-15T20:49:59+08:00
; #@! TF.GenerationSoftware,Kicad,Pcbnew,10.0.6
; #@! TF.FileFunction,Plated,1,2,PTH
FMAT,2
METRIC
; #@! TA.AperFunction,Plated,PTH,ViaDrill
T1C0.300
; #@! TA.AperFunction,Plated,PTH,ComponentDrill
T2C0.762
; #@! TA.AperFunction,Plated,PTH,ComponentDrill
T3C0.800
; #@! TA.AperFunction,Plated,PTH,ComponentDrill
T4C0.840
; #@! TA.AperFunction,Plated,PTH,ComponentDrill
T5C0.900
; #@! TA.AperFunction,Plated,PTH,ComponentDrill
T6C1.000
; #@! TA.AperFunction,Plated,PTH,ComponentDrill
T7C1.100
; #@! TA.AperFunction,Plated,PTH,ComponentDrill
T8C1.500
%
G90
G05
T1
X121.25Y-95.25
X140.772Y-102.272
X149.5Y-102.25
T2
X131.19Y-67.66
X133.73Y-67.66
X136.27Y-67.66
X138.81Y-67.66
T3
X132.5Y-104.0
X132.5Y-111.62
X134.25Y-98.5
X136.25Y-98.5
X138.25Y-98.5
X152.25Y-105.0
X152.25Y-110.0
X152.4Y-66.7
X152.4Y-71.7
X152.4Y-79.1
X152.4Y-84.1
X152.4Y-91.8
X152.4Y-96.8
X157.0Y-65.1
X157.0Y-72.72
X157.0Y-78.2
X157.0Y-85.82
X157.0Y-90.6
X157.0Y-98.22
X157.0Y-104.0
X157.0Y-111.62
T4
X100.26Y-96.25
X100.26Y-98.79
X100.26Y-101.33
X100.26Y-103.87
X100.26Y-106.41
X100.26Y-108.95
X100.26Y-111.49
X100.26Y-114.03
X115.5Y-96.25
X115.5Y-98.79
X115.5Y-101.33
X115.5Y-103.87
X115.5Y-106.41
X115.5Y-108.95
X115.5Y-111.49
X115.5Y-114.03
T5
X138.21Y-108.0
X140.75Y-108.0
T6
X102.05Y-64.01
X104.59Y-64.01
X107.13Y-64.01
X109.67Y-64.01
X112.21Y-64.01
X114.75Y-64.01
T7
X160.2Y-66.5
X160.2Y-71.0
X160.2Y-80.0
X160.2Y-84.5
X160.2Y-92.5
X160.2Y-97.0
X160.25Y-106.0
X160.25Y-110.5
X166.7Y-66.5
X166.7Y-71.0
X166.7Y-80.0
X166.7Y-84.5
X166.7Y-92.5
X166.7Y-97.0
X166.75Y-106.0
X166.75Y-110.5
T8
X132.15Y-98.5
X140.35Y-98.5
M30
