%TF.GenerationSoftware,KiCad,Pcbnew,10.0.6*%
%TF.CreationDate,2026-09-15T20:50:21+08:00*%
%TF.ProjectId,Tamagotchi,54616d61-676f-4746-9368-692e6b696361,rev?*%
%TF.SameCoordinates,Original*%
%TF.FileFunction,Legend,Bot*%
%TF.FilePolarity,Positive*%
%FSLAX46Y46*%
G04 Gerber Fmt 4.6, Leading zero omitted, Abs format (unit mm)*
G04 Created by KiCad (PCBNEW 10.0.6) date 2026-09-15 20:50:21*
%MOMM*%
%LPD*%
G01*
G04 APERTURE LIST*
%ADD10C,0.100000*%
%ADD11C,0.200000*%
G04 APERTURE END LIST*
D10*
X116000000Y-70000000D02*
X148000000Y-70000000D01*
X116000000Y-92000000D02*
X116000000Y-70000000D01*
X148000000Y-92000000D02*
X116000000Y-92000000D01*
X148000000Y-70000000D02*
X148000000Y-92000000D01*
X114251353Y-68695808D02*
X114013258Y-69362475D01*
X114013258Y-69362475D02*
X113775163Y-68695808D01*
X112870401Y-69362475D02*
X113441829Y-69362475D01*
X113156115Y-69362475D02*
X113156115Y-68362475D01*
X113156115Y-68362475D02*
X113251353Y-68505332D01*
X113251353Y-68505332D02*
X113346591Y-68600570D01*
X113346591Y-68600570D02*
X113441829Y-68648189D01*
X112441829Y-69267236D02*
X112394210Y-69314856D01*
X112394210Y-69314856D02*
X112441829Y-69362475D01*
X112441829Y-69362475D02*
X112489448Y-69314856D01*
X112489448Y-69314856D02*
X112441829Y-69267236D01*
X112441829Y-69267236D02*
X112441829Y-69362475D01*
X111441830Y-69362475D02*
X112013258Y-69362475D01*
X111727544Y-69362475D02*
X111727544Y-68362475D01*
X111727544Y-68362475D02*
X111822782Y-68505332D01*
X111822782Y-68505332D02*
X111918020Y-68600570D01*
X111918020Y-68600570D02*
X112013258Y-68648189D01*
X113632306Y-70972419D02*
X114203734Y-70972419D01*
X113918020Y-70972419D02*
X113918020Y-69972419D01*
X113918020Y-69972419D02*
X114013258Y-70115276D01*
X114013258Y-70115276D02*
X114108496Y-70210514D01*
X114108496Y-70210514D02*
X114203734Y-70258133D01*
X112775163Y-70305752D02*
X112775163Y-70972419D01*
X113013258Y-69924800D02*
X113251353Y-70639085D01*
X113251353Y-70639085D02*
X112632306Y-70639085D01*
X111537068Y-69924800D02*
X112394210Y-71210514D01*
X111251353Y-70924800D02*
X111108496Y-70972419D01*
X111108496Y-70972419D02*
X110870401Y-70972419D01*
X110870401Y-70972419D02*
X110775163Y-70924800D01*
X110775163Y-70924800D02*
X110727544Y-70877180D01*
X110727544Y-70877180D02*
X110679925Y-70781942D01*
X110679925Y-70781942D02*
X110679925Y-70686704D01*
X110679925Y-70686704D02*
X110727544Y-70591466D01*
X110727544Y-70591466D02*
X110775163Y-70543847D01*
X110775163Y-70543847D02*
X110870401Y-70496228D01*
X110870401Y-70496228D02*
X111060877Y-70448609D01*
X111060877Y-70448609D02*
X111156115Y-70400990D01*
X111156115Y-70400990D02*
X111203734Y-70353371D01*
X111203734Y-70353371D02*
X111251353Y-70258133D01*
X111251353Y-70258133D02*
X111251353Y-70162895D01*
X111251353Y-70162895D02*
X111203734Y-70067657D01*
X111203734Y-70067657D02*
X111156115Y-70020038D01*
X111156115Y-70020038D02*
X111060877Y-69972419D01*
X111060877Y-69972419D02*
X110822782Y-69972419D01*
X110822782Y-69972419D02*
X110679925Y-70020038D01*
X110251353Y-70448609D02*
X109918020Y-70448609D01*
X109775163Y-70972419D02*
X110251353Y-70972419D01*
X110251353Y-70972419D02*
X110251353Y-69972419D01*
X110251353Y-69972419D02*
X109775163Y-69972419D01*
X109346591Y-70972419D02*
X109346591Y-69972419D01*
X109346591Y-69972419D02*
X108965639Y-69972419D01*
X108965639Y-69972419D02*
X108870401Y-70020038D01*
X108870401Y-70020038D02*
X108822782Y-70067657D01*
X108822782Y-70067657D02*
X108775163Y-70162895D01*
X108775163Y-70162895D02*
X108775163Y-70305752D01*
X108775163Y-70305752D02*
X108822782Y-70400990D01*
X108822782Y-70400990D02*
X108870401Y-70448609D01*
X108870401Y-70448609D02*
X108965639Y-70496228D01*
X108965639Y-70496228D02*
X109346591Y-70496228D01*
X108489448Y-69972419D02*
X107918020Y-69972419D01*
X108203734Y-70972419D02*
X108203734Y-69972419D01*
X106870401Y-69924800D02*
X107727543Y-71210514D01*
X106584686Y-70067657D02*
X106537067Y-70020038D01*
X106537067Y-70020038D02*
X106441829Y-69972419D01*
X106441829Y-69972419D02*
X106203734Y-69972419D01*
X106203734Y-69972419D02*
X106108496Y-70020038D01*
X106108496Y-70020038D02*
X106060877Y-70067657D01*
X106060877Y-70067657D02*
X106013258Y-70162895D01*
X106013258Y-70162895D02*
X106013258Y-70258133D01*
X106013258Y-70258133D02*
X106060877Y-70400990D01*
X106060877Y-70400990D02*
X106632305Y-70972419D01*
X106632305Y-70972419D02*
X106013258Y-70972419D01*
X105394210Y-69972419D02*
X105298972Y-69972419D01*
X105298972Y-69972419D02*
X105203734Y-70020038D01*
X105203734Y-70020038D02*
X105156115Y-70067657D01*
X105156115Y-70067657D02*
X105108496Y-70162895D01*
X105108496Y-70162895D02*
X105060877Y-70353371D01*
X105060877Y-70353371D02*
X105060877Y-70591466D01*
X105060877Y-70591466D02*
X105108496Y-70781942D01*
X105108496Y-70781942D02*
X105156115Y-70877180D01*
X105156115Y-70877180D02*
X105203734Y-70924800D01*
X105203734Y-70924800D02*
X105298972Y-70972419D01*
X105298972Y-70972419D02*
X105394210Y-70972419D01*
X105394210Y-70972419D02*
X105489448Y-70924800D01*
X105489448Y-70924800D02*
X105537067Y-70877180D01*
X105537067Y-70877180D02*
X105584686Y-70781942D01*
X105584686Y-70781942D02*
X105632305Y-70591466D01*
X105632305Y-70591466D02*
X105632305Y-70353371D01*
X105632305Y-70353371D02*
X105584686Y-70162895D01*
X105584686Y-70162895D02*
X105537067Y-70067657D01*
X105537067Y-70067657D02*
X105489448Y-70020038D01*
X105489448Y-70020038D02*
X105394210Y-69972419D01*
X104679924Y-70067657D02*
X104632305Y-70020038D01*
X104632305Y-70020038D02*
X104537067Y-69972419D01*
X104537067Y-69972419D02*
X104298972Y-69972419D01*
X104298972Y-69972419D02*
X104203734Y-70020038D01*
X104203734Y-70020038D02*
X104156115Y-70067657D01*
X104156115Y-70067657D02*
X104108496Y-70162895D01*
X104108496Y-70162895D02*
X104108496Y-70258133D01*
X104108496Y-70258133D02*
X104156115Y-70400990D01*
X104156115Y-70400990D02*
X104727543Y-70972419D01*
X104727543Y-70972419D02*
X104108496Y-70972419D01*
X103251353Y-69972419D02*
X103441829Y-69972419D01*
X103441829Y-69972419D02*
X103537067Y-70020038D01*
X103537067Y-70020038D02*
X103584686Y-70067657D01*
X103584686Y-70067657D02*
X103679924Y-70210514D01*
X103679924Y-70210514D02*
X103727543Y-70400990D01*
X103727543Y-70400990D02*
X103727543Y-70781942D01*
X103727543Y-70781942D02*
X103679924Y-70877180D01*
X103679924Y-70877180D02*
X103632305Y-70924800D01*
X103632305Y-70924800D02*
X103537067Y-70972419D01*
X103537067Y-70972419D02*
X103346591Y-70972419D01*
X103346591Y-70972419D02*
X103251353Y-70924800D01*
X103251353Y-70924800D02*
X103203734Y-70877180D01*
X103203734Y-70877180D02*
X103156115Y-70781942D01*
X103156115Y-70781942D02*
X103156115Y-70543847D01*
X103156115Y-70543847D02*
X103203734Y-70448609D01*
X103203734Y-70448609D02*
X103251353Y-70400990D01*
X103251353Y-70400990D02*
X103346591Y-70353371D01*
X103346591Y-70353371D02*
X103537067Y-70353371D01*
X103537067Y-70353371D02*
X103632305Y-70400990D01*
X103632305Y-70400990D02*
X103679924Y-70448609D01*
X103679924Y-70448609D02*
X103727543Y-70543847D01*
X113834687Y-73127180D02*
X113882306Y-73174800D01*
X113882306Y-73174800D02*
X114025163Y-73222419D01*
X114025163Y-73222419D02*
X114120401Y-73222419D01*
X114120401Y-73222419D02*
X114263258Y-73174800D01*
X114263258Y-73174800D02*
X114358496Y-73079561D01*
X114358496Y-73079561D02*
X114406115Y-72984323D01*
X114406115Y-72984323D02*
X114453734Y-72793847D01*
X114453734Y-72793847D02*
X114453734Y-72650990D01*
X114453734Y-72650990D02*
X114406115Y-72460514D01*
X114406115Y-72460514D02*
X114358496Y-72365276D01*
X114358496Y-72365276D02*
X114263258Y-72270038D01*
X114263258Y-72270038D02*
X114120401Y-72222419D01*
X114120401Y-72222419D02*
X114025163Y-72222419D01*
X114025163Y-72222419D02*
X113882306Y-72270038D01*
X113882306Y-72270038D02*
X113834687Y-72317657D01*
X112977544Y-73222419D02*
X112977544Y-72698609D01*
X112977544Y-72698609D02*
X113025163Y-72603371D01*
X113025163Y-72603371D02*
X113120401Y-72555752D01*
X113120401Y-72555752D02*
X113310877Y-72555752D01*
X113310877Y-72555752D02*
X113406115Y-72603371D01*
X112977544Y-73174800D02*
X113072782Y-73222419D01*
X113072782Y-73222419D02*
X113310877Y-73222419D01*
X113310877Y-73222419D02*
X113406115Y-73174800D01*
X113406115Y-73174800D02*
X113453734Y-73079561D01*
X113453734Y-73079561D02*
X113453734Y-72984323D01*
X113453734Y-72984323D02*
X113406115Y-72889085D01*
X113406115Y-72889085D02*
X113310877Y-72841466D01*
X113310877Y-72841466D02*
X113072782Y-72841466D01*
X113072782Y-72841466D02*
X112977544Y-72793847D01*
X112501353Y-73222419D02*
X112501353Y-72555752D01*
X112501353Y-72746228D02*
X112453734Y-72650990D01*
X112453734Y-72650990D02*
X112406115Y-72603371D01*
X112406115Y-72603371D02*
X112310877Y-72555752D01*
X112310877Y-72555752D02*
X112215639Y-72555752D01*
X111929924Y-73174800D02*
X111834686Y-73222419D01*
X111834686Y-73222419D02*
X111644210Y-73222419D01*
X111644210Y-73222419D02*
X111548972Y-73174800D01*
X111548972Y-73174800D02*
X111501353Y-73079561D01*
X111501353Y-73079561D02*
X111501353Y-73031942D01*
X111501353Y-73031942D02*
X111548972Y-72936704D01*
X111548972Y-72936704D02*
X111644210Y-72889085D01*
X111644210Y-72889085D02*
X111787067Y-72889085D01*
X111787067Y-72889085D02*
X111882305Y-72841466D01*
X111882305Y-72841466D02*
X111929924Y-72746228D01*
X111929924Y-72746228D02*
X111929924Y-72698609D01*
X111929924Y-72698609D02*
X111882305Y-72603371D01*
X111882305Y-72603371D02*
X111787067Y-72555752D01*
X111787067Y-72555752D02*
X111644210Y-72555752D01*
X111644210Y-72555752D02*
X111548972Y-72603371D01*
X110929924Y-73222419D02*
X111025162Y-73174800D01*
X111025162Y-73174800D02*
X111072781Y-73127180D01*
X111072781Y-73127180D02*
X111120400Y-73031942D01*
X111120400Y-73031942D02*
X111120400Y-72746228D01*
X111120400Y-72746228D02*
X111072781Y-72650990D01*
X111072781Y-72650990D02*
X111025162Y-72603371D01*
X111025162Y-72603371D02*
X110929924Y-72555752D01*
X110929924Y-72555752D02*
X110787067Y-72555752D01*
X110787067Y-72555752D02*
X110691829Y-72603371D01*
X110691829Y-72603371D02*
X110644210Y-72650990D01*
X110644210Y-72650990D02*
X110596591Y-72746228D01*
X110596591Y-72746228D02*
X110596591Y-73031942D01*
X110596591Y-73031942D02*
X110644210Y-73127180D01*
X110644210Y-73127180D02*
X110691829Y-73174800D01*
X110691829Y-73174800D02*
X110787067Y-73222419D01*
X110787067Y-73222419D02*
X110929924Y-73222419D01*
X110168019Y-72555752D02*
X110168019Y-73222419D01*
X110168019Y-72650990D02*
X110120400Y-72603371D01*
X110120400Y-72603371D02*
X110025162Y-72555752D01*
X110025162Y-72555752D02*
X109882305Y-72555752D01*
X109882305Y-72555752D02*
X109787067Y-72603371D01*
X109787067Y-72603371D02*
X109739448Y-72698609D01*
X109739448Y-72698609D02*
X109739448Y-73222419D01*
X108596590Y-72222419D02*
X108358495Y-73222419D01*
X108358495Y-73222419D02*
X108168019Y-72508133D01*
X108168019Y-72508133D02*
X107977543Y-73222419D01*
X107977543Y-73222419D02*
X107739448Y-72222419D01*
X106929924Y-72555752D02*
X106929924Y-73222419D01*
X107358495Y-72555752D02*
X107358495Y-73079561D01*
X107358495Y-73079561D02*
X107310876Y-73174800D01*
X107310876Y-73174800D02*
X107215638Y-73222419D01*
X107215638Y-73222419D02*
X107072781Y-73222419D01*
X107072781Y-73222419D02*
X106977543Y-73174800D01*
X106977543Y-73174800D02*
X106929924Y-73127180D01*
X114370401Y-74222419D02*
X114370401Y-74936704D01*
X114370401Y-74936704D02*
X114418020Y-75079561D01*
X114418020Y-75079561D02*
X114513258Y-75174800D01*
X114513258Y-75174800D02*
X114656115Y-75222419D01*
X114656115Y-75222419D02*
X114751353Y-75222419D01*
X113418020Y-75222419D02*
X113894210Y-75222419D01*
X113894210Y-75222419D02*
X113894210Y-74222419D01*
X112513258Y-75127180D02*
X112560877Y-75174800D01*
X112560877Y-75174800D02*
X112703734Y-75222419D01*
X112703734Y-75222419D02*
X112798972Y-75222419D01*
X112798972Y-75222419D02*
X112941829Y-75174800D01*
X112941829Y-75174800D02*
X113037067Y-75079561D01*
X113037067Y-75079561D02*
X113084686Y-74984323D01*
X113084686Y-74984323D02*
X113132305Y-74793847D01*
X113132305Y-74793847D02*
X113132305Y-74650990D01*
X113132305Y-74650990D02*
X113084686Y-74460514D01*
X113084686Y-74460514D02*
X113037067Y-74365276D01*
X113037067Y-74365276D02*
X112941829Y-74270038D01*
X112941829Y-74270038D02*
X112798972Y-74222419D01*
X112798972Y-74222419D02*
X112703734Y-74222419D01*
X112703734Y-74222419D02*
X112560877Y-74270038D01*
X112560877Y-74270038D02*
X112513258Y-74317657D01*
X111798972Y-74222419D02*
X111798972Y-74936704D01*
X111798972Y-74936704D02*
X111846591Y-75079561D01*
X111846591Y-75079561D02*
X111941829Y-75174800D01*
X111941829Y-75174800D02*
X112084686Y-75222419D01*
X112084686Y-75222419D02*
X112179924Y-75222419D01*
X110846591Y-75222419D02*
X111322781Y-75222419D01*
X111322781Y-75222419D02*
X111322781Y-74222419D01*
X109941829Y-75127180D02*
X109989448Y-75174800D01*
X109989448Y-75174800D02*
X110132305Y-75222419D01*
X110132305Y-75222419D02*
X110227543Y-75222419D01*
X110227543Y-75222419D02*
X110370400Y-75174800D01*
X110370400Y-75174800D02*
X110465638Y-75079561D01*
X110465638Y-75079561D02*
X110513257Y-74984323D01*
X110513257Y-74984323D02*
X110560876Y-74793847D01*
X110560876Y-74793847D02*
X110560876Y-74650990D01*
X110560876Y-74650990D02*
X110513257Y-74460514D01*
X110513257Y-74460514D02*
X110465638Y-74365276D01*
X110465638Y-74365276D02*
X110370400Y-74270038D01*
X110370400Y-74270038D02*
X110227543Y-74222419D01*
X110227543Y-74222419D02*
X110132305Y-74222419D01*
X110132305Y-74222419D02*
X109989448Y-74270038D01*
X109989448Y-74270038D02*
X109941829Y-74317657D01*
X109227543Y-74222419D02*
X109227543Y-74936704D01*
X109227543Y-74936704D02*
X109275162Y-75079561D01*
X109275162Y-75079561D02*
X109370400Y-75174800D01*
X109370400Y-75174800D02*
X109513257Y-75222419D01*
X109513257Y-75222419D02*
X109608495Y-75222419D01*
X108275162Y-75222419D02*
X108751352Y-75222419D01*
X108751352Y-75222419D02*
X108751352Y-74222419D01*
X107370400Y-75127180D02*
X107418019Y-75174800D01*
X107418019Y-75174800D02*
X107560876Y-75222419D01*
X107560876Y-75222419D02*
X107656114Y-75222419D01*
X107656114Y-75222419D02*
X107798971Y-75174800D01*
X107798971Y-75174800D02*
X107894209Y-75079561D01*
X107894209Y-75079561D02*
X107941828Y-74984323D01*
X107941828Y-74984323D02*
X107989447Y-74793847D01*
X107989447Y-74793847D02*
X107989447Y-74650990D01*
X107989447Y-74650990D02*
X107941828Y-74460514D01*
X107941828Y-74460514D02*
X107894209Y-74365276D01*
X107894209Y-74365276D02*
X107798971Y-74270038D01*
X107798971Y-74270038D02*
X107656114Y-74222419D01*
X107656114Y-74222419D02*
X107560876Y-74222419D01*
X107560876Y-74222419D02*
X107418019Y-74270038D01*
X107418019Y-74270038D02*
X107370400Y-74317657D01*
X106656114Y-74222419D02*
X106656114Y-74936704D01*
X106656114Y-74936704D02*
X106703733Y-75079561D01*
X106703733Y-75079561D02*
X106798971Y-75174800D01*
X106798971Y-75174800D02*
X106941828Y-75222419D01*
X106941828Y-75222419D02*
X107037066Y-75222419D01*
X105703733Y-75222419D02*
X106179923Y-75222419D01*
X106179923Y-75222419D02*
X106179923Y-74222419D01*
X104798971Y-75127180D02*
X104846590Y-75174800D01*
X104846590Y-75174800D02*
X104989447Y-75222419D01*
X104989447Y-75222419D02*
X105084685Y-75222419D01*
X105084685Y-75222419D02*
X105227542Y-75174800D01*
X105227542Y-75174800D02*
X105322780Y-75079561D01*
X105322780Y-75079561D02*
X105370399Y-74984323D01*
X105370399Y-74984323D02*
X105418018Y-74793847D01*
X105418018Y-74793847D02*
X105418018Y-74650990D01*
X105418018Y-74650990D02*
X105370399Y-74460514D01*
X105370399Y-74460514D02*
X105322780Y-74365276D01*
X105322780Y-74365276D02*
X105227542Y-74270038D01*
X105227542Y-74270038D02*
X105084685Y-74222419D01*
X105084685Y-74222419D02*
X104989447Y-74222419D01*
X104989447Y-74222419D02*
X104846590Y-74270038D01*
X104846590Y-74270038D02*
X104798971Y-74317657D01*
D11*
X115177945Y-65494838D02*
X114035088Y-65494838D01*
X114606517Y-67494838D02*
X114606517Y-65494838D01*
X112511278Y-67494838D02*
X112511278Y-66447219D01*
X112511278Y-66447219D02*
X112606516Y-66256742D01*
X112606516Y-66256742D02*
X112796992Y-66161504D01*
X112796992Y-66161504D02*
X113177945Y-66161504D01*
X113177945Y-66161504D02*
X113368421Y-66256742D01*
X112511278Y-67399600D02*
X112701754Y-67494838D01*
X112701754Y-67494838D02*
X113177945Y-67494838D01*
X113177945Y-67494838D02*
X113368421Y-67399600D01*
X113368421Y-67399600D02*
X113463659Y-67209123D01*
X113463659Y-67209123D02*
X113463659Y-67018647D01*
X113463659Y-67018647D02*
X113368421Y-66828171D01*
X113368421Y-66828171D02*
X113177945Y-66732933D01*
X113177945Y-66732933D02*
X112701754Y-66732933D01*
X112701754Y-66732933D02*
X112511278Y-66637695D01*
X111558897Y-67494838D02*
X111558897Y-66161504D01*
X111558897Y-66351980D02*
X111463659Y-66256742D01*
X111463659Y-66256742D02*
X111273183Y-66161504D01*
X111273183Y-66161504D02*
X110987468Y-66161504D01*
X110987468Y-66161504D02*
X110796992Y-66256742D01*
X110796992Y-66256742D02*
X110701754Y-66447219D01*
X110701754Y-66447219D02*
X110701754Y-67494838D01*
X110701754Y-66447219D02*
X110606516Y-66256742D01*
X110606516Y-66256742D02*
X110416040Y-66161504D01*
X110416040Y-66161504D02*
X110130326Y-66161504D01*
X110130326Y-66161504D02*
X109939849Y-66256742D01*
X109939849Y-66256742D02*
X109844611Y-66447219D01*
X109844611Y-66447219D02*
X109844611Y-67494838D01*
X108035087Y-67494838D02*
X108035087Y-66447219D01*
X108035087Y-66447219D02*
X108130325Y-66256742D01*
X108130325Y-66256742D02*
X108320801Y-66161504D01*
X108320801Y-66161504D02*
X108701754Y-66161504D01*
X108701754Y-66161504D02*
X108892230Y-66256742D01*
X108035087Y-67399600D02*
X108225563Y-67494838D01*
X108225563Y-67494838D02*
X108701754Y-67494838D01*
X108701754Y-67494838D02*
X108892230Y-67399600D01*
X108892230Y-67399600D02*
X108987468Y-67209123D01*
X108987468Y-67209123D02*
X108987468Y-67018647D01*
X108987468Y-67018647D02*
X108892230Y-66828171D01*
X108892230Y-66828171D02*
X108701754Y-66732933D01*
X108701754Y-66732933D02*
X108225563Y-66732933D01*
X108225563Y-66732933D02*
X108035087Y-66637695D01*
X106225563Y-66161504D02*
X106225563Y-67780552D01*
X106225563Y-67780552D02*
X106320801Y-67971028D01*
X106320801Y-67971028D02*
X106416039Y-68066266D01*
X106416039Y-68066266D02*
X106606516Y-68161504D01*
X106606516Y-68161504D02*
X106892230Y-68161504D01*
X106892230Y-68161504D02*
X107082706Y-68066266D01*
X106225563Y-67399600D02*
X106416039Y-67494838D01*
X106416039Y-67494838D02*
X106796992Y-67494838D01*
X106796992Y-67494838D02*
X106987468Y-67399600D01*
X106987468Y-67399600D02*
X107082706Y-67304361D01*
X107082706Y-67304361D02*
X107177944Y-67113885D01*
X107177944Y-67113885D02*
X107177944Y-66542457D01*
X107177944Y-66542457D02*
X107082706Y-66351980D01*
X107082706Y-66351980D02*
X106987468Y-66256742D01*
X106987468Y-66256742D02*
X106796992Y-66161504D01*
X106796992Y-66161504D02*
X106416039Y-66161504D01*
X106416039Y-66161504D02*
X106225563Y-66256742D01*
X104987468Y-67494838D02*
X105177944Y-67399600D01*
X105177944Y-67399600D02*
X105273182Y-67304361D01*
X105273182Y-67304361D02*
X105368420Y-67113885D01*
X105368420Y-67113885D02*
X105368420Y-66542457D01*
X105368420Y-66542457D02*
X105273182Y-66351980D01*
X105273182Y-66351980D02*
X105177944Y-66256742D01*
X105177944Y-66256742D02*
X104987468Y-66161504D01*
X104987468Y-66161504D02*
X104701753Y-66161504D01*
X104701753Y-66161504D02*
X104511277Y-66256742D01*
X104511277Y-66256742D02*
X104416039Y-66351980D01*
X104416039Y-66351980D02*
X104320801Y-66542457D01*
X104320801Y-66542457D02*
X104320801Y-67113885D01*
X104320801Y-67113885D02*
X104416039Y-67304361D01*
X104416039Y-67304361D02*
X104511277Y-67399600D01*
X104511277Y-67399600D02*
X104701753Y-67494838D01*
X104701753Y-67494838D02*
X104987468Y-67494838D01*
X103749372Y-66161504D02*
X102987468Y-66161504D01*
X103463658Y-65494838D02*
X103463658Y-67209123D01*
X103463658Y-67209123D02*
X103368420Y-67399600D01*
X103368420Y-67399600D02*
X103177944Y-67494838D01*
X103177944Y-67494838D02*
X102987468Y-67494838D01*
X101463658Y-67399600D02*
X101654134Y-67494838D01*
X101654134Y-67494838D02*
X102035087Y-67494838D01*
X102035087Y-67494838D02*
X102225563Y-67399600D01*
X102225563Y-67399600D02*
X102320801Y-67304361D01*
X102320801Y-67304361D02*
X102416039Y-67113885D01*
X102416039Y-67113885D02*
X102416039Y-66542457D01*
X102416039Y-66542457D02*
X102320801Y-66351980D01*
X102320801Y-66351980D02*
X102225563Y-66256742D01*
X102225563Y-66256742D02*
X102035087Y-66161504D01*
X102035087Y-66161504D02*
X101654134Y-66161504D01*
X101654134Y-66161504D02*
X101463658Y-66256742D01*
X100606515Y-67494838D02*
X100606515Y-65494838D01*
X99749372Y-67494838D02*
X99749372Y-66447219D01*
X99749372Y-66447219D02*
X99844610Y-66256742D01*
X99844610Y-66256742D02*
X100035086Y-66161504D01*
X100035086Y-66161504D02*
X100320801Y-66161504D01*
X100320801Y-66161504D02*
X100511277Y-66256742D01*
X100511277Y-66256742D02*
X100606515Y-66351980D01*
X98796991Y-67494838D02*
X98796991Y-66161504D01*
X98796991Y-65494838D02*
X98892229Y-65590076D01*
X98892229Y-65590076D02*
X98796991Y-65685314D01*
X98796991Y-65685314D02*
X98701753Y-65590076D01*
X98701753Y-65590076D02*
X98796991Y-65494838D01*
X98796991Y-65494838D02*
X98796991Y-65685314D01*
M02*
