%TF.GenerationSoftware,KiCad,Pcbnew,10.0.6*%
%TF.CreationDate,2026-09-14T21:36:28+08:00*%
%TF.ProjectId,Tamagotchi,54616d61-676f-4746-9368-692e6b696361,rev?*%
%TF.SameCoordinates,Original*%
%TF.FileFunction,Drillmap*%
%TF.FilePolarity,Positive*%
%FSLAX45Y45*%
G04 Gerber Fmt 4.5, Leading zero omitted, Abs format (unit mm)*
G04 Created by KiCad (PCBNEW 10.0.6) date 2026-09-14 21:36:28*
%MOMM*%
%LPD*%
G01*
G04 APERTURE LIST*
%ADD10C,0.050000*%
%ADD11C,0.200000*%
%ADD12C,0.100000*%
%ADD13C,0.110000*%
%ADD14C,0.150000*%
G04 APERTURE END LIST*
D10*
X17100000Y-11575000D02*
X17100000Y-6075000D01*
X17100000Y-6075000D02*
X9725237Y-6075000D01*
X9775000Y-11575000D02*
X17100000Y-11575000D01*
X9725237Y-6250000D02*
X9725000Y-11500000D01*
X9725237Y-6075000D02*
X9725237Y-6250000D01*
X9725000Y-11575000D02*
X9775000Y-11575000D01*
X9725000Y-11500000D02*
X9725000Y-11575000D01*
D11*
D12*
X12110000Y-9510000D02*
X12140000Y-9540000D01*
X12140000Y-9510000D02*
X12110000Y-9540000D01*
X14062206Y-10212206D02*
X14092206Y-10242206D01*
X14092206Y-10212206D02*
X14062206Y-10242206D01*
X14935000Y-10210000D02*
X14965000Y-10240000D01*
X14965000Y-10210000D02*
X14935000Y-10240000D01*
X13157100Y-6766000D02*
G75*
G02*
X13080900Y-6766000I-38100J0D01*
G01*
X13080900Y-6766000D02*
G75*
G02*
X13157100Y-6766000I38100J0D01*
G01*
X13411100Y-6766000D02*
G75*
G02*
X13334900Y-6766000I-38100J0D01*
G01*
X13334900Y-6766000D02*
G75*
G02*
X13411100Y-6766000I38100J0D01*
G01*
X13665100Y-6766000D02*
G75*
G02*
X13588900Y-6766000I-38100J0D01*
G01*
X13588900Y-6766000D02*
G75*
G02*
X13665100Y-6766000I38100J0D01*
G01*
X13919100Y-6766000D02*
G75*
G02*
X13842900Y-6766000I-38100J0D01*
G01*
X13842900Y-6766000D02*
G75*
G02*
X13919100Y-6766000I38100J0D01*
G01*
X13250000Y-10360000D02*
X13250000Y-10440000D01*
X13210000Y-10400000D02*
X13290000Y-10400000D01*
X13250000Y-11122000D02*
X13250000Y-11202000D01*
X13210000Y-11162000D02*
X13290000Y-11162000D01*
X13425000Y-9810000D02*
X13425000Y-9890000D01*
X13385000Y-9850000D02*
X13465000Y-9850000D01*
X13625000Y-9810000D02*
X13625000Y-9890000D01*
X13585000Y-9850000D02*
X13665000Y-9850000D01*
X13825000Y-9810000D02*
X13825000Y-9890000D01*
X13785000Y-9850000D02*
X13865000Y-9850000D01*
X15225000Y-10460000D02*
X15225000Y-10540000D01*
X15185000Y-10500000D02*
X15265000Y-10500000D01*
X15225000Y-10960000D02*
X15225000Y-11040000D01*
X15185000Y-11000000D02*
X15265000Y-11000000D01*
X15240000Y-6630000D02*
X15240000Y-6710000D01*
X15200000Y-6670000D02*
X15280000Y-6670000D01*
X15240000Y-7130000D02*
X15240000Y-7210000D01*
X15200000Y-7170000D02*
X15280000Y-7170000D01*
X15240000Y-7870000D02*
X15240000Y-7950000D01*
X15200000Y-7910000D02*
X15280000Y-7910000D01*
X15240000Y-8370000D02*
X15240000Y-8450000D01*
X15200000Y-8410000D02*
X15280000Y-8410000D01*
X15240000Y-9140000D02*
X15240000Y-9220000D01*
X15200000Y-9180000D02*
X15280000Y-9180000D01*
X15240000Y-9640000D02*
X15240000Y-9720000D01*
X15200000Y-9680000D02*
X15280000Y-9680000D01*
X15700000Y-6470000D02*
X15700000Y-6550000D01*
X15660000Y-6510000D02*
X15740000Y-6510000D01*
X15700000Y-7232000D02*
X15700000Y-7312000D01*
X15660000Y-7272000D02*
X15740000Y-7272000D01*
X15700000Y-7780000D02*
X15700000Y-7860000D01*
X15660000Y-7820000D02*
X15740000Y-7820000D01*
X15700000Y-8542000D02*
X15700000Y-8622000D01*
X15660000Y-8582000D02*
X15740000Y-8582000D01*
X15700000Y-9020000D02*
X15700000Y-9100000D01*
X15660000Y-9060000D02*
X15740000Y-9060000D01*
X15700000Y-9782000D02*
X15700000Y-9862000D01*
X15660000Y-9822000D02*
X15740000Y-9822000D01*
X15700000Y-10360000D02*
X15700000Y-10440000D01*
X15660000Y-10400000D02*
X15740000Y-10400000D01*
X15700000Y-11122000D02*
X15700000Y-11202000D01*
X15660000Y-11162000D02*
X15740000Y-11162000D01*
X10055699Y-9654699D02*
X10055699Y-9595301D01*
X9996301Y-9595301D01*
X9996301Y-9654699D01*
X10055699Y-9654699D01*
X10055699Y-9908699D02*
X10055699Y-9849301D01*
X9996301Y-9849301D01*
X9996301Y-9908699D01*
X10055699Y-9908699D01*
X10055699Y-10162699D02*
X10055699Y-10103301D01*
X9996301Y-10103301D01*
X9996301Y-10162699D01*
X10055699Y-10162699D01*
X10055699Y-10416699D02*
X10055699Y-10357301D01*
X9996301Y-10357301D01*
X9996301Y-10416699D01*
X10055699Y-10416699D01*
X10055699Y-10670699D02*
X10055699Y-10611301D01*
X9996301Y-10611301D01*
X9996301Y-10670699D01*
X10055699Y-10670699D01*
X10055699Y-10924699D02*
X10055699Y-10865301D01*
X9996301Y-10865301D01*
X9996301Y-10924699D01*
X10055699Y-10924699D01*
X10055699Y-11178699D02*
X10055699Y-11119301D01*
X9996301Y-11119301D01*
X9996301Y-11178699D01*
X10055699Y-11178699D01*
X10055699Y-11432699D02*
X10055699Y-11373301D01*
X9996301Y-11373301D01*
X9996301Y-11432699D01*
X10055699Y-11432699D01*
X11579699Y-9654699D02*
X11579699Y-9595301D01*
X11520301Y-9595301D01*
X11520301Y-9654699D01*
X11579699Y-9654699D01*
X11579699Y-9908699D02*
X11579699Y-9849301D01*
X11520301Y-9849301D01*
X11520301Y-9908699D01*
X11579699Y-9908699D01*
X11579699Y-10162699D02*
X11579699Y-10103301D01*
X11520301Y-10103301D01*
X11520301Y-10162699D01*
X11579699Y-10162699D01*
X11579699Y-10416699D02*
X11579699Y-10357301D01*
X11520301Y-10357301D01*
X11520301Y-10416699D01*
X11579699Y-10416699D01*
X11579699Y-10670699D02*
X11579699Y-10611301D01*
X11520301Y-10611301D01*
X11520301Y-10670699D01*
X11579699Y-10670699D01*
X11579699Y-10924699D02*
X11579699Y-10865301D01*
X11520301Y-10865301D01*
X11520301Y-10924699D01*
X11579699Y-10924699D01*
X11579699Y-11178699D02*
X11579699Y-11119301D01*
X11520301Y-11119301D01*
X11520301Y-11178699D01*
X11579699Y-11178699D01*
X11579699Y-11432699D02*
X11579699Y-11373301D01*
X11520301Y-11373301D01*
X11520301Y-11432699D01*
X11579699Y-11432699D01*
X13821000Y-10845000D02*
X13866000Y-10800000D01*
X13821000Y-10755000D01*
X13776000Y-10800000D01*
X13821000Y-10845000D01*
X14075000Y-10845000D02*
X14120000Y-10800000D01*
X14075000Y-10755000D01*
X14030000Y-10800000D01*
X14075000Y-10845000D01*
X10150000Y-6350000D02*
X10250000Y-6450000D01*
X10250000Y-6350000D02*
X10150000Y-6450000D01*
X10250000Y-6400000D02*
G75*
G02*
X10150000Y-6400000I-50000J0D01*
G01*
X10150000Y-6400000D02*
G75*
G02*
X10250000Y-6400000I50000J0D01*
G01*
X10404000Y-6350000D02*
X10504000Y-6450000D01*
X10504000Y-6350000D02*
X10404000Y-6450000D01*
X10504000Y-6400000D02*
G75*
G02*
X10404000Y-6400000I-50000J0D01*
G01*
X10404000Y-6400000D02*
G75*
G02*
X10504000Y-6400000I50000J0D01*
G01*
X10658000Y-6350000D02*
X10758000Y-6450000D01*
X10758000Y-6350000D02*
X10658000Y-6450000D01*
X10758000Y-6400000D02*
G75*
G02*
X10658000Y-6400000I-50000J0D01*
G01*
X10658000Y-6400000D02*
G75*
G02*
X10758000Y-6400000I50000J0D01*
G01*
X10912000Y-6350000D02*
X11012000Y-6450000D01*
X11012000Y-6350000D02*
X10912000Y-6450000D01*
X11012000Y-6400000D02*
G75*
G02*
X10912000Y-6400000I-50000J0D01*
G01*
X10912000Y-6400000D02*
G75*
G02*
X11012000Y-6400000I50000J0D01*
G01*
X11166000Y-6350000D02*
X11266000Y-6450000D01*
X11266000Y-6350000D02*
X11166000Y-6450000D01*
X11266000Y-6400000D02*
G75*
G02*
X11166000Y-6400000I-50000J0D01*
G01*
X11166000Y-6400000D02*
G75*
G02*
X11266000Y-6400000I50000J0D01*
G01*
X11420000Y-6350000D02*
X11520000Y-6450000D01*
X11520000Y-6350000D02*
X11420000Y-6450000D01*
X11520000Y-6400000D02*
G75*
G02*
X11420000Y-6400000I-50000J0D01*
G01*
X11420000Y-6400000D02*
G75*
G02*
X11520000Y-6400000I50000J0D01*
G01*
D13*
X15965000Y-6595000D02*
X16075000Y-6705000D01*
X16075000Y-6595000D02*
X15965000Y-6705000D01*
X16020000Y-6595000D02*
X16020000Y-6705000D01*
X15965000Y-6650000D02*
X16075000Y-6650000D01*
X15965000Y-7045000D02*
X16075000Y-7155000D01*
X16075000Y-7045000D02*
X15965000Y-7155000D01*
X16020000Y-7045000D02*
X16020000Y-7155000D01*
X15965000Y-7100000D02*
X16075000Y-7100000D01*
X15965000Y-7945000D02*
X16075000Y-8055000D01*
X16075000Y-7945000D02*
X15965000Y-8055000D01*
X16020000Y-7945000D02*
X16020000Y-8055000D01*
X15965000Y-8000000D02*
X16075000Y-8000000D01*
X15965000Y-8395000D02*
X16075000Y-8505000D01*
X16075000Y-8395000D02*
X15965000Y-8505000D01*
X16020000Y-8395000D02*
X16020000Y-8505000D01*
X15965000Y-8450000D02*
X16075000Y-8450000D01*
X15965000Y-9195000D02*
X16075000Y-9305000D01*
X16075000Y-9195000D02*
X15965000Y-9305000D01*
X16020000Y-9195000D02*
X16020000Y-9305000D01*
X15965000Y-9250000D02*
X16075000Y-9250000D01*
X15965000Y-9645000D02*
X16075000Y-9755000D01*
X16075000Y-9645000D02*
X15965000Y-9755000D01*
X16020000Y-9645000D02*
X16020000Y-9755000D01*
X15965000Y-9700000D02*
X16075000Y-9700000D01*
X15970000Y-10545000D02*
X16080000Y-10655000D01*
X16080000Y-10545000D02*
X15970000Y-10655000D01*
X16025000Y-10545000D02*
X16025000Y-10655000D01*
X15970000Y-10600000D02*
X16080000Y-10600000D01*
X15970000Y-10995000D02*
X16080000Y-11105000D01*
X16080000Y-10995000D02*
X15970000Y-11105000D01*
X16025000Y-10995000D02*
X16025000Y-11105000D01*
X15970000Y-11050000D02*
X16080000Y-11050000D01*
X16615000Y-6595000D02*
X16725000Y-6705000D01*
X16725000Y-6595000D02*
X16615000Y-6705000D01*
X16670000Y-6595000D02*
X16670000Y-6705000D01*
X16615000Y-6650000D02*
X16725000Y-6650000D01*
X16615000Y-7045000D02*
X16725000Y-7155000D01*
X16725000Y-7045000D02*
X16615000Y-7155000D01*
X16670000Y-7045000D02*
X16670000Y-7155000D01*
X16615000Y-7100000D02*
X16725000Y-7100000D01*
X16615000Y-7945000D02*
X16725000Y-8055000D01*
X16725000Y-7945000D02*
X16615000Y-8055000D01*
X16670000Y-7945000D02*
X16670000Y-8055000D01*
X16615000Y-8000000D02*
X16725000Y-8000000D01*
X16615000Y-8395000D02*
X16725000Y-8505000D01*
X16725000Y-8395000D02*
X16615000Y-8505000D01*
X16670000Y-8395000D02*
X16670000Y-8505000D01*
X16615000Y-8450000D02*
X16725000Y-8450000D01*
X16615000Y-9195000D02*
X16725000Y-9305000D01*
X16725000Y-9195000D02*
X16615000Y-9305000D01*
X16670000Y-9195000D02*
X16670000Y-9305000D01*
X16615000Y-9250000D02*
X16725000Y-9250000D01*
X16615000Y-9645000D02*
X16725000Y-9755000D01*
X16725000Y-9645000D02*
X16615000Y-9755000D01*
X16670000Y-9645000D02*
X16670000Y-9755000D01*
X16615000Y-9700000D02*
X16725000Y-9700000D01*
X16620000Y-10545000D02*
X16730000Y-10655000D01*
X16730000Y-10545000D02*
X16620000Y-10655000D01*
X16675000Y-10545000D02*
X16675000Y-10655000D01*
X16620000Y-10600000D02*
X16730000Y-10600000D01*
X16620000Y-10995000D02*
X16730000Y-11105000D01*
X16730000Y-10995000D02*
X16620000Y-11105000D01*
X16675000Y-10995000D02*
X16675000Y-11105000D01*
X16620000Y-11050000D02*
X16730000Y-11050000D01*
D14*
X13140000Y-9775000D02*
X13290000Y-9925000D01*
X13290000Y-9775000D02*
X13140000Y-9925000D01*
X13268033Y-9903034D02*
X13268033Y-9796967D01*
X13161966Y-9796967D01*
X13161966Y-9903034D01*
X13268033Y-9903034D01*
X13960000Y-9775000D02*
X14110000Y-9925000D01*
X14110000Y-9775000D02*
X13960000Y-9925000D01*
X14088033Y-9903034D02*
X14088033Y-9796967D01*
X13981966Y-9796967D01*
X13981966Y-9903034D01*
X14088033Y-9903034D01*
D11*
X9983277Y-11888984D02*
X9983277Y-11688984D01*
X9983277Y-11688984D02*
X10030896Y-11688984D01*
X10030896Y-11688984D02*
X10059467Y-11698508D01*
X10059467Y-11698508D02*
X10078515Y-11717555D01*
X10078515Y-11717555D02*
X10088039Y-11736603D01*
X10088039Y-11736603D02*
X10097563Y-11774698D01*
X10097563Y-11774698D02*
X10097563Y-11803269D01*
X10097563Y-11803269D02*
X10088039Y-11841365D01*
X10088039Y-11841365D02*
X10078515Y-11860412D01*
X10078515Y-11860412D02*
X10059467Y-11879460D01*
X10059467Y-11879460D02*
X10030896Y-11888984D01*
X10030896Y-11888984D02*
X9983277Y-11888984D01*
X10183277Y-11888984D02*
X10183277Y-11755650D01*
X10183277Y-11793746D02*
X10192801Y-11774698D01*
X10192801Y-11774698D02*
X10202324Y-11765174D01*
X10202324Y-11765174D02*
X10221372Y-11755650D01*
X10221372Y-11755650D02*
X10240420Y-11755650D01*
X10307086Y-11888984D02*
X10307086Y-11755650D01*
X10307086Y-11688984D02*
X10297563Y-11698508D01*
X10297563Y-11698508D02*
X10307086Y-11708031D01*
X10307086Y-11708031D02*
X10316610Y-11698508D01*
X10316610Y-11698508D02*
X10307086Y-11688984D01*
X10307086Y-11688984D02*
X10307086Y-11708031D01*
X10430896Y-11888984D02*
X10411848Y-11879460D01*
X10411848Y-11879460D02*
X10402324Y-11860412D01*
X10402324Y-11860412D02*
X10402324Y-11688984D01*
X10535658Y-11888984D02*
X10516610Y-11879460D01*
X10516610Y-11879460D02*
X10507086Y-11860412D01*
X10507086Y-11860412D02*
X10507086Y-11688984D01*
X10764229Y-11888984D02*
X10764229Y-11688984D01*
X10764229Y-11688984D02*
X10830896Y-11831841D01*
X10830896Y-11831841D02*
X10897563Y-11688984D01*
X10897563Y-11688984D02*
X10897563Y-11888984D01*
X11078515Y-11888984D02*
X11078515Y-11784222D01*
X11078515Y-11784222D02*
X11068991Y-11765174D01*
X11068991Y-11765174D02*
X11049944Y-11755650D01*
X11049944Y-11755650D02*
X11011848Y-11755650D01*
X11011848Y-11755650D02*
X10992801Y-11765174D01*
X11078515Y-11879460D02*
X11059467Y-11888984D01*
X11059467Y-11888984D02*
X11011848Y-11888984D01*
X11011848Y-11888984D02*
X10992801Y-11879460D01*
X10992801Y-11879460D02*
X10983277Y-11860412D01*
X10983277Y-11860412D02*
X10983277Y-11841365D01*
X10983277Y-11841365D02*
X10992801Y-11822317D01*
X10992801Y-11822317D02*
X11011848Y-11812793D01*
X11011848Y-11812793D02*
X11059467Y-11812793D01*
X11059467Y-11812793D02*
X11078515Y-11803269D01*
X11173753Y-11755650D02*
X11173753Y-11955650D01*
X11173753Y-11765174D02*
X11192801Y-11755650D01*
X11192801Y-11755650D02*
X11230896Y-11755650D01*
X11230896Y-11755650D02*
X11249943Y-11765174D01*
X11249943Y-11765174D02*
X11259467Y-11774698D01*
X11259467Y-11774698D02*
X11268991Y-11793746D01*
X11268991Y-11793746D02*
X11268991Y-11850888D01*
X11268991Y-11850888D02*
X11259467Y-11869936D01*
X11259467Y-11869936D02*
X11249943Y-11879460D01*
X11249943Y-11879460D02*
X11230896Y-11888984D01*
X11230896Y-11888984D02*
X11192801Y-11888984D01*
X11192801Y-11888984D02*
X11173753Y-11879460D01*
X11354705Y-11869936D02*
X11364229Y-11879460D01*
X11364229Y-11879460D02*
X11354705Y-11888984D01*
X11354705Y-11888984D02*
X11345182Y-11879460D01*
X11345182Y-11879460D02*
X11354705Y-11869936D01*
X11354705Y-11869936D02*
X11354705Y-11888984D01*
X11354705Y-11765174D02*
X11364229Y-11774698D01*
X11364229Y-11774698D02*
X11354705Y-11784222D01*
X11354705Y-11784222D02*
X11345182Y-11774698D01*
X11345182Y-11774698D02*
X11354705Y-11765174D01*
X11354705Y-11765174D02*
X11354705Y-11784222D01*
D12*
X9692500Y-12202500D02*
X9722500Y-12232500D01*
X9722500Y-12202500D02*
X9692500Y-12232500D01*
D11*
X10021372Y-12108984D02*
X10040420Y-12108984D01*
X10040420Y-12108984D02*
X10059467Y-12118508D01*
X10059467Y-12118508D02*
X10068991Y-12128031D01*
X10068991Y-12128031D02*
X10078515Y-12147079D01*
X10078515Y-12147079D02*
X10088039Y-12185174D01*
X10088039Y-12185174D02*
X10088039Y-12232793D01*
X10088039Y-12232793D02*
X10078515Y-12270888D01*
X10078515Y-12270888D02*
X10068991Y-12289936D01*
X10068991Y-12289936D02*
X10059467Y-12299460D01*
X10059467Y-12299460D02*
X10040420Y-12308984D01*
X10040420Y-12308984D02*
X10021372Y-12308984D01*
X10021372Y-12308984D02*
X10002324Y-12299460D01*
X10002324Y-12299460D02*
X9992801Y-12289936D01*
X9992801Y-12289936D02*
X9983277Y-12270888D01*
X9983277Y-12270888D02*
X9973753Y-12232793D01*
X9973753Y-12232793D02*
X9973753Y-12185174D01*
X9973753Y-12185174D02*
X9983277Y-12147079D01*
X9983277Y-12147079D02*
X9992801Y-12128031D01*
X9992801Y-12128031D02*
X10002324Y-12118508D01*
X10002324Y-12118508D02*
X10021372Y-12108984D01*
X10173753Y-12289936D02*
X10183277Y-12299460D01*
X10183277Y-12299460D02*
X10173753Y-12308984D01*
X10173753Y-12308984D02*
X10164229Y-12299460D01*
X10164229Y-12299460D02*
X10173753Y-12289936D01*
X10173753Y-12289936D02*
X10173753Y-12308984D01*
X10249944Y-12108984D02*
X10373753Y-12108984D01*
X10373753Y-12108984D02*
X10307086Y-12185174D01*
X10307086Y-12185174D02*
X10335658Y-12185174D01*
X10335658Y-12185174D02*
X10354705Y-12194698D01*
X10354705Y-12194698D02*
X10364229Y-12204222D01*
X10364229Y-12204222D02*
X10373753Y-12223269D01*
X10373753Y-12223269D02*
X10373753Y-12270888D01*
X10373753Y-12270888D02*
X10364229Y-12289936D01*
X10364229Y-12289936D02*
X10354705Y-12299460D01*
X10354705Y-12299460D02*
X10335658Y-12308984D01*
X10335658Y-12308984D02*
X10278515Y-12308984D01*
X10278515Y-12308984D02*
X10259467Y-12299460D01*
X10259467Y-12299460D02*
X10249944Y-12289936D01*
X10497563Y-12108984D02*
X10516610Y-12108984D01*
X10516610Y-12108984D02*
X10535658Y-12118508D01*
X10535658Y-12118508D02*
X10545182Y-12128031D01*
X10545182Y-12128031D02*
X10554705Y-12147079D01*
X10554705Y-12147079D02*
X10564229Y-12185174D01*
X10564229Y-12185174D02*
X10564229Y-12232793D01*
X10564229Y-12232793D02*
X10554705Y-12270888D01*
X10554705Y-12270888D02*
X10545182Y-12289936D01*
X10545182Y-12289936D02*
X10535658Y-12299460D01*
X10535658Y-12299460D02*
X10516610Y-12308984D01*
X10516610Y-12308984D02*
X10497563Y-12308984D01*
X10497563Y-12308984D02*
X10478515Y-12299460D01*
X10478515Y-12299460D02*
X10468991Y-12289936D01*
X10468991Y-12289936D02*
X10459467Y-12270888D01*
X10459467Y-12270888D02*
X10449944Y-12232793D01*
X10449944Y-12232793D02*
X10449944Y-12185174D01*
X10449944Y-12185174D02*
X10459467Y-12147079D01*
X10459467Y-12147079D02*
X10468991Y-12128031D01*
X10468991Y-12128031D02*
X10478515Y-12118508D01*
X10478515Y-12118508D02*
X10497563Y-12108984D01*
X10688039Y-12108984D02*
X10707086Y-12108984D01*
X10707086Y-12108984D02*
X10726134Y-12118508D01*
X10726134Y-12118508D02*
X10735658Y-12128031D01*
X10735658Y-12128031D02*
X10745182Y-12147079D01*
X10745182Y-12147079D02*
X10754705Y-12185174D01*
X10754705Y-12185174D02*
X10754705Y-12232793D01*
X10754705Y-12232793D02*
X10745182Y-12270888D01*
X10745182Y-12270888D02*
X10735658Y-12289936D01*
X10735658Y-12289936D02*
X10726134Y-12299460D01*
X10726134Y-12299460D02*
X10707086Y-12308984D01*
X10707086Y-12308984D02*
X10688039Y-12308984D01*
X10688039Y-12308984D02*
X10668991Y-12299460D01*
X10668991Y-12299460D02*
X10659467Y-12289936D01*
X10659467Y-12289936D02*
X10649944Y-12270888D01*
X10649944Y-12270888D02*
X10640420Y-12232793D01*
X10640420Y-12232793D02*
X10640420Y-12185174D01*
X10640420Y-12185174D02*
X10649944Y-12147079D01*
X10649944Y-12147079D02*
X10659467Y-12128031D01*
X10659467Y-12128031D02*
X10668991Y-12118508D01*
X10668991Y-12118508D02*
X10688039Y-12108984D01*
X10840420Y-12308984D02*
X10840420Y-12175650D01*
X10840420Y-12194698D02*
X10849944Y-12185174D01*
X10849944Y-12185174D02*
X10868991Y-12175650D01*
X10868991Y-12175650D02*
X10897563Y-12175650D01*
X10897563Y-12175650D02*
X10916610Y-12185174D01*
X10916610Y-12185174D02*
X10926134Y-12204222D01*
X10926134Y-12204222D02*
X10926134Y-12308984D01*
X10926134Y-12204222D02*
X10935658Y-12185174D01*
X10935658Y-12185174D02*
X10954705Y-12175650D01*
X10954705Y-12175650D02*
X10983277Y-12175650D01*
X10983277Y-12175650D02*
X11002325Y-12185174D01*
X11002325Y-12185174D02*
X11011848Y-12204222D01*
X11011848Y-12204222D02*
X11011848Y-12308984D01*
X11107086Y-12308984D02*
X11107086Y-12175650D01*
X11107086Y-12194698D02*
X11116610Y-12185174D01*
X11116610Y-12185174D02*
X11135658Y-12175650D01*
X11135658Y-12175650D02*
X11164229Y-12175650D01*
X11164229Y-12175650D02*
X11183277Y-12185174D01*
X11183277Y-12185174D02*
X11192801Y-12204222D01*
X11192801Y-12204222D02*
X11192801Y-12308984D01*
X11192801Y-12204222D02*
X11202324Y-12185174D01*
X11202324Y-12185174D02*
X11221372Y-12175650D01*
X11221372Y-12175650D02*
X11249943Y-12175650D01*
X11249943Y-12175650D02*
X11268991Y-12185174D01*
X11268991Y-12185174D02*
X11278515Y-12204222D01*
X11278515Y-12204222D02*
X11278515Y-12308984D01*
X11668991Y-12099460D02*
X11497563Y-12356603D01*
X11926134Y-12108984D02*
X11945182Y-12108984D01*
X11945182Y-12108984D02*
X11964229Y-12118508D01*
X11964229Y-12118508D02*
X11973753Y-12128031D01*
X11973753Y-12128031D02*
X11983277Y-12147079D01*
X11983277Y-12147079D02*
X11992801Y-12185174D01*
X11992801Y-12185174D02*
X11992801Y-12232793D01*
X11992801Y-12232793D02*
X11983277Y-12270888D01*
X11983277Y-12270888D02*
X11973753Y-12289936D01*
X11973753Y-12289936D02*
X11964229Y-12299460D01*
X11964229Y-12299460D02*
X11945182Y-12308984D01*
X11945182Y-12308984D02*
X11926134Y-12308984D01*
X11926134Y-12308984D02*
X11907086Y-12299460D01*
X11907086Y-12299460D02*
X11897563Y-12289936D01*
X11897563Y-12289936D02*
X11888039Y-12270888D01*
X11888039Y-12270888D02*
X11878515Y-12232793D01*
X11878515Y-12232793D02*
X11878515Y-12185174D01*
X11878515Y-12185174D02*
X11888039Y-12147079D01*
X11888039Y-12147079D02*
X11897563Y-12128031D01*
X11897563Y-12128031D02*
X11907086Y-12118508D01*
X11907086Y-12118508D02*
X11926134Y-12108984D01*
X12078515Y-12289936D02*
X12088039Y-12299460D01*
X12088039Y-12299460D02*
X12078515Y-12308984D01*
X12078515Y-12308984D02*
X12068991Y-12299460D01*
X12068991Y-12299460D02*
X12078515Y-12289936D01*
X12078515Y-12289936D02*
X12078515Y-12308984D01*
X12211848Y-12108984D02*
X12230896Y-12108984D01*
X12230896Y-12108984D02*
X12249944Y-12118508D01*
X12249944Y-12118508D02*
X12259467Y-12128031D01*
X12259467Y-12128031D02*
X12268991Y-12147079D01*
X12268991Y-12147079D02*
X12278515Y-12185174D01*
X12278515Y-12185174D02*
X12278515Y-12232793D01*
X12278515Y-12232793D02*
X12268991Y-12270888D01*
X12268991Y-12270888D02*
X12259467Y-12289936D01*
X12259467Y-12289936D02*
X12249944Y-12299460D01*
X12249944Y-12299460D02*
X12230896Y-12308984D01*
X12230896Y-12308984D02*
X12211848Y-12308984D01*
X12211848Y-12308984D02*
X12192801Y-12299460D01*
X12192801Y-12299460D02*
X12183277Y-12289936D01*
X12183277Y-12289936D02*
X12173753Y-12270888D01*
X12173753Y-12270888D02*
X12164229Y-12232793D01*
X12164229Y-12232793D02*
X12164229Y-12185174D01*
X12164229Y-12185174D02*
X12173753Y-12147079D01*
X12173753Y-12147079D02*
X12183277Y-12128031D01*
X12183277Y-12128031D02*
X12192801Y-12118508D01*
X12192801Y-12118508D02*
X12211848Y-12108984D01*
X12468991Y-12308984D02*
X12354706Y-12308984D01*
X12411848Y-12308984D02*
X12411848Y-12108984D01*
X12411848Y-12108984D02*
X12392801Y-12137555D01*
X12392801Y-12137555D02*
X12373753Y-12156603D01*
X12373753Y-12156603D02*
X12354706Y-12166127D01*
X12659467Y-12308984D02*
X12545182Y-12308984D01*
X12602325Y-12308984D02*
X12602325Y-12108984D01*
X12602325Y-12108984D02*
X12583277Y-12137555D01*
X12583277Y-12137555D02*
X12564229Y-12156603D01*
X12564229Y-12156603D02*
X12545182Y-12166127D01*
X12773753Y-12194698D02*
X12754706Y-12185174D01*
X12754706Y-12185174D02*
X12745182Y-12175650D01*
X12745182Y-12175650D02*
X12735658Y-12156603D01*
X12735658Y-12156603D02*
X12735658Y-12147079D01*
X12735658Y-12147079D02*
X12745182Y-12128031D01*
X12745182Y-12128031D02*
X12754706Y-12118508D01*
X12754706Y-12118508D02*
X12773753Y-12108984D01*
X12773753Y-12108984D02*
X12811848Y-12108984D01*
X12811848Y-12108984D02*
X12830896Y-12118508D01*
X12830896Y-12118508D02*
X12840420Y-12128031D01*
X12840420Y-12128031D02*
X12849944Y-12147079D01*
X12849944Y-12147079D02*
X12849944Y-12156603D01*
X12849944Y-12156603D02*
X12840420Y-12175650D01*
X12840420Y-12175650D02*
X12830896Y-12185174D01*
X12830896Y-12185174D02*
X12811848Y-12194698D01*
X12811848Y-12194698D02*
X12773753Y-12194698D01*
X12773753Y-12194698D02*
X12754706Y-12204222D01*
X12754706Y-12204222D02*
X12745182Y-12213746D01*
X12745182Y-12213746D02*
X12735658Y-12232793D01*
X12735658Y-12232793D02*
X12735658Y-12270888D01*
X12735658Y-12270888D02*
X12745182Y-12289936D01*
X12745182Y-12289936D02*
X12754706Y-12299460D01*
X12754706Y-12299460D02*
X12773753Y-12308984D01*
X12773753Y-12308984D02*
X12811848Y-12308984D01*
X12811848Y-12308984D02*
X12830896Y-12299460D01*
X12830896Y-12299460D02*
X12840420Y-12289936D01*
X12840420Y-12289936D02*
X12849944Y-12270888D01*
X12849944Y-12270888D02*
X12849944Y-12232793D01*
X12849944Y-12232793D02*
X12840420Y-12213746D01*
X12840420Y-12213746D02*
X12830896Y-12204222D01*
X12830896Y-12204222D02*
X12811848Y-12194698D01*
X12926134Y-12108984D02*
X12926134Y-12147079D01*
X13002325Y-12108984D02*
X13002325Y-12147079D01*
X13297563Y-12385174D02*
X13288039Y-12375650D01*
X13288039Y-12375650D02*
X13268991Y-12347079D01*
X13268991Y-12347079D02*
X13259468Y-12328031D01*
X13259468Y-12328031D02*
X13249944Y-12299460D01*
X13249944Y-12299460D02*
X13240420Y-12251841D01*
X13240420Y-12251841D02*
X13240420Y-12213746D01*
X13240420Y-12213746D02*
X13249944Y-12166127D01*
X13249944Y-12166127D02*
X13259468Y-12137555D01*
X13259468Y-12137555D02*
X13268991Y-12118508D01*
X13268991Y-12118508D02*
X13288039Y-12089936D01*
X13288039Y-12089936D02*
X13297563Y-12080412D01*
X13354706Y-12108984D02*
X13478515Y-12108984D01*
X13478515Y-12108984D02*
X13411848Y-12185174D01*
X13411848Y-12185174D02*
X13440420Y-12185174D01*
X13440420Y-12185174D02*
X13459468Y-12194698D01*
X13459468Y-12194698D02*
X13468991Y-12204222D01*
X13468991Y-12204222D02*
X13478515Y-12223269D01*
X13478515Y-12223269D02*
X13478515Y-12270888D01*
X13478515Y-12270888D02*
X13468991Y-12289936D01*
X13468991Y-12289936D02*
X13459468Y-12299460D01*
X13459468Y-12299460D02*
X13440420Y-12308984D01*
X13440420Y-12308984D02*
X13383277Y-12308984D01*
X13383277Y-12308984D02*
X13364229Y-12299460D01*
X13364229Y-12299460D02*
X13354706Y-12289936D01*
X13716610Y-12308984D02*
X13716610Y-12108984D01*
X13802325Y-12308984D02*
X13802325Y-12204222D01*
X13802325Y-12204222D02*
X13792801Y-12185174D01*
X13792801Y-12185174D02*
X13773753Y-12175650D01*
X13773753Y-12175650D02*
X13745182Y-12175650D01*
X13745182Y-12175650D02*
X13726134Y-12185174D01*
X13726134Y-12185174D02*
X13716610Y-12194698D01*
X13926134Y-12308984D02*
X13907087Y-12299460D01*
X13907087Y-12299460D02*
X13897563Y-12289936D01*
X13897563Y-12289936D02*
X13888039Y-12270888D01*
X13888039Y-12270888D02*
X13888039Y-12213746D01*
X13888039Y-12213746D02*
X13897563Y-12194698D01*
X13897563Y-12194698D02*
X13907087Y-12185174D01*
X13907087Y-12185174D02*
X13926134Y-12175650D01*
X13926134Y-12175650D02*
X13954706Y-12175650D01*
X13954706Y-12175650D02*
X13973753Y-12185174D01*
X13973753Y-12185174D02*
X13983277Y-12194698D01*
X13983277Y-12194698D02*
X13992801Y-12213746D01*
X13992801Y-12213746D02*
X13992801Y-12270888D01*
X13992801Y-12270888D02*
X13983277Y-12289936D01*
X13983277Y-12289936D02*
X13973753Y-12299460D01*
X13973753Y-12299460D02*
X13954706Y-12308984D01*
X13954706Y-12308984D02*
X13926134Y-12308984D01*
X14107087Y-12308984D02*
X14088039Y-12299460D01*
X14088039Y-12299460D02*
X14078515Y-12280412D01*
X14078515Y-12280412D02*
X14078515Y-12108984D01*
X14259468Y-12299460D02*
X14240420Y-12308984D01*
X14240420Y-12308984D02*
X14202325Y-12308984D01*
X14202325Y-12308984D02*
X14183277Y-12299460D01*
X14183277Y-12299460D02*
X14173753Y-12280412D01*
X14173753Y-12280412D02*
X14173753Y-12204222D01*
X14173753Y-12204222D02*
X14183277Y-12185174D01*
X14183277Y-12185174D02*
X14202325Y-12175650D01*
X14202325Y-12175650D02*
X14240420Y-12175650D01*
X14240420Y-12175650D02*
X14259468Y-12185174D01*
X14259468Y-12185174D02*
X14268991Y-12204222D01*
X14268991Y-12204222D02*
X14268991Y-12223269D01*
X14268991Y-12223269D02*
X14173753Y-12242317D01*
X14345182Y-12299460D02*
X14364230Y-12308984D01*
X14364230Y-12308984D02*
X14402325Y-12308984D01*
X14402325Y-12308984D02*
X14421372Y-12299460D01*
X14421372Y-12299460D02*
X14430896Y-12280412D01*
X14430896Y-12280412D02*
X14430896Y-12270888D01*
X14430896Y-12270888D02*
X14421372Y-12251841D01*
X14421372Y-12251841D02*
X14402325Y-12242317D01*
X14402325Y-12242317D02*
X14373753Y-12242317D01*
X14373753Y-12242317D02*
X14354706Y-12232793D01*
X14354706Y-12232793D02*
X14345182Y-12213746D01*
X14345182Y-12213746D02*
X14345182Y-12204222D01*
X14345182Y-12204222D02*
X14354706Y-12185174D01*
X14354706Y-12185174D02*
X14373753Y-12175650D01*
X14373753Y-12175650D02*
X14402325Y-12175650D01*
X14402325Y-12175650D02*
X14421372Y-12185174D01*
X14497563Y-12385174D02*
X14507087Y-12375650D01*
X14507087Y-12375650D02*
X14526134Y-12347079D01*
X14526134Y-12347079D02*
X14535658Y-12328031D01*
X14535658Y-12328031D02*
X14545182Y-12299460D01*
X14545182Y-12299460D02*
X14554706Y-12251841D01*
X14554706Y-12251841D02*
X14554706Y-12213746D01*
X14554706Y-12213746D02*
X14545182Y-12166127D01*
X14545182Y-12166127D02*
X14535658Y-12137555D01*
X14535658Y-12137555D02*
X14526134Y-12118508D01*
X14526134Y-12118508D02*
X14507087Y-12089936D01*
X14507087Y-12089936D02*
X14497563Y-12080412D01*
D12*
X9722500Y-12481500D02*
G75*
G02*
X9646300Y-12481500I-38100J0D01*
G01*
X9646300Y-12481500D02*
G75*
G02*
X9722500Y-12481500I38100J0D01*
G01*
D11*
X10021372Y-12372984D02*
X10040420Y-12372984D01*
X10040420Y-12372984D02*
X10059467Y-12382508D01*
X10059467Y-12382508D02*
X10068991Y-12392031D01*
X10068991Y-12392031D02*
X10078515Y-12411079D01*
X10078515Y-12411079D02*
X10088039Y-12449174D01*
X10088039Y-12449174D02*
X10088039Y-12496793D01*
X10088039Y-12496793D02*
X10078515Y-12534888D01*
X10078515Y-12534888D02*
X10068991Y-12553936D01*
X10068991Y-12553936D02*
X10059467Y-12563460D01*
X10059467Y-12563460D02*
X10040420Y-12572984D01*
X10040420Y-12572984D02*
X10021372Y-12572984D01*
X10021372Y-12572984D02*
X10002324Y-12563460D01*
X10002324Y-12563460D02*
X9992801Y-12553936D01*
X9992801Y-12553936D02*
X9983277Y-12534888D01*
X9983277Y-12534888D02*
X9973753Y-12496793D01*
X9973753Y-12496793D02*
X9973753Y-12449174D01*
X9973753Y-12449174D02*
X9983277Y-12411079D01*
X9983277Y-12411079D02*
X9992801Y-12392031D01*
X9992801Y-12392031D02*
X10002324Y-12382508D01*
X10002324Y-12382508D02*
X10021372Y-12372984D01*
X10173753Y-12553936D02*
X10183277Y-12563460D01*
X10183277Y-12563460D02*
X10173753Y-12572984D01*
X10173753Y-12572984D02*
X10164229Y-12563460D01*
X10164229Y-12563460D02*
X10173753Y-12553936D01*
X10173753Y-12553936D02*
X10173753Y-12572984D01*
X10249944Y-12372984D02*
X10383277Y-12372984D01*
X10383277Y-12372984D02*
X10297563Y-12572984D01*
X10545182Y-12372984D02*
X10507086Y-12372984D01*
X10507086Y-12372984D02*
X10488039Y-12382508D01*
X10488039Y-12382508D02*
X10478515Y-12392031D01*
X10478515Y-12392031D02*
X10459467Y-12420603D01*
X10459467Y-12420603D02*
X10449944Y-12458698D01*
X10449944Y-12458698D02*
X10449944Y-12534888D01*
X10449944Y-12534888D02*
X10459467Y-12553936D01*
X10459467Y-12553936D02*
X10468991Y-12563460D01*
X10468991Y-12563460D02*
X10488039Y-12572984D01*
X10488039Y-12572984D02*
X10526134Y-12572984D01*
X10526134Y-12572984D02*
X10545182Y-12563460D01*
X10545182Y-12563460D02*
X10554705Y-12553936D01*
X10554705Y-12553936D02*
X10564229Y-12534888D01*
X10564229Y-12534888D02*
X10564229Y-12487269D01*
X10564229Y-12487269D02*
X10554705Y-12468222D01*
X10554705Y-12468222D02*
X10545182Y-12458698D01*
X10545182Y-12458698D02*
X10526134Y-12449174D01*
X10526134Y-12449174D02*
X10488039Y-12449174D01*
X10488039Y-12449174D02*
X10468991Y-12458698D01*
X10468991Y-12458698D02*
X10459467Y-12468222D01*
X10459467Y-12468222D02*
X10449944Y-12487269D01*
X10640420Y-12392031D02*
X10649944Y-12382508D01*
X10649944Y-12382508D02*
X10668991Y-12372984D01*
X10668991Y-12372984D02*
X10716610Y-12372984D01*
X10716610Y-12372984D02*
X10735658Y-12382508D01*
X10735658Y-12382508D02*
X10745182Y-12392031D01*
X10745182Y-12392031D02*
X10754705Y-12411079D01*
X10754705Y-12411079D02*
X10754705Y-12430127D01*
X10754705Y-12430127D02*
X10745182Y-12458698D01*
X10745182Y-12458698D02*
X10630896Y-12572984D01*
X10630896Y-12572984D02*
X10754705Y-12572984D01*
X10840420Y-12572984D02*
X10840420Y-12439650D01*
X10840420Y-12458698D02*
X10849944Y-12449174D01*
X10849944Y-12449174D02*
X10868991Y-12439650D01*
X10868991Y-12439650D02*
X10897563Y-12439650D01*
X10897563Y-12439650D02*
X10916610Y-12449174D01*
X10916610Y-12449174D02*
X10926134Y-12468222D01*
X10926134Y-12468222D02*
X10926134Y-12572984D01*
X10926134Y-12468222D02*
X10935658Y-12449174D01*
X10935658Y-12449174D02*
X10954705Y-12439650D01*
X10954705Y-12439650D02*
X10983277Y-12439650D01*
X10983277Y-12439650D02*
X11002325Y-12449174D01*
X11002325Y-12449174D02*
X11011848Y-12468222D01*
X11011848Y-12468222D02*
X11011848Y-12572984D01*
X11107086Y-12572984D02*
X11107086Y-12439650D01*
X11107086Y-12458698D02*
X11116610Y-12449174D01*
X11116610Y-12449174D02*
X11135658Y-12439650D01*
X11135658Y-12439650D02*
X11164229Y-12439650D01*
X11164229Y-12439650D02*
X11183277Y-12449174D01*
X11183277Y-12449174D02*
X11192801Y-12468222D01*
X11192801Y-12468222D02*
X11192801Y-12572984D01*
X11192801Y-12468222D02*
X11202324Y-12449174D01*
X11202324Y-12449174D02*
X11221372Y-12439650D01*
X11221372Y-12439650D02*
X11249943Y-12439650D01*
X11249943Y-12439650D02*
X11268991Y-12449174D01*
X11268991Y-12449174D02*
X11278515Y-12468222D01*
X11278515Y-12468222D02*
X11278515Y-12572984D01*
X11668991Y-12363460D02*
X11497563Y-12620603D01*
X11926134Y-12372984D02*
X11945182Y-12372984D01*
X11945182Y-12372984D02*
X11964229Y-12382508D01*
X11964229Y-12382508D02*
X11973753Y-12392031D01*
X11973753Y-12392031D02*
X11983277Y-12411079D01*
X11983277Y-12411079D02*
X11992801Y-12449174D01*
X11992801Y-12449174D02*
X11992801Y-12496793D01*
X11992801Y-12496793D02*
X11983277Y-12534888D01*
X11983277Y-12534888D02*
X11973753Y-12553936D01*
X11973753Y-12553936D02*
X11964229Y-12563460D01*
X11964229Y-12563460D02*
X11945182Y-12572984D01*
X11945182Y-12572984D02*
X11926134Y-12572984D01*
X11926134Y-12572984D02*
X11907086Y-12563460D01*
X11907086Y-12563460D02*
X11897563Y-12553936D01*
X11897563Y-12553936D02*
X11888039Y-12534888D01*
X11888039Y-12534888D02*
X11878515Y-12496793D01*
X11878515Y-12496793D02*
X11878515Y-12449174D01*
X11878515Y-12449174D02*
X11888039Y-12411079D01*
X11888039Y-12411079D02*
X11897563Y-12392031D01*
X11897563Y-12392031D02*
X11907086Y-12382508D01*
X11907086Y-12382508D02*
X11926134Y-12372984D01*
X12078515Y-12553936D02*
X12088039Y-12563460D01*
X12088039Y-12563460D02*
X12078515Y-12572984D01*
X12078515Y-12572984D02*
X12068991Y-12563460D01*
X12068991Y-12563460D02*
X12078515Y-12553936D01*
X12078515Y-12553936D02*
X12078515Y-12572984D01*
X12211848Y-12372984D02*
X12230896Y-12372984D01*
X12230896Y-12372984D02*
X12249944Y-12382508D01*
X12249944Y-12382508D02*
X12259467Y-12392031D01*
X12259467Y-12392031D02*
X12268991Y-12411079D01*
X12268991Y-12411079D02*
X12278515Y-12449174D01*
X12278515Y-12449174D02*
X12278515Y-12496793D01*
X12278515Y-12496793D02*
X12268991Y-12534888D01*
X12268991Y-12534888D02*
X12259467Y-12553936D01*
X12259467Y-12553936D02*
X12249944Y-12563460D01*
X12249944Y-12563460D02*
X12230896Y-12572984D01*
X12230896Y-12572984D02*
X12211848Y-12572984D01*
X12211848Y-12572984D02*
X12192801Y-12563460D01*
X12192801Y-12563460D02*
X12183277Y-12553936D01*
X12183277Y-12553936D02*
X12173753Y-12534888D01*
X12173753Y-12534888D02*
X12164229Y-12496793D01*
X12164229Y-12496793D02*
X12164229Y-12449174D01*
X12164229Y-12449174D02*
X12173753Y-12411079D01*
X12173753Y-12411079D02*
X12183277Y-12392031D01*
X12183277Y-12392031D02*
X12192801Y-12382508D01*
X12192801Y-12382508D02*
X12211848Y-12372984D01*
X12345182Y-12372984D02*
X12468991Y-12372984D01*
X12468991Y-12372984D02*
X12402325Y-12449174D01*
X12402325Y-12449174D02*
X12430896Y-12449174D01*
X12430896Y-12449174D02*
X12449944Y-12458698D01*
X12449944Y-12458698D02*
X12459467Y-12468222D01*
X12459467Y-12468222D02*
X12468991Y-12487269D01*
X12468991Y-12487269D02*
X12468991Y-12534888D01*
X12468991Y-12534888D02*
X12459467Y-12553936D01*
X12459467Y-12553936D02*
X12449944Y-12563460D01*
X12449944Y-12563460D02*
X12430896Y-12572984D01*
X12430896Y-12572984D02*
X12373753Y-12572984D01*
X12373753Y-12572984D02*
X12354706Y-12563460D01*
X12354706Y-12563460D02*
X12345182Y-12553936D01*
X12592801Y-12372984D02*
X12611848Y-12372984D01*
X12611848Y-12372984D02*
X12630896Y-12382508D01*
X12630896Y-12382508D02*
X12640420Y-12392031D01*
X12640420Y-12392031D02*
X12649944Y-12411079D01*
X12649944Y-12411079D02*
X12659467Y-12449174D01*
X12659467Y-12449174D02*
X12659467Y-12496793D01*
X12659467Y-12496793D02*
X12649944Y-12534888D01*
X12649944Y-12534888D02*
X12640420Y-12553936D01*
X12640420Y-12553936D02*
X12630896Y-12563460D01*
X12630896Y-12563460D02*
X12611848Y-12572984D01*
X12611848Y-12572984D02*
X12592801Y-12572984D01*
X12592801Y-12572984D02*
X12573753Y-12563460D01*
X12573753Y-12563460D02*
X12564229Y-12553936D01*
X12564229Y-12553936D02*
X12554706Y-12534888D01*
X12554706Y-12534888D02*
X12545182Y-12496793D01*
X12545182Y-12496793D02*
X12545182Y-12449174D01*
X12545182Y-12449174D02*
X12554706Y-12411079D01*
X12554706Y-12411079D02*
X12564229Y-12392031D01*
X12564229Y-12392031D02*
X12573753Y-12382508D01*
X12573753Y-12382508D02*
X12592801Y-12372984D01*
X12783277Y-12372984D02*
X12802325Y-12372984D01*
X12802325Y-12372984D02*
X12821372Y-12382508D01*
X12821372Y-12382508D02*
X12830896Y-12392031D01*
X12830896Y-12392031D02*
X12840420Y-12411079D01*
X12840420Y-12411079D02*
X12849944Y-12449174D01*
X12849944Y-12449174D02*
X12849944Y-12496793D01*
X12849944Y-12496793D02*
X12840420Y-12534888D01*
X12840420Y-12534888D02*
X12830896Y-12553936D01*
X12830896Y-12553936D02*
X12821372Y-12563460D01*
X12821372Y-12563460D02*
X12802325Y-12572984D01*
X12802325Y-12572984D02*
X12783277Y-12572984D01*
X12783277Y-12572984D02*
X12764229Y-12563460D01*
X12764229Y-12563460D02*
X12754706Y-12553936D01*
X12754706Y-12553936D02*
X12745182Y-12534888D01*
X12745182Y-12534888D02*
X12735658Y-12496793D01*
X12735658Y-12496793D02*
X12735658Y-12449174D01*
X12735658Y-12449174D02*
X12745182Y-12411079D01*
X12745182Y-12411079D02*
X12754706Y-12392031D01*
X12754706Y-12392031D02*
X12764229Y-12382508D01*
X12764229Y-12382508D02*
X12783277Y-12372984D01*
X12926134Y-12372984D02*
X12926134Y-12411079D01*
X13002325Y-12372984D02*
X13002325Y-12411079D01*
X13297563Y-12649174D02*
X13288039Y-12639650D01*
X13288039Y-12639650D02*
X13268991Y-12611079D01*
X13268991Y-12611079D02*
X13259468Y-12592031D01*
X13259468Y-12592031D02*
X13249944Y-12563460D01*
X13249944Y-12563460D02*
X13240420Y-12515841D01*
X13240420Y-12515841D02*
X13240420Y-12477746D01*
X13240420Y-12477746D02*
X13249944Y-12430127D01*
X13249944Y-12430127D02*
X13259468Y-12401555D01*
X13259468Y-12401555D02*
X13268991Y-12382508D01*
X13268991Y-12382508D02*
X13288039Y-12353936D01*
X13288039Y-12353936D02*
X13297563Y-12344412D01*
X13459468Y-12439650D02*
X13459468Y-12572984D01*
X13411848Y-12363460D02*
X13364229Y-12506317D01*
X13364229Y-12506317D02*
X13488039Y-12506317D01*
X13716610Y-12572984D02*
X13716610Y-12372984D01*
X13802325Y-12572984D02*
X13802325Y-12468222D01*
X13802325Y-12468222D02*
X13792801Y-12449174D01*
X13792801Y-12449174D02*
X13773753Y-12439650D01*
X13773753Y-12439650D02*
X13745182Y-12439650D01*
X13745182Y-12439650D02*
X13726134Y-12449174D01*
X13726134Y-12449174D02*
X13716610Y-12458698D01*
X13926134Y-12572984D02*
X13907087Y-12563460D01*
X13907087Y-12563460D02*
X13897563Y-12553936D01*
X13897563Y-12553936D02*
X13888039Y-12534888D01*
X13888039Y-12534888D02*
X13888039Y-12477746D01*
X13888039Y-12477746D02*
X13897563Y-12458698D01*
X13897563Y-12458698D02*
X13907087Y-12449174D01*
X13907087Y-12449174D02*
X13926134Y-12439650D01*
X13926134Y-12439650D02*
X13954706Y-12439650D01*
X13954706Y-12439650D02*
X13973753Y-12449174D01*
X13973753Y-12449174D02*
X13983277Y-12458698D01*
X13983277Y-12458698D02*
X13992801Y-12477746D01*
X13992801Y-12477746D02*
X13992801Y-12534888D01*
X13992801Y-12534888D02*
X13983277Y-12553936D01*
X13983277Y-12553936D02*
X13973753Y-12563460D01*
X13973753Y-12563460D02*
X13954706Y-12572984D01*
X13954706Y-12572984D02*
X13926134Y-12572984D01*
X14107087Y-12572984D02*
X14088039Y-12563460D01*
X14088039Y-12563460D02*
X14078515Y-12544412D01*
X14078515Y-12544412D02*
X14078515Y-12372984D01*
X14259468Y-12563460D02*
X14240420Y-12572984D01*
X14240420Y-12572984D02*
X14202325Y-12572984D01*
X14202325Y-12572984D02*
X14183277Y-12563460D01*
X14183277Y-12563460D02*
X14173753Y-12544412D01*
X14173753Y-12544412D02*
X14173753Y-12468222D01*
X14173753Y-12468222D02*
X14183277Y-12449174D01*
X14183277Y-12449174D02*
X14202325Y-12439650D01*
X14202325Y-12439650D02*
X14240420Y-12439650D01*
X14240420Y-12439650D02*
X14259468Y-12449174D01*
X14259468Y-12449174D02*
X14268991Y-12468222D01*
X14268991Y-12468222D02*
X14268991Y-12487269D01*
X14268991Y-12487269D02*
X14173753Y-12506317D01*
X14345182Y-12563460D02*
X14364230Y-12572984D01*
X14364230Y-12572984D02*
X14402325Y-12572984D01*
X14402325Y-12572984D02*
X14421372Y-12563460D01*
X14421372Y-12563460D02*
X14430896Y-12544412D01*
X14430896Y-12544412D02*
X14430896Y-12534888D01*
X14430896Y-12534888D02*
X14421372Y-12515841D01*
X14421372Y-12515841D02*
X14402325Y-12506317D01*
X14402325Y-12506317D02*
X14373753Y-12506317D01*
X14373753Y-12506317D02*
X14354706Y-12496793D01*
X14354706Y-12496793D02*
X14345182Y-12477746D01*
X14345182Y-12477746D02*
X14345182Y-12468222D01*
X14345182Y-12468222D02*
X14354706Y-12449174D01*
X14354706Y-12449174D02*
X14373753Y-12439650D01*
X14373753Y-12439650D02*
X14402325Y-12439650D01*
X14402325Y-12439650D02*
X14421372Y-12449174D01*
X14497563Y-12649174D02*
X14507087Y-12639650D01*
X14507087Y-12639650D02*
X14526134Y-12611079D01*
X14526134Y-12611079D02*
X14535658Y-12592031D01*
X14535658Y-12592031D02*
X14545182Y-12563460D01*
X14545182Y-12563460D02*
X14554706Y-12515841D01*
X14554706Y-12515841D02*
X14554706Y-12477746D01*
X14554706Y-12477746D02*
X14545182Y-12430127D01*
X14545182Y-12430127D02*
X14535658Y-12401555D01*
X14535658Y-12401555D02*
X14526134Y-12382508D01*
X14526134Y-12382508D02*
X14507087Y-12353936D01*
X14507087Y-12353936D02*
X14497563Y-12344412D01*
D12*
X9682500Y-12705500D02*
X9682500Y-12785500D01*
X9642500Y-12745500D02*
X9722500Y-12745500D01*
D11*
X10021372Y-12636984D02*
X10040420Y-12636984D01*
X10040420Y-12636984D02*
X10059467Y-12646508D01*
X10059467Y-12646508D02*
X10068991Y-12656031D01*
X10068991Y-12656031D02*
X10078515Y-12675079D01*
X10078515Y-12675079D02*
X10088039Y-12713174D01*
X10088039Y-12713174D02*
X10088039Y-12760793D01*
X10088039Y-12760793D02*
X10078515Y-12798888D01*
X10078515Y-12798888D02*
X10068991Y-12817936D01*
X10068991Y-12817936D02*
X10059467Y-12827460D01*
X10059467Y-12827460D02*
X10040420Y-12836984D01*
X10040420Y-12836984D02*
X10021372Y-12836984D01*
X10021372Y-12836984D02*
X10002324Y-12827460D01*
X10002324Y-12827460D02*
X9992801Y-12817936D01*
X9992801Y-12817936D02*
X9983277Y-12798888D01*
X9983277Y-12798888D02*
X9973753Y-12760793D01*
X9973753Y-12760793D02*
X9973753Y-12713174D01*
X9973753Y-12713174D02*
X9983277Y-12675079D01*
X9983277Y-12675079D02*
X9992801Y-12656031D01*
X9992801Y-12656031D02*
X10002324Y-12646508D01*
X10002324Y-12646508D02*
X10021372Y-12636984D01*
X10173753Y-12817936D02*
X10183277Y-12827460D01*
X10183277Y-12827460D02*
X10173753Y-12836984D01*
X10173753Y-12836984D02*
X10164229Y-12827460D01*
X10164229Y-12827460D02*
X10173753Y-12817936D01*
X10173753Y-12817936D02*
X10173753Y-12836984D01*
X10297563Y-12722698D02*
X10278515Y-12713174D01*
X10278515Y-12713174D02*
X10268991Y-12703650D01*
X10268991Y-12703650D02*
X10259467Y-12684603D01*
X10259467Y-12684603D02*
X10259467Y-12675079D01*
X10259467Y-12675079D02*
X10268991Y-12656031D01*
X10268991Y-12656031D02*
X10278515Y-12646508D01*
X10278515Y-12646508D02*
X10297563Y-12636984D01*
X10297563Y-12636984D02*
X10335658Y-12636984D01*
X10335658Y-12636984D02*
X10354705Y-12646508D01*
X10354705Y-12646508D02*
X10364229Y-12656031D01*
X10364229Y-12656031D02*
X10373753Y-12675079D01*
X10373753Y-12675079D02*
X10373753Y-12684603D01*
X10373753Y-12684603D02*
X10364229Y-12703650D01*
X10364229Y-12703650D02*
X10354705Y-12713174D01*
X10354705Y-12713174D02*
X10335658Y-12722698D01*
X10335658Y-12722698D02*
X10297563Y-12722698D01*
X10297563Y-12722698D02*
X10278515Y-12732222D01*
X10278515Y-12732222D02*
X10268991Y-12741746D01*
X10268991Y-12741746D02*
X10259467Y-12760793D01*
X10259467Y-12760793D02*
X10259467Y-12798888D01*
X10259467Y-12798888D02*
X10268991Y-12817936D01*
X10268991Y-12817936D02*
X10278515Y-12827460D01*
X10278515Y-12827460D02*
X10297563Y-12836984D01*
X10297563Y-12836984D02*
X10335658Y-12836984D01*
X10335658Y-12836984D02*
X10354705Y-12827460D01*
X10354705Y-12827460D02*
X10364229Y-12817936D01*
X10364229Y-12817936D02*
X10373753Y-12798888D01*
X10373753Y-12798888D02*
X10373753Y-12760793D01*
X10373753Y-12760793D02*
X10364229Y-12741746D01*
X10364229Y-12741746D02*
X10354705Y-12732222D01*
X10354705Y-12732222D02*
X10335658Y-12722698D01*
X10497563Y-12636984D02*
X10516610Y-12636984D01*
X10516610Y-12636984D02*
X10535658Y-12646508D01*
X10535658Y-12646508D02*
X10545182Y-12656031D01*
X10545182Y-12656031D02*
X10554705Y-12675079D01*
X10554705Y-12675079D02*
X10564229Y-12713174D01*
X10564229Y-12713174D02*
X10564229Y-12760793D01*
X10564229Y-12760793D02*
X10554705Y-12798888D01*
X10554705Y-12798888D02*
X10545182Y-12817936D01*
X10545182Y-12817936D02*
X10535658Y-12827460D01*
X10535658Y-12827460D02*
X10516610Y-12836984D01*
X10516610Y-12836984D02*
X10497563Y-12836984D01*
X10497563Y-12836984D02*
X10478515Y-12827460D01*
X10478515Y-12827460D02*
X10468991Y-12817936D01*
X10468991Y-12817936D02*
X10459467Y-12798888D01*
X10459467Y-12798888D02*
X10449944Y-12760793D01*
X10449944Y-12760793D02*
X10449944Y-12713174D01*
X10449944Y-12713174D02*
X10459467Y-12675079D01*
X10459467Y-12675079D02*
X10468991Y-12656031D01*
X10468991Y-12656031D02*
X10478515Y-12646508D01*
X10478515Y-12646508D02*
X10497563Y-12636984D01*
X10688039Y-12636984D02*
X10707086Y-12636984D01*
X10707086Y-12636984D02*
X10726134Y-12646508D01*
X10726134Y-12646508D02*
X10735658Y-12656031D01*
X10735658Y-12656031D02*
X10745182Y-12675079D01*
X10745182Y-12675079D02*
X10754705Y-12713174D01*
X10754705Y-12713174D02*
X10754705Y-12760793D01*
X10754705Y-12760793D02*
X10745182Y-12798888D01*
X10745182Y-12798888D02*
X10735658Y-12817936D01*
X10735658Y-12817936D02*
X10726134Y-12827460D01*
X10726134Y-12827460D02*
X10707086Y-12836984D01*
X10707086Y-12836984D02*
X10688039Y-12836984D01*
X10688039Y-12836984D02*
X10668991Y-12827460D01*
X10668991Y-12827460D02*
X10659467Y-12817936D01*
X10659467Y-12817936D02*
X10649944Y-12798888D01*
X10649944Y-12798888D02*
X10640420Y-12760793D01*
X10640420Y-12760793D02*
X10640420Y-12713174D01*
X10640420Y-12713174D02*
X10649944Y-12675079D01*
X10649944Y-12675079D02*
X10659467Y-12656031D01*
X10659467Y-12656031D02*
X10668991Y-12646508D01*
X10668991Y-12646508D02*
X10688039Y-12636984D01*
X10840420Y-12836984D02*
X10840420Y-12703650D01*
X10840420Y-12722698D02*
X10849944Y-12713174D01*
X10849944Y-12713174D02*
X10868991Y-12703650D01*
X10868991Y-12703650D02*
X10897563Y-12703650D01*
X10897563Y-12703650D02*
X10916610Y-12713174D01*
X10916610Y-12713174D02*
X10926134Y-12732222D01*
X10926134Y-12732222D02*
X10926134Y-12836984D01*
X10926134Y-12732222D02*
X10935658Y-12713174D01*
X10935658Y-12713174D02*
X10954705Y-12703650D01*
X10954705Y-12703650D02*
X10983277Y-12703650D01*
X10983277Y-12703650D02*
X11002325Y-12713174D01*
X11002325Y-12713174D02*
X11011848Y-12732222D01*
X11011848Y-12732222D02*
X11011848Y-12836984D01*
X11107086Y-12836984D02*
X11107086Y-12703650D01*
X11107086Y-12722698D02*
X11116610Y-12713174D01*
X11116610Y-12713174D02*
X11135658Y-12703650D01*
X11135658Y-12703650D02*
X11164229Y-12703650D01*
X11164229Y-12703650D02*
X11183277Y-12713174D01*
X11183277Y-12713174D02*
X11192801Y-12732222D01*
X11192801Y-12732222D02*
X11192801Y-12836984D01*
X11192801Y-12732222D02*
X11202324Y-12713174D01*
X11202324Y-12713174D02*
X11221372Y-12703650D01*
X11221372Y-12703650D02*
X11249943Y-12703650D01*
X11249943Y-12703650D02*
X11268991Y-12713174D01*
X11268991Y-12713174D02*
X11278515Y-12732222D01*
X11278515Y-12732222D02*
X11278515Y-12836984D01*
X11668991Y-12627460D02*
X11497563Y-12884603D01*
X11926134Y-12636984D02*
X11945182Y-12636984D01*
X11945182Y-12636984D02*
X11964229Y-12646508D01*
X11964229Y-12646508D02*
X11973753Y-12656031D01*
X11973753Y-12656031D02*
X11983277Y-12675079D01*
X11983277Y-12675079D02*
X11992801Y-12713174D01*
X11992801Y-12713174D02*
X11992801Y-12760793D01*
X11992801Y-12760793D02*
X11983277Y-12798888D01*
X11983277Y-12798888D02*
X11973753Y-12817936D01*
X11973753Y-12817936D02*
X11964229Y-12827460D01*
X11964229Y-12827460D02*
X11945182Y-12836984D01*
X11945182Y-12836984D02*
X11926134Y-12836984D01*
X11926134Y-12836984D02*
X11907086Y-12827460D01*
X11907086Y-12827460D02*
X11897563Y-12817936D01*
X11897563Y-12817936D02*
X11888039Y-12798888D01*
X11888039Y-12798888D02*
X11878515Y-12760793D01*
X11878515Y-12760793D02*
X11878515Y-12713174D01*
X11878515Y-12713174D02*
X11888039Y-12675079D01*
X11888039Y-12675079D02*
X11897563Y-12656031D01*
X11897563Y-12656031D02*
X11907086Y-12646508D01*
X11907086Y-12646508D02*
X11926134Y-12636984D01*
X12078515Y-12817936D02*
X12088039Y-12827460D01*
X12088039Y-12827460D02*
X12078515Y-12836984D01*
X12078515Y-12836984D02*
X12068991Y-12827460D01*
X12068991Y-12827460D02*
X12078515Y-12817936D01*
X12078515Y-12817936D02*
X12078515Y-12836984D01*
X12211848Y-12636984D02*
X12230896Y-12636984D01*
X12230896Y-12636984D02*
X12249944Y-12646508D01*
X12249944Y-12646508D02*
X12259467Y-12656031D01*
X12259467Y-12656031D02*
X12268991Y-12675079D01*
X12268991Y-12675079D02*
X12278515Y-12713174D01*
X12278515Y-12713174D02*
X12278515Y-12760793D01*
X12278515Y-12760793D02*
X12268991Y-12798888D01*
X12268991Y-12798888D02*
X12259467Y-12817936D01*
X12259467Y-12817936D02*
X12249944Y-12827460D01*
X12249944Y-12827460D02*
X12230896Y-12836984D01*
X12230896Y-12836984D02*
X12211848Y-12836984D01*
X12211848Y-12836984D02*
X12192801Y-12827460D01*
X12192801Y-12827460D02*
X12183277Y-12817936D01*
X12183277Y-12817936D02*
X12173753Y-12798888D01*
X12173753Y-12798888D02*
X12164229Y-12760793D01*
X12164229Y-12760793D02*
X12164229Y-12713174D01*
X12164229Y-12713174D02*
X12173753Y-12675079D01*
X12173753Y-12675079D02*
X12183277Y-12656031D01*
X12183277Y-12656031D02*
X12192801Y-12646508D01*
X12192801Y-12646508D02*
X12211848Y-12636984D01*
X12345182Y-12636984D02*
X12468991Y-12636984D01*
X12468991Y-12636984D02*
X12402325Y-12713174D01*
X12402325Y-12713174D02*
X12430896Y-12713174D01*
X12430896Y-12713174D02*
X12449944Y-12722698D01*
X12449944Y-12722698D02*
X12459467Y-12732222D01*
X12459467Y-12732222D02*
X12468991Y-12751269D01*
X12468991Y-12751269D02*
X12468991Y-12798888D01*
X12468991Y-12798888D02*
X12459467Y-12817936D01*
X12459467Y-12817936D02*
X12449944Y-12827460D01*
X12449944Y-12827460D02*
X12430896Y-12836984D01*
X12430896Y-12836984D02*
X12373753Y-12836984D01*
X12373753Y-12836984D02*
X12354706Y-12827460D01*
X12354706Y-12827460D02*
X12345182Y-12817936D01*
X12659467Y-12836984D02*
X12545182Y-12836984D01*
X12602325Y-12836984D02*
X12602325Y-12636984D01*
X12602325Y-12636984D02*
X12583277Y-12665555D01*
X12583277Y-12665555D02*
X12564229Y-12684603D01*
X12564229Y-12684603D02*
X12545182Y-12694127D01*
X12840420Y-12636984D02*
X12745182Y-12636984D01*
X12745182Y-12636984D02*
X12735658Y-12732222D01*
X12735658Y-12732222D02*
X12745182Y-12722698D01*
X12745182Y-12722698D02*
X12764229Y-12713174D01*
X12764229Y-12713174D02*
X12811848Y-12713174D01*
X12811848Y-12713174D02*
X12830896Y-12722698D01*
X12830896Y-12722698D02*
X12840420Y-12732222D01*
X12840420Y-12732222D02*
X12849944Y-12751269D01*
X12849944Y-12751269D02*
X12849944Y-12798888D01*
X12849944Y-12798888D02*
X12840420Y-12817936D01*
X12840420Y-12817936D02*
X12830896Y-12827460D01*
X12830896Y-12827460D02*
X12811848Y-12836984D01*
X12811848Y-12836984D02*
X12764229Y-12836984D01*
X12764229Y-12836984D02*
X12745182Y-12827460D01*
X12745182Y-12827460D02*
X12735658Y-12817936D01*
X12926134Y-12636984D02*
X12926134Y-12675079D01*
X13002325Y-12636984D02*
X13002325Y-12675079D01*
X13297563Y-12913174D02*
X13288039Y-12903650D01*
X13288039Y-12903650D02*
X13268991Y-12875079D01*
X13268991Y-12875079D02*
X13259468Y-12856031D01*
X13259468Y-12856031D02*
X13249944Y-12827460D01*
X13249944Y-12827460D02*
X13240420Y-12779841D01*
X13240420Y-12779841D02*
X13240420Y-12741746D01*
X13240420Y-12741746D02*
X13249944Y-12694127D01*
X13249944Y-12694127D02*
X13259468Y-12665555D01*
X13259468Y-12665555D02*
X13268991Y-12646508D01*
X13268991Y-12646508D02*
X13288039Y-12617936D01*
X13288039Y-12617936D02*
X13297563Y-12608412D01*
X13364229Y-12656031D02*
X13373753Y-12646508D01*
X13373753Y-12646508D02*
X13392801Y-12636984D01*
X13392801Y-12636984D02*
X13440420Y-12636984D01*
X13440420Y-12636984D02*
X13459468Y-12646508D01*
X13459468Y-12646508D02*
X13468991Y-12656031D01*
X13468991Y-12656031D02*
X13478515Y-12675079D01*
X13478515Y-12675079D02*
X13478515Y-12694127D01*
X13478515Y-12694127D02*
X13468991Y-12722698D01*
X13468991Y-12722698D02*
X13354706Y-12836984D01*
X13354706Y-12836984D02*
X13478515Y-12836984D01*
X13668991Y-12836984D02*
X13554706Y-12836984D01*
X13611848Y-12836984D02*
X13611848Y-12636984D01*
X13611848Y-12636984D02*
X13592801Y-12665555D01*
X13592801Y-12665555D02*
X13573753Y-12684603D01*
X13573753Y-12684603D02*
X13554706Y-12694127D01*
X13907087Y-12836984D02*
X13907087Y-12636984D01*
X13992801Y-12836984D02*
X13992801Y-12732222D01*
X13992801Y-12732222D02*
X13983277Y-12713174D01*
X13983277Y-12713174D02*
X13964230Y-12703650D01*
X13964230Y-12703650D02*
X13935658Y-12703650D01*
X13935658Y-12703650D02*
X13916610Y-12713174D01*
X13916610Y-12713174D02*
X13907087Y-12722698D01*
X14116610Y-12836984D02*
X14097563Y-12827460D01*
X14097563Y-12827460D02*
X14088039Y-12817936D01*
X14088039Y-12817936D02*
X14078515Y-12798888D01*
X14078515Y-12798888D02*
X14078515Y-12741746D01*
X14078515Y-12741746D02*
X14088039Y-12722698D01*
X14088039Y-12722698D02*
X14097563Y-12713174D01*
X14097563Y-12713174D02*
X14116610Y-12703650D01*
X14116610Y-12703650D02*
X14145182Y-12703650D01*
X14145182Y-12703650D02*
X14164230Y-12713174D01*
X14164230Y-12713174D02*
X14173753Y-12722698D01*
X14173753Y-12722698D02*
X14183277Y-12741746D01*
X14183277Y-12741746D02*
X14183277Y-12798888D01*
X14183277Y-12798888D02*
X14173753Y-12817936D01*
X14173753Y-12817936D02*
X14164230Y-12827460D01*
X14164230Y-12827460D02*
X14145182Y-12836984D01*
X14145182Y-12836984D02*
X14116610Y-12836984D01*
X14297563Y-12836984D02*
X14278515Y-12827460D01*
X14278515Y-12827460D02*
X14268991Y-12808412D01*
X14268991Y-12808412D02*
X14268991Y-12636984D01*
X14449944Y-12827460D02*
X14430896Y-12836984D01*
X14430896Y-12836984D02*
X14392801Y-12836984D01*
X14392801Y-12836984D02*
X14373753Y-12827460D01*
X14373753Y-12827460D02*
X14364230Y-12808412D01*
X14364230Y-12808412D02*
X14364230Y-12732222D01*
X14364230Y-12732222D02*
X14373753Y-12713174D01*
X14373753Y-12713174D02*
X14392801Y-12703650D01*
X14392801Y-12703650D02*
X14430896Y-12703650D01*
X14430896Y-12703650D02*
X14449944Y-12713174D01*
X14449944Y-12713174D02*
X14459468Y-12732222D01*
X14459468Y-12732222D02*
X14459468Y-12751269D01*
X14459468Y-12751269D02*
X14364230Y-12770317D01*
X14535658Y-12827460D02*
X14554706Y-12836984D01*
X14554706Y-12836984D02*
X14592801Y-12836984D01*
X14592801Y-12836984D02*
X14611849Y-12827460D01*
X14611849Y-12827460D02*
X14621372Y-12808412D01*
X14621372Y-12808412D02*
X14621372Y-12798888D01*
X14621372Y-12798888D02*
X14611849Y-12779841D01*
X14611849Y-12779841D02*
X14592801Y-12770317D01*
X14592801Y-12770317D02*
X14564230Y-12770317D01*
X14564230Y-12770317D02*
X14545182Y-12760793D01*
X14545182Y-12760793D02*
X14535658Y-12741746D01*
X14535658Y-12741746D02*
X14535658Y-12732222D01*
X14535658Y-12732222D02*
X14545182Y-12713174D01*
X14545182Y-12713174D02*
X14564230Y-12703650D01*
X14564230Y-12703650D02*
X14592801Y-12703650D01*
X14592801Y-12703650D02*
X14611849Y-12713174D01*
X14688039Y-12913174D02*
X14697563Y-12903650D01*
X14697563Y-12903650D02*
X14716611Y-12875079D01*
X14716611Y-12875079D02*
X14726134Y-12856031D01*
X14726134Y-12856031D02*
X14735658Y-12827460D01*
X14735658Y-12827460D02*
X14745182Y-12779841D01*
X14745182Y-12779841D02*
X14745182Y-12741746D01*
X14745182Y-12741746D02*
X14735658Y-12694127D01*
X14735658Y-12694127D02*
X14726134Y-12665555D01*
X14726134Y-12665555D02*
X14716611Y-12646508D01*
X14716611Y-12646508D02*
X14697563Y-12617936D01*
X14697563Y-12617936D02*
X14688039Y-12608412D01*
D12*
X9710199Y-13039199D02*
X9710199Y-12979801D01*
X9650801Y-12979801D01*
X9650801Y-13039199D01*
X9710199Y-13039199D01*
D11*
X10021372Y-12900984D02*
X10040420Y-12900984D01*
X10040420Y-12900984D02*
X10059467Y-12910508D01*
X10059467Y-12910508D02*
X10068991Y-12920031D01*
X10068991Y-12920031D02*
X10078515Y-12939079D01*
X10078515Y-12939079D02*
X10088039Y-12977174D01*
X10088039Y-12977174D02*
X10088039Y-13024793D01*
X10088039Y-13024793D02*
X10078515Y-13062888D01*
X10078515Y-13062888D02*
X10068991Y-13081936D01*
X10068991Y-13081936D02*
X10059467Y-13091460D01*
X10059467Y-13091460D02*
X10040420Y-13100984D01*
X10040420Y-13100984D02*
X10021372Y-13100984D01*
X10021372Y-13100984D02*
X10002324Y-13091460D01*
X10002324Y-13091460D02*
X9992801Y-13081936D01*
X9992801Y-13081936D02*
X9983277Y-13062888D01*
X9983277Y-13062888D02*
X9973753Y-13024793D01*
X9973753Y-13024793D02*
X9973753Y-12977174D01*
X9973753Y-12977174D02*
X9983277Y-12939079D01*
X9983277Y-12939079D02*
X9992801Y-12920031D01*
X9992801Y-12920031D02*
X10002324Y-12910508D01*
X10002324Y-12910508D02*
X10021372Y-12900984D01*
X10173753Y-13081936D02*
X10183277Y-13091460D01*
X10183277Y-13091460D02*
X10173753Y-13100984D01*
X10173753Y-13100984D02*
X10164229Y-13091460D01*
X10164229Y-13091460D02*
X10173753Y-13081936D01*
X10173753Y-13081936D02*
X10173753Y-13100984D01*
X10297563Y-12986698D02*
X10278515Y-12977174D01*
X10278515Y-12977174D02*
X10268991Y-12967650D01*
X10268991Y-12967650D02*
X10259467Y-12948603D01*
X10259467Y-12948603D02*
X10259467Y-12939079D01*
X10259467Y-12939079D02*
X10268991Y-12920031D01*
X10268991Y-12920031D02*
X10278515Y-12910508D01*
X10278515Y-12910508D02*
X10297563Y-12900984D01*
X10297563Y-12900984D02*
X10335658Y-12900984D01*
X10335658Y-12900984D02*
X10354705Y-12910508D01*
X10354705Y-12910508D02*
X10364229Y-12920031D01*
X10364229Y-12920031D02*
X10373753Y-12939079D01*
X10373753Y-12939079D02*
X10373753Y-12948603D01*
X10373753Y-12948603D02*
X10364229Y-12967650D01*
X10364229Y-12967650D02*
X10354705Y-12977174D01*
X10354705Y-12977174D02*
X10335658Y-12986698D01*
X10335658Y-12986698D02*
X10297563Y-12986698D01*
X10297563Y-12986698D02*
X10278515Y-12996222D01*
X10278515Y-12996222D02*
X10268991Y-13005746D01*
X10268991Y-13005746D02*
X10259467Y-13024793D01*
X10259467Y-13024793D02*
X10259467Y-13062888D01*
X10259467Y-13062888D02*
X10268991Y-13081936D01*
X10268991Y-13081936D02*
X10278515Y-13091460D01*
X10278515Y-13091460D02*
X10297563Y-13100984D01*
X10297563Y-13100984D02*
X10335658Y-13100984D01*
X10335658Y-13100984D02*
X10354705Y-13091460D01*
X10354705Y-13091460D02*
X10364229Y-13081936D01*
X10364229Y-13081936D02*
X10373753Y-13062888D01*
X10373753Y-13062888D02*
X10373753Y-13024793D01*
X10373753Y-13024793D02*
X10364229Y-13005746D01*
X10364229Y-13005746D02*
X10354705Y-12996222D01*
X10354705Y-12996222D02*
X10335658Y-12986698D01*
X10545182Y-12967650D02*
X10545182Y-13100984D01*
X10497563Y-12891460D02*
X10449944Y-13034317D01*
X10449944Y-13034317D02*
X10573753Y-13034317D01*
X10688039Y-12900984D02*
X10707086Y-12900984D01*
X10707086Y-12900984D02*
X10726134Y-12910508D01*
X10726134Y-12910508D02*
X10735658Y-12920031D01*
X10735658Y-12920031D02*
X10745182Y-12939079D01*
X10745182Y-12939079D02*
X10754705Y-12977174D01*
X10754705Y-12977174D02*
X10754705Y-13024793D01*
X10754705Y-13024793D02*
X10745182Y-13062888D01*
X10745182Y-13062888D02*
X10735658Y-13081936D01*
X10735658Y-13081936D02*
X10726134Y-13091460D01*
X10726134Y-13091460D02*
X10707086Y-13100984D01*
X10707086Y-13100984D02*
X10688039Y-13100984D01*
X10688039Y-13100984D02*
X10668991Y-13091460D01*
X10668991Y-13091460D02*
X10659467Y-13081936D01*
X10659467Y-13081936D02*
X10649944Y-13062888D01*
X10649944Y-13062888D02*
X10640420Y-13024793D01*
X10640420Y-13024793D02*
X10640420Y-12977174D01*
X10640420Y-12977174D02*
X10649944Y-12939079D01*
X10649944Y-12939079D02*
X10659467Y-12920031D01*
X10659467Y-12920031D02*
X10668991Y-12910508D01*
X10668991Y-12910508D02*
X10688039Y-12900984D01*
X10840420Y-13100984D02*
X10840420Y-12967650D01*
X10840420Y-12986698D02*
X10849944Y-12977174D01*
X10849944Y-12977174D02*
X10868991Y-12967650D01*
X10868991Y-12967650D02*
X10897563Y-12967650D01*
X10897563Y-12967650D02*
X10916610Y-12977174D01*
X10916610Y-12977174D02*
X10926134Y-12996222D01*
X10926134Y-12996222D02*
X10926134Y-13100984D01*
X10926134Y-12996222D02*
X10935658Y-12977174D01*
X10935658Y-12977174D02*
X10954705Y-12967650D01*
X10954705Y-12967650D02*
X10983277Y-12967650D01*
X10983277Y-12967650D02*
X11002325Y-12977174D01*
X11002325Y-12977174D02*
X11011848Y-12996222D01*
X11011848Y-12996222D02*
X11011848Y-13100984D01*
X11107086Y-13100984D02*
X11107086Y-12967650D01*
X11107086Y-12986698D02*
X11116610Y-12977174D01*
X11116610Y-12977174D02*
X11135658Y-12967650D01*
X11135658Y-12967650D02*
X11164229Y-12967650D01*
X11164229Y-12967650D02*
X11183277Y-12977174D01*
X11183277Y-12977174D02*
X11192801Y-12996222D01*
X11192801Y-12996222D02*
X11192801Y-13100984D01*
X11192801Y-12996222D02*
X11202324Y-12977174D01*
X11202324Y-12977174D02*
X11221372Y-12967650D01*
X11221372Y-12967650D02*
X11249943Y-12967650D01*
X11249943Y-12967650D02*
X11268991Y-12977174D01*
X11268991Y-12977174D02*
X11278515Y-12996222D01*
X11278515Y-12996222D02*
X11278515Y-13100984D01*
X11668991Y-12891460D02*
X11497563Y-13148603D01*
X11926134Y-12900984D02*
X11945182Y-12900984D01*
X11945182Y-12900984D02*
X11964229Y-12910508D01*
X11964229Y-12910508D02*
X11973753Y-12920031D01*
X11973753Y-12920031D02*
X11983277Y-12939079D01*
X11983277Y-12939079D02*
X11992801Y-12977174D01*
X11992801Y-12977174D02*
X11992801Y-13024793D01*
X11992801Y-13024793D02*
X11983277Y-13062888D01*
X11983277Y-13062888D02*
X11973753Y-13081936D01*
X11973753Y-13081936D02*
X11964229Y-13091460D01*
X11964229Y-13091460D02*
X11945182Y-13100984D01*
X11945182Y-13100984D02*
X11926134Y-13100984D01*
X11926134Y-13100984D02*
X11907086Y-13091460D01*
X11907086Y-13091460D02*
X11897563Y-13081936D01*
X11897563Y-13081936D02*
X11888039Y-13062888D01*
X11888039Y-13062888D02*
X11878515Y-13024793D01*
X11878515Y-13024793D02*
X11878515Y-12977174D01*
X11878515Y-12977174D02*
X11888039Y-12939079D01*
X11888039Y-12939079D02*
X11897563Y-12920031D01*
X11897563Y-12920031D02*
X11907086Y-12910508D01*
X11907086Y-12910508D02*
X11926134Y-12900984D01*
X12078515Y-13081936D02*
X12088039Y-13091460D01*
X12088039Y-13091460D02*
X12078515Y-13100984D01*
X12078515Y-13100984D02*
X12068991Y-13091460D01*
X12068991Y-13091460D02*
X12078515Y-13081936D01*
X12078515Y-13081936D02*
X12078515Y-13100984D01*
X12211848Y-12900984D02*
X12230896Y-12900984D01*
X12230896Y-12900984D02*
X12249944Y-12910508D01*
X12249944Y-12910508D02*
X12259467Y-12920031D01*
X12259467Y-12920031D02*
X12268991Y-12939079D01*
X12268991Y-12939079D02*
X12278515Y-12977174D01*
X12278515Y-12977174D02*
X12278515Y-13024793D01*
X12278515Y-13024793D02*
X12268991Y-13062888D01*
X12268991Y-13062888D02*
X12259467Y-13081936D01*
X12259467Y-13081936D02*
X12249944Y-13091460D01*
X12249944Y-13091460D02*
X12230896Y-13100984D01*
X12230896Y-13100984D02*
X12211848Y-13100984D01*
X12211848Y-13100984D02*
X12192801Y-13091460D01*
X12192801Y-13091460D02*
X12183277Y-13081936D01*
X12183277Y-13081936D02*
X12173753Y-13062888D01*
X12173753Y-13062888D02*
X12164229Y-13024793D01*
X12164229Y-13024793D02*
X12164229Y-12977174D01*
X12164229Y-12977174D02*
X12173753Y-12939079D01*
X12173753Y-12939079D02*
X12183277Y-12920031D01*
X12183277Y-12920031D02*
X12192801Y-12910508D01*
X12192801Y-12910508D02*
X12211848Y-12900984D01*
X12345182Y-12900984D02*
X12468991Y-12900984D01*
X12468991Y-12900984D02*
X12402325Y-12977174D01*
X12402325Y-12977174D02*
X12430896Y-12977174D01*
X12430896Y-12977174D02*
X12449944Y-12986698D01*
X12449944Y-12986698D02*
X12459467Y-12996222D01*
X12459467Y-12996222D02*
X12468991Y-13015269D01*
X12468991Y-13015269D02*
X12468991Y-13062888D01*
X12468991Y-13062888D02*
X12459467Y-13081936D01*
X12459467Y-13081936D02*
X12449944Y-13091460D01*
X12449944Y-13091460D02*
X12430896Y-13100984D01*
X12430896Y-13100984D02*
X12373753Y-13100984D01*
X12373753Y-13100984D02*
X12354706Y-13091460D01*
X12354706Y-13091460D02*
X12345182Y-13081936D01*
X12535658Y-12900984D02*
X12659467Y-12900984D01*
X12659467Y-12900984D02*
X12592801Y-12977174D01*
X12592801Y-12977174D02*
X12621372Y-12977174D01*
X12621372Y-12977174D02*
X12640420Y-12986698D01*
X12640420Y-12986698D02*
X12649944Y-12996222D01*
X12649944Y-12996222D02*
X12659467Y-13015269D01*
X12659467Y-13015269D02*
X12659467Y-13062888D01*
X12659467Y-13062888D02*
X12649944Y-13081936D01*
X12649944Y-13081936D02*
X12640420Y-13091460D01*
X12640420Y-13091460D02*
X12621372Y-13100984D01*
X12621372Y-13100984D02*
X12564229Y-13100984D01*
X12564229Y-13100984D02*
X12545182Y-13091460D01*
X12545182Y-13091460D02*
X12535658Y-13081936D01*
X12849944Y-13100984D02*
X12735658Y-13100984D01*
X12792801Y-13100984D02*
X12792801Y-12900984D01*
X12792801Y-12900984D02*
X12773753Y-12929555D01*
X12773753Y-12929555D02*
X12754706Y-12948603D01*
X12754706Y-12948603D02*
X12735658Y-12958127D01*
X12926134Y-12900984D02*
X12926134Y-12939079D01*
X13002325Y-12900984D02*
X13002325Y-12939079D01*
X13297563Y-13177174D02*
X13288039Y-13167650D01*
X13288039Y-13167650D02*
X13268991Y-13139079D01*
X13268991Y-13139079D02*
X13259468Y-13120031D01*
X13259468Y-13120031D02*
X13249944Y-13091460D01*
X13249944Y-13091460D02*
X13240420Y-13043841D01*
X13240420Y-13043841D02*
X13240420Y-13005746D01*
X13240420Y-13005746D02*
X13249944Y-12958127D01*
X13249944Y-12958127D02*
X13259468Y-12929555D01*
X13259468Y-12929555D02*
X13268991Y-12910508D01*
X13268991Y-12910508D02*
X13288039Y-12881936D01*
X13288039Y-12881936D02*
X13297563Y-12872412D01*
X13478515Y-13100984D02*
X13364229Y-13100984D01*
X13421372Y-13100984D02*
X13421372Y-12900984D01*
X13421372Y-12900984D02*
X13402325Y-12929555D01*
X13402325Y-12929555D02*
X13383277Y-12948603D01*
X13383277Y-12948603D02*
X13364229Y-12958127D01*
X13649944Y-12900984D02*
X13611848Y-12900984D01*
X13611848Y-12900984D02*
X13592801Y-12910508D01*
X13592801Y-12910508D02*
X13583277Y-12920031D01*
X13583277Y-12920031D02*
X13564229Y-12948603D01*
X13564229Y-12948603D02*
X13554706Y-12986698D01*
X13554706Y-12986698D02*
X13554706Y-13062888D01*
X13554706Y-13062888D02*
X13564229Y-13081936D01*
X13564229Y-13081936D02*
X13573753Y-13091460D01*
X13573753Y-13091460D02*
X13592801Y-13100984D01*
X13592801Y-13100984D02*
X13630896Y-13100984D01*
X13630896Y-13100984D02*
X13649944Y-13091460D01*
X13649944Y-13091460D02*
X13659468Y-13081936D01*
X13659468Y-13081936D02*
X13668991Y-13062888D01*
X13668991Y-13062888D02*
X13668991Y-13015269D01*
X13668991Y-13015269D02*
X13659468Y-12996222D01*
X13659468Y-12996222D02*
X13649944Y-12986698D01*
X13649944Y-12986698D02*
X13630896Y-12977174D01*
X13630896Y-12977174D02*
X13592801Y-12977174D01*
X13592801Y-12977174D02*
X13573753Y-12986698D01*
X13573753Y-12986698D02*
X13564229Y-12996222D01*
X13564229Y-12996222D02*
X13554706Y-13015269D01*
X13907087Y-13100984D02*
X13907087Y-12900984D01*
X13992801Y-13100984D02*
X13992801Y-12996222D01*
X13992801Y-12996222D02*
X13983277Y-12977174D01*
X13983277Y-12977174D02*
X13964230Y-12967650D01*
X13964230Y-12967650D02*
X13935658Y-12967650D01*
X13935658Y-12967650D02*
X13916610Y-12977174D01*
X13916610Y-12977174D02*
X13907087Y-12986698D01*
X14116610Y-13100984D02*
X14097563Y-13091460D01*
X14097563Y-13091460D02*
X14088039Y-13081936D01*
X14088039Y-13081936D02*
X14078515Y-13062888D01*
X14078515Y-13062888D02*
X14078515Y-13005746D01*
X14078515Y-13005746D02*
X14088039Y-12986698D01*
X14088039Y-12986698D02*
X14097563Y-12977174D01*
X14097563Y-12977174D02*
X14116610Y-12967650D01*
X14116610Y-12967650D02*
X14145182Y-12967650D01*
X14145182Y-12967650D02*
X14164230Y-12977174D01*
X14164230Y-12977174D02*
X14173753Y-12986698D01*
X14173753Y-12986698D02*
X14183277Y-13005746D01*
X14183277Y-13005746D02*
X14183277Y-13062888D01*
X14183277Y-13062888D02*
X14173753Y-13081936D01*
X14173753Y-13081936D02*
X14164230Y-13091460D01*
X14164230Y-13091460D02*
X14145182Y-13100984D01*
X14145182Y-13100984D02*
X14116610Y-13100984D01*
X14297563Y-13100984D02*
X14278515Y-13091460D01*
X14278515Y-13091460D02*
X14268991Y-13072412D01*
X14268991Y-13072412D02*
X14268991Y-12900984D01*
X14449944Y-13091460D02*
X14430896Y-13100984D01*
X14430896Y-13100984D02*
X14392801Y-13100984D01*
X14392801Y-13100984D02*
X14373753Y-13091460D01*
X14373753Y-13091460D02*
X14364230Y-13072412D01*
X14364230Y-13072412D02*
X14364230Y-12996222D01*
X14364230Y-12996222D02*
X14373753Y-12977174D01*
X14373753Y-12977174D02*
X14392801Y-12967650D01*
X14392801Y-12967650D02*
X14430896Y-12967650D01*
X14430896Y-12967650D02*
X14449944Y-12977174D01*
X14449944Y-12977174D02*
X14459468Y-12996222D01*
X14459468Y-12996222D02*
X14459468Y-13015269D01*
X14459468Y-13015269D02*
X14364230Y-13034317D01*
X14535658Y-13091460D02*
X14554706Y-13100984D01*
X14554706Y-13100984D02*
X14592801Y-13100984D01*
X14592801Y-13100984D02*
X14611849Y-13091460D01*
X14611849Y-13091460D02*
X14621372Y-13072412D01*
X14621372Y-13072412D02*
X14621372Y-13062888D01*
X14621372Y-13062888D02*
X14611849Y-13043841D01*
X14611849Y-13043841D02*
X14592801Y-13034317D01*
X14592801Y-13034317D02*
X14564230Y-13034317D01*
X14564230Y-13034317D02*
X14545182Y-13024793D01*
X14545182Y-13024793D02*
X14535658Y-13005746D01*
X14535658Y-13005746D02*
X14535658Y-12996222D01*
X14535658Y-12996222D02*
X14545182Y-12977174D01*
X14545182Y-12977174D02*
X14564230Y-12967650D01*
X14564230Y-12967650D02*
X14592801Y-12967650D01*
X14592801Y-12967650D02*
X14611849Y-12977174D01*
X14688039Y-13177174D02*
X14697563Y-13167650D01*
X14697563Y-13167650D02*
X14716611Y-13139079D01*
X14716611Y-13139079D02*
X14726134Y-13120031D01*
X14726134Y-13120031D02*
X14735658Y-13091460D01*
X14735658Y-13091460D02*
X14745182Y-13043841D01*
X14745182Y-13043841D02*
X14745182Y-13005746D01*
X14745182Y-13005746D02*
X14735658Y-12958127D01*
X14735658Y-12958127D02*
X14726134Y-12929555D01*
X14726134Y-12929555D02*
X14716611Y-12910508D01*
X14716611Y-12910508D02*
X14697563Y-12881936D01*
X14697563Y-12881936D02*
X14688039Y-12872412D01*
D12*
X9677500Y-13318500D02*
X9722500Y-13273500D01*
X9677500Y-13228500D01*
X9632500Y-13273500D01*
X9677500Y-13318500D01*
D11*
X10021372Y-13164984D02*
X10040420Y-13164984D01*
X10040420Y-13164984D02*
X10059467Y-13174508D01*
X10059467Y-13174508D02*
X10068991Y-13184031D01*
X10068991Y-13184031D02*
X10078515Y-13203079D01*
X10078515Y-13203079D02*
X10088039Y-13241174D01*
X10088039Y-13241174D02*
X10088039Y-13288793D01*
X10088039Y-13288793D02*
X10078515Y-13326888D01*
X10078515Y-13326888D02*
X10068991Y-13345936D01*
X10068991Y-13345936D02*
X10059467Y-13355460D01*
X10059467Y-13355460D02*
X10040420Y-13364984D01*
X10040420Y-13364984D02*
X10021372Y-13364984D01*
X10021372Y-13364984D02*
X10002324Y-13355460D01*
X10002324Y-13355460D02*
X9992801Y-13345936D01*
X9992801Y-13345936D02*
X9983277Y-13326888D01*
X9983277Y-13326888D02*
X9973753Y-13288793D01*
X9973753Y-13288793D02*
X9973753Y-13241174D01*
X9973753Y-13241174D02*
X9983277Y-13203079D01*
X9983277Y-13203079D02*
X9992801Y-13184031D01*
X9992801Y-13184031D02*
X10002324Y-13174508D01*
X10002324Y-13174508D02*
X10021372Y-13164984D01*
X10173753Y-13345936D02*
X10183277Y-13355460D01*
X10183277Y-13355460D02*
X10173753Y-13364984D01*
X10173753Y-13364984D02*
X10164229Y-13355460D01*
X10164229Y-13355460D02*
X10173753Y-13345936D01*
X10173753Y-13345936D02*
X10173753Y-13364984D01*
X10278515Y-13364984D02*
X10316610Y-13364984D01*
X10316610Y-13364984D02*
X10335658Y-13355460D01*
X10335658Y-13355460D02*
X10345182Y-13345936D01*
X10345182Y-13345936D02*
X10364229Y-13317365D01*
X10364229Y-13317365D02*
X10373753Y-13279269D01*
X10373753Y-13279269D02*
X10373753Y-13203079D01*
X10373753Y-13203079D02*
X10364229Y-13184031D01*
X10364229Y-13184031D02*
X10354705Y-13174508D01*
X10354705Y-13174508D02*
X10335658Y-13164984D01*
X10335658Y-13164984D02*
X10297563Y-13164984D01*
X10297563Y-13164984D02*
X10278515Y-13174508D01*
X10278515Y-13174508D02*
X10268991Y-13184031D01*
X10268991Y-13184031D02*
X10259467Y-13203079D01*
X10259467Y-13203079D02*
X10259467Y-13250698D01*
X10259467Y-13250698D02*
X10268991Y-13269746D01*
X10268991Y-13269746D02*
X10278515Y-13279269D01*
X10278515Y-13279269D02*
X10297563Y-13288793D01*
X10297563Y-13288793D02*
X10335658Y-13288793D01*
X10335658Y-13288793D02*
X10354705Y-13279269D01*
X10354705Y-13279269D02*
X10364229Y-13269746D01*
X10364229Y-13269746D02*
X10373753Y-13250698D01*
X10497563Y-13164984D02*
X10516610Y-13164984D01*
X10516610Y-13164984D02*
X10535658Y-13174508D01*
X10535658Y-13174508D02*
X10545182Y-13184031D01*
X10545182Y-13184031D02*
X10554705Y-13203079D01*
X10554705Y-13203079D02*
X10564229Y-13241174D01*
X10564229Y-13241174D02*
X10564229Y-13288793D01*
X10564229Y-13288793D02*
X10554705Y-13326888D01*
X10554705Y-13326888D02*
X10545182Y-13345936D01*
X10545182Y-13345936D02*
X10535658Y-13355460D01*
X10535658Y-13355460D02*
X10516610Y-13364984D01*
X10516610Y-13364984D02*
X10497563Y-13364984D01*
X10497563Y-13364984D02*
X10478515Y-13355460D01*
X10478515Y-13355460D02*
X10468991Y-13345936D01*
X10468991Y-13345936D02*
X10459467Y-13326888D01*
X10459467Y-13326888D02*
X10449944Y-13288793D01*
X10449944Y-13288793D02*
X10449944Y-13241174D01*
X10449944Y-13241174D02*
X10459467Y-13203079D01*
X10459467Y-13203079D02*
X10468991Y-13184031D01*
X10468991Y-13184031D02*
X10478515Y-13174508D01*
X10478515Y-13174508D02*
X10497563Y-13164984D01*
X10688039Y-13164984D02*
X10707086Y-13164984D01*
X10707086Y-13164984D02*
X10726134Y-13174508D01*
X10726134Y-13174508D02*
X10735658Y-13184031D01*
X10735658Y-13184031D02*
X10745182Y-13203079D01*
X10745182Y-13203079D02*
X10754705Y-13241174D01*
X10754705Y-13241174D02*
X10754705Y-13288793D01*
X10754705Y-13288793D02*
X10745182Y-13326888D01*
X10745182Y-13326888D02*
X10735658Y-13345936D01*
X10735658Y-13345936D02*
X10726134Y-13355460D01*
X10726134Y-13355460D02*
X10707086Y-13364984D01*
X10707086Y-13364984D02*
X10688039Y-13364984D01*
X10688039Y-13364984D02*
X10668991Y-13355460D01*
X10668991Y-13355460D02*
X10659467Y-13345936D01*
X10659467Y-13345936D02*
X10649944Y-13326888D01*
X10649944Y-13326888D02*
X10640420Y-13288793D01*
X10640420Y-13288793D02*
X10640420Y-13241174D01*
X10640420Y-13241174D02*
X10649944Y-13203079D01*
X10649944Y-13203079D02*
X10659467Y-13184031D01*
X10659467Y-13184031D02*
X10668991Y-13174508D01*
X10668991Y-13174508D02*
X10688039Y-13164984D01*
X10840420Y-13364984D02*
X10840420Y-13231650D01*
X10840420Y-13250698D02*
X10849944Y-13241174D01*
X10849944Y-13241174D02*
X10868991Y-13231650D01*
X10868991Y-13231650D02*
X10897563Y-13231650D01*
X10897563Y-13231650D02*
X10916610Y-13241174D01*
X10916610Y-13241174D02*
X10926134Y-13260222D01*
X10926134Y-13260222D02*
X10926134Y-13364984D01*
X10926134Y-13260222D02*
X10935658Y-13241174D01*
X10935658Y-13241174D02*
X10954705Y-13231650D01*
X10954705Y-13231650D02*
X10983277Y-13231650D01*
X10983277Y-13231650D02*
X11002325Y-13241174D01*
X11002325Y-13241174D02*
X11011848Y-13260222D01*
X11011848Y-13260222D02*
X11011848Y-13364984D01*
X11107086Y-13364984D02*
X11107086Y-13231650D01*
X11107086Y-13250698D02*
X11116610Y-13241174D01*
X11116610Y-13241174D02*
X11135658Y-13231650D01*
X11135658Y-13231650D02*
X11164229Y-13231650D01*
X11164229Y-13231650D02*
X11183277Y-13241174D01*
X11183277Y-13241174D02*
X11192801Y-13260222D01*
X11192801Y-13260222D02*
X11192801Y-13364984D01*
X11192801Y-13260222D02*
X11202324Y-13241174D01*
X11202324Y-13241174D02*
X11221372Y-13231650D01*
X11221372Y-13231650D02*
X11249943Y-13231650D01*
X11249943Y-13231650D02*
X11268991Y-13241174D01*
X11268991Y-13241174D02*
X11278515Y-13260222D01*
X11278515Y-13260222D02*
X11278515Y-13364984D01*
X11668991Y-13155460D02*
X11497563Y-13412603D01*
X11926134Y-13164984D02*
X11945182Y-13164984D01*
X11945182Y-13164984D02*
X11964229Y-13174508D01*
X11964229Y-13174508D02*
X11973753Y-13184031D01*
X11973753Y-13184031D02*
X11983277Y-13203079D01*
X11983277Y-13203079D02*
X11992801Y-13241174D01*
X11992801Y-13241174D02*
X11992801Y-13288793D01*
X11992801Y-13288793D02*
X11983277Y-13326888D01*
X11983277Y-13326888D02*
X11973753Y-13345936D01*
X11973753Y-13345936D02*
X11964229Y-13355460D01*
X11964229Y-13355460D02*
X11945182Y-13364984D01*
X11945182Y-13364984D02*
X11926134Y-13364984D01*
X11926134Y-13364984D02*
X11907086Y-13355460D01*
X11907086Y-13355460D02*
X11897563Y-13345936D01*
X11897563Y-13345936D02*
X11888039Y-13326888D01*
X11888039Y-13326888D02*
X11878515Y-13288793D01*
X11878515Y-13288793D02*
X11878515Y-13241174D01*
X11878515Y-13241174D02*
X11888039Y-13203079D01*
X11888039Y-13203079D02*
X11897563Y-13184031D01*
X11897563Y-13184031D02*
X11907086Y-13174508D01*
X11907086Y-13174508D02*
X11926134Y-13164984D01*
X12078515Y-13345936D02*
X12088039Y-13355460D01*
X12088039Y-13355460D02*
X12078515Y-13364984D01*
X12078515Y-13364984D02*
X12068991Y-13355460D01*
X12068991Y-13355460D02*
X12078515Y-13345936D01*
X12078515Y-13345936D02*
X12078515Y-13364984D01*
X12211848Y-13164984D02*
X12230896Y-13164984D01*
X12230896Y-13164984D02*
X12249944Y-13174508D01*
X12249944Y-13174508D02*
X12259467Y-13184031D01*
X12259467Y-13184031D02*
X12268991Y-13203079D01*
X12268991Y-13203079D02*
X12278515Y-13241174D01*
X12278515Y-13241174D02*
X12278515Y-13288793D01*
X12278515Y-13288793D02*
X12268991Y-13326888D01*
X12268991Y-13326888D02*
X12259467Y-13345936D01*
X12259467Y-13345936D02*
X12249944Y-13355460D01*
X12249944Y-13355460D02*
X12230896Y-13364984D01*
X12230896Y-13364984D02*
X12211848Y-13364984D01*
X12211848Y-13364984D02*
X12192801Y-13355460D01*
X12192801Y-13355460D02*
X12183277Y-13345936D01*
X12183277Y-13345936D02*
X12173753Y-13326888D01*
X12173753Y-13326888D02*
X12164229Y-13288793D01*
X12164229Y-13288793D02*
X12164229Y-13241174D01*
X12164229Y-13241174D02*
X12173753Y-13203079D01*
X12173753Y-13203079D02*
X12183277Y-13184031D01*
X12183277Y-13184031D02*
X12192801Y-13174508D01*
X12192801Y-13174508D02*
X12211848Y-13164984D01*
X12345182Y-13164984D02*
X12468991Y-13164984D01*
X12468991Y-13164984D02*
X12402325Y-13241174D01*
X12402325Y-13241174D02*
X12430896Y-13241174D01*
X12430896Y-13241174D02*
X12449944Y-13250698D01*
X12449944Y-13250698D02*
X12459467Y-13260222D01*
X12459467Y-13260222D02*
X12468991Y-13279269D01*
X12468991Y-13279269D02*
X12468991Y-13326888D01*
X12468991Y-13326888D02*
X12459467Y-13345936D01*
X12459467Y-13345936D02*
X12449944Y-13355460D01*
X12449944Y-13355460D02*
X12430896Y-13364984D01*
X12430896Y-13364984D02*
X12373753Y-13364984D01*
X12373753Y-13364984D02*
X12354706Y-13355460D01*
X12354706Y-13355460D02*
X12345182Y-13345936D01*
X12649944Y-13164984D02*
X12554706Y-13164984D01*
X12554706Y-13164984D02*
X12545182Y-13260222D01*
X12545182Y-13260222D02*
X12554706Y-13250698D01*
X12554706Y-13250698D02*
X12573753Y-13241174D01*
X12573753Y-13241174D02*
X12621372Y-13241174D01*
X12621372Y-13241174D02*
X12640420Y-13250698D01*
X12640420Y-13250698D02*
X12649944Y-13260222D01*
X12649944Y-13260222D02*
X12659467Y-13279269D01*
X12659467Y-13279269D02*
X12659467Y-13326888D01*
X12659467Y-13326888D02*
X12649944Y-13345936D01*
X12649944Y-13345936D02*
X12640420Y-13355460D01*
X12640420Y-13355460D02*
X12621372Y-13364984D01*
X12621372Y-13364984D02*
X12573753Y-13364984D01*
X12573753Y-13364984D02*
X12554706Y-13355460D01*
X12554706Y-13355460D02*
X12545182Y-13345936D01*
X12830896Y-13231650D02*
X12830896Y-13364984D01*
X12783277Y-13155460D02*
X12735658Y-13298317D01*
X12735658Y-13298317D02*
X12859467Y-13298317D01*
X12926134Y-13164984D02*
X12926134Y-13203079D01*
X13002325Y-13164984D02*
X13002325Y-13203079D01*
X13297563Y-13441174D02*
X13288039Y-13431650D01*
X13288039Y-13431650D02*
X13268991Y-13403079D01*
X13268991Y-13403079D02*
X13259468Y-13384031D01*
X13259468Y-13384031D02*
X13249944Y-13355460D01*
X13249944Y-13355460D02*
X13240420Y-13307841D01*
X13240420Y-13307841D02*
X13240420Y-13269746D01*
X13240420Y-13269746D02*
X13249944Y-13222127D01*
X13249944Y-13222127D02*
X13259468Y-13193555D01*
X13259468Y-13193555D02*
X13268991Y-13174508D01*
X13268991Y-13174508D02*
X13288039Y-13145936D01*
X13288039Y-13145936D02*
X13297563Y-13136412D01*
X13364229Y-13184031D02*
X13373753Y-13174508D01*
X13373753Y-13174508D02*
X13392801Y-13164984D01*
X13392801Y-13164984D02*
X13440420Y-13164984D01*
X13440420Y-13164984D02*
X13459468Y-13174508D01*
X13459468Y-13174508D02*
X13468991Y-13184031D01*
X13468991Y-13184031D02*
X13478515Y-13203079D01*
X13478515Y-13203079D02*
X13478515Y-13222127D01*
X13478515Y-13222127D02*
X13468991Y-13250698D01*
X13468991Y-13250698D02*
X13354706Y-13364984D01*
X13354706Y-13364984D02*
X13478515Y-13364984D01*
X13716610Y-13364984D02*
X13716610Y-13164984D01*
X13802325Y-13364984D02*
X13802325Y-13260222D01*
X13802325Y-13260222D02*
X13792801Y-13241174D01*
X13792801Y-13241174D02*
X13773753Y-13231650D01*
X13773753Y-13231650D02*
X13745182Y-13231650D01*
X13745182Y-13231650D02*
X13726134Y-13241174D01*
X13726134Y-13241174D02*
X13716610Y-13250698D01*
X13926134Y-13364984D02*
X13907087Y-13355460D01*
X13907087Y-13355460D02*
X13897563Y-13345936D01*
X13897563Y-13345936D02*
X13888039Y-13326888D01*
X13888039Y-13326888D02*
X13888039Y-13269746D01*
X13888039Y-13269746D02*
X13897563Y-13250698D01*
X13897563Y-13250698D02*
X13907087Y-13241174D01*
X13907087Y-13241174D02*
X13926134Y-13231650D01*
X13926134Y-13231650D02*
X13954706Y-13231650D01*
X13954706Y-13231650D02*
X13973753Y-13241174D01*
X13973753Y-13241174D02*
X13983277Y-13250698D01*
X13983277Y-13250698D02*
X13992801Y-13269746D01*
X13992801Y-13269746D02*
X13992801Y-13326888D01*
X13992801Y-13326888D02*
X13983277Y-13345936D01*
X13983277Y-13345936D02*
X13973753Y-13355460D01*
X13973753Y-13355460D02*
X13954706Y-13364984D01*
X13954706Y-13364984D02*
X13926134Y-13364984D01*
X14107087Y-13364984D02*
X14088039Y-13355460D01*
X14088039Y-13355460D02*
X14078515Y-13336412D01*
X14078515Y-13336412D02*
X14078515Y-13164984D01*
X14259468Y-13355460D02*
X14240420Y-13364984D01*
X14240420Y-13364984D02*
X14202325Y-13364984D01*
X14202325Y-13364984D02*
X14183277Y-13355460D01*
X14183277Y-13355460D02*
X14173753Y-13336412D01*
X14173753Y-13336412D02*
X14173753Y-13260222D01*
X14173753Y-13260222D02*
X14183277Y-13241174D01*
X14183277Y-13241174D02*
X14202325Y-13231650D01*
X14202325Y-13231650D02*
X14240420Y-13231650D01*
X14240420Y-13231650D02*
X14259468Y-13241174D01*
X14259468Y-13241174D02*
X14268991Y-13260222D01*
X14268991Y-13260222D02*
X14268991Y-13279269D01*
X14268991Y-13279269D02*
X14173753Y-13298317D01*
X14345182Y-13355460D02*
X14364230Y-13364984D01*
X14364230Y-13364984D02*
X14402325Y-13364984D01*
X14402325Y-13364984D02*
X14421372Y-13355460D01*
X14421372Y-13355460D02*
X14430896Y-13336412D01*
X14430896Y-13336412D02*
X14430896Y-13326888D01*
X14430896Y-13326888D02*
X14421372Y-13307841D01*
X14421372Y-13307841D02*
X14402325Y-13298317D01*
X14402325Y-13298317D02*
X14373753Y-13298317D01*
X14373753Y-13298317D02*
X14354706Y-13288793D01*
X14354706Y-13288793D02*
X14345182Y-13269746D01*
X14345182Y-13269746D02*
X14345182Y-13260222D01*
X14345182Y-13260222D02*
X14354706Y-13241174D01*
X14354706Y-13241174D02*
X14373753Y-13231650D01*
X14373753Y-13231650D02*
X14402325Y-13231650D01*
X14402325Y-13231650D02*
X14421372Y-13241174D01*
X14497563Y-13441174D02*
X14507087Y-13431650D01*
X14507087Y-13431650D02*
X14526134Y-13403079D01*
X14526134Y-13403079D02*
X14535658Y-13384031D01*
X14535658Y-13384031D02*
X14545182Y-13355460D01*
X14545182Y-13355460D02*
X14554706Y-13307841D01*
X14554706Y-13307841D02*
X14554706Y-13269746D01*
X14554706Y-13269746D02*
X14545182Y-13222127D01*
X14545182Y-13222127D02*
X14535658Y-13193555D01*
X14535658Y-13193555D02*
X14526134Y-13174508D01*
X14526134Y-13174508D02*
X14507087Y-13145936D01*
X14507087Y-13145936D02*
X14497563Y-13136412D01*
D12*
X9622500Y-13487500D02*
X9722500Y-13587500D01*
X9722500Y-13487500D02*
X9622500Y-13587500D01*
X9722500Y-13537500D02*
G75*
G02*
X9622500Y-13537500I-50000J0D01*
G01*
X9622500Y-13537500D02*
G75*
G02*
X9722500Y-13537500I50000J0D01*
G01*
D11*
X10088039Y-13628984D02*
X9973753Y-13628984D01*
X10030896Y-13628984D02*
X10030896Y-13428984D01*
X10030896Y-13428984D02*
X10011848Y-13457555D01*
X10011848Y-13457555D02*
X9992801Y-13476603D01*
X9992801Y-13476603D02*
X9973753Y-13486127D01*
X10173753Y-13609936D02*
X10183277Y-13619460D01*
X10183277Y-13619460D02*
X10173753Y-13628984D01*
X10173753Y-13628984D02*
X10164229Y-13619460D01*
X10164229Y-13619460D02*
X10173753Y-13609936D01*
X10173753Y-13609936D02*
X10173753Y-13628984D01*
X10307086Y-13428984D02*
X10326134Y-13428984D01*
X10326134Y-13428984D02*
X10345182Y-13438508D01*
X10345182Y-13438508D02*
X10354705Y-13448031D01*
X10354705Y-13448031D02*
X10364229Y-13467079D01*
X10364229Y-13467079D02*
X10373753Y-13505174D01*
X10373753Y-13505174D02*
X10373753Y-13552793D01*
X10373753Y-13552793D02*
X10364229Y-13590888D01*
X10364229Y-13590888D02*
X10354705Y-13609936D01*
X10354705Y-13609936D02*
X10345182Y-13619460D01*
X10345182Y-13619460D02*
X10326134Y-13628984D01*
X10326134Y-13628984D02*
X10307086Y-13628984D01*
X10307086Y-13628984D02*
X10288039Y-13619460D01*
X10288039Y-13619460D02*
X10278515Y-13609936D01*
X10278515Y-13609936D02*
X10268991Y-13590888D01*
X10268991Y-13590888D02*
X10259467Y-13552793D01*
X10259467Y-13552793D02*
X10259467Y-13505174D01*
X10259467Y-13505174D02*
X10268991Y-13467079D01*
X10268991Y-13467079D02*
X10278515Y-13448031D01*
X10278515Y-13448031D02*
X10288039Y-13438508D01*
X10288039Y-13438508D02*
X10307086Y-13428984D01*
X10497563Y-13428984D02*
X10516610Y-13428984D01*
X10516610Y-13428984D02*
X10535658Y-13438508D01*
X10535658Y-13438508D02*
X10545182Y-13448031D01*
X10545182Y-13448031D02*
X10554705Y-13467079D01*
X10554705Y-13467079D02*
X10564229Y-13505174D01*
X10564229Y-13505174D02*
X10564229Y-13552793D01*
X10564229Y-13552793D02*
X10554705Y-13590888D01*
X10554705Y-13590888D02*
X10545182Y-13609936D01*
X10545182Y-13609936D02*
X10535658Y-13619460D01*
X10535658Y-13619460D02*
X10516610Y-13628984D01*
X10516610Y-13628984D02*
X10497563Y-13628984D01*
X10497563Y-13628984D02*
X10478515Y-13619460D01*
X10478515Y-13619460D02*
X10468991Y-13609936D01*
X10468991Y-13609936D02*
X10459467Y-13590888D01*
X10459467Y-13590888D02*
X10449944Y-13552793D01*
X10449944Y-13552793D02*
X10449944Y-13505174D01*
X10449944Y-13505174D02*
X10459467Y-13467079D01*
X10459467Y-13467079D02*
X10468991Y-13448031D01*
X10468991Y-13448031D02*
X10478515Y-13438508D01*
X10478515Y-13438508D02*
X10497563Y-13428984D01*
X10688039Y-13428984D02*
X10707086Y-13428984D01*
X10707086Y-13428984D02*
X10726134Y-13438508D01*
X10726134Y-13438508D02*
X10735658Y-13448031D01*
X10735658Y-13448031D02*
X10745182Y-13467079D01*
X10745182Y-13467079D02*
X10754705Y-13505174D01*
X10754705Y-13505174D02*
X10754705Y-13552793D01*
X10754705Y-13552793D02*
X10745182Y-13590888D01*
X10745182Y-13590888D02*
X10735658Y-13609936D01*
X10735658Y-13609936D02*
X10726134Y-13619460D01*
X10726134Y-13619460D02*
X10707086Y-13628984D01*
X10707086Y-13628984D02*
X10688039Y-13628984D01*
X10688039Y-13628984D02*
X10668991Y-13619460D01*
X10668991Y-13619460D02*
X10659467Y-13609936D01*
X10659467Y-13609936D02*
X10649944Y-13590888D01*
X10649944Y-13590888D02*
X10640420Y-13552793D01*
X10640420Y-13552793D02*
X10640420Y-13505174D01*
X10640420Y-13505174D02*
X10649944Y-13467079D01*
X10649944Y-13467079D02*
X10659467Y-13448031D01*
X10659467Y-13448031D02*
X10668991Y-13438508D01*
X10668991Y-13438508D02*
X10688039Y-13428984D01*
X10840420Y-13628984D02*
X10840420Y-13495650D01*
X10840420Y-13514698D02*
X10849944Y-13505174D01*
X10849944Y-13505174D02*
X10868991Y-13495650D01*
X10868991Y-13495650D02*
X10897563Y-13495650D01*
X10897563Y-13495650D02*
X10916610Y-13505174D01*
X10916610Y-13505174D02*
X10926134Y-13524222D01*
X10926134Y-13524222D02*
X10926134Y-13628984D01*
X10926134Y-13524222D02*
X10935658Y-13505174D01*
X10935658Y-13505174D02*
X10954705Y-13495650D01*
X10954705Y-13495650D02*
X10983277Y-13495650D01*
X10983277Y-13495650D02*
X11002325Y-13505174D01*
X11002325Y-13505174D02*
X11011848Y-13524222D01*
X11011848Y-13524222D02*
X11011848Y-13628984D01*
X11107086Y-13628984D02*
X11107086Y-13495650D01*
X11107086Y-13514698D02*
X11116610Y-13505174D01*
X11116610Y-13505174D02*
X11135658Y-13495650D01*
X11135658Y-13495650D02*
X11164229Y-13495650D01*
X11164229Y-13495650D02*
X11183277Y-13505174D01*
X11183277Y-13505174D02*
X11192801Y-13524222D01*
X11192801Y-13524222D02*
X11192801Y-13628984D01*
X11192801Y-13524222D02*
X11202324Y-13505174D01*
X11202324Y-13505174D02*
X11221372Y-13495650D01*
X11221372Y-13495650D02*
X11249943Y-13495650D01*
X11249943Y-13495650D02*
X11268991Y-13505174D01*
X11268991Y-13505174D02*
X11278515Y-13524222D01*
X11278515Y-13524222D02*
X11278515Y-13628984D01*
X11668991Y-13419460D02*
X11497563Y-13676603D01*
X11926134Y-13428984D02*
X11945182Y-13428984D01*
X11945182Y-13428984D02*
X11964229Y-13438508D01*
X11964229Y-13438508D02*
X11973753Y-13448031D01*
X11973753Y-13448031D02*
X11983277Y-13467079D01*
X11983277Y-13467079D02*
X11992801Y-13505174D01*
X11992801Y-13505174D02*
X11992801Y-13552793D01*
X11992801Y-13552793D02*
X11983277Y-13590888D01*
X11983277Y-13590888D02*
X11973753Y-13609936D01*
X11973753Y-13609936D02*
X11964229Y-13619460D01*
X11964229Y-13619460D02*
X11945182Y-13628984D01*
X11945182Y-13628984D02*
X11926134Y-13628984D01*
X11926134Y-13628984D02*
X11907086Y-13619460D01*
X11907086Y-13619460D02*
X11897563Y-13609936D01*
X11897563Y-13609936D02*
X11888039Y-13590888D01*
X11888039Y-13590888D02*
X11878515Y-13552793D01*
X11878515Y-13552793D02*
X11878515Y-13505174D01*
X11878515Y-13505174D02*
X11888039Y-13467079D01*
X11888039Y-13467079D02*
X11897563Y-13448031D01*
X11897563Y-13448031D02*
X11907086Y-13438508D01*
X11907086Y-13438508D02*
X11926134Y-13428984D01*
X12078515Y-13609936D02*
X12088039Y-13619460D01*
X12088039Y-13619460D02*
X12078515Y-13628984D01*
X12078515Y-13628984D02*
X12068991Y-13619460D01*
X12068991Y-13619460D02*
X12078515Y-13609936D01*
X12078515Y-13609936D02*
X12078515Y-13628984D01*
X12211848Y-13428984D02*
X12230896Y-13428984D01*
X12230896Y-13428984D02*
X12249944Y-13438508D01*
X12249944Y-13438508D02*
X12259467Y-13448031D01*
X12259467Y-13448031D02*
X12268991Y-13467079D01*
X12268991Y-13467079D02*
X12278515Y-13505174D01*
X12278515Y-13505174D02*
X12278515Y-13552793D01*
X12278515Y-13552793D02*
X12268991Y-13590888D01*
X12268991Y-13590888D02*
X12259467Y-13609936D01*
X12259467Y-13609936D02*
X12249944Y-13619460D01*
X12249944Y-13619460D02*
X12230896Y-13628984D01*
X12230896Y-13628984D02*
X12211848Y-13628984D01*
X12211848Y-13628984D02*
X12192801Y-13619460D01*
X12192801Y-13619460D02*
X12183277Y-13609936D01*
X12183277Y-13609936D02*
X12173753Y-13590888D01*
X12173753Y-13590888D02*
X12164229Y-13552793D01*
X12164229Y-13552793D02*
X12164229Y-13505174D01*
X12164229Y-13505174D02*
X12173753Y-13467079D01*
X12173753Y-13467079D02*
X12183277Y-13448031D01*
X12183277Y-13448031D02*
X12192801Y-13438508D01*
X12192801Y-13438508D02*
X12211848Y-13428984D01*
X12345182Y-13428984D02*
X12468991Y-13428984D01*
X12468991Y-13428984D02*
X12402325Y-13505174D01*
X12402325Y-13505174D02*
X12430896Y-13505174D01*
X12430896Y-13505174D02*
X12449944Y-13514698D01*
X12449944Y-13514698D02*
X12459467Y-13524222D01*
X12459467Y-13524222D02*
X12468991Y-13543269D01*
X12468991Y-13543269D02*
X12468991Y-13590888D01*
X12468991Y-13590888D02*
X12459467Y-13609936D01*
X12459467Y-13609936D02*
X12449944Y-13619460D01*
X12449944Y-13619460D02*
X12430896Y-13628984D01*
X12430896Y-13628984D02*
X12373753Y-13628984D01*
X12373753Y-13628984D02*
X12354706Y-13619460D01*
X12354706Y-13619460D02*
X12345182Y-13609936D01*
X12564229Y-13628984D02*
X12602325Y-13628984D01*
X12602325Y-13628984D02*
X12621372Y-13619460D01*
X12621372Y-13619460D02*
X12630896Y-13609936D01*
X12630896Y-13609936D02*
X12649944Y-13581365D01*
X12649944Y-13581365D02*
X12659467Y-13543269D01*
X12659467Y-13543269D02*
X12659467Y-13467079D01*
X12659467Y-13467079D02*
X12649944Y-13448031D01*
X12649944Y-13448031D02*
X12640420Y-13438508D01*
X12640420Y-13438508D02*
X12621372Y-13428984D01*
X12621372Y-13428984D02*
X12583277Y-13428984D01*
X12583277Y-13428984D02*
X12564229Y-13438508D01*
X12564229Y-13438508D02*
X12554706Y-13448031D01*
X12554706Y-13448031D02*
X12545182Y-13467079D01*
X12545182Y-13467079D02*
X12545182Y-13514698D01*
X12545182Y-13514698D02*
X12554706Y-13533746D01*
X12554706Y-13533746D02*
X12564229Y-13543269D01*
X12564229Y-13543269D02*
X12583277Y-13552793D01*
X12583277Y-13552793D02*
X12621372Y-13552793D01*
X12621372Y-13552793D02*
X12640420Y-13543269D01*
X12640420Y-13543269D02*
X12649944Y-13533746D01*
X12649944Y-13533746D02*
X12659467Y-13514698D01*
X12830896Y-13495650D02*
X12830896Y-13628984D01*
X12783277Y-13419460D02*
X12735658Y-13562317D01*
X12735658Y-13562317D02*
X12859467Y-13562317D01*
X12926134Y-13428984D02*
X12926134Y-13467079D01*
X13002325Y-13428984D02*
X13002325Y-13467079D01*
X13297563Y-13705174D02*
X13288039Y-13695650D01*
X13288039Y-13695650D02*
X13268991Y-13667079D01*
X13268991Y-13667079D02*
X13259468Y-13648031D01*
X13259468Y-13648031D02*
X13249944Y-13619460D01*
X13249944Y-13619460D02*
X13240420Y-13571841D01*
X13240420Y-13571841D02*
X13240420Y-13533746D01*
X13240420Y-13533746D02*
X13249944Y-13486127D01*
X13249944Y-13486127D02*
X13259468Y-13457555D01*
X13259468Y-13457555D02*
X13268991Y-13438508D01*
X13268991Y-13438508D02*
X13288039Y-13409936D01*
X13288039Y-13409936D02*
X13297563Y-13400412D01*
X13459468Y-13428984D02*
X13421372Y-13428984D01*
X13421372Y-13428984D02*
X13402325Y-13438508D01*
X13402325Y-13438508D02*
X13392801Y-13448031D01*
X13392801Y-13448031D02*
X13373753Y-13476603D01*
X13373753Y-13476603D02*
X13364229Y-13514698D01*
X13364229Y-13514698D02*
X13364229Y-13590888D01*
X13364229Y-13590888D02*
X13373753Y-13609936D01*
X13373753Y-13609936D02*
X13383277Y-13619460D01*
X13383277Y-13619460D02*
X13402325Y-13628984D01*
X13402325Y-13628984D02*
X13440420Y-13628984D01*
X13440420Y-13628984D02*
X13459468Y-13619460D01*
X13459468Y-13619460D02*
X13468991Y-13609936D01*
X13468991Y-13609936D02*
X13478515Y-13590888D01*
X13478515Y-13590888D02*
X13478515Y-13543269D01*
X13478515Y-13543269D02*
X13468991Y-13524222D01*
X13468991Y-13524222D02*
X13459468Y-13514698D01*
X13459468Y-13514698D02*
X13440420Y-13505174D01*
X13440420Y-13505174D02*
X13402325Y-13505174D01*
X13402325Y-13505174D02*
X13383277Y-13514698D01*
X13383277Y-13514698D02*
X13373753Y-13524222D01*
X13373753Y-13524222D02*
X13364229Y-13543269D01*
X13716610Y-13628984D02*
X13716610Y-13428984D01*
X13802325Y-13628984D02*
X13802325Y-13524222D01*
X13802325Y-13524222D02*
X13792801Y-13505174D01*
X13792801Y-13505174D02*
X13773753Y-13495650D01*
X13773753Y-13495650D02*
X13745182Y-13495650D01*
X13745182Y-13495650D02*
X13726134Y-13505174D01*
X13726134Y-13505174D02*
X13716610Y-13514698D01*
X13926134Y-13628984D02*
X13907087Y-13619460D01*
X13907087Y-13619460D02*
X13897563Y-13609936D01*
X13897563Y-13609936D02*
X13888039Y-13590888D01*
X13888039Y-13590888D02*
X13888039Y-13533746D01*
X13888039Y-13533746D02*
X13897563Y-13514698D01*
X13897563Y-13514698D02*
X13907087Y-13505174D01*
X13907087Y-13505174D02*
X13926134Y-13495650D01*
X13926134Y-13495650D02*
X13954706Y-13495650D01*
X13954706Y-13495650D02*
X13973753Y-13505174D01*
X13973753Y-13505174D02*
X13983277Y-13514698D01*
X13983277Y-13514698D02*
X13992801Y-13533746D01*
X13992801Y-13533746D02*
X13992801Y-13590888D01*
X13992801Y-13590888D02*
X13983277Y-13609936D01*
X13983277Y-13609936D02*
X13973753Y-13619460D01*
X13973753Y-13619460D02*
X13954706Y-13628984D01*
X13954706Y-13628984D02*
X13926134Y-13628984D01*
X14107087Y-13628984D02*
X14088039Y-13619460D01*
X14088039Y-13619460D02*
X14078515Y-13600412D01*
X14078515Y-13600412D02*
X14078515Y-13428984D01*
X14259468Y-13619460D02*
X14240420Y-13628984D01*
X14240420Y-13628984D02*
X14202325Y-13628984D01*
X14202325Y-13628984D02*
X14183277Y-13619460D01*
X14183277Y-13619460D02*
X14173753Y-13600412D01*
X14173753Y-13600412D02*
X14173753Y-13524222D01*
X14173753Y-13524222D02*
X14183277Y-13505174D01*
X14183277Y-13505174D02*
X14202325Y-13495650D01*
X14202325Y-13495650D02*
X14240420Y-13495650D01*
X14240420Y-13495650D02*
X14259468Y-13505174D01*
X14259468Y-13505174D02*
X14268991Y-13524222D01*
X14268991Y-13524222D02*
X14268991Y-13543269D01*
X14268991Y-13543269D02*
X14173753Y-13562317D01*
X14345182Y-13619460D02*
X14364230Y-13628984D01*
X14364230Y-13628984D02*
X14402325Y-13628984D01*
X14402325Y-13628984D02*
X14421372Y-13619460D01*
X14421372Y-13619460D02*
X14430896Y-13600412D01*
X14430896Y-13600412D02*
X14430896Y-13590888D01*
X14430896Y-13590888D02*
X14421372Y-13571841D01*
X14421372Y-13571841D02*
X14402325Y-13562317D01*
X14402325Y-13562317D02*
X14373753Y-13562317D01*
X14373753Y-13562317D02*
X14354706Y-13552793D01*
X14354706Y-13552793D02*
X14345182Y-13533746D01*
X14345182Y-13533746D02*
X14345182Y-13524222D01*
X14345182Y-13524222D02*
X14354706Y-13505174D01*
X14354706Y-13505174D02*
X14373753Y-13495650D01*
X14373753Y-13495650D02*
X14402325Y-13495650D01*
X14402325Y-13495650D02*
X14421372Y-13505174D01*
X14497563Y-13705174D02*
X14507087Y-13695650D01*
X14507087Y-13695650D02*
X14526134Y-13667079D01*
X14526134Y-13667079D02*
X14535658Y-13648031D01*
X14535658Y-13648031D02*
X14545182Y-13619460D01*
X14545182Y-13619460D02*
X14554706Y-13571841D01*
X14554706Y-13571841D02*
X14554706Y-13533746D01*
X14554706Y-13533746D02*
X14545182Y-13486127D01*
X14545182Y-13486127D02*
X14535658Y-13457555D01*
X14535658Y-13457555D02*
X14526134Y-13438508D01*
X14526134Y-13438508D02*
X14507087Y-13409936D01*
X14507087Y-13409936D02*
X14497563Y-13400412D01*
D13*
X9612500Y-13746500D02*
X9722500Y-13856500D01*
X9722500Y-13746500D02*
X9612500Y-13856500D01*
X9667500Y-13746500D02*
X9667500Y-13856500D01*
X9612500Y-13801500D02*
X9722500Y-13801500D01*
D11*
X10088039Y-13892984D02*
X9973753Y-13892984D01*
X10030896Y-13892984D02*
X10030896Y-13692984D01*
X10030896Y-13692984D02*
X10011848Y-13721555D01*
X10011848Y-13721555D02*
X9992801Y-13740603D01*
X9992801Y-13740603D02*
X9973753Y-13750127D01*
X10173753Y-13873936D02*
X10183277Y-13883460D01*
X10183277Y-13883460D02*
X10173753Y-13892984D01*
X10173753Y-13892984D02*
X10164229Y-13883460D01*
X10164229Y-13883460D02*
X10173753Y-13873936D01*
X10173753Y-13873936D02*
X10173753Y-13892984D01*
X10373753Y-13892984D02*
X10259467Y-13892984D01*
X10316610Y-13892984D02*
X10316610Y-13692984D01*
X10316610Y-13692984D02*
X10297563Y-13721555D01*
X10297563Y-13721555D02*
X10278515Y-13740603D01*
X10278515Y-13740603D02*
X10259467Y-13750127D01*
X10497563Y-13692984D02*
X10516610Y-13692984D01*
X10516610Y-13692984D02*
X10535658Y-13702508D01*
X10535658Y-13702508D02*
X10545182Y-13712031D01*
X10545182Y-13712031D02*
X10554705Y-13731079D01*
X10554705Y-13731079D02*
X10564229Y-13769174D01*
X10564229Y-13769174D02*
X10564229Y-13816793D01*
X10564229Y-13816793D02*
X10554705Y-13854888D01*
X10554705Y-13854888D02*
X10545182Y-13873936D01*
X10545182Y-13873936D02*
X10535658Y-13883460D01*
X10535658Y-13883460D02*
X10516610Y-13892984D01*
X10516610Y-13892984D02*
X10497563Y-13892984D01*
X10497563Y-13892984D02*
X10478515Y-13883460D01*
X10478515Y-13883460D02*
X10468991Y-13873936D01*
X10468991Y-13873936D02*
X10459467Y-13854888D01*
X10459467Y-13854888D02*
X10449944Y-13816793D01*
X10449944Y-13816793D02*
X10449944Y-13769174D01*
X10449944Y-13769174D02*
X10459467Y-13731079D01*
X10459467Y-13731079D02*
X10468991Y-13712031D01*
X10468991Y-13712031D02*
X10478515Y-13702508D01*
X10478515Y-13702508D02*
X10497563Y-13692984D01*
X10688039Y-13692984D02*
X10707086Y-13692984D01*
X10707086Y-13692984D02*
X10726134Y-13702508D01*
X10726134Y-13702508D02*
X10735658Y-13712031D01*
X10735658Y-13712031D02*
X10745182Y-13731079D01*
X10745182Y-13731079D02*
X10754705Y-13769174D01*
X10754705Y-13769174D02*
X10754705Y-13816793D01*
X10754705Y-13816793D02*
X10745182Y-13854888D01*
X10745182Y-13854888D02*
X10735658Y-13873936D01*
X10735658Y-13873936D02*
X10726134Y-13883460D01*
X10726134Y-13883460D02*
X10707086Y-13892984D01*
X10707086Y-13892984D02*
X10688039Y-13892984D01*
X10688039Y-13892984D02*
X10668991Y-13883460D01*
X10668991Y-13883460D02*
X10659467Y-13873936D01*
X10659467Y-13873936D02*
X10649944Y-13854888D01*
X10649944Y-13854888D02*
X10640420Y-13816793D01*
X10640420Y-13816793D02*
X10640420Y-13769174D01*
X10640420Y-13769174D02*
X10649944Y-13731079D01*
X10649944Y-13731079D02*
X10659467Y-13712031D01*
X10659467Y-13712031D02*
X10668991Y-13702508D01*
X10668991Y-13702508D02*
X10688039Y-13692984D01*
X10840420Y-13892984D02*
X10840420Y-13759650D01*
X10840420Y-13778698D02*
X10849944Y-13769174D01*
X10849944Y-13769174D02*
X10868991Y-13759650D01*
X10868991Y-13759650D02*
X10897563Y-13759650D01*
X10897563Y-13759650D02*
X10916610Y-13769174D01*
X10916610Y-13769174D02*
X10926134Y-13788222D01*
X10926134Y-13788222D02*
X10926134Y-13892984D01*
X10926134Y-13788222D02*
X10935658Y-13769174D01*
X10935658Y-13769174D02*
X10954705Y-13759650D01*
X10954705Y-13759650D02*
X10983277Y-13759650D01*
X10983277Y-13759650D02*
X11002325Y-13769174D01*
X11002325Y-13769174D02*
X11011848Y-13788222D01*
X11011848Y-13788222D02*
X11011848Y-13892984D01*
X11107086Y-13892984D02*
X11107086Y-13759650D01*
X11107086Y-13778698D02*
X11116610Y-13769174D01*
X11116610Y-13769174D02*
X11135658Y-13759650D01*
X11135658Y-13759650D02*
X11164229Y-13759650D01*
X11164229Y-13759650D02*
X11183277Y-13769174D01*
X11183277Y-13769174D02*
X11192801Y-13788222D01*
X11192801Y-13788222D02*
X11192801Y-13892984D01*
X11192801Y-13788222D02*
X11202324Y-13769174D01*
X11202324Y-13769174D02*
X11221372Y-13759650D01*
X11221372Y-13759650D02*
X11249943Y-13759650D01*
X11249943Y-13759650D02*
X11268991Y-13769174D01*
X11268991Y-13769174D02*
X11278515Y-13788222D01*
X11278515Y-13788222D02*
X11278515Y-13892984D01*
X11668991Y-13683460D02*
X11497563Y-13940603D01*
X11926134Y-13692984D02*
X11945182Y-13692984D01*
X11945182Y-13692984D02*
X11964229Y-13702508D01*
X11964229Y-13702508D02*
X11973753Y-13712031D01*
X11973753Y-13712031D02*
X11983277Y-13731079D01*
X11983277Y-13731079D02*
X11992801Y-13769174D01*
X11992801Y-13769174D02*
X11992801Y-13816793D01*
X11992801Y-13816793D02*
X11983277Y-13854888D01*
X11983277Y-13854888D02*
X11973753Y-13873936D01*
X11973753Y-13873936D02*
X11964229Y-13883460D01*
X11964229Y-13883460D02*
X11945182Y-13892984D01*
X11945182Y-13892984D02*
X11926134Y-13892984D01*
X11926134Y-13892984D02*
X11907086Y-13883460D01*
X11907086Y-13883460D02*
X11897563Y-13873936D01*
X11897563Y-13873936D02*
X11888039Y-13854888D01*
X11888039Y-13854888D02*
X11878515Y-13816793D01*
X11878515Y-13816793D02*
X11878515Y-13769174D01*
X11878515Y-13769174D02*
X11888039Y-13731079D01*
X11888039Y-13731079D02*
X11897563Y-13712031D01*
X11897563Y-13712031D02*
X11907086Y-13702508D01*
X11907086Y-13702508D02*
X11926134Y-13692984D01*
X12078515Y-13873936D02*
X12088039Y-13883460D01*
X12088039Y-13883460D02*
X12078515Y-13892984D01*
X12078515Y-13892984D02*
X12068991Y-13883460D01*
X12068991Y-13883460D02*
X12078515Y-13873936D01*
X12078515Y-13873936D02*
X12078515Y-13892984D01*
X12211848Y-13692984D02*
X12230896Y-13692984D01*
X12230896Y-13692984D02*
X12249944Y-13702508D01*
X12249944Y-13702508D02*
X12259467Y-13712031D01*
X12259467Y-13712031D02*
X12268991Y-13731079D01*
X12268991Y-13731079D02*
X12278515Y-13769174D01*
X12278515Y-13769174D02*
X12278515Y-13816793D01*
X12278515Y-13816793D02*
X12268991Y-13854888D01*
X12268991Y-13854888D02*
X12259467Y-13873936D01*
X12259467Y-13873936D02*
X12249944Y-13883460D01*
X12249944Y-13883460D02*
X12230896Y-13892984D01*
X12230896Y-13892984D02*
X12211848Y-13892984D01*
X12211848Y-13892984D02*
X12192801Y-13883460D01*
X12192801Y-13883460D02*
X12183277Y-13873936D01*
X12183277Y-13873936D02*
X12173753Y-13854888D01*
X12173753Y-13854888D02*
X12164229Y-13816793D01*
X12164229Y-13816793D02*
X12164229Y-13769174D01*
X12164229Y-13769174D02*
X12173753Y-13731079D01*
X12173753Y-13731079D02*
X12183277Y-13712031D01*
X12183277Y-13712031D02*
X12192801Y-13702508D01*
X12192801Y-13702508D02*
X12211848Y-13692984D01*
X12449944Y-13759650D02*
X12449944Y-13892984D01*
X12402325Y-13683460D02*
X12354706Y-13826317D01*
X12354706Y-13826317D02*
X12478515Y-13826317D01*
X12535658Y-13692984D02*
X12659467Y-13692984D01*
X12659467Y-13692984D02*
X12592801Y-13769174D01*
X12592801Y-13769174D02*
X12621372Y-13769174D01*
X12621372Y-13769174D02*
X12640420Y-13778698D01*
X12640420Y-13778698D02*
X12649944Y-13788222D01*
X12649944Y-13788222D02*
X12659467Y-13807269D01*
X12659467Y-13807269D02*
X12659467Y-13854888D01*
X12659467Y-13854888D02*
X12649944Y-13873936D01*
X12649944Y-13873936D02*
X12640420Y-13883460D01*
X12640420Y-13883460D02*
X12621372Y-13892984D01*
X12621372Y-13892984D02*
X12564229Y-13892984D01*
X12564229Y-13892984D02*
X12545182Y-13883460D01*
X12545182Y-13883460D02*
X12535658Y-13873936D01*
X12726134Y-13692984D02*
X12849944Y-13692984D01*
X12849944Y-13692984D02*
X12783277Y-13769174D01*
X12783277Y-13769174D02*
X12811848Y-13769174D01*
X12811848Y-13769174D02*
X12830896Y-13778698D01*
X12830896Y-13778698D02*
X12840420Y-13788222D01*
X12840420Y-13788222D02*
X12849944Y-13807269D01*
X12849944Y-13807269D02*
X12849944Y-13854888D01*
X12849944Y-13854888D02*
X12840420Y-13873936D01*
X12840420Y-13873936D02*
X12830896Y-13883460D01*
X12830896Y-13883460D02*
X12811848Y-13892984D01*
X12811848Y-13892984D02*
X12754706Y-13892984D01*
X12754706Y-13892984D02*
X12735658Y-13883460D01*
X12735658Y-13883460D02*
X12726134Y-13873936D01*
X12926134Y-13692984D02*
X12926134Y-13731079D01*
X13002325Y-13692984D02*
X13002325Y-13731079D01*
X13297563Y-13969174D02*
X13288039Y-13959650D01*
X13288039Y-13959650D02*
X13268991Y-13931079D01*
X13268991Y-13931079D02*
X13259468Y-13912031D01*
X13259468Y-13912031D02*
X13249944Y-13883460D01*
X13249944Y-13883460D02*
X13240420Y-13835841D01*
X13240420Y-13835841D02*
X13240420Y-13797746D01*
X13240420Y-13797746D02*
X13249944Y-13750127D01*
X13249944Y-13750127D02*
X13259468Y-13721555D01*
X13259468Y-13721555D02*
X13268991Y-13702508D01*
X13268991Y-13702508D02*
X13288039Y-13673936D01*
X13288039Y-13673936D02*
X13297563Y-13664412D01*
X13478515Y-13892984D02*
X13364229Y-13892984D01*
X13421372Y-13892984D02*
X13421372Y-13692984D01*
X13421372Y-13692984D02*
X13402325Y-13721555D01*
X13402325Y-13721555D02*
X13383277Y-13740603D01*
X13383277Y-13740603D02*
X13364229Y-13750127D01*
X13649944Y-13692984D02*
X13611848Y-13692984D01*
X13611848Y-13692984D02*
X13592801Y-13702508D01*
X13592801Y-13702508D02*
X13583277Y-13712031D01*
X13583277Y-13712031D02*
X13564229Y-13740603D01*
X13564229Y-13740603D02*
X13554706Y-13778698D01*
X13554706Y-13778698D02*
X13554706Y-13854888D01*
X13554706Y-13854888D02*
X13564229Y-13873936D01*
X13564229Y-13873936D02*
X13573753Y-13883460D01*
X13573753Y-13883460D02*
X13592801Y-13892984D01*
X13592801Y-13892984D02*
X13630896Y-13892984D01*
X13630896Y-13892984D02*
X13649944Y-13883460D01*
X13649944Y-13883460D02*
X13659468Y-13873936D01*
X13659468Y-13873936D02*
X13668991Y-13854888D01*
X13668991Y-13854888D02*
X13668991Y-13807269D01*
X13668991Y-13807269D02*
X13659468Y-13788222D01*
X13659468Y-13788222D02*
X13649944Y-13778698D01*
X13649944Y-13778698D02*
X13630896Y-13769174D01*
X13630896Y-13769174D02*
X13592801Y-13769174D01*
X13592801Y-13769174D02*
X13573753Y-13778698D01*
X13573753Y-13778698D02*
X13564229Y-13788222D01*
X13564229Y-13788222D02*
X13554706Y-13807269D01*
X13907087Y-13892984D02*
X13907087Y-13692984D01*
X13992801Y-13892984D02*
X13992801Y-13788222D01*
X13992801Y-13788222D02*
X13983277Y-13769174D01*
X13983277Y-13769174D02*
X13964230Y-13759650D01*
X13964230Y-13759650D02*
X13935658Y-13759650D01*
X13935658Y-13759650D02*
X13916610Y-13769174D01*
X13916610Y-13769174D02*
X13907087Y-13778698D01*
X14116610Y-13892984D02*
X14097563Y-13883460D01*
X14097563Y-13883460D02*
X14088039Y-13873936D01*
X14088039Y-13873936D02*
X14078515Y-13854888D01*
X14078515Y-13854888D02*
X14078515Y-13797746D01*
X14078515Y-13797746D02*
X14088039Y-13778698D01*
X14088039Y-13778698D02*
X14097563Y-13769174D01*
X14097563Y-13769174D02*
X14116610Y-13759650D01*
X14116610Y-13759650D02*
X14145182Y-13759650D01*
X14145182Y-13759650D02*
X14164230Y-13769174D01*
X14164230Y-13769174D02*
X14173753Y-13778698D01*
X14173753Y-13778698D02*
X14183277Y-13797746D01*
X14183277Y-13797746D02*
X14183277Y-13854888D01*
X14183277Y-13854888D02*
X14173753Y-13873936D01*
X14173753Y-13873936D02*
X14164230Y-13883460D01*
X14164230Y-13883460D02*
X14145182Y-13892984D01*
X14145182Y-13892984D02*
X14116610Y-13892984D01*
X14297563Y-13892984D02*
X14278515Y-13883460D01*
X14278515Y-13883460D02*
X14268991Y-13864412D01*
X14268991Y-13864412D02*
X14268991Y-13692984D01*
X14449944Y-13883460D02*
X14430896Y-13892984D01*
X14430896Y-13892984D02*
X14392801Y-13892984D01*
X14392801Y-13892984D02*
X14373753Y-13883460D01*
X14373753Y-13883460D02*
X14364230Y-13864412D01*
X14364230Y-13864412D02*
X14364230Y-13788222D01*
X14364230Y-13788222D02*
X14373753Y-13769174D01*
X14373753Y-13769174D02*
X14392801Y-13759650D01*
X14392801Y-13759650D02*
X14430896Y-13759650D01*
X14430896Y-13759650D02*
X14449944Y-13769174D01*
X14449944Y-13769174D02*
X14459468Y-13788222D01*
X14459468Y-13788222D02*
X14459468Y-13807269D01*
X14459468Y-13807269D02*
X14364230Y-13826317D01*
X14535658Y-13883460D02*
X14554706Y-13892984D01*
X14554706Y-13892984D02*
X14592801Y-13892984D01*
X14592801Y-13892984D02*
X14611849Y-13883460D01*
X14611849Y-13883460D02*
X14621372Y-13864412D01*
X14621372Y-13864412D02*
X14621372Y-13854888D01*
X14621372Y-13854888D02*
X14611849Y-13835841D01*
X14611849Y-13835841D02*
X14592801Y-13826317D01*
X14592801Y-13826317D02*
X14564230Y-13826317D01*
X14564230Y-13826317D02*
X14545182Y-13816793D01*
X14545182Y-13816793D02*
X14535658Y-13797746D01*
X14535658Y-13797746D02*
X14535658Y-13788222D01*
X14535658Y-13788222D02*
X14545182Y-13769174D01*
X14545182Y-13769174D02*
X14564230Y-13759650D01*
X14564230Y-13759650D02*
X14592801Y-13759650D01*
X14592801Y-13759650D02*
X14611849Y-13769174D01*
X14688039Y-13969174D02*
X14697563Y-13959650D01*
X14697563Y-13959650D02*
X14716611Y-13931079D01*
X14716611Y-13931079D02*
X14726134Y-13912031D01*
X14726134Y-13912031D02*
X14735658Y-13883460D01*
X14735658Y-13883460D02*
X14745182Y-13835841D01*
X14745182Y-13835841D02*
X14745182Y-13797746D01*
X14745182Y-13797746D02*
X14735658Y-13750127D01*
X14735658Y-13750127D02*
X14726134Y-13721555D01*
X14726134Y-13721555D02*
X14716611Y-13702508D01*
X14716611Y-13702508D02*
X14697563Y-13673936D01*
X14697563Y-13673936D02*
X14688039Y-13664412D01*
D14*
X9572500Y-13990500D02*
X9722500Y-14140500D01*
X9722500Y-13990500D02*
X9572500Y-14140500D01*
X9700534Y-14118533D02*
X9700534Y-14012466D01*
X9594467Y-14012466D01*
X9594467Y-14118533D01*
X9700534Y-14118533D01*
D11*
X10088039Y-14156984D02*
X9973753Y-14156984D01*
X10030896Y-14156984D02*
X10030896Y-13956984D01*
X10030896Y-13956984D02*
X10011848Y-13985555D01*
X10011848Y-13985555D02*
X9992801Y-14004603D01*
X9992801Y-14004603D02*
X9973753Y-14014127D01*
X10173753Y-14137936D02*
X10183277Y-14147460D01*
X10183277Y-14147460D02*
X10173753Y-14156984D01*
X10173753Y-14156984D02*
X10164229Y-14147460D01*
X10164229Y-14147460D02*
X10173753Y-14137936D01*
X10173753Y-14137936D02*
X10173753Y-14156984D01*
X10364229Y-13956984D02*
X10268991Y-13956984D01*
X10268991Y-13956984D02*
X10259467Y-14052222D01*
X10259467Y-14052222D02*
X10268991Y-14042698D01*
X10268991Y-14042698D02*
X10288039Y-14033174D01*
X10288039Y-14033174D02*
X10335658Y-14033174D01*
X10335658Y-14033174D02*
X10354705Y-14042698D01*
X10354705Y-14042698D02*
X10364229Y-14052222D01*
X10364229Y-14052222D02*
X10373753Y-14071269D01*
X10373753Y-14071269D02*
X10373753Y-14118888D01*
X10373753Y-14118888D02*
X10364229Y-14137936D01*
X10364229Y-14137936D02*
X10354705Y-14147460D01*
X10354705Y-14147460D02*
X10335658Y-14156984D01*
X10335658Y-14156984D02*
X10288039Y-14156984D01*
X10288039Y-14156984D02*
X10268991Y-14147460D01*
X10268991Y-14147460D02*
X10259467Y-14137936D01*
X10497563Y-13956984D02*
X10516610Y-13956984D01*
X10516610Y-13956984D02*
X10535658Y-13966508D01*
X10535658Y-13966508D02*
X10545182Y-13976031D01*
X10545182Y-13976031D02*
X10554705Y-13995079D01*
X10554705Y-13995079D02*
X10564229Y-14033174D01*
X10564229Y-14033174D02*
X10564229Y-14080793D01*
X10564229Y-14080793D02*
X10554705Y-14118888D01*
X10554705Y-14118888D02*
X10545182Y-14137936D01*
X10545182Y-14137936D02*
X10535658Y-14147460D01*
X10535658Y-14147460D02*
X10516610Y-14156984D01*
X10516610Y-14156984D02*
X10497563Y-14156984D01*
X10497563Y-14156984D02*
X10478515Y-14147460D01*
X10478515Y-14147460D02*
X10468991Y-14137936D01*
X10468991Y-14137936D02*
X10459467Y-14118888D01*
X10459467Y-14118888D02*
X10449944Y-14080793D01*
X10449944Y-14080793D02*
X10449944Y-14033174D01*
X10449944Y-14033174D02*
X10459467Y-13995079D01*
X10459467Y-13995079D02*
X10468991Y-13976031D01*
X10468991Y-13976031D02*
X10478515Y-13966508D01*
X10478515Y-13966508D02*
X10497563Y-13956984D01*
X10688039Y-13956984D02*
X10707086Y-13956984D01*
X10707086Y-13956984D02*
X10726134Y-13966508D01*
X10726134Y-13966508D02*
X10735658Y-13976031D01*
X10735658Y-13976031D02*
X10745182Y-13995079D01*
X10745182Y-13995079D02*
X10754705Y-14033174D01*
X10754705Y-14033174D02*
X10754705Y-14080793D01*
X10754705Y-14080793D02*
X10745182Y-14118888D01*
X10745182Y-14118888D02*
X10735658Y-14137936D01*
X10735658Y-14137936D02*
X10726134Y-14147460D01*
X10726134Y-14147460D02*
X10707086Y-14156984D01*
X10707086Y-14156984D02*
X10688039Y-14156984D01*
X10688039Y-14156984D02*
X10668991Y-14147460D01*
X10668991Y-14147460D02*
X10659467Y-14137936D01*
X10659467Y-14137936D02*
X10649944Y-14118888D01*
X10649944Y-14118888D02*
X10640420Y-14080793D01*
X10640420Y-14080793D02*
X10640420Y-14033174D01*
X10640420Y-14033174D02*
X10649944Y-13995079D01*
X10649944Y-13995079D02*
X10659467Y-13976031D01*
X10659467Y-13976031D02*
X10668991Y-13966508D01*
X10668991Y-13966508D02*
X10688039Y-13956984D01*
X10840420Y-14156984D02*
X10840420Y-14023650D01*
X10840420Y-14042698D02*
X10849944Y-14033174D01*
X10849944Y-14033174D02*
X10868991Y-14023650D01*
X10868991Y-14023650D02*
X10897563Y-14023650D01*
X10897563Y-14023650D02*
X10916610Y-14033174D01*
X10916610Y-14033174D02*
X10926134Y-14052222D01*
X10926134Y-14052222D02*
X10926134Y-14156984D01*
X10926134Y-14052222D02*
X10935658Y-14033174D01*
X10935658Y-14033174D02*
X10954705Y-14023650D01*
X10954705Y-14023650D02*
X10983277Y-14023650D01*
X10983277Y-14023650D02*
X11002325Y-14033174D01*
X11002325Y-14033174D02*
X11011848Y-14052222D01*
X11011848Y-14052222D02*
X11011848Y-14156984D01*
X11107086Y-14156984D02*
X11107086Y-14023650D01*
X11107086Y-14042698D02*
X11116610Y-14033174D01*
X11116610Y-14033174D02*
X11135658Y-14023650D01*
X11135658Y-14023650D02*
X11164229Y-14023650D01*
X11164229Y-14023650D02*
X11183277Y-14033174D01*
X11183277Y-14033174D02*
X11192801Y-14052222D01*
X11192801Y-14052222D02*
X11192801Y-14156984D01*
X11192801Y-14052222D02*
X11202324Y-14033174D01*
X11202324Y-14033174D02*
X11221372Y-14023650D01*
X11221372Y-14023650D02*
X11249943Y-14023650D01*
X11249943Y-14023650D02*
X11268991Y-14033174D01*
X11268991Y-14033174D02*
X11278515Y-14052222D01*
X11278515Y-14052222D02*
X11278515Y-14156984D01*
X11668991Y-13947460D02*
X11497563Y-14204603D01*
X11926134Y-13956984D02*
X11945182Y-13956984D01*
X11945182Y-13956984D02*
X11964229Y-13966508D01*
X11964229Y-13966508D02*
X11973753Y-13976031D01*
X11973753Y-13976031D02*
X11983277Y-13995079D01*
X11983277Y-13995079D02*
X11992801Y-14033174D01*
X11992801Y-14033174D02*
X11992801Y-14080793D01*
X11992801Y-14080793D02*
X11983277Y-14118888D01*
X11983277Y-14118888D02*
X11973753Y-14137936D01*
X11973753Y-14137936D02*
X11964229Y-14147460D01*
X11964229Y-14147460D02*
X11945182Y-14156984D01*
X11945182Y-14156984D02*
X11926134Y-14156984D01*
X11926134Y-14156984D02*
X11907086Y-14147460D01*
X11907086Y-14147460D02*
X11897563Y-14137936D01*
X11897563Y-14137936D02*
X11888039Y-14118888D01*
X11888039Y-14118888D02*
X11878515Y-14080793D01*
X11878515Y-14080793D02*
X11878515Y-14033174D01*
X11878515Y-14033174D02*
X11888039Y-13995079D01*
X11888039Y-13995079D02*
X11897563Y-13976031D01*
X11897563Y-13976031D02*
X11907086Y-13966508D01*
X11907086Y-13966508D02*
X11926134Y-13956984D01*
X12078515Y-14137936D02*
X12088039Y-14147460D01*
X12088039Y-14147460D02*
X12078515Y-14156984D01*
X12078515Y-14156984D02*
X12068991Y-14147460D01*
X12068991Y-14147460D02*
X12078515Y-14137936D01*
X12078515Y-14137936D02*
X12078515Y-14156984D01*
X12211848Y-13956984D02*
X12230896Y-13956984D01*
X12230896Y-13956984D02*
X12249944Y-13966508D01*
X12249944Y-13966508D02*
X12259467Y-13976031D01*
X12259467Y-13976031D02*
X12268991Y-13995079D01*
X12268991Y-13995079D02*
X12278515Y-14033174D01*
X12278515Y-14033174D02*
X12278515Y-14080793D01*
X12278515Y-14080793D02*
X12268991Y-14118888D01*
X12268991Y-14118888D02*
X12259467Y-14137936D01*
X12259467Y-14137936D02*
X12249944Y-14147460D01*
X12249944Y-14147460D02*
X12230896Y-14156984D01*
X12230896Y-14156984D02*
X12211848Y-14156984D01*
X12211848Y-14156984D02*
X12192801Y-14147460D01*
X12192801Y-14147460D02*
X12183277Y-14137936D01*
X12183277Y-14137936D02*
X12173753Y-14118888D01*
X12173753Y-14118888D02*
X12164229Y-14080793D01*
X12164229Y-14080793D02*
X12164229Y-14033174D01*
X12164229Y-14033174D02*
X12173753Y-13995079D01*
X12173753Y-13995079D02*
X12183277Y-13976031D01*
X12183277Y-13976031D02*
X12192801Y-13966508D01*
X12192801Y-13966508D02*
X12211848Y-13956984D01*
X12459467Y-13956984D02*
X12364229Y-13956984D01*
X12364229Y-13956984D02*
X12354706Y-14052222D01*
X12354706Y-14052222D02*
X12364229Y-14042698D01*
X12364229Y-14042698D02*
X12383277Y-14033174D01*
X12383277Y-14033174D02*
X12430896Y-14033174D01*
X12430896Y-14033174D02*
X12449944Y-14042698D01*
X12449944Y-14042698D02*
X12459467Y-14052222D01*
X12459467Y-14052222D02*
X12468991Y-14071269D01*
X12468991Y-14071269D02*
X12468991Y-14118888D01*
X12468991Y-14118888D02*
X12459467Y-14137936D01*
X12459467Y-14137936D02*
X12449944Y-14147460D01*
X12449944Y-14147460D02*
X12430896Y-14156984D01*
X12430896Y-14156984D02*
X12383277Y-14156984D01*
X12383277Y-14156984D02*
X12364229Y-14147460D01*
X12364229Y-14147460D02*
X12354706Y-14137936D01*
X12564229Y-14156984D02*
X12602325Y-14156984D01*
X12602325Y-14156984D02*
X12621372Y-14147460D01*
X12621372Y-14147460D02*
X12630896Y-14137936D01*
X12630896Y-14137936D02*
X12649944Y-14109365D01*
X12649944Y-14109365D02*
X12659467Y-14071269D01*
X12659467Y-14071269D02*
X12659467Y-13995079D01*
X12659467Y-13995079D02*
X12649944Y-13976031D01*
X12649944Y-13976031D02*
X12640420Y-13966508D01*
X12640420Y-13966508D02*
X12621372Y-13956984D01*
X12621372Y-13956984D02*
X12583277Y-13956984D01*
X12583277Y-13956984D02*
X12564229Y-13966508D01*
X12564229Y-13966508D02*
X12554706Y-13976031D01*
X12554706Y-13976031D02*
X12545182Y-13995079D01*
X12545182Y-13995079D02*
X12545182Y-14042698D01*
X12545182Y-14042698D02*
X12554706Y-14061746D01*
X12554706Y-14061746D02*
X12564229Y-14071269D01*
X12564229Y-14071269D02*
X12583277Y-14080793D01*
X12583277Y-14080793D02*
X12621372Y-14080793D01*
X12621372Y-14080793D02*
X12640420Y-14071269D01*
X12640420Y-14071269D02*
X12649944Y-14061746D01*
X12649944Y-14061746D02*
X12659467Y-14042698D01*
X12849944Y-14156984D02*
X12735658Y-14156984D01*
X12792801Y-14156984D02*
X12792801Y-13956984D01*
X12792801Y-13956984D02*
X12773753Y-13985555D01*
X12773753Y-13985555D02*
X12754706Y-14004603D01*
X12754706Y-14004603D02*
X12735658Y-14014127D01*
X12926134Y-13956984D02*
X12926134Y-13995079D01*
X13002325Y-13956984D02*
X13002325Y-13995079D01*
X13297563Y-14233174D02*
X13288039Y-14223650D01*
X13288039Y-14223650D02*
X13268991Y-14195079D01*
X13268991Y-14195079D02*
X13259468Y-14176031D01*
X13259468Y-14176031D02*
X13249944Y-14147460D01*
X13249944Y-14147460D02*
X13240420Y-14099841D01*
X13240420Y-14099841D02*
X13240420Y-14061746D01*
X13240420Y-14061746D02*
X13249944Y-14014127D01*
X13249944Y-14014127D02*
X13259468Y-13985555D01*
X13259468Y-13985555D02*
X13268991Y-13966508D01*
X13268991Y-13966508D02*
X13288039Y-13937936D01*
X13288039Y-13937936D02*
X13297563Y-13928412D01*
X13364229Y-13976031D02*
X13373753Y-13966508D01*
X13373753Y-13966508D02*
X13392801Y-13956984D01*
X13392801Y-13956984D02*
X13440420Y-13956984D01*
X13440420Y-13956984D02*
X13459468Y-13966508D01*
X13459468Y-13966508D02*
X13468991Y-13976031D01*
X13468991Y-13976031D02*
X13478515Y-13995079D01*
X13478515Y-13995079D02*
X13478515Y-14014127D01*
X13478515Y-14014127D02*
X13468991Y-14042698D01*
X13468991Y-14042698D02*
X13354706Y-14156984D01*
X13354706Y-14156984D02*
X13478515Y-14156984D01*
X13716610Y-14156984D02*
X13716610Y-13956984D01*
X13802325Y-14156984D02*
X13802325Y-14052222D01*
X13802325Y-14052222D02*
X13792801Y-14033174D01*
X13792801Y-14033174D02*
X13773753Y-14023650D01*
X13773753Y-14023650D02*
X13745182Y-14023650D01*
X13745182Y-14023650D02*
X13726134Y-14033174D01*
X13726134Y-14033174D02*
X13716610Y-14042698D01*
X13926134Y-14156984D02*
X13907087Y-14147460D01*
X13907087Y-14147460D02*
X13897563Y-14137936D01*
X13897563Y-14137936D02*
X13888039Y-14118888D01*
X13888039Y-14118888D02*
X13888039Y-14061746D01*
X13888039Y-14061746D02*
X13897563Y-14042698D01*
X13897563Y-14042698D02*
X13907087Y-14033174D01*
X13907087Y-14033174D02*
X13926134Y-14023650D01*
X13926134Y-14023650D02*
X13954706Y-14023650D01*
X13954706Y-14023650D02*
X13973753Y-14033174D01*
X13973753Y-14033174D02*
X13983277Y-14042698D01*
X13983277Y-14042698D02*
X13992801Y-14061746D01*
X13992801Y-14061746D02*
X13992801Y-14118888D01*
X13992801Y-14118888D02*
X13983277Y-14137936D01*
X13983277Y-14137936D02*
X13973753Y-14147460D01*
X13973753Y-14147460D02*
X13954706Y-14156984D01*
X13954706Y-14156984D02*
X13926134Y-14156984D01*
X14107087Y-14156984D02*
X14088039Y-14147460D01*
X14088039Y-14147460D02*
X14078515Y-14128412D01*
X14078515Y-14128412D02*
X14078515Y-13956984D01*
X14259468Y-14147460D02*
X14240420Y-14156984D01*
X14240420Y-14156984D02*
X14202325Y-14156984D01*
X14202325Y-14156984D02*
X14183277Y-14147460D01*
X14183277Y-14147460D02*
X14173753Y-14128412D01*
X14173753Y-14128412D02*
X14173753Y-14052222D01*
X14173753Y-14052222D02*
X14183277Y-14033174D01*
X14183277Y-14033174D02*
X14202325Y-14023650D01*
X14202325Y-14023650D02*
X14240420Y-14023650D01*
X14240420Y-14023650D02*
X14259468Y-14033174D01*
X14259468Y-14033174D02*
X14268991Y-14052222D01*
X14268991Y-14052222D02*
X14268991Y-14071269D01*
X14268991Y-14071269D02*
X14173753Y-14090317D01*
X14345182Y-14147460D02*
X14364230Y-14156984D01*
X14364230Y-14156984D02*
X14402325Y-14156984D01*
X14402325Y-14156984D02*
X14421372Y-14147460D01*
X14421372Y-14147460D02*
X14430896Y-14128412D01*
X14430896Y-14128412D02*
X14430896Y-14118888D01*
X14430896Y-14118888D02*
X14421372Y-14099841D01*
X14421372Y-14099841D02*
X14402325Y-14090317D01*
X14402325Y-14090317D02*
X14373753Y-14090317D01*
X14373753Y-14090317D02*
X14354706Y-14080793D01*
X14354706Y-14080793D02*
X14345182Y-14061746D01*
X14345182Y-14061746D02*
X14345182Y-14052222D01*
X14345182Y-14052222D02*
X14354706Y-14033174D01*
X14354706Y-14033174D02*
X14373753Y-14023650D01*
X14373753Y-14023650D02*
X14402325Y-14023650D01*
X14402325Y-14023650D02*
X14421372Y-14033174D01*
X14497563Y-14233174D02*
X14507087Y-14223650D01*
X14507087Y-14223650D02*
X14526134Y-14195079D01*
X14526134Y-14195079D02*
X14535658Y-14176031D01*
X14535658Y-14176031D02*
X14545182Y-14147460D01*
X14545182Y-14147460D02*
X14554706Y-14099841D01*
X14554706Y-14099841D02*
X14554706Y-14061746D01*
X14554706Y-14061746D02*
X14545182Y-14014127D01*
X14545182Y-14014127D02*
X14535658Y-13985555D01*
X14535658Y-13985555D02*
X14526134Y-13966508D01*
X14526134Y-13966508D02*
X14507087Y-13937936D01*
X14507087Y-13937936D02*
X14497563Y-13928412D01*
M02*
