%TF.GenerationSoftware,KiCad,Pcbnew,8.0.6*%
%TF.CreationDate,2026-09-02T22:55:40+08:00*%
%TF.ProjectId,AuraPCB,41757261-5043-4422-9e6b-696361645f70,rev?*%
%TF.SameCoordinates,Original*%
%TF.FileFunction,Drillmap*%
%TF.FilePolarity,Positive*%
%FSLAX45Y45*%
G04 Gerber Fmt 4.5, Leading zero omitted, Abs format (unit mm)*
G04 Created by KiCad (PCBNEW 8.0.6) date 2026-09-02 22:55:40*
%MOMM*%
%LPD*%
G01*
G04 APERTURE LIST*
%ADD10C,0.050000*%
%ADD11C,0.200000*%
G04 APERTURE END LIST*
D10*
X16940000Y-12570000D02*
X16940000Y-7580000D01*
X9190000Y-12570000D02*
X16940000Y-12570000D01*
X9190000Y-7580000D02*
X9190000Y-7690000D01*
X9190000Y-7690000D02*
X9190000Y-12570000D01*
X16940000Y-7580000D02*
X9190000Y-7580000D01*
D11*
X9448277Y-12883984D02*
X9448277Y-12683984D01*
X9448277Y-12683984D02*
X9495896Y-12683984D01*
X9495896Y-12683984D02*
X9524467Y-12693508D01*
X9524467Y-12693508D02*
X9543515Y-12712555D01*
X9543515Y-12712555D02*
X9553039Y-12731603D01*
X9553039Y-12731603D02*
X9562563Y-12769698D01*
X9562563Y-12769698D02*
X9562563Y-12798269D01*
X9562563Y-12798269D02*
X9553039Y-12836365D01*
X9553039Y-12836365D02*
X9543515Y-12855412D01*
X9543515Y-12855412D02*
X9524467Y-12874460D01*
X9524467Y-12874460D02*
X9495896Y-12883984D01*
X9495896Y-12883984D02*
X9448277Y-12883984D01*
X9648277Y-12883984D02*
X9648277Y-12750650D01*
X9648277Y-12788746D02*
X9657801Y-12769698D01*
X9657801Y-12769698D02*
X9667324Y-12760174D01*
X9667324Y-12760174D02*
X9686372Y-12750650D01*
X9686372Y-12750650D02*
X9705420Y-12750650D01*
X9772086Y-12883984D02*
X9772086Y-12750650D01*
X9772086Y-12683984D02*
X9762563Y-12693508D01*
X9762563Y-12693508D02*
X9772086Y-12703031D01*
X9772086Y-12703031D02*
X9781610Y-12693508D01*
X9781610Y-12693508D02*
X9772086Y-12683984D01*
X9772086Y-12683984D02*
X9772086Y-12703031D01*
X9895896Y-12883984D02*
X9876848Y-12874460D01*
X9876848Y-12874460D02*
X9867324Y-12855412D01*
X9867324Y-12855412D02*
X9867324Y-12683984D01*
X10000658Y-12883984D02*
X9981610Y-12874460D01*
X9981610Y-12874460D02*
X9972086Y-12855412D01*
X9972086Y-12855412D02*
X9972086Y-12683984D01*
X10229229Y-12883984D02*
X10229229Y-12683984D01*
X10229229Y-12683984D02*
X10295896Y-12826841D01*
X10295896Y-12826841D02*
X10362563Y-12683984D01*
X10362563Y-12683984D02*
X10362563Y-12883984D01*
X10543515Y-12883984D02*
X10543515Y-12779222D01*
X10543515Y-12779222D02*
X10533991Y-12760174D01*
X10533991Y-12760174D02*
X10514944Y-12750650D01*
X10514944Y-12750650D02*
X10476848Y-12750650D01*
X10476848Y-12750650D02*
X10457801Y-12760174D01*
X10543515Y-12874460D02*
X10524467Y-12883984D01*
X10524467Y-12883984D02*
X10476848Y-12883984D01*
X10476848Y-12883984D02*
X10457801Y-12874460D01*
X10457801Y-12874460D02*
X10448277Y-12855412D01*
X10448277Y-12855412D02*
X10448277Y-12836365D01*
X10448277Y-12836365D02*
X10457801Y-12817317D01*
X10457801Y-12817317D02*
X10476848Y-12807793D01*
X10476848Y-12807793D02*
X10524467Y-12807793D01*
X10524467Y-12807793D02*
X10543515Y-12798269D01*
X10638753Y-12750650D02*
X10638753Y-12950650D01*
X10638753Y-12760174D02*
X10657801Y-12750650D01*
X10657801Y-12750650D02*
X10695896Y-12750650D01*
X10695896Y-12750650D02*
X10714944Y-12760174D01*
X10714944Y-12760174D02*
X10724467Y-12769698D01*
X10724467Y-12769698D02*
X10733991Y-12788746D01*
X10733991Y-12788746D02*
X10733991Y-12845888D01*
X10733991Y-12845888D02*
X10724467Y-12864936D01*
X10724467Y-12864936D02*
X10714944Y-12874460D01*
X10714944Y-12874460D02*
X10695896Y-12883984D01*
X10695896Y-12883984D02*
X10657801Y-12883984D01*
X10657801Y-12883984D02*
X10638753Y-12874460D01*
X10819705Y-12864936D02*
X10829229Y-12874460D01*
X10829229Y-12874460D02*
X10819705Y-12883984D01*
X10819705Y-12883984D02*
X10810182Y-12874460D01*
X10810182Y-12874460D02*
X10819705Y-12864936D01*
X10819705Y-12864936D02*
X10819705Y-12883984D01*
X10819705Y-12760174D02*
X10829229Y-12769698D01*
X10829229Y-12769698D02*
X10819705Y-12779222D01*
X10819705Y-12779222D02*
X10810182Y-12769698D01*
X10810182Y-12769698D02*
X10819705Y-12760174D01*
X10819705Y-12760174D02*
X10819705Y-12779222D01*
M02*
