%TF.GenerationSoftware,KiCad,Pcbnew,8.0.6*%
%TF.CreationDate,2026-09-02T22:55:40+08:00*%
%TF.ProjectId,AuraPCB,41757261-5043-4422-9e6b-696361645f70,rev?*%
%TF.SameCoordinates,Original*%
%TF.FileFunction,Drillmap*%
%TF.FilePolarity,Positive*%
%FSLAX45Y45*%
G04 Gerber Fmt 4.5, Leading zero omitted, Abs format (unit mm)*
G04 Created by KiCad (PCBNEW 8.0.6) date 2026-09-02 22:55:40*
%MOMM*%
%LPD*%
G01*
G04 APERTURE LIST*
%ADD10C,0.050000*%
%ADD11C,0.200000*%
%ADD12C,0.100000*%
%ADD13C,0.110000*%
G04 APERTURE END LIST*
D10*
X16940000Y-12570000D02*
X16940000Y-7580000D01*
X9190000Y-12570000D02*
X16940000Y-12570000D01*
X9190000Y-7580000D02*
X9190000Y-7690000D01*
X9190000Y-7690000D02*
X9190000Y-12570000D01*
X16940000Y-7580000D02*
X9190000Y-7580000D01*
D11*
D12*
X14405000Y-9055000D02*
X14435000Y-9085000D01*
X14435000Y-9055000D02*
X14405000Y-9085000D01*
X10426100Y-7970000D02*
G75*
G02*
X10349900Y-7970000I-38100J0D01*
G01*
X10349900Y-7970000D02*
G75*
G02*
X10426100Y-7970000I38100J0D01*
G01*
X10680100Y-7970000D02*
G75*
G02*
X10603900Y-7970000I-38100J0D01*
G01*
X10603900Y-7970000D02*
G75*
G02*
X10680100Y-7970000I38100J0D01*
G01*
X10934100Y-7970000D02*
G75*
G02*
X10857900Y-7970000I-38100J0D01*
G01*
X10857900Y-7970000D02*
G75*
G02*
X10934100Y-7970000I38100J0D01*
G01*
X11188100Y-7970000D02*
G75*
G02*
X11111900Y-7970000I-38100J0D01*
G01*
X11111900Y-7970000D02*
G75*
G02*
X11188100Y-7970000I38100J0D01*
G01*
X14558000Y-7870000D02*
X14558000Y-7950000D01*
X14518000Y-7910000D02*
X14598000Y-7910000D01*
X14680000Y-8730000D02*
X14680000Y-8810000D01*
X14640000Y-8770000D02*
X14720000Y-8770000D01*
X14680000Y-9230000D02*
X14680000Y-9310000D01*
X14640000Y-9270000D02*
X14720000Y-9270000D01*
X15320000Y-7870000D02*
X15320000Y-7950000D01*
X15280000Y-7910000D02*
X15360000Y-7910000D01*
X15350000Y-8580000D02*
X15350000Y-8660000D01*
X15310000Y-8620000D02*
X15390000Y-8620000D01*
X15350000Y-9342000D02*
X15350000Y-9422000D01*
X15310000Y-9382000D02*
X15390000Y-9382000D01*
X15787820Y-8101820D02*
X15787820Y-8038180D01*
X15724180Y-8038180D01*
X15724180Y-8101820D01*
X15787820Y-8101820D01*
X16041820Y-8101820D02*
X16041820Y-8038180D01*
X15978180Y-8038180D01*
X15978180Y-8101820D01*
X16041820Y-8101820D01*
X12626000Y-8464000D02*
X12676000Y-8414000D01*
X12626000Y-8364000D01*
X12576000Y-8414000D01*
X12626000Y-8464000D01*
X12626000Y-8718000D02*
X12676000Y-8668000D01*
X12626000Y-8618000D01*
X12576000Y-8668000D01*
X12626000Y-8718000D01*
X12626000Y-8972000D02*
X12676000Y-8922000D01*
X12626000Y-8872000D01*
X12576000Y-8922000D01*
X12626000Y-8972000D01*
X12626000Y-9226000D02*
X12676000Y-9176000D01*
X12626000Y-9126000D01*
X12576000Y-9176000D01*
X12626000Y-9226000D01*
X12626000Y-9480000D02*
X12676000Y-9430000D01*
X12626000Y-9380000D01*
X12576000Y-9430000D01*
X12626000Y-9480000D01*
X12626000Y-9734000D02*
X12676000Y-9684000D01*
X12626000Y-9634000D01*
X12576000Y-9684000D01*
X12626000Y-9734000D01*
X12626000Y-9988000D02*
X12676000Y-9938000D01*
X12626000Y-9888000D01*
X12576000Y-9938000D01*
X12626000Y-9988000D01*
X12626000Y-10242000D02*
X12676000Y-10192000D01*
X12626000Y-10142000D01*
X12576000Y-10192000D01*
X12626000Y-10242000D01*
X12626000Y-10496000D02*
X12676000Y-10446000D01*
X12626000Y-10396000D01*
X12576000Y-10446000D01*
X12626000Y-10496000D01*
X12626000Y-10750000D02*
X12676000Y-10700000D01*
X12626000Y-10650000D01*
X12576000Y-10700000D01*
X12626000Y-10750000D01*
X12626000Y-11004000D02*
X12676000Y-10954000D01*
X12626000Y-10904000D01*
X12576000Y-10954000D01*
X12626000Y-11004000D01*
X12626000Y-11258000D02*
X12676000Y-11208000D01*
X12626000Y-11158000D01*
X12576000Y-11208000D01*
X12626000Y-11258000D01*
X12626000Y-11512000D02*
X12676000Y-11462000D01*
X12626000Y-11412000D01*
X12576000Y-11462000D01*
X12626000Y-11512000D01*
X12626000Y-11766000D02*
X12676000Y-11716000D01*
X12626000Y-11666000D01*
X12576000Y-11716000D01*
X12626000Y-11766000D01*
X12626000Y-12020000D02*
X12676000Y-11970000D01*
X12626000Y-11920000D01*
X12576000Y-11970000D01*
X12626000Y-12020000D01*
X14150000Y-8464000D02*
X14200000Y-8414000D01*
X14150000Y-8364000D01*
X14100000Y-8414000D01*
X14150000Y-8464000D01*
X14150000Y-8718000D02*
X14200000Y-8668000D01*
X14150000Y-8618000D01*
X14100000Y-8668000D01*
X14150000Y-8718000D01*
X14150000Y-8972000D02*
X14200000Y-8922000D01*
X14150000Y-8872000D01*
X14100000Y-8922000D01*
X14150000Y-8972000D01*
X14150000Y-9226000D02*
X14200000Y-9176000D01*
X14150000Y-9126000D01*
X14100000Y-9176000D01*
X14150000Y-9226000D01*
X14150000Y-9480000D02*
X14200000Y-9430000D01*
X14150000Y-9380000D01*
X14100000Y-9430000D01*
X14150000Y-9480000D01*
X14150000Y-9734000D02*
X14200000Y-9684000D01*
X14150000Y-9634000D01*
X14100000Y-9684000D01*
X14150000Y-9734000D01*
X14150000Y-9988000D02*
X14200000Y-9938000D01*
X14150000Y-9888000D01*
X14100000Y-9938000D01*
X14150000Y-9988000D01*
X14150000Y-10242000D02*
X14200000Y-10192000D01*
X14150000Y-10142000D01*
X14100000Y-10192000D01*
X14150000Y-10242000D01*
X14150000Y-10496000D02*
X14200000Y-10446000D01*
X14150000Y-10396000D01*
X14100000Y-10446000D01*
X14150000Y-10496000D01*
X14150000Y-10750000D02*
X14200000Y-10700000D01*
X14150000Y-10650000D01*
X14100000Y-10700000D01*
X14150000Y-10750000D01*
X14150000Y-11004000D02*
X14200000Y-10954000D01*
X14150000Y-10904000D01*
X14100000Y-10954000D01*
X14150000Y-11004000D01*
X14150000Y-11258000D02*
X14200000Y-11208000D01*
X14150000Y-11158000D01*
X14100000Y-11208000D01*
X14150000Y-11258000D01*
X14150000Y-11512000D02*
X14200000Y-11462000D01*
X14150000Y-11412000D01*
X14100000Y-11462000D01*
X14150000Y-11512000D01*
X14150000Y-11766000D02*
X14200000Y-11716000D01*
X14150000Y-11666000D01*
X14100000Y-11716000D01*
X14150000Y-11766000D01*
X14150000Y-12020000D02*
X14200000Y-11970000D01*
X14150000Y-11920000D01*
X14100000Y-11970000D01*
X14150000Y-12020000D01*
D13*
X15805000Y-8775000D02*
X15915000Y-8885000D01*
X15915000Y-8775000D02*
X15805000Y-8885000D01*
X15915000Y-8830000D02*
G75*
G02*
X15805000Y-8830000I-55000J0D01*
G01*
X15805000Y-8830000D02*
G75*
G02*
X15915000Y-8830000I55000J0D01*
G01*
X15805000Y-9225000D02*
X15915000Y-9335000D01*
X15915000Y-9225000D02*
X15805000Y-9335000D01*
X15915000Y-9280000D02*
G75*
G02*
X15805000Y-9280000I-55000J0D01*
G01*
X15805000Y-9280000D02*
G75*
G02*
X15915000Y-9280000I55000J0D01*
G01*
X16455000Y-8775000D02*
X16565000Y-8885000D01*
X16565000Y-8775000D02*
X16455000Y-8885000D01*
X16565000Y-8830000D02*
G75*
G02*
X16455000Y-8830000I-55000J0D01*
G01*
X16455000Y-8830000D02*
G75*
G02*
X16565000Y-8830000I55000J0D01*
G01*
X16455000Y-9225000D02*
X16565000Y-9335000D01*
X16565000Y-9225000D02*
X16455000Y-9335000D01*
X16565000Y-9280000D02*
G75*
G02*
X16455000Y-9280000I-55000J0D01*
G01*
X16455000Y-9280000D02*
G75*
G02*
X16565000Y-9280000I55000J0D01*
G01*
D11*
X9448277Y-12883984D02*
X9448277Y-12683984D01*
X9448277Y-12683984D02*
X9495896Y-12683984D01*
X9495896Y-12683984D02*
X9524467Y-12693508D01*
X9524467Y-12693508D02*
X9543515Y-12712555D01*
X9543515Y-12712555D02*
X9553039Y-12731603D01*
X9553039Y-12731603D02*
X9562563Y-12769698D01*
X9562563Y-12769698D02*
X9562563Y-12798269D01*
X9562563Y-12798269D02*
X9553039Y-12836365D01*
X9553039Y-12836365D02*
X9543515Y-12855412D01*
X9543515Y-12855412D02*
X9524467Y-12874460D01*
X9524467Y-12874460D02*
X9495896Y-12883984D01*
X9495896Y-12883984D02*
X9448277Y-12883984D01*
X9648277Y-12883984D02*
X9648277Y-12750650D01*
X9648277Y-12788746D02*
X9657801Y-12769698D01*
X9657801Y-12769698D02*
X9667324Y-12760174D01*
X9667324Y-12760174D02*
X9686372Y-12750650D01*
X9686372Y-12750650D02*
X9705420Y-12750650D01*
X9772086Y-12883984D02*
X9772086Y-12750650D01*
X9772086Y-12683984D02*
X9762563Y-12693508D01*
X9762563Y-12693508D02*
X9772086Y-12703031D01*
X9772086Y-12703031D02*
X9781610Y-12693508D01*
X9781610Y-12693508D02*
X9772086Y-12683984D01*
X9772086Y-12683984D02*
X9772086Y-12703031D01*
X9895896Y-12883984D02*
X9876848Y-12874460D01*
X9876848Y-12874460D02*
X9867324Y-12855412D01*
X9867324Y-12855412D02*
X9867324Y-12683984D01*
X10000658Y-12883984D02*
X9981610Y-12874460D01*
X9981610Y-12874460D02*
X9972086Y-12855412D01*
X9972086Y-12855412D02*
X9972086Y-12683984D01*
X10229229Y-12883984D02*
X10229229Y-12683984D01*
X10229229Y-12683984D02*
X10295896Y-12826841D01*
X10295896Y-12826841D02*
X10362563Y-12683984D01*
X10362563Y-12683984D02*
X10362563Y-12883984D01*
X10543515Y-12883984D02*
X10543515Y-12779222D01*
X10543515Y-12779222D02*
X10533991Y-12760174D01*
X10533991Y-12760174D02*
X10514944Y-12750650D01*
X10514944Y-12750650D02*
X10476848Y-12750650D01*
X10476848Y-12750650D02*
X10457801Y-12760174D01*
X10543515Y-12874460D02*
X10524467Y-12883984D01*
X10524467Y-12883984D02*
X10476848Y-12883984D01*
X10476848Y-12883984D02*
X10457801Y-12874460D01*
X10457801Y-12874460D02*
X10448277Y-12855412D01*
X10448277Y-12855412D02*
X10448277Y-12836365D01*
X10448277Y-12836365D02*
X10457801Y-12817317D01*
X10457801Y-12817317D02*
X10476848Y-12807793D01*
X10476848Y-12807793D02*
X10524467Y-12807793D01*
X10524467Y-12807793D02*
X10543515Y-12798269D01*
X10638753Y-12750650D02*
X10638753Y-12950650D01*
X10638753Y-12760174D02*
X10657801Y-12750650D01*
X10657801Y-12750650D02*
X10695896Y-12750650D01*
X10695896Y-12750650D02*
X10714944Y-12760174D01*
X10714944Y-12760174D02*
X10724467Y-12769698D01*
X10724467Y-12769698D02*
X10733991Y-12788746D01*
X10733991Y-12788746D02*
X10733991Y-12845888D01*
X10733991Y-12845888D02*
X10724467Y-12864936D01*
X10724467Y-12864936D02*
X10714944Y-12874460D01*
X10714944Y-12874460D02*
X10695896Y-12883984D01*
X10695896Y-12883984D02*
X10657801Y-12883984D01*
X10657801Y-12883984D02*
X10638753Y-12874460D01*
X10819705Y-12864936D02*
X10829229Y-12874460D01*
X10829229Y-12874460D02*
X10819705Y-12883984D01*
X10819705Y-12883984D02*
X10810182Y-12874460D01*
X10810182Y-12874460D02*
X10819705Y-12864936D01*
X10819705Y-12864936D02*
X10819705Y-12883984D01*
X10819705Y-12760174D02*
X10829229Y-12769698D01*
X10829229Y-12769698D02*
X10819705Y-12779222D01*
X10819705Y-12779222D02*
X10810182Y-12769698D01*
X10810182Y-12769698D02*
X10819705Y-12760174D01*
X10819705Y-12760174D02*
X10819705Y-12779222D01*
D12*
X9157500Y-13197500D02*
X9187500Y-13227500D01*
X9187500Y-13197500D02*
X9157500Y-13227500D01*
D11*
X9486372Y-13103984D02*
X9505420Y-13103984D01*
X9505420Y-13103984D02*
X9524467Y-13113508D01*
X9524467Y-13113508D02*
X9533991Y-13123031D01*
X9533991Y-13123031D02*
X9543515Y-13142079D01*
X9543515Y-13142079D02*
X9553039Y-13180174D01*
X9553039Y-13180174D02*
X9553039Y-13227793D01*
X9553039Y-13227793D02*
X9543515Y-13265888D01*
X9543515Y-13265888D02*
X9533991Y-13284936D01*
X9533991Y-13284936D02*
X9524467Y-13294460D01*
X9524467Y-13294460D02*
X9505420Y-13303984D01*
X9505420Y-13303984D02*
X9486372Y-13303984D01*
X9486372Y-13303984D02*
X9467324Y-13294460D01*
X9467324Y-13294460D02*
X9457801Y-13284936D01*
X9457801Y-13284936D02*
X9448277Y-13265888D01*
X9448277Y-13265888D02*
X9438753Y-13227793D01*
X9438753Y-13227793D02*
X9438753Y-13180174D01*
X9438753Y-13180174D02*
X9448277Y-13142079D01*
X9448277Y-13142079D02*
X9457801Y-13123031D01*
X9457801Y-13123031D02*
X9467324Y-13113508D01*
X9467324Y-13113508D02*
X9486372Y-13103984D01*
X9638753Y-13284936D02*
X9648277Y-13294460D01*
X9648277Y-13294460D02*
X9638753Y-13303984D01*
X9638753Y-13303984D02*
X9629229Y-13294460D01*
X9629229Y-13294460D02*
X9638753Y-13284936D01*
X9638753Y-13284936D02*
X9638753Y-13303984D01*
X9714944Y-13103984D02*
X9838753Y-13103984D01*
X9838753Y-13103984D02*
X9772086Y-13180174D01*
X9772086Y-13180174D02*
X9800658Y-13180174D01*
X9800658Y-13180174D02*
X9819705Y-13189698D01*
X9819705Y-13189698D02*
X9829229Y-13199222D01*
X9829229Y-13199222D02*
X9838753Y-13218269D01*
X9838753Y-13218269D02*
X9838753Y-13265888D01*
X9838753Y-13265888D02*
X9829229Y-13284936D01*
X9829229Y-13284936D02*
X9819705Y-13294460D01*
X9819705Y-13294460D02*
X9800658Y-13303984D01*
X9800658Y-13303984D02*
X9743515Y-13303984D01*
X9743515Y-13303984D02*
X9724467Y-13294460D01*
X9724467Y-13294460D02*
X9714944Y-13284936D01*
X9962563Y-13103984D02*
X9981610Y-13103984D01*
X9981610Y-13103984D02*
X10000658Y-13113508D01*
X10000658Y-13113508D02*
X10010182Y-13123031D01*
X10010182Y-13123031D02*
X10019705Y-13142079D01*
X10019705Y-13142079D02*
X10029229Y-13180174D01*
X10029229Y-13180174D02*
X10029229Y-13227793D01*
X10029229Y-13227793D02*
X10019705Y-13265888D01*
X10019705Y-13265888D02*
X10010182Y-13284936D01*
X10010182Y-13284936D02*
X10000658Y-13294460D01*
X10000658Y-13294460D02*
X9981610Y-13303984D01*
X9981610Y-13303984D02*
X9962563Y-13303984D01*
X9962563Y-13303984D02*
X9943515Y-13294460D01*
X9943515Y-13294460D02*
X9933991Y-13284936D01*
X9933991Y-13284936D02*
X9924467Y-13265888D01*
X9924467Y-13265888D02*
X9914944Y-13227793D01*
X9914944Y-13227793D02*
X9914944Y-13180174D01*
X9914944Y-13180174D02*
X9924467Y-13142079D01*
X9924467Y-13142079D02*
X9933991Y-13123031D01*
X9933991Y-13123031D02*
X9943515Y-13113508D01*
X9943515Y-13113508D02*
X9962563Y-13103984D01*
X10153039Y-13103984D02*
X10172086Y-13103984D01*
X10172086Y-13103984D02*
X10191134Y-13113508D01*
X10191134Y-13113508D02*
X10200658Y-13123031D01*
X10200658Y-13123031D02*
X10210182Y-13142079D01*
X10210182Y-13142079D02*
X10219705Y-13180174D01*
X10219705Y-13180174D02*
X10219705Y-13227793D01*
X10219705Y-13227793D02*
X10210182Y-13265888D01*
X10210182Y-13265888D02*
X10200658Y-13284936D01*
X10200658Y-13284936D02*
X10191134Y-13294460D01*
X10191134Y-13294460D02*
X10172086Y-13303984D01*
X10172086Y-13303984D02*
X10153039Y-13303984D01*
X10153039Y-13303984D02*
X10133991Y-13294460D01*
X10133991Y-13294460D02*
X10124467Y-13284936D01*
X10124467Y-13284936D02*
X10114944Y-13265888D01*
X10114944Y-13265888D02*
X10105420Y-13227793D01*
X10105420Y-13227793D02*
X10105420Y-13180174D01*
X10105420Y-13180174D02*
X10114944Y-13142079D01*
X10114944Y-13142079D02*
X10124467Y-13123031D01*
X10124467Y-13123031D02*
X10133991Y-13113508D01*
X10133991Y-13113508D02*
X10153039Y-13103984D01*
X10305420Y-13303984D02*
X10305420Y-13170650D01*
X10305420Y-13189698D02*
X10314944Y-13180174D01*
X10314944Y-13180174D02*
X10333991Y-13170650D01*
X10333991Y-13170650D02*
X10362563Y-13170650D01*
X10362563Y-13170650D02*
X10381610Y-13180174D01*
X10381610Y-13180174D02*
X10391134Y-13199222D01*
X10391134Y-13199222D02*
X10391134Y-13303984D01*
X10391134Y-13199222D02*
X10400658Y-13180174D01*
X10400658Y-13180174D02*
X10419705Y-13170650D01*
X10419705Y-13170650D02*
X10448277Y-13170650D01*
X10448277Y-13170650D02*
X10467325Y-13180174D01*
X10467325Y-13180174D02*
X10476848Y-13199222D01*
X10476848Y-13199222D02*
X10476848Y-13303984D01*
X10572086Y-13303984D02*
X10572086Y-13170650D01*
X10572086Y-13189698D02*
X10581610Y-13180174D01*
X10581610Y-13180174D02*
X10600658Y-13170650D01*
X10600658Y-13170650D02*
X10629229Y-13170650D01*
X10629229Y-13170650D02*
X10648277Y-13180174D01*
X10648277Y-13180174D02*
X10657801Y-13199222D01*
X10657801Y-13199222D02*
X10657801Y-13303984D01*
X10657801Y-13199222D02*
X10667325Y-13180174D01*
X10667325Y-13180174D02*
X10686372Y-13170650D01*
X10686372Y-13170650D02*
X10714944Y-13170650D01*
X10714944Y-13170650D02*
X10733991Y-13180174D01*
X10733991Y-13180174D02*
X10743515Y-13199222D01*
X10743515Y-13199222D02*
X10743515Y-13303984D01*
X11133991Y-13094460D02*
X10962563Y-13351603D01*
X11391134Y-13103984D02*
X11410182Y-13103984D01*
X11410182Y-13103984D02*
X11429229Y-13113508D01*
X11429229Y-13113508D02*
X11438753Y-13123031D01*
X11438753Y-13123031D02*
X11448277Y-13142079D01*
X11448277Y-13142079D02*
X11457801Y-13180174D01*
X11457801Y-13180174D02*
X11457801Y-13227793D01*
X11457801Y-13227793D02*
X11448277Y-13265888D01*
X11448277Y-13265888D02*
X11438753Y-13284936D01*
X11438753Y-13284936D02*
X11429229Y-13294460D01*
X11429229Y-13294460D02*
X11410182Y-13303984D01*
X11410182Y-13303984D02*
X11391134Y-13303984D01*
X11391134Y-13303984D02*
X11372086Y-13294460D01*
X11372086Y-13294460D02*
X11362563Y-13284936D01*
X11362563Y-13284936D02*
X11353039Y-13265888D01*
X11353039Y-13265888D02*
X11343515Y-13227793D01*
X11343515Y-13227793D02*
X11343515Y-13180174D01*
X11343515Y-13180174D02*
X11353039Y-13142079D01*
X11353039Y-13142079D02*
X11362563Y-13123031D01*
X11362563Y-13123031D02*
X11372086Y-13113508D01*
X11372086Y-13113508D02*
X11391134Y-13103984D01*
X11543515Y-13284936D02*
X11553039Y-13294460D01*
X11553039Y-13294460D02*
X11543515Y-13303984D01*
X11543515Y-13303984D02*
X11533991Y-13294460D01*
X11533991Y-13294460D02*
X11543515Y-13284936D01*
X11543515Y-13284936D02*
X11543515Y-13303984D01*
X11676848Y-13103984D02*
X11695896Y-13103984D01*
X11695896Y-13103984D02*
X11714944Y-13113508D01*
X11714944Y-13113508D02*
X11724467Y-13123031D01*
X11724467Y-13123031D02*
X11733991Y-13142079D01*
X11733991Y-13142079D02*
X11743515Y-13180174D01*
X11743515Y-13180174D02*
X11743515Y-13227793D01*
X11743515Y-13227793D02*
X11733991Y-13265888D01*
X11733991Y-13265888D02*
X11724467Y-13284936D01*
X11724467Y-13284936D02*
X11714944Y-13294460D01*
X11714944Y-13294460D02*
X11695896Y-13303984D01*
X11695896Y-13303984D02*
X11676848Y-13303984D01*
X11676848Y-13303984D02*
X11657801Y-13294460D01*
X11657801Y-13294460D02*
X11648277Y-13284936D01*
X11648277Y-13284936D02*
X11638753Y-13265888D01*
X11638753Y-13265888D02*
X11629229Y-13227793D01*
X11629229Y-13227793D02*
X11629229Y-13180174D01*
X11629229Y-13180174D02*
X11638753Y-13142079D01*
X11638753Y-13142079D02*
X11648277Y-13123031D01*
X11648277Y-13123031D02*
X11657801Y-13113508D01*
X11657801Y-13113508D02*
X11676848Y-13103984D01*
X11933991Y-13303984D02*
X11819706Y-13303984D01*
X11876848Y-13303984D02*
X11876848Y-13103984D01*
X11876848Y-13103984D02*
X11857801Y-13132555D01*
X11857801Y-13132555D02*
X11838753Y-13151603D01*
X11838753Y-13151603D02*
X11819706Y-13161127D01*
X12124467Y-13303984D02*
X12010182Y-13303984D01*
X12067325Y-13303984D02*
X12067325Y-13103984D01*
X12067325Y-13103984D02*
X12048277Y-13132555D01*
X12048277Y-13132555D02*
X12029229Y-13151603D01*
X12029229Y-13151603D02*
X12010182Y-13161127D01*
X12238753Y-13189698D02*
X12219706Y-13180174D01*
X12219706Y-13180174D02*
X12210182Y-13170650D01*
X12210182Y-13170650D02*
X12200658Y-13151603D01*
X12200658Y-13151603D02*
X12200658Y-13142079D01*
X12200658Y-13142079D02*
X12210182Y-13123031D01*
X12210182Y-13123031D02*
X12219706Y-13113508D01*
X12219706Y-13113508D02*
X12238753Y-13103984D01*
X12238753Y-13103984D02*
X12276848Y-13103984D01*
X12276848Y-13103984D02*
X12295896Y-13113508D01*
X12295896Y-13113508D02*
X12305420Y-13123031D01*
X12305420Y-13123031D02*
X12314944Y-13142079D01*
X12314944Y-13142079D02*
X12314944Y-13151603D01*
X12314944Y-13151603D02*
X12305420Y-13170650D01*
X12305420Y-13170650D02*
X12295896Y-13180174D01*
X12295896Y-13180174D02*
X12276848Y-13189698D01*
X12276848Y-13189698D02*
X12238753Y-13189698D01*
X12238753Y-13189698D02*
X12219706Y-13199222D01*
X12219706Y-13199222D02*
X12210182Y-13208746D01*
X12210182Y-13208746D02*
X12200658Y-13227793D01*
X12200658Y-13227793D02*
X12200658Y-13265888D01*
X12200658Y-13265888D02*
X12210182Y-13284936D01*
X12210182Y-13284936D02*
X12219706Y-13294460D01*
X12219706Y-13294460D02*
X12238753Y-13303984D01*
X12238753Y-13303984D02*
X12276848Y-13303984D01*
X12276848Y-13303984D02*
X12295896Y-13294460D01*
X12295896Y-13294460D02*
X12305420Y-13284936D01*
X12305420Y-13284936D02*
X12314944Y-13265888D01*
X12314944Y-13265888D02*
X12314944Y-13227793D01*
X12314944Y-13227793D02*
X12305420Y-13208746D01*
X12305420Y-13208746D02*
X12295896Y-13199222D01*
X12295896Y-13199222D02*
X12276848Y-13189698D01*
X12391134Y-13103984D02*
X12391134Y-13142079D01*
X12467325Y-13103984D02*
X12467325Y-13142079D01*
X12762563Y-13380174D02*
X12753039Y-13370650D01*
X12753039Y-13370650D02*
X12733991Y-13342079D01*
X12733991Y-13342079D02*
X12724468Y-13323031D01*
X12724468Y-13323031D02*
X12714944Y-13294460D01*
X12714944Y-13294460D02*
X12705420Y-13246841D01*
X12705420Y-13246841D02*
X12705420Y-13208746D01*
X12705420Y-13208746D02*
X12714944Y-13161127D01*
X12714944Y-13161127D02*
X12724468Y-13132555D01*
X12724468Y-13132555D02*
X12733991Y-13113508D01*
X12733991Y-13113508D02*
X12753039Y-13084936D01*
X12753039Y-13084936D02*
X12762563Y-13075412D01*
X12943515Y-13303984D02*
X12829229Y-13303984D01*
X12886372Y-13303984D02*
X12886372Y-13103984D01*
X12886372Y-13103984D02*
X12867325Y-13132555D01*
X12867325Y-13132555D02*
X12848277Y-13151603D01*
X12848277Y-13151603D02*
X12829229Y-13161127D01*
X13181610Y-13303984D02*
X13181610Y-13103984D01*
X13267325Y-13303984D02*
X13267325Y-13199222D01*
X13267325Y-13199222D02*
X13257801Y-13180174D01*
X13257801Y-13180174D02*
X13238753Y-13170650D01*
X13238753Y-13170650D02*
X13210182Y-13170650D01*
X13210182Y-13170650D02*
X13191134Y-13180174D01*
X13191134Y-13180174D02*
X13181610Y-13189698D01*
X13391134Y-13303984D02*
X13372087Y-13294460D01*
X13372087Y-13294460D02*
X13362563Y-13284936D01*
X13362563Y-13284936D02*
X13353039Y-13265888D01*
X13353039Y-13265888D02*
X13353039Y-13208746D01*
X13353039Y-13208746D02*
X13362563Y-13189698D01*
X13362563Y-13189698D02*
X13372087Y-13180174D01*
X13372087Y-13180174D02*
X13391134Y-13170650D01*
X13391134Y-13170650D02*
X13419706Y-13170650D01*
X13419706Y-13170650D02*
X13438753Y-13180174D01*
X13438753Y-13180174D02*
X13448277Y-13189698D01*
X13448277Y-13189698D02*
X13457801Y-13208746D01*
X13457801Y-13208746D02*
X13457801Y-13265888D01*
X13457801Y-13265888D02*
X13448277Y-13284936D01*
X13448277Y-13284936D02*
X13438753Y-13294460D01*
X13438753Y-13294460D02*
X13419706Y-13303984D01*
X13419706Y-13303984D02*
X13391134Y-13303984D01*
X13572087Y-13303984D02*
X13553039Y-13294460D01*
X13553039Y-13294460D02*
X13543515Y-13275412D01*
X13543515Y-13275412D02*
X13543515Y-13103984D01*
X13724468Y-13294460D02*
X13705420Y-13303984D01*
X13705420Y-13303984D02*
X13667325Y-13303984D01*
X13667325Y-13303984D02*
X13648277Y-13294460D01*
X13648277Y-13294460D02*
X13638753Y-13275412D01*
X13638753Y-13275412D02*
X13638753Y-13199222D01*
X13638753Y-13199222D02*
X13648277Y-13180174D01*
X13648277Y-13180174D02*
X13667325Y-13170650D01*
X13667325Y-13170650D02*
X13705420Y-13170650D01*
X13705420Y-13170650D02*
X13724468Y-13180174D01*
X13724468Y-13180174D02*
X13733991Y-13199222D01*
X13733991Y-13199222D02*
X13733991Y-13218269D01*
X13733991Y-13218269D02*
X13638753Y-13237317D01*
X13800658Y-13380174D02*
X13810182Y-13370650D01*
X13810182Y-13370650D02*
X13829230Y-13342079D01*
X13829230Y-13342079D02*
X13838753Y-13323031D01*
X13838753Y-13323031D02*
X13848277Y-13294460D01*
X13848277Y-13294460D02*
X13857801Y-13246841D01*
X13857801Y-13246841D02*
X13857801Y-13208746D01*
X13857801Y-13208746D02*
X13848277Y-13161127D01*
X13848277Y-13161127D02*
X13838753Y-13132555D01*
X13838753Y-13132555D02*
X13829230Y-13113508D01*
X13829230Y-13113508D02*
X13810182Y-13084936D01*
X13810182Y-13084936D02*
X13800658Y-13075412D01*
D12*
X9187500Y-13476500D02*
G75*
G02*
X9111300Y-13476500I-38100J0D01*
G01*
X9111300Y-13476500D02*
G75*
G02*
X9187500Y-13476500I38100J0D01*
G01*
D11*
X9486372Y-13367984D02*
X9505420Y-13367984D01*
X9505420Y-13367984D02*
X9524467Y-13377508D01*
X9524467Y-13377508D02*
X9533991Y-13387031D01*
X9533991Y-13387031D02*
X9543515Y-13406079D01*
X9543515Y-13406079D02*
X9553039Y-13444174D01*
X9553039Y-13444174D02*
X9553039Y-13491793D01*
X9553039Y-13491793D02*
X9543515Y-13529888D01*
X9543515Y-13529888D02*
X9533991Y-13548936D01*
X9533991Y-13548936D02*
X9524467Y-13558460D01*
X9524467Y-13558460D02*
X9505420Y-13567984D01*
X9505420Y-13567984D02*
X9486372Y-13567984D01*
X9486372Y-13567984D02*
X9467324Y-13558460D01*
X9467324Y-13558460D02*
X9457801Y-13548936D01*
X9457801Y-13548936D02*
X9448277Y-13529888D01*
X9448277Y-13529888D02*
X9438753Y-13491793D01*
X9438753Y-13491793D02*
X9438753Y-13444174D01*
X9438753Y-13444174D02*
X9448277Y-13406079D01*
X9448277Y-13406079D02*
X9457801Y-13387031D01*
X9457801Y-13387031D02*
X9467324Y-13377508D01*
X9467324Y-13377508D02*
X9486372Y-13367984D01*
X9638753Y-13548936D02*
X9648277Y-13558460D01*
X9648277Y-13558460D02*
X9638753Y-13567984D01*
X9638753Y-13567984D02*
X9629229Y-13558460D01*
X9629229Y-13558460D02*
X9638753Y-13548936D01*
X9638753Y-13548936D02*
X9638753Y-13567984D01*
X9714944Y-13367984D02*
X9848277Y-13367984D01*
X9848277Y-13367984D02*
X9762563Y-13567984D01*
X10010182Y-13367984D02*
X9972086Y-13367984D01*
X9972086Y-13367984D02*
X9953039Y-13377508D01*
X9953039Y-13377508D02*
X9943515Y-13387031D01*
X9943515Y-13387031D02*
X9924467Y-13415603D01*
X9924467Y-13415603D02*
X9914944Y-13453698D01*
X9914944Y-13453698D02*
X9914944Y-13529888D01*
X9914944Y-13529888D02*
X9924467Y-13548936D01*
X9924467Y-13548936D02*
X9933991Y-13558460D01*
X9933991Y-13558460D02*
X9953039Y-13567984D01*
X9953039Y-13567984D02*
X9991134Y-13567984D01*
X9991134Y-13567984D02*
X10010182Y-13558460D01*
X10010182Y-13558460D02*
X10019705Y-13548936D01*
X10019705Y-13548936D02*
X10029229Y-13529888D01*
X10029229Y-13529888D02*
X10029229Y-13482269D01*
X10029229Y-13482269D02*
X10019705Y-13463222D01*
X10019705Y-13463222D02*
X10010182Y-13453698D01*
X10010182Y-13453698D02*
X9991134Y-13444174D01*
X9991134Y-13444174D02*
X9953039Y-13444174D01*
X9953039Y-13444174D02*
X9933991Y-13453698D01*
X9933991Y-13453698D02*
X9924467Y-13463222D01*
X9924467Y-13463222D02*
X9914944Y-13482269D01*
X10105420Y-13387031D02*
X10114944Y-13377508D01*
X10114944Y-13377508D02*
X10133991Y-13367984D01*
X10133991Y-13367984D02*
X10181610Y-13367984D01*
X10181610Y-13367984D02*
X10200658Y-13377508D01*
X10200658Y-13377508D02*
X10210182Y-13387031D01*
X10210182Y-13387031D02*
X10219705Y-13406079D01*
X10219705Y-13406079D02*
X10219705Y-13425127D01*
X10219705Y-13425127D02*
X10210182Y-13453698D01*
X10210182Y-13453698D02*
X10095896Y-13567984D01*
X10095896Y-13567984D02*
X10219705Y-13567984D01*
X10305420Y-13567984D02*
X10305420Y-13434650D01*
X10305420Y-13453698D02*
X10314944Y-13444174D01*
X10314944Y-13444174D02*
X10333991Y-13434650D01*
X10333991Y-13434650D02*
X10362563Y-13434650D01*
X10362563Y-13434650D02*
X10381610Y-13444174D01*
X10381610Y-13444174D02*
X10391134Y-13463222D01*
X10391134Y-13463222D02*
X10391134Y-13567984D01*
X10391134Y-13463222D02*
X10400658Y-13444174D01*
X10400658Y-13444174D02*
X10419705Y-13434650D01*
X10419705Y-13434650D02*
X10448277Y-13434650D01*
X10448277Y-13434650D02*
X10467325Y-13444174D01*
X10467325Y-13444174D02*
X10476848Y-13463222D01*
X10476848Y-13463222D02*
X10476848Y-13567984D01*
X10572086Y-13567984D02*
X10572086Y-13434650D01*
X10572086Y-13453698D02*
X10581610Y-13444174D01*
X10581610Y-13444174D02*
X10600658Y-13434650D01*
X10600658Y-13434650D02*
X10629229Y-13434650D01*
X10629229Y-13434650D02*
X10648277Y-13444174D01*
X10648277Y-13444174D02*
X10657801Y-13463222D01*
X10657801Y-13463222D02*
X10657801Y-13567984D01*
X10657801Y-13463222D02*
X10667325Y-13444174D01*
X10667325Y-13444174D02*
X10686372Y-13434650D01*
X10686372Y-13434650D02*
X10714944Y-13434650D01*
X10714944Y-13434650D02*
X10733991Y-13444174D01*
X10733991Y-13444174D02*
X10743515Y-13463222D01*
X10743515Y-13463222D02*
X10743515Y-13567984D01*
X11133991Y-13358460D02*
X10962563Y-13615603D01*
X11391134Y-13367984D02*
X11410182Y-13367984D01*
X11410182Y-13367984D02*
X11429229Y-13377508D01*
X11429229Y-13377508D02*
X11438753Y-13387031D01*
X11438753Y-13387031D02*
X11448277Y-13406079D01*
X11448277Y-13406079D02*
X11457801Y-13444174D01*
X11457801Y-13444174D02*
X11457801Y-13491793D01*
X11457801Y-13491793D02*
X11448277Y-13529888D01*
X11448277Y-13529888D02*
X11438753Y-13548936D01*
X11438753Y-13548936D02*
X11429229Y-13558460D01*
X11429229Y-13558460D02*
X11410182Y-13567984D01*
X11410182Y-13567984D02*
X11391134Y-13567984D01*
X11391134Y-13567984D02*
X11372086Y-13558460D01*
X11372086Y-13558460D02*
X11362563Y-13548936D01*
X11362563Y-13548936D02*
X11353039Y-13529888D01*
X11353039Y-13529888D02*
X11343515Y-13491793D01*
X11343515Y-13491793D02*
X11343515Y-13444174D01*
X11343515Y-13444174D02*
X11353039Y-13406079D01*
X11353039Y-13406079D02*
X11362563Y-13387031D01*
X11362563Y-13387031D02*
X11372086Y-13377508D01*
X11372086Y-13377508D02*
X11391134Y-13367984D01*
X11543515Y-13548936D02*
X11553039Y-13558460D01*
X11553039Y-13558460D02*
X11543515Y-13567984D01*
X11543515Y-13567984D02*
X11533991Y-13558460D01*
X11533991Y-13558460D02*
X11543515Y-13548936D01*
X11543515Y-13548936D02*
X11543515Y-13567984D01*
X11676848Y-13367984D02*
X11695896Y-13367984D01*
X11695896Y-13367984D02*
X11714944Y-13377508D01*
X11714944Y-13377508D02*
X11724467Y-13387031D01*
X11724467Y-13387031D02*
X11733991Y-13406079D01*
X11733991Y-13406079D02*
X11743515Y-13444174D01*
X11743515Y-13444174D02*
X11743515Y-13491793D01*
X11743515Y-13491793D02*
X11733991Y-13529888D01*
X11733991Y-13529888D02*
X11724467Y-13548936D01*
X11724467Y-13548936D02*
X11714944Y-13558460D01*
X11714944Y-13558460D02*
X11695896Y-13567984D01*
X11695896Y-13567984D02*
X11676848Y-13567984D01*
X11676848Y-13567984D02*
X11657801Y-13558460D01*
X11657801Y-13558460D02*
X11648277Y-13548936D01*
X11648277Y-13548936D02*
X11638753Y-13529888D01*
X11638753Y-13529888D02*
X11629229Y-13491793D01*
X11629229Y-13491793D02*
X11629229Y-13444174D01*
X11629229Y-13444174D02*
X11638753Y-13406079D01*
X11638753Y-13406079D02*
X11648277Y-13387031D01*
X11648277Y-13387031D02*
X11657801Y-13377508D01*
X11657801Y-13377508D02*
X11676848Y-13367984D01*
X11810182Y-13367984D02*
X11933991Y-13367984D01*
X11933991Y-13367984D02*
X11867325Y-13444174D01*
X11867325Y-13444174D02*
X11895896Y-13444174D01*
X11895896Y-13444174D02*
X11914944Y-13453698D01*
X11914944Y-13453698D02*
X11924467Y-13463222D01*
X11924467Y-13463222D02*
X11933991Y-13482269D01*
X11933991Y-13482269D02*
X11933991Y-13529888D01*
X11933991Y-13529888D02*
X11924467Y-13548936D01*
X11924467Y-13548936D02*
X11914944Y-13558460D01*
X11914944Y-13558460D02*
X11895896Y-13567984D01*
X11895896Y-13567984D02*
X11838753Y-13567984D01*
X11838753Y-13567984D02*
X11819706Y-13558460D01*
X11819706Y-13558460D02*
X11810182Y-13548936D01*
X12057801Y-13367984D02*
X12076848Y-13367984D01*
X12076848Y-13367984D02*
X12095896Y-13377508D01*
X12095896Y-13377508D02*
X12105420Y-13387031D01*
X12105420Y-13387031D02*
X12114944Y-13406079D01*
X12114944Y-13406079D02*
X12124467Y-13444174D01*
X12124467Y-13444174D02*
X12124467Y-13491793D01*
X12124467Y-13491793D02*
X12114944Y-13529888D01*
X12114944Y-13529888D02*
X12105420Y-13548936D01*
X12105420Y-13548936D02*
X12095896Y-13558460D01*
X12095896Y-13558460D02*
X12076848Y-13567984D01*
X12076848Y-13567984D02*
X12057801Y-13567984D01*
X12057801Y-13567984D02*
X12038753Y-13558460D01*
X12038753Y-13558460D02*
X12029229Y-13548936D01*
X12029229Y-13548936D02*
X12019706Y-13529888D01*
X12019706Y-13529888D02*
X12010182Y-13491793D01*
X12010182Y-13491793D02*
X12010182Y-13444174D01*
X12010182Y-13444174D02*
X12019706Y-13406079D01*
X12019706Y-13406079D02*
X12029229Y-13387031D01*
X12029229Y-13387031D02*
X12038753Y-13377508D01*
X12038753Y-13377508D02*
X12057801Y-13367984D01*
X12248277Y-13367984D02*
X12267325Y-13367984D01*
X12267325Y-13367984D02*
X12286372Y-13377508D01*
X12286372Y-13377508D02*
X12295896Y-13387031D01*
X12295896Y-13387031D02*
X12305420Y-13406079D01*
X12305420Y-13406079D02*
X12314944Y-13444174D01*
X12314944Y-13444174D02*
X12314944Y-13491793D01*
X12314944Y-13491793D02*
X12305420Y-13529888D01*
X12305420Y-13529888D02*
X12295896Y-13548936D01*
X12295896Y-13548936D02*
X12286372Y-13558460D01*
X12286372Y-13558460D02*
X12267325Y-13567984D01*
X12267325Y-13567984D02*
X12248277Y-13567984D01*
X12248277Y-13567984D02*
X12229229Y-13558460D01*
X12229229Y-13558460D02*
X12219706Y-13548936D01*
X12219706Y-13548936D02*
X12210182Y-13529888D01*
X12210182Y-13529888D02*
X12200658Y-13491793D01*
X12200658Y-13491793D02*
X12200658Y-13444174D01*
X12200658Y-13444174D02*
X12210182Y-13406079D01*
X12210182Y-13406079D02*
X12219706Y-13387031D01*
X12219706Y-13387031D02*
X12229229Y-13377508D01*
X12229229Y-13377508D02*
X12248277Y-13367984D01*
X12391134Y-13367984D02*
X12391134Y-13406079D01*
X12467325Y-13367984D02*
X12467325Y-13406079D01*
X12762563Y-13644174D02*
X12753039Y-13634650D01*
X12753039Y-13634650D02*
X12733991Y-13606079D01*
X12733991Y-13606079D02*
X12724468Y-13587031D01*
X12724468Y-13587031D02*
X12714944Y-13558460D01*
X12714944Y-13558460D02*
X12705420Y-13510841D01*
X12705420Y-13510841D02*
X12705420Y-13472746D01*
X12705420Y-13472746D02*
X12714944Y-13425127D01*
X12714944Y-13425127D02*
X12724468Y-13396555D01*
X12724468Y-13396555D02*
X12733991Y-13377508D01*
X12733991Y-13377508D02*
X12753039Y-13348936D01*
X12753039Y-13348936D02*
X12762563Y-13339412D01*
X12924468Y-13434650D02*
X12924468Y-13567984D01*
X12876848Y-13358460D02*
X12829229Y-13501317D01*
X12829229Y-13501317D02*
X12953039Y-13501317D01*
X13181610Y-13567984D02*
X13181610Y-13367984D01*
X13267325Y-13567984D02*
X13267325Y-13463222D01*
X13267325Y-13463222D02*
X13257801Y-13444174D01*
X13257801Y-13444174D02*
X13238753Y-13434650D01*
X13238753Y-13434650D02*
X13210182Y-13434650D01*
X13210182Y-13434650D02*
X13191134Y-13444174D01*
X13191134Y-13444174D02*
X13181610Y-13453698D01*
X13391134Y-13567984D02*
X13372087Y-13558460D01*
X13372087Y-13558460D02*
X13362563Y-13548936D01*
X13362563Y-13548936D02*
X13353039Y-13529888D01*
X13353039Y-13529888D02*
X13353039Y-13472746D01*
X13353039Y-13472746D02*
X13362563Y-13453698D01*
X13362563Y-13453698D02*
X13372087Y-13444174D01*
X13372087Y-13444174D02*
X13391134Y-13434650D01*
X13391134Y-13434650D02*
X13419706Y-13434650D01*
X13419706Y-13434650D02*
X13438753Y-13444174D01*
X13438753Y-13444174D02*
X13448277Y-13453698D01*
X13448277Y-13453698D02*
X13457801Y-13472746D01*
X13457801Y-13472746D02*
X13457801Y-13529888D01*
X13457801Y-13529888D02*
X13448277Y-13548936D01*
X13448277Y-13548936D02*
X13438753Y-13558460D01*
X13438753Y-13558460D02*
X13419706Y-13567984D01*
X13419706Y-13567984D02*
X13391134Y-13567984D01*
X13572087Y-13567984D02*
X13553039Y-13558460D01*
X13553039Y-13558460D02*
X13543515Y-13539412D01*
X13543515Y-13539412D02*
X13543515Y-13367984D01*
X13724468Y-13558460D02*
X13705420Y-13567984D01*
X13705420Y-13567984D02*
X13667325Y-13567984D01*
X13667325Y-13567984D02*
X13648277Y-13558460D01*
X13648277Y-13558460D02*
X13638753Y-13539412D01*
X13638753Y-13539412D02*
X13638753Y-13463222D01*
X13638753Y-13463222D02*
X13648277Y-13444174D01*
X13648277Y-13444174D02*
X13667325Y-13434650D01*
X13667325Y-13434650D02*
X13705420Y-13434650D01*
X13705420Y-13434650D02*
X13724468Y-13444174D01*
X13724468Y-13444174D02*
X13733991Y-13463222D01*
X13733991Y-13463222D02*
X13733991Y-13482269D01*
X13733991Y-13482269D02*
X13638753Y-13501317D01*
X13810182Y-13558460D02*
X13829230Y-13567984D01*
X13829230Y-13567984D02*
X13867325Y-13567984D01*
X13867325Y-13567984D02*
X13886372Y-13558460D01*
X13886372Y-13558460D02*
X13895896Y-13539412D01*
X13895896Y-13539412D02*
X13895896Y-13529888D01*
X13895896Y-13529888D02*
X13886372Y-13510841D01*
X13886372Y-13510841D02*
X13867325Y-13501317D01*
X13867325Y-13501317D02*
X13838753Y-13501317D01*
X13838753Y-13501317D02*
X13819706Y-13491793D01*
X13819706Y-13491793D02*
X13810182Y-13472746D01*
X13810182Y-13472746D02*
X13810182Y-13463222D01*
X13810182Y-13463222D02*
X13819706Y-13444174D01*
X13819706Y-13444174D02*
X13838753Y-13434650D01*
X13838753Y-13434650D02*
X13867325Y-13434650D01*
X13867325Y-13434650D02*
X13886372Y-13444174D01*
X13962563Y-13644174D02*
X13972087Y-13634650D01*
X13972087Y-13634650D02*
X13991134Y-13606079D01*
X13991134Y-13606079D02*
X14000658Y-13587031D01*
X14000658Y-13587031D02*
X14010182Y-13558460D01*
X14010182Y-13558460D02*
X14019706Y-13510841D01*
X14019706Y-13510841D02*
X14019706Y-13472746D01*
X14019706Y-13472746D02*
X14010182Y-13425127D01*
X14010182Y-13425127D02*
X14000658Y-13396555D01*
X14000658Y-13396555D02*
X13991134Y-13377508D01*
X13991134Y-13377508D02*
X13972087Y-13348936D01*
X13972087Y-13348936D02*
X13962563Y-13339412D01*
D12*
X9147500Y-13700500D02*
X9147500Y-13780500D01*
X9107500Y-13740500D02*
X9187500Y-13740500D01*
D11*
X9486372Y-13631984D02*
X9505420Y-13631984D01*
X9505420Y-13631984D02*
X9524467Y-13641508D01*
X9524467Y-13641508D02*
X9533991Y-13651031D01*
X9533991Y-13651031D02*
X9543515Y-13670079D01*
X9543515Y-13670079D02*
X9553039Y-13708174D01*
X9553039Y-13708174D02*
X9553039Y-13755793D01*
X9553039Y-13755793D02*
X9543515Y-13793888D01*
X9543515Y-13793888D02*
X9533991Y-13812936D01*
X9533991Y-13812936D02*
X9524467Y-13822460D01*
X9524467Y-13822460D02*
X9505420Y-13831984D01*
X9505420Y-13831984D02*
X9486372Y-13831984D01*
X9486372Y-13831984D02*
X9467324Y-13822460D01*
X9467324Y-13822460D02*
X9457801Y-13812936D01*
X9457801Y-13812936D02*
X9448277Y-13793888D01*
X9448277Y-13793888D02*
X9438753Y-13755793D01*
X9438753Y-13755793D02*
X9438753Y-13708174D01*
X9438753Y-13708174D02*
X9448277Y-13670079D01*
X9448277Y-13670079D02*
X9457801Y-13651031D01*
X9457801Y-13651031D02*
X9467324Y-13641508D01*
X9467324Y-13641508D02*
X9486372Y-13631984D01*
X9638753Y-13812936D02*
X9648277Y-13822460D01*
X9648277Y-13822460D02*
X9638753Y-13831984D01*
X9638753Y-13831984D02*
X9629229Y-13822460D01*
X9629229Y-13822460D02*
X9638753Y-13812936D01*
X9638753Y-13812936D02*
X9638753Y-13831984D01*
X9762563Y-13717698D02*
X9743515Y-13708174D01*
X9743515Y-13708174D02*
X9733991Y-13698650D01*
X9733991Y-13698650D02*
X9724467Y-13679603D01*
X9724467Y-13679603D02*
X9724467Y-13670079D01*
X9724467Y-13670079D02*
X9733991Y-13651031D01*
X9733991Y-13651031D02*
X9743515Y-13641508D01*
X9743515Y-13641508D02*
X9762563Y-13631984D01*
X9762563Y-13631984D02*
X9800658Y-13631984D01*
X9800658Y-13631984D02*
X9819705Y-13641508D01*
X9819705Y-13641508D02*
X9829229Y-13651031D01*
X9829229Y-13651031D02*
X9838753Y-13670079D01*
X9838753Y-13670079D02*
X9838753Y-13679603D01*
X9838753Y-13679603D02*
X9829229Y-13698650D01*
X9829229Y-13698650D02*
X9819705Y-13708174D01*
X9819705Y-13708174D02*
X9800658Y-13717698D01*
X9800658Y-13717698D02*
X9762563Y-13717698D01*
X9762563Y-13717698D02*
X9743515Y-13727222D01*
X9743515Y-13727222D02*
X9733991Y-13736746D01*
X9733991Y-13736746D02*
X9724467Y-13755793D01*
X9724467Y-13755793D02*
X9724467Y-13793888D01*
X9724467Y-13793888D02*
X9733991Y-13812936D01*
X9733991Y-13812936D02*
X9743515Y-13822460D01*
X9743515Y-13822460D02*
X9762563Y-13831984D01*
X9762563Y-13831984D02*
X9800658Y-13831984D01*
X9800658Y-13831984D02*
X9819705Y-13822460D01*
X9819705Y-13822460D02*
X9829229Y-13812936D01*
X9829229Y-13812936D02*
X9838753Y-13793888D01*
X9838753Y-13793888D02*
X9838753Y-13755793D01*
X9838753Y-13755793D02*
X9829229Y-13736746D01*
X9829229Y-13736746D02*
X9819705Y-13727222D01*
X9819705Y-13727222D02*
X9800658Y-13717698D01*
X9962563Y-13631984D02*
X9981610Y-13631984D01*
X9981610Y-13631984D02*
X10000658Y-13641508D01*
X10000658Y-13641508D02*
X10010182Y-13651031D01*
X10010182Y-13651031D02*
X10019705Y-13670079D01*
X10019705Y-13670079D02*
X10029229Y-13708174D01*
X10029229Y-13708174D02*
X10029229Y-13755793D01*
X10029229Y-13755793D02*
X10019705Y-13793888D01*
X10019705Y-13793888D02*
X10010182Y-13812936D01*
X10010182Y-13812936D02*
X10000658Y-13822460D01*
X10000658Y-13822460D02*
X9981610Y-13831984D01*
X9981610Y-13831984D02*
X9962563Y-13831984D01*
X9962563Y-13831984D02*
X9943515Y-13822460D01*
X9943515Y-13822460D02*
X9933991Y-13812936D01*
X9933991Y-13812936D02*
X9924467Y-13793888D01*
X9924467Y-13793888D02*
X9914944Y-13755793D01*
X9914944Y-13755793D02*
X9914944Y-13708174D01*
X9914944Y-13708174D02*
X9924467Y-13670079D01*
X9924467Y-13670079D02*
X9933991Y-13651031D01*
X9933991Y-13651031D02*
X9943515Y-13641508D01*
X9943515Y-13641508D02*
X9962563Y-13631984D01*
X10153039Y-13631984D02*
X10172086Y-13631984D01*
X10172086Y-13631984D02*
X10191134Y-13641508D01*
X10191134Y-13641508D02*
X10200658Y-13651031D01*
X10200658Y-13651031D02*
X10210182Y-13670079D01*
X10210182Y-13670079D02*
X10219705Y-13708174D01*
X10219705Y-13708174D02*
X10219705Y-13755793D01*
X10219705Y-13755793D02*
X10210182Y-13793888D01*
X10210182Y-13793888D02*
X10200658Y-13812936D01*
X10200658Y-13812936D02*
X10191134Y-13822460D01*
X10191134Y-13822460D02*
X10172086Y-13831984D01*
X10172086Y-13831984D02*
X10153039Y-13831984D01*
X10153039Y-13831984D02*
X10133991Y-13822460D01*
X10133991Y-13822460D02*
X10124467Y-13812936D01*
X10124467Y-13812936D02*
X10114944Y-13793888D01*
X10114944Y-13793888D02*
X10105420Y-13755793D01*
X10105420Y-13755793D02*
X10105420Y-13708174D01*
X10105420Y-13708174D02*
X10114944Y-13670079D01*
X10114944Y-13670079D02*
X10124467Y-13651031D01*
X10124467Y-13651031D02*
X10133991Y-13641508D01*
X10133991Y-13641508D02*
X10153039Y-13631984D01*
X10305420Y-13831984D02*
X10305420Y-13698650D01*
X10305420Y-13717698D02*
X10314944Y-13708174D01*
X10314944Y-13708174D02*
X10333991Y-13698650D01*
X10333991Y-13698650D02*
X10362563Y-13698650D01*
X10362563Y-13698650D02*
X10381610Y-13708174D01*
X10381610Y-13708174D02*
X10391134Y-13727222D01*
X10391134Y-13727222D02*
X10391134Y-13831984D01*
X10391134Y-13727222D02*
X10400658Y-13708174D01*
X10400658Y-13708174D02*
X10419705Y-13698650D01*
X10419705Y-13698650D02*
X10448277Y-13698650D01*
X10448277Y-13698650D02*
X10467325Y-13708174D01*
X10467325Y-13708174D02*
X10476848Y-13727222D01*
X10476848Y-13727222D02*
X10476848Y-13831984D01*
X10572086Y-13831984D02*
X10572086Y-13698650D01*
X10572086Y-13717698D02*
X10581610Y-13708174D01*
X10581610Y-13708174D02*
X10600658Y-13698650D01*
X10600658Y-13698650D02*
X10629229Y-13698650D01*
X10629229Y-13698650D02*
X10648277Y-13708174D01*
X10648277Y-13708174D02*
X10657801Y-13727222D01*
X10657801Y-13727222D02*
X10657801Y-13831984D01*
X10657801Y-13727222D02*
X10667325Y-13708174D01*
X10667325Y-13708174D02*
X10686372Y-13698650D01*
X10686372Y-13698650D02*
X10714944Y-13698650D01*
X10714944Y-13698650D02*
X10733991Y-13708174D01*
X10733991Y-13708174D02*
X10743515Y-13727222D01*
X10743515Y-13727222D02*
X10743515Y-13831984D01*
X11133991Y-13622460D02*
X10962563Y-13879603D01*
X11391134Y-13631984D02*
X11410182Y-13631984D01*
X11410182Y-13631984D02*
X11429229Y-13641508D01*
X11429229Y-13641508D02*
X11438753Y-13651031D01*
X11438753Y-13651031D02*
X11448277Y-13670079D01*
X11448277Y-13670079D02*
X11457801Y-13708174D01*
X11457801Y-13708174D02*
X11457801Y-13755793D01*
X11457801Y-13755793D02*
X11448277Y-13793888D01*
X11448277Y-13793888D02*
X11438753Y-13812936D01*
X11438753Y-13812936D02*
X11429229Y-13822460D01*
X11429229Y-13822460D02*
X11410182Y-13831984D01*
X11410182Y-13831984D02*
X11391134Y-13831984D01*
X11391134Y-13831984D02*
X11372086Y-13822460D01*
X11372086Y-13822460D02*
X11362563Y-13812936D01*
X11362563Y-13812936D02*
X11353039Y-13793888D01*
X11353039Y-13793888D02*
X11343515Y-13755793D01*
X11343515Y-13755793D02*
X11343515Y-13708174D01*
X11343515Y-13708174D02*
X11353039Y-13670079D01*
X11353039Y-13670079D02*
X11362563Y-13651031D01*
X11362563Y-13651031D02*
X11372086Y-13641508D01*
X11372086Y-13641508D02*
X11391134Y-13631984D01*
X11543515Y-13812936D02*
X11553039Y-13822460D01*
X11553039Y-13822460D02*
X11543515Y-13831984D01*
X11543515Y-13831984D02*
X11533991Y-13822460D01*
X11533991Y-13822460D02*
X11543515Y-13812936D01*
X11543515Y-13812936D02*
X11543515Y-13831984D01*
X11676848Y-13631984D02*
X11695896Y-13631984D01*
X11695896Y-13631984D02*
X11714944Y-13641508D01*
X11714944Y-13641508D02*
X11724467Y-13651031D01*
X11724467Y-13651031D02*
X11733991Y-13670079D01*
X11733991Y-13670079D02*
X11743515Y-13708174D01*
X11743515Y-13708174D02*
X11743515Y-13755793D01*
X11743515Y-13755793D02*
X11733991Y-13793888D01*
X11733991Y-13793888D02*
X11724467Y-13812936D01*
X11724467Y-13812936D02*
X11714944Y-13822460D01*
X11714944Y-13822460D02*
X11695896Y-13831984D01*
X11695896Y-13831984D02*
X11676848Y-13831984D01*
X11676848Y-13831984D02*
X11657801Y-13822460D01*
X11657801Y-13822460D02*
X11648277Y-13812936D01*
X11648277Y-13812936D02*
X11638753Y-13793888D01*
X11638753Y-13793888D02*
X11629229Y-13755793D01*
X11629229Y-13755793D02*
X11629229Y-13708174D01*
X11629229Y-13708174D02*
X11638753Y-13670079D01*
X11638753Y-13670079D02*
X11648277Y-13651031D01*
X11648277Y-13651031D02*
X11657801Y-13641508D01*
X11657801Y-13641508D02*
X11676848Y-13631984D01*
X11810182Y-13631984D02*
X11933991Y-13631984D01*
X11933991Y-13631984D02*
X11867325Y-13708174D01*
X11867325Y-13708174D02*
X11895896Y-13708174D01*
X11895896Y-13708174D02*
X11914944Y-13717698D01*
X11914944Y-13717698D02*
X11924467Y-13727222D01*
X11924467Y-13727222D02*
X11933991Y-13746269D01*
X11933991Y-13746269D02*
X11933991Y-13793888D01*
X11933991Y-13793888D02*
X11924467Y-13812936D01*
X11924467Y-13812936D02*
X11914944Y-13822460D01*
X11914944Y-13822460D02*
X11895896Y-13831984D01*
X11895896Y-13831984D02*
X11838753Y-13831984D01*
X11838753Y-13831984D02*
X11819706Y-13822460D01*
X11819706Y-13822460D02*
X11810182Y-13812936D01*
X12124467Y-13831984D02*
X12010182Y-13831984D01*
X12067325Y-13831984D02*
X12067325Y-13631984D01*
X12067325Y-13631984D02*
X12048277Y-13660555D01*
X12048277Y-13660555D02*
X12029229Y-13679603D01*
X12029229Y-13679603D02*
X12010182Y-13689127D01*
X12305420Y-13631984D02*
X12210182Y-13631984D01*
X12210182Y-13631984D02*
X12200658Y-13727222D01*
X12200658Y-13727222D02*
X12210182Y-13717698D01*
X12210182Y-13717698D02*
X12229229Y-13708174D01*
X12229229Y-13708174D02*
X12276848Y-13708174D01*
X12276848Y-13708174D02*
X12295896Y-13717698D01*
X12295896Y-13717698D02*
X12305420Y-13727222D01*
X12305420Y-13727222D02*
X12314944Y-13746269D01*
X12314944Y-13746269D02*
X12314944Y-13793888D01*
X12314944Y-13793888D02*
X12305420Y-13812936D01*
X12305420Y-13812936D02*
X12295896Y-13822460D01*
X12295896Y-13822460D02*
X12276848Y-13831984D01*
X12276848Y-13831984D02*
X12229229Y-13831984D01*
X12229229Y-13831984D02*
X12210182Y-13822460D01*
X12210182Y-13822460D02*
X12200658Y-13812936D01*
X12391134Y-13631984D02*
X12391134Y-13670079D01*
X12467325Y-13631984D02*
X12467325Y-13670079D01*
X12762563Y-13908174D02*
X12753039Y-13898650D01*
X12753039Y-13898650D02*
X12733991Y-13870079D01*
X12733991Y-13870079D02*
X12724468Y-13851031D01*
X12724468Y-13851031D02*
X12714944Y-13822460D01*
X12714944Y-13822460D02*
X12705420Y-13774841D01*
X12705420Y-13774841D02*
X12705420Y-13736746D01*
X12705420Y-13736746D02*
X12714944Y-13689127D01*
X12714944Y-13689127D02*
X12724468Y-13660555D01*
X12724468Y-13660555D02*
X12733991Y-13641508D01*
X12733991Y-13641508D02*
X12753039Y-13612936D01*
X12753039Y-13612936D02*
X12762563Y-13603412D01*
X12924468Y-13631984D02*
X12886372Y-13631984D01*
X12886372Y-13631984D02*
X12867325Y-13641508D01*
X12867325Y-13641508D02*
X12857801Y-13651031D01*
X12857801Y-13651031D02*
X12838753Y-13679603D01*
X12838753Y-13679603D02*
X12829229Y-13717698D01*
X12829229Y-13717698D02*
X12829229Y-13793888D01*
X12829229Y-13793888D02*
X12838753Y-13812936D01*
X12838753Y-13812936D02*
X12848277Y-13822460D01*
X12848277Y-13822460D02*
X12867325Y-13831984D01*
X12867325Y-13831984D02*
X12905420Y-13831984D01*
X12905420Y-13831984D02*
X12924468Y-13822460D01*
X12924468Y-13822460D02*
X12933991Y-13812936D01*
X12933991Y-13812936D02*
X12943515Y-13793888D01*
X12943515Y-13793888D02*
X12943515Y-13746269D01*
X12943515Y-13746269D02*
X12933991Y-13727222D01*
X12933991Y-13727222D02*
X12924468Y-13717698D01*
X12924468Y-13717698D02*
X12905420Y-13708174D01*
X12905420Y-13708174D02*
X12867325Y-13708174D01*
X12867325Y-13708174D02*
X12848277Y-13717698D01*
X12848277Y-13717698D02*
X12838753Y-13727222D01*
X12838753Y-13727222D02*
X12829229Y-13746269D01*
X13181610Y-13831984D02*
X13181610Y-13631984D01*
X13267325Y-13831984D02*
X13267325Y-13727222D01*
X13267325Y-13727222D02*
X13257801Y-13708174D01*
X13257801Y-13708174D02*
X13238753Y-13698650D01*
X13238753Y-13698650D02*
X13210182Y-13698650D01*
X13210182Y-13698650D02*
X13191134Y-13708174D01*
X13191134Y-13708174D02*
X13181610Y-13717698D01*
X13391134Y-13831984D02*
X13372087Y-13822460D01*
X13372087Y-13822460D02*
X13362563Y-13812936D01*
X13362563Y-13812936D02*
X13353039Y-13793888D01*
X13353039Y-13793888D02*
X13353039Y-13736746D01*
X13353039Y-13736746D02*
X13362563Y-13717698D01*
X13362563Y-13717698D02*
X13372087Y-13708174D01*
X13372087Y-13708174D02*
X13391134Y-13698650D01*
X13391134Y-13698650D02*
X13419706Y-13698650D01*
X13419706Y-13698650D02*
X13438753Y-13708174D01*
X13438753Y-13708174D02*
X13448277Y-13717698D01*
X13448277Y-13717698D02*
X13457801Y-13736746D01*
X13457801Y-13736746D02*
X13457801Y-13793888D01*
X13457801Y-13793888D02*
X13448277Y-13812936D01*
X13448277Y-13812936D02*
X13438753Y-13822460D01*
X13438753Y-13822460D02*
X13419706Y-13831984D01*
X13419706Y-13831984D02*
X13391134Y-13831984D01*
X13572087Y-13831984D02*
X13553039Y-13822460D01*
X13553039Y-13822460D02*
X13543515Y-13803412D01*
X13543515Y-13803412D02*
X13543515Y-13631984D01*
X13724468Y-13822460D02*
X13705420Y-13831984D01*
X13705420Y-13831984D02*
X13667325Y-13831984D01*
X13667325Y-13831984D02*
X13648277Y-13822460D01*
X13648277Y-13822460D02*
X13638753Y-13803412D01*
X13638753Y-13803412D02*
X13638753Y-13727222D01*
X13638753Y-13727222D02*
X13648277Y-13708174D01*
X13648277Y-13708174D02*
X13667325Y-13698650D01*
X13667325Y-13698650D02*
X13705420Y-13698650D01*
X13705420Y-13698650D02*
X13724468Y-13708174D01*
X13724468Y-13708174D02*
X13733991Y-13727222D01*
X13733991Y-13727222D02*
X13733991Y-13746269D01*
X13733991Y-13746269D02*
X13638753Y-13765317D01*
X13810182Y-13822460D02*
X13829230Y-13831984D01*
X13829230Y-13831984D02*
X13867325Y-13831984D01*
X13867325Y-13831984D02*
X13886372Y-13822460D01*
X13886372Y-13822460D02*
X13895896Y-13803412D01*
X13895896Y-13803412D02*
X13895896Y-13793888D01*
X13895896Y-13793888D02*
X13886372Y-13774841D01*
X13886372Y-13774841D02*
X13867325Y-13765317D01*
X13867325Y-13765317D02*
X13838753Y-13765317D01*
X13838753Y-13765317D02*
X13819706Y-13755793D01*
X13819706Y-13755793D02*
X13810182Y-13736746D01*
X13810182Y-13736746D02*
X13810182Y-13727222D01*
X13810182Y-13727222D02*
X13819706Y-13708174D01*
X13819706Y-13708174D02*
X13838753Y-13698650D01*
X13838753Y-13698650D02*
X13867325Y-13698650D01*
X13867325Y-13698650D02*
X13886372Y-13708174D01*
X13962563Y-13908174D02*
X13972087Y-13898650D01*
X13972087Y-13898650D02*
X13991134Y-13870079D01*
X13991134Y-13870079D02*
X14000658Y-13851031D01*
X14000658Y-13851031D02*
X14010182Y-13822460D01*
X14010182Y-13822460D02*
X14019706Y-13774841D01*
X14019706Y-13774841D02*
X14019706Y-13736746D01*
X14019706Y-13736746D02*
X14010182Y-13689127D01*
X14010182Y-13689127D02*
X14000658Y-13660555D01*
X14000658Y-13660555D02*
X13991134Y-13641508D01*
X13991134Y-13641508D02*
X13972087Y-13612936D01*
X13972087Y-13612936D02*
X13962563Y-13603412D01*
D12*
X9174320Y-14036320D02*
X9174320Y-13972680D01*
X9110680Y-13972680D01*
X9110680Y-14036320D01*
X9174320Y-14036320D01*
D11*
X9486372Y-13895984D02*
X9505420Y-13895984D01*
X9505420Y-13895984D02*
X9524467Y-13905508D01*
X9524467Y-13905508D02*
X9533991Y-13915031D01*
X9533991Y-13915031D02*
X9543515Y-13934079D01*
X9543515Y-13934079D02*
X9553039Y-13972174D01*
X9553039Y-13972174D02*
X9553039Y-14019793D01*
X9553039Y-14019793D02*
X9543515Y-14057888D01*
X9543515Y-14057888D02*
X9533991Y-14076936D01*
X9533991Y-14076936D02*
X9524467Y-14086460D01*
X9524467Y-14086460D02*
X9505420Y-14095984D01*
X9505420Y-14095984D02*
X9486372Y-14095984D01*
X9486372Y-14095984D02*
X9467324Y-14086460D01*
X9467324Y-14086460D02*
X9457801Y-14076936D01*
X9457801Y-14076936D02*
X9448277Y-14057888D01*
X9448277Y-14057888D02*
X9438753Y-14019793D01*
X9438753Y-14019793D02*
X9438753Y-13972174D01*
X9438753Y-13972174D02*
X9448277Y-13934079D01*
X9448277Y-13934079D02*
X9457801Y-13915031D01*
X9457801Y-13915031D02*
X9467324Y-13905508D01*
X9467324Y-13905508D02*
X9486372Y-13895984D01*
X9638753Y-14076936D02*
X9648277Y-14086460D01*
X9648277Y-14086460D02*
X9638753Y-14095984D01*
X9638753Y-14095984D02*
X9629229Y-14086460D01*
X9629229Y-14086460D02*
X9638753Y-14076936D01*
X9638753Y-14076936D02*
X9638753Y-14095984D01*
X9743515Y-14095984D02*
X9781610Y-14095984D01*
X9781610Y-14095984D02*
X9800658Y-14086460D01*
X9800658Y-14086460D02*
X9810182Y-14076936D01*
X9810182Y-14076936D02*
X9829229Y-14048365D01*
X9829229Y-14048365D02*
X9838753Y-14010269D01*
X9838753Y-14010269D02*
X9838753Y-13934079D01*
X9838753Y-13934079D02*
X9829229Y-13915031D01*
X9829229Y-13915031D02*
X9819705Y-13905508D01*
X9819705Y-13905508D02*
X9800658Y-13895984D01*
X9800658Y-13895984D02*
X9762563Y-13895984D01*
X9762563Y-13895984D02*
X9743515Y-13905508D01*
X9743515Y-13905508D02*
X9733991Y-13915031D01*
X9733991Y-13915031D02*
X9724467Y-13934079D01*
X9724467Y-13934079D02*
X9724467Y-13981698D01*
X9724467Y-13981698D02*
X9733991Y-14000746D01*
X9733991Y-14000746D02*
X9743515Y-14010269D01*
X9743515Y-14010269D02*
X9762563Y-14019793D01*
X9762563Y-14019793D02*
X9800658Y-14019793D01*
X9800658Y-14019793D02*
X9819705Y-14010269D01*
X9819705Y-14010269D02*
X9829229Y-14000746D01*
X9829229Y-14000746D02*
X9838753Y-13981698D01*
X9962563Y-13895984D02*
X9981610Y-13895984D01*
X9981610Y-13895984D02*
X10000658Y-13905508D01*
X10000658Y-13905508D02*
X10010182Y-13915031D01*
X10010182Y-13915031D02*
X10019705Y-13934079D01*
X10019705Y-13934079D02*
X10029229Y-13972174D01*
X10029229Y-13972174D02*
X10029229Y-14019793D01*
X10029229Y-14019793D02*
X10019705Y-14057888D01*
X10019705Y-14057888D02*
X10010182Y-14076936D01*
X10010182Y-14076936D02*
X10000658Y-14086460D01*
X10000658Y-14086460D02*
X9981610Y-14095984D01*
X9981610Y-14095984D02*
X9962563Y-14095984D01*
X9962563Y-14095984D02*
X9943515Y-14086460D01*
X9943515Y-14086460D02*
X9933991Y-14076936D01*
X9933991Y-14076936D02*
X9924467Y-14057888D01*
X9924467Y-14057888D02*
X9914944Y-14019793D01*
X9914944Y-14019793D02*
X9914944Y-13972174D01*
X9914944Y-13972174D02*
X9924467Y-13934079D01*
X9924467Y-13934079D02*
X9933991Y-13915031D01*
X9933991Y-13915031D02*
X9943515Y-13905508D01*
X9943515Y-13905508D02*
X9962563Y-13895984D01*
X10153039Y-13895984D02*
X10172086Y-13895984D01*
X10172086Y-13895984D02*
X10191134Y-13905508D01*
X10191134Y-13905508D02*
X10200658Y-13915031D01*
X10200658Y-13915031D02*
X10210182Y-13934079D01*
X10210182Y-13934079D02*
X10219705Y-13972174D01*
X10219705Y-13972174D02*
X10219705Y-14019793D01*
X10219705Y-14019793D02*
X10210182Y-14057888D01*
X10210182Y-14057888D02*
X10200658Y-14076936D01*
X10200658Y-14076936D02*
X10191134Y-14086460D01*
X10191134Y-14086460D02*
X10172086Y-14095984D01*
X10172086Y-14095984D02*
X10153039Y-14095984D01*
X10153039Y-14095984D02*
X10133991Y-14086460D01*
X10133991Y-14086460D02*
X10124467Y-14076936D01*
X10124467Y-14076936D02*
X10114944Y-14057888D01*
X10114944Y-14057888D02*
X10105420Y-14019793D01*
X10105420Y-14019793D02*
X10105420Y-13972174D01*
X10105420Y-13972174D02*
X10114944Y-13934079D01*
X10114944Y-13934079D02*
X10124467Y-13915031D01*
X10124467Y-13915031D02*
X10133991Y-13905508D01*
X10133991Y-13905508D02*
X10153039Y-13895984D01*
X10305420Y-14095984D02*
X10305420Y-13962650D01*
X10305420Y-13981698D02*
X10314944Y-13972174D01*
X10314944Y-13972174D02*
X10333991Y-13962650D01*
X10333991Y-13962650D02*
X10362563Y-13962650D01*
X10362563Y-13962650D02*
X10381610Y-13972174D01*
X10381610Y-13972174D02*
X10391134Y-13991222D01*
X10391134Y-13991222D02*
X10391134Y-14095984D01*
X10391134Y-13991222D02*
X10400658Y-13972174D01*
X10400658Y-13972174D02*
X10419705Y-13962650D01*
X10419705Y-13962650D02*
X10448277Y-13962650D01*
X10448277Y-13962650D02*
X10467325Y-13972174D01*
X10467325Y-13972174D02*
X10476848Y-13991222D01*
X10476848Y-13991222D02*
X10476848Y-14095984D01*
X10572086Y-14095984D02*
X10572086Y-13962650D01*
X10572086Y-13981698D02*
X10581610Y-13972174D01*
X10581610Y-13972174D02*
X10600658Y-13962650D01*
X10600658Y-13962650D02*
X10629229Y-13962650D01*
X10629229Y-13962650D02*
X10648277Y-13972174D01*
X10648277Y-13972174D02*
X10657801Y-13991222D01*
X10657801Y-13991222D02*
X10657801Y-14095984D01*
X10657801Y-13991222D02*
X10667325Y-13972174D01*
X10667325Y-13972174D02*
X10686372Y-13962650D01*
X10686372Y-13962650D02*
X10714944Y-13962650D01*
X10714944Y-13962650D02*
X10733991Y-13972174D01*
X10733991Y-13972174D02*
X10743515Y-13991222D01*
X10743515Y-13991222D02*
X10743515Y-14095984D01*
X11133991Y-13886460D02*
X10962563Y-14143603D01*
X11391134Y-13895984D02*
X11410182Y-13895984D01*
X11410182Y-13895984D02*
X11429229Y-13905508D01*
X11429229Y-13905508D02*
X11438753Y-13915031D01*
X11438753Y-13915031D02*
X11448277Y-13934079D01*
X11448277Y-13934079D02*
X11457801Y-13972174D01*
X11457801Y-13972174D02*
X11457801Y-14019793D01*
X11457801Y-14019793D02*
X11448277Y-14057888D01*
X11448277Y-14057888D02*
X11438753Y-14076936D01*
X11438753Y-14076936D02*
X11429229Y-14086460D01*
X11429229Y-14086460D02*
X11410182Y-14095984D01*
X11410182Y-14095984D02*
X11391134Y-14095984D01*
X11391134Y-14095984D02*
X11372086Y-14086460D01*
X11372086Y-14086460D02*
X11362563Y-14076936D01*
X11362563Y-14076936D02*
X11353039Y-14057888D01*
X11353039Y-14057888D02*
X11343515Y-14019793D01*
X11343515Y-14019793D02*
X11343515Y-13972174D01*
X11343515Y-13972174D02*
X11353039Y-13934079D01*
X11353039Y-13934079D02*
X11362563Y-13915031D01*
X11362563Y-13915031D02*
X11372086Y-13905508D01*
X11372086Y-13905508D02*
X11391134Y-13895984D01*
X11543515Y-14076936D02*
X11553039Y-14086460D01*
X11553039Y-14086460D02*
X11543515Y-14095984D01*
X11543515Y-14095984D02*
X11533991Y-14086460D01*
X11533991Y-14086460D02*
X11543515Y-14076936D01*
X11543515Y-14076936D02*
X11543515Y-14095984D01*
X11676848Y-13895984D02*
X11695896Y-13895984D01*
X11695896Y-13895984D02*
X11714944Y-13905508D01*
X11714944Y-13905508D02*
X11724467Y-13915031D01*
X11724467Y-13915031D02*
X11733991Y-13934079D01*
X11733991Y-13934079D02*
X11743515Y-13972174D01*
X11743515Y-13972174D02*
X11743515Y-14019793D01*
X11743515Y-14019793D02*
X11733991Y-14057888D01*
X11733991Y-14057888D02*
X11724467Y-14076936D01*
X11724467Y-14076936D02*
X11714944Y-14086460D01*
X11714944Y-14086460D02*
X11695896Y-14095984D01*
X11695896Y-14095984D02*
X11676848Y-14095984D01*
X11676848Y-14095984D02*
X11657801Y-14086460D01*
X11657801Y-14086460D02*
X11648277Y-14076936D01*
X11648277Y-14076936D02*
X11638753Y-14057888D01*
X11638753Y-14057888D02*
X11629229Y-14019793D01*
X11629229Y-14019793D02*
X11629229Y-13972174D01*
X11629229Y-13972174D02*
X11638753Y-13934079D01*
X11638753Y-13934079D02*
X11648277Y-13915031D01*
X11648277Y-13915031D02*
X11657801Y-13905508D01*
X11657801Y-13905508D02*
X11676848Y-13895984D01*
X11810182Y-13895984D02*
X11933991Y-13895984D01*
X11933991Y-13895984D02*
X11867325Y-13972174D01*
X11867325Y-13972174D02*
X11895896Y-13972174D01*
X11895896Y-13972174D02*
X11914944Y-13981698D01*
X11914944Y-13981698D02*
X11924467Y-13991222D01*
X11924467Y-13991222D02*
X11933991Y-14010269D01*
X11933991Y-14010269D02*
X11933991Y-14057888D01*
X11933991Y-14057888D02*
X11924467Y-14076936D01*
X11924467Y-14076936D02*
X11914944Y-14086460D01*
X11914944Y-14086460D02*
X11895896Y-14095984D01*
X11895896Y-14095984D02*
X11838753Y-14095984D01*
X11838753Y-14095984D02*
X11819706Y-14086460D01*
X11819706Y-14086460D02*
X11810182Y-14076936D01*
X12114944Y-13895984D02*
X12019706Y-13895984D01*
X12019706Y-13895984D02*
X12010182Y-13991222D01*
X12010182Y-13991222D02*
X12019706Y-13981698D01*
X12019706Y-13981698D02*
X12038753Y-13972174D01*
X12038753Y-13972174D02*
X12086372Y-13972174D01*
X12086372Y-13972174D02*
X12105420Y-13981698D01*
X12105420Y-13981698D02*
X12114944Y-13991222D01*
X12114944Y-13991222D02*
X12124467Y-14010269D01*
X12124467Y-14010269D02*
X12124467Y-14057888D01*
X12124467Y-14057888D02*
X12114944Y-14076936D01*
X12114944Y-14076936D02*
X12105420Y-14086460D01*
X12105420Y-14086460D02*
X12086372Y-14095984D01*
X12086372Y-14095984D02*
X12038753Y-14095984D01*
X12038753Y-14095984D02*
X12019706Y-14086460D01*
X12019706Y-14086460D02*
X12010182Y-14076936D01*
X12295896Y-13962650D02*
X12295896Y-14095984D01*
X12248277Y-13886460D02*
X12200658Y-14029317D01*
X12200658Y-14029317D02*
X12324467Y-14029317D01*
X12391134Y-13895984D02*
X12391134Y-13934079D01*
X12467325Y-13895984D02*
X12467325Y-13934079D01*
X12762563Y-14172174D02*
X12753039Y-14162650D01*
X12753039Y-14162650D02*
X12733991Y-14134079D01*
X12733991Y-14134079D02*
X12724468Y-14115031D01*
X12724468Y-14115031D02*
X12714944Y-14086460D01*
X12714944Y-14086460D02*
X12705420Y-14038841D01*
X12705420Y-14038841D02*
X12705420Y-14000746D01*
X12705420Y-14000746D02*
X12714944Y-13953127D01*
X12714944Y-13953127D02*
X12724468Y-13924555D01*
X12724468Y-13924555D02*
X12733991Y-13905508D01*
X12733991Y-13905508D02*
X12753039Y-13876936D01*
X12753039Y-13876936D02*
X12762563Y-13867412D01*
X12829229Y-13915031D02*
X12838753Y-13905508D01*
X12838753Y-13905508D02*
X12857801Y-13895984D01*
X12857801Y-13895984D02*
X12905420Y-13895984D01*
X12905420Y-13895984D02*
X12924468Y-13905508D01*
X12924468Y-13905508D02*
X12933991Y-13915031D01*
X12933991Y-13915031D02*
X12943515Y-13934079D01*
X12943515Y-13934079D02*
X12943515Y-13953127D01*
X12943515Y-13953127D02*
X12933991Y-13981698D01*
X12933991Y-13981698D02*
X12819706Y-14095984D01*
X12819706Y-14095984D02*
X12943515Y-14095984D01*
X13181610Y-14095984D02*
X13181610Y-13895984D01*
X13267325Y-14095984D02*
X13267325Y-13991222D01*
X13267325Y-13991222D02*
X13257801Y-13972174D01*
X13257801Y-13972174D02*
X13238753Y-13962650D01*
X13238753Y-13962650D02*
X13210182Y-13962650D01*
X13210182Y-13962650D02*
X13191134Y-13972174D01*
X13191134Y-13972174D02*
X13181610Y-13981698D01*
X13391134Y-14095984D02*
X13372087Y-14086460D01*
X13372087Y-14086460D02*
X13362563Y-14076936D01*
X13362563Y-14076936D02*
X13353039Y-14057888D01*
X13353039Y-14057888D02*
X13353039Y-14000746D01*
X13353039Y-14000746D02*
X13362563Y-13981698D01*
X13362563Y-13981698D02*
X13372087Y-13972174D01*
X13372087Y-13972174D02*
X13391134Y-13962650D01*
X13391134Y-13962650D02*
X13419706Y-13962650D01*
X13419706Y-13962650D02*
X13438753Y-13972174D01*
X13438753Y-13972174D02*
X13448277Y-13981698D01*
X13448277Y-13981698D02*
X13457801Y-14000746D01*
X13457801Y-14000746D02*
X13457801Y-14057888D01*
X13457801Y-14057888D02*
X13448277Y-14076936D01*
X13448277Y-14076936D02*
X13438753Y-14086460D01*
X13438753Y-14086460D02*
X13419706Y-14095984D01*
X13419706Y-14095984D02*
X13391134Y-14095984D01*
X13572087Y-14095984D02*
X13553039Y-14086460D01*
X13553039Y-14086460D02*
X13543515Y-14067412D01*
X13543515Y-14067412D02*
X13543515Y-13895984D01*
X13724468Y-14086460D02*
X13705420Y-14095984D01*
X13705420Y-14095984D02*
X13667325Y-14095984D01*
X13667325Y-14095984D02*
X13648277Y-14086460D01*
X13648277Y-14086460D02*
X13638753Y-14067412D01*
X13638753Y-14067412D02*
X13638753Y-13991222D01*
X13638753Y-13991222D02*
X13648277Y-13972174D01*
X13648277Y-13972174D02*
X13667325Y-13962650D01*
X13667325Y-13962650D02*
X13705420Y-13962650D01*
X13705420Y-13962650D02*
X13724468Y-13972174D01*
X13724468Y-13972174D02*
X13733991Y-13991222D01*
X13733991Y-13991222D02*
X13733991Y-14010269D01*
X13733991Y-14010269D02*
X13638753Y-14029317D01*
X13810182Y-14086460D02*
X13829230Y-14095984D01*
X13829230Y-14095984D02*
X13867325Y-14095984D01*
X13867325Y-14095984D02*
X13886372Y-14086460D01*
X13886372Y-14086460D02*
X13895896Y-14067412D01*
X13895896Y-14067412D02*
X13895896Y-14057888D01*
X13895896Y-14057888D02*
X13886372Y-14038841D01*
X13886372Y-14038841D02*
X13867325Y-14029317D01*
X13867325Y-14029317D02*
X13838753Y-14029317D01*
X13838753Y-14029317D02*
X13819706Y-14019793D01*
X13819706Y-14019793D02*
X13810182Y-14000746D01*
X13810182Y-14000746D02*
X13810182Y-13991222D01*
X13810182Y-13991222D02*
X13819706Y-13972174D01*
X13819706Y-13972174D02*
X13838753Y-13962650D01*
X13838753Y-13962650D02*
X13867325Y-13962650D01*
X13867325Y-13962650D02*
X13886372Y-13972174D01*
X13962563Y-14172174D02*
X13972087Y-14162650D01*
X13972087Y-14162650D02*
X13991134Y-14134079D01*
X13991134Y-14134079D02*
X14000658Y-14115031D01*
X14000658Y-14115031D02*
X14010182Y-14086460D01*
X14010182Y-14086460D02*
X14019706Y-14038841D01*
X14019706Y-14038841D02*
X14019706Y-14000746D01*
X14019706Y-14000746D02*
X14010182Y-13953127D01*
X14010182Y-13953127D02*
X14000658Y-13924555D01*
X14000658Y-13924555D02*
X13991134Y-13905508D01*
X13991134Y-13905508D02*
X13972087Y-13876936D01*
X13972087Y-13876936D02*
X13962563Y-13867412D01*
D12*
X9137500Y-14318500D02*
X9187500Y-14268500D01*
X9137500Y-14218500D01*
X9087500Y-14268500D01*
X9137500Y-14318500D01*
D11*
X9553039Y-14359984D02*
X9438753Y-14359984D01*
X9495896Y-14359984D02*
X9495896Y-14159984D01*
X9495896Y-14159984D02*
X9476848Y-14188555D01*
X9476848Y-14188555D02*
X9457801Y-14207603D01*
X9457801Y-14207603D02*
X9438753Y-14217127D01*
X9638753Y-14340936D02*
X9648277Y-14350460D01*
X9648277Y-14350460D02*
X9638753Y-14359984D01*
X9638753Y-14359984D02*
X9629229Y-14350460D01*
X9629229Y-14350460D02*
X9638753Y-14340936D01*
X9638753Y-14340936D02*
X9638753Y-14359984D01*
X9772086Y-14159984D02*
X9791134Y-14159984D01*
X9791134Y-14159984D02*
X9810182Y-14169508D01*
X9810182Y-14169508D02*
X9819705Y-14179031D01*
X9819705Y-14179031D02*
X9829229Y-14198079D01*
X9829229Y-14198079D02*
X9838753Y-14236174D01*
X9838753Y-14236174D02*
X9838753Y-14283793D01*
X9838753Y-14283793D02*
X9829229Y-14321888D01*
X9829229Y-14321888D02*
X9819705Y-14340936D01*
X9819705Y-14340936D02*
X9810182Y-14350460D01*
X9810182Y-14350460D02*
X9791134Y-14359984D01*
X9791134Y-14359984D02*
X9772086Y-14359984D01*
X9772086Y-14359984D02*
X9753039Y-14350460D01*
X9753039Y-14350460D02*
X9743515Y-14340936D01*
X9743515Y-14340936D02*
X9733991Y-14321888D01*
X9733991Y-14321888D02*
X9724467Y-14283793D01*
X9724467Y-14283793D02*
X9724467Y-14236174D01*
X9724467Y-14236174D02*
X9733991Y-14198079D01*
X9733991Y-14198079D02*
X9743515Y-14179031D01*
X9743515Y-14179031D02*
X9753039Y-14169508D01*
X9753039Y-14169508D02*
X9772086Y-14159984D01*
X9962563Y-14159984D02*
X9981610Y-14159984D01*
X9981610Y-14159984D02*
X10000658Y-14169508D01*
X10000658Y-14169508D02*
X10010182Y-14179031D01*
X10010182Y-14179031D02*
X10019705Y-14198079D01*
X10019705Y-14198079D02*
X10029229Y-14236174D01*
X10029229Y-14236174D02*
X10029229Y-14283793D01*
X10029229Y-14283793D02*
X10019705Y-14321888D01*
X10019705Y-14321888D02*
X10010182Y-14340936D01*
X10010182Y-14340936D02*
X10000658Y-14350460D01*
X10000658Y-14350460D02*
X9981610Y-14359984D01*
X9981610Y-14359984D02*
X9962563Y-14359984D01*
X9962563Y-14359984D02*
X9943515Y-14350460D01*
X9943515Y-14350460D02*
X9933991Y-14340936D01*
X9933991Y-14340936D02*
X9924467Y-14321888D01*
X9924467Y-14321888D02*
X9914944Y-14283793D01*
X9914944Y-14283793D02*
X9914944Y-14236174D01*
X9914944Y-14236174D02*
X9924467Y-14198079D01*
X9924467Y-14198079D02*
X9933991Y-14179031D01*
X9933991Y-14179031D02*
X9943515Y-14169508D01*
X9943515Y-14169508D02*
X9962563Y-14159984D01*
X10153039Y-14159984D02*
X10172086Y-14159984D01*
X10172086Y-14159984D02*
X10191134Y-14169508D01*
X10191134Y-14169508D02*
X10200658Y-14179031D01*
X10200658Y-14179031D02*
X10210182Y-14198079D01*
X10210182Y-14198079D02*
X10219705Y-14236174D01*
X10219705Y-14236174D02*
X10219705Y-14283793D01*
X10219705Y-14283793D02*
X10210182Y-14321888D01*
X10210182Y-14321888D02*
X10200658Y-14340936D01*
X10200658Y-14340936D02*
X10191134Y-14350460D01*
X10191134Y-14350460D02*
X10172086Y-14359984D01*
X10172086Y-14359984D02*
X10153039Y-14359984D01*
X10153039Y-14359984D02*
X10133991Y-14350460D01*
X10133991Y-14350460D02*
X10124467Y-14340936D01*
X10124467Y-14340936D02*
X10114944Y-14321888D01*
X10114944Y-14321888D02*
X10105420Y-14283793D01*
X10105420Y-14283793D02*
X10105420Y-14236174D01*
X10105420Y-14236174D02*
X10114944Y-14198079D01*
X10114944Y-14198079D02*
X10124467Y-14179031D01*
X10124467Y-14179031D02*
X10133991Y-14169508D01*
X10133991Y-14169508D02*
X10153039Y-14159984D01*
X10305420Y-14359984D02*
X10305420Y-14226650D01*
X10305420Y-14245698D02*
X10314944Y-14236174D01*
X10314944Y-14236174D02*
X10333991Y-14226650D01*
X10333991Y-14226650D02*
X10362563Y-14226650D01*
X10362563Y-14226650D02*
X10381610Y-14236174D01*
X10381610Y-14236174D02*
X10391134Y-14255222D01*
X10391134Y-14255222D02*
X10391134Y-14359984D01*
X10391134Y-14255222D02*
X10400658Y-14236174D01*
X10400658Y-14236174D02*
X10419705Y-14226650D01*
X10419705Y-14226650D02*
X10448277Y-14226650D01*
X10448277Y-14226650D02*
X10467325Y-14236174D01*
X10467325Y-14236174D02*
X10476848Y-14255222D01*
X10476848Y-14255222D02*
X10476848Y-14359984D01*
X10572086Y-14359984D02*
X10572086Y-14226650D01*
X10572086Y-14245698D02*
X10581610Y-14236174D01*
X10581610Y-14236174D02*
X10600658Y-14226650D01*
X10600658Y-14226650D02*
X10629229Y-14226650D01*
X10629229Y-14226650D02*
X10648277Y-14236174D01*
X10648277Y-14236174D02*
X10657801Y-14255222D01*
X10657801Y-14255222D02*
X10657801Y-14359984D01*
X10657801Y-14255222D02*
X10667325Y-14236174D01*
X10667325Y-14236174D02*
X10686372Y-14226650D01*
X10686372Y-14226650D02*
X10714944Y-14226650D01*
X10714944Y-14226650D02*
X10733991Y-14236174D01*
X10733991Y-14236174D02*
X10743515Y-14255222D01*
X10743515Y-14255222D02*
X10743515Y-14359984D01*
X11133991Y-14150460D02*
X10962563Y-14407603D01*
X11391134Y-14159984D02*
X11410182Y-14159984D01*
X11410182Y-14159984D02*
X11429229Y-14169508D01*
X11429229Y-14169508D02*
X11438753Y-14179031D01*
X11438753Y-14179031D02*
X11448277Y-14198079D01*
X11448277Y-14198079D02*
X11457801Y-14236174D01*
X11457801Y-14236174D02*
X11457801Y-14283793D01*
X11457801Y-14283793D02*
X11448277Y-14321888D01*
X11448277Y-14321888D02*
X11438753Y-14340936D01*
X11438753Y-14340936D02*
X11429229Y-14350460D01*
X11429229Y-14350460D02*
X11410182Y-14359984D01*
X11410182Y-14359984D02*
X11391134Y-14359984D01*
X11391134Y-14359984D02*
X11372086Y-14350460D01*
X11372086Y-14350460D02*
X11362563Y-14340936D01*
X11362563Y-14340936D02*
X11353039Y-14321888D01*
X11353039Y-14321888D02*
X11343515Y-14283793D01*
X11343515Y-14283793D02*
X11343515Y-14236174D01*
X11343515Y-14236174D02*
X11353039Y-14198079D01*
X11353039Y-14198079D02*
X11362563Y-14179031D01*
X11362563Y-14179031D02*
X11372086Y-14169508D01*
X11372086Y-14169508D02*
X11391134Y-14159984D01*
X11543515Y-14340936D02*
X11553039Y-14350460D01*
X11553039Y-14350460D02*
X11543515Y-14359984D01*
X11543515Y-14359984D02*
X11533991Y-14350460D01*
X11533991Y-14350460D02*
X11543515Y-14340936D01*
X11543515Y-14340936D02*
X11543515Y-14359984D01*
X11676848Y-14159984D02*
X11695896Y-14159984D01*
X11695896Y-14159984D02*
X11714944Y-14169508D01*
X11714944Y-14169508D02*
X11724467Y-14179031D01*
X11724467Y-14179031D02*
X11733991Y-14198079D01*
X11733991Y-14198079D02*
X11743515Y-14236174D01*
X11743515Y-14236174D02*
X11743515Y-14283793D01*
X11743515Y-14283793D02*
X11733991Y-14321888D01*
X11733991Y-14321888D02*
X11724467Y-14340936D01*
X11724467Y-14340936D02*
X11714944Y-14350460D01*
X11714944Y-14350460D02*
X11695896Y-14359984D01*
X11695896Y-14359984D02*
X11676848Y-14359984D01*
X11676848Y-14359984D02*
X11657801Y-14350460D01*
X11657801Y-14350460D02*
X11648277Y-14340936D01*
X11648277Y-14340936D02*
X11638753Y-14321888D01*
X11638753Y-14321888D02*
X11629229Y-14283793D01*
X11629229Y-14283793D02*
X11629229Y-14236174D01*
X11629229Y-14236174D02*
X11638753Y-14198079D01*
X11638753Y-14198079D02*
X11648277Y-14179031D01*
X11648277Y-14179031D02*
X11657801Y-14169508D01*
X11657801Y-14169508D02*
X11676848Y-14159984D01*
X11810182Y-14159984D02*
X11933991Y-14159984D01*
X11933991Y-14159984D02*
X11867325Y-14236174D01*
X11867325Y-14236174D02*
X11895896Y-14236174D01*
X11895896Y-14236174D02*
X11914944Y-14245698D01*
X11914944Y-14245698D02*
X11924467Y-14255222D01*
X11924467Y-14255222D02*
X11933991Y-14274269D01*
X11933991Y-14274269D02*
X11933991Y-14321888D01*
X11933991Y-14321888D02*
X11924467Y-14340936D01*
X11924467Y-14340936D02*
X11914944Y-14350460D01*
X11914944Y-14350460D02*
X11895896Y-14359984D01*
X11895896Y-14359984D02*
X11838753Y-14359984D01*
X11838753Y-14359984D02*
X11819706Y-14350460D01*
X11819706Y-14350460D02*
X11810182Y-14340936D01*
X12029229Y-14359984D02*
X12067325Y-14359984D01*
X12067325Y-14359984D02*
X12086372Y-14350460D01*
X12086372Y-14350460D02*
X12095896Y-14340936D01*
X12095896Y-14340936D02*
X12114944Y-14312365D01*
X12114944Y-14312365D02*
X12124467Y-14274269D01*
X12124467Y-14274269D02*
X12124467Y-14198079D01*
X12124467Y-14198079D02*
X12114944Y-14179031D01*
X12114944Y-14179031D02*
X12105420Y-14169508D01*
X12105420Y-14169508D02*
X12086372Y-14159984D01*
X12086372Y-14159984D02*
X12048277Y-14159984D01*
X12048277Y-14159984D02*
X12029229Y-14169508D01*
X12029229Y-14169508D02*
X12019706Y-14179031D01*
X12019706Y-14179031D02*
X12010182Y-14198079D01*
X12010182Y-14198079D02*
X12010182Y-14245698D01*
X12010182Y-14245698D02*
X12019706Y-14264746D01*
X12019706Y-14264746D02*
X12029229Y-14274269D01*
X12029229Y-14274269D02*
X12048277Y-14283793D01*
X12048277Y-14283793D02*
X12086372Y-14283793D01*
X12086372Y-14283793D02*
X12105420Y-14274269D01*
X12105420Y-14274269D02*
X12114944Y-14264746D01*
X12114944Y-14264746D02*
X12124467Y-14245698D01*
X12295896Y-14226650D02*
X12295896Y-14359984D01*
X12248277Y-14150460D02*
X12200658Y-14293317D01*
X12200658Y-14293317D02*
X12324467Y-14293317D01*
X12391134Y-14159984D02*
X12391134Y-14198079D01*
X12467325Y-14159984D02*
X12467325Y-14198079D01*
X12762563Y-14436174D02*
X12753039Y-14426650D01*
X12753039Y-14426650D02*
X12733991Y-14398079D01*
X12733991Y-14398079D02*
X12724468Y-14379031D01*
X12724468Y-14379031D02*
X12714944Y-14350460D01*
X12714944Y-14350460D02*
X12705420Y-14302841D01*
X12705420Y-14302841D02*
X12705420Y-14264746D01*
X12705420Y-14264746D02*
X12714944Y-14217127D01*
X12714944Y-14217127D02*
X12724468Y-14188555D01*
X12724468Y-14188555D02*
X12733991Y-14169508D01*
X12733991Y-14169508D02*
X12753039Y-14140936D01*
X12753039Y-14140936D02*
X12762563Y-14131412D01*
X12819706Y-14159984D02*
X12943515Y-14159984D01*
X12943515Y-14159984D02*
X12876848Y-14236174D01*
X12876848Y-14236174D02*
X12905420Y-14236174D01*
X12905420Y-14236174D02*
X12924468Y-14245698D01*
X12924468Y-14245698D02*
X12933991Y-14255222D01*
X12933991Y-14255222D02*
X12943515Y-14274269D01*
X12943515Y-14274269D02*
X12943515Y-14321888D01*
X12943515Y-14321888D02*
X12933991Y-14340936D01*
X12933991Y-14340936D02*
X12924468Y-14350460D01*
X12924468Y-14350460D02*
X12905420Y-14359984D01*
X12905420Y-14359984D02*
X12848277Y-14359984D01*
X12848277Y-14359984D02*
X12829229Y-14350460D01*
X12829229Y-14350460D02*
X12819706Y-14340936D01*
X13067325Y-14159984D02*
X13086372Y-14159984D01*
X13086372Y-14159984D02*
X13105420Y-14169508D01*
X13105420Y-14169508D02*
X13114944Y-14179031D01*
X13114944Y-14179031D02*
X13124468Y-14198079D01*
X13124468Y-14198079D02*
X13133991Y-14236174D01*
X13133991Y-14236174D02*
X13133991Y-14283793D01*
X13133991Y-14283793D02*
X13124468Y-14321888D01*
X13124468Y-14321888D02*
X13114944Y-14340936D01*
X13114944Y-14340936D02*
X13105420Y-14350460D01*
X13105420Y-14350460D02*
X13086372Y-14359984D01*
X13086372Y-14359984D02*
X13067325Y-14359984D01*
X13067325Y-14359984D02*
X13048277Y-14350460D01*
X13048277Y-14350460D02*
X13038753Y-14340936D01*
X13038753Y-14340936D02*
X13029229Y-14321888D01*
X13029229Y-14321888D02*
X13019706Y-14283793D01*
X13019706Y-14283793D02*
X13019706Y-14236174D01*
X13019706Y-14236174D02*
X13029229Y-14198079D01*
X13029229Y-14198079D02*
X13038753Y-14179031D01*
X13038753Y-14179031D02*
X13048277Y-14169508D01*
X13048277Y-14169508D02*
X13067325Y-14159984D01*
X13372087Y-14359984D02*
X13372087Y-14159984D01*
X13457801Y-14359984D02*
X13457801Y-14255222D01*
X13457801Y-14255222D02*
X13448277Y-14236174D01*
X13448277Y-14236174D02*
X13429230Y-14226650D01*
X13429230Y-14226650D02*
X13400658Y-14226650D01*
X13400658Y-14226650D02*
X13381610Y-14236174D01*
X13381610Y-14236174D02*
X13372087Y-14245698D01*
X13581610Y-14359984D02*
X13562563Y-14350460D01*
X13562563Y-14350460D02*
X13553039Y-14340936D01*
X13553039Y-14340936D02*
X13543515Y-14321888D01*
X13543515Y-14321888D02*
X13543515Y-14264746D01*
X13543515Y-14264746D02*
X13553039Y-14245698D01*
X13553039Y-14245698D02*
X13562563Y-14236174D01*
X13562563Y-14236174D02*
X13581610Y-14226650D01*
X13581610Y-14226650D02*
X13610182Y-14226650D01*
X13610182Y-14226650D02*
X13629230Y-14236174D01*
X13629230Y-14236174D02*
X13638753Y-14245698D01*
X13638753Y-14245698D02*
X13648277Y-14264746D01*
X13648277Y-14264746D02*
X13648277Y-14321888D01*
X13648277Y-14321888D02*
X13638753Y-14340936D01*
X13638753Y-14340936D02*
X13629230Y-14350460D01*
X13629230Y-14350460D02*
X13610182Y-14359984D01*
X13610182Y-14359984D02*
X13581610Y-14359984D01*
X13762563Y-14359984D02*
X13743515Y-14350460D01*
X13743515Y-14350460D02*
X13733991Y-14331412D01*
X13733991Y-14331412D02*
X13733991Y-14159984D01*
X13914944Y-14350460D02*
X13895896Y-14359984D01*
X13895896Y-14359984D02*
X13857801Y-14359984D01*
X13857801Y-14359984D02*
X13838753Y-14350460D01*
X13838753Y-14350460D02*
X13829230Y-14331412D01*
X13829230Y-14331412D02*
X13829230Y-14255222D01*
X13829230Y-14255222D02*
X13838753Y-14236174D01*
X13838753Y-14236174D02*
X13857801Y-14226650D01*
X13857801Y-14226650D02*
X13895896Y-14226650D01*
X13895896Y-14226650D02*
X13914944Y-14236174D01*
X13914944Y-14236174D02*
X13924468Y-14255222D01*
X13924468Y-14255222D02*
X13924468Y-14274269D01*
X13924468Y-14274269D02*
X13829230Y-14293317D01*
X14000658Y-14350460D02*
X14019706Y-14359984D01*
X14019706Y-14359984D02*
X14057801Y-14359984D01*
X14057801Y-14359984D02*
X14076849Y-14350460D01*
X14076849Y-14350460D02*
X14086372Y-14331412D01*
X14086372Y-14331412D02*
X14086372Y-14321888D01*
X14086372Y-14321888D02*
X14076849Y-14302841D01*
X14076849Y-14302841D02*
X14057801Y-14293317D01*
X14057801Y-14293317D02*
X14029230Y-14293317D01*
X14029230Y-14293317D02*
X14010182Y-14283793D01*
X14010182Y-14283793D02*
X14000658Y-14264746D01*
X14000658Y-14264746D02*
X14000658Y-14255222D01*
X14000658Y-14255222D02*
X14010182Y-14236174D01*
X14010182Y-14236174D02*
X14029230Y-14226650D01*
X14029230Y-14226650D02*
X14057801Y-14226650D01*
X14057801Y-14226650D02*
X14076849Y-14236174D01*
X14153039Y-14436174D02*
X14162563Y-14426650D01*
X14162563Y-14426650D02*
X14181611Y-14398079D01*
X14181611Y-14398079D02*
X14191134Y-14379031D01*
X14191134Y-14379031D02*
X14200658Y-14350460D01*
X14200658Y-14350460D02*
X14210182Y-14302841D01*
X14210182Y-14302841D02*
X14210182Y-14264746D01*
X14210182Y-14264746D02*
X14200658Y-14217127D01*
X14200658Y-14217127D02*
X14191134Y-14188555D01*
X14191134Y-14188555D02*
X14181611Y-14169508D01*
X14181611Y-14169508D02*
X14162563Y-14140936D01*
X14162563Y-14140936D02*
X14153039Y-14131412D01*
D13*
X9077500Y-14477500D02*
X9187500Y-14587500D01*
X9187500Y-14477500D02*
X9077500Y-14587500D01*
X9187500Y-14532500D02*
G75*
G02*
X9077500Y-14532500I-55000J0D01*
G01*
X9077500Y-14532500D02*
G75*
G02*
X9187500Y-14532500I55000J0D01*
G01*
D11*
X9553039Y-14623984D02*
X9438753Y-14623984D01*
X9495896Y-14623984D02*
X9495896Y-14423984D01*
X9495896Y-14423984D02*
X9476848Y-14452555D01*
X9476848Y-14452555D02*
X9457801Y-14471603D01*
X9457801Y-14471603D02*
X9438753Y-14481127D01*
X9638753Y-14604936D02*
X9648277Y-14614460D01*
X9648277Y-14614460D02*
X9638753Y-14623984D01*
X9638753Y-14623984D02*
X9629229Y-14614460D01*
X9629229Y-14614460D02*
X9638753Y-14604936D01*
X9638753Y-14604936D02*
X9638753Y-14623984D01*
X9838753Y-14623984D02*
X9724467Y-14623984D01*
X9781610Y-14623984D02*
X9781610Y-14423984D01*
X9781610Y-14423984D02*
X9762563Y-14452555D01*
X9762563Y-14452555D02*
X9743515Y-14471603D01*
X9743515Y-14471603D02*
X9724467Y-14481127D01*
X9962563Y-14423984D02*
X9981610Y-14423984D01*
X9981610Y-14423984D02*
X10000658Y-14433508D01*
X10000658Y-14433508D02*
X10010182Y-14443031D01*
X10010182Y-14443031D02*
X10019705Y-14462079D01*
X10019705Y-14462079D02*
X10029229Y-14500174D01*
X10029229Y-14500174D02*
X10029229Y-14547793D01*
X10029229Y-14547793D02*
X10019705Y-14585888D01*
X10019705Y-14585888D02*
X10010182Y-14604936D01*
X10010182Y-14604936D02*
X10000658Y-14614460D01*
X10000658Y-14614460D02*
X9981610Y-14623984D01*
X9981610Y-14623984D02*
X9962563Y-14623984D01*
X9962563Y-14623984D02*
X9943515Y-14614460D01*
X9943515Y-14614460D02*
X9933991Y-14604936D01*
X9933991Y-14604936D02*
X9924467Y-14585888D01*
X9924467Y-14585888D02*
X9914944Y-14547793D01*
X9914944Y-14547793D02*
X9914944Y-14500174D01*
X9914944Y-14500174D02*
X9924467Y-14462079D01*
X9924467Y-14462079D02*
X9933991Y-14443031D01*
X9933991Y-14443031D02*
X9943515Y-14433508D01*
X9943515Y-14433508D02*
X9962563Y-14423984D01*
X10153039Y-14423984D02*
X10172086Y-14423984D01*
X10172086Y-14423984D02*
X10191134Y-14433508D01*
X10191134Y-14433508D02*
X10200658Y-14443031D01*
X10200658Y-14443031D02*
X10210182Y-14462079D01*
X10210182Y-14462079D02*
X10219705Y-14500174D01*
X10219705Y-14500174D02*
X10219705Y-14547793D01*
X10219705Y-14547793D02*
X10210182Y-14585888D01*
X10210182Y-14585888D02*
X10200658Y-14604936D01*
X10200658Y-14604936D02*
X10191134Y-14614460D01*
X10191134Y-14614460D02*
X10172086Y-14623984D01*
X10172086Y-14623984D02*
X10153039Y-14623984D01*
X10153039Y-14623984D02*
X10133991Y-14614460D01*
X10133991Y-14614460D02*
X10124467Y-14604936D01*
X10124467Y-14604936D02*
X10114944Y-14585888D01*
X10114944Y-14585888D02*
X10105420Y-14547793D01*
X10105420Y-14547793D02*
X10105420Y-14500174D01*
X10105420Y-14500174D02*
X10114944Y-14462079D01*
X10114944Y-14462079D02*
X10124467Y-14443031D01*
X10124467Y-14443031D02*
X10133991Y-14433508D01*
X10133991Y-14433508D02*
X10153039Y-14423984D01*
X10305420Y-14623984D02*
X10305420Y-14490650D01*
X10305420Y-14509698D02*
X10314944Y-14500174D01*
X10314944Y-14500174D02*
X10333991Y-14490650D01*
X10333991Y-14490650D02*
X10362563Y-14490650D01*
X10362563Y-14490650D02*
X10381610Y-14500174D01*
X10381610Y-14500174D02*
X10391134Y-14519222D01*
X10391134Y-14519222D02*
X10391134Y-14623984D01*
X10391134Y-14519222D02*
X10400658Y-14500174D01*
X10400658Y-14500174D02*
X10419705Y-14490650D01*
X10419705Y-14490650D02*
X10448277Y-14490650D01*
X10448277Y-14490650D02*
X10467325Y-14500174D01*
X10467325Y-14500174D02*
X10476848Y-14519222D01*
X10476848Y-14519222D02*
X10476848Y-14623984D01*
X10572086Y-14623984D02*
X10572086Y-14490650D01*
X10572086Y-14509698D02*
X10581610Y-14500174D01*
X10581610Y-14500174D02*
X10600658Y-14490650D01*
X10600658Y-14490650D02*
X10629229Y-14490650D01*
X10629229Y-14490650D02*
X10648277Y-14500174D01*
X10648277Y-14500174D02*
X10657801Y-14519222D01*
X10657801Y-14519222D02*
X10657801Y-14623984D01*
X10657801Y-14519222D02*
X10667325Y-14500174D01*
X10667325Y-14500174D02*
X10686372Y-14490650D01*
X10686372Y-14490650D02*
X10714944Y-14490650D01*
X10714944Y-14490650D02*
X10733991Y-14500174D01*
X10733991Y-14500174D02*
X10743515Y-14519222D01*
X10743515Y-14519222D02*
X10743515Y-14623984D01*
X11133991Y-14414460D02*
X10962563Y-14671603D01*
X11391134Y-14423984D02*
X11410182Y-14423984D01*
X11410182Y-14423984D02*
X11429229Y-14433508D01*
X11429229Y-14433508D02*
X11438753Y-14443031D01*
X11438753Y-14443031D02*
X11448277Y-14462079D01*
X11448277Y-14462079D02*
X11457801Y-14500174D01*
X11457801Y-14500174D02*
X11457801Y-14547793D01*
X11457801Y-14547793D02*
X11448277Y-14585888D01*
X11448277Y-14585888D02*
X11438753Y-14604936D01*
X11438753Y-14604936D02*
X11429229Y-14614460D01*
X11429229Y-14614460D02*
X11410182Y-14623984D01*
X11410182Y-14623984D02*
X11391134Y-14623984D01*
X11391134Y-14623984D02*
X11372086Y-14614460D01*
X11372086Y-14614460D02*
X11362563Y-14604936D01*
X11362563Y-14604936D02*
X11353039Y-14585888D01*
X11353039Y-14585888D02*
X11343515Y-14547793D01*
X11343515Y-14547793D02*
X11343515Y-14500174D01*
X11343515Y-14500174D02*
X11353039Y-14462079D01*
X11353039Y-14462079D02*
X11362563Y-14443031D01*
X11362563Y-14443031D02*
X11372086Y-14433508D01*
X11372086Y-14433508D02*
X11391134Y-14423984D01*
X11543515Y-14604936D02*
X11553039Y-14614460D01*
X11553039Y-14614460D02*
X11543515Y-14623984D01*
X11543515Y-14623984D02*
X11533991Y-14614460D01*
X11533991Y-14614460D02*
X11543515Y-14604936D01*
X11543515Y-14604936D02*
X11543515Y-14623984D01*
X11676848Y-14423984D02*
X11695896Y-14423984D01*
X11695896Y-14423984D02*
X11714944Y-14433508D01*
X11714944Y-14433508D02*
X11724467Y-14443031D01*
X11724467Y-14443031D02*
X11733991Y-14462079D01*
X11733991Y-14462079D02*
X11743515Y-14500174D01*
X11743515Y-14500174D02*
X11743515Y-14547793D01*
X11743515Y-14547793D02*
X11733991Y-14585888D01*
X11733991Y-14585888D02*
X11724467Y-14604936D01*
X11724467Y-14604936D02*
X11714944Y-14614460D01*
X11714944Y-14614460D02*
X11695896Y-14623984D01*
X11695896Y-14623984D02*
X11676848Y-14623984D01*
X11676848Y-14623984D02*
X11657801Y-14614460D01*
X11657801Y-14614460D02*
X11648277Y-14604936D01*
X11648277Y-14604936D02*
X11638753Y-14585888D01*
X11638753Y-14585888D02*
X11629229Y-14547793D01*
X11629229Y-14547793D02*
X11629229Y-14500174D01*
X11629229Y-14500174D02*
X11638753Y-14462079D01*
X11638753Y-14462079D02*
X11648277Y-14443031D01*
X11648277Y-14443031D02*
X11657801Y-14433508D01*
X11657801Y-14433508D02*
X11676848Y-14423984D01*
X11914944Y-14490650D02*
X11914944Y-14623984D01*
X11867325Y-14414460D02*
X11819706Y-14557317D01*
X11819706Y-14557317D02*
X11943515Y-14557317D01*
X12000658Y-14423984D02*
X12124467Y-14423984D01*
X12124467Y-14423984D02*
X12057801Y-14500174D01*
X12057801Y-14500174D02*
X12086372Y-14500174D01*
X12086372Y-14500174D02*
X12105420Y-14509698D01*
X12105420Y-14509698D02*
X12114944Y-14519222D01*
X12114944Y-14519222D02*
X12124467Y-14538269D01*
X12124467Y-14538269D02*
X12124467Y-14585888D01*
X12124467Y-14585888D02*
X12114944Y-14604936D01*
X12114944Y-14604936D02*
X12105420Y-14614460D01*
X12105420Y-14614460D02*
X12086372Y-14623984D01*
X12086372Y-14623984D02*
X12029229Y-14623984D01*
X12029229Y-14623984D02*
X12010182Y-14614460D01*
X12010182Y-14614460D02*
X12000658Y-14604936D01*
X12191134Y-14423984D02*
X12314944Y-14423984D01*
X12314944Y-14423984D02*
X12248277Y-14500174D01*
X12248277Y-14500174D02*
X12276848Y-14500174D01*
X12276848Y-14500174D02*
X12295896Y-14509698D01*
X12295896Y-14509698D02*
X12305420Y-14519222D01*
X12305420Y-14519222D02*
X12314944Y-14538269D01*
X12314944Y-14538269D02*
X12314944Y-14585888D01*
X12314944Y-14585888D02*
X12305420Y-14604936D01*
X12305420Y-14604936D02*
X12295896Y-14614460D01*
X12295896Y-14614460D02*
X12276848Y-14623984D01*
X12276848Y-14623984D02*
X12219706Y-14623984D01*
X12219706Y-14623984D02*
X12200658Y-14614460D01*
X12200658Y-14614460D02*
X12191134Y-14604936D01*
X12391134Y-14423984D02*
X12391134Y-14462079D01*
X12467325Y-14423984D02*
X12467325Y-14462079D01*
X12762563Y-14700174D02*
X12753039Y-14690650D01*
X12753039Y-14690650D02*
X12733991Y-14662079D01*
X12733991Y-14662079D02*
X12724468Y-14643031D01*
X12724468Y-14643031D02*
X12714944Y-14614460D01*
X12714944Y-14614460D02*
X12705420Y-14566841D01*
X12705420Y-14566841D02*
X12705420Y-14528746D01*
X12705420Y-14528746D02*
X12714944Y-14481127D01*
X12714944Y-14481127D02*
X12724468Y-14452555D01*
X12724468Y-14452555D02*
X12733991Y-14433508D01*
X12733991Y-14433508D02*
X12753039Y-14404936D01*
X12753039Y-14404936D02*
X12762563Y-14395412D01*
X12924468Y-14490650D02*
X12924468Y-14623984D01*
X12876848Y-14414460D02*
X12829229Y-14557317D01*
X12829229Y-14557317D02*
X12953039Y-14557317D01*
X13181610Y-14623984D02*
X13181610Y-14423984D01*
X13267325Y-14623984D02*
X13267325Y-14519222D01*
X13267325Y-14519222D02*
X13257801Y-14500174D01*
X13257801Y-14500174D02*
X13238753Y-14490650D01*
X13238753Y-14490650D02*
X13210182Y-14490650D01*
X13210182Y-14490650D02*
X13191134Y-14500174D01*
X13191134Y-14500174D02*
X13181610Y-14509698D01*
X13391134Y-14623984D02*
X13372087Y-14614460D01*
X13372087Y-14614460D02*
X13362563Y-14604936D01*
X13362563Y-14604936D02*
X13353039Y-14585888D01*
X13353039Y-14585888D02*
X13353039Y-14528746D01*
X13353039Y-14528746D02*
X13362563Y-14509698D01*
X13362563Y-14509698D02*
X13372087Y-14500174D01*
X13372087Y-14500174D02*
X13391134Y-14490650D01*
X13391134Y-14490650D02*
X13419706Y-14490650D01*
X13419706Y-14490650D02*
X13438753Y-14500174D01*
X13438753Y-14500174D02*
X13448277Y-14509698D01*
X13448277Y-14509698D02*
X13457801Y-14528746D01*
X13457801Y-14528746D02*
X13457801Y-14585888D01*
X13457801Y-14585888D02*
X13448277Y-14604936D01*
X13448277Y-14604936D02*
X13438753Y-14614460D01*
X13438753Y-14614460D02*
X13419706Y-14623984D01*
X13419706Y-14623984D02*
X13391134Y-14623984D01*
X13572087Y-14623984D02*
X13553039Y-14614460D01*
X13553039Y-14614460D02*
X13543515Y-14595412D01*
X13543515Y-14595412D02*
X13543515Y-14423984D01*
X13724468Y-14614460D02*
X13705420Y-14623984D01*
X13705420Y-14623984D02*
X13667325Y-14623984D01*
X13667325Y-14623984D02*
X13648277Y-14614460D01*
X13648277Y-14614460D02*
X13638753Y-14595412D01*
X13638753Y-14595412D02*
X13638753Y-14519222D01*
X13638753Y-14519222D02*
X13648277Y-14500174D01*
X13648277Y-14500174D02*
X13667325Y-14490650D01*
X13667325Y-14490650D02*
X13705420Y-14490650D01*
X13705420Y-14490650D02*
X13724468Y-14500174D01*
X13724468Y-14500174D02*
X13733991Y-14519222D01*
X13733991Y-14519222D02*
X13733991Y-14538269D01*
X13733991Y-14538269D02*
X13638753Y-14557317D01*
X13810182Y-14614460D02*
X13829230Y-14623984D01*
X13829230Y-14623984D02*
X13867325Y-14623984D01*
X13867325Y-14623984D02*
X13886372Y-14614460D01*
X13886372Y-14614460D02*
X13895896Y-14595412D01*
X13895896Y-14595412D02*
X13895896Y-14585888D01*
X13895896Y-14585888D02*
X13886372Y-14566841D01*
X13886372Y-14566841D02*
X13867325Y-14557317D01*
X13867325Y-14557317D02*
X13838753Y-14557317D01*
X13838753Y-14557317D02*
X13819706Y-14547793D01*
X13819706Y-14547793D02*
X13810182Y-14528746D01*
X13810182Y-14528746D02*
X13810182Y-14519222D01*
X13810182Y-14519222D02*
X13819706Y-14500174D01*
X13819706Y-14500174D02*
X13838753Y-14490650D01*
X13838753Y-14490650D02*
X13867325Y-14490650D01*
X13867325Y-14490650D02*
X13886372Y-14500174D01*
X13962563Y-14700174D02*
X13972087Y-14690650D01*
X13972087Y-14690650D02*
X13991134Y-14662079D01*
X13991134Y-14662079D02*
X14000658Y-14643031D01*
X14000658Y-14643031D02*
X14010182Y-14614460D01*
X14010182Y-14614460D02*
X14019706Y-14566841D01*
X14019706Y-14566841D02*
X14019706Y-14528746D01*
X14019706Y-14528746D02*
X14010182Y-14481127D01*
X14010182Y-14481127D02*
X14000658Y-14452555D01*
X14000658Y-14452555D02*
X13991134Y-14433508D01*
X13991134Y-14433508D02*
X13972087Y-14404936D01*
X13972087Y-14404936D02*
X13962563Y-14395412D01*
M02*
