G04 #@! TF.GenerationSoftware,KiCad,Pcbnew,8.0.6*
G04 #@! TF.CreationDate,2026-09-02T22:55:58+08:00*
G04 #@! TF.ProjectId,AuraPCB,41757261-5043-4422-9e6b-696361645f70,rev?*
G04 #@! TF.SameCoordinates,Original*
G04 #@! TF.FileFunction,Legend,Bot*
G04 #@! TF.FilePolarity,Positive*
%FSLAX46Y46*%
G04 Gerber Fmt 4.6, Leading zero omitted, Abs format (unit mm)*
G04 Created by KiCad (PCBNEW 8.0.6) date 2026-09-02 22:55:58*
%MOMM*%
%LPD*%
G01*
G04 APERTURE LIST*
%ADD10R,1.600000X1.600000*%
%ADD11O,1.600000X1.600000*%
%ADD12C,1.600000*%
%ADD13R,1.800000X1.800000*%
%ADD14C,1.800000*%
%ADD15R,1.524000X1.524000*%
%ADD16C,1.524000*%
%ADD17C,2.000000*%
G04 APERTURE END LIST*
%LPC*%
D10*
X141500000Y-119700000D03*
D11*
X141500000Y-117160000D03*
X141500000Y-114620000D03*
X141500000Y-112080000D03*
X141500000Y-109540000D03*
X141500000Y-107000000D03*
X141500000Y-104460000D03*
X141500000Y-101920000D03*
X141500000Y-99380000D03*
X141500000Y-96840000D03*
X141500000Y-94300000D03*
X141500000Y-91760000D03*
X141500000Y-89220000D03*
X141500000Y-86680000D03*
X141500000Y-84140000D03*
X126260000Y-84140000D03*
X126260000Y-86680000D03*
X126260000Y-89220000D03*
X126260000Y-91760000D03*
X126260000Y-94300000D03*
X126260000Y-96840000D03*
X126260000Y-99380000D03*
X126260000Y-101920000D03*
X126260000Y-104460000D03*
X126260000Y-107000000D03*
X126260000Y-109540000D03*
X126260000Y-112080000D03*
X126260000Y-114620000D03*
X126260000Y-117160000D03*
X126260000Y-119700000D03*
D12*
X146800000Y-92700000D03*
X146800000Y-87700000D03*
X153500000Y-86200000D03*
D11*
X153500000Y-93820000D03*
D13*
X160100000Y-80700000D03*
D14*
X157560000Y-80700000D03*
D15*
X103880000Y-79700000D03*
D16*
X106420000Y-79700000D03*
X108960000Y-79700000D03*
X111500000Y-79700000D03*
D17*
X158600000Y-88300000D03*
X165100000Y-88300000D03*
X158600000Y-92800000D03*
X165100000Y-92800000D03*
D12*
X145580000Y-79100000D03*
D11*
X153200000Y-79100000D03*
%LPD*%
M02*
