M48
; DRILL file {KiCad 8.0.6} date 2026-09-02T22:55:41+0800
; FORMAT={-:-/ absolute / metric / decimal}
; #@! TF.CreationDate,2026-09-02T22:55:41+08:00
; #@! TF.GenerationSoftware,Kicad,Pcbnew,8.0.6
; #@! TF.FileFunction,Plated,1,4,PTH
FMAT,2
METRIC
; #@! TA.AperFunction,Plated,PTH,ViaDrill
T1C0.300
; #@! TA.AperFunction,Plated,PTH,ComponentDrill
T2C0.762
; #@! TA.AperFunction,Plated,PTH,ComponentDrill
T3C0.800
; #@! TA.AperFunction,Plated,PTH,ComponentDrill
T4C0.900
; #@! TA.AperFunction,Plated,PTH,ComponentDrill
T5C1.000
; #@! TA.AperFunction,Plated,PTH,ComponentDrill
T6C1.100
%
G90
G05
T1
X144.2Y-90.7
T2
X103.88Y-79.7
X106.42Y-79.7
X108.96Y-79.7
X111.5Y-79.7
T3
X145.58Y-79.1
X146.8Y-87.7
X146.8Y-92.7
X153.2Y-79.1
X153.5Y-86.2
X153.5Y-93.82
T4
X157.56Y-80.7
X160.1Y-80.7
T5
X126.26Y-84.14
X126.26Y-86.68
X126.26Y-89.22
X126.26Y-91.76
X126.26Y-94.3
X126.26Y-96.84
X126.26Y-99.38
X126.26Y-101.92
X126.26Y-104.46
X126.26Y-107.0
X126.26Y-109.54
X126.26Y-112.08
X126.26Y-114.62
X126.26Y-117.16
X126.26Y-119.7
X141.5Y-84.14
X141.5Y-86.68
X141.5Y-89.22
X141.5Y-91.76
X141.5Y-94.3
X141.5Y-96.84
X141.5Y-99.38
X141.5Y-101.92
X141.5Y-104.46
X141.5Y-107.0
X141.5Y-109.54
X141.5Y-112.08
X141.5Y-114.62
X141.5Y-117.16
X141.5Y-119.7
T6
X158.6Y-88.3
X158.6Y-92.8
X165.1Y-88.3
X165.1Y-92.8
M30
