G04 #@! TF.GenerationSoftware,KiCad,Pcbnew,8.0.6*
G04 #@! TF.CreationDate,2026-09-01T23:35:07+08:00*
G04 #@! TF.ProjectId,learning,6c656172-6e69-46e6-972e-6b696361645f,rev?*
G04 #@! TF.SameCoordinates,Original*
G04 #@! TF.FileFunction,Soldermask,Bot*
G04 #@! TF.FilePolarity,Negative*
%FSLAX46Y46*%
G04 Gerber Fmt 4.6, Leading zero omitted, Abs format (unit mm)*
G04 Created by KiCad (PCBNEW 8.0.6) date 2026-09-01 23:35:07*
%MOMM*%
%LPD*%
G01*
G04 APERTURE LIST*
G04 APERTURE END LIST*
G36*
X166041811Y-123424711D02*
G01*
X166083588Y-123424711D01*
X166130718Y-123434728D01*
X166178017Y-123440058D01*
X166212408Y-123452092D01*
X166247110Y-123459468D01*
X166297117Y-123481733D01*
X166347107Y-123499225D01*
X166373128Y-123515575D01*
X166399835Y-123527466D01*
X166449633Y-123563646D01*
X166498792Y-123594535D01*
X166516444Y-123612187D01*
X166535084Y-123625730D01*
X166581165Y-123676908D01*
X166625465Y-123721208D01*
X166635654Y-123737424D01*
X166646946Y-123749965D01*
X166685573Y-123816870D01*
X166720775Y-123872893D01*
X166725170Y-123885453D01*
X166730535Y-123894746D01*
X166758010Y-123979305D01*
X166779942Y-124041983D01*
X166780773Y-124049363D01*
X166782195Y-124053738D01*
X166795076Y-124176306D01*
X166800000Y-124220000D01*
X166795076Y-124263697D01*
X166782195Y-124386261D01*
X166780773Y-124390635D01*
X166779942Y-124398017D01*
X166758005Y-124460707D01*
X166730535Y-124545253D01*
X166725171Y-124554543D01*
X166720775Y-124567107D01*
X166685566Y-124623140D01*
X166646946Y-124690034D01*
X166635656Y-124702572D01*
X166625465Y-124718792D01*
X166581155Y-124763101D01*
X166535084Y-124814269D01*
X166516448Y-124827808D01*
X166498792Y-124845465D01*
X166449623Y-124876359D01*
X166399835Y-124912533D01*
X166373134Y-124924421D01*
X166347107Y-124940775D01*
X166297107Y-124958270D01*
X166247110Y-124980531D01*
X166212414Y-124987905D01*
X166178017Y-124999942D01*
X166130715Y-125005271D01*
X166083588Y-125015289D01*
X166041811Y-125015289D01*
X166000000Y-125020000D01*
X165958189Y-125015289D01*
X165916412Y-125015289D01*
X165869284Y-125005271D01*
X165821983Y-124999942D01*
X165787586Y-124987906D01*
X165752889Y-124980531D01*
X165702887Y-124958268D01*
X165652893Y-124940775D01*
X165626868Y-124924422D01*
X165600164Y-124912533D01*
X165550369Y-124876355D01*
X165501208Y-124845465D01*
X165483554Y-124827811D01*
X165464915Y-124814269D01*
X165418833Y-124763090D01*
X165374535Y-124718792D01*
X165364345Y-124702575D01*
X165353053Y-124690034D01*
X165314420Y-124623120D01*
X165279225Y-124567107D01*
X165274830Y-124554547D01*
X165269464Y-124545253D01*
X165241980Y-124460667D01*
X165220058Y-124398017D01*
X165219226Y-124390639D01*
X165217804Y-124386261D01*
X165204908Y-124263565D01*
X165200000Y-124220000D01*
X165204908Y-124176438D01*
X165217804Y-124053738D01*
X165219226Y-124049358D01*
X165220058Y-124041983D01*
X165241975Y-123979345D01*
X165269464Y-123894746D01*
X165274831Y-123885449D01*
X165279225Y-123872893D01*
X165314413Y-123816890D01*
X165353053Y-123749965D01*
X165364347Y-123737421D01*
X165374535Y-123721208D01*
X165418826Y-123676916D01*
X165464917Y-123625728D01*
X165483559Y-123612183D01*
X165501208Y-123594535D01*
X165550354Y-123563654D01*
X165600162Y-123527467D01*
X165626873Y-123515574D01*
X165652893Y-123499225D01*
X165702877Y-123481734D01*
X165752889Y-123459468D01*
X165787592Y-123452091D01*
X165821983Y-123440058D01*
X165869281Y-123434728D01*
X165916412Y-123424711D01*
X165958189Y-123424711D01*
X166000000Y-123420000D01*
X166041811Y-123424711D01*
G37*
G36*
X170895090Y-122759215D02*
G01*
X171082683Y-122816120D01*
X171255570Y-122908530D01*
X171407107Y-123032893D01*
X171531470Y-123184430D01*
X171623880Y-123357317D01*
X171680785Y-123544910D01*
X171700000Y-123740000D01*
X171680785Y-123935090D01*
X171623880Y-124122683D01*
X171531470Y-124295570D01*
X171407107Y-124447107D01*
X171255570Y-124571470D01*
X171082683Y-124663880D01*
X170895090Y-124720785D01*
X170700000Y-124740000D01*
X170504910Y-124720785D01*
X170317317Y-124663880D01*
X170144430Y-124571470D01*
X169992893Y-124447107D01*
X169868530Y-124295570D01*
X169776120Y-124122683D01*
X169719215Y-123935090D01*
X169700000Y-123740000D01*
X169719215Y-123544910D01*
X169776120Y-123357317D01*
X169868530Y-123184430D01*
X169992893Y-123032893D01*
X170144430Y-122908530D01*
X170317317Y-122816120D01*
X170504910Y-122759215D01*
X170700000Y-122740000D01*
X170895090Y-122759215D01*
G37*
G36*
X177395090Y-122759215D02*
G01*
X177582683Y-122816120D01*
X177755570Y-122908530D01*
X177907107Y-123032893D01*
X178031470Y-123184430D01*
X178123880Y-123357317D01*
X178180785Y-123544910D01*
X178200000Y-123740000D01*
X178180785Y-123935090D01*
X178123880Y-124122683D01*
X178031470Y-124295570D01*
X177907107Y-124447107D01*
X177755570Y-124571470D01*
X177582683Y-124663880D01*
X177395090Y-124720785D01*
X177200000Y-124740000D01*
X177004910Y-124720785D01*
X176817317Y-124663880D01*
X176644430Y-124571470D01*
X176492893Y-124447107D01*
X176368530Y-124295570D01*
X176276120Y-124122683D01*
X176219215Y-123935090D01*
X176200000Y-123740000D01*
X176219215Y-123544910D01*
X176276120Y-123357317D01*
X176368530Y-123184430D01*
X176492893Y-123032893D01*
X176644430Y-122908530D01*
X176817317Y-122816120D01*
X177004910Y-122759215D01*
X177200000Y-122740000D01*
X177395090Y-122759215D01*
G37*
G36*
X140411811Y-122254711D02*
G01*
X140453588Y-122254711D01*
X140500718Y-122264728D01*
X140548017Y-122270058D01*
X140582408Y-122282092D01*
X140617110Y-122289468D01*
X140667117Y-122311733D01*
X140717107Y-122329225D01*
X140743128Y-122345575D01*
X140769835Y-122357466D01*
X140819633Y-122393646D01*
X140868792Y-122424535D01*
X140886444Y-122442187D01*
X140905084Y-122455730D01*
X140951165Y-122506908D01*
X140995465Y-122551208D01*
X141005654Y-122567424D01*
X141016946Y-122579965D01*
X141055573Y-122646870D01*
X141090775Y-122702893D01*
X141095170Y-122715453D01*
X141100535Y-122724746D01*
X141128010Y-122809305D01*
X141149942Y-122871983D01*
X141150773Y-122879363D01*
X141152195Y-122883738D01*
X141165076Y-123006306D01*
X141170000Y-123050000D01*
X141165076Y-123093697D01*
X141152195Y-123216261D01*
X141150773Y-123220635D01*
X141149942Y-123228017D01*
X141128005Y-123290707D01*
X141100535Y-123375253D01*
X141095171Y-123384543D01*
X141090775Y-123397107D01*
X141055566Y-123453140D01*
X141016946Y-123520034D01*
X141005656Y-123532572D01*
X140995465Y-123548792D01*
X140951155Y-123593101D01*
X140905084Y-123644269D01*
X140886448Y-123657808D01*
X140868792Y-123675465D01*
X140819623Y-123706359D01*
X140769835Y-123742533D01*
X140743134Y-123754421D01*
X140717107Y-123770775D01*
X140667107Y-123788270D01*
X140617110Y-123810531D01*
X140582414Y-123817905D01*
X140548017Y-123829942D01*
X140500715Y-123835271D01*
X140453588Y-123845289D01*
X140411811Y-123845289D01*
X140370000Y-123850000D01*
X140328189Y-123845289D01*
X140286412Y-123845289D01*
X140239284Y-123835271D01*
X140191983Y-123829942D01*
X140157586Y-123817906D01*
X140122889Y-123810531D01*
X140072887Y-123788268D01*
X140022893Y-123770775D01*
X139996868Y-123754422D01*
X139970164Y-123742533D01*
X139920369Y-123706355D01*
X139871208Y-123675465D01*
X139853554Y-123657811D01*
X139834915Y-123644269D01*
X139788833Y-123593090D01*
X139744535Y-123548792D01*
X139734345Y-123532575D01*
X139723053Y-123520034D01*
X139684420Y-123453120D01*
X139649225Y-123397107D01*
X139644830Y-123384547D01*
X139639464Y-123375253D01*
X139611980Y-123290667D01*
X139590058Y-123228017D01*
X139589226Y-123220639D01*
X139587804Y-123216261D01*
X139574908Y-123093565D01*
X139570000Y-123050000D01*
X139574908Y-123006438D01*
X139587804Y-122883738D01*
X139589226Y-122879358D01*
X139590058Y-122871983D01*
X139611975Y-122809345D01*
X139639464Y-122724746D01*
X139644831Y-122715449D01*
X139649225Y-122702893D01*
X139684413Y-122646890D01*
X139723053Y-122579965D01*
X139734347Y-122567421D01*
X139744535Y-122551208D01*
X139788826Y-122506916D01*
X139834917Y-122455728D01*
X139853559Y-122442183D01*
X139871208Y-122424535D01*
X139920354Y-122393654D01*
X139970162Y-122357467D01*
X139996873Y-122345574D01*
X140022893Y-122329225D01*
X140072877Y-122311734D01*
X140122889Y-122289468D01*
X140157592Y-122282091D01*
X140191983Y-122270058D01*
X140239281Y-122264728D01*
X140286412Y-122254711D01*
X140328189Y-122254711D01*
X140370000Y-122250000D01*
X140411811Y-122254711D01*
G37*
G36*
X156410000Y-123850000D02*
G01*
X154810000Y-123850000D01*
X154810000Y-122250000D01*
X156410000Y-122250000D01*
X156410000Y-123850000D01*
G37*
G36*
X160731811Y-122174711D02*
G01*
X160773588Y-122174711D01*
X160820718Y-122184728D01*
X160868017Y-122190058D01*
X160902408Y-122202092D01*
X160937110Y-122209468D01*
X160987117Y-122231733D01*
X161037107Y-122249225D01*
X161063128Y-122265575D01*
X161089835Y-122277466D01*
X161139633Y-122313646D01*
X161188792Y-122344535D01*
X161206444Y-122362187D01*
X161225084Y-122375730D01*
X161271165Y-122426908D01*
X161315465Y-122471208D01*
X161325654Y-122487424D01*
X161336946Y-122499965D01*
X161375573Y-122566870D01*
X161410775Y-122622893D01*
X161415170Y-122635453D01*
X161420535Y-122644746D01*
X161448010Y-122729305D01*
X161469942Y-122791983D01*
X161470773Y-122799363D01*
X161472195Y-122803738D01*
X161485076Y-122926306D01*
X161490000Y-122970000D01*
X161485076Y-123013697D01*
X161472195Y-123136261D01*
X161470773Y-123140635D01*
X161469942Y-123148017D01*
X161448005Y-123210707D01*
X161420535Y-123295253D01*
X161415171Y-123304543D01*
X161410775Y-123317107D01*
X161375566Y-123373140D01*
X161336946Y-123440034D01*
X161325656Y-123452572D01*
X161315465Y-123468792D01*
X161271155Y-123513101D01*
X161225084Y-123564269D01*
X161206448Y-123577808D01*
X161188792Y-123595465D01*
X161139623Y-123626359D01*
X161089835Y-123662533D01*
X161063134Y-123674421D01*
X161037107Y-123690775D01*
X160987107Y-123708270D01*
X160937110Y-123730531D01*
X160902414Y-123737905D01*
X160868017Y-123749942D01*
X160820715Y-123755271D01*
X160773588Y-123765289D01*
X160731811Y-123765289D01*
X160690000Y-123770000D01*
X160648189Y-123765289D01*
X160606412Y-123765289D01*
X160559284Y-123755271D01*
X160511983Y-123749942D01*
X160477586Y-123737906D01*
X160442889Y-123730531D01*
X160392887Y-123708268D01*
X160342893Y-123690775D01*
X160316868Y-123674422D01*
X160290164Y-123662533D01*
X160240369Y-123626355D01*
X160191208Y-123595465D01*
X160173554Y-123577811D01*
X160154915Y-123564269D01*
X160108833Y-123513090D01*
X160064535Y-123468792D01*
X160054345Y-123452575D01*
X160043053Y-123440034D01*
X160004420Y-123373120D01*
X159969225Y-123317107D01*
X159964830Y-123304547D01*
X159959464Y-123295253D01*
X159931980Y-123210667D01*
X159910058Y-123148017D01*
X159909226Y-123140639D01*
X159907804Y-123136261D01*
X159894908Y-123013565D01*
X159890000Y-122970000D01*
X159894908Y-122926438D01*
X159907804Y-122803738D01*
X159909226Y-122799358D01*
X159910058Y-122791983D01*
X159931975Y-122729345D01*
X159959464Y-122644746D01*
X159964831Y-122635449D01*
X159969225Y-122622893D01*
X160004413Y-122566890D01*
X160043053Y-122499965D01*
X160054347Y-122487421D01*
X160064535Y-122471208D01*
X160108826Y-122426916D01*
X160154917Y-122375728D01*
X160173559Y-122362183D01*
X160191208Y-122344535D01*
X160240354Y-122313654D01*
X160290162Y-122277467D01*
X160316873Y-122265574D01*
X160342893Y-122249225D01*
X160392877Y-122231734D01*
X160442889Y-122209468D01*
X160477592Y-122202091D01*
X160511983Y-122190058D01*
X160559281Y-122184728D01*
X160606412Y-122174711D01*
X160648189Y-122174711D01*
X160690000Y-122170000D01*
X160731811Y-122174711D01*
G37*
G36*
X140411811Y-119714711D02*
G01*
X140453588Y-119714711D01*
X140500718Y-119724728D01*
X140548017Y-119730058D01*
X140582408Y-119742092D01*
X140617110Y-119749468D01*
X140667117Y-119771733D01*
X140717107Y-119789225D01*
X140743128Y-119805575D01*
X140769835Y-119817466D01*
X140819633Y-119853646D01*
X140868792Y-119884535D01*
X140886444Y-119902187D01*
X140905084Y-119915730D01*
X140951165Y-119966908D01*
X140995465Y-120011208D01*
X141005654Y-120027424D01*
X141016946Y-120039965D01*
X141055573Y-120106870D01*
X141090775Y-120162893D01*
X141095170Y-120175453D01*
X141100535Y-120184746D01*
X141128010Y-120269305D01*
X141149942Y-120331983D01*
X141150773Y-120339363D01*
X141152195Y-120343738D01*
X141165076Y-120466306D01*
X141170000Y-120510000D01*
X141165076Y-120553697D01*
X141152195Y-120676261D01*
X141150773Y-120680635D01*
X141149942Y-120688017D01*
X141128005Y-120750707D01*
X141100535Y-120835253D01*
X141095171Y-120844543D01*
X141090775Y-120857107D01*
X141055566Y-120913140D01*
X141016946Y-120980034D01*
X141005656Y-120992572D01*
X140995465Y-121008792D01*
X140951155Y-121053101D01*
X140905084Y-121104269D01*
X140886448Y-121117808D01*
X140868792Y-121135465D01*
X140819623Y-121166359D01*
X140769835Y-121202533D01*
X140743134Y-121214421D01*
X140717107Y-121230775D01*
X140667107Y-121248270D01*
X140617110Y-121270531D01*
X140582414Y-121277905D01*
X140548017Y-121289942D01*
X140500715Y-121295271D01*
X140453588Y-121305289D01*
X140411811Y-121305289D01*
X140370000Y-121310000D01*
X140328189Y-121305289D01*
X140286412Y-121305289D01*
X140239284Y-121295271D01*
X140191983Y-121289942D01*
X140157586Y-121277906D01*
X140122889Y-121270531D01*
X140072887Y-121248268D01*
X140022893Y-121230775D01*
X139996868Y-121214422D01*
X139970164Y-121202533D01*
X139920369Y-121166355D01*
X139871208Y-121135465D01*
X139853554Y-121117811D01*
X139834915Y-121104269D01*
X139788833Y-121053090D01*
X139744535Y-121008792D01*
X139734345Y-120992575D01*
X139723053Y-120980034D01*
X139684420Y-120913120D01*
X139649225Y-120857107D01*
X139644830Y-120844547D01*
X139639464Y-120835253D01*
X139611980Y-120750667D01*
X139590058Y-120688017D01*
X139589226Y-120680639D01*
X139587804Y-120676261D01*
X139574908Y-120553565D01*
X139570000Y-120510000D01*
X139574908Y-120466438D01*
X139587804Y-120343738D01*
X139589226Y-120339358D01*
X139590058Y-120331983D01*
X139611975Y-120269345D01*
X139639464Y-120184746D01*
X139644831Y-120175449D01*
X139649225Y-120162893D01*
X139684413Y-120106890D01*
X139723053Y-120039965D01*
X139734347Y-120027421D01*
X139744535Y-120011208D01*
X139788826Y-119966916D01*
X139834917Y-119915728D01*
X139853559Y-119902183D01*
X139871208Y-119884535D01*
X139920354Y-119853654D01*
X139970162Y-119817467D01*
X139996873Y-119805574D01*
X140022893Y-119789225D01*
X140072877Y-119771734D01*
X140122889Y-119749468D01*
X140157592Y-119742091D01*
X140191983Y-119730058D01*
X140239281Y-119724728D01*
X140286412Y-119714711D01*
X140328189Y-119714711D01*
X140370000Y-119710000D01*
X140411811Y-119714711D01*
G37*
G36*
X155651811Y-119714711D02*
G01*
X155693588Y-119714711D01*
X155740718Y-119724728D01*
X155788017Y-119730058D01*
X155822408Y-119742092D01*
X155857110Y-119749468D01*
X155907117Y-119771733D01*
X155957107Y-119789225D01*
X155983128Y-119805575D01*
X156009835Y-119817466D01*
X156059633Y-119853646D01*
X156108792Y-119884535D01*
X156126444Y-119902187D01*
X156145084Y-119915730D01*
X156191165Y-119966908D01*
X156235465Y-120011208D01*
X156245654Y-120027424D01*
X156256946Y-120039965D01*
X156295573Y-120106870D01*
X156330775Y-120162893D01*
X156335170Y-120175453D01*
X156340535Y-120184746D01*
X156368010Y-120269305D01*
X156389942Y-120331983D01*
X156390773Y-120339363D01*
X156392195Y-120343738D01*
X156405076Y-120466306D01*
X156410000Y-120510000D01*
X156405076Y-120553697D01*
X156392195Y-120676261D01*
X156390773Y-120680635D01*
X156389942Y-120688017D01*
X156368005Y-120750707D01*
X156340535Y-120835253D01*
X156335171Y-120844543D01*
X156330775Y-120857107D01*
X156295566Y-120913140D01*
X156256946Y-120980034D01*
X156245656Y-120992572D01*
X156235465Y-121008792D01*
X156191155Y-121053101D01*
X156145084Y-121104269D01*
X156126448Y-121117808D01*
X156108792Y-121135465D01*
X156059623Y-121166359D01*
X156009835Y-121202533D01*
X155983134Y-121214421D01*
X155957107Y-121230775D01*
X155907107Y-121248270D01*
X155857110Y-121270531D01*
X155822414Y-121277905D01*
X155788017Y-121289942D01*
X155740715Y-121295271D01*
X155693588Y-121305289D01*
X155651811Y-121305289D01*
X155610000Y-121310000D01*
X155568189Y-121305289D01*
X155526412Y-121305289D01*
X155479284Y-121295271D01*
X155431983Y-121289942D01*
X155397586Y-121277906D01*
X155362889Y-121270531D01*
X155312887Y-121248268D01*
X155262893Y-121230775D01*
X155236868Y-121214422D01*
X155210164Y-121202533D01*
X155160369Y-121166355D01*
X155111208Y-121135465D01*
X155093554Y-121117811D01*
X155074915Y-121104269D01*
X155028833Y-121053090D01*
X154984535Y-121008792D01*
X154974345Y-120992575D01*
X154963053Y-120980034D01*
X154924420Y-120913120D01*
X154889225Y-120857107D01*
X154884830Y-120844547D01*
X154879464Y-120835253D01*
X154851980Y-120750667D01*
X154830058Y-120688017D01*
X154829226Y-120680639D01*
X154827804Y-120676261D01*
X154814908Y-120553565D01*
X154810000Y-120510000D01*
X154814908Y-120466438D01*
X154827804Y-120343738D01*
X154829226Y-120339358D01*
X154830058Y-120331983D01*
X154851975Y-120269345D01*
X154879464Y-120184746D01*
X154884831Y-120175449D01*
X154889225Y-120162893D01*
X154924413Y-120106890D01*
X154963053Y-120039965D01*
X154974347Y-120027421D01*
X154984535Y-120011208D01*
X155028826Y-119966916D01*
X155074917Y-119915728D01*
X155093559Y-119902183D01*
X155111208Y-119884535D01*
X155160354Y-119853654D01*
X155210162Y-119817467D01*
X155236873Y-119805574D01*
X155262893Y-119789225D01*
X155312877Y-119771734D01*
X155362889Y-119749468D01*
X155397592Y-119742091D01*
X155431983Y-119730058D01*
X155479281Y-119724728D01*
X155526412Y-119714711D01*
X155568189Y-119714711D01*
X155610000Y-119710000D01*
X155651811Y-119714711D01*
G37*
G36*
X170895090Y-118259215D02*
G01*
X171082683Y-118316120D01*
X171255570Y-118408530D01*
X171407107Y-118532893D01*
X171531470Y-118684430D01*
X171623880Y-118857317D01*
X171680785Y-119044910D01*
X171700000Y-119240000D01*
X171680785Y-119435090D01*
X171623880Y-119622683D01*
X171531470Y-119795570D01*
X171407107Y-119947107D01*
X171255570Y-120071470D01*
X171082683Y-120163880D01*
X170895090Y-120220785D01*
X170700000Y-120240000D01*
X170504910Y-120220785D01*
X170317317Y-120163880D01*
X170144430Y-120071470D01*
X169992893Y-119947107D01*
X169868530Y-119795570D01*
X169776120Y-119622683D01*
X169719215Y-119435090D01*
X169700000Y-119240000D01*
X169719215Y-119044910D01*
X169776120Y-118857317D01*
X169868530Y-118684430D01*
X169992893Y-118532893D01*
X170144430Y-118408530D01*
X170317317Y-118316120D01*
X170504910Y-118259215D01*
X170700000Y-118240000D01*
X170895090Y-118259215D01*
G37*
G36*
X177395090Y-118259215D02*
G01*
X177582683Y-118316120D01*
X177755570Y-118408530D01*
X177907107Y-118532893D01*
X178031470Y-118684430D01*
X178123880Y-118857317D01*
X178180785Y-119044910D01*
X178200000Y-119240000D01*
X178180785Y-119435090D01*
X178123880Y-119622683D01*
X178031470Y-119795570D01*
X177907107Y-119947107D01*
X177755570Y-120071470D01*
X177582683Y-120163880D01*
X177395090Y-120220785D01*
X177200000Y-120240000D01*
X177004910Y-120220785D01*
X176817317Y-120163880D01*
X176644430Y-120071470D01*
X176492893Y-119947107D01*
X176368530Y-119795570D01*
X176276120Y-119622683D01*
X176219215Y-119435090D01*
X176200000Y-119240000D01*
X176219215Y-119044910D01*
X176276120Y-118857317D01*
X176368530Y-118684430D01*
X176492893Y-118532893D01*
X176644430Y-118408530D01*
X176817317Y-118316120D01*
X177004910Y-118259215D01*
X177200000Y-118240000D01*
X177395090Y-118259215D01*
G37*
G36*
X140411811Y-117174711D02*
G01*
X140453588Y-117174711D01*
X140500718Y-117184728D01*
X140548017Y-117190058D01*
X140582408Y-117202092D01*
X140617110Y-117209468D01*
X140667117Y-117231733D01*
X140717107Y-117249225D01*
X140743128Y-117265575D01*
X140769835Y-117277466D01*
X140819633Y-117313646D01*
X140868792Y-117344535D01*
X140886444Y-117362187D01*
X140905084Y-117375730D01*
X140951165Y-117426908D01*
X140995465Y-117471208D01*
X141005654Y-117487424D01*
X141016946Y-117499965D01*
X141055573Y-117566870D01*
X141090775Y-117622893D01*
X141095170Y-117635453D01*
X141100535Y-117644746D01*
X141128010Y-117729305D01*
X141149942Y-117791983D01*
X141150773Y-117799363D01*
X141152195Y-117803738D01*
X141165076Y-117926306D01*
X141170000Y-117970000D01*
X141165076Y-118013697D01*
X141152195Y-118136261D01*
X141150773Y-118140635D01*
X141149942Y-118148017D01*
X141128005Y-118210707D01*
X141100535Y-118295253D01*
X141095171Y-118304543D01*
X141090775Y-118317107D01*
X141055566Y-118373140D01*
X141016946Y-118440034D01*
X141005656Y-118452572D01*
X140995465Y-118468792D01*
X140951155Y-118513101D01*
X140905084Y-118564269D01*
X140886448Y-118577808D01*
X140868792Y-118595465D01*
X140819623Y-118626359D01*
X140769835Y-118662533D01*
X140743134Y-118674421D01*
X140717107Y-118690775D01*
X140667107Y-118708270D01*
X140617110Y-118730531D01*
X140582414Y-118737905D01*
X140548017Y-118749942D01*
X140500715Y-118755271D01*
X140453588Y-118765289D01*
X140411811Y-118765289D01*
X140370000Y-118770000D01*
X140328189Y-118765289D01*
X140286412Y-118765289D01*
X140239284Y-118755271D01*
X140191983Y-118749942D01*
X140157586Y-118737906D01*
X140122889Y-118730531D01*
X140072887Y-118708268D01*
X140022893Y-118690775D01*
X139996868Y-118674422D01*
X139970164Y-118662533D01*
X139920369Y-118626355D01*
X139871208Y-118595465D01*
X139853554Y-118577811D01*
X139834915Y-118564269D01*
X139788833Y-118513090D01*
X139744535Y-118468792D01*
X139734345Y-118452575D01*
X139723053Y-118440034D01*
X139684420Y-118373120D01*
X139649225Y-118317107D01*
X139644830Y-118304547D01*
X139639464Y-118295253D01*
X139611980Y-118210667D01*
X139590058Y-118148017D01*
X139589226Y-118140639D01*
X139587804Y-118136261D01*
X139574908Y-118013565D01*
X139570000Y-117970000D01*
X139574908Y-117926438D01*
X139587804Y-117803738D01*
X139589226Y-117799358D01*
X139590058Y-117791983D01*
X139611975Y-117729345D01*
X139639464Y-117644746D01*
X139644831Y-117635449D01*
X139649225Y-117622893D01*
X139684413Y-117566890D01*
X139723053Y-117499965D01*
X139734347Y-117487421D01*
X139744535Y-117471208D01*
X139788826Y-117426916D01*
X139834917Y-117375728D01*
X139853559Y-117362183D01*
X139871208Y-117344535D01*
X139920354Y-117313654D01*
X139970162Y-117277467D01*
X139996873Y-117265574D01*
X140022893Y-117249225D01*
X140072877Y-117231734D01*
X140122889Y-117209468D01*
X140157592Y-117202091D01*
X140191983Y-117190058D01*
X140239281Y-117184728D01*
X140286412Y-117174711D01*
X140328189Y-117174711D01*
X140370000Y-117170000D01*
X140411811Y-117174711D01*
G37*
G36*
X155651811Y-117174711D02*
G01*
X155693588Y-117174711D01*
X155740718Y-117184728D01*
X155788017Y-117190058D01*
X155822408Y-117202092D01*
X155857110Y-117209468D01*
X155907117Y-117231733D01*
X155957107Y-117249225D01*
X155983128Y-117265575D01*
X156009835Y-117277466D01*
X156059633Y-117313646D01*
X156108792Y-117344535D01*
X156126444Y-117362187D01*
X156145084Y-117375730D01*
X156191165Y-117426908D01*
X156235465Y-117471208D01*
X156245654Y-117487424D01*
X156256946Y-117499965D01*
X156295573Y-117566870D01*
X156330775Y-117622893D01*
X156335170Y-117635453D01*
X156340535Y-117644746D01*
X156368010Y-117729305D01*
X156389942Y-117791983D01*
X156390773Y-117799363D01*
X156392195Y-117803738D01*
X156405076Y-117926306D01*
X156410000Y-117970000D01*
X156405076Y-118013697D01*
X156392195Y-118136261D01*
X156390773Y-118140635D01*
X156389942Y-118148017D01*
X156368005Y-118210707D01*
X156340535Y-118295253D01*
X156335171Y-118304543D01*
X156330775Y-118317107D01*
X156295566Y-118373140D01*
X156256946Y-118440034D01*
X156245656Y-118452572D01*
X156235465Y-118468792D01*
X156191155Y-118513101D01*
X156145084Y-118564269D01*
X156126448Y-118577808D01*
X156108792Y-118595465D01*
X156059623Y-118626359D01*
X156009835Y-118662533D01*
X155983134Y-118674421D01*
X155957107Y-118690775D01*
X155907107Y-118708270D01*
X155857110Y-118730531D01*
X155822414Y-118737905D01*
X155788017Y-118749942D01*
X155740715Y-118755271D01*
X155693588Y-118765289D01*
X155651811Y-118765289D01*
X155610000Y-118770000D01*
X155568189Y-118765289D01*
X155526412Y-118765289D01*
X155479284Y-118755271D01*
X155431983Y-118749942D01*
X155397586Y-118737906D01*
X155362889Y-118730531D01*
X155312887Y-118708268D01*
X155262893Y-118690775D01*
X155236868Y-118674422D01*
X155210164Y-118662533D01*
X155160369Y-118626355D01*
X155111208Y-118595465D01*
X155093554Y-118577811D01*
X155074915Y-118564269D01*
X155028833Y-118513090D01*
X154984535Y-118468792D01*
X154974345Y-118452575D01*
X154963053Y-118440034D01*
X154924420Y-118373120D01*
X154889225Y-118317107D01*
X154884830Y-118304547D01*
X154879464Y-118295253D01*
X154851980Y-118210667D01*
X154830058Y-118148017D01*
X154829226Y-118140639D01*
X154827804Y-118136261D01*
X154814908Y-118013565D01*
X154810000Y-117970000D01*
X154814908Y-117926438D01*
X154827804Y-117803738D01*
X154829226Y-117799358D01*
X154830058Y-117791983D01*
X154851975Y-117729345D01*
X154879464Y-117644746D01*
X154884831Y-117635449D01*
X154889225Y-117622893D01*
X154924413Y-117566890D01*
X154963053Y-117499965D01*
X154974347Y-117487421D01*
X154984535Y-117471208D01*
X155028826Y-117426916D01*
X155074917Y-117375728D01*
X155093559Y-117362183D01*
X155111208Y-117344535D01*
X155160354Y-117313654D01*
X155210162Y-117277467D01*
X155236873Y-117265574D01*
X155262893Y-117249225D01*
X155312877Y-117231734D01*
X155362889Y-117209468D01*
X155397592Y-117202091D01*
X155431983Y-117190058D01*
X155479281Y-117184728D01*
X155526412Y-117174711D01*
X155568189Y-117174711D01*
X155610000Y-117170000D01*
X155651811Y-117174711D01*
G37*
G36*
X160731811Y-117174711D02*
G01*
X160773588Y-117174711D01*
X160820718Y-117184728D01*
X160868017Y-117190058D01*
X160902408Y-117202092D01*
X160937110Y-117209468D01*
X160987117Y-117231733D01*
X161037107Y-117249225D01*
X161063128Y-117265575D01*
X161089835Y-117277466D01*
X161139633Y-117313646D01*
X161188792Y-117344535D01*
X161206444Y-117362187D01*
X161225084Y-117375730D01*
X161271165Y-117426908D01*
X161315465Y-117471208D01*
X161325654Y-117487424D01*
X161336946Y-117499965D01*
X161375573Y-117566870D01*
X161410775Y-117622893D01*
X161415170Y-117635453D01*
X161420535Y-117644746D01*
X161448010Y-117729305D01*
X161469942Y-117791983D01*
X161470773Y-117799363D01*
X161472195Y-117803738D01*
X161485076Y-117926306D01*
X161490000Y-117970000D01*
X161485076Y-118013697D01*
X161472195Y-118136261D01*
X161470773Y-118140635D01*
X161469942Y-118148017D01*
X161448005Y-118210707D01*
X161420535Y-118295253D01*
X161415171Y-118304543D01*
X161410775Y-118317107D01*
X161375566Y-118373140D01*
X161336946Y-118440034D01*
X161325656Y-118452572D01*
X161315465Y-118468792D01*
X161271155Y-118513101D01*
X161225084Y-118564269D01*
X161206448Y-118577808D01*
X161188792Y-118595465D01*
X161139623Y-118626359D01*
X161089835Y-118662533D01*
X161063134Y-118674421D01*
X161037107Y-118690775D01*
X160987107Y-118708270D01*
X160937110Y-118730531D01*
X160902414Y-118737905D01*
X160868017Y-118749942D01*
X160820715Y-118755271D01*
X160773588Y-118765289D01*
X160731811Y-118765289D01*
X160690000Y-118770000D01*
X160648189Y-118765289D01*
X160606412Y-118765289D01*
X160559284Y-118755271D01*
X160511983Y-118749942D01*
X160477586Y-118737906D01*
X160442889Y-118730531D01*
X160392887Y-118708268D01*
X160342893Y-118690775D01*
X160316868Y-118674422D01*
X160290164Y-118662533D01*
X160240369Y-118626355D01*
X160191208Y-118595465D01*
X160173554Y-118577811D01*
X160154915Y-118564269D01*
X160108833Y-118513090D01*
X160064535Y-118468792D01*
X160054345Y-118452575D01*
X160043053Y-118440034D01*
X160004420Y-118373120D01*
X159969225Y-118317107D01*
X159964830Y-118304547D01*
X159959464Y-118295253D01*
X159931980Y-118210667D01*
X159910058Y-118148017D01*
X159909226Y-118140639D01*
X159907804Y-118136261D01*
X159894908Y-118013565D01*
X159890000Y-117970000D01*
X159894908Y-117926438D01*
X159907804Y-117803738D01*
X159909226Y-117799358D01*
X159910058Y-117791983D01*
X159931975Y-117729345D01*
X159959464Y-117644746D01*
X159964831Y-117635449D01*
X159969225Y-117622893D01*
X160004413Y-117566890D01*
X160043053Y-117499965D01*
X160054347Y-117487421D01*
X160064535Y-117471208D01*
X160108826Y-117426916D01*
X160154917Y-117375728D01*
X160173559Y-117362183D01*
X160191208Y-117344535D01*
X160240354Y-117313654D01*
X160290162Y-117277467D01*
X160316873Y-117265574D01*
X160342893Y-117249225D01*
X160392877Y-117231734D01*
X160442889Y-117209468D01*
X160477592Y-117202091D01*
X160511983Y-117190058D01*
X160559281Y-117184728D01*
X160606412Y-117174711D01*
X160648189Y-117174711D01*
X160690000Y-117170000D01*
X160731811Y-117174711D01*
G37*
G36*
X166041811Y-115804711D02*
G01*
X166083588Y-115804711D01*
X166130718Y-115814728D01*
X166178017Y-115820058D01*
X166212408Y-115832092D01*
X166247110Y-115839468D01*
X166297117Y-115861733D01*
X166347107Y-115879225D01*
X166373128Y-115895575D01*
X166399835Y-115907466D01*
X166449633Y-115943646D01*
X166498792Y-115974535D01*
X166516444Y-115992187D01*
X166535084Y-116005730D01*
X166581165Y-116056908D01*
X166625465Y-116101208D01*
X166635654Y-116117424D01*
X166646946Y-116129965D01*
X166685573Y-116196870D01*
X166720775Y-116252893D01*
X166725170Y-116265453D01*
X166730535Y-116274746D01*
X166758010Y-116359305D01*
X166779942Y-116421983D01*
X166780773Y-116429363D01*
X166782195Y-116433738D01*
X166795076Y-116556306D01*
X166800000Y-116600000D01*
X166795076Y-116643697D01*
X166782195Y-116766261D01*
X166780773Y-116770635D01*
X166779942Y-116778017D01*
X166758005Y-116840707D01*
X166730535Y-116925253D01*
X166725171Y-116934543D01*
X166720775Y-116947107D01*
X166685566Y-117003140D01*
X166646946Y-117070034D01*
X166635656Y-117082572D01*
X166625465Y-117098792D01*
X166581155Y-117143101D01*
X166535084Y-117194269D01*
X166516448Y-117207808D01*
X166498792Y-117225465D01*
X166449623Y-117256359D01*
X166399835Y-117292533D01*
X166373134Y-117304421D01*
X166347107Y-117320775D01*
X166297107Y-117338270D01*
X166247110Y-117360531D01*
X166212414Y-117367905D01*
X166178017Y-117379942D01*
X166130715Y-117385271D01*
X166083588Y-117395289D01*
X166041811Y-117395289D01*
X166000000Y-117400000D01*
X165958189Y-117395289D01*
X165916412Y-117395289D01*
X165869284Y-117385271D01*
X165821983Y-117379942D01*
X165787586Y-117367906D01*
X165752889Y-117360531D01*
X165702887Y-117338268D01*
X165652893Y-117320775D01*
X165626868Y-117304422D01*
X165600164Y-117292533D01*
X165550369Y-117256355D01*
X165501208Y-117225465D01*
X165483554Y-117207811D01*
X165464915Y-117194269D01*
X165418833Y-117143090D01*
X165374535Y-117098792D01*
X165364345Y-117082575D01*
X165353053Y-117070034D01*
X165314420Y-117003120D01*
X165279225Y-116947107D01*
X165274830Y-116934547D01*
X165269464Y-116925253D01*
X165241980Y-116840667D01*
X165220058Y-116778017D01*
X165219226Y-116770639D01*
X165217804Y-116766261D01*
X165204908Y-116643565D01*
X165200000Y-116600000D01*
X165204908Y-116556438D01*
X165217804Y-116433738D01*
X165219226Y-116429358D01*
X165220058Y-116421983D01*
X165241975Y-116359345D01*
X165269464Y-116274746D01*
X165274831Y-116265449D01*
X165279225Y-116252893D01*
X165314413Y-116196890D01*
X165353053Y-116129965D01*
X165364347Y-116117421D01*
X165374535Y-116101208D01*
X165418826Y-116056916D01*
X165464917Y-116005728D01*
X165483559Y-115992183D01*
X165501208Y-115974535D01*
X165550354Y-115943654D01*
X165600162Y-115907467D01*
X165626873Y-115895574D01*
X165652893Y-115879225D01*
X165702877Y-115861734D01*
X165752889Y-115839468D01*
X165787592Y-115832091D01*
X165821983Y-115820058D01*
X165869281Y-115814728D01*
X165916412Y-115804711D01*
X165958189Y-115804711D01*
X166000000Y-115800000D01*
X166041811Y-115804711D01*
G37*
G36*
X140411811Y-114634711D02*
G01*
X140453588Y-114634711D01*
X140500718Y-114644728D01*
X140548017Y-114650058D01*
X140582408Y-114662092D01*
X140617110Y-114669468D01*
X140667117Y-114691733D01*
X140717107Y-114709225D01*
X140743128Y-114725575D01*
X140769835Y-114737466D01*
X140819633Y-114773646D01*
X140868792Y-114804535D01*
X140886444Y-114822187D01*
X140905084Y-114835730D01*
X140951165Y-114886908D01*
X140995465Y-114931208D01*
X141005654Y-114947424D01*
X141016946Y-114959965D01*
X141055573Y-115026870D01*
X141090775Y-115082893D01*
X141095170Y-115095453D01*
X141100535Y-115104746D01*
X141128010Y-115189305D01*
X141149942Y-115251983D01*
X141150773Y-115259363D01*
X141152195Y-115263738D01*
X141165076Y-115386306D01*
X141170000Y-115430000D01*
X141165076Y-115473697D01*
X141152195Y-115596261D01*
X141150773Y-115600635D01*
X141149942Y-115608017D01*
X141128005Y-115670707D01*
X141100535Y-115755253D01*
X141095171Y-115764543D01*
X141090775Y-115777107D01*
X141055566Y-115833140D01*
X141016946Y-115900034D01*
X141005656Y-115912572D01*
X140995465Y-115928792D01*
X140951155Y-115973101D01*
X140905084Y-116024269D01*
X140886448Y-116037808D01*
X140868792Y-116055465D01*
X140819623Y-116086359D01*
X140769835Y-116122533D01*
X140743134Y-116134421D01*
X140717107Y-116150775D01*
X140667107Y-116168270D01*
X140617110Y-116190531D01*
X140582414Y-116197905D01*
X140548017Y-116209942D01*
X140500715Y-116215271D01*
X140453588Y-116225289D01*
X140411811Y-116225289D01*
X140370000Y-116230000D01*
X140328189Y-116225289D01*
X140286412Y-116225289D01*
X140239284Y-116215271D01*
X140191983Y-116209942D01*
X140157586Y-116197906D01*
X140122889Y-116190531D01*
X140072887Y-116168268D01*
X140022893Y-116150775D01*
X139996868Y-116134422D01*
X139970164Y-116122533D01*
X139920369Y-116086355D01*
X139871208Y-116055465D01*
X139853554Y-116037811D01*
X139834915Y-116024269D01*
X139788833Y-115973090D01*
X139744535Y-115928792D01*
X139734345Y-115912575D01*
X139723053Y-115900034D01*
X139684420Y-115833120D01*
X139649225Y-115777107D01*
X139644830Y-115764547D01*
X139639464Y-115755253D01*
X139611980Y-115670667D01*
X139590058Y-115608017D01*
X139589226Y-115600639D01*
X139587804Y-115596261D01*
X139574908Y-115473565D01*
X139570000Y-115430000D01*
X139574908Y-115386438D01*
X139587804Y-115263738D01*
X139589226Y-115259358D01*
X139590058Y-115251983D01*
X139611975Y-115189345D01*
X139639464Y-115104746D01*
X139644831Y-115095449D01*
X139649225Y-115082893D01*
X139684413Y-115026890D01*
X139723053Y-114959965D01*
X139734347Y-114947421D01*
X139744535Y-114931208D01*
X139788826Y-114886916D01*
X139834917Y-114835728D01*
X139853559Y-114822183D01*
X139871208Y-114804535D01*
X139920354Y-114773654D01*
X139970162Y-114737467D01*
X139996873Y-114725574D01*
X140022893Y-114709225D01*
X140072877Y-114691734D01*
X140122889Y-114669468D01*
X140157592Y-114662091D01*
X140191983Y-114650058D01*
X140239281Y-114644728D01*
X140286412Y-114634711D01*
X140328189Y-114634711D01*
X140370000Y-114630000D01*
X140411811Y-114634711D01*
G37*
G36*
X155651811Y-114634711D02*
G01*
X155693588Y-114634711D01*
X155740718Y-114644728D01*
X155788017Y-114650058D01*
X155822408Y-114662092D01*
X155857110Y-114669468D01*
X155907117Y-114691733D01*
X155957107Y-114709225D01*
X155983128Y-114725575D01*
X156009835Y-114737466D01*
X156059633Y-114773646D01*
X156108792Y-114804535D01*
X156126444Y-114822187D01*
X156145084Y-114835730D01*
X156191165Y-114886908D01*
X156235465Y-114931208D01*
X156245654Y-114947424D01*
X156256946Y-114959965D01*
X156295573Y-115026870D01*
X156330775Y-115082893D01*
X156335170Y-115095453D01*
X156340535Y-115104746D01*
X156368010Y-115189305D01*
X156389942Y-115251983D01*
X156390773Y-115259363D01*
X156392195Y-115263738D01*
X156405076Y-115386306D01*
X156410000Y-115430000D01*
X156405076Y-115473697D01*
X156392195Y-115596261D01*
X156390773Y-115600635D01*
X156389942Y-115608017D01*
X156368005Y-115670707D01*
X156340535Y-115755253D01*
X156335171Y-115764543D01*
X156330775Y-115777107D01*
X156295566Y-115833140D01*
X156256946Y-115900034D01*
X156245656Y-115912572D01*
X156235465Y-115928792D01*
X156191155Y-115973101D01*
X156145084Y-116024269D01*
X156126448Y-116037808D01*
X156108792Y-116055465D01*
X156059623Y-116086359D01*
X156009835Y-116122533D01*
X155983134Y-116134421D01*
X155957107Y-116150775D01*
X155907107Y-116168270D01*
X155857110Y-116190531D01*
X155822414Y-116197905D01*
X155788017Y-116209942D01*
X155740715Y-116215271D01*
X155693588Y-116225289D01*
X155651811Y-116225289D01*
X155610000Y-116230000D01*
X155568189Y-116225289D01*
X155526412Y-116225289D01*
X155479284Y-116215271D01*
X155431983Y-116209942D01*
X155397586Y-116197906D01*
X155362889Y-116190531D01*
X155312887Y-116168268D01*
X155262893Y-116150775D01*
X155236868Y-116134422D01*
X155210164Y-116122533D01*
X155160369Y-116086355D01*
X155111208Y-116055465D01*
X155093554Y-116037811D01*
X155074915Y-116024269D01*
X155028833Y-115973090D01*
X154984535Y-115928792D01*
X154974345Y-115912575D01*
X154963053Y-115900034D01*
X154924420Y-115833120D01*
X154889225Y-115777107D01*
X154884830Y-115764547D01*
X154879464Y-115755253D01*
X154851980Y-115670667D01*
X154830058Y-115608017D01*
X154829226Y-115600639D01*
X154827804Y-115596261D01*
X154814908Y-115473565D01*
X154810000Y-115430000D01*
X154814908Y-115386438D01*
X154827804Y-115263738D01*
X154829226Y-115259358D01*
X154830058Y-115251983D01*
X154851975Y-115189345D01*
X154879464Y-115104746D01*
X154884831Y-115095449D01*
X154889225Y-115082893D01*
X154924413Y-115026890D01*
X154963053Y-114959965D01*
X154974347Y-114947421D01*
X154984535Y-114931208D01*
X155028826Y-114886916D01*
X155074917Y-114835728D01*
X155093559Y-114822183D01*
X155111208Y-114804535D01*
X155160354Y-114773654D01*
X155210162Y-114737467D01*
X155236873Y-114725574D01*
X155262893Y-114709225D01*
X155312877Y-114691734D01*
X155362889Y-114669468D01*
X155397592Y-114662091D01*
X155431983Y-114650058D01*
X155479281Y-114644728D01*
X155526412Y-114634711D01*
X155568189Y-114634711D01*
X155610000Y-114630000D01*
X155651811Y-114634711D01*
G37*
G36*
X110652000Y-114922000D02*
G01*
X109128000Y-114922000D01*
X109128000Y-113398000D01*
X110652000Y-113398000D01*
X110652000Y-114922000D01*
G37*
G36*
X112599561Y-113417105D02*
G01*
X112760619Y-113473462D01*
X112905099Y-113564244D01*
X113025756Y-113684901D01*
X113116538Y-113829381D01*
X113172895Y-113990439D01*
X113192000Y-114160000D01*
X113172895Y-114329561D01*
X113116538Y-114490619D01*
X113025756Y-114635099D01*
X112905099Y-114755756D01*
X112760619Y-114846538D01*
X112599561Y-114902895D01*
X112430000Y-114922000D01*
X112260439Y-114902895D01*
X112099381Y-114846538D01*
X111954901Y-114755756D01*
X111834244Y-114635099D01*
X111743462Y-114490619D01*
X111687105Y-114329561D01*
X111668000Y-114160000D01*
X111687105Y-113990439D01*
X111743462Y-113829381D01*
X111834244Y-113684901D01*
X111954901Y-113564244D01*
X112099381Y-113473462D01*
X112260439Y-113417105D01*
X112430000Y-113398000D01*
X112599561Y-113417105D01*
G37*
G36*
X115139561Y-113417105D02*
G01*
X115300619Y-113473462D01*
X115445099Y-113564244D01*
X115565756Y-113684901D01*
X115656538Y-113829381D01*
X115712895Y-113990439D01*
X115732000Y-114160000D01*
X115712895Y-114329561D01*
X115656538Y-114490619D01*
X115565756Y-114635099D01*
X115445099Y-114755756D01*
X115300619Y-114846538D01*
X115139561Y-114902895D01*
X114970000Y-114922000D01*
X114800439Y-114902895D01*
X114639381Y-114846538D01*
X114494901Y-114755756D01*
X114374244Y-114635099D01*
X114283462Y-114490619D01*
X114227105Y-114329561D01*
X114208000Y-114160000D01*
X114227105Y-113990439D01*
X114283462Y-113829381D01*
X114374244Y-113684901D01*
X114494901Y-113564244D01*
X114639381Y-113473462D01*
X114800439Y-113417105D01*
X114970000Y-113398000D01*
X115139561Y-113417105D01*
G37*
G36*
X117679561Y-113417105D02*
G01*
X117840619Y-113473462D01*
X117985099Y-113564244D01*
X118105756Y-113684901D01*
X118196538Y-113829381D01*
X118252895Y-113990439D01*
X118272000Y-114160000D01*
X118252895Y-114329561D01*
X118196538Y-114490619D01*
X118105756Y-114635099D01*
X117985099Y-114755756D01*
X117840619Y-114846538D01*
X117679561Y-114902895D01*
X117510000Y-114922000D01*
X117340439Y-114902895D01*
X117179381Y-114846538D01*
X117034901Y-114755756D01*
X116914244Y-114635099D01*
X116823462Y-114490619D01*
X116767105Y-114329561D01*
X116748000Y-114160000D01*
X116767105Y-113990439D01*
X116823462Y-113829381D01*
X116914244Y-113684901D01*
X117034901Y-113564244D01*
X117179381Y-113473462D01*
X117340439Y-113417105D01*
X117510000Y-113398000D01*
X117679561Y-113417105D01*
G37*
G36*
X120219561Y-113417105D02*
G01*
X120380619Y-113473462D01*
X120525099Y-113564244D01*
X120645756Y-113684901D01*
X120736538Y-113829381D01*
X120792895Y-113990439D01*
X120812000Y-114160000D01*
X120792895Y-114329561D01*
X120736538Y-114490619D01*
X120645756Y-114635099D01*
X120525099Y-114755756D01*
X120380619Y-114846538D01*
X120219561Y-114902895D01*
X120050000Y-114922000D01*
X119880439Y-114902895D01*
X119719381Y-114846538D01*
X119574901Y-114755756D01*
X119454244Y-114635099D01*
X119363462Y-114490619D01*
X119307105Y-114329561D01*
X119288000Y-114160000D01*
X119307105Y-113990439D01*
X119363462Y-113829381D01*
X119454244Y-113684901D01*
X119574901Y-113564244D01*
X119719381Y-113473462D01*
X119880439Y-113417105D01*
X120050000Y-113398000D01*
X120219561Y-113417105D01*
G37*
G36*
X140411811Y-112094711D02*
G01*
X140453588Y-112094711D01*
X140500718Y-112104728D01*
X140548017Y-112110058D01*
X140582408Y-112122092D01*
X140617110Y-112129468D01*
X140667117Y-112151733D01*
X140717107Y-112169225D01*
X140743128Y-112185575D01*
X140769835Y-112197466D01*
X140819633Y-112233646D01*
X140868792Y-112264535D01*
X140886444Y-112282187D01*
X140905084Y-112295730D01*
X140951165Y-112346908D01*
X140995465Y-112391208D01*
X141005654Y-112407424D01*
X141016946Y-112419965D01*
X141055573Y-112486870D01*
X141090775Y-112542893D01*
X141095170Y-112555453D01*
X141100535Y-112564746D01*
X141128010Y-112649305D01*
X141149942Y-112711983D01*
X141150773Y-112719363D01*
X141152195Y-112723738D01*
X141165076Y-112846306D01*
X141170000Y-112890000D01*
X141165076Y-112933697D01*
X141152195Y-113056261D01*
X141150773Y-113060635D01*
X141149942Y-113068017D01*
X141128005Y-113130707D01*
X141100535Y-113215253D01*
X141095171Y-113224543D01*
X141090775Y-113237107D01*
X141055566Y-113293140D01*
X141016946Y-113360034D01*
X141005656Y-113372572D01*
X140995465Y-113388792D01*
X140951155Y-113433101D01*
X140905084Y-113484269D01*
X140886448Y-113497808D01*
X140868792Y-113515465D01*
X140819623Y-113546359D01*
X140769835Y-113582533D01*
X140743134Y-113594421D01*
X140717107Y-113610775D01*
X140667107Y-113628270D01*
X140617110Y-113650531D01*
X140582414Y-113657905D01*
X140548017Y-113669942D01*
X140500715Y-113675271D01*
X140453588Y-113685289D01*
X140411811Y-113685289D01*
X140370000Y-113690000D01*
X140328189Y-113685289D01*
X140286412Y-113685289D01*
X140239284Y-113675271D01*
X140191983Y-113669942D01*
X140157586Y-113657906D01*
X140122889Y-113650531D01*
X140072887Y-113628268D01*
X140022893Y-113610775D01*
X139996868Y-113594422D01*
X139970164Y-113582533D01*
X139920369Y-113546355D01*
X139871208Y-113515465D01*
X139853554Y-113497811D01*
X139834915Y-113484269D01*
X139788833Y-113433090D01*
X139744535Y-113388792D01*
X139734345Y-113372575D01*
X139723053Y-113360034D01*
X139684420Y-113293120D01*
X139649225Y-113237107D01*
X139644830Y-113224547D01*
X139639464Y-113215253D01*
X139611980Y-113130667D01*
X139590058Y-113068017D01*
X139589226Y-113060639D01*
X139587804Y-113056261D01*
X139574908Y-112933565D01*
X139570000Y-112890000D01*
X139574908Y-112846438D01*
X139587804Y-112723738D01*
X139589226Y-112719358D01*
X139590058Y-112711983D01*
X139611975Y-112649345D01*
X139639464Y-112564746D01*
X139644831Y-112555449D01*
X139649225Y-112542893D01*
X139684413Y-112486890D01*
X139723053Y-112419965D01*
X139734347Y-112407421D01*
X139744535Y-112391208D01*
X139788826Y-112346916D01*
X139834917Y-112295728D01*
X139853559Y-112282183D01*
X139871208Y-112264535D01*
X139920354Y-112233654D01*
X139970162Y-112197467D01*
X139996873Y-112185574D01*
X140022893Y-112169225D01*
X140072877Y-112151734D01*
X140122889Y-112129468D01*
X140157592Y-112122091D01*
X140191983Y-112110058D01*
X140239281Y-112104728D01*
X140286412Y-112094711D01*
X140328189Y-112094711D01*
X140370000Y-112090000D01*
X140411811Y-112094711D01*
G37*
G36*
X155651811Y-112094711D02*
G01*
X155693588Y-112094711D01*
X155740718Y-112104728D01*
X155788017Y-112110058D01*
X155822408Y-112122092D01*
X155857110Y-112129468D01*
X155907117Y-112151733D01*
X155957107Y-112169225D01*
X155983128Y-112185575D01*
X156009835Y-112197466D01*
X156059633Y-112233646D01*
X156108792Y-112264535D01*
X156126444Y-112282187D01*
X156145084Y-112295730D01*
X156191165Y-112346908D01*
X156235465Y-112391208D01*
X156245654Y-112407424D01*
X156256946Y-112419965D01*
X156295573Y-112486870D01*
X156330775Y-112542893D01*
X156335170Y-112555453D01*
X156340535Y-112564746D01*
X156368010Y-112649305D01*
X156389942Y-112711983D01*
X156390773Y-112719363D01*
X156392195Y-112723738D01*
X156405076Y-112846306D01*
X156410000Y-112890000D01*
X156405076Y-112933697D01*
X156392195Y-113056261D01*
X156390773Y-113060635D01*
X156389942Y-113068017D01*
X156368005Y-113130707D01*
X156340535Y-113215253D01*
X156335171Y-113224543D01*
X156330775Y-113237107D01*
X156295566Y-113293140D01*
X156256946Y-113360034D01*
X156245656Y-113372572D01*
X156235465Y-113388792D01*
X156191155Y-113433101D01*
X156145084Y-113484269D01*
X156126448Y-113497808D01*
X156108792Y-113515465D01*
X156059623Y-113546359D01*
X156009835Y-113582533D01*
X155983134Y-113594421D01*
X155957107Y-113610775D01*
X155907107Y-113628270D01*
X155857110Y-113650531D01*
X155822414Y-113657905D01*
X155788017Y-113669942D01*
X155740715Y-113675271D01*
X155693588Y-113685289D01*
X155651811Y-113685289D01*
X155610000Y-113690000D01*
X155568189Y-113685289D01*
X155526412Y-113685289D01*
X155479284Y-113675271D01*
X155431983Y-113669942D01*
X155397586Y-113657906D01*
X155362889Y-113650531D01*
X155312887Y-113628268D01*
X155262893Y-113610775D01*
X155236868Y-113594422D01*
X155210164Y-113582533D01*
X155160369Y-113546355D01*
X155111208Y-113515465D01*
X155093554Y-113497811D01*
X155074915Y-113484269D01*
X155028833Y-113433090D01*
X154984535Y-113388792D01*
X154974345Y-113372575D01*
X154963053Y-113360034D01*
X154924420Y-113293120D01*
X154889225Y-113237107D01*
X154884830Y-113224547D01*
X154879464Y-113215253D01*
X154851980Y-113130667D01*
X154830058Y-113068017D01*
X154829226Y-113060639D01*
X154827804Y-113056261D01*
X154814908Y-112933565D01*
X154810000Y-112890000D01*
X154814908Y-112846438D01*
X154827804Y-112723738D01*
X154829226Y-112719358D01*
X154830058Y-112711983D01*
X154851975Y-112649345D01*
X154879464Y-112564746D01*
X154884831Y-112555449D01*
X154889225Y-112542893D01*
X154924413Y-112486890D01*
X154963053Y-112419965D01*
X154974347Y-112407421D01*
X154984535Y-112391208D01*
X155028826Y-112346916D01*
X155074917Y-112295728D01*
X155093559Y-112282183D01*
X155111208Y-112264535D01*
X155160354Y-112233654D01*
X155210162Y-112197467D01*
X155236873Y-112185574D01*
X155262893Y-112169225D01*
X155312877Y-112151734D01*
X155362889Y-112129468D01*
X155397592Y-112122091D01*
X155431983Y-112110058D01*
X155479281Y-112104728D01*
X155526412Y-112094711D01*
X155568189Y-112094711D01*
X155610000Y-112090000D01*
X155651811Y-112094711D01*
G37*
G36*
X165841811Y-110424711D02*
G01*
X165883588Y-110424711D01*
X165930718Y-110434728D01*
X165978017Y-110440058D01*
X166012408Y-110452092D01*
X166047110Y-110459468D01*
X166097117Y-110481733D01*
X166147107Y-110499225D01*
X166173128Y-110515575D01*
X166199835Y-110527466D01*
X166249633Y-110563646D01*
X166298792Y-110594535D01*
X166316444Y-110612187D01*
X166335084Y-110625730D01*
X166381165Y-110676908D01*
X166425465Y-110721208D01*
X166435654Y-110737424D01*
X166446946Y-110749965D01*
X166485573Y-110816870D01*
X166520775Y-110872893D01*
X166525170Y-110885453D01*
X166530535Y-110894746D01*
X166558010Y-110979305D01*
X166579942Y-111041983D01*
X166580773Y-111049363D01*
X166582195Y-111053738D01*
X166595076Y-111176306D01*
X166600000Y-111220000D01*
X166595076Y-111263697D01*
X166582195Y-111386261D01*
X166580773Y-111390635D01*
X166579942Y-111398017D01*
X166558005Y-111460707D01*
X166530535Y-111545253D01*
X166525171Y-111554543D01*
X166520775Y-111567107D01*
X166485566Y-111623140D01*
X166446946Y-111690034D01*
X166435656Y-111702572D01*
X166425465Y-111718792D01*
X166381155Y-111763101D01*
X166335084Y-111814269D01*
X166316448Y-111827808D01*
X166298792Y-111845465D01*
X166249623Y-111876359D01*
X166199835Y-111912533D01*
X166173134Y-111924421D01*
X166147107Y-111940775D01*
X166097107Y-111958270D01*
X166047110Y-111980531D01*
X166012414Y-111987905D01*
X165978017Y-111999942D01*
X165930715Y-112005271D01*
X165883588Y-112015289D01*
X165841811Y-112015289D01*
X165800000Y-112020000D01*
X165758189Y-112015289D01*
X165716412Y-112015289D01*
X165669284Y-112005271D01*
X165621983Y-111999942D01*
X165587586Y-111987906D01*
X165552889Y-111980531D01*
X165502887Y-111958268D01*
X165452893Y-111940775D01*
X165426868Y-111924422D01*
X165400164Y-111912533D01*
X165350369Y-111876355D01*
X165301208Y-111845465D01*
X165283554Y-111827811D01*
X165264915Y-111814269D01*
X165218833Y-111763090D01*
X165174535Y-111718792D01*
X165164345Y-111702575D01*
X165153053Y-111690034D01*
X165114420Y-111623120D01*
X165079225Y-111567107D01*
X165074830Y-111554547D01*
X165069464Y-111545253D01*
X165041980Y-111460667D01*
X165020058Y-111398017D01*
X165019226Y-111390639D01*
X165017804Y-111386261D01*
X165004908Y-111263565D01*
X165000000Y-111220000D01*
X165004908Y-111176438D01*
X165017804Y-111053738D01*
X165019226Y-111049358D01*
X165020058Y-111041983D01*
X165041975Y-110979345D01*
X165069464Y-110894746D01*
X165074831Y-110885449D01*
X165079225Y-110872893D01*
X165114413Y-110816890D01*
X165153053Y-110749965D01*
X165164347Y-110737421D01*
X165174535Y-110721208D01*
X165218826Y-110676916D01*
X165264917Y-110625728D01*
X165283559Y-110612183D01*
X165301208Y-110594535D01*
X165350354Y-110563654D01*
X165400162Y-110527467D01*
X165426873Y-110515574D01*
X165452893Y-110499225D01*
X165502877Y-110481734D01*
X165552889Y-110459468D01*
X165587592Y-110452091D01*
X165621983Y-110440058D01*
X165669281Y-110434728D01*
X165716412Y-110424711D01*
X165758189Y-110424711D01*
X165800000Y-110420000D01*
X165841811Y-110424711D01*
G37*
G36*
X140411811Y-109554711D02*
G01*
X140453588Y-109554711D01*
X140500718Y-109564728D01*
X140548017Y-109570058D01*
X140582408Y-109582092D01*
X140617110Y-109589468D01*
X140667117Y-109611733D01*
X140717107Y-109629225D01*
X140743128Y-109645575D01*
X140769835Y-109657466D01*
X140819633Y-109693646D01*
X140868792Y-109724535D01*
X140886444Y-109742187D01*
X140905084Y-109755730D01*
X140951165Y-109806908D01*
X140995465Y-109851208D01*
X141005654Y-109867424D01*
X141016946Y-109879965D01*
X141055573Y-109946870D01*
X141090775Y-110002893D01*
X141095170Y-110015453D01*
X141100535Y-110024746D01*
X141128010Y-110109305D01*
X141149942Y-110171983D01*
X141150773Y-110179363D01*
X141152195Y-110183738D01*
X141165076Y-110306306D01*
X141170000Y-110350000D01*
X141165076Y-110393697D01*
X141152195Y-110516261D01*
X141150773Y-110520635D01*
X141149942Y-110528017D01*
X141128005Y-110590707D01*
X141100535Y-110675253D01*
X141095171Y-110684543D01*
X141090775Y-110697107D01*
X141055566Y-110753140D01*
X141016946Y-110820034D01*
X141005656Y-110832572D01*
X140995465Y-110848792D01*
X140951155Y-110893101D01*
X140905084Y-110944269D01*
X140886448Y-110957808D01*
X140868792Y-110975465D01*
X140819623Y-111006359D01*
X140769835Y-111042533D01*
X140743134Y-111054421D01*
X140717107Y-111070775D01*
X140667107Y-111088270D01*
X140617110Y-111110531D01*
X140582414Y-111117905D01*
X140548017Y-111129942D01*
X140500715Y-111135271D01*
X140453588Y-111145289D01*
X140411811Y-111145289D01*
X140370000Y-111150000D01*
X140328189Y-111145289D01*
X140286412Y-111145289D01*
X140239284Y-111135271D01*
X140191983Y-111129942D01*
X140157586Y-111117906D01*
X140122889Y-111110531D01*
X140072887Y-111088268D01*
X140022893Y-111070775D01*
X139996868Y-111054422D01*
X139970164Y-111042533D01*
X139920369Y-111006355D01*
X139871208Y-110975465D01*
X139853554Y-110957811D01*
X139834915Y-110944269D01*
X139788833Y-110893090D01*
X139744535Y-110848792D01*
X139734345Y-110832575D01*
X139723053Y-110820034D01*
X139684420Y-110753120D01*
X139649225Y-110697107D01*
X139644830Y-110684547D01*
X139639464Y-110675253D01*
X139611980Y-110590667D01*
X139590058Y-110528017D01*
X139589226Y-110520639D01*
X139587804Y-110516261D01*
X139574908Y-110393565D01*
X139570000Y-110350000D01*
X139574908Y-110306438D01*
X139587804Y-110183738D01*
X139589226Y-110179358D01*
X139590058Y-110171983D01*
X139611975Y-110109345D01*
X139639464Y-110024746D01*
X139644831Y-110015449D01*
X139649225Y-110002893D01*
X139684413Y-109946890D01*
X139723053Y-109879965D01*
X139734347Y-109867421D01*
X139744535Y-109851208D01*
X139788826Y-109806916D01*
X139834917Y-109755728D01*
X139853559Y-109742183D01*
X139871208Y-109724535D01*
X139920354Y-109693654D01*
X139970162Y-109657467D01*
X139996873Y-109645574D01*
X140022893Y-109629225D01*
X140072877Y-109611734D01*
X140122889Y-109589468D01*
X140157592Y-109582091D01*
X140191983Y-109570058D01*
X140239281Y-109564728D01*
X140286412Y-109554711D01*
X140328189Y-109554711D01*
X140370000Y-109550000D01*
X140411811Y-109554711D01*
G37*
G36*
X155651811Y-109554711D02*
G01*
X155693588Y-109554711D01*
X155740718Y-109564728D01*
X155788017Y-109570058D01*
X155822408Y-109582092D01*
X155857110Y-109589468D01*
X155907117Y-109611733D01*
X155957107Y-109629225D01*
X155983128Y-109645575D01*
X156009835Y-109657466D01*
X156059633Y-109693646D01*
X156108792Y-109724535D01*
X156126444Y-109742187D01*
X156145084Y-109755730D01*
X156191165Y-109806908D01*
X156235465Y-109851208D01*
X156245654Y-109867424D01*
X156256946Y-109879965D01*
X156295573Y-109946870D01*
X156330775Y-110002893D01*
X156335170Y-110015453D01*
X156340535Y-110024746D01*
X156368010Y-110109305D01*
X156389942Y-110171983D01*
X156390773Y-110179363D01*
X156392195Y-110183738D01*
X156405076Y-110306306D01*
X156410000Y-110350000D01*
X156405076Y-110393697D01*
X156392195Y-110516261D01*
X156390773Y-110520635D01*
X156389942Y-110528017D01*
X156368005Y-110590707D01*
X156340535Y-110675253D01*
X156335171Y-110684543D01*
X156330775Y-110697107D01*
X156295566Y-110753140D01*
X156256946Y-110820034D01*
X156245656Y-110832572D01*
X156235465Y-110848792D01*
X156191155Y-110893101D01*
X156145084Y-110944269D01*
X156126448Y-110957808D01*
X156108792Y-110975465D01*
X156059623Y-111006359D01*
X156009835Y-111042533D01*
X155983134Y-111054421D01*
X155957107Y-111070775D01*
X155907107Y-111088270D01*
X155857110Y-111110531D01*
X155822414Y-111117905D01*
X155788017Y-111129942D01*
X155740715Y-111135271D01*
X155693588Y-111145289D01*
X155651811Y-111145289D01*
X155610000Y-111150000D01*
X155568189Y-111145289D01*
X155526412Y-111145289D01*
X155479284Y-111135271D01*
X155431983Y-111129942D01*
X155397586Y-111117906D01*
X155362889Y-111110531D01*
X155312887Y-111088268D01*
X155262893Y-111070775D01*
X155236868Y-111054422D01*
X155210164Y-111042533D01*
X155160369Y-111006355D01*
X155111208Y-110975465D01*
X155093554Y-110957811D01*
X155074915Y-110944269D01*
X155028833Y-110893090D01*
X154984535Y-110848792D01*
X154974345Y-110832575D01*
X154963053Y-110820034D01*
X154924420Y-110753120D01*
X154889225Y-110697107D01*
X154884830Y-110684547D01*
X154879464Y-110675253D01*
X154851980Y-110590667D01*
X154830058Y-110528017D01*
X154829226Y-110520639D01*
X154827804Y-110516261D01*
X154814908Y-110393565D01*
X154810000Y-110350000D01*
X154814908Y-110306438D01*
X154827804Y-110183738D01*
X154829226Y-110179358D01*
X154830058Y-110171983D01*
X154851975Y-110109345D01*
X154879464Y-110024746D01*
X154884831Y-110015449D01*
X154889225Y-110002893D01*
X154924413Y-109946890D01*
X154963053Y-109879965D01*
X154974347Y-109867421D01*
X154984535Y-109851208D01*
X155028826Y-109806916D01*
X155074917Y-109755728D01*
X155093559Y-109742183D01*
X155111208Y-109724535D01*
X155160354Y-109693654D01*
X155210162Y-109657467D01*
X155236873Y-109645574D01*
X155262893Y-109629225D01*
X155312877Y-109611734D01*
X155362889Y-109589468D01*
X155397592Y-109582091D01*
X155431983Y-109570058D01*
X155479281Y-109564728D01*
X155526412Y-109554711D01*
X155568189Y-109554711D01*
X155610000Y-109550000D01*
X155651811Y-109554711D01*
G37*
G36*
X160731811Y-109474711D02*
G01*
X160773588Y-109474711D01*
X160820718Y-109484728D01*
X160868017Y-109490058D01*
X160902408Y-109502092D01*
X160937110Y-109509468D01*
X160987117Y-109531733D01*
X161037107Y-109549225D01*
X161063128Y-109565575D01*
X161089835Y-109577466D01*
X161139633Y-109613646D01*
X161188792Y-109644535D01*
X161206444Y-109662187D01*
X161225084Y-109675730D01*
X161271165Y-109726908D01*
X161315465Y-109771208D01*
X161325654Y-109787424D01*
X161336946Y-109799965D01*
X161375573Y-109866870D01*
X161410775Y-109922893D01*
X161415170Y-109935453D01*
X161420535Y-109944746D01*
X161448010Y-110029305D01*
X161469942Y-110091983D01*
X161470773Y-110099363D01*
X161472195Y-110103738D01*
X161485076Y-110226306D01*
X161490000Y-110270000D01*
X161485076Y-110313697D01*
X161472195Y-110436261D01*
X161470773Y-110440635D01*
X161469942Y-110448017D01*
X161448005Y-110510707D01*
X161420535Y-110595253D01*
X161415171Y-110604543D01*
X161410775Y-110617107D01*
X161375566Y-110673140D01*
X161336946Y-110740034D01*
X161325656Y-110752572D01*
X161315465Y-110768792D01*
X161271155Y-110813101D01*
X161225084Y-110864269D01*
X161206448Y-110877808D01*
X161188792Y-110895465D01*
X161139623Y-110926359D01*
X161089835Y-110962533D01*
X161063134Y-110974421D01*
X161037107Y-110990775D01*
X160987107Y-111008270D01*
X160937110Y-111030531D01*
X160902414Y-111037905D01*
X160868017Y-111049942D01*
X160820715Y-111055271D01*
X160773588Y-111065289D01*
X160731811Y-111065289D01*
X160690000Y-111070000D01*
X160648189Y-111065289D01*
X160606412Y-111065289D01*
X160559284Y-111055271D01*
X160511983Y-111049942D01*
X160477586Y-111037906D01*
X160442889Y-111030531D01*
X160392887Y-111008268D01*
X160342893Y-110990775D01*
X160316868Y-110974422D01*
X160290164Y-110962533D01*
X160240369Y-110926355D01*
X160191208Y-110895465D01*
X160173554Y-110877811D01*
X160154915Y-110864269D01*
X160108833Y-110813090D01*
X160064535Y-110768792D01*
X160054345Y-110752575D01*
X160043053Y-110740034D01*
X160004420Y-110673120D01*
X159969225Y-110617107D01*
X159964830Y-110604547D01*
X159959464Y-110595253D01*
X159931980Y-110510667D01*
X159910058Y-110448017D01*
X159909226Y-110440639D01*
X159907804Y-110436261D01*
X159894908Y-110313565D01*
X159890000Y-110270000D01*
X159894908Y-110226438D01*
X159907804Y-110103738D01*
X159909226Y-110099358D01*
X159910058Y-110091983D01*
X159931975Y-110029345D01*
X159959464Y-109944746D01*
X159964831Y-109935449D01*
X159969225Y-109922893D01*
X160004413Y-109866890D01*
X160043053Y-109799965D01*
X160054347Y-109787421D01*
X160064535Y-109771208D01*
X160108826Y-109726916D01*
X160154917Y-109675728D01*
X160173559Y-109662183D01*
X160191208Y-109644535D01*
X160240354Y-109613654D01*
X160290162Y-109577467D01*
X160316873Y-109565574D01*
X160342893Y-109549225D01*
X160392877Y-109531734D01*
X160442889Y-109509468D01*
X160477592Y-109502091D01*
X160511983Y-109490058D01*
X160559281Y-109484728D01*
X160606412Y-109474711D01*
X160648189Y-109474711D01*
X160690000Y-109470000D01*
X160731811Y-109474711D01*
G37*
G36*
X170895090Y-108789215D02*
G01*
X171082683Y-108846120D01*
X171255570Y-108938530D01*
X171407107Y-109062893D01*
X171531470Y-109214430D01*
X171623880Y-109387317D01*
X171680785Y-109574910D01*
X171700000Y-109770000D01*
X171680785Y-109965090D01*
X171623880Y-110152683D01*
X171531470Y-110325570D01*
X171407107Y-110477107D01*
X171255570Y-110601470D01*
X171082683Y-110693880D01*
X170895090Y-110750785D01*
X170700000Y-110770000D01*
X170504910Y-110750785D01*
X170317317Y-110693880D01*
X170144430Y-110601470D01*
X169992893Y-110477107D01*
X169868530Y-110325570D01*
X169776120Y-110152683D01*
X169719215Y-109965090D01*
X169700000Y-109770000D01*
X169719215Y-109574910D01*
X169776120Y-109387317D01*
X169868530Y-109214430D01*
X169992893Y-109062893D01*
X170144430Y-108938530D01*
X170317317Y-108846120D01*
X170504910Y-108789215D01*
X170700000Y-108770000D01*
X170895090Y-108789215D01*
G37*
G36*
X177395090Y-108789215D02*
G01*
X177582683Y-108846120D01*
X177755570Y-108938530D01*
X177907107Y-109062893D01*
X178031470Y-109214430D01*
X178123880Y-109387317D01*
X178180785Y-109574910D01*
X178200000Y-109770000D01*
X178180785Y-109965090D01*
X178123880Y-110152683D01*
X178031470Y-110325570D01*
X177907107Y-110477107D01*
X177755570Y-110601470D01*
X177582683Y-110693880D01*
X177395090Y-110750785D01*
X177200000Y-110770000D01*
X177004910Y-110750785D01*
X176817317Y-110693880D01*
X176644430Y-110601470D01*
X176492893Y-110477107D01*
X176368530Y-110325570D01*
X176276120Y-110152683D01*
X176219215Y-109965090D01*
X176200000Y-109770000D01*
X176219215Y-109574910D01*
X176276120Y-109387317D01*
X176368530Y-109214430D01*
X176492893Y-109062893D01*
X176644430Y-108938530D01*
X176817317Y-108846120D01*
X177004910Y-108789215D01*
X177200000Y-108770000D01*
X177395090Y-108789215D01*
G37*
G36*
X140411811Y-107014711D02*
G01*
X140453588Y-107014711D01*
X140500718Y-107024728D01*
X140548017Y-107030058D01*
X140582408Y-107042092D01*
X140617110Y-107049468D01*
X140667117Y-107071733D01*
X140717107Y-107089225D01*
X140743128Y-107105575D01*
X140769835Y-107117466D01*
X140819633Y-107153646D01*
X140868792Y-107184535D01*
X140886444Y-107202187D01*
X140905084Y-107215730D01*
X140951165Y-107266908D01*
X140995465Y-107311208D01*
X141005654Y-107327424D01*
X141016946Y-107339965D01*
X141055573Y-107406870D01*
X141090775Y-107462893D01*
X141095170Y-107475453D01*
X141100535Y-107484746D01*
X141128010Y-107569305D01*
X141149942Y-107631983D01*
X141150773Y-107639363D01*
X141152195Y-107643738D01*
X141165076Y-107766306D01*
X141170000Y-107810000D01*
X141165076Y-107853697D01*
X141152195Y-107976261D01*
X141150773Y-107980635D01*
X141149942Y-107988017D01*
X141128005Y-108050707D01*
X141100535Y-108135253D01*
X141095171Y-108144543D01*
X141090775Y-108157107D01*
X141055566Y-108213140D01*
X141016946Y-108280034D01*
X141005656Y-108292572D01*
X140995465Y-108308792D01*
X140951155Y-108353101D01*
X140905084Y-108404269D01*
X140886448Y-108417808D01*
X140868792Y-108435465D01*
X140819623Y-108466359D01*
X140769835Y-108502533D01*
X140743134Y-108514421D01*
X140717107Y-108530775D01*
X140667107Y-108548270D01*
X140617110Y-108570531D01*
X140582414Y-108577905D01*
X140548017Y-108589942D01*
X140500715Y-108595271D01*
X140453588Y-108605289D01*
X140411811Y-108605289D01*
X140370000Y-108610000D01*
X140328189Y-108605289D01*
X140286412Y-108605289D01*
X140239284Y-108595271D01*
X140191983Y-108589942D01*
X140157586Y-108577906D01*
X140122889Y-108570531D01*
X140072887Y-108548268D01*
X140022893Y-108530775D01*
X139996868Y-108514422D01*
X139970164Y-108502533D01*
X139920369Y-108466355D01*
X139871208Y-108435465D01*
X139853554Y-108417811D01*
X139834915Y-108404269D01*
X139788833Y-108353090D01*
X139744535Y-108308792D01*
X139734345Y-108292575D01*
X139723053Y-108280034D01*
X139684420Y-108213120D01*
X139649225Y-108157107D01*
X139644830Y-108144547D01*
X139639464Y-108135253D01*
X139611980Y-108050667D01*
X139590058Y-107988017D01*
X139589226Y-107980639D01*
X139587804Y-107976261D01*
X139574908Y-107853565D01*
X139570000Y-107810000D01*
X139574908Y-107766438D01*
X139587804Y-107643738D01*
X139589226Y-107639358D01*
X139590058Y-107631983D01*
X139611975Y-107569345D01*
X139639464Y-107484746D01*
X139644831Y-107475449D01*
X139649225Y-107462893D01*
X139684413Y-107406890D01*
X139723053Y-107339965D01*
X139734347Y-107327421D01*
X139744535Y-107311208D01*
X139788826Y-107266916D01*
X139834917Y-107215728D01*
X139853559Y-107202183D01*
X139871208Y-107184535D01*
X139920354Y-107153654D01*
X139970162Y-107117467D01*
X139996873Y-107105574D01*
X140022893Y-107089225D01*
X140072877Y-107071734D01*
X140122889Y-107049468D01*
X140157592Y-107042091D01*
X140191983Y-107030058D01*
X140239281Y-107024728D01*
X140286412Y-107014711D01*
X140328189Y-107014711D01*
X140370000Y-107010000D01*
X140411811Y-107014711D01*
G37*
G36*
X155651811Y-107014711D02*
G01*
X155693588Y-107014711D01*
X155740718Y-107024728D01*
X155788017Y-107030058D01*
X155822408Y-107042092D01*
X155857110Y-107049468D01*
X155907117Y-107071733D01*
X155957107Y-107089225D01*
X155983128Y-107105575D01*
X156009835Y-107117466D01*
X156059633Y-107153646D01*
X156108792Y-107184535D01*
X156126444Y-107202187D01*
X156145084Y-107215730D01*
X156191165Y-107266908D01*
X156235465Y-107311208D01*
X156245654Y-107327424D01*
X156256946Y-107339965D01*
X156295573Y-107406870D01*
X156330775Y-107462893D01*
X156335170Y-107475453D01*
X156340535Y-107484746D01*
X156368010Y-107569305D01*
X156389942Y-107631983D01*
X156390773Y-107639363D01*
X156392195Y-107643738D01*
X156405076Y-107766306D01*
X156410000Y-107810000D01*
X156405076Y-107853697D01*
X156392195Y-107976261D01*
X156390773Y-107980635D01*
X156389942Y-107988017D01*
X156368005Y-108050707D01*
X156340535Y-108135253D01*
X156335171Y-108144543D01*
X156330775Y-108157107D01*
X156295566Y-108213140D01*
X156256946Y-108280034D01*
X156245656Y-108292572D01*
X156235465Y-108308792D01*
X156191155Y-108353101D01*
X156145084Y-108404269D01*
X156126448Y-108417808D01*
X156108792Y-108435465D01*
X156059623Y-108466359D01*
X156009835Y-108502533D01*
X155983134Y-108514421D01*
X155957107Y-108530775D01*
X155907107Y-108548270D01*
X155857110Y-108570531D01*
X155822414Y-108577905D01*
X155788017Y-108589942D01*
X155740715Y-108595271D01*
X155693588Y-108605289D01*
X155651811Y-108605289D01*
X155610000Y-108610000D01*
X155568189Y-108605289D01*
X155526412Y-108605289D01*
X155479284Y-108595271D01*
X155431983Y-108589942D01*
X155397586Y-108577906D01*
X155362889Y-108570531D01*
X155312887Y-108548268D01*
X155262893Y-108530775D01*
X155236868Y-108514422D01*
X155210164Y-108502533D01*
X155160369Y-108466355D01*
X155111208Y-108435465D01*
X155093554Y-108417811D01*
X155074915Y-108404269D01*
X155028833Y-108353090D01*
X154984535Y-108308792D01*
X154974345Y-108292575D01*
X154963053Y-108280034D01*
X154924420Y-108213120D01*
X154889225Y-108157107D01*
X154884830Y-108144547D01*
X154879464Y-108135253D01*
X154851980Y-108050667D01*
X154830058Y-107988017D01*
X154829226Y-107980639D01*
X154827804Y-107976261D01*
X154814908Y-107853565D01*
X154810000Y-107810000D01*
X154814908Y-107766438D01*
X154827804Y-107643738D01*
X154829226Y-107639358D01*
X154830058Y-107631983D01*
X154851975Y-107569345D01*
X154879464Y-107484746D01*
X154884831Y-107475449D01*
X154889225Y-107462893D01*
X154924413Y-107406890D01*
X154963053Y-107339965D01*
X154974347Y-107327421D01*
X154984535Y-107311208D01*
X155028826Y-107266916D01*
X155074917Y-107215728D01*
X155093559Y-107202183D01*
X155111208Y-107184535D01*
X155160354Y-107153654D01*
X155210162Y-107117467D01*
X155236873Y-107105574D01*
X155262893Y-107089225D01*
X155312877Y-107071734D01*
X155362889Y-107049468D01*
X155397592Y-107042091D01*
X155431983Y-107030058D01*
X155479281Y-107024728D01*
X155526412Y-107014711D01*
X155568189Y-107014711D01*
X155610000Y-107010000D01*
X155651811Y-107014711D01*
G37*
G36*
X170895090Y-104289215D02*
G01*
X171082683Y-104346120D01*
X171255570Y-104438530D01*
X171407107Y-104562893D01*
X171531470Y-104714430D01*
X171623880Y-104887317D01*
X171680785Y-105074910D01*
X171700000Y-105270000D01*
X171680785Y-105465090D01*
X171623880Y-105652683D01*
X171531470Y-105825570D01*
X171407107Y-105977107D01*
X171255570Y-106101470D01*
X171082683Y-106193880D01*
X170895090Y-106250785D01*
X170700000Y-106270000D01*
X170504910Y-106250785D01*
X170317317Y-106193880D01*
X170144430Y-106101470D01*
X169992893Y-105977107D01*
X169868530Y-105825570D01*
X169776120Y-105652683D01*
X169719215Y-105465090D01*
X169700000Y-105270000D01*
X169719215Y-105074910D01*
X169776120Y-104887317D01*
X169868530Y-104714430D01*
X169992893Y-104562893D01*
X170144430Y-104438530D01*
X170317317Y-104346120D01*
X170504910Y-104289215D01*
X170700000Y-104270000D01*
X170895090Y-104289215D01*
G37*
G36*
X177395090Y-104289215D02*
G01*
X177582683Y-104346120D01*
X177755570Y-104438530D01*
X177907107Y-104562893D01*
X178031470Y-104714430D01*
X178123880Y-104887317D01*
X178180785Y-105074910D01*
X178200000Y-105270000D01*
X178180785Y-105465090D01*
X178123880Y-105652683D01*
X178031470Y-105825570D01*
X177907107Y-105977107D01*
X177755570Y-106101470D01*
X177582683Y-106193880D01*
X177395090Y-106250785D01*
X177200000Y-106270000D01*
X177004910Y-106250785D01*
X176817317Y-106193880D01*
X176644430Y-106101470D01*
X176492893Y-105977107D01*
X176368530Y-105825570D01*
X176276120Y-105652683D01*
X176219215Y-105465090D01*
X176200000Y-105270000D01*
X176219215Y-105074910D01*
X176276120Y-104887317D01*
X176368530Y-104714430D01*
X176492893Y-104562893D01*
X176644430Y-104438530D01*
X176817317Y-104346120D01*
X177004910Y-104289215D01*
X177200000Y-104270000D01*
X177395090Y-104289215D01*
G37*
G36*
X140411811Y-104474711D02*
G01*
X140453588Y-104474711D01*
X140500718Y-104484728D01*
X140548017Y-104490058D01*
X140582408Y-104502092D01*
X140617110Y-104509468D01*
X140667117Y-104531733D01*
X140717107Y-104549225D01*
X140743128Y-104565575D01*
X140769835Y-104577466D01*
X140819633Y-104613646D01*
X140868792Y-104644535D01*
X140886444Y-104662187D01*
X140905084Y-104675730D01*
X140951165Y-104726908D01*
X140995465Y-104771208D01*
X141005654Y-104787424D01*
X141016946Y-104799965D01*
X141055573Y-104866870D01*
X141090775Y-104922893D01*
X141095170Y-104935453D01*
X141100535Y-104944746D01*
X141128010Y-105029305D01*
X141149942Y-105091983D01*
X141150773Y-105099363D01*
X141152195Y-105103738D01*
X141165076Y-105226306D01*
X141170000Y-105270000D01*
X141165076Y-105313697D01*
X141152195Y-105436261D01*
X141150773Y-105440635D01*
X141149942Y-105448017D01*
X141128005Y-105510707D01*
X141100535Y-105595253D01*
X141095171Y-105604543D01*
X141090775Y-105617107D01*
X141055566Y-105673140D01*
X141016946Y-105740034D01*
X141005656Y-105752572D01*
X140995465Y-105768792D01*
X140951155Y-105813101D01*
X140905084Y-105864269D01*
X140886448Y-105877808D01*
X140868792Y-105895465D01*
X140819623Y-105926359D01*
X140769835Y-105962533D01*
X140743134Y-105974421D01*
X140717107Y-105990775D01*
X140667107Y-106008270D01*
X140617110Y-106030531D01*
X140582414Y-106037905D01*
X140548017Y-106049942D01*
X140500715Y-106055271D01*
X140453588Y-106065289D01*
X140411811Y-106065289D01*
X140370000Y-106070000D01*
X140328189Y-106065289D01*
X140286412Y-106065289D01*
X140239284Y-106055271D01*
X140191983Y-106049942D01*
X140157586Y-106037906D01*
X140122889Y-106030531D01*
X140072887Y-106008268D01*
X140022893Y-105990775D01*
X139996868Y-105974422D01*
X139970164Y-105962533D01*
X139920369Y-105926355D01*
X139871208Y-105895465D01*
X139853554Y-105877811D01*
X139834915Y-105864269D01*
X139788833Y-105813090D01*
X139744535Y-105768792D01*
X139734345Y-105752575D01*
X139723053Y-105740034D01*
X139684420Y-105673120D01*
X139649225Y-105617107D01*
X139644830Y-105604547D01*
X139639464Y-105595253D01*
X139611980Y-105510667D01*
X139590058Y-105448017D01*
X139589226Y-105440639D01*
X139587804Y-105436261D01*
X139574908Y-105313565D01*
X139570000Y-105270000D01*
X139574908Y-105226438D01*
X139587804Y-105103738D01*
X139589226Y-105099358D01*
X139590058Y-105091983D01*
X139611975Y-105029345D01*
X139639464Y-104944746D01*
X139644831Y-104935449D01*
X139649225Y-104922893D01*
X139684413Y-104866890D01*
X139723053Y-104799965D01*
X139734347Y-104787421D01*
X139744535Y-104771208D01*
X139788826Y-104726916D01*
X139834917Y-104675728D01*
X139853559Y-104662183D01*
X139871208Y-104644535D01*
X139920354Y-104613654D01*
X139970162Y-104577467D01*
X139996873Y-104565574D01*
X140022893Y-104549225D01*
X140072877Y-104531734D01*
X140122889Y-104509468D01*
X140157592Y-104502091D01*
X140191983Y-104490058D01*
X140239281Y-104484728D01*
X140286412Y-104474711D01*
X140328189Y-104474711D01*
X140370000Y-104470000D01*
X140411811Y-104474711D01*
G37*
G36*
X155651811Y-104474711D02*
G01*
X155693588Y-104474711D01*
X155740718Y-104484728D01*
X155788017Y-104490058D01*
X155822408Y-104502092D01*
X155857110Y-104509468D01*
X155907117Y-104531733D01*
X155957107Y-104549225D01*
X155983128Y-104565575D01*
X156009835Y-104577466D01*
X156059633Y-104613646D01*
X156108792Y-104644535D01*
X156126444Y-104662187D01*
X156145084Y-104675730D01*
X156191165Y-104726908D01*
X156235465Y-104771208D01*
X156245654Y-104787424D01*
X156256946Y-104799965D01*
X156295573Y-104866870D01*
X156330775Y-104922893D01*
X156335170Y-104935453D01*
X156340535Y-104944746D01*
X156368010Y-105029305D01*
X156389942Y-105091983D01*
X156390773Y-105099363D01*
X156392195Y-105103738D01*
X156405076Y-105226306D01*
X156410000Y-105270000D01*
X156405076Y-105313697D01*
X156392195Y-105436261D01*
X156390773Y-105440635D01*
X156389942Y-105448017D01*
X156368005Y-105510707D01*
X156340535Y-105595253D01*
X156335171Y-105604543D01*
X156330775Y-105617107D01*
X156295566Y-105673140D01*
X156256946Y-105740034D01*
X156245656Y-105752572D01*
X156235465Y-105768792D01*
X156191155Y-105813101D01*
X156145084Y-105864269D01*
X156126448Y-105877808D01*
X156108792Y-105895465D01*
X156059623Y-105926359D01*
X156009835Y-105962533D01*
X155983134Y-105974421D01*
X155957107Y-105990775D01*
X155907107Y-106008270D01*
X155857110Y-106030531D01*
X155822414Y-106037905D01*
X155788017Y-106049942D01*
X155740715Y-106055271D01*
X155693588Y-106065289D01*
X155651811Y-106065289D01*
X155610000Y-106070000D01*
X155568189Y-106065289D01*
X155526412Y-106065289D01*
X155479284Y-106055271D01*
X155431983Y-106049942D01*
X155397586Y-106037906D01*
X155362889Y-106030531D01*
X155312887Y-106008268D01*
X155262893Y-105990775D01*
X155236868Y-105974422D01*
X155210164Y-105962533D01*
X155160369Y-105926355D01*
X155111208Y-105895465D01*
X155093554Y-105877811D01*
X155074915Y-105864269D01*
X155028833Y-105813090D01*
X154984535Y-105768792D01*
X154974345Y-105752575D01*
X154963053Y-105740034D01*
X154924420Y-105673120D01*
X154889225Y-105617107D01*
X154884830Y-105604547D01*
X154879464Y-105595253D01*
X154851980Y-105510667D01*
X154830058Y-105448017D01*
X154829226Y-105440639D01*
X154827804Y-105436261D01*
X154814908Y-105313565D01*
X154810000Y-105270000D01*
X154814908Y-105226438D01*
X154827804Y-105103738D01*
X154829226Y-105099358D01*
X154830058Y-105091983D01*
X154851975Y-105029345D01*
X154879464Y-104944746D01*
X154884831Y-104935449D01*
X154889225Y-104922893D01*
X154924413Y-104866890D01*
X154963053Y-104799965D01*
X154974347Y-104787421D01*
X154984535Y-104771208D01*
X155028826Y-104726916D01*
X155074917Y-104675728D01*
X155093559Y-104662183D01*
X155111208Y-104644535D01*
X155160354Y-104613654D01*
X155210162Y-104577467D01*
X155236873Y-104565574D01*
X155262893Y-104549225D01*
X155312877Y-104531734D01*
X155362889Y-104509468D01*
X155397592Y-104502091D01*
X155431983Y-104490058D01*
X155479281Y-104484728D01*
X155526412Y-104474711D01*
X155568189Y-104474711D01*
X155610000Y-104470000D01*
X155651811Y-104474711D01*
G37*
G36*
X160731811Y-104474711D02*
G01*
X160773588Y-104474711D01*
X160820718Y-104484728D01*
X160868017Y-104490058D01*
X160902408Y-104502092D01*
X160937110Y-104509468D01*
X160987117Y-104531733D01*
X161037107Y-104549225D01*
X161063128Y-104565575D01*
X161089835Y-104577466D01*
X161139633Y-104613646D01*
X161188792Y-104644535D01*
X161206444Y-104662187D01*
X161225084Y-104675730D01*
X161271165Y-104726908D01*
X161315465Y-104771208D01*
X161325654Y-104787424D01*
X161336946Y-104799965D01*
X161375573Y-104866870D01*
X161410775Y-104922893D01*
X161415170Y-104935453D01*
X161420535Y-104944746D01*
X161448010Y-105029305D01*
X161469942Y-105091983D01*
X161470773Y-105099363D01*
X161472195Y-105103738D01*
X161485076Y-105226306D01*
X161490000Y-105270000D01*
X161485076Y-105313697D01*
X161472195Y-105436261D01*
X161470773Y-105440635D01*
X161469942Y-105448017D01*
X161448005Y-105510707D01*
X161420535Y-105595253D01*
X161415171Y-105604543D01*
X161410775Y-105617107D01*
X161375566Y-105673140D01*
X161336946Y-105740034D01*
X161325656Y-105752572D01*
X161315465Y-105768792D01*
X161271155Y-105813101D01*
X161225084Y-105864269D01*
X161206448Y-105877808D01*
X161188792Y-105895465D01*
X161139623Y-105926359D01*
X161089835Y-105962533D01*
X161063134Y-105974421D01*
X161037107Y-105990775D01*
X160987107Y-106008270D01*
X160937110Y-106030531D01*
X160902414Y-106037905D01*
X160868017Y-106049942D01*
X160820715Y-106055271D01*
X160773588Y-106065289D01*
X160731811Y-106065289D01*
X160690000Y-106070000D01*
X160648189Y-106065289D01*
X160606412Y-106065289D01*
X160559284Y-106055271D01*
X160511983Y-106049942D01*
X160477586Y-106037906D01*
X160442889Y-106030531D01*
X160392887Y-106008268D01*
X160342893Y-105990775D01*
X160316868Y-105974422D01*
X160290164Y-105962533D01*
X160240369Y-105926355D01*
X160191208Y-105895465D01*
X160173554Y-105877811D01*
X160154915Y-105864269D01*
X160108833Y-105813090D01*
X160064535Y-105768792D01*
X160054345Y-105752575D01*
X160043053Y-105740034D01*
X160004420Y-105673120D01*
X159969225Y-105617107D01*
X159964830Y-105604547D01*
X159959464Y-105595253D01*
X159931980Y-105510667D01*
X159910058Y-105448017D01*
X159909226Y-105440639D01*
X159907804Y-105436261D01*
X159894908Y-105313565D01*
X159890000Y-105270000D01*
X159894908Y-105226438D01*
X159907804Y-105103738D01*
X159909226Y-105099358D01*
X159910058Y-105091983D01*
X159931975Y-105029345D01*
X159959464Y-104944746D01*
X159964831Y-104935449D01*
X159969225Y-104922893D01*
X160004413Y-104866890D01*
X160043053Y-104799965D01*
X160054347Y-104787421D01*
X160064535Y-104771208D01*
X160108826Y-104726916D01*
X160154917Y-104675728D01*
X160173559Y-104662183D01*
X160191208Y-104644535D01*
X160240354Y-104613654D01*
X160290162Y-104577467D01*
X160316873Y-104565574D01*
X160342893Y-104549225D01*
X160392877Y-104531734D01*
X160442889Y-104509468D01*
X160477592Y-104502091D01*
X160511983Y-104490058D01*
X160559281Y-104484728D01*
X160606412Y-104474711D01*
X160648189Y-104474711D01*
X160690000Y-104470000D01*
X160731811Y-104474711D01*
G37*
G36*
X165841811Y-102804711D02*
G01*
X165883588Y-102804711D01*
X165930718Y-102814728D01*
X165978017Y-102820058D01*
X166012408Y-102832092D01*
X166047110Y-102839468D01*
X166097117Y-102861733D01*
X166147107Y-102879225D01*
X166173128Y-102895575D01*
X166199835Y-102907466D01*
X166249633Y-102943646D01*
X166298792Y-102974535D01*
X166316444Y-102992187D01*
X166335084Y-103005730D01*
X166381165Y-103056908D01*
X166425465Y-103101208D01*
X166435654Y-103117424D01*
X166446946Y-103129965D01*
X166485573Y-103196870D01*
X166520775Y-103252893D01*
X166525170Y-103265453D01*
X166530535Y-103274746D01*
X166558010Y-103359305D01*
X166579942Y-103421983D01*
X166580773Y-103429363D01*
X166582195Y-103433738D01*
X166595076Y-103556306D01*
X166600000Y-103600000D01*
X166595076Y-103643697D01*
X166582195Y-103766261D01*
X166580773Y-103770635D01*
X166579942Y-103778017D01*
X166558005Y-103840707D01*
X166530535Y-103925253D01*
X166525171Y-103934543D01*
X166520775Y-103947107D01*
X166485566Y-104003140D01*
X166446946Y-104070034D01*
X166435656Y-104082572D01*
X166425465Y-104098792D01*
X166381155Y-104143101D01*
X166335084Y-104194269D01*
X166316448Y-104207808D01*
X166298792Y-104225465D01*
X166249623Y-104256359D01*
X166199835Y-104292533D01*
X166173134Y-104304421D01*
X166147107Y-104320775D01*
X166097107Y-104338270D01*
X166047110Y-104360531D01*
X166012414Y-104367905D01*
X165978017Y-104379942D01*
X165930715Y-104385271D01*
X165883588Y-104395289D01*
X165841811Y-104395289D01*
X165800000Y-104400000D01*
X165758189Y-104395289D01*
X165716412Y-104395289D01*
X165669284Y-104385271D01*
X165621983Y-104379942D01*
X165587586Y-104367906D01*
X165552889Y-104360531D01*
X165502887Y-104338268D01*
X165452893Y-104320775D01*
X165426868Y-104304422D01*
X165400164Y-104292533D01*
X165350369Y-104256355D01*
X165301208Y-104225465D01*
X165283554Y-104207811D01*
X165264915Y-104194269D01*
X165218833Y-104143090D01*
X165174535Y-104098792D01*
X165164345Y-104082575D01*
X165153053Y-104070034D01*
X165114420Y-104003120D01*
X165079225Y-103947107D01*
X165074830Y-103934547D01*
X165069464Y-103925253D01*
X165041980Y-103840667D01*
X165020058Y-103778017D01*
X165019226Y-103770639D01*
X165017804Y-103766261D01*
X165004908Y-103643565D01*
X165000000Y-103600000D01*
X165004908Y-103556438D01*
X165017804Y-103433738D01*
X165019226Y-103429358D01*
X165020058Y-103421983D01*
X165041975Y-103359345D01*
X165069464Y-103274746D01*
X165074831Y-103265449D01*
X165079225Y-103252893D01*
X165114413Y-103196890D01*
X165153053Y-103129965D01*
X165164347Y-103117421D01*
X165174535Y-103101208D01*
X165218826Y-103056916D01*
X165264917Y-103005728D01*
X165283559Y-102992183D01*
X165301208Y-102974535D01*
X165350354Y-102943654D01*
X165400162Y-102907467D01*
X165426873Y-102895574D01*
X165452893Y-102879225D01*
X165502877Y-102861734D01*
X165552889Y-102839468D01*
X165587592Y-102832091D01*
X165621983Y-102820058D01*
X165669281Y-102814728D01*
X165716412Y-102804711D01*
X165758189Y-102804711D01*
X165800000Y-102800000D01*
X165841811Y-102804711D01*
G37*
G36*
X140411811Y-101934711D02*
G01*
X140453588Y-101934711D01*
X140500718Y-101944728D01*
X140548017Y-101950058D01*
X140582408Y-101962092D01*
X140617110Y-101969468D01*
X140667117Y-101991733D01*
X140717107Y-102009225D01*
X140743128Y-102025575D01*
X140769835Y-102037466D01*
X140819633Y-102073646D01*
X140868792Y-102104535D01*
X140886444Y-102122187D01*
X140905084Y-102135730D01*
X140951165Y-102186908D01*
X140995465Y-102231208D01*
X141005654Y-102247424D01*
X141016946Y-102259965D01*
X141055573Y-102326870D01*
X141090775Y-102382893D01*
X141095170Y-102395453D01*
X141100535Y-102404746D01*
X141128010Y-102489305D01*
X141149942Y-102551983D01*
X141150773Y-102559363D01*
X141152195Y-102563738D01*
X141165076Y-102686306D01*
X141170000Y-102730000D01*
X141165076Y-102773697D01*
X141152195Y-102896261D01*
X141150773Y-102900635D01*
X141149942Y-102908017D01*
X141128005Y-102970707D01*
X141100535Y-103055253D01*
X141095171Y-103064543D01*
X141090775Y-103077107D01*
X141055566Y-103133140D01*
X141016946Y-103200034D01*
X141005656Y-103212572D01*
X140995465Y-103228792D01*
X140951155Y-103273101D01*
X140905084Y-103324269D01*
X140886448Y-103337808D01*
X140868792Y-103355465D01*
X140819623Y-103386359D01*
X140769835Y-103422533D01*
X140743134Y-103434421D01*
X140717107Y-103450775D01*
X140667107Y-103468270D01*
X140617110Y-103490531D01*
X140582414Y-103497905D01*
X140548017Y-103509942D01*
X140500715Y-103515271D01*
X140453588Y-103525289D01*
X140411811Y-103525289D01*
X140370000Y-103530000D01*
X140328189Y-103525289D01*
X140286412Y-103525289D01*
X140239284Y-103515271D01*
X140191983Y-103509942D01*
X140157586Y-103497906D01*
X140122889Y-103490531D01*
X140072887Y-103468268D01*
X140022893Y-103450775D01*
X139996868Y-103434422D01*
X139970164Y-103422533D01*
X139920369Y-103386355D01*
X139871208Y-103355465D01*
X139853554Y-103337811D01*
X139834915Y-103324269D01*
X139788833Y-103273090D01*
X139744535Y-103228792D01*
X139734345Y-103212575D01*
X139723053Y-103200034D01*
X139684420Y-103133120D01*
X139649225Y-103077107D01*
X139644830Y-103064547D01*
X139639464Y-103055253D01*
X139611980Y-102970667D01*
X139590058Y-102908017D01*
X139589226Y-102900639D01*
X139587804Y-102896261D01*
X139574908Y-102773565D01*
X139570000Y-102730000D01*
X139574908Y-102686438D01*
X139587804Y-102563738D01*
X139589226Y-102559358D01*
X139590058Y-102551983D01*
X139611975Y-102489345D01*
X139639464Y-102404746D01*
X139644831Y-102395449D01*
X139649225Y-102382893D01*
X139684413Y-102326890D01*
X139723053Y-102259965D01*
X139734347Y-102247421D01*
X139744535Y-102231208D01*
X139788826Y-102186916D01*
X139834917Y-102135728D01*
X139853559Y-102122183D01*
X139871208Y-102104535D01*
X139920354Y-102073654D01*
X139970162Y-102037467D01*
X139996873Y-102025574D01*
X140022893Y-102009225D01*
X140072877Y-101991734D01*
X140122889Y-101969468D01*
X140157592Y-101962091D01*
X140191983Y-101950058D01*
X140239281Y-101944728D01*
X140286412Y-101934711D01*
X140328189Y-101934711D01*
X140370000Y-101930000D01*
X140411811Y-101934711D01*
G37*
G36*
X155651811Y-101934711D02*
G01*
X155693588Y-101934711D01*
X155740718Y-101944728D01*
X155788017Y-101950058D01*
X155822408Y-101962092D01*
X155857110Y-101969468D01*
X155907117Y-101991733D01*
X155957107Y-102009225D01*
X155983128Y-102025575D01*
X156009835Y-102037466D01*
X156059633Y-102073646D01*
X156108792Y-102104535D01*
X156126444Y-102122187D01*
X156145084Y-102135730D01*
X156191165Y-102186908D01*
X156235465Y-102231208D01*
X156245654Y-102247424D01*
X156256946Y-102259965D01*
X156295573Y-102326870D01*
X156330775Y-102382893D01*
X156335170Y-102395453D01*
X156340535Y-102404746D01*
X156368010Y-102489305D01*
X156389942Y-102551983D01*
X156390773Y-102559363D01*
X156392195Y-102563738D01*
X156405076Y-102686306D01*
X156410000Y-102730000D01*
X156405076Y-102773697D01*
X156392195Y-102896261D01*
X156390773Y-102900635D01*
X156389942Y-102908017D01*
X156368005Y-102970707D01*
X156340535Y-103055253D01*
X156335171Y-103064543D01*
X156330775Y-103077107D01*
X156295566Y-103133140D01*
X156256946Y-103200034D01*
X156245656Y-103212572D01*
X156235465Y-103228792D01*
X156191155Y-103273101D01*
X156145084Y-103324269D01*
X156126448Y-103337808D01*
X156108792Y-103355465D01*
X156059623Y-103386359D01*
X156009835Y-103422533D01*
X155983134Y-103434421D01*
X155957107Y-103450775D01*
X155907107Y-103468270D01*
X155857110Y-103490531D01*
X155822414Y-103497905D01*
X155788017Y-103509942D01*
X155740715Y-103515271D01*
X155693588Y-103525289D01*
X155651811Y-103525289D01*
X155610000Y-103530000D01*
X155568189Y-103525289D01*
X155526412Y-103525289D01*
X155479284Y-103515271D01*
X155431983Y-103509942D01*
X155397586Y-103497906D01*
X155362889Y-103490531D01*
X155312887Y-103468268D01*
X155262893Y-103450775D01*
X155236868Y-103434422D01*
X155210164Y-103422533D01*
X155160369Y-103386355D01*
X155111208Y-103355465D01*
X155093554Y-103337811D01*
X155074915Y-103324269D01*
X155028833Y-103273090D01*
X154984535Y-103228792D01*
X154974345Y-103212575D01*
X154963053Y-103200034D01*
X154924420Y-103133120D01*
X154889225Y-103077107D01*
X154884830Y-103064547D01*
X154879464Y-103055253D01*
X154851980Y-102970667D01*
X154830058Y-102908017D01*
X154829226Y-102900639D01*
X154827804Y-102896261D01*
X154814908Y-102773565D01*
X154810000Y-102730000D01*
X154814908Y-102686438D01*
X154827804Y-102563738D01*
X154829226Y-102559358D01*
X154830058Y-102551983D01*
X154851975Y-102489345D01*
X154879464Y-102404746D01*
X154884831Y-102395449D01*
X154889225Y-102382893D01*
X154924413Y-102326890D01*
X154963053Y-102259965D01*
X154974347Y-102247421D01*
X154984535Y-102231208D01*
X155028826Y-102186916D01*
X155074917Y-102135728D01*
X155093559Y-102122183D01*
X155111208Y-102104535D01*
X155160354Y-102073654D01*
X155210162Y-102037467D01*
X155236873Y-102025574D01*
X155262893Y-102009225D01*
X155312877Y-101991734D01*
X155362889Y-101969468D01*
X155397592Y-101962091D01*
X155431983Y-101950058D01*
X155479281Y-101944728D01*
X155526412Y-101934711D01*
X155568189Y-101934711D01*
X155610000Y-101930000D01*
X155651811Y-101934711D01*
G37*
G36*
X140411811Y-99394711D02*
G01*
X140453588Y-99394711D01*
X140500718Y-99404728D01*
X140548017Y-99410058D01*
X140582408Y-99422092D01*
X140617110Y-99429468D01*
X140667117Y-99451733D01*
X140717107Y-99469225D01*
X140743128Y-99485575D01*
X140769835Y-99497466D01*
X140819633Y-99533646D01*
X140868792Y-99564535D01*
X140886444Y-99582187D01*
X140905084Y-99595730D01*
X140951165Y-99646908D01*
X140995465Y-99691208D01*
X141005654Y-99707424D01*
X141016946Y-99719965D01*
X141055573Y-99786870D01*
X141090775Y-99842893D01*
X141095170Y-99855453D01*
X141100535Y-99864746D01*
X141128010Y-99949305D01*
X141149942Y-100011983D01*
X141150773Y-100019363D01*
X141152195Y-100023738D01*
X141165076Y-100146306D01*
X141170000Y-100190000D01*
X141165076Y-100233697D01*
X141152195Y-100356261D01*
X141150773Y-100360635D01*
X141149942Y-100368017D01*
X141128005Y-100430707D01*
X141100535Y-100515253D01*
X141095171Y-100524543D01*
X141090775Y-100537107D01*
X141055566Y-100593140D01*
X141016946Y-100660034D01*
X141005656Y-100672572D01*
X140995465Y-100688792D01*
X140951155Y-100733101D01*
X140905084Y-100784269D01*
X140886448Y-100797808D01*
X140868792Y-100815465D01*
X140819623Y-100846359D01*
X140769835Y-100882533D01*
X140743134Y-100894421D01*
X140717107Y-100910775D01*
X140667107Y-100928270D01*
X140617110Y-100950531D01*
X140582414Y-100957905D01*
X140548017Y-100969942D01*
X140500715Y-100975271D01*
X140453588Y-100985289D01*
X140411811Y-100985289D01*
X140370000Y-100990000D01*
X140328189Y-100985289D01*
X140286412Y-100985289D01*
X140239284Y-100975271D01*
X140191983Y-100969942D01*
X140157586Y-100957906D01*
X140122889Y-100950531D01*
X140072887Y-100928268D01*
X140022893Y-100910775D01*
X139996868Y-100894422D01*
X139970164Y-100882533D01*
X139920369Y-100846355D01*
X139871208Y-100815465D01*
X139853554Y-100797811D01*
X139834915Y-100784269D01*
X139788833Y-100733090D01*
X139744535Y-100688792D01*
X139734345Y-100672575D01*
X139723053Y-100660034D01*
X139684420Y-100593120D01*
X139649225Y-100537107D01*
X139644830Y-100524547D01*
X139639464Y-100515253D01*
X139611980Y-100430667D01*
X139590058Y-100368017D01*
X139589226Y-100360639D01*
X139587804Y-100356261D01*
X139574908Y-100233565D01*
X139570000Y-100190000D01*
X139574908Y-100146438D01*
X139587804Y-100023738D01*
X139589226Y-100019358D01*
X139590058Y-100011983D01*
X139611975Y-99949345D01*
X139639464Y-99864746D01*
X139644831Y-99855449D01*
X139649225Y-99842893D01*
X139684413Y-99786890D01*
X139723053Y-99719965D01*
X139734347Y-99707421D01*
X139744535Y-99691208D01*
X139788826Y-99646916D01*
X139834917Y-99595728D01*
X139853559Y-99582183D01*
X139871208Y-99564535D01*
X139920354Y-99533654D01*
X139970162Y-99497467D01*
X139996873Y-99485574D01*
X140022893Y-99469225D01*
X140072877Y-99451734D01*
X140122889Y-99429468D01*
X140157592Y-99422091D01*
X140191983Y-99410058D01*
X140239281Y-99404728D01*
X140286412Y-99394711D01*
X140328189Y-99394711D01*
X140370000Y-99390000D01*
X140411811Y-99394711D01*
G37*
G36*
X155651811Y-99394711D02*
G01*
X155693588Y-99394711D01*
X155740718Y-99404728D01*
X155788017Y-99410058D01*
X155822408Y-99422092D01*
X155857110Y-99429468D01*
X155907117Y-99451733D01*
X155957107Y-99469225D01*
X155983128Y-99485575D01*
X156009835Y-99497466D01*
X156059633Y-99533646D01*
X156108792Y-99564535D01*
X156126444Y-99582187D01*
X156145084Y-99595730D01*
X156191165Y-99646908D01*
X156235465Y-99691208D01*
X156245654Y-99707424D01*
X156256946Y-99719965D01*
X156295573Y-99786870D01*
X156330775Y-99842893D01*
X156335170Y-99855453D01*
X156340535Y-99864746D01*
X156368010Y-99949305D01*
X156389942Y-100011983D01*
X156390773Y-100019363D01*
X156392195Y-100023738D01*
X156405076Y-100146306D01*
X156410000Y-100190000D01*
X156405076Y-100233697D01*
X156392195Y-100356261D01*
X156390773Y-100360635D01*
X156389942Y-100368017D01*
X156368005Y-100430707D01*
X156340535Y-100515253D01*
X156335171Y-100524543D01*
X156330775Y-100537107D01*
X156295566Y-100593140D01*
X156256946Y-100660034D01*
X156245656Y-100672572D01*
X156235465Y-100688792D01*
X156191155Y-100733101D01*
X156145084Y-100784269D01*
X156126448Y-100797808D01*
X156108792Y-100815465D01*
X156059623Y-100846359D01*
X156009835Y-100882533D01*
X155983134Y-100894421D01*
X155957107Y-100910775D01*
X155907107Y-100928270D01*
X155857110Y-100950531D01*
X155822414Y-100957905D01*
X155788017Y-100969942D01*
X155740715Y-100975271D01*
X155693588Y-100985289D01*
X155651811Y-100985289D01*
X155610000Y-100990000D01*
X155568189Y-100985289D01*
X155526412Y-100985289D01*
X155479284Y-100975271D01*
X155431983Y-100969942D01*
X155397586Y-100957906D01*
X155362889Y-100950531D01*
X155312887Y-100928268D01*
X155262893Y-100910775D01*
X155236868Y-100894422D01*
X155210164Y-100882533D01*
X155160369Y-100846355D01*
X155111208Y-100815465D01*
X155093554Y-100797811D01*
X155074915Y-100784269D01*
X155028833Y-100733090D01*
X154984535Y-100688792D01*
X154974345Y-100672575D01*
X154963053Y-100660034D01*
X154924420Y-100593120D01*
X154889225Y-100537107D01*
X154884830Y-100524547D01*
X154879464Y-100515253D01*
X154851980Y-100430667D01*
X154830058Y-100368017D01*
X154829226Y-100360639D01*
X154827804Y-100356261D01*
X154814908Y-100233565D01*
X154810000Y-100190000D01*
X154814908Y-100146438D01*
X154827804Y-100023738D01*
X154829226Y-100019358D01*
X154830058Y-100011983D01*
X154851975Y-99949345D01*
X154879464Y-99864746D01*
X154884831Y-99855449D01*
X154889225Y-99842893D01*
X154924413Y-99786890D01*
X154963053Y-99719965D01*
X154974347Y-99707421D01*
X154984535Y-99691208D01*
X155028826Y-99646916D01*
X155074917Y-99595728D01*
X155093559Y-99582183D01*
X155111208Y-99564535D01*
X155160354Y-99533654D01*
X155210162Y-99497467D01*
X155236873Y-99485574D01*
X155262893Y-99469225D01*
X155312877Y-99451734D01*
X155362889Y-99429468D01*
X155397592Y-99422091D01*
X155431983Y-99410058D01*
X155479281Y-99404728D01*
X155526412Y-99394711D01*
X155568189Y-99394711D01*
X155610000Y-99390000D01*
X155651811Y-99394711D01*
G37*
G36*
X165941811Y-97924711D02*
G01*
X165983588Y-97924711D01*
X166030718Y-97934728D01*
X166078017Y-97940058D01*
X166112408Y-97952092D01*
X166147110Y-97959468D01*
X166197117Y-97981733D01*
X166247107Y-97999225D01*
X166273128Y-98015575D01*
X166299835Y-98027466D01*
X166349633Y-98063646D01*
X166398792Y-98094535D01*
X166416444Y-98112187D01*
X166435084Y-98125730D01*
X166481165Y-98176908D01*
X166525465Y-98221208D01*
X166535654Y-98237424D01*
X166546946Y-98249965D01*
X166585573Y-98316870D01*
X166620775Y-98372893D01*
X166625170Y-98385453D01*
X166630535Y-98394746D01*
X166658010Y-98479305D01*
X166679942Y-98541983D01*
X166680773Y-98549363D01*
X166682195Y-98553738D01*
X166695076Y-98676306D01*
X166700000Y-98720000D01*
X166695076Y-98763697D01*
X166682195Y-98886261D01*
X166680773Y-98890635D01*
X166679942Y-98898017D01*
X166658005Y-98960707D01*
X166630535Y-99045253D01*
X166625171Y-99054543D01*
X166620775Y-99067107D01*
X166585566Y-99123140D01*
X166546946Y-99190034D01*
X166535656Y-99202572D01*
X166525465Y-99218792D01*
X166481155Y-99263101D01*
X166435084Y-99314269D01*
X166416448Y-99327808D01*
X166398792Y-99345465D01*
X166349623Y-99376359D01*
X166299835Y-99412533D01*
X166273134Y-99424421D01*
X166247107Y-99440775D01*
X166197107Y-99458270D01*
X166147110Y-99480531D01*
X166112414Y-99487905D01*
X166078017Y-99499942D01*
X166030715Y-99505271D01*
X165983588Y-99515289D01*
X165941811Y-99515289D01*
X165900000Y-99520000D01*
X165858189Y-99515289D01*
X165816412Y-99515289D01*
X165769284Y-99505271D01*
X165721983Y-99499942D01*
X165687586Y-99487906D01*
X165652889Y-99480531D01*
X165602887Y-99458268D01*
X165552893Y-99440775D01*
X165526868Y-99424422D01*
X165500164Y-99412533D01*
X165450369Y-99376355D01*
X165401208Y-99345465D01*
X165383554Y-99327811D01*
X165364915Y-99314269D01*
X165318833Y-99263090D01*
X165274535Y-99218792D01*
X165264345Y-99202575D01*
X165253053Y-99190034D01*
X165214420Y-99123120D01*
X165179225Y-99067107D01*
X165174830Y-99054547D01*
X165169464Y-99045253D01*
X165141980Y-98960667D01*
X165120058Y-98898017D01*
X165119226Y-98890639D01*
X165117804Y-98886261D01*
X165104908Y-98763565D01*
X165100000Y-98720000D01*
X165104908Y-98676438D01*
X165117804Y-98553738D01*
X165119226Y-98549358D01*
X165120058Y-98541983D01*
X165141975Y-98479345D01*
X165169464Y-98394746D01*
X165174831Y-98385449D01*
X165179225Y-98372893D01*
X165214413Y-98316890D01*
X165253053Y-98249965D01*
X165264347Y-98237421D01*
X165274535Y-98221208D01*
X165318826Y-98176916D01*
X165364917Y-98125728D01*
X165383559Y-98112183D01*
X165401208Y-98094535D01*
X165450354Y-98063654D01*
X165500162Y-98027467D01*
X165526873Y-98015574D01*
X165552893Y-97999225D01*
X165602877Y-97981734D01*
X165652889Y-97959468D01*
X165687592Y-97952091D01*
X165721983Y-97940058D01*
X165769281Y-97934728D01*
X165816412Y-97924711D01*
X165858189Y-97924711D01*
X165900000Y-97920000D01*
X165941811Y-97924711D01*
G37*
G36*
X170895090Y-97359215D02*
G01*
X171082683Y-97416120D01*
X171255570Y-97508530D01*
X171407107Y-97632893D01*
X171531470Y-97784430D01*
X171623880Y-97957317D01*
X171680785Y-98144910D01*
X171700000Y-98340000D01*
X171680785Y-98535090D01*
X171623880Y-98722683D01*
X171531470Y-98895570D01*
X171407107Y-99047107D01*
X171255570Y-99171470D01*
X171082683Y-99263880D01*
X170895090Y-99320785D01*
X170700000Y-99340000D01*
X170504910Y-99320785D01*
X170317317Y-99263880D01*
X170144430Y-99171470D01*
X169992893Y-99047107D01*
X169868530Y-98895570D01*
X169776120Y-98722683D01*
X169719215Y-98535090D01*
X169700000Y-98340000D01*
X169719215Y-98144910D01*
X169776120Y-97957317D01*
X169868530Y-97784430D01*
X169992893Y-97632893D01*
X170144430Y-97508530D01*
X170317317Y-97416120D01*
X170504910Y-97359215D01*
X170700000Y-97340000D01*
X170895090Y-97359215D01*
G37*
G36*
X177395090Y-97359215D02*
G01*
X177582683Y-97416120D01*
X177755570Y-97508530D01*
X177907107Y-97632893D01*
X178031470Y-97784430D01*
X178123880Y-97957317D01*
X178180785Y-98144910D01*
X178200000Y-98340000D01*
X178180785Y-98535090D01*
X178123880Y-98722683D01*
X178031470Y-98895570D01*
X177907107Y-99047107D01*
X177755570Y-99171470D01*
X177582683Y-99263880D01*
X177395090Y-99320785D01*
X177200000Y-99340000D01*
X177004910Y-99320785D01*
X176817317Y-99263880D01*
X176644430Y-99171470D01*
X176492893Y-99047107D01*
X176368530Y-98895570D01*
X176276120Y-98722683D01*
X176219215Y-98535090D01*
X176200000Y-98340000D01*
X176219215Y-98144910D01*
X176276120Y-97957317D01*
X176368530Y-97784430D01*
X176492893Y-97632893D01*
X176644430Y-97508530D01*
X176817317Y-97416120D01*
X177004910Y-97359215D01*
X177200000Y-97340000D01*
X177395090Y-97359215D01*
G37*
G36*
X140411811Y-96854711D02*
G01*
X140453588Y-96854711D01*
X140500718Y-96864728D01*
X140548017Y-96870058D01*
X140582408Y-96882092D01*
X140617110Y-96889468D01*
X140667117Y-96911733D01*
X140717107Y-96929225D01*
X140743128Y-96945575D01*
X140769835Y-96957466D01*
X140819633Y-96993646D01*
X140868792Y-97024535D01*
X140886444Y-97042187D01*
X140905084Y-97055730D01*
X140951165Y-97106908D01*
X140995465Y-97151208D01*
X141005654Y-97167424D01*
X141016946Y-97179965D01*
X141055573Y-97246870D01*
X141090775Y-97302893D01*
X141095170Y-97315453D01*
X141100535Y-97324746D01*
X141128010Y-97409305D01*
X141149942Y-97471983D01*
X141150773Y-97479363D01*
X141152195Y-97483738D01*
X141165076Y-97606306D01*
X141170000Y-97650000D01*
X141165076Y-97693697D01*
X141152195Y-97816261D01*
X141150773Y-97820635D01*
X141149942Y-97828017D01*
X141128005Y-97890707D01*
X141100535Y-97975253D01*
X141095171Y-97984543D01*
X141090775Y-97997107D01*
X141055566Y-98053140D01*
X141016946Y-98120034D01*
X141005656Y-98132572D01*
X140995465Y-98148792D01*
X140951155Y-98193101D01*
X140905084Y-98244269D01*
X140886448Y-98257808D01*
X140868792Y-98275465D01*
X140819623Y-98306359D01*
X140769835Y-98342533D01*
X140743134Y-98354421D01*
X140717107Y-98370775D01*
X140667107Y-98388270D01*
X140617110Y-98410531D01*
X140582414Y-98417905D01*
X140548017Y-98429942D01*
X140500715Y-98435271D01*
X140453588Y-98445289D01*
X140411811Y-98445289D01*
X140370000Y-98450000D01*
X140328189Y-98445289D01*
X140286412Y-98445289D01*
X140239284Y-98435271D01*
X140191983Y-98429942D01*
X140157586Y-98417906D01*
X140122889Y-98410531D01*
X140072887Y-98388268D01*
X140022893Y-98370775D01*
X139996868Y-98354422D01*
X139970164Y-98342533D01*
X139920369Y-98306355D01*
X139871208Y-98275465D01*
X139853554Y-98257811D01*
X139834915Y-98244269D01*
X139788833Y-98193090D01*
X139744535Y-98148792D01*
X139734345Y-98132575D01*
X139723053Y-98120034D01*
X139684420Y-98053120D01*
X139649225Y-97997107D01*
X139644830Y-97984547D01*
X139639464Y-97975253D01*
X139611980Y-97890667D01*
X139590058Y-97828017D01*
X139589226Y-97820639D01*
X139587804Y-97816261D01*
X139574908Y-97693565D01*
X139570000Y-97650000D01*
X139574908Y-97606438D01*
X139587804Y-97483738D01*
X139589226Y-97479358D01*
X139590058Y-97471983D01*
X139611975Y-97409345D01*
X139639464Y-97324746D01*
X139644831Y-97315449D01*
X139649225Y-97302893D01*
X139684413Y-97246890D01*
X139723053Y-97179965D01*
X139734347Y-97167421D01*
X139744535Y-97151208D01*
X139788826Y-97106916D01*
X139834917Y-97055728D01*
X139853559Y-97042183D01*
X139871208Y-97024535D01*
X139920354Y-96993654D01*
X139970162Y-96957467D01*
X139996873Y-96945574D01*
X140022893Y-96929225D01*
X140072877Y-96911734D01*
X140122889Y-96889468D01*
X140157592Y-96882091D01*
X140191983Y-96870058D01*
X140239281Y-96864728D01*
X140286412Y-96854711D01*
X140328189Y-96854711D01*
X140370000Y-96850000D01*
X140411811Y-96854711D01*
G37*
G36*
X155651811Y-96854711D02*
G01*
X155693588Y-96854711D01*
X155740718Y-96864728D01*
X155788017Y-96870058D01*
X155822408Y-96882092D01*
X155857110Y-96889468D01*
X155907117Y-96911733D01*
X155957107Y-96929225D01*
X155983128Y-96945575D01*
X156009835Y-96957466D01*
X156059633Y-96993646D01*
X156108792Y-97024535D01*
X156126444Y-97042187D01*
X156145084Y-97055730D01*
X156191165Y-97106908D01*
X156235465Y-97151208D01*
X156245654Y-97167424D01*
X156256946Y-97179965D01*
X156295573Y-97246870D01*
X156330775Y-97302893D01*
X156335170Y-97315453D01*
X156340535Y-97324746D01*
X156368010Y-97409305D01*
X156389942Y-97471983D01*
X156390773Y-97479363D01*
X156392195Y-97483738D01*
X156405076Y-97606306D01*
X156410000Y-97650000D01*
X156405076Y-97693697D01*
X156392195Y-97816261D01*
X156390773Y-97820635D01*
X156389942Y-97828017D01*
X156368005Y-97890707D01*
X156340535Y-97975253D01*
X156335171Y-97984543D01*
X156330775Y-97997107D01*
X156295566Y-98053140D01*
X156256946Y-98120034D01*
X156245656Y-98132572D01*
X156235465Y-98148792D01*
X156191155Y-98193101D01*
X156145084Y-98244269D01*
X156126448Y-98257808D01*
X156108792Y-98275465D01*
X156059623Y-98306359D01*
X156009835Y-98342533D01*
X155983134Y-98354421D01*
X155957107Y-98370775D01*
X155907107Y-98388270D01*
X155857110Y-98410531D01*
X155822414Y-98417905D01*
X155788017Y-98429942D01*
X155740715Y-98435271D01*
X155693588Y-98445289D01*
X155651811Y-98445289D01*
X155610000Y-98450000D01*
X155568189Y-98445289D01*
X155526412Y-98445289D01*
X155479284Y-98435271D01*
X155431983Y-98429942D01*
X155397586Y-98417906D01*
X155362889Y-98410531D01*
X155312887Y-98388268D01*
X155262893Y-98370775D01*
X155236868Y-98354422D01*
X155210164Y-98342533D01*
X155160369Y-98306355D01*
X155111208Y-98275465D01*
X155093554Y-98257811D01*
X155074915Y-98244269D01*
X155028833Y-98193090D01*
X154984535Y-98148792D01*
X154974345Y-98132575D01*
X154963053Y-98120034D01*
X154924420Y-98053120D01*
X154889225Y-97997107D01*
X154884830Y-97984547D01*
X154879464Y-97975253D01*
X154851980Y-97890667D01*
X154830058Y-97828017D01*
X154829226Y-97820639D01*
X154827804Y-97816261D01*
X154814908Y-97693565D01*
X154810000Y-97650000D01*
X154814908Y-97606438D01*
X154827804Y-97483738D01*
X154829226Y-97479358D01*
X154830058Y-97471983D01*
X154851975Y-97409345D01*
X154879464Y-97324746D01*
X154884831Y-97315449D01*
X154889225Y-97302893D01*
X154924413Y-97246890D01*
X154963053Y-97179965D01*
X154974347Y-97167421D01*
X154984535Y-97151208D01*
X155028826Y-97106916D01*
X155074917Y-97055728D01*
X155093559Y-97042183D01*
X155111208Y-97024535D01*
X155160354Y-96993654D01*
X155210162Y-96957467D01*
X155236873Y-96945574D01*
X155262893Y-96929225D01*
X155312877Y-96911734D01*
X155362889Y-96889468D01*
X155397592Y-96882091D01*
X155431983Y-96870058D01*
X155479281Y-96864728D01*
X155526412Y-96854711D01*
X155568189Y-96854711D01*
X155610000Y-96850000D01*
X155651811Y-96854711D01*
G37*
G36*
X160811811Y-96774711D02*
G01*
X160853588Y-96774711D01*
X160900718Y-96784728D01*
X160948017Y-96790058D01*
X160982408Y-96802092D01*
X161017110Y-96809468D01*
X161067117Y-96831733D01*
X161117107Y-96849225D01*
X161143128Y-96865575D01*
X161169835Y-96877466D01*
X161219633Y-96913646D01*
X161268792Y-96944535D01*
X161286444Y-96962187D01*
X161305084Y-96975730D01*
X161351165Y-97026908D01*
X161395465Y-97071208D01*
X161405654Y-97087424D01*
X161416946Y-97099965D01*
X161455573Y-97166870D01*
X161490775Y-97222893D01*
X161495170Y-97235453D01*
X161500535Y-97244746D01*
X161528010Y-97329305D01*
X161549942Y-97391983D01*
X161550773Y-97399363D01*
X161552195Y-97403738D01*
X161565076Y-97526306D01*
X161570000Y-97570000D01*
X161565076Y-97613697D01*
X161552195Y-97736261D01*
X161550773Y-97740635D01*
X161549942Y-97748017D01*
X161528005Y-97810707D01*
X161500535Y-97895253D01*
X161495171Y-97904543D01*
X161490775Y-97917107D01*
X161455566Y-97973140D01*
X161416946Y-98040034D01*
X161405656Y-98052572D01*
X161395465Y-98068792D01*
X161351155Y-98113101D01*
X161305084Y-98164269D01*
X161286448Y-98177808D01*
X161268792Y-98195465D01*
X161219623Y-98226359D01*
X161169835Y-98262533D01*
X161143134Y-98274421D01*
X161117107Y-98290775D01*
X161067107Y-98308270D01*
X161017110Y-98330531D01*
X160982414Y-98337905D01*
X160948017Y-98349942D01*
X160900715Y-98355271D01*
X160853588Y-98365289D01*
X160811811Y-98365289D01*
X160770000Y-98370000D01*
X160728189Y-98365289D01*
X160686412Y-98365289D01*
X160639284Y-98355271D01*
X160591983Y-98349942D01*
X160557586Y-98337906D01*
X160522889Y-98330531D01*
X160472887Y-98308268D01*
X160422893Y-98290775D01*
X160396868Y-98274422D01*
X160370164Y-98262533D01*
X160320369Y-98226355D01*
X160271208Y-98195465D01*
X160253554Y-98177811D01*
X160234915Y-98164269D01*
X160188833Y-98113090D01*
X160144535Y-98068792D01*
X160134345Y-98052575D01*
X160123053Y-98040034D01*
X160084420Y-97973120D01*
X160049225Y-97917107D01*
X160044830Y-97904547D01*
X160039464Y-97895253D01*
X160011980Y-97810667D01*
X159990058Y-97748017D01*
X159989226Y-97740639D01*
X159987804Y-97736261D01*
X159974908Y-97613565D01*
X159970000Y-97570000D01*
X159974908Y-97526438D01*
X159987804Y-97403738D01*
X159989226Y-97399358D01*
X159990058Y-97391983D01*
X160011975Y-97329345D01*
X160039464Y-97244746D01*
X160044831Y-97235449D01*
X160049225Y-97222893D01*
X160084413Y-97166890D01*
X160123053Y-97099965D01*
X160134347Y-97087421D01*
X160144535Y-97071208D01*
X160188826Y-97026916D01*
X160234917Y-96975728D01*
X160253559Y-96962183D01*
X160271208Y-96944535D01*
X160320354Y-96913654D01*
X160370162Y-96877467D01*
X160396873Y-96865574D01*
X160422893Y-96849225D01*
X160472877Y-96831734D01*
X160522889Y-96809468D01*
X160557592Y-96802091D01*
X160591983Y-96790058D01*
X160639281Y-96784728D01*
X160686412Y-96774711D01*
X160728189Y-96774711D01*
X160770000Y-96770000D01*
X160811811Y-96774711D01*
G37*
G36*
X140411811Y-94314711D02*
G01*
X140453588Y-94314711D01*
X140500718Y-94324728D01*
X140548017Y-94330058D01*
X140582408Y-94342092D01*
X140617110Y-94349468D01*
X140667117Y-94371733D01*
X140717107Y-94389225D01*
X140743128Y-94405575D01*
X140769835Y-94417466D01*
X140819633Y-94453646D01*
X140868792Y-94484535D01*
X140886444Y-94502187D01*
X140905084Y-94515730D01*
X140951165Y-94566908D01*
X140995465Y-94611208D01*
X141005654Y-94627424D01*
X141016946Y-94639965D01*
X141055573Y-94706870D01*
X141090775Y-94762893D01*
X141095170Y-94775453D01*
X141100535Y-94784746D01*
X141128010Y-94869305D01*
X141149942Y-94931983D01*
X141150773Y-94939363D01*
X141152195Y-94943738D01*
X141165076Y-95066306D01*
X141170000Y-95110000D01*
X141165076Y-95153697D01*
X141152195Y-95276261D01*
X141150773Y-95280635D01*
X141149942Y-95288017D01*
X141128005Y-95350707D01*
X141100535Y-95435253D01*
X141095171Y-95444543D01*
X141090775Y-95457107D01*
X141055566Y-95513140D01*
X141016946Y-95580034D01*
X141005656Y-95592572D01*
X140995465Y-95608792D01*
X140951155Y-95653101D01*
X140905084Y-95704269D01*
X140886448Y-95717808D01*
X140868792Y-95735465D01*
X140819623Y-95766359D01*
X140769835Y-95802533D01*
X140743134Y-95814421D01*
X140717107Y-95830775D01*
X140667107Y-95848270D01*
X140617110Y-95870531D01*
X140582414Y-95877905D01*
X140548017Y-95889942D01*
X140500715Y-95895271D01*
X140453588Y-95905289D01*
X140411811Y-95905289D01*
X140370000Y-95910000D01*
X140328189Y-95905289D01*
X140286412Y-95905289D01*
X140239284Y-95895271D01*
X140191983Y-95889942D01*
X140157586Y-95877906D01*
X140122889Y-95870531D01*
X140072887Y-95848268D01*
X140022893Y-95830775D01*
X139996868Y-95814422D01*
X139970164Y-95802533D01*
X139920369Y-95766355D01*
X139871208Y-95735465D01*
X139853554Y-95717811D01*
X139834915Y-95704269D01*
X139788833Y-95653090D01*
X139744535Y-95608792D01*
X139734345Y-95592575D01*
X139723053Y-95580034D01*
X139684420Y-95513120D01*
X139649225Y-95457107D01*
X139644830Y-95444547D01*
X139639464Y-95435253D01*
X139611980Y-95350667D01*
X139590058Y-95288017D01*
X139589226Y-95280639D01*
X139587804Y-95276261D01*
X139574908Y-95153565D01*
X139570000Y-95110000D01*
X139574908Y-95066438D01*
X139587804Y-94943738D01*
X139589226Y-94939358D01*
X139590058Y-94931983D01*
X139611975Y-94869345D01*
X139639464Y-94784746D01*
X139644831Y-94775449D01*
X139649225Y-94762893D01*
X139684413Y-94706890D01*
X139723053Y-94639965D01*
X139734347Y-94627421D01*
X139744535Y-94611208D01*
X139788826Y-94566916D01*
X139834917Y-94515728D01*
X139853559Y-94502183D01*
X139871208Y-94484535D01*
X139920354Y-94453654D01*
X139970162Y-94417467D01*
X139996873Y-94405574D01*
X140022893Y-94389225D01*
X140072877Y-94371734D01*
X140122889Y-94349468D01*
X140157592Y-94342091D01*
X140191983Y-94330058D01*
X140239281Y-94324728D01*
X140286412Y-94314711D01*
X140328189Y-94314711D01*
X140370000Y-94310000D01*
X140411811Y-94314711D01*
G37*
G36*
X155651811Y-94314711D02*
G01*
X155693588Y-94314711D01*
X155740718Y-94324728D01*
X155788017Y-94330058D01*
X155822408Y-94342092D01*
X155857110Y-94349468D01*
X155907117Y-94371733D01*
X155957107Y-94389225D01*
X155983128Y-94405575D01*
X156009835Y-94417466D01*
X156059633Y-94453646D01*
X156108792Y-94484535D01*
X156126444Y-94502187D01*
X156145084Y-94515730D01*
X156191165Y-94566908D01*
X156235465Y-94611208D01*
X156245654Y-94627424D01*
X156256946Y-94639965D01*
X156295573Y-94706870D01*
X156330775Y-94762893D01*
X156335170Y-94775453D01*
X156340535Y-94784746D01*
X156368010Y-94869305D01*
X156389942Y-94931983D01*
X156390773Y-94939363D01*
X156392195Y-94943738D01*
X156405076Y-95066306D01*
X156410000Y-95110000D01*
X156405076Y-95153697D01*
X156392195Y-95276261D01*
X156390773Y-95280635D01*
X156389942Y-95288017D01*
X156368005Y-95350707D01*
X156340535Y-95435253D01*
X156335171Y-95444543D01*
X156330775Y-95457107D01*
X156295566Y-95513140D01*
X156256946Y-95580034D01*
X156245656Y-95592572D01*
X156235465Y-95608792D01*
X156191155Y-95653101D01*
X156145084Y-95704269D01*
X156126448Y-95717808D01*
X156108792Y-95735465D01*
X156059623Y-95766359D01*
X156009835Y-95802533D01*
X155983134Y-95814421D01*
X155957107Y-95830775D01*
X155907107Y-95848270D01*
X155857110Y-95870531D01*
X155822414Y-95877905D01*
X155788017Y-95889942D01*
X155740715Y-95895271D01*
X155693588Y-95905289D01*
X155651811Y-95905289D01*
X155610000Y-95910000D01*
X155568189Y-95905289D01*
X155526412Y-95905289D01*
X155479284Y-95895271D01*
X155431983Y-95889942D01*
X155397586Y-95877906D01*
X155362889Y-95870531D01*
X155312887Y-95848268D01*
X155262893Y-95830775D01*
X155236868Y-95814422D01*
X155210164Y-95802533D01*
X155160369Y-95766355D01*
X155111208Y-95735465D01*
X155093554Y-95717811D01*
X155074915Y-95704269D01*
X155028833Y-95653090D01*
X154984535Y-95608792D01*
X154974345Y-95592575D01*
X154963053Y-95580034D01*
X154924420Y-95513120D01*
X154889225Y-95457107D01*
X154884830Y-95444547D01*
X154879464Y-95435253D01*
X154851980Y-95350667D01*
X154830058Y-95288017D01*
X154829226Y-95280639D01*
X154827804Y-95276261D01*
X154814908Y-95153565D01*
X154810000Y-95110000D01*
X154814908Y-95066438D01*
X154827804Y-94943738D01*
X154829226Y-94939358D01*
X154830058Y-94931983D01*
X154851975Y-94869345D01*
X154879464Y-94784746D01*
X154884831Y-94775449D01*
X154889225Y-94762893D01*
X154924413Y-94706890D01*
X154963053Y-94639965D01*
X154974347Y-94627421D01*
X154984535Y-94611208D01*
X155028826Y-94566916D01*
X155074917Y-94515728D01*
X155093559Y-94502183D01*
X155111208Y-94484535D01*
X155160354Y-94453654D01*
X155210162Y-94417467D01*
X155236873Y-94405574D01*
X155262893Y-94389225D01*
X155312877Y-94371734D01*
X155362889Y-94349468D01*
X155397592Y-94342091D01*
X155431983Y-94330058D01*
X155479281Y-94324728D01*
X155526412Y-94314711D01*
X155568189Y-94314711D01*
X155610000Y-94310000D01*
X155651811Y-94314711D01*
G37*
G36*
X170895090Y-92859215D02*
G01*
X171082683Y-92916120D01*
X171255570Y-93008530D01*
X171407107Y-93132893D01*
X171531470Y-93284430D01*
X171623880Y-93457317D01*
X171680785Y-93644910D01*
X171700000Y-93840000D01*
X171680785Y-94035090D01*
X171623880Y-94222683D01*
X171531470Y-94395570D01*
X171407107Y-94547107D01*
X171255570Y-94671470D01*
X171082683Y-94763880D01*
X170895090Y-94820785D01*
X170700000Y-94840000D01*
X170504910Y-94820785D01*
X170317317Y-94763880D01*
X170144430Y-94671470D01*
X169992893Y-94547107D01*
X169868530Y-94395570D01*
X169776120Y-94222683D01*
X169719215Y-94035090D01*
X169700000Y-93840000D01*
X169719215Y-93644910D01*
X169776120Y-93457317D01*
X169868530Y-93284430D01*
X169992893Y-93132893D01*
X170144430Y-93008530D01*
X170317317Y-92916120D01*
X170504910Y-92859215D01*
X170700000Y-92840000D01*
X170895090Y-92859215D01*
G37*
G36*
X177395090Y-92859215D02*
G01*
X177582683Y-92916120D01*
X177755570Y-93008530D01*
X177907107Y-93132893D01*
X178031470Y-93284430D01*
X178123880Y-93457317D01*
X178180785Y-93644910D01*
X178200000Y-93840000D01*
X178180785Y-94035090D01*
X178123880Y-94222683D01*
X178031470Y-94395570D01*
X177907107Y-94547107D01*
X177755570Y-94671470D01*
X177582683Y-94763880D01*
X177395090Y-94820785D01*
X177200000Y-94840000D01*
X177004910Y-94820785D01*
X176817317Y-94763880D01*
X176644430Y-94671470D01*
X176492893Y-94547107D01*
X176368530Y-94395570D01*
X176276120Y-94222683D01*
X176219215Y-94035090D01*
X176200000Y-93840000D01*
X176219215Y-93644910D01*
X176276120Y-93457317D01*
X176368530Y-93284430D01*
X176492893Y-93132893D01*
X176644430Y-93008530D01*
X176817317Y-92916120D01*
X177004910Y-92859215D01*
X177200000Y-92840000D01*
X177395090Y-92859215D01*
G37*
G36*
X140411811Y-91774711D02*
G01*
X140453588Y-91774711D01*
X140500718Y-91784728D01*
X140548017Y-91790058D01*
X140582408Y-91802092D01*
X140617110Y-91809468D01*
X140667117Y-91831733D01*
X140717107Y-91849225D01*
X140743128Y-91865575D01*
X140769835Y-91877466D01*
X140819633Y-91913646D01*
X140868792Y-91944535D01*
X140886444Y-91962187D01*
X140905084Y-91975730D01*
X140951165Y-92026908D01*
X140995465Y-92071208D01*
X141005654Y-92087424D01*
X141016946Y-92099965D01*
X141055573Y-92166870D01*
X141090775Y-92222893D01*
X141095170Y-92235453D01*
X141100535Y-92244746D01*
X141128010Y-92329305D01*
X141149942Y-92391983D01*
X141150773Y-92399363D01*
X141152195Y-92403738D01*
X141165076Y-92526306D01*
X141170000Y-92570000D01*
X141165076Y-92613697D01*
X141152195Y-92736261D01*
X141150773Y-92740635D01*
X141149942Y-92748017D01*
X141128005Y-92810707D01*
X141100535Y-92895253D01*
X141095171Y-92904543D01*
X141090775Y-92917107D01*
X141055566Y-92973140D01*
X141016946Y-93040034D01*
X141005656Y-93052572D01*
X140995465Y-93068792D01*
X140951155Y-93113101D01*
X140905084Y-93164269D01*
X140886448Y-93177808D01*
X140868792Y-93195465D01*
X140819623Y-93226359D01*
X140769835Y-93262533D01*
X140743134Y-93274421D01*
X140717107Y-93290775D01*
X140667107Y-93308270D01*
X140617110Y-93330531D01*
X140582414Y-93337905D01*
X140548017Y-93349942D01*
X140500715Y-93355271D01*
X140453588Y-93365289D01*
X140411811Y-93365289D01*
X140370000Y-93370000D01*
X140328189Y-93365289D01*
X140286412Y-93365289D01*
X140239284Y-93355271D01*
X140191983Y-93349942D01*
X140157586Y-93337906D01*
X140122889Y-93330531D01*
X140072887Y-93308268D01*
X140022893Y-93290775D01*
X139996868Y-93274422D01*
X139970164Y-93262533D01*
X139920369Y-93226355D01*
X139871208Y-93195465D01*
X139853554Y-93177811D01*
X139834915Y-93164269D01*
X139788833Y-93113090D01*
X139744535Y-93068792D01*
X139734345Y-93052575D01*
X139723053Y-93040034D01*
X139684420Y-92973120D01*
X139649225Y-92917107D01*
X139644830Y-92904547D01*
X139639464Y-92895253D01*
X139611980Y-92810667D01*
X139590058Y-92748017D01*
X139589226Y-92740639D01*
X139587804Y-92736261D01*
X139574908Y-92613565D01*
X139570000Y-92570000D01*
X139574908Y-92526438D01*
X139587804Y-92403738D01*
X139589226Y-92399358D01*
X139590058Y-92391983D01*
X139611975Y-92329345D01*
X139639464Y-92244746D01*
X139644831Y-92235449D01*
X139649225Y-92222893D01*
X139684413Y-92166890D01*
X139723053Y-92099965D01*
X139734347Y-92087421D01*
X139744535Y-92071208D01*
X139788826Y-92026916D01*
X139834917Y-91975728D01*
X139853559Y-91962183D01*
X139871208Y-91944535D01*
X139920354Y-91913654D01*
X139970162Y-91877467D01*
X139996873Y-91865574D01*
X140022893Y-91849225D01*
X140072877Y-91831734D01*
X140122889Y-91809468D01*
X140157592Y-91802091D01*
X140191983Y-91790058D01*
X140239281Y-91784728D01*
X140286412Y-91774711D01*
X140328189Y-91774711D01*
X140370000Y-91770000D01*
X140411811Y-91774711D01*
G37*
G36*
X155651811Y-91774711D02*
G01*
X155693588Y-91774711D01*
X155740718Y-91784728D01*
X155788017Y-91790058D01*
X155822408Y-91802092D01*
X155857110Y-91809468D01*
X155907117Y-91831733D01*
X155957107Y-91849225D01*
X155983128Y-91865575D01*
X156009835Y-91877466D01*
X156059633Y-91913646D01*
X156108792Y-91944535D01*
X156126444Y-91962187D01*
X156145084Y-91975730D01*
X156191165Y-92026908D01*
X156235465Y-92071208D01*
X156245654Y-92087424D01*
X156256946Y-92099965D01*
X156295573Y-92166870D01*
X156330775Y-92222893D01*
X156335170Y-92235453D01*
X156340535Y-92244746D01*
X156368010Y-92329305D01*
X156389942Y-92391983D01*
X156390773Y-92399363D01*
X156392195Y-92403738D01*
X156405076Y-92526306D01*
X156410000Y-92570000D01*
X156405076Y-92613697D01*
X156392195Y-92736261D01*
X156390773Y-92740635D01*
X156389942Y-92748017D01*
X156368005Y-92810707D01*
X156340535Y-92895253D01*
X156335171Y-92904543D01*
X156330775Y-92917107D01*
X156295566Y-92973140D01*
X156256946Y-93040034D01*
X156245656Y-93052572D01*
X156235465Y-93068792D01*
X156191155Y-93113101D01*
X156145084Y-93164269D01*
X156126448Y-93177808D01*
X156108792Y-93195465D01*
X156059623Y-93226359D01*
X156009835Y-93262533D01*
X155983134Y-93274421D01*
X155957107Y-93290775D01*
X155907107Y-93308270D01*
X155857110Y-93330531D01*
X155822414Y-93337905D01*
X155788017Y-93349942D01*
X155740715Y-93355271D01*
X155693588Y-93365289D01*
X155651811Y-93365289D01*
X155610000Y-93370000D01*
X155568189Y-93365289D01*
X155526412Y-93365289D01*
X155479284Y-93355271D01*
X155431983Y-93349942D01*
X155397586Y-93337906D01*
X155362889Y-93330531D01*
X155312887Y-93308268D01*
X155262893Y-93290775D01*
X155236868Y-93274422D01*
X155210164Y-93262533D01*
X155160369Y-93226355D01*
X155111208Y-93195465D01*
X155093554Y-93177811D01*
X155074915Y-93164269D01*
X155028833Y-93113090D01*
X154984535Y-93068792D01*
X154974345Y-93052575D01*
X154963053Y-93040034D01*
X154924420Y-92973120D01*
X154889225Y-92917107D01*
X154884830Y-92904547D01*
X154879464Y-92895253D01*
X154851980Y-92810667D01*
X154830058Y-92748017D01*
X154829226Y-92740639D01*
X154827804Y-92736261D01*
X154814908Y-92613565D01*
X154810000Y-92570000D01*
X154814908Y-92526438D01*
X154827804Y-92403738D01*
X154829226Y-92399358D01*
X154830058Y-92391983D01*
X154851975Y-92329345D01*
X154879464Y-92244746D01*
X154884831Y-92235449D01*
X154889225Y-92222893D01*
X154924413Y-92166890D01*
X154963053Y-92099965D01*
X154974347Y-92087421D01*
X154984535Y-92071208D01*
X155028826Y-92026916D01*
X155074917Y-91975728D01*
X155093559Y-91962183D01*
X155111208Y-91944535D01*
X155160354Y-91913654D01*
X155210162Y-91877467D01*
X155236873Y-91865574D01*
X155262893Y-91849225D01*
X155312877Y-91831734D01*
X155362889Y-91809468D01*
X155397592Y-91802091D01*
X155431983Y-91790058D01*
X155479281Y-91784728D01*
X155526412Y-91774711D01*
X155568189Y-91774711D01*
X155610000Y-91770000D01*
X155651811Y-91774711D01*
G37*
G36*
X160811811Y-91774711D02*
G01*
X160853588Y-91774711D01*
X160900718Y-91784728D01*
X160948017Y-91790058D01*
X160982408Y-91802092D01*
X161017110Y-91809468D01*
X161067117Y-91831733D01*
X161117107Y-91849225D01*
X161143128Y-91865575D01*
X161169835Y-91877466D01*
X161219633Y-91913646D01*
X161268792Y-91944535D01*
X161286444Y-91962187D01*
X161305084Y-91975730D01*
X161351165Y-92026908D01*
X161395465Y-92071208D01*
X161405654Y-92087424D01*
X161416946Y-92099965D01*
X161455573Y-92166870D01*
X161490775Y-92222893D01*
X161495170Y-92235453D01*
X161500535Y-92244746D01*
X161528010Y-92329305D01*
X161549942Y-92391983D01*
X161550773Y-92399363D01*
X161552195Y-92403738D01*
X161565076Y-92526306D01*
X161570000Y-92570000D01*
X161565076Y-92613697D01*
X161552195Y-92736261D01*
X161550773Y-92740635D01*
X161549942Y-92748017D01*
X161528005Y-92810707D01*
X161500535Y-92895253D01*
X161495171Y-92904543D01*
X161490775Y-92917107D01*
X161455566Y-92973140D01*
X161416946Y-93040034D01*
X161405656Y-93052572D01*
X161395465Y-93068792D01*
X161351155Y-93113101D01*
X161305084Y-93164269D01*
X161286448Y-93177808D01*
X161268792Y-93195465D01*
X161219623Y-93226359D01*
X161169835Y-93262533D01*
X161143134Y-93274421D01*
X161117107Y-93290775D01*
X161067107Y-93308270D01*
X161017110Y-93330531D01*
X160982414Y-93337905D01*
X160948017Y-93349942D01*
X160900715Y-93355271D01*
X160853588Y-93365289D01*
X160811811Y-93365289D01*
X160770000Y-93370000D01*
X160728189Y-93365289D01*
X160686412Y-93365289D01*
X160639284Y-93355271D01*
X160591983Y-93349942D01*
X160557586Y-93337906D01*
X160522889Y-93330531D01*
X160472887Y-93308268D01*
X160422893Y-93290775D01*
X160396868Y-93274422D01*
X160370164Y-93262533D01*
X160320369Y-93226355D01*
X160271208Y-93195465D01*
X160253554Y-93177811D01*
X160234915Y-93164269D01*
X160188833Y-93113090D01*
X160144535Y-93068792D01*
X160134345Y-93052575D01*
X160123053Y-93040034D01*
X160084420Y-92973120D01*
X160049225Y-92917107D01*
X160044830Y-92904547D01*
X160039464Y-92895253D01*
X160011980Y-92810667D01*
X159990058Y-92748017D01*
X159989226Y-92740639D01*
X159987804Y-92736261D01*
X159974908Y-92613565D01*
X159970000Y-92570000D01*
X159974908Y-92526438D01*
X159987804Y-92403738D01*
X159989226Y-92399358D01*
X159990058Y-92391983D01*
X160011975Y-92329345D01*
X160039464Y-92244746D01*
X160044831Y-92235449D01*
X160049225Y-92222893D01*
X160084413Y-92166890D01*
X160123053Y-92099965D01*
X160134347Y-92087421D01*
X160144535Y-92071208D01*
X160188826Y-92026916D01*
X160234917Y-91975728D01*
X160253559Y-91962183D01*
X160271208Y-91944535D01*
X160320354Y-91913654D01*
X160370162Y-91877467D01*
X160396873Y-91865574D01*
X160422893Y-91849225D01*
X160472877Y-91831734D01*
X160522889Y-91809468D01*
X160557592Y-91802091D01*
X160591983Y-91790058D01*
X160639281Y-91784728D01*
X160686412Y-91774711D01*
X160728189Y-91774711D01*
X160770000Y-91770000D01*
X160811811Y-91774711D01*
G37*
G36*
X165941811Y-90304711D02*
G01*
X165983588Y-90304711D01*
X166030718Y-90314728D01*
X166078017Y-90320058D01*
X166112408Y-90332092D01*
X166147110Y-90339468D01*
X166197117Y-90361733D01*
X166247107Y-90379225D01*
X166273128Y-90395575D01*
X166299835Y-90407466D01*
X166349633Y-90443646D01*
X166398792Y-90474535D01*
X166416444Y-90492187D01*
X166435084Y-90505730D01*
X166481165Y-90556908D01*
X166525465Y-90601208D01*
X166535654Y-90617424D01*
X166546946Y-90629965D01*
X166585573Y-90696870D01*
X166620775Y-90752893D01*
X166625170Y-90765453D01*
X166630535Y-90774746D01*
X166658010Y-90859305D01*
X166679942Y-90921983D01*
X166680773Y-90929363D01*
X166682195Y-90933738D01*
X166695076Y-91056306D01*
X166700000Y-91100000D01*
X166695076Y-91143697D01*
X166682195Y-91266261D01*
X166680773Y-91270635D01*
X166679942Y-91278017D01*
X166658005Y-91340707D01*
X166630535Y-91425253D01*
X166625171Y-91434543D01*
X166620775Y-91447107D01*
X166585566Y-91503140D01*
X166546946Y-91570034D01*
X166535656Y-91582572D01*
X166525465Y-91598792D01*
X166481155Y-91643101D01*
X166435084Y-91694269D01*
X166416448Y-91707808D01*
X166398792Y-91725465D01*
X166349623Y-91756359D01*
X166299835Y-91792533D01*
X166273134Y-91804421D01*
X166247107Y-91820775D01*
X166197107Y-91838270D01*
X166147110Y-91860531D01*
X166112414Y-91867905D01*
X166078017Y-91879942D01*
X166030715Y-91885271D01*
X165983588Y-91895289D01*
X165941811Y-91895289D01*
X165900000Y-91900000D01*
X165858189Y-91895289D01*
X165816412Y-91895289D01*
X165769284Y-91885271D01*
X165721983Y-91879942D01*
X165687586Y-91867906D01*
X165652889Y-91860531D01*
X165602887Y-91838268D01*
X165552893Y-91820775D01*
X165526868Y-91804422D01*
X165500164Y-91792533D01*
X165450369Y-91756355D01*
X165401208Y-91725465D01*
X165383554Y-91707811D01*
X165364915Y-91694269D01*
X165318833Y-91643090D01*
X165274535Y-91598792D01*
X165264345Y-91582575D01*
X165253053Y-91570034D01*
X165214420Y-91503120D01*
X165179225Y-91447107D01*
X165174830Y-91434547D01*
X165169464Y-91425253D01*
X165141980Y-91340667D01*
X165120058Y-91278017D01*
X165119226Y-91270639D01*
X165117804Y-91266261D01*
X165104908Y-91143565D01*
X165100000Y-91100000D01*
X165104908Y-91056438D01*
X165117804Y-90933738D01*
X165119226Y-90929358D01*
X165120058Y-90921983D01*
X165141975Y-90859345D01*
X165169464Y-90774746D01*
X165174831Y-90765449D01*
X165179225Y-90752893D01*
X165214413Y-90696890D01*
X165253053Y-90629965D01*
X165264347Y-90617421D01*
X165274535Y-90601208D01*
X165318826Y-90556916D01*
X165364917Y-90505728D01*
X165383559Y-90492183D01*
X165401208Y-90474535D01*
X165450354Y-90443654D01*
X165500162Y-90407467D01*
X165526873Y-90395574D01*
X165552893Y-90379225D01*
X165602877Y-90361734D01*
X165652889Y-90339468D01*
X165687592Y-90332091D01*
X165721983Y-90320058D01*
X165769281Y-90314728D01*
X165816412Y-90304711D01*
X165858189Y-90304711D01*
X165900000Y-90300000D01*
X165941811Y-90304711D01*
G37*
G36*
X140411811Y-89234711D02*
G01*
X140453588Y-89234711D01*
X140500718Y-89244728D01*
X140548017Y-89250058D01*
X140582408Y-89262092D01*
X140617110Y-89269468D01*
X140667117Y-89291733D01*
X140717107Y-89309225D01*
X140743128Y-89325575D01*
X140769835Y-89337466D01*
X140819633Y-89373646D01*
X140868792Y-89404535D01*
X140886444Y-89422187D01*
X140905084Y-89435730D01*
X140951165Y-89486908D01*
X140995465Y-89531208D01*
X141005654Y-89547424D01*
X141016946Y-89559965D01*
X141055573Y-89626870D01*
X141090775Y-89682893D01*
X141095170Y-89695453D01*
X141100535Y-89704746D01*
X141128010Y-89789305D01*
X141149942Y-89851983D01*
X141150773Y-89859363D01*
X141152195Y-89863738D01*
X141165076Y-89986306D01*
X141170000Y-90030000D01*
X141165076Y-90073697D01*
X141152195Y-90196261D01*
X141150773Y-90200635D01*
X141149942Y-90208017D01*
X141128005Y-90270707D01*
X141100535Y-90355253D01*
X141095171Y-90364543D01*
X141090775Y-90377107D01*
X141055566Y-90433140D01*
X141016946Y-90500034D01*
X141005656Y-90512572D01*
X140995465Y-90528792D01*
X140951155Y-90573101D01*
X140905084Y-90624269D01*
X140886448Y-90637808D01*
X140868792Y-90655465D01*
X140819623Y-90686359D01*
X140769835Y-90722533D01*
X140743134Y-90734421D01*
X140717107Y-90750775D01*
X140667107Y-90768270D01*
X140617110Y-90790531D01*
X140582414Y-90797905D01*
X140548017Y-90809942D01*
X140500715Y-90815271D01*
X140453588Y-90825289D01*
X140411811Y-90825289D01*
X140370000Y-90830000D01*
X140328189Y-90825289D01*
X140286412Y-90825289D01*
X140239284Y-90815271D01*
X140191983Y-90809942D01*
X140157586Y-90797906D01*
X140122889Y-90790531D01*
X140072887Y-90768268D01*
X140022893Y-90750775D01*
X139996868Y-90734422D01*
X139970164Y-90722533D01*
X139920369Y-90686355D01*
X139871208Y-90655465D01*
X139853554Y-90637811D01*
X139834915Y-90624269D01*
X139788833Y-90573090D01*
X139744535Y-90528792D01*
X139734345Y-90512575D01*
X139723053Y-90500034D01*
X139684420Y-90433120D01*
X139649225Y-90377107D01*
X139644830Y-90364547D01*
X139639464Y-90355253D01*
X139611980Y-90270667D01*
X139590058Y-90208017D01*
X139589226Y-90200639D01*
X139587804Y-90196261D01*
X139574908Y-90073565D01*
X139570000Y-90030000D01*
X139574908Y-89986438D01*
X139587804Y-89863738D01*
X139589226Y-89859358D01*
X139590058Y-89851983D01*
X139611975Y-89789345D01*
X139639464Y-89704746D01*
X139644831Y-89695449D01*
X139649225Y-89682893D01*
X139684413Y-89626890D01*
X139723053Y-89559965D01*
X139734347Y-89547421D01*
X139744535Y-89531208D01*
X139788826Y-89486916D01*
X139834917Y-89435728D01*
X139853559Y-89422183D01*
X139871208Y-89404535D01*
X139920354Y-89373654D01*
X139970162Y-89337467D01*
X139996873Y-89325574D01*
X140022893Y-89309225D01*
X140072877Y-89291734D01*
X140122889Y-89269468D01*
X140157592Y-89262091D01*
X140191983Y-89250058D01*
X140239281Y-89244728D01*
X140286412Y-89234711D01*
X140328189Y-89234711D01*
X140370000Y-89230000D01*
X140411811Y-89234711D01*
G37*
G36*
X155651811Y-89234711D02*
G01*
X155693588Y-89234711D01*
X155740718Y-89244728D01*
X155788017Y-89250058D01*
X155822408Y-89262092D01*
X155857110Y-89269468D01*
X155907117Y-89291733D01*
X155957107Y-89309225D01*
X155983128Y-89325575D01*
X156009835Y-89337466D01*
X156059633Y-89373646D01*
X156108792Y-89404535D01*
X156126444Y-89422187D01*
X156145084Y-89435730D01*
X156191165Y-89486908D01*
X156235465Y-89531208D01*
X156245654Y-89547424D01*
X156256946Y-89559965D01*
X156295573Y-89626870D01*
X156330775Y-89682893D01*
X156335170Y-89695453D01*
X156340535Y-89704746D01*
X156368010Y-89789305D01*
X156389942Y-89851983D01*
X156390773Y-89859363D01*
X156392195Y-89863738D01*
X156405076Y-89986306D01*
X156410000Y-90030000D01*
X156405076Y-90073697D01*
X156392195Y-90196261D01*
X156390773Y-90200635D01*
X156389942Y-90208017D01*
X156368005Y-90270707D01*
X156340535Y-90355253D01*
X156335171Y-90364543D01*
X156330775Y-90377107D01*
X156295566Y-90433140D01*
X156256946Y-90500034D01*
X156245656Y-90512572D01*
X156235465Y-90528792D01*
X156191155Y-90573101D01*
X156145084Y-90624269D01*
X156126448Y-90637808D01*
X156108792Y-90655465D01*
X156059623Y-90686359D01*
X156009835Y-90722533D01*
X155983134Y-90734421D01*
X155957107Y-90750775D01*
X155907107Y-90768270D01*
X155857110Y-90790531D01*
X155822414Y-90797905D01*
X155788017Y-90809942D01*
X155740715Y-90815271D01*
X155693588Y-90825289D01*
X155651811Y-90825289D01*
X155610000Y-90830000D01*
X155568189Y-90825289D01*
X155526412Y-90825289D01*
X155479284Y-90815271D01*
X155431983Y-90809942D01*
X155397586Y-90797906D01*
X155362889Y-90790531D01*
X155312887Y-90768268D01*
X155262893Y-90750775D01*
X155236868Y-90734422D01*
X155210164Y-90722533D01*
X155160369Y-90686355D01*
X155111208Y-90655465D01*
X155093554Y-90637811D01*
X155074915Y-90624269D01*
X155028833Y-90573090D01*
X154984535Y-90528792D01*
X154974345Y-90512575D01*
X154963053Y-90500034D01*
X154924420Y-90433120D01*
X154889225Y-90377107D01*
X154884830Y-90364547D01*
X154879464Y-90355253D01*
X154851980Y-90270667D01*
X154830058Y-90208017D01*
X154829226Y-90200639D01*
X154827804Y-90196261D01*
X154814908Y-90073565D01*
X154810000Y-90030000D01*
X154814908Y-89986438D01*
X154827804Y-89863738D01*
X154829226Y-89859358D01*
X154830058Y-89851983D01*
X154851975Y-89789345D01*
X154879464Y-89704746D01*
X154884831Y-89695449D01*
X154889225Y-89682893D01*
X154924413Y-89626890D01*
X154963053Y-89559965D01*
X154974347Y-89547421D01*
X154984535Y-89531208D01*
X155028826Y-89486916D01*
X155074917Y-89435728D01*
X155093559Y-89422183D01*
X155111208Y-89404535D01*
X155160354Y-89373654D01*
X155210162Y-89337467D01*
X155236873Y-89325574D01*
X155262893Y-89309225D01*
X155312877Y-89291734D01*
X155362889Y-89269468D01*
X155397592Y-89262091D01*
X155431983Y-89250058D01*
X155479281Y-89244728D01*
X155526412Y-89234711D01*
X155568189Y-89234711D01*
X155610000Y-89230000D01*
X155651811Y-89234711D01*
G37*
G36*
X140411811Y-86694711D02*
G01*
X140453588Y-86694711D01*
X140500718Y-86704728D01*
X140548017Y-86710058D01*
X140582408Y-86722092D01*
X140617110Y-86729468D01*
X140667117Y-86751733D01*
X140717107Y-86769225D01*
X140743128Y-86785575D01*
X140769835Y-86797466D01*
X140819633Y-86833646D01*
X140868792Y-86864535D01*
X140886444Y-86882187D01*
X140905084Y-86895730D01*
X140951165Y-86946908D01*
X140995465Y-86991208D01*
X141005654Y-87007424D01*
X141016946Y-87019965D01*
X141055573Y-87086870D01*
X141090775Y-87142893D01*
X141095170Y-87155453D01*
X141100535Y-87164746D01*
X141128010Y-87249305D01*
X141149942Y-87311983D01*
X141150773Y-87319363D01*
X141152195Y-87323738D01*
X141165076Y-87446306D01*
X141170000Y-87490000D01*
X141165076Y-87533697D01*
X141152195Y-87656261D01*
X141150773Y-87660635D01*
X141149942Y-87668017D01*
X141128005Y-87730707D01*
X141100535Y-87815253D01*
X141095171Y-87824543D01*
X141090775Y-87837107D01*
X141055566Y-87893140D01*
X141016946Y-87960034D01*
X141005656Y-87972572D01*
X140995465Y-87988792D01*
X140951155Y-88033101D01*
X140905084Y-88084269D01*
X140886448Y-88097808D01*
X140868792Y-88115465D01*
X140819623Y-88146359D01*
X140769835Y-88182533D01*
X140743134Y-88194421D01*
X140717107Y-88210775D01*
X140667107Y-88228270D01*
X140617110Y-88250531D01*
X140582414Y-88257905D01*
X140548017Y-88269942D01*
X140500715Y-88275271D01*
X140453588Y-88285289D01*
X140411811Y-88285289D01*
X140370000Y-88290000D01*
X140328189Y-88285289D01*
X140286412Y-88285289D01*
X140239284Y-88275271D01*
X140191983Y-88269942D01*
X140157586Y-88257906D01*
X140122889Y-88250531D01*
X140072887Y-88228268D01*
X140022893Y-88210775D01*
X139996868Y-88194422D01*
X139970164Y-88182533D01*
X139920369Y-88146355D01*
X139871208Y-88115465D01*
X139853554Y-88097811D01*
X139834915Y-88084269D01*
X139788833Y-88033090D01*
X139744535Y-87988792D01*
X139734345Y-87972575D01*
X139723053Y-87960034D01*
X139684420Y-87893120D01*
X139649225Y-87837107D01*
X139644830Y-87824547D01*
X139639464Y-87815253D01*
X139611980Y-87730667D01*
X139590058Y-87668017D01*
X139589226Y-87660639D01*
X139587804Y-87656261D01*
X139574908Y-87533565D01*
X139570000Y-87490000D01*
X139574908Y-87446438D01*
X139587804Y-87323738D01*
X139589226Y-87319358D01*
X139590058Y-87311983D01*
X139611975Y-87249345D01*
X139639464Y-87164746D01*
X139644831Y-87155449D01*
X139649225Y-87142893D01*
X139684413Y-87086890D01*
X139723053Y-87019965D01*
X139734347Y-87007421D01*
X139744535Y-86991208D01*
X139788826Y-86946916D01*
X139834917Y-86895728D01*
X139853559Y-86882183D01*
X139871208Y-86864535D01*
X139920354Y-86833654D01*
X139970162Y-86797467D01*
X139996873Y-86785574D01*
X140022893Y-86769225D01*
X140072877Y-86751734D01*
X140122889Y-86729468D01*
X140157592Y-86722091D01*
X140191983Y-86710058D01*
X140239281Y-86704728D01*
X140286412Y-86694711D01*
X140328189Y-86694711D01*
X140370000Y-86690000D01*
X140411811Y-86694711D01*
G37*
G36*
X155651811Y-86694711D02*
G01*
X155693588Y-86694711D01*
X155740718Y-86704728D01*
X155788017Y-86710058D01*
X155822408Y-86722092D01*
X155857110Y-86729468D01*
X155907117Y-86751733D01*
X155957107Y-86769225D01*
X155983128Y-86785575D01*
X156009835Y-86797466D01*
X156059633Y-86833646D01*
X156108792Y-86864535D01*
X156126444Y-86882187D01*
X156145084Y-86895730D01*
X156191165Y-86946908D01*
X156235465Y-86991208D01*
X156245654Y-87007424D01*
X156256946Y-87019965D01*
X156295573Y-87086870D01*
X156330775Y-87142893D01*
X156335170Y-87155453D01*
X156340535Y-87164746D01*
X156368010Y-87249305D01*
X156389942Y-87311983D01*
X156390773Y-87319363D01*
X156392195Y-87323738D01*
X156405076Y-87446306D01*
X156410000Y-87490000D01*
X156405076Y-87533697D01*
X156392195Y-87656261D01*
X156390773Y-87660635D01*
X156389942Y-87668017D01*
X156368005Y-87730707D01*
X156340535Y-87815253D01*
X156335171Y-87824543D01*
X156330775Y-87837107D01*
X156295566Y-87893140D01*
X156256946Y-87960034D01*
X156245656Y-87972572D01*
X156235465Y-87988792D01*
X156191155Y-88033101D01*
X156145084Y-88084269D01*
X156126448Y-88097808D01*
X156108792Y-88115465D01*
X156059623Y-88146359D01*
X156009835Y-88182533D01*
X155983134Y-88194421D01*
X155957107Y-88210775D01*
X155907107Y-88228270D01*
X155857110Y-88250531D01*
X155822414Y-88257905D01*
X155788017Y-88269942D01*
X155740715Y-88275271D01*
X155693588Y-88285289D01*
X155651811Y-88285289D01*
X155610000Y-88290000D01*
X155568189Y-88285289D01*
X155526412Y-88285289D01*
X155479284Y-88275271D01*
X155431983Y-88269942D01*
X155397586Y-88257906D01*
X155362889Y-88250531D01*
X155312887Y-88228268D01*
X155262893Y-88210775D01*
X155236868Y-88194422D01*
X155210164Y-88182533D01*
X155160369Y-88146355D01*
X155111208Y-88115465D01*
X155093554Y-88097811D01*
X155074915Y-88084269D01*
X155028833Y-88033090D01*
X154984535Y-87988792D01*
X154974345Y-87972575D01*
X154963053Y-87960034D01*
X154924420Y-87893120D01*
X154889225Y-87837107D01*
X154884830Y-87824547D01*
X154879464Y-87815253D01*
X154851980Y-87730667D01*
X154830058Y-87668017D01*
X154829226Y-87660639D01*
X154827804Y-87656261D01*
X154814908Y-87533565D01*
X154810000Y-87490000D01*
X154814908Y-87446438D01*
X154827804Y-87323738D01*
X154829226Y-87319358D01*
X154830058Y-87311983D01*
X154851975Y-87249345D01*
X154879464Y-87164746D01*
X154884831Y-87155449D01*
X154889225Y-87142893D01*
X154924413Y-87086890D01*
X154963053Y-87019965D01*
X154974347Y-87007421D01*
X154984535Y-86991208D01*
X155028826Y-86946916D01*
X155074917Y-86895728D01*
X155093559Y-86882183D01*
X155111208Y-86864535D01*
X155160354Y-86833654D01*
X155210162Y-86797467D01*
X155236873Y-86785574D01*
X155262893Y-86769225D01*
X155312877Y-86751734D01*
X155362889Y-86729468D01*
X155397592Y-86722091D01*
X155431983Y-86710058D01*
X155479281Y-86704728D01*
X155526412Y-86694711D01*
X155568189Y-86694711D01*
X155610000Y-86690000D01*
X155651811Y-86694711D01*
G37*
G36*
X175140000Y-85900000D02*
G01*
X173340000Y-85900000D01*
X173340000Y-84100000D01*
X175140000Y-84100000D01*
X175140000Y-85900000D01*
G37*
G36*
X171747113Y-84104930D02*
G01*
X171794076Y-84104930D01*
X171834622Y-84113548D01*
X171875526Y-84117577D01*
X171926916Y-84133166D01*
X171978115Y-84144049D01*
X172010879Y-84158636D01*
X172044304Y-84168776D01*
X172097420Y-84197166D01*
X172150000Y-84220577D01*
X172174445Y-84238337D01*
X172199849Y-84251916D01*
X172251669Y-84294444D01*
X172302218Y-84331170D01*
X172318631Y-84349398D01*
X172336190Y-84363809D01*
X172383379Y-84421308D01*
X172428115Y-84470993D01*
X172437512Y-84487269D01*
X172448083Y-84500150D01*
X172487183Y-84573302D01*
X172522191Y-84633937D01*
X172526218Y-84646331D01*
X172531223Y-84655695D01*
X172558821Y-84746672D01*
X172580333Y-84812879D01*
X172581090Y-84820082D01*
X172582422Y-84824473D01*
X172595377Y-84956021D01*
X172600000Y-85000000D01*
X172595377Y-85043982D01*
X172582422Y-85175526D01*
X172581090Y-85179916D01*
X172580333Y-85187121D01*
X172558816Y-85253341D01*
X172531223Y-85344304D01*
X172526219Y-85353665D01*
X172522191Y-85366063D01*
X172487176Y-85426709D01*
X172448083Y-85499849D01*
X172437514Y-85512726D01*
X172428115Y-85529007D01*
X172383369Y-85578701D01*
X172336190Y-85636190D01*
X172318634Y-85650597D01*
X172302218Y-85668830D01*
X172251659Y-85705563D01*
X172199849Y-85748083D01*
X172174450Y-85761658D01*
X172150000Y-85779423D01*
X172097408Y-85802838D01*
X172044304Y-85831223D01*
X172010886Y-85841360D01*
X171978115Y-85855951D01*
X171926905Y-85866836D01*
X171875526Y-85882422D01*
X171834631Y-85886449D01*
X171794076Y-85895070D01*
X171747103Y-85895070D01*
X171700000Y-85899709D01*
X171652897Y-85895070D01*
X171605924Y-85895070D01*
X171565368Y-85886449D01*
X171524473Y-85882422D01*
X171473091Y-85866835D01*
X171421885Y-85855951D01*
X171389115Y-85841361D01*
X171355695Y-85831223D01*
X171302585Y-85802835D01*
X171250000Y-85779423D01*
X171225552Y-85761660D01*
X171200150Y-85748083D01*
X171148332Y-85705556D01*
X171097782Y-85668830D01*
X171081368Y-85650600D01*
X171063809Y-85636190D01*
X171016618Y-85578688D01*
X170971885Y-85529007D01*
X170962487Y-85512730D01*
X170951916Y-85499849D01*
X170912810Y-85426686D01*
X170877809Y-85366063D01*
X170873782Y-85353670D01*
X170868776Y-85344304D01*
X170841168Y-85253294D01*
X170819667Y-85187121D01*
X170818910Y-85179921D01*
X170817577Y-85175526D01*
X170804606Y-85043831D01*
X170800000Y-85000000D01*
X170804606Y-84956172D01*
X170817577Y-84824473D01*
X170818910Y-84820077D01*
X170819667Y-84812879D01*
X170841163Y-84746719D01*
X170868776Y-84655695D01*
X170873783Y-84646327D01*
X170877809Y-84633937D01*
X170912802Y-84573326D01*
X170951916Y-84500150D01*
X170962489Y-84487265D01*
X170971885Y-84470993D01*
X171016609Y-84421321D01*
X171063809Y-84363809D01*
X171081371Y-84349395D01*
X171097782Y-84331170D01*
X171148321Y-84294450D01*
X171200150Y-84251916D01*
X171225557Y-84238335D01*
X171250000Y-84220577D01*
X171302573Y-84197169D01*
X171355695Y-84168776D01*
X171389122Y-84158635D01*
X171421885Y-84144049D01*
X171473080Y-84133166D01*
X171524473Y-84117577D01*
X171565377Y-84113548D01*
X171605924Y-84104930D01*
X171652887Y-84104930D01*
X171700000Y-84100290D01*
X171747113Y-84104930D01*
G37*
G36*
X159461811Y-84154711D02*
G01*
X159503588Y-84154711D01*
X159550718Y-84164728D01*
X159598017Y-84170058D01*
X159632408Y-84182092D01*
X159667110Y-84189468D01*
X159717117Y-84211733D01*
X159767107Y-84229225D01*
X159793128Y-84245575D01*
X159819835Y-84257466D01*
X159869633Y-84293646D01*
X159918792Y-84324535D01*
X159936444Y-84342187D01*
X159955084Y-84355730D01*
X160001165Y-84406908D01*
X160045465Y-84451208D01*
X160055654Y-84467424D01*
X160066946Y-84479965D01*
X160105573Y-84546870D01*
X160140775Y-84602893D01*
X160145170Y-84615453D01*
X160150535Y-84624746D01*
X160178010Y-84709305D01*
X160199942Y-84771983D01*
X160200773Y-84779363D01*
X160202195Y-84783738D01*
X160215076Y-84906306D01*
X160220000Y-84950000D01*
X160215076Y-84993697D01*
X160202195Y-85116261D01*
X160200773Y-85120635D01*
X160199942Y-85128017D01*
X160178005Y-85190707D01*
X160150535Y-85275253D01*
X160145171Y-85284543D01*
X160140775Y-85297107D01*
X160105566Y-85353140D01*
X160066946Y-85420034D01*
X160055656Y-85432572D01*
X160045465Y-85448792D01*
X160001155Y-85493101D01*
X159955084Y-85544269D01*
X159936448Y-85557808D01*
X159918792Y-85575465D01*
X159869623Y-85606359D01*
X159819835Y-85642533D01*
X159793134Y-85654421D01*
X159767107Y-85670775D01*
X159717107Y-85688270D01*
X159667110Y-85710531D01*
X159632414Y-85717905D01*
X159598017Y-85729942D01*
X159550715Y-85735271D01*
X159503588Y-85745289D01*
X159461811Y-85745289D01*
X159420000Y-85750000D01*
X159378189Y-85745289D01*
X159336412Y-85745289D01*
X159289284Y-85735271D01*
X159241983Y-85729942D01*
X159207586Y-85717906D01*
X159172889Y-85710531D01*
X159122887Y-85688268D01*
X159072893Y-85670775D01*
X159046868Y-85654422D01*
X159020164Y-85642533D01*
X158970369Y-85606355D01*
X158921208Y-85575465D01*
X158903554Y-85557811D01*
X158884915Y-85544269D01*
X158838833Y-85493090D01*
X158794535Y-85448792D01*
X158784345Y-85432575D01*
X158773053Y-85420034D01*
X158734420Y-85353120D01*
X158699225Y-85297107D01*
X158694830Y-85284547D01*
X158689464Y-85275253D01*
X158661980Y-85190667D01*
X158640058Y-85128017D01*
X158639226Y-85120639D01*
X158637804Y-85116261D01*
X158624908Y-84993565D01*
X158620000Y-84950000D01*
X158624908Y-84906438D01*
X158637804Y-84783738D01*
X158639226Y-84779358D01*
X158640058Y-84771983D01*
X158661975Y-84709345D01*
X158689464Y-84624746D01*
X158694831Y-84615449D01*
X158699225Y-84602893D01*
X158734413Y-84546890D01*
X158773053Y-84479965D01*
X158784347Y-84467421D01*
X158794535Y-84451208D01*
X158838826Y-84406916D01*
X158884917Y-84355728D01*
X158903559Y-84342183D01*
X158921208Y-84324535D01*
X158970354Y-84293654D01*
X159020162Y-84257467D01*
X159046873Y-84245574D01*
X159072893Y-84229225D01*
X159122877Y-84211734D01*
X159172889Y-84189468D01*
X159207592Y-84182091D01*
X159241983Y-84170058D01*
X159289281Y-84164728D01*
X159336412Y-84154711D01*
X159378189Y-84154711D01*
X159420000Y-84150000D01*
X159461811Y-84154711D01*
G37*
G36*
X167081811Y-84154711D02*
G01*
X167123588Y-84154711D01*
X167170718Y-84164728D01*
X167218017Y-84170058D01*
X167252408Y-84182092D01*
X167287110Y-84189468D01*
X167337117Y-84211733D01*
X167387107Y-84229225D01*
X167413128Y-84245575D01*
X167439835Y-84257466D01*
X167489633Y-84293646D01*
X167538792Y-84324535D01*
X167556444Y-84342187D01*
X167575084Y-84355730D01*
X167621165Y-84406908D01*
X167665465Y-84451208D01*
X167675654Y-84467424D01*
X167686946Y-84479965D01*
X167725573Y-84546870D01*
X167760775Y-84602893D01*
X167765170Y-84615453D01*
X167770535Y-84624746D01*
X167798010Y-84709305D01*
X167819942Y-84771983D01*
X167820773Y-84779363D01*
X167822195Y-84783738D01*
X167835076Y-84906306D01*
X167840000Y-84950000D01*
X167835076Y-84993697D01*
X167822195Y-85116261D01*
X167820773Y-85120635D01*
X167819942Y-85128017D01*
X167798005Y-85190707D01*
X167770535Y-85275253D01*
X167765171Y-85284543D01*
X167760775Y-85297107D01*
X167725566Y-85353140D01*
X167686946Y-85420034D01*
X167675656Y-85432572D01*
X167665465Y-85448792D01*
X167621155Y-85493101D01*
X167575084Y-85544269D01*
X167556448Y-85557808D01*
X167538792Y-85575465D01*
X167489623Y-85606359D01*
X167439835Y-85642533D01*
X167413134Y-85654421D01*
X167387107Y-85670775D01*
X167337107Y-85688270D01*
X167287110Y-85710531D01*
X167252414Y-85717905D01*
X167218017Y-85729942D01*
X167170715Y-85735271D01*
X167123588Y-85745289D01*
X167081811Y-85745289D01*
X167040000Y-85750000D01*
X166998189Y-85745289D01*
X166956412Y-85745289D01*
X166909284Y-85735271D01*
X166861983Y-85729942D01*
X166827586Y-85717906D01*
X166792889Y-85710531D01*
X166742887Y-85688268D01*
X166692893Y-85670775D01*
X166666868Y-85654422D01*
X166640164Y-85642533D01*
X166590369Y-85606355D01*
X166541208Y-85575465D01*
X166523554Y-85557811D01*
X166504915Y-85544269D01*
X166458833Y-85493090D01*
X166414535Y-85448792D01*
X166404345Y-85432575D01*
X166393053Y-85420034D01*
X166354420Y-85353120D01*
X166319225Y-85297107D01*
X166314830Y-85284547D01*
X166309464Y-85275253D01*
X166281980Y-85190667D01*
X166260058Y-85128017D01*
X166259226Y-85120639D01*
X166257804Y-85116261D01*
X166244908Y-84993565D01*
X166240000Y-84950000D01*
X166244908Y-84906438D01*
X166257804Y-84783738D01*
X166259226Y-84779358D01*
X166260058Y-84771983D01*
X166281975Y-84709345D01*
X166309464Y-84624746D01*
X166314831Y-84615449D01*
X166319225Y-84602893D01*
X166354413Y-84546890D01*
X166393053Y-84479965D01*
X166404347Y-84467421D01*
X166414535Y-84451208D01*
X166458826Y-84406916D01*
X166504917Y-84355728D01*
X166523559Y-84342183D01*
X166541208Y-84324535D01*
X166590354Y-84293654D01*
X166640162Y-84257467D01*
X166666873Y-84245574D01*
X166692893Y-84229225D01*
X166742877Y-84211734D01*
X166792889Y-84189468D01*
X166827592Y-84182091D01*
X166861983Y-84170058D01*
X166909281Y-84164728D01*
X166956412Y-84154711D01*
X166998189Y-84154711D01*
X167040000Y-84150000D01*
X167081811Y-84154711D01*
G37*
G36*
X118272000Y-84442000D02*
G01*
X116748000Y-84442000D01*
X116748000Y-82918000D01*
X118272000Y-82918000D01*
X118272000Y-84442000D01*
G37*
G36*
X120219561Y-82937105D02*
G01*
X120380619Y-82993462D01*
X120525099Y-83084244D01*
X120645756Y-83204901D01*
X120736538Y-83349381D01*
X120792895Y-83510439D01*
X120812000Y-83680000D01*
X120792895Y-83849561D01*
X120736538Y-84010619D01*
X120645756Y-84155099D01*
X120525099Y-84275756D01*
X120380619Y-84366538D01*
X120219561Y-84422895D01*
X120050000Y-84442000D01*
X119880439Y-84422895D01*
X119719381Y-84366538D01*
X119574901Y-84275756D01*
X119454244Y-84155099D01*
X119363462Y-84010619D01*
X119307105Y-83849561D01*
X119288000Y-83680000D01*
X119307105Y-83510439D01*
X119363462Y-83349381D01*
X119454244Y-83204901D01*
X119574901Y-83084244D01*
X119719381Y-82993462D01*
X119880439Y-82937105D01*
X120050000Y-82918000D01*
X120219561Y-82937105D01*
G37*
G36*
X122759561Y-82937105D02*
G01*
X122920619Y-82993462D01*
X123065099Y-83084244D01*
X123185756Y-83204901D01*
X123276538Y-83349381D01*
X123332895Y-83510439D01*
X123352000Y-83680000D01*
X123332895Y-83849561D01*
X123276538Y-84010619D01*
X123185756Y-84155099D01*
X123065099Y-84275756D01*
X122920619Y-84366538D01*
X122759561Y-84422895D01*
X122590000Y-84442000D01*
X122420439Y-84422895D01*
X122259381Y-84366538D01*
X122114901Y-84275756D01*
X121994244Y-84155099D01*
X121903462Y-84010619D01*
X121847105Y-83849561D01*
X121828000Y-83680000D01*
X121847105Y-83510439D01*
X121903462Y-83349381D01*
X121994244Y-83204901D01*
X122114901Y-83084244D01*
X122259381Y-82993462D01*
X122420439Y-82937105D01*
X122590000Y-82918000D01*
X122759561Y-82937105D01*
G37*
G36*
X125299561Y-82937105D02*
G01*
X125460619Y-82993462D01*
X125605099Y-83084244D01*
X125725756Y-83204901D01*
X125816538Y-83349381D01*
X125872895Y-83510439D01*
X125892000Y-83680000D01*
X125872895Y-83849561D01*
X125816538Y-84010619D01*
X125725756Y-84155099D01*
X125605099Y-84275756D01*
X125460619Y-84366538D01*
X125299561Y-84422895D01*
X125130000Y-84442000D01*
X124960439Y-84422895D01*
X124799381Y-84366538D01*
X124654901Y-84275756D01*
X124534244Y-84155099D01*
X124443462Y-84010619D01*
X124387105Y-83849561D01*
X124368000Y-83680000D01*
X124387105Y-83510439D01*
X124443462Y-83349381D01*
X124534244Y-83204901D01*
X124654901Y-83084244D01*
X124799381Y-82993462D01*
X124960439Y-82937105D01*
X125130000Y-82918000D01*
X125299561Y-82937105D01*
G37*
M02*
