G04 #@! TF.GenerationSoftware,KiCad,Pcbnew,8.0.6*
G04 #@! TF.CreationDate,2026-09-01T23:35:07+08:00*
G04 #@! TF.ProjectId,learning,6c656172-6e69-46e6-972e-6b696361645f,rev?*
G04 #@! TF.SameCoordinates,Original*
G04 #@! TF.FileFunction,Legend,Top*
G04 #@! TF.FilePolarity,Positive*
%FSLAX46Y46*%
G04 Gerber Fmt 4.6, Leading zero omitted, Abs format (unit mm)*
G04 Created by KiCad (PCBNEW 8.0.6) date 2026-09-01 23:35:07*
%MOMM*%
%LPD*%
G01*
G04 APERTURE LIST*
%ADD10C,0.152400*%
%ADD11C,0.300000*%
%ADD12C,0.100000*%
%ADD13C,0.150000*%
%ADD14C,0.120000*%
%ADD15R,1.524000X1.524000*%
%ADD16C,1.524000*%
%ADD17C,2.000000*%
%ADD18C,1.600000*%
%ADD19O,1.600000X1.600000*%
%ADD20R,1.800000X1.800000*%
%ADD21C,1.800000*%
%ADD22R,1.600000X1.600000*%
G04 APERTURE END LIST*
D10*
X123948605Y-122079803D02*
X124026015Y-122079803D01*
X124026015Y-122079803D02*
X124103424Y-122118508D01*
X124103424Y-122118508D02*
X124142129Y-122157213D01*
X124142129Y-122157213D02*
X124180834Y-122234622D01*
X124180834Y-122234622D02*
X124219539Y-122389441D01*
X124219539Y-122389441D02*
X124219539Y-122582965D01*
X124219539Y-122582965D02*
X124180834Y-122737784D01*
X124180834Y-122737784D02*
X124142129Y-122815194D01*
X124142129Y-122815194D02*
X124103424Y-122853899D01*
X124103424Y-122853899D02*
X124026015Y-122892603D01*
X124026015Y-122892603D02*
X123948605Y-122892603D01*
X123948605Y-122892603D02*
X123871196Y-122853899D01*
X123871196Y-122853899D02*
X123832491Y-122815194D01*
X123832491Y-122815194D02*
X123793786Y-122737784D01*
X123793786Y-122737784D02*
X123755082Y-122582965D01*
X123755082Y-122582965D02*
X123755082Y-122389441D01*
X123755082Y-122389441D02*
X123793786Y-122234622D01*
X123793786Y-122234622D02*
X123832491Y-122157213D01*
X123832491Y-122157213D02*
X123871196Y-122118508D01*
X123871196Y-122118508D02*
X123948605Y-122079803D01*
X124993634Y-122892603D02*
X124529177Y-122892603D01*
X124761405Y-122892603D02*
X124761405Y-122079803D01*
X124761405Y-122079803D02*
X124683996Y-122195918D01*
X124683996Y-122195918D02*
X124606586Y-122273327D01*
X124606586Y-122273327D02*
X124529177Y-122312032D01*
X125922548Y-122041099D02*
X125225862Y-123086127D01*
X126154777Y-122853899D02*
X126270891Y-122892603D01*
X126270891Y-122892603D02*
X126464415Y-122892603D01*
X126464415Y-122892603D02*
X126541824Y-122853899D01*
X126541824Y-122853899D02*
X126580529Y-122815194D01*
X126580529Y-122815194D02*
X126619234Y-122737784D01*
X126619234Y-122737784D02*
X126619234Y-122660375D01*
X126619234Y-122660375D02*
X126580529Y-122582965D01*
X126580529Y-122582965D02*
X126541824Y-122544260D01*
X126541824Y-122544260D02*
X126464415Y-122505556D01*
X126464415Y-122505556D02*
X126309596Y-122466851D01*
X126309596Y-122466851D02*
X126232186Y-122428146D01*
X126232186Y-122428146D02*
X126193481Y-122389441D01*
X126193481Y-122389441D02*
X126154777Y-122312032D01*
X126154777Y-122312032D02*
X126154777Y-122234622D01*
X126154777Y-122234622D02*
X126193481Y-122157213D01*
X126193481Y-122157213D02*
X126232186Y-122118508D01*
X126232186Y-122118508D02*
X126309596Y-122079803D01*
X126309596Y-122079803D02*
X126503119Y-122079803D01*
X126503119Y-122079803D02*
X126619234Y-122118508D01*
X126967576Y-122466851D02*
X127238510Y-122466851D01*
X127354624Y-122892603D02*
X126967576Y-122892603D01*
X126967576Y-122892603D02*
X126967576Y-122079803D01*
X126967576Y-122079803D02*
X127354624Y-122079803D01*
X127702966Y-122892603D02*
X127702966Y-122079803D01*
X127702966Y-122079803D02*
X128012604Y-122079803D01*
X128012604Y-122079803D02*
X128090014Y-122118508D01*
X128090014Y-122118508D02*
X128128719Y-122157213D01*
X128128719Y-122157213D02*
X128167423Y-122234622D01*
X128167423Y-122234622D02*
X128167423Y-122350737D01*
X128167423Y-122350737D02*
X128128719Y-122428146D01*
X128128719Y-122428146D02*
X128090014Y-122466851D01*
X128090014Y-122466851D02*
X128012604Y-122505556D01*
X128012604Y-122505556D02*
X127702966Y-122505556D01*
X128399652Y-122079803D02*
X128864109Y-122079803D01*
X128631881Y-122892603D02*
X128631881Y-122079803D01*
X129715614Y-122041099D02*
X129018928Y-123086127D01*
X129947843Y-122157213D02*
X129986547Y-122118508D01*
X129986547Y-122118508D02*
X130063957Y-122079803D01*
X130063957Y-122079803D02*
X130257481Y-122079803D01*
X130257481Y-122079803D02*
X130334890Y-122118508D01*
X130334890Y-122118508D02*
X130373595Y-122157213D01*
X130373595Y-122157213D02*
X130412300Y-122234622D01*
X130412300Y-122234622D02*
X130412300Y-122312032D01*
X130412300Y-122312032D02*
X130373595Y-122428146D01*
X130373595Y-122428146D02*
X129909138Y-122892603D01*
X129909138Y-122892603D02*
X130412300Y-122892603D01*
X130915461Y-122079803D02*
X130992871Y-122079803D01*
X130992871Y-122079803D02*
X131070280Y-122118508D01*
X131070280Y-122118508D02*
X131108985Y-122157213D01*
X131108985Y-122157213D02*
X131147690Y-122234622D01*
X131147690Y-122234622D02*
X131186395Y-122389441D01*
X131186395Y-122389441D02*
X131186395Y-122582965D01*
X131186395Y-122582965D02*
X131147690Y-122737784D01*
X131147690Y-122737784D02*
X131108985Y-122815194D01*
X131108985Y-122815194D02*
X131070280Y-122853899D01*
X131070280Y-122853899D02*
X130992871Y-122892603D01*
X130992871Y-122892603D02*
X130915461Y-122892603D01*
X130915461Y-122892603D02*
X130838052Y-122853899D01*
X130838052Y-122853899D02*
X130799347Y-122815194D01*
X130799347Y-122815194D02*
X130760642Y-122737784D01*
X130760642Y-122737784D02*
X130721938Y-122582965D01*
X130721938Y-122582965D02*
X130721938Y-122389441D01*
X130721938Y-122389441D02*
X130760642Y-122234622D01*
X130760642Y-122234622D02*
X130799347Y-122157213D01*
X130799347Y-122157213D02*
X130838052Y-122118508D01*
X130838052Y-122118508D02*
X130915461Y-122079803D01*
X131496033Y-122157213D02*
X131534737Y-122118508D01*
X131534737Y-122118508D02*
X131612147Y-122079803D01*
X131612147Y-122079803D02*
X131805671Y-122079803D01*
X131805671Y-122079803D02*
X131883080Y-122118508D01*
X131883080Y-122118508D02*
X131921785Y-122157213D01*
X131921785Y-122157213D02*
X131960490Y-122234622D01*
X131960490Y-122234622D02*
X131960490Y-122312032D01*
X131960490Y-122312032D02*
X131921785Y-122428146D01*
X131921785Y-122428146D02*
X131457328Y-122892603D01*
X131457328Y-122892603D02*
X131960490Y-122892603D01*
X132657175Y-122079803D02*
X132502356Y-122079803D01*
X132502356Y-122079803D02*
X132424947Y-122118508D01*
X132424947Y-122118508D02*
X132386242Y-122157213D01*
X132386242Y-122157213D02*
X132308832Y-122273327D01*
X132308832Y-122273327D02*
X132270128Y-122428146D01*
X132270128Y-122428146D02*
X132270128Y-122737784D01*
X132270128Y-122737784D02*
X132308832Y-122815194D01*
X132308832Y-122815194D02*
X132347537Y-122853899D01*
X132347537Y-122853899D02*
X132424947Y-122892603D01*
X132424947Y-122892603D02*
X132579766Y-122892603D01*
X132579766Y-122892603D02*
X132657175Y-122853899D01*
X132657175Y-122853899D02*
X132695880Y-122815194D01*
X132695880Y-122815194D02*
X132734585Y-122737784D01*
X132734585Y-122737784D02*
X132734585Y-122544260D01*
X132734585Y-122544260D02*
X132695880Y-122466851D01*
X132695880Y-122466851D02*
X132657175Y-122428146D01*
X132657175Y-122428146D02*
X132579766Y-122389441D01*
X132579766Y-122389441D02*
X132424947Y-122389441D01*
X132424947Y-122389441D02*
X132347537Y-122428146D01*
X132347537Y-122428146D02*
X132308832Y-122466851D01*
X132308832Y-122466851D02*
X132270128Y-122544260D01*
X133702203Y-122582965D02*
X134321480Y-122582965D01*
X135250394Y-122350737D02*
X135443918Y-122892603D01*
X135443918Y-122892603D02*
X135637441Y-122350737D01*
X136372832Y-122892603D02*
X135908375Y-122892603D01*
X136140603Y-122892603D02*
X136140603Y-122079803D01*
X136140603Y-122079803D02*
X136063194Y-122195918D01*
X136063194Y-122195918D02*
X135985784Y-122273327D01*
X135985784Y-122273327D02*
X135908375Y-122312032D01*
X136721174Y-122815194D02*
X136759879Y-122853899D01*
X136759879Y-122853899D02*
X136721174Y-122892603D01*
X136721174Y-122892603D02*
X136682470Y-122853899D01*
X136682470Y-122853899D02*
X136721174Y-122815194D01*
X136721174Y-122815194D02*
X136721174Y-122892603D01*
X137263041Y-122079803D02*
X137340451Y-122079803D01*
X137340451Y-122079803D02*
X137417860Y-122118508D01*
X137417860Y-122118508D02*
X137456565Y-122157213D01*
X137456565Y-122157213D02*
X137495270Y-122234622D01*
X137495270Y-122234622D02*
X137533975Y-122389441D01*
X137533975Y-122389441D02*
X137533975Y-122582965D01*
X137533975Y-122582965D02*
X137495270Y-122737784D01*
X137495270Y-122737784D02*
X137456565Y-122815194D01*
X137456565Y-122815194D02*
X137417860Y-122853899D01*
X137417860Y-122853899D02*
X137340451Y-122892603D01*
X137340451Y-122892603D02*
X137263041Y-122892603D01*
X137263041Y-122892603D02*
X137185632Y-122853899D01*
X137185632Y-122853899D02*
X137146927Y-122815194D01*
X137146927Y-122815194D02*
X137108222Y-122737784D01*
X137108222Y-122737784D02*
X137069518Y-122582965D01*
X137069518Y-122582965D02*
X137069518Y-122389441D01*
X137069518Y-122389441D02*
X137108222Y-122234622D01*
X137108222Y-122234622D02*
X137146927Y-122157213D01*
X137146927Y-122157213D02*
X137185632Y-122118508D01*
X137185632Y-122118508D02*
X137263041Y-122079803D01*
D11*
X128428571Y-117566215D02*
X128428571Y-115766215D01*
X128428571Y-115766215D02*
X128857142Y-115766215D01*
X128857142Y-115766215D02*
X129114285Y-115851929D01*
X129114285Y-115851929D02*
X129285714Y-116023358D01*
X129285714Y-116023358D02*
X129371428Y-116194786D01*
X129371428Y-116194786D02*
X129457142Y-116537643D01*
X129457142Y-116537643D02*
X129457142Y-116794786D01*
X129457142Y-116794786D02*
X129371428Y-117137643D01*
X129371428Y-117137643D02*
X129285714Y-117309072D01*
X129285714Y-117309072D02*
X129114285Y-117480501D01*
X129114285Y-117480501D02*
X128857142Y-117566215D01*
X128857142Y-117566215D02*
X128428571Y-117566215D01*
X130228571Y-117566215D02*
X130228571Y-115766215D01*
X131428571Y-116709072D02*
X131428571Y-117566215D01*
X130828571Y-115766215D02*
X131428571Y-116709072D01*
X131428571Y-116709072D02*
X132028571Y-115766215D01*
X126971428Y-120378400D02*
X127228571Y-120464114D01*
X127228571Y-120464114D02*
X127657142Y-120464114D01*
X127657142Y-120464114D02*
X127828571Y-120378400D01*
X127828571Y-120378400D02*
X127914285Y-120292685D01*
X127914285Y-120292685D02*
X127999999Y-120121257D01*
X127999999Y-120121257D02*
X127999999Y-119949828D01*
X127999999Y-119949828D02*
X127914285Y-119778400D01*
X127914285Y-119778400D02*
X127828571Y-119692685D01*
X127828571Y-119692685D02*
X127657142Y-119606971D01*
X127657142Y-119606971D02*
X127314285Y-119521257D01*
X127314285Y-119521257D02*
X127142856Y-119435542D01*
X127142856Y-119435542D02*
X127057142Y-119349828D01*
X127057142Y-119349828D02*
X126971428Y-119178400D01*
X126971428Y-119178400D02*
X126971428Y-119006971D01*
X126971428Y-119006971D02*
X127057142Y-118835542D01*
X127057142Y-118835542D02*
X127142856Y-118749828D01*
X127142856Y-118749828D02*
X127314285Y-118664114D01*
X127314285Y-118664114D02*
X127742856Y-118664114D01*
X127742856Y-118664114D02*
X127999999Y-118749828D01*
X128771428Y-120464114D02*
X128771428Y-118664114D01*
X128771428Y-118664114D02*
X129457142Y-118664114D01*
X129457142Y-118664114D02*
X129628571Y-118749828D01*
X129628571Y-118749828D02*
X129714285Y-118835542D01*
X129714285Y-118835542D02*
X129799999Y-119006971D01*
X129799999Y-119006971D02*
X129799999Y-119264114D01*
X129799999Y-119264114D02*
X129714285Y-119435542D01*
X129714285Y-119435542D02*
X129628571Y-119521257D01*
X129628571Y-119521257D02*
X129457142Y-119606971D01*
X129457142Y-119606971D02*
X128771428Y-119606971D01*
X130914285Y-118664114D02*
X131085714Y-118664114D01*
X131085714Y-118664114D02*
X131257142Y-118749828D01*
X131257142Y-118749828D02*
X131342857Y-118835542D01*
X131342857Y-118835542D02*
X131428571Y-119006971D01*
X131428571Y-119006971D02*
X131514285Y-119349828D01*
X131514285Y-119349828D02*
X131514285Y-119778400D01*
X131514285Y-119778400D02*
X131428571Y-120121257D01*
X131428571Y-120121257D02*
X131342857Y-120292685D01*
X131342857Y-120292685D02*
X131257142Y-120378400D01*
X131257142Y-120378400D02*
X131085714Y-120464114D01*
X131085714Y-120464114D02*
X130914285Y-120464114D01*
X130914285Y-120464114D02*
X130742857Y-120378400D01*
X130742857Y-120378400D02*
X130657142Y-120292685D01*
X130657142Y-120292685D02*
X130571428Y-120121257D01*
X130571428Y-120121257D02*
X130485714Y-119778400D01*
X130485714Y-119778400D02*
X130485714Y-119349828D01*
X130485714Y-119349828D02*
X130571428Y-119006971D01*
X130571428Y-119006971D02*
X130657142Y-118835542D01*
X130657142Y-118835542D02*
X130742857Y-118749828D01*
X130742857Y-118749828D02*
X130914285Y-118664114D01*
X132200000Y-118835542D02*
X132285714Y-118749828D01*
X132285714Y-118749828D02*
X132457143Y-118664114D01*
X132457143Y-118664114D02*
X132885714Y-118664114D01*
X132885714Y-118664114D02*
X133057143Y-118749828D01*
X133057143Y-118749828D02*
X133142857Y-118835542D01*
X133142857Y-118835542D02*
X133228571Y-119006971D01*
X133228571Y-119006971D02*
X133228571Y-119178400D01*
X133228571Y-119178400D02*
X133142857Y-119435542D01*
X133142857Y-119435542D02*
X132114285Y-120464114D01*
X132114285Y-120464114D02*
X133228571Y-120464114D01*
D10*
X160992603Y-95780460D02*
X160992603Y-96244917D01*
X160992603Y-96012689D02*
X160179803Y-96012689D01*
X160179803Y-96012689D02*
X160295918Y-96090098D01*
X160295918Y-96090098D02*
X160373327Y-96167508D01*
X160373327Y-96167508D02*
X160412032Y-96244917D01*
X160179803Y-95277299D02*
X160179803Y-95199889D01*
X160179803Y-95199889D02*
X160218508Y-95122480D01*
X160218508Y-95122480D02*
X160257213Y-95083775D01*
X160257213Y-95083775D02*
X160334622Y-95045070D01*
X160334622Y-95045070D02*
X160489441Y-95006365D01*
X160489441Y-95006365D02*
X160682965Y-95006365D01*
X160682965Y-95006365D02*
X160837784Y-95045070D01*
X160837784Y-95045070D02*
X160915194Y-95083775D01*
X160915194Y-95083775D02*
X160953899Y-95122480D01*
X160953899Y-95122480D02*
X160992603Y-95199889D01*
X160992603Y-95199889D02*
X160992603Y-95277299D01*
X160992603Y-95277299D02*
X160953899Y-95354708D01*
X160953899Y-95354708D02*
X160915194Y-95393413D01*
X160915194Y-95393413D02*
X160837784Y-95432118D01*
X160837784Y-95432118D02*
X160682965Y-95470822D01*
X160682965Y-95470822D02*
X160489441Y-95470822D01*
X160489441Y-95470822D02*
X160334622Y-95432118D01*
X160334622Y-95432118D02*
X160257213Y-95393413D01*
X160257213Y-95393413D02*
X160218508Y-95354708D01*
X160218508Y-95354708D02*
X160179803Y-95277299D01*
X160179803Y-94503204D02*
X160179803Y-94425794D01*
X160179803Y-94425794D02*
X160218508Y-94348385D01*
X160218508Y-94348385D02*
X160257213Y-94309680D01*
X160257213Y-94309680D02*
X160334622Y-94270975D01*
X160334622Y-94270975D02*
X160489441Y-94232270D01*
X160489441Y-94232270D02*
X160682965Y-94232270D01*
X160682965Y-94232270D02*
X160837784Y-94270975D01*
X160837784Y-94270975D02*
X160915194Y-94309680D01*
X160915194Y-94309680D02*
X160953899Y-94348385D01*
X160953899Y-94348385D02*
X160992603Y-94425794D01*
X160992603Y-94425794D02*
X160992603Y-94503204D01*
X160992603Y-94503204D02*
X160953899Y-94580613D01*
X160953899Y-94580613D02*
X160915194Y-94619318D01*
X160915194Y-94619318D02*
X160837784Y-94658023D01*
X160837784Y-94658023D02*
X160682965Y-94696727D01*
X160682965Y-94696727D02*
X160489441Y-94696727D01*
X160489441Y-94696727D02*
X160334622Y-94658023D01*
X160334622Y-94658023D02*
X160257213Y-94619318D01*
X160257213Y-94619318D02*
X160218508Y-94580613D01*
X160218508Y-94580613D02*
X160179803Y-94503204D01*
X160450737Y-93883928D02*
X160992603Y-93883928D01*
X160528146Y-93883928D02*
X160489441Y-93845223D01*
X160489441Y-93845223D02*
X160450737Y-93767813D01*
X160450737Y-93767813D02*
X160450737Y-93651699D01*
X160450737Y-93651699D02*
X160489441Y-93574290D01*
X160489441Y-93574290D02*
X160566851Y-93535585D01*
X160566851Y-93535585D02*
X160992603Y-93535585D01*
X160992603Y-108580460D02*
X160992603Y-109044917D01*
X160992603Y-108812689D02*
X160179803Y-108812689D01*
X160179803Y-108812689D02*
X160295918Y-108890098D01*
X160295918Y-108890098D02*
X160373327Y-108967508D01*
X160373327Y-108967508D02*
X160412032Y-109044917D01*
X160179803Y-108077299D02*
X160179803Y-107999889D01*
X160179803Y-107999889D02*
X160218508Y-107922480D01*
X160218508Y-107922480D02*
X160257213Y-107883775D01*
X160257213Y-107883775D02*
X160334622Y-107845070D01*
X160334622Y-107845070D02*
X160489441Y-107806365D01*
X160489441Y-107806365D02*
X160682965Y-107806365D01*
X160682965Y-107806365D02*
X160837784Y-107845070D01*
X160837784Y-107845070D02*
X160915194Y-107883775D01*
X160915194Y-107883775D02*
X160953899Y-107922480D01*
X160953899Y-107922480D02*
X160992603Y-107999889D01*
X160992603Y-107999889D02*
X160992603Y-108077299D01*
X160992603Y-108077299D02*
X160953899Y-108154708D01*
X160953899Y-108154708D02*
X160915194Y-108193413D01*
X160915194Y-108193413D02*
X160837784Y-108232118D01*
X160837784Y-108232118D02*
X160682965Y-108270822D01*
X160682965Y-108270822D02*
X160489441Y-108270822D01*
X160489441Y-108270822D02*
X160334622Y-108232118D01*
X160334622Y-108232118D02*
X160257213Y-108193413D01*
X160257213Y-108193413D02*
X160218508Y-108154708D01*
X160218508Y-108154708D02*
X160179803Y-108077299D01*
X160179803Y-107303204D02*
X160179803Y-107225794D01*
X160179803Y-107225794D02*
X160218508Y-107148385D01*
X160218508Y-107148385D02*
X160257213Y-107109680D01*
X160257213Y-107109680D02*
X160334622Y-107070975D01*
X160334622Y-107070975D02*
X160489441Y-107032270D01*
X160489441Y-107032270D02*
X160682965Y-107032270D01*
X160682965Y-107032270D02*
X160837784Y-107070975D01*
X160837784Y-107070975D02*
X160915194Y-107109680D01*
X160915194Y-107109680D02*
X160953899Y-107148385D01*
X160953899Y-107148385D02*
X160992603Y-107225794D01*
X160992603Y-107225794D02*
X160992603Y-107303204D01*
X160992603Y-107303204D02*
X160953899Y-107380613D01*
X160953899Y-107380613D02*
X160915194Y-107419318D01*
X160915194Y-107419318D02*
X160837784Y-107458023D01*
X160837784Y-107458023D02*
X160682965Y-107496727D01*
X160682965Y-107496727D02*
X160489441Y-107496727D01*
X160489441Y-107496727D02*
X160334622Y-107458023D01*
X160334622Y-107458023D02*
X160257213Y-107419318D01*
X160257213Y-107419318D02*
X160218508Y-107380613D01*
X160218508Y-107380613D02*
X160179803Y-107303204D01*
X160450737Y-106683928D02*
X160992603Y-106683928D01*
X160528146Y-106683928D02*
X160489441Y-106645223D01*
X160489441Y-106645223D02*
X160450737Y-106567813D01*
X160450737Y-106567813D02*
X160450737Y-106451699D01*
X160450737Y-106451699D02*
X160489441Y-106374290D01*
X160489441Y-106374290D02*
X160566851Y-106335585D01*
X160566851Y-106335585D02*
X160992603Y-106335585D01*
X160992603Y-121380460D02*
X160992603Y-121844917D01*
X160992603Y-121612689D02*
X160179803Y-121612689D01*
X160179803Y-121612689D02*
X160295918Y-121690098D01*
X160295918Y-121690098D02*
X160373327Y-121767508D01*
X160373327Y-121767508D02*
X160412032Y-121844917D01*
X160179803Y-120877299D02*
X160179803Y-120799889D01*
X160179803Y-120799889D02*
X160218508Y-120722480D01*
X160218508Y-120722480D02*
X160257213Y-120683775D01*
X160257213Y-120683775D02*
X160334622Y-120645070D01*
X160334622Y-120645070D02*
X160489441Y-120606365D01*
X160489441Y-120606365D02*
X160682965Y-120606365D01*
X160682965Y-120606365D02*
X160837784Y-120645070D01*
X160837784Y-120645070D02*
X160915194Y-120683775D01*
X160915194Y-120683775D02*
X160953899Y-120722480D01*
X160953899Y-120722480D02*
X160992603Y-120799889D01*
X160992603Y-120799889D02*
X160992603Y-120877299D01*
X160992603Y-120877299D02*
X160953899Y-120954708D01*
X160953899Y-120954708D02*
X160915194Y-120993413D01*
X160915194Y-120993413D02*
X160837784Y-121032118D01*
X160837784Y-121032118D02*
X160682965Y-121070822D01*
X160682965Y-121070822D02*
X160489441Y-121070822D01*
X160489441Y-121070822D02*
X160334622Y-121032118D01*
X160334622Y-121032118D02*
X160257213Y-120993413D01*
X160257213Y-120993413D02*
X160218508Y-120954708D01*
X160218508Y-120954708D02*
X160179803Y-120877299D01*
X160179803Y-120103204D02*
X160179803Y-120025794D01*
X160179803Y-120025794D02*
X160218508Y-119948385D01*
X160218508Y-119948385D02*
X160257213Y-119909680D01*
X160257213Y-119909680D02*
X160334622Y-119870975D01*
X160334622Y-119870975D02*
X160489441Y-119832270D01*
X160489441Y-119832270D02*
X160682965Y-119832270D01*
X160682965Y-119832270D02*
X160837784Y-119870975D01*
X160837784Y-119870975D02*
X160915194Y-119909680D01*
X160915194Y-119909680D02*
X160953899Y-119948385D01*
X160953899Y-119948385D02*
X160992603Y-120025794D01*
X160992603Y-120025794D02*
X160992603Y-120103204D01*
X160992603Y-120103204D02*
X160953899Y-120180613D01*
X160953899Y-120180613D02*
X160915194Y-120219318D01*
X160915194Y-120219318D02*
X160837784Y-120258023D01*
X160837784Y-120258023D02*
X160682965Y-120296727D01*
X160682965Y-120296727D02*
X160489441Y-120296727D01*
X160489441Y-120296727D02*
X160334622Y-120258023D01*
X160334622Y-120258023D02*
X160257213Y-120219318D01*
X160257213Y-120219318D02*
X160218508Y-120180613D01*
X160218508Y-120180613D02*
X160179803Y-120103204D01*
X160450737Y-119483928D02*
X160992603Y-119483928D01*
X160528146Y-119483928D02*
X160489441Y-119445223D01*
X160489441Y-119445223D02*
X160450737Y-119367813D01*
X160450737Y-119367813D02*
X160450737Y-119251699D01*
X160450737Y-119251699D02*
X160489441Y-119174290D01*
X160489441Y-119174290D02*
X160566851Y-119135585D01*
X160566851Y-119135585D02*
X160992603Y-119135585D01*
X166292603Y-120580460D02*
X166292603Y-121044917D01*
X166292603Y-120812689D02*
X165479803Y-120812689D01*
X165479803Y-120812689D02*
X165595918Y-120890098D01*
X165595918Y-120890098D02*
X165673327Y-120967508D01*
X165673327Y-120967508D02*
X165712032Y-121044917D01*
X166292603Y-120232118D02*
X165479803Y-120232118D01*
X166292603Y-119767661D02*
X165828146Y-120116003D01*
X165479803Y-119767661D02*
X165944260Y-120232118D01*
X165992603Y-107680460D02*
X165992603Y-108144917D01*
X165992603Y-107912689D02*
X165179803Y-107912689D01*
X165179803Y-107912689D02*
X165295918Y-107990098D01*
X165295918Y-107990098D02*
X165373327Y-108067508D01*
X165373327Y-108067508D02*
X165412032Y-108144917D01*
X165992603Y-107332118D02*
X165179803Y-107332118D01*
X165992603Y-106867661D02*
X165528146Y-107216003D01*
X165179803Y-106867661D02*
X165644260Y-107332118D01*
X166092603Y-95080460D02*
X166092603Y-95544917D01*
X166092603Y-95312689D02*
X165279803Y-95312689D01*
X165279803Y-95312689D02*
X165395918Y-95390098D01*
X165395918Y-95390098D02*
X165473327Y-95467508D01*
X165473327Y-95467508D02*
X165512032Y-95544917D01*
X166092603Y-94732118D02*
X165279803Y-94732118D01*
X166092603Y-94267661D02*
X165628146Y-94616003D01*
X165279803Y-94267661D02*
X165744260Y-94732118D01*
X163219539Y-85192603D02*
X162755082Y-85192603D01*
X162987310Y-85192603D02*
X162987310Y-84379803D01*
X162987310Y-84379803D02*
X162909901Y-84495918D01*
X162909901Y-84495918D02*
X162832491Y-84573327D01*
X162832491Y-84573327D02*
X162755082Y-84612032D01*
X163567881Y-85192603D02*
X163567881Y-84379803D01*
X164032338Y-85192603D02*
X163683996Y-84728146D01*
X164032338Y-84379803D02*
X163567881Y-84844260D01*
X112293786Y-120092603D02*
X112293786Y-119279803D01*
X112293786Y-119279803D02*
X112564720Y-119860375D01*
X112564720Y-119860375D02*
X112835653Y-119279803D01*
X112835653Y-119279803D02*
X112835653Y-120092603D01*
X113183996Y-119860375D02*
X113571043Y-119860375D01*
X113106586Y-120092603D02*
X113377519Y-119279803D01*
X113377519Y-119279803D02*
X113648453Y-120092603D01*
X113841977Y-119279803D02*
X114383843Y-120092603D01*
X114383843Y-119279803D02*
X113841977Y-120092603D01*
X114616072Y-119279803D02*
X115119234Y-119279803D01*
X115119234Y-119279803D02*
X114848300Y-119589441D01*
X114848300Y-119589441D02*
X114964415Y-119589441D01*
X114964415Y-119589441D02*
X115041824Y-119628146D01*
X115041824Y-119628146D02*
X115080529Y-119666851D01*
X115080529Y-119666851D02*
X115119234Y-119744260D01*
X115119234Y-119744260D02*
X115119234Y-119937784D01*
X115119234Y-119937784D02*
X115080529Y-120015194D01*
X115080529Y-120015194D02*
X115041824Y-120053899D01*
X115041824Y-120053899D02*
X114964415Y-120092603D01*
X114964415Y-120092603D02*
X114732186Y-120092603D01*
X114732186Y-120092603D02*
X114654777Y-120053899D01*
X114654777Y-120053899D02*
X114616072Y-120015194D01*
X115622395Y-119279803D02*
X115699805Y-119279803D01*
X115699805Y-119279803D02*
X115777214Y-119318508D01*
X115777214Y-119318508D02*
X115815919Y-119357213D01*
X115815919Y-119357213D02*
X115854624Y-119434622D01*
X115854624Y-119434622D02*
X115893329Y-119589441D01*
X115893329Y-119589441D02*
X115893329Y-119782965D01*
X115893329Y-119782965D02*
X115854624Y-119937784D01*
X115854624Y-119937784D02*
X115815919Y-120015194D01*
X115815919Y-120015194D02*
X115777214Y-120053899D01*
X115777214Y-120053899D02*
X115699805Y-120092603D01*
X115699805Y-120092603D02*
X115622395Y-120092603D01*
X115622395Y-120092603D02*
X115544986Y-120053899D01*
X115544986Y-120053899D02*
X115506281Y-120015194D01*
X115506281Y-120015194D02*
X115467576Y-119937784D01*
X115467576Y-119937784D02*
X115428872Y-119782965D01*
X115428872Y-119782965D02*
X115428872Y-119589441D01*
X115428872Y-119589441D02*
X115467576Y-119434622D01*
X115467576Y-119434622D02*
X115506281Y-119357213D01*
X115506281Y-119357213D02*
X115544986Y-119318508D01*
X115544986Y-119318508D02*
X115622395Y-119279803D01*
X116667424Y-120092603D02*
X116202967Y-120092603D01*
X116435195Y-120092603D02*
X116435195Y-119279803D01*
X116435195Y-119279803D02*
X116357786Y-119395918D01*
X116357786Y-119395918D02*
X116280376Y-119473327D01*
X116280376Y-119473327D02*
X116202967Y-119512032D01*
X117170585Y-119279803D02*
X117247995Y-119279803D01*
X117247995Y-119279803D02*
X117325404Y-119318508D01*
X117325404Y-119318508D02*
X117364109Y-119357213D01*
X117364109Y-119357213D02*
X117402814Y-119434622D01*
X117402814Y-119434622D02*
X117441519Y-119589441D01*
X117441519Y-119589441D02*
X117441519Y-119782965D01*
X117441519Y-119782965D02*
X117402814Y-119937784D01*
X117402814Y-119937784D02*
X117364109Y-120015194D01*
X117364109Y-120015194D02*
X117325404Y-120053899D01*
X117325404Y-120053899D02*
X117247995Y-120092603D01*
X117247995Y-120092603D02*
X117170585Y-120092603D01*
X117170585Y-120092603D02*
X117093176Y-120053899D01*
X117093176Y-120053899D02*
X117054471Y-120015194D01*
X117054471Y-120015194D02*
X117015766Y-119937784D01*
X117015766Y-119937784D02*
X116977062Y-119782965D01*
X116977062Y-119782965D02*
X116977062Y-119589441D01*
X116977062Y-119589441D02*
X117015766Y-119434622D01*
X117015766Y-119434622D02*
X117054471Y-119357213D01*
X117054471Y-119357213D02*
X117093176Y-119318508D01*
X117093176Y-119318508D02*
X117170585Y-119279803D01*
X117751157Y-119357213D02*
X117789861Y-119318508D01*
X117789861Y-119318508D02*
X117867271Y-119279803D01*
X117867271Y-119279803D02*
X118060795Y-119279803D01*
X118060795Y-119279803D02*
X118138204Y-119318508D01*
X118138204Y-119318508D02*
X118176909Y-119357213D01*
X118176909Y-119357213D02*
X118215614Y-119434622D01*
X118215614Y-119434622D02*
X118215614Y-119512032D01*
X118215614Y-119512032D02*
X118176909Y-119628146D01*
X118176909Y-119628146D02*
X117712452Y-120092603D01*
X117712452Y-120092603D02*
X118215614Y-120092603D01*
X116855082Y-95453899D02*
X116971196Y-95492603D01*
X116971196Y-95492603D02*
X117164720Y-95492603D01*
X117164720Y-95492603D02*
X117242129Y-95453899D01*
X117242129Y-95453899D02*
X117280834Y-95415194D01*
X117280834Y-95415194D02*
X117319539Y-95337784D01*
X117319539Y-95337784D02*
X117319539Y-95260375D01*
X117319539Y-95260375D02*
X117280834Y-95182965D01*
X117280834Y-95182965D02*
X117242129Y-95144260D01*
X117242129Y-95144260D02*
X117164720Y-95105556D01*
X117164720Y-95105556D02*
X117009901Y-95066851D01*
X117009901Y-95066851D02*
X116932491Y-95028146D01*
X116932491Y-95028146D02*
X116893786Y-94989441D01*
X116893786Y-94989441D02*
X116855082Y-94912032D01*
X116855082Y-94912032D02*
X116855082Y-94834622D01*
X116855082Y-94834622D02*
X116893786Y-94757213D01*
X116893786Y-94757213D02*
X116932491Y-94718508D01*
X116932491Y-94718508D02*
X117009901Y-94679803D01*
X117009901Y-94679803D02*
X117203424Y-94679803D01*
X117203424Y-94679803D02*
X117319539Y-94718508D01*
X117629177Y-95453899D02*
X117745291Y-95492603D01*
X117745291Y-95492603D02*
X117938815Y-95492603D01*
X117938815Y-95492603D02*
X118016224Y-95453899D01*
X118016224Y-95453899D02*
X118054929Y-95415194D01*
X118054929Y-95415194D02*
X118093634Y-95337784D01*
X118093634Y-95337784D02*
X118093634Y-95260375D01*
X118093634Y-95260375D02*
X118054929Y-95182965D01*
X118054929Y-95182965D02*
X118016224Y-95144260D01*
X118016224Y-95144260D02*
X117938815Y-95105556D01*
X117938815Y-95105556D02*
X117783996Y-95066851D01*
X117783996Y-95066851D02*
X117706586Y-95028146D01*
X117706586Y-95028146D02*
X117667881Y-94989441D01*
X117667881Y-94989441D02*
X117629177Y-94912032D01*
X117629177Y-94912032D02*
X117629177Y-94834622D01*
X117629177Y-94834622D02*
X117667881Y-94757213D01*
X117667881Y-94757213D02*
X117706586Y-94718508D01*
X117706586Y-94718508D02*
X117783996Y-94679803D01*
X117783996Y-94679803D02*
X117977519Y-94679803D01*
X117977519Y-94679803D02*
X118093634Y-94718508D01*
X118441976Y-95492603D02*
X118441976Y-94679803D01*
X118441976Y-94679803D02*
X118635500Y-94679803D01*
X118635500Y-94679803D02*
X118751614Y-94718508D01*
X118751614Y-94718508D02*
X118829024Y-94795918D01*
X118829024Y-94795918D02*
X118867729Y-94873327D01*
X118867729Y-94873327D02*
X118906433Y-95028146D01*
X118906433Y-95028146D02*
X118906433Y-95144260D01*
X118906433Y-95144260D02*
X118867729Y-95299079D01*
X118867729Y-95299079D02*
X118829024Y-95376489D01*
X118829024Y-95376489D02*
X118751614Y-95453899D01*
X118751614Y-95453899D02*
X118635500Y-95492603D01*
X118635500Y-95492603D02*
X118441976Y-95492603D01*
X120299805Y-95492603D02*
X119835348Y-95492603D01*
X120067576Y-95492603D02*
X120067576Y-94679803D01*
X120067576Y-94679803D02*
X119990167Y-94795918D01*
X119990167Y-94795918D02*
X119912757Y-94873327D01*
X119912757Y-94873327D02*
X119835348Y-94912032D01*
X120570738Y-94679803D02*
X121073900Y-94679803D01*
X121073900Y-94679803D02*
X120802966Y-94989441D01*
X120802966Y-94989441D02*
X120919081Y-94989441D01*
X120919081Y-94989441D02*
X120996490Y-95028146D01*
X120996490Y-95028146D02*
X121035195Y-95066851D01*
X121035195Y-95066851D02*
X121073900Y-95144260D01*
X121073900Y-95144260D02*
X121073900Y-95337784D01*
X121073900Y-95337784D02*
X121035195Y-95415194D01*
X121035195Y-95415194D02*
X120996490Y-95453899D01*
X120996490Y-95453899D02*
X120919081Y-95492603D01*
X120919081Y-95492603D02*
X120686852Y-95492603D01*
X120686852Y-95492603D02*
X120609443Y-95453899D01*
X120609443Y-95453899D02*
X120570738Y-95415194D01*
X121577061Y-94679803D02*
X121654471Y-94679803D01*
X121654471Y-94679803D02*
X121731880Y-94718508D01*
X121731880Y-94718508D02*
X121770585Y-94757213D01*
X121770585Y-94757213D02*
X121809290Y-94834622D01*
X121809290Y-94834622D02*
X121847995Y-94989441D01*
X121847995Y-94989441D02*
X121847995Y-95182965D01*
X121847995Y-95182965D02*
X121809290Y-95337784D01*
X121809290Y-95337784D02*
X121770585Y-95415194D01*
X121770585Y-95415194D02*
X121731880Y-95453899D01*
X121731880Y-95453899D02*
X121654471Y-95492603D01*
X121654471Y-95492603D02*
X121577061Y-95492603D01*
X121577061Y-95492603D02*
X121499652Y-95453899D01*
X121499652Y-95453899D02*
X121460947Y-95415194D01*
X121460947Y-95415194D02*
X121422242Y-95337784D01*
X121422242Y-95337784D02*
X121383538Y-95182965D01*
X121383538Y-95182965D02*
X121383538Y-94989441D01*
X121383538Y-94989441D02*
X121422242Y-94834622D01*
X121422242Y-94834622D02*
X121460947Y-94757213D01*
X121460947Y-94757213D02*
X121499652Y-94718508D01*
X121499652Y-94718508D02*
X121577061Y-94679803D01*
X122544680Y-94679803D02*
X122389861Y-94679803D01*
X122389861Y-94679803D02*
X122312452Y-94718508D01*
X122312452Y-94718508D02*
X122273747Y-94757213D01*
X122273747Y-94757213D02*
X122196337Y-94873327D01*
X122196337Y-94873327D02*
X122157633Y-95028146D01*
X122157633Y-95028146D02*
X122157633Y-95337784D01*
X122157633Y-95337784D02*
X122196337Y-95415194D01*
X122196337Y-95415194D02*
X122235042Y-95453899D01*
X122235042Y-95453899D02*
X122312452Y-95492603D01*
X122312452Y-95492603D02*
X122467271Y-95492603D01*
X122467271Y-95492603D02*
X122544680Y-95453899D01*
X122544680Y-95453899D02*
X122583385Y-95415194D01*
X122583385Y-95415194D02*
X122622090Y-95337784D01*
X122622090Y-95337784D02*
X122622090Y-95144260D01*
X122622090Y-95144260D02*
X122583385Y-95066851D01*
X122583385Y-95066851D02*
X122544680Y-95028146D01*
X122544680Y-95028146D02*
X122467271Y-94989441D01*
X122467271Y-94989441D02*
X122312452Y-94989441D01*
X122312452Y-94989441D02*
X122235042Y-95028146D01*
X122235042Y-95028146D02*
X122196337Y-95066851D01*
X122196337Y-95066851D02*
X122157633Y-95144260D01*
X123744527Y-94679803D02*
X123899346Y-94679803D01*
X123899346Y-94679803D02*
X123976756Y-94718508D01*
X123976756Y-94718508D02*
X124054165Y-94795918D01*
X124054165Y-94795918D02*
X124092870Y-94950737D01*
X124092870Y-94950737D02*
X124092870Y-95221670D01*
X124092870Y-95221670D02*
X124054165Y-95376489D01*
X124054165Y-95376489D02*
X123976756Y-95453899D01*
X123976756Y-95453899D02*
X123899346Y-95492603D01*
X123899346Y-95492603D02*
X123744527Y-95492603D01*
X123744527Y-95492603D02*
X123667118Y-95453899D01*
X123667118Y-95453899D02*
X123589708Y-95376489D01*
X123589708Y-95376489D02*
X123551004Y-95221670D01*
X123551004Y-95221670D02*
X123551004Y-94950737D01*
X123551004Y-94950737D02*
X123589708Y-94795918D01*
X123589708Y-94795918D02*
X123667118Y-94718508D01*
X123667118Y-94718508D02*
X123744527Y-94679803D01*
X124828261Y-95492603D02*
X124441213Y-95492603D01*
X124441213Y-95492603D02*
X124441213Y-94679803D01*
X125099194Y-95066851D02*
X125370128Y-95066851D01*
X125486242Y-95492603D02*
X125099194Y-95492603D01*
X125099194Y-95492603D02*
X125099194Y-94679803D01*
X125099194Y-94679803D02*
X125486242Y-94679803D01*
X125834584Y-95492603D02*
X125834584Y-94679803D01*
X125834584Y-94679803D02*
X126028108Y-94679803D01*
X126028108Y-94679803D02*
X126144222Y-94718508D01*
X126144222Y-94718508D02*
X126221632Y-94795918D01*
X126221632Y-94795918D02*
X126260337Y-94873327D01*
X126260337Y-94873327D02*
X126299041Y-95028146D01*
X126299041Y-95028146D02*
X126299041Y-95144260D01*
X126299041Y-95144260D02*
X126260337Y-95299079D01*
X126260337Y-95299079D02*
X126221632Y-95376489D01*
X126221632Y-95376489D02*
X126144222Y-95453899D01*
X126144222Y-95453899D02*
X126028108Y-95492603D01*
X126028108Y-95492603D02*
X125834584Y-95492603D01*
X144155082Y-104160375D02*
X144542129Y-104160375D01*
X144077672Y-104392603D02*
X144348605Y-103579803D01*
X144348605Y-103579803D02*
X144619539Y-104392603D01*
X144890472Y-104392603D02*
X144890472Y-103850737D01*
X144890472Y-104005556D02*
X144929177Y-103928146D01*
X144929177Y-103928146D02*
X144967882Y-103889441D01*
X144967882Y-103889441D02*
X145045291Y-103850737D01*
X145045291Y-103850737D02*
X145122701Y-103850737D01*
X145741977Y-104392603D02*
X145741977Y-103579803D01*
X145741977Y-104353899D02*
X145664568Y-104392603D01*
X145664568Y-104392603D02*
X145509749Y-104392603D01*
X145509749Y-104392603D02*
X145432339Y-104353899D01*
X145432339Y-104353899D02*
X145393634Y-104315194D01*
X145393634Y-104315194D02*
X145354930Y-104237784D01*
X145354930Y-104237784D02*
X145354930Y-104005556D01*
X145354930Y-104005556D02*
X145393634Y-103928146D01*
X145393634Y-103928146D02*
X145432339Y-103889441D01*
X145432339Y-103889441D02*
X145509749Y-103850737D01*
X145509749Y-103850737D02*
X145664568Y-103850737D01*
X145664568Y-103850737D02*
X145741977Y-103889441D01*
X146477367Y-103850737D02*
X146477367Y-104392603D01*
X146129024Y-103850737D02*
X146129024Y-104276489D01*
X146129024Y-104276489D02*
X146167729Y-104353899D01*
X146167729Y-104353899D02*
X146245139Y-104392603D01*
X146245139Y-104392603D02*
X146361253Y-104392603D01*
X146361253Y-104392603D02*
X146438662Y-104353899D01*
X146438662Y-104353899D02*
X146477367Y-104315194D01*
X146864414Y-104392603D02*
X146864414Y-103850737D01*
X146864414Y-103579803D02*
X146825710Y-103618508D01*
X146825710Y-103618508D02*
X146864414Y-103657213D01*
X146864414Y-103657213D02*
X146903119Y-103618508D01*
X146903119Y-103618508D02*
X146864414Y-103579803D01*
X146864414Y-103579803D02*
X146864414Y-103657213D01*
X147251462Y-103850737D02*
X147251462Y-104392603D01*
X147251462Y-103928146D02*
X147290167Y-103889441D01*
X147290167Y-103889441D02*
X147367577Y-103850737D01*
X147367577Y-103850737D02*
X147483691Y-103850737D01*
X147483691Y-103850737D02*
X147561100Y-103889441D01*
X147561100Y-103889441D02*
X147599805Y-103966851D01*
X147599805Y-103966851D02*
X147599805Y-104392603D01*
X148102967Y-104392603D02*
X148025557Y-104353899D01*
X148025557Y-104353899D02*
X147986852Y-104315194D01*
X147986852Y-104315194D02*
X147948148Y-104237784D01*
X147948148Y-104237784D02*
X147948148Y-104005556D01*
X147948148Y-104005556D02*
X147986852Y-103928146D01*
X147986852Y-103928146D02*
X148025557Y-103889441D01*
X148025557Y-103889441D02*
X148102967Y-103850737D01*
X148102967Y-103850737D02*
X148219081Y-103850737D01*
X148219081Y-103850737D02*
X148296490Y-103889441D01*
X148296490Y-103889441D02*
X148335195Y-103928146D01*
X148335195Y-103928146D02*
X148373900Y-104005556D01*
X148373900Y-104005556D02*
X148373900Y-104237784D01*
X148373900Y-104237784D02*
X148335195Y-104315194D01*
X148335195Y-104315194D02*
X148296490Y-104353899D01*
X148296490Y-104353899D02*
X148219081Y-104392603D01*
X148219081Y-104392603D02*
X148102967Y-104392603D01*
X149341518Y-104392603D02*
X149341518Y-103579803D01*
X149341518Y-103579803D02*
X149805975Y-104392603D01*
X149805975Y-104392603D02*
X149805975Y-103579803D01*
X150541366Y-104392603D02*
X150541366Y-103966851D01*
X150541366Y-103966851D02*
X150502661Y-103889441D01*
X150502661Y-103889441D02*
X150425252Y-103850737D01*
X150425252Y-103850737D02*
X150270433Y-103850737D01*
X150270433Y-103850737D02*
X150193023Y-103889441D01*
X150541366Y-104353899D02*
X150463957Y-104392603D01*
X150463957Y-104392603D02*
X150270433Y-104392603D01*
X150270433Y-104392603D02*
X150193023Y-104353899D01*
X150193023Y-104353899D02*
X150154319Y-104276489D01*
X150154319Y-104276489D02*
X150154319Y-104199079D01*
X150154319Y-104199079D02*
X150193023Y-104121670D01*
X150193023Y-104121670D02*
X150270433Y-104082965D01*
X150270433Y-104082965D02*
X150463957Y-104082965D01*
X150463957Y-104082965D02*
X150541366Y-104044260D01*
X150928413Y-103850737D02*
X150928413Y-104392603D01*
X150928413Y-103928146D02*
X150967118Y-103889441D01*
X150967118Y-103889441D02*
X151044528Y-103850737D01*
X151044528Y-103850737D02*
X151160642Y-103850737D01*
X151160642Y-103850737D02*
X151238051Y-103889441D01*
X151238051Y-103889441D02*
X151276756Y-103966851D01*
X151276756Y-103966851D02*
X151276756Y-104392603D01*
X151779918Y-104392603D02*
X151702508Y-104353899D01*
X151702508Y-104353899D02*
X151663803Y-104315194D01*
X151663803Y-104315194D02*
X151625099Y-104237784D01*
X151625099Y-104237784D02*
X151625099Y-104005556D01*
X151625099Y-104005556D02*
X151663803Y-103928146D01*
X151663803Y-103928146D02*
X151702508Y-103889441D01*
X151702508Y-103889441D02*
X151779918Y-103850737D01*
X151779918Y-103850737D02*
X151896032Y-103850737D01*
X151896032Y-103850737D02*
X151973441Y-103889441D01*
X151973441Y-103889441D02*
X152012146Y-103928146D01*
X152012146Y-103928146D02*
X152050851Y-104005556D01*
X152050851Y-104005556D02*
X152050851Y-104237784D01*
X152050851Y-104237784D02*
X152012146Y-104315194D01*
X152012146Y-104315194D02*
X151973441Y-104353899D01*
X151973441Y-104353899D02*
X151896032Y-104392603D01*
X151896032Y-104392603D02*
X151779918Y-104392603D01*
D12*
X136238095Y-109157419D02*
X136238095Y-109966942D01*
X136238095Y-109966942D02*
X136285714Y-110062180D01*
X136285714Y-110062180D02*
X136333333Y-110109800D01*
X136333333Y-110109800D02*
X136428571Y-110157419D01*
X136428571Y-110157419D02*
X136619047Y-110157419D01*
X136619047Y-110157419D02*
X136714285Y-110109800D01*
X136714285Y-110109800D02*
X136761904Y-110062180D01*
X136761904Y-110062180D02*
X136809523Y-109966942D01*
X136809523Y-109966942D02*
X136809523Y-109157419D01*
X137238095Y-109252657D02*
X137285714Y-109205038D01*
X137285714Y-109205038D02*
X137380952Y-109157419D01*
X137380952Y-109157419D02*
X137619047Y-109157419D01*
X137619047Y-109157419D02*
X137714285Y-109205038D01*
X137714285Y-109205038D02*
X137761904Y-109252657D01*
X137761904Y-109252657D02*
X137809523Y-109347895D01*
X137809523Y-109347895D02*
X137809523Y-109443133D01*
X137809523Y-109443133D02*
X137761904Y-109585990D01*
X137761904Y-109585990D02*
X137190476Y-110157419D01*
X137190476Y-110157419D02*
X137809523Y-110157419D01*
X119259133Y-87357544D02*
X119959133Y-87124211D01*
X119959133Y-87124211D02*
X119259133Y-86890877D01*
X119892466Y-86257544D02*
X119925800Y-86290877D01*
X119925800Y-86290877D02*
X119959133Y-86390877D01*
X119959133Y-86390877D02*
X119959133Y-86457544D01*
X119959133Y-86457544D02*
X119925800Y-86557544D01*
X119925800Y-86557544D02*
X119859133Y-86624211D01*
X119859133Y-86624211D02*
X119792466Y-86657544D01*
X119792466Y-86657544D02*
X119659133Y-86690877D01*
X119659133Y-86690877D02*
X119559133Y-86690877D01*
X119559133Y-86690877D02*
X119425800Y-86657544D01*
X119425800Y-86657544D02*
X119359133Y-86624211D01*
X119359133Y-86624211D02*
X119292466Y-86557544D01*
X119292466Y-86557544D02*
X119259133Y-86457544D01*
X119259133Y-86457544D02*
X119259133Y-86390877D01*
X119259133Y-86390877D02*
X119292466Y-86290877D01*
X119292466Y-86290877D02*
X119325800Y-86257544D01*
X119892466Y-85557544D02*
X119925800Y-85590877D01*
X119925800Y-85590877D02*
X119959133Y-85690877D01*
X119959133Y-85690877D02*
X119959133Y-85757544D01*
X119959133Y-85757544D02*
X119925800Y-85857544D01*
X119925800Y-85857544D02*
X119859133Y-85924211D01*
X119859133Y-85924211D02*
X119792466Y-85957544D01*
X119792466Y-85957544D02*
X119659133Y-85990877D01*
X119659133Y-85990877D02*
X119559133Y-85990877D01*
X119559133Y-85990877D02*
X119425800Y-85957544D01*
X119425800Y-85957544D02*
X119359133Y-85924211D01*
X119359133Y-85924211D02*
X119292466Y-85857544D01*
X119292466Y-85857544D02*
X119259133Y-85757544D01*
X119259133Y-85757544D02*
X119259133Y-85690877D01*
X119259133Y-85690877D02*
X119292466Y-85590877D01*
X119292466Y-85590877D02*
X119325800Y-85557544D01*
X116752466Y-86890877D02*
X116719133Y-86957544D01*
X116719133Y-86957544D02*
X116719133Y-87057544D01*
X116719133Y-87057544D02*
X116752466Y-87157544D01*
X116752466Y-87157544D02*
X116819133Y-87224211D01*
X116819133Y-87224211D02*
X116885800Y-87257544D01*
X116885800Y-87257544D02*
X117019133Y-87290877D01*
X117019133Y-87290877D02*
X117119133Y-87290877D01*
X117119133Y-87290877D02*
X117252466Y-87257544D01*
X117252466Y-87257544D02*
X117319133Y-87224211D01*
X117319133Y-87224211D02*
X117385800Y-87157544D01*
X117385800Y-87157544D02*
X117419133Y-87057544D01*
X117419133Y-87057544D02*
X117419133Y-86990877D01*
X117419133Y-86990877D02*
X117385800Y-86890877D01*
X117385800Y-86890877D02*
X117352466Y-86857544D01*
X117352466Y-86857544D02*
X117119133Y-86857544D01*
X117119133Y-86857544D02*
X117119133Y-86990877D01*
X117419133Y-86557544D02*
X116719133Y-86557544D01*
X116719133Y-86557544D02*
X117419133Y-86157544D01*
X117419133Y-86157544D02*
X116719133Y-86157544D01*
X117419133Y-85824211D02*
X116719133Y-85824211D01*
X116719133Y-85824211D02*
X116719133Y-85657544D01*
X116719133Y-85657544D02*
X116752466Y-85557544D01*
X116752466Y-85557544D02*
X116819133Y-85490878D01*
X116819133Y-85490878D02*
X116885800Y-85457544D01*
X116885800Y-85457544D02*
X117019133Y-85424211D01*
X117019133Y-85424211D02*
X117119133Y-85424211D01*
X117119133Y-85424211D02*
X117252466Y-85457544D01*
X117252466Y-85457544D02*
X117319133Y-85490878D01*
X117319133Y-85490878D02*
X117385800Y-85557544D01*
X117385800Y-85557544D02*
X117419133Y-85657544D01*
X117419133Y-85657544D02*
X117419133Y-85824211D01*
X122465800Y-87290877D02*
X122499133Y-87190877D01*
X122499133Y-87190877D02*
X122499133Y-87024211D01*
X122499133Y-87024211D02*
X122465800Y-86957544D01*
X122465800Y-86957544D02*
X122432466Y-86924211D01*
X122432466Y-86924211D02*
X122365800Y-86890877D01*
X122365800Y-86890877D02*
X122299133Y-86890877D01*
X122299133Y-86890877D02*
X122232466Y-86924211D01*
X122232466Y-86924211D02*
X122199133Y-86957544D01*
X122199133Y-86957544D02*
X122165800Y-87024211D01*
X122165800Y-87024211D02*
X122132466Y-87157544D01*
X122132466Y-87157544D02*
X122099133Y-87224211D01*
X122099133Y-87224211D02*
X122065800Y-87257544D01*
X122065800Y-87257544D02*
X121999133Y-87290877D01*
X121999133Y-87290877D02*
X121932466Y-87290877D01*
X121932466Y-87290877D02*
X121865800Y-87257544D01*
X121865800Y-87257544D02*
X121832466Y-87224211D01*
X121832466Y-87224211D02*
X121799133Y-87157544D01*
X121799133Y-87157544D02*
X121799133Y-86990877D01*
X121799133Y-86990877D02*
X121832466Y-86890877D01*
X122432466Y-86190877D02*
X122465800Y-86224210D01*
X122465800Y-86224210D02*
X122499133Y-86324210D01*
X122499133Y-86324210D02*
X122499133Y-86390877D01*
X122499133Y-86390877D02*
X122465800Y-86490877D01*
X122465800Y-86490877D02*
X122399133Y-86557544D01*
X122399133Y-86557544D02*
X122332466Y-86590877D01*
X122332466Y-86590877D02*
X122199133Y-86624210D01*
X122199133Y-86624210D02*
X122099133Y-86624210D01*
X122099133Y-86624210D02*
X121965800Y-86590877D01*
X121965800Y-86590877D02*
X121899133Y-86557544D01*
X121899133Y-86557544D02*
X121832466Y-86490877D01*
X121832466Y-86490877D02*
X121799133Y-86390877D01*
X121799133Y-86390877D02*
X121799133Y-86324210D01*
X121799133Y-86324210D02*
X121832466Y-86224210D01*
X121832466Y-86224210D02*
X121865800Y-86190877D01*
X122499133Y-85557544D02*
X122499133Y-85890877D01*
X122499133Y-85890877D02*
X121799133Y-85890877D01*
X125005800Y-87290877D02*
X125039133Y-87190877D01*
X125039133Y-87190877D02*
X125039133Y-87024211D01*
X125039133Y-87024211D02*
X125005800Y-86957544D01*
X125005800Y-86957544D02*
X124972466Y-86924211D01*
X124972466Y-86924211D02*
X124905800Y-86890877D01*
X124905800Y-86890877D02*
X124839133Y-86890877D01*
X124839133Y-86890877D02*
X124772466Y-86924211D01*
X124772466Y-86924211D02*
X124739133Y-86957544D01*
X124739133Y-86957544D02*
X124705800Y-87024211D01*
X124705800Y-87024211D02*
X124672466Y-87157544D01*
X124672466Y-87157544D02*
X124639133Y-87224211D01*
X124639133Y-87224211D02*
X124605800Y-87257544D01*
X124605800Y-87257544D02*
X124539133Y-87290877D01*
X124539133Y-87290877D02*
X124472466Y-87290877D01*
X124472466Y-87290877D02*
X124405800Y-87257544D01*
X124405800Y-87257544D02*
X124372466Y-87224211D01*
X124372466Y-87224211D02*
X124339133Y-87157544D01*
X124339133Y-87157544D02*
X124339133Y-86990877D01*
X124339133Y-86990877D02*
X124372466Y-86890877D01*
X125039133Y-86590877D02*
X124339133Y-86590877D01*
X124339133Y-86590877D02*
X124339133Y-86424210D01*
X124339133Y-86424210D02*
X124372466Y-86324210D01*
X124372466Y-86324210D02*
X124439133Y-86257544D01*
X124439133Y-86257544D02*
X124505800Y-86224210D01*
X124505800Y-86224210D02*
X124639133Y-86190877D01*
X124639133Y-86190877D02*
X124739133Y-86190877D01*
X124739133Y-86190877D02*
X124872466Y-86224210D01*
X124872466Y-86224210D02*
X124939133Y-86257544D01*
X124939133Y-86257544D02*
X125005800Y-86324210D01*
X125005800Y-86324210D02*
X125039133Y-86424210D01*
X125039133Y-86424210D02*
X125039133Y-86590877D01*
X124839133Y-85924210D02*
X124839133Y-85590877D01*
X125039133Y-85990877D02*
X124339133Y-85757544D01*
X124339133Y-85757544D02*
X125039133Y-85524210D01*
X122238095Y-124757419D02*
X122238095Y-125566942D01*
X122238095Y-125566942D02*
X122285714Y-125662180D01*
X122285714Y-125662180D02*
X122333333Y-125709800D01*
X122333333Y-125709800D02*
X122428571Y-125757419D01*
X122428571Y-125757419D02*
X122619047Y-125757419D01*
X122619047Y-125757419D02*
X122714285Y-125709800D01*
X122714285Y-125709800D02*
X122761904Y-125662180D01*
X122761904Y-125662180D02*
X122809523Y-125566942D01*
X122809523Y-125566942D02*
X122809523Y-124757419D01*
X123809523Y-125757419D02*
X123238095Y-125757419D01*
X123523809Y-125757419D02*
X123523809Y-124757419D01*
X123523809Y-124757419D02*
X123428571Y-124900276D01*
X123428571Y-124900276D02*
X123333333Y-124995514D01*
X123333333Y-124995514D02*
X123238095Y-125043133D01*
X119679133Y-117067544D02*
X120379133Y-116834211D01*
X120379133Y-116834211D02*
X119679133Y-116600877D01*
X120312466Y-115967544D02*
X120345800Y-116000877D01*
X120345800Y-116000877D02*
X120379133Y-116100877D01*
X120379133Y-116100877D02*
X120379133Y-116167544D01*
X120379133Y-116167544D02*
X120345800Y-116267544D01*
X120345800Y-116267544D02*
X120279133Y-116334211D01*
X120279133Y-116334211D02*
X120212466Y-116367544D01*
X120212466Y-116367544D02*
X120079133Y-116400877D01*
X120079133Y-116400877D02*
X119979133Y-116400877D01*
X119979133Y-116400877D02*
X119845800Y-116367544D01*
X119845800Y-116367544D02*
X119779133Y-116334211D01*
X119779133Y-116334211D02*
X119712466Y-116267544D01*
X119712466Y-116267544D02*
X119679133Y-116167544D01*
X119679133Y-116167544D02*
X119679133Y-116100877D01*
X119679133Y-116100877D02*
X119712466Y-116000877D01*
X119712466Y-116000877D02*
X119745800Y-115967544D01*
X120312466Y-115267544D02*
X120345800Y-115300877D01*
X120345800Y-115300877D02*
X120379133Y-115400877D01*
X120379133Y-115400877D02*
X120379133Y-115467544D01*
X120379133Y-115467544D02*
X120345800Y-115567544D01*
X120345800Y-115567544D02*
X120279133Y-115634211D01*
X120279133Y-115634211D02*
X120212466Y-115667544D01*
X120212466Y-115667544D02*
X120079133Y-115700877D01*
X120079133Y-115700877D02*
X119979133Y-115700877D01*
X119979133Y-115700877D02*
X119845800Y-115667544D01*
X119845800Y-115667544D02*
X119779133Y-115634211D01*
X119779133Y-115634211D02*
X119712466Y-115567544D01*
X119712466Y-115567544D02*
X119679133Y-115467544D01*
X119679133Y-115467544D02*
X119679133Y-115400877D01*
X119679133Y-115400877D02*
X119712466Y-115300877D01*
X119712466Y-115300877D02*
X119745800Y-115267544D01*
X115345800Y-117000877D02*
X115379133Y-116900877D01*
X115379133Y-116900877D02*
X115379133Y-116734211D01*
X115379133Y-116734211D02*
X115345800Y-116667544D01*
X115345800Y-116667544D02*
X115312466Y-116634211D01*
X115312466Y-116634211D02*
X115245800Y-116600877D01*
X115245800Y-116600877D02*
X115179133Y-116600877D01*
X115179133Y-116600877D02*
X115112466Y-116634211D01*
X115112466Y-116634211D02*
X115079133Y-116667544D01*
X115079133Y-116667544D02*
X115045800Y-116734211D01*
X115045800Y-116734211D02*
X115012466Y-116867544D01*
X115012466Y-116867544D02*
X114979133Y-116934211D01*
X114979133Y-116934211D02*
X114945800Y-116967544D01*
X114945800Y-116967544D02*
X114879133Y-117000877D01*
X114879133Y-117000877D02*
X114812466Y-117000877D01*
X114812466Y-117000877D02*
X114745800Y-116967544D01*
X114745800Y-116967544D02*
X114712466Y-116934211D01*
X114712466Y-116934211D02*
X114679133Y-116867544D01*
X114679133Y-116867544D02*
X114679133Y-116700877D01*
X114679133Y-116700877D02*
X114712466Y-116600877D01*
X115312466Y-115900877D02*
X115345800Y-115934210D01*
X115345800Y-115934210D02*
X115379133Y-116034210D01*
X115379133Y-116034210D02*
X115379133Y-116100877D01*
X115379133Y-116100877D02*
X115345800Y-116200877D01*
X115345800Y-116200877D02*
X115279133Y-116267544D01*
X115279133Y-116267544D02*
X115212466Y-116300877D01*
X115212466Y-116300877D02*
X115079133Y-116334210D01*
X115079133Y-116334210D02*
X114979133Y-116334210D01*
X114979133Y-116334210D02*
X114845800Y-116300877D01*
X114845800Y-116300877D02*
X114779133Y-116267544D01*
X114779133Y-116267544D02*
X114712466Y-116200877D01*
X114712466Y-116200877D02*
X114679133Y-116100877D01*
X114679133Y-116100877D02*
X114679133Y-116034210D01*
X114679133Y-116034210D02*
X114712466Y-115934210D01*
X114712466Y-115934210D02*
X114745800Y-115900877D01*
X115379133Y-115267544D02*
X115379133Y-115600877D01*
X115379133Y-115600877D02*
X114679133Y-115600877D01*
X110379133Y-116967544D02*
X109679133Y-116967544D01*
X110379133Y-116634211D02*
X109679133Y-116634211D01*
X109679133Y-116634211D02*
X110379133Y-116234211D01*
X110379133Y-116234211D02*
X109679133Y-116234211D01*
X109679133Y-116000878D02*
X109679133Y-115600878D01*
X110379133Y-115800878D02*
X109679133Y-115800878D01*
X117212466Y-116600877D02*
X117179133Y-116667544D01*
X117179133Y-116667544D02*
X117179133Y-116767544D01*
X117179133Y-116767544D02*
X117212466Y-116867544D01*
X117212466Y-116867544D02*
X117279133Y-116934211D01*
X117279133Y-116934211D02*
X117345800Y-116967544D01*
X117345800Y-116967544D02*
X117479133Y-117000877D01*
X117479133Y-117000877D02*
X117579133Y-117000877D01*
X117579133Y-117000877D02*
X117712466Y-116967544D01*
X117712466Y-116967544D02*
X117779133Y-116934211D01*
X117779133Y-116934211D02*
X117845800Y-116867544D01*
X117845800Y-116867544D02*
X117879133Y-116767544D01*
X117879133Y-116767544D02*
X117879133Y-116700877D01*
X117879133Y-116700877D02*
X117845800Y-116600877D01*
X117845800Y-116600877D02*
X117812466Y-116567544D01*
X117812466Y-116567544D02*
X117579133Y-116567544D01*
X117579133Y-116567544D02*
X117579133Y-116700877D01*
X117879133Y-116267544D02*
X117179133Y-116267544D01*
X117179133Y-116267544D02*
X117879133Y-115867544D01*
X117879133Y-115867544D02*
X117179133Y-115867544D01*
X117879133Y-115534211D02*
X117179133Y-115534211D01*
X117179133Y-115534211D02*
X117179133Y-115367544D01*
X117179133Y-115367544D02*
X117212466Y-115267544D01*
X117212466Y-115267544D02*
X117279133Y-115200878D01*
X117279133Y-115200878D02*
X117345800Y-115167544D01*
X117345800Y-115167544D02*
X117479133Y-115134211D01*
X117479133Y-115134211D02*
X117579133Y-115134211D01*
X117579133Y-115134211D02*
X117712466Y-115167544D01*
X117712466Y-115167544D02*
X117779133Y-115200878D01*
X117779133Y-115200878D02*
X117845800Y-115267544D01*
X117845800Y-115267544D02*
X117879133Y-115367544D01*
X117879133Y-115367544D02*
X117879133Y-115534211D01*
X112845800Y-117000877D02*
X112879133Y-116900877D01*
X112879133Y-116900877D02*
X112879133Y-116734211D01*
X112879133Y-116734211D02*
X112845800Y-116667544D01*
X112845800Y-116667544D02*
X112812466Y-116634211D01*
X112812466Y-116634211D02*
X112745800Y-116600877D01*
X112745800Y-116600877D02*
X112679133Y-116600877D01*
X112679133Y-116600877D02*
X112612466Y-116634211D01*
X112612466Y-116634211D02*
X112579133Y-116667544D01*
X112579133Y-116667544D02*
X112545800Y-116734211D01*
X112545800Y-116734211D02*
X112512466Y-116867544D01*
X112512466Y-116867544D02*
X112479133Y-116934211D01*
X112479133Y-116934211D02*
X112445800Y-116967544D01*
X112445800Y-116967544D02*
X112379133Y-117000877D01*
X112379133Y-117000877D02*
X112312466Y-117000877D01*
X112312466Y-117000877D02*
X112245800Y-116967544D01*
X112245800Y-116967544D02*
X112212466Y-116934211D01*
X112212466Y-116934211D02*
X112179133Y-116867544D01*
X112179133Y-116867544D02*
X112179133Y-116700877D01*
X112179133Y-116700877D02*
X112212466Y-116600877D01*
X112879133Y-116300877D02*
X112179133Y-116300877D01*
X112179133Y-116300877D02*
X112179133Y-116134210D01*
X112179133Y-116134210D02*
X112212466Y-116034210D01*
X112212466Y-116034210D02*
X112279133Y-115967544D01*
X112279133Y-115967544D02*
X112345800Y-115934210D01*
X112345800Y-115934210D02*
X112479133Y-115900877D01*
X112479133Y-115900877D02*
X112579133Y-115900877D01*
X112579133Y-115900877D02*
X112712466Y-115934210D01*
X112712466Y-115934210D02*
X112779133Y-115967544D01*
X112779133Y-115967544D02*
X112845800Y-116034210D01*
X112845800Y-116034210D02*
X112879133Y-116134210D01*
X112879133Y-116134210D02*
X112879133Y-116300877D01*
X112679133Y-115634210D02*
X112679133Y-115300877D01*
X112879133Y-115700877D02*
X112179133Y-115467544D01*
X112179133Y-115467544D02*
X112879133Y-115234210D01*
D13*
X172069048Y-117694819D02*
X172069048Y-116694819D01*
X172069048Y-116694819D02*
X172307143Y-116694819D01*
X172307143Y-116694819D02*
X172450000Y-116742438D01*
X172450000Y-116742438D02*
X172545238Y-116837676D01*
X172545238Y-116837676D02*
X172592857Y-116932914D01*
X172592857Y-116932914D02*
X172640476Y-117123390D01*
X172640476Y-117123390D02*
X172640476Y-117266247D01*
X172640476Y-117266247D02*
X172592857Y-117456723D01*
X172592857Y-117456723D02*
X172545238Y-117551961D01*
X172545238Y-117551961D02*
X172450000Y-117647200D01*
X172450000Y-117647200D02*
X172307143Y-117694819D01*
X172307143Y-117694819D02*
X172069048Y-117694819D01*
X173259524Y-116694819D02*
X173450000Y-116694819D01*
X173450000Y-116694819D02*
X173545238Y-116742438D01*
X173545238Y-116742438D02*
X173640476Y-116837676D01*
X173640476Y-116837676D02*
X173688095Y-117028152D01*
X173688095Y-117028152D02*
X173688095Y-117361485D01*
X173688095Y-117361485D02*
X173640476Y-117551961D01*
X173640476Y-117551961D02*
X173545238Y-117647200D01*
X173545238Y-117647200D02*
X173450000Y-117694819D01*
X173450000Y-117694819D02*
X173259524Y-117694819D01*
X173259524Y-117694819D02*
X173164286Y-117647200D01*
X173164286Y-117647200D02*
X173069048Y-117551961D01*
X173069048Y-117551961D02*
X173021429Y-117361485D01*
X173021429Y-117361485D02*
X173021429Y-117028152D01*
X173021429Y-117028152D02*
X173069048Y-116837676D01*
X173069048Y-116837676D02*
X173164286Y-116742438D01*
X173164286Y-116742438D02*
X173259524Y-116694819D01*
X174021429Y-116694819D02*
X174259524Y-117694819D01*
X174259524Y-117694819D02*
X174450000Y-116980533D01*
X174450000Y-116980533D02*
X174640476Y-117694819D01*
X174640476Y-117694819D02*
X174878572Y-116694819D01*
X175259524Y-117694819D02*
X175259524Y-116694819D01*
X175259524Y-116694819D02*
X175830952Y-117694819D01*
X175830952Y-117694819D02*
X175830952Y-116694819D01*
X173164286Y-102724819D02*
X173164286Y-103534342D01*
X173164286Y-103534342D02*
X173211905Y-103629580D01*
X173211905Y-103629580D02*
X173259524Y-103677200D01*
X173259524Y-103677200D02*
X173354762Y-103724819D01*
X173354762Y-103724819D02*
X173545238Y-103724819D01*
X173545238Y-103724819D02*
X173640476Y-103677200D01*
X173640476Y-103677200D02*
X173688095Y-103629580D01*
X173688095Y-103629580D02*
X173735714Y-103534342D01*
X173735714Y-103534342D02*
X173735714Y-102724819D01*
X174211905Y-103724819D02*
X174211905Y-102724819D01*
X174211905Y-102724819D02*
X174592857Y-102724819D01*
X174592857Y-102724819D02*
X174688095Y-102772438D01*
X174688095Y-102772438D02*
X174735714Y-102820057D01*
X174735714Y-102820057D02*
X174783333Y-102915295D01*
X174783333Y-102915295D02*
X174783333Y-103058152D01*
X174783333Y-103058152D02*
X174735714Y-103153390D01*
X174735714Y-103153390D02*
X174688095Y-103201009D01*
X174688095Y-103201009D02*
X174592857Y-103248628D01*
X174592857Y-103248628D02*
X174211905Y-103248628D01*
X172116667Y-92294819D02*
X172116667Y-91294819D01*
X172116667Y-91294819D02*
X172450000Y-92009104D01*
X172450000Y-92009104D02*
X172783333Y-91294819D01*
X172783333Y-91294819D02*
X172783333Y-92294819D01*
X173259524Y-91771009D02*
X173592857Y-91771009D01*
X173735714Y-92294819D02*
X173259524Y-92294819D01*
X173259524Y-92294819D02*
X173259524Y-91294819D01*
X173259524Y-91294819D02*
X173735714Y-91294819D01*
X174164286Y-92294819D02*
X174164286Y-91294819D01*
X174164286Y-91294819D02*
X174735714Y-92294819D01*
X174735714Y-92294819D02*
X174735714Y-91294819D01*
X175211905Y-91294819D02*
X175211905Y-92104342D01*
X175211905Y-92104342D02*
X175259524Y-92199580D01*
X175259524Y-92199580D02*
X175307143Y-92247200D01*
X175307143Y-92247200D02*
X175402381Y-92294819D01*
X175402381Y-92294819D02*
X175592857Y-92294819D01*
X175592857Y-92294819D02*
X175688095Y-92247200D01*
X175688095Y-92247200D02*
X175735714Y-92199580D01*
X175735714Y-92199580D02*
X175783333Y-92104342D01*
X175783333Y-92104342D02*
X175783333Y-91294819D01*
X163063333Y-83034819D02*
X162730000Y-82558628D01*
X162491905Y-83034819D02*
X162491905Y-82034819D01*
X162491905Y-82034819D02*
X162872857Y-82034819D01*
X162872857Y-82034819D02*
X162968095Y-82082438D01*
X162968095Y-82082438D02*
X163015714Y-82130057D01*
X163015714Y-82130057D02*
X163063333Y-82225295D01*
X163063333Y-82225295D02*
X163063333Y-82368152D01*
X163063333Y-82368152D02*
X163015714Y-82463390D01*
X163015714Y-82463390D02*
X162968095Y-82511009D01*
X162968095Y-82511009D02*
X162872857Y-82558628D01*
X162872857Y-82558628D02*
X162491905Y-82558628D01*
X163920476Y-82368152D02*
X163920476Y-83034819D01*
X163682381Y-81987200D02*
X163444286Y-82701485D01*
X163444286Y-82701485D02*
X164063333Y-82701485D01*
X168824819Y-120576666D02*
X168348628Y-120909999D01*
X168824819Y-121148094D02*
X167824819Y-121148094D01*
X167824819Y-121148094D02*
X167824819Y-120767142D01*
X167824819Y-120767142D02*
X167872438Y-120671904D01*
X167872438Y-120671904D02*
X167920057Y-120624285D01*
X167920057Y-120624285D02*
X168015295Y-120576666D01*
X168015295Y-120576666D02*
X168158152Y-120576666D01*
X168158152Y-120576666D02*
X168253390Y-120624285D01*
X168253390Y-120624285D02*
X168301009Y-120671904D01*
X168301009Y-120671904D02*
X168348628Y-120767142D01*
X168348628Y-120767142D02*
X168348628Y-121148094D01*
X167824819Y-120243332D02*
X167824819Y-119624285D01*
X167824819Y-119624285D02*
X168205771Y-119957618D01*
X168205771Y-119957618D02*
X168205771Y-119814761D01*
X168205771Y-119814761D02*
X168253390Y-119719523D01*
X168253390Y-119719523D02*
X168301009Y-119671904D01*
X168301009Y-119671904D02*
X168396247Y-119624285D01*
X168396247Y-119624285D02*
X168634342Y-119624285D01*
X168634342Y-119624285D02*
X168729580Y-119671904D01*
X168729580Y-119671904D02*
X168777200Y-119719523D01*
X168777200Y-119719523D02*
X168824819Y-119814761D01*
X168824819Y-119814761D02*
X168824819Y-120100475D01*
X168824819Y-120100475D02*
X168777200Y-120195713D01*
X168777200Y-120195713D02*
X168729580Y-120243332D01*
X168624819Y-107576666D02*
X168148628Y-107909999D01*
X168624819Y-108148094D02*
X167624819Y-108148094D01*
X167624819Y-108148094D02*
X167624819Y-107767142D01*
X167624819Y-107767142D02*
X167672438Y-107671904D01*
X167672438Y-107671904D02*
X167720057Y-107624285D01*
X167720057Y-107624285D02*
X167815295Y-107576666D01*
X167815295Y-107576666D02*
X167958152Y-107576666D01*
X167958152Y-107576666D02*
X168053390Y-107624285D01*
X168053390Y-107624285D02*
X168101009Y-107671904D01*
X168101009Y-107671904D02*
X168148628Y-107767142D01*
X168148628Y-107767142D02*
X168148628Y-108148094D01*
X167720057Y-107195713D02*
X167672438Y-107148094D01*
X167672438Y-107148094D02*
X167624819Y-107052856D01*
X167624819Y-107052856D02*
X167624819Y-106814761D01*
X167624819Y-106814761D02*
X167672438Y-106719523D01*
X167672438Y-106719523D02*
X167720057Y-106671904D01*
X167720057Y-106671904D02*
X167815295Y-106624285D01*
X167815295Y-106624285D02*
X167910533Y-106624285D01*
X167910533Y-106624285D02*
X168053390Y-106671904D01*
X168053390Y-106671904D02*
X168624819Y-107243332D01*
X168624819Y-107243332D02*
X168624819Y-106624285D01*
X168724819Y-95076666D02*
X168248628Y-95409999D01*
X168724819Y-95648094D02*
X167724819Y-95648094D01*
X167724819Y-95648094D02*
X167724819Y-95267142D01*
X167724819Y-95267142D02*
X167772438Y-95171904D01*
X167772438Y-95171904D02*
X167820057Y-95124285D01*
X167820057Y-95124285D02*
X167915295Y-95076666D01*
X167915295Y-95076666D02*
X168058152Y-95076666D01*
X168058152Y-95076666D02*
X168153390Y-95124285D01*
X168153390Y-95124285D02*
X168201009Y-95171904D01*
X168201009Y-95171904D02*
X168248628Y-95267142D01*
X168248628Y-95267142D02*
X168248628Y-95648094D01*
X168724819Y-94124285D02*
X168724819Y-94695713D01*
X168724819Y-94409999D02*
X167724819Y-94409999D01*
X167724819Y-94409999D02*
X167867676Y-94505237D01*
X167867676Y-94505237D02*
X167962914Y-94600475D01*
X167962914Y-94600475D02*
X168010533Y-94695713D01*
X170827143Y-89129104D02*
X171303333Y-89129104D01*
X170731905Y-89414819D02*
X171065238Y-88414819D01*
X171065238Y-88414819D02*
X171398571Y-89414819D01*
X172208095Y-89414819D02*
X171731905Y-89414819D01*
X171731905Y-89414819D02*
X171731905Y-88414819D01*
X172493810Y-89129104D02*
X172970000Y-89129104D01*
X172398572Y-89414819D02*
X172731905Y-88414819D01*
X172731905Y-88414819D02*
X173065238Y-89414819D01*
X173970000Y-89414819D02*
X173636667Y-88938628D01*
X173398572Y-89414819D02*
X173398572Y-88414819D01*
X173398572Y-88414819D02*
X173779524Y-88414819D01*
X173779524Y-88414819D02*
X173874762Y-88462438D01*
X173874762Y-88462438D02*
X173922381Y-88510057D01*
X173922381Y-88510057D02*
X173970000Y-88605295D01*
X173970000Y-88605295D02*
X173970000Y-88748152D01*
X173970000Y-88748152D02*
X173922381Y-88843390D01*
X173922381Y-88843390D02*
X173874762Y-88891009D01*
X173874762Y-88891009D02*
X173779524Y-88938628D01*
X173779524Y-88938628D02*
X173398572Y-88938628D01*
X174398572Y-89414819D02*
X174398572Y-88414819D01*
X174398572Y-88414819D02*
X174731905Y-89129104D01*
X174731905Y-89129104D02*
X175065238Y-88414819D01*
X175065238Y-88414819D02*
X175065238Y-89414819D01*
X158549580Y-120636666D02*
X158597200Y-120684285D01*
X158597200Y-120684285D02*
X158644819Y-120827142D01*
X158644819Y-120827142D02*
X158644819Y-120922380D01*
X158644819Y-120922380D02*
X158597200Y-121065237D01*
X158597200Y-121065237D02*
X158501961Y-121160475D01*
X158501961Y-121160475D02*
X158406723Y-121208094D01*
X158406723Y-121208094D02*
X158216247Y-121255713D01*
X158216247Y-121255713D02*
X158073390Y-121255713D01*
X158073390Y-121255713D02*
X157882914Y-121208094D01*
X157882914Y-121208094D02*
X157787676Y-121160475D01*
X157787676Y-121160475D02*
X157692438Y-121065237D01*
X157692438Y-121065237D02*
X157644819Y-120922380D01*
X157644819Y-120922380D02*
X157644819Y-120827142D01*
X157644819Y-120827142D02*
X157692438Y-120684285D01*
X157692438Y-120684285D02*
X157740057Y-120636666D01*
X157644819Y-120303332D02*
X157644819Y-119684285D01*
X157644819Y-119684285D02*
X158025771Y-120017618D01*
X158025771Y-120017618D02*
X158025771Y-119874761D01*
X158025771Y-119874761D02*
X158073390Y-119779523D01*
X158073390Y-119779523D02*
X158121009Y-119731904D01*
X158121009Y-119731904D02*
X158216247Y-119684285D01*
X158216247Y-119684285D02*
X158454342Y-119684285D01*
X158454342Y-119684285D02*
X158549580Y-119731904D01*
X158549580Y-119731904D02*
X158597200Y-119779523D01*
X158597200Y-119779523D02*
X158644819Y-119874761D01*
X158644819Y-119874761D02*
X158644819Y-120160475D01*
X158644819Y-120160475D02*
X158597200Y-120255713D01*
X158597200Y-120255713D02*
X158549580Y-120303332D01*
X158549580Y-107936666D02*
X158597200Y-107984285D01*
X158597200Y-107984285D02*
X158644819Y-108127142D01*
X158644819Y-108127142D02*
X158644819Y-108222380D01*
X158644819Y-108222380D02*
X158597200Y-108365237D01*
X158597200Y-108365237D02*
X158501961Y-108460475D01*
X158501961Y-108460475D02*
X158406723Y-108508094D01*
X158406723Y-108508094D02*
X158216247Y-108555713D01*
X158216247Y-108555713D02*
X158073390Y-108555713D01*
X158073390Y-108555713D02*
X157882914Y-108508094D01*
X157882914Y-108508094D02*
X157787676Y-108460475D01*
X157787676Y-108460475D02*
X157692438Y-108365237D01*
X157692438Y-108365237D02*
X157644819Y-108222380D01*
X157644819Y-108222380D02*
X157644819Y-108127142D01*
X157644819Y-108127142D02*
X157692438Y-107984285D01*
X157692438Y-107984285D02*
X157740057Y-107936666D01*
X157740057Y-107555713D02*
X157692438Y-107508094D01*
X157692438Y-107508094D02*
X157644819Y-107412856D01*
X157644819Y-107412856D02*
X157644819Y-107174761D01*
X157644819Y-107174761D02*
X157692438Y-107079523D01*
X157692438Y-107079523D02*
X157740057Y-107031904D01*
X157740057Y-107031904D02*
X157835295Y-106984285D01*
X157835295Y-106984285D02*
X157930533Y-106984285D01*
X157930533Y-106984285D02*
X158073390Y-107031904D01*
X158073390Y-107031904D02*
X158644819Y-107603332D01*
X158644819Y-107603332D02*
X158644819Y-106984285D01*
X158629580Y-95236666D02*
X158677200Y-95284285D01*
X158677200Y-95284285D02*
X158724819Y-95427142D01*
X158724819Y-95427142D02*
X158724819Y-95522380D01*
X158724819Y-95522380D02*
X158677200Y-95665237D01*
X158677200Y-95665237D02*
X158581961Y-95760475D01*
X158581961Y-95760475D02*
X158486723Y-95808094D01*
X158486723Y-95808094D02*
X158296247Y-95855713D01*
X158296247Y-95855713D02*
X158153390Y-95855713D01*
X158153390Y-95855713D02*
X157962914Y-95808094D01*
X157962914Y-95808094D02*
X157867676Y-95760475D01*
X157867676Y-95760475D02*
X157772438Y-95665237D01*
X157772438Y-95665237D02*
X157724819Y-95522380D01*
X157724819Y-95522380D02*
X157724819Y-95427142D01*
X157724819Y-95427142D02*
X157772438Y-95284285D01*
X157772438Y-95284285D02*
X157820057Y-95236666D01*
X158724819Y-94284285D02*
X158724819Y-94855713D01*
X158724819Y-94569999D02*
X157724819Y-94569999D01*
X157724819Y-94569999D02*
X157867676Y-94665237D01*
X157867676Y-94665237D02*
X157962914Y-94760475D01*
X157962914Y-94760475D02*
X158010533Y-94855713D01*
X147275714Y-128299104D02*
X147751904Y-128299104D01*
X147180476Y-128584819D02*
X147513809Y-127584819D01*
X147513809Y-127584819D02*
X147847142Y-128584819D01*
X148704285Y-128584819D02*
X148132857Y-128584819D01*
X148418571Y-128584819D02*
X148418571Y-127584819D01*
X148418571Y-127584819D02*
X148323333Y-127727676D01*
X148323333Y-127727676D02*
X148228095Y-127822914D01*
X148228095Y-127822914D02*
X148132857Y-127870533D01*
X149251904Y-88035180D02*
X149251904Y-87225657D01*
X149251904Y-87225657D02*
X149204285Y-87130419D01*
X149204285Y-87130419D02*
X149156666Y-87082800D01*
X149156666Y-87082800D02*
X149061428Y-87035180D01*
X149061428Y-87035180D02*
X148870952Y-87035180D01*
X148870952Y-87035180D02*
X148775714Y-87082800D01*
X148775714Y-87082800D02*
X148728095Y-87130419D01*
X148728095Y-87130419D02*
X148680476Y-87225657D01*
X148680476Y-87225657D02*
X148680476Y-88035180D01*
X148251904Y-87082800D02*
X148109047Y-87035180D01*
X148109047Y-87035180D02*
X147870952Y-87035180D01*
X147870952Y-87035180D02*
X147775714Y-87082800D01*
X147775714Y-87082800D02*
X147728095Y-87130419D01*
X147728095Y-87130419D02*
X147680476Y-87225657D01*
X147680476Y-87225657D02*
X147680476Y-87320895D01*
X147680476Y-87320895D02*
X147728095Y-87416133D01*
X147728095Y-87416133D02*
X147775714Y-87463752D01*
X147775714Y-87463752D02*
X147870952Y-87511371D01*
X147870952Y-87511371D02*
X148061428Y-87558990D01*
X148061428Y-87558990D02*
X148156666Y-87606609D01*
X148156666Y-87606609D02*
X148204285Y-87654228D01*
X148204285Y-87654228D02*
X148251904Y-87749466D01*
X148251904Y-87749466D02*
X148251904Y-87844704D01*
X148251904Y-87844704D02*
X148204285Y-87939942D01*
X148204285Y-87939942D02*
X148156666Y-87987561D01*
X148156666Y-87987561D02*
X148061428Y-88035180D01*
X148061428Y-88035180D02*
X147823333Y-88035180D01*
X147823333Y-88035180D02*
X147680476Y-87987561D01*
X146918571Y-87558990D02*
X146775714Y-87511371D01*
X146775714Y-87511371D02*
X146728095Y-87463752D01*
X146728095Y-87463752D02*
X146680476Y-87368514D01*
X146680476Y-87368514D02*
X146680476Y-87225657D01*
X146680476Y-87225657D02*
X146728095Y-87130419D01*
X146728095Y-87130419D02*
X146775714Y-87082800D01*
X146775714Y-87082800D02*
X146870952Y-87035180D01*
X146870952Y-87035180D02*
X147251904Y-87035180D01*
X147251904Y-87035180D02*
X147251904Y-88035180D01*
X147251904Y-88035180D02*
X146918571Y-88035180D01*
X146918571Y-88035180D02*
X146823333Y-87987561D01*
X146823333Y-87987561D02*
X146775714Y-87939942D01*
X146775714Y-87939942D02*
X146728095Y-87844704D01*
X146728095Y-87844704D02*
X146728095Y-87749466D01*
X146728095Y-87749466D02*
X146775714Y-87654228D01*
X146775714Y-87654228D02*
X146823333Y-87606609D01*
X146823333Y-87606609D02*
X146918571Y-87558990D01*
X146918571Y-87558990D02*
X147251904Y-87558990D01*
D12*
X107820000Y-81570000D02*
X135820000Y-81570000D01*
X107820000Y-110070000D02*
X107820000Y-81570000D01*
X135820000Y-81570000D02*
X135820000Y-110070000D01*
X135820000Y-110070000D02*
X107820000Y-110070000D01*
X107820000Y-81570000D02*
X135820000Y-81570000D01*
X135820000Y-110070000D01*
X107820000Y-110070000D01*
X107820000Y-81570000D01*
X121970000Y-125700000D02*
X107970000Y-125700000D01*
X121970000Y-111700000D02*
X121970000Y-125700000D01*
X107970000Y-125700000D02*
X107970000Y-111700000D01*
X107970000Y-111700000D02*
X121970000Y-111700000D01*
D14*
X177450000Y-122240000D02*
X177450000Y-120740000D01*
X176200000Y-118240000D02*
X171700000Y-118240000D01*
X171700000Y-124740000D02*
X176200000Y-124740000D01*
X170450000Y-120740000D02*
X170450000Y-122240000D01*
X177450000Y-108270000D02*
X177450000Y-106770000D01*
X176200000Y-104270000D02*
X171700000Y-104270000D01*
X171700000Y-110770000D02*
X176200000Y-110770000D01*
X170450000Y-106770000D02*
X170450000Y-108270000D01*
X177450000Y-96840000D02*
X177450000Y-95340000D01*
X176200000Y-92840000D02*
X171700000Y-92840000D01*
X171700000Y-99340000D02*
X176200000Y-99340000D01*
X170450000Y-95340000D02*
X170450000Y-96840000D01*
X159960000Y-83580000D02*
X166500000Y-83580000D01*
X159960000Y-83910000D02*
X159960000Y-83580000D01*
X159960000Y-85990000D02*
X159960000Y-86320000D01*
X159960000Y-86320000D02*
X166500000Y-86320000D01*
X166500000Y-83580000D02*
X166500000Y-83910000D01*
X166500000Y-86320000D02*
X166500000Y-85990000D01*
X167370000Y-117140000D02*
X167370000Y-123680000D01*
X167040000Y-117140000D02*
X167370000Y-117140000D01*
X164960000Y-117140000D02*
X164630000Y-117140000D01*
X164630000Y-117140000D02*
X164630000Y-123680000D01*
X167370000Y-123680000D02*
X167040000Y-123680000D01*
X164630000Y-123680000D02*
X164960000Y-123680000D01*
X167170000Y-104140000D02*
X167170000Y-110680000D01*
X166840000Y-104140000D02*
X167170000Y-104140000D01*
X164760000Y-104140000D02*
X164430000Y-104140000D01*
X164430000Y-104140000D02*
X164430000Y-110680000D01*
X167170000Y-110680000D02*
X166840000Y-110680000D01*
X164430000Y-110680000D02*
X164760000Y-110680000D01*
X167270000Y-91640000D02*
X167270000Y-98180000D01*
X166940000Y-91640000D02*
X167270000Y-91640000D01*
X164860000Y-91640000D02*
X164530000Y-91640000D01*
X164530000Y-91640000D02*
X164530000Y-98180000D01*
X167270000Y-98180000D02*
X166940000Y-98180000D01*
X164530000Y-98180000D02*
X164860000Y-98180000D01*
X175530000Y-86545000D02*
X175530000Y-83455000D01*
X175530000Y-86544830D02*
G75*
G02*
X169980000Y-84999538I-2560000J1544830D01*
G01*
X169980000Y-85000462D02*
G75*
G02*
X175530000Y-83455170I2990000J462D01*
G01*
X175470000Y-85000000D02*
G75*
G02*
X170470000Y-85000000I-2500000J0D01*
G01*
X170470000Y-85000000D02*
G75*
G02*
X175470000Y-85000000I2500000J0D01*
G01*
X159320000Y-122940000D02*
X159635000Y-122940000D01*
X159320000Y-122940000D02*
X159320000Y-118000000D01*
X161745000Y-122940000D02*
X162060000Y-122940000D01*
X162060000Y-122940000D02*
X162060000Y-118000000D01*
X159320000Y-118000000D02*
X159635000Y-118000000D01*
X161745000Y-118000000D02*
X162060000Y-118000000D01*
X159320000Y-110240000D02*
X159635000Y-110240000D01*
X159320000Y-110240000D02*
X159320000Y-105300000D01*
X161745000Y-110240000D02*
X162060000Y-110240000D01*
X162060000Y-110240000D02*
X162060000Y-105300000D01*
X159320000Y-105300000D02*
X159635000Y-105300000D01*
X161745000Y-105300000D02*
X162060000Y-105300000D01*
X159400000Y-97540000D02*
X159715000Y-97540000D01*
X159400000Y-97540000D02*
X159400000Y-92600000D01*
X161825000Y-97540000D02*
X162140000Y-97540000D01*
X162140000Y-97540000D02*
X162140000Y-92600000D01*
X159400000Y-92600000D02*
X159715000Y-92600000D01*
X161825000Y-92600000D02*
X162140000Y-92600000D01*
X157010000Y-126990000D02*
X157010000Y-124320000D01*
X157010000Y-121780000D02*
X157010000Y-83550000D01*
X157010000Y-83550000D02*
X151930000Y-83550000D01*
X154340000Y-124320000D02*
X157010000Y-124320000D01*
X154340000Y-121780000D02*
X157010000Y-121780000D01*
X154340000Y-121780000D02*
X154340000Y-124320000D01*
X154340000Y-121780000D02*
X154340000Y-86220000D01*
X154340000Y-86220000D02*
X157010000Y-86220000D01*
X151930000Y-91430000D02*
X144050000Y-91430000D01*
X151930000Y-81010000D02*
X151930000Y-91430000D01*
X144050000Y-91430000D02*
X144050000Y-81010000D01*
X144050000Y-81010000D02*
X151930000Y-81010000D01*
X141640000Y-124320000D02*
X141640000Y-86220000D01*
X141640000Y-124320000D02*
X138970000Y-124320000D01*
X141640000Y-86220000D02*
X138970000Y-86220000D01*
X138970000Y-126990000D02*
X157010000Y-126990000D01*
X138970000Y-83550000D02*
X144050000Y-83550000D01*
X138970000Y-83550000D02*
X138970000Y-126990000D01*
%LPC*%
D15*
X117510000Y-83680000D03*
D16*
X120050000Y-83680000D03*
X122590000Y-83680000D03*
X125130000Y-83680000D03*
X120050000Y-114160000D03*
X117510000Y-114160000D03*
X114970000Y-114160000D03*
X112430000Y-114160000D03*
D15*
X109890000Y-114160000D03*
D17*
X177200000Y-123740000D03*
X170700000Y-123740000D03*
X177200000Y-119240000D03*
X170700000Y-119240000D03*
X177200000Y-109770000D03*
X170700000Y-109770000D03*
X177200000Y-105270000D03*
X170700000Y-105270000D03*
X177200000Y-98340000D03*
X170700000Y-98340000D03*
X177200000Y-93840000D03*
X170700000Y-93840000D03*
D18*
X159420000Y-84950000D03*
D19*
X167040000Y-84950000D03*
D18*
X166000000Y-116600000D03*
D19*
X166000000Y-124220000D03*
D18*
X165800000Y-103600000D03*
D19*
X165800000Y-111220000D03*
D18*
X165900000Y-91100000D03*
D19*
X165900000Y-98720000D03*
D20*
X174240000Y-85000000D03*
D21*
X171700000Y-85000000D03*
D18*
X160690000Y-122970000D03*
X160690000Y-117970000D03*
X160690000Y-110270000D03*
X160690000Y-105270000D03*
X160770000Y-97570000D03*
X160770000Y-92570000D03*
D22*
X155610000Y-123050000D03*
D19*
X155610000Y-120510000D03*
X155610000Y-117970000D03*
X155610000Y-115430000D03*
X155610000Y-112890000D03*
X155610000Y-110350000D03*
X155610000Y-107810000D03*
X155610000Y-105270000D03*
X155610000Y-102730000D03*
X155610000Y-100190000D03*
X155610000Y-97650000D03*
X155610000Y-95110000D03*
X155610000Y-92570000D03*
X155610000Y-90030000D03*
X155610000Y-87490000D03*
X140370000Y-87490000D03*
X140370000Y-90030000D03*
X140370000Y-92570000D03*
X140370000Y-95110000D03*
X140370000Y-97650000D03*
X140370000Y-100190000D03*
X140370000Y-102730000D03*
X140370000Y-105270000D03*
X140370000Y-107810000D03*
X140370000Y-110350000D03*
X140370000Y-112890000D03*
X140370000Y-115430000D03*
X140370000Y-117970000D03*
X140370000Y-120510000D03*
X140370000Y-123050000D03*
%LPD*%
M02*
