%TF.GenerationSoftware,KiCad,Pcbnew,8.0.6*%
%TF.CreationDate,2026-09-01T23:35:02+08:00*%
%TF.ProjectId,learning,6c656172-6e69-46e6-972e-6b696361645f,rev?*%
%TF.SameCoordinates,Original*%
%TF.FileFunction,Drillmap*%
%TF.FilePolarity,Positive*%
%FSLAX45Y45*%
G04 Gerber Fmt 4.5, Leading zero omitted, Abs format (unit mm)*
G04 Created by KiCad (PCBNEW 8.0.6) date 2026-09-01 23:35:02*
%MOMM*%
%LPD*%
G01*
G04 APERTURE LIST*
%ADD10C,0.038100*%
%ADD11C,0.200000*%
%ADD12C,0.100000*%
%ADD13C,0.110000*%
G04 APERTURE END LIST*
D10*
X10700000Y-8000000D02*
X10700000Y-8100000D01*
X17900000Y-8000000D02*
X10700000Y-8000000D01*
X17900000Y-12800000D02*
X17900000Y-8000000D01*
X10700000Y-12800000D02*
X17900000Y-12800000D01*
X10700000Y-8100000D02*
X10700000Y-12800000D01*
D11*
D12*
X12225000Y-10775000D02*
X12255000Y-10805000D01*
X12255000Y-10775000D02*
X12225000Y-10805000D01*
X12595000Y-10505000D02*
X12625000Y-10535000D01*
X12625000Y-10505000D02*
X12595000Y-10535000D01*
X15772300Y-10795000D02*
X15802300Y-10825000D01*
X15802300Y-10795000D02*
X15772300Y-10825000D01*
X15825000Y-11135000D02*
X15855000Y-11165000D01*
X15855000Y-11135000D02*
X15825000Y-11165000D01*
X11027100Y-11416000D02*
G75*
G02*
X10950900Y-11416000I-38100J0D01*
G01*
X10950900Y-11416000D02*
G75*
G02*
X11027100Y-11416000I38100J0D01*
G01*
X11281100Y-11416000D02*
G75*
G02*
X11204900Y-11416000I-38100J0D01*
G01*
X11204900Y-11416000D02*
G75*
G02*
X11281100Y-11416000I38100J0D01*
G01*
X11535100Y-11416000D02*
G75*
G02*
X11458900Y-11416000I-38100J0D01*
G01*
X11458900Y-11416000D02*
G75*
G02*
X11535100Y-11416000I38100J0D01*
G01*
X11789100Y-8368000D02*
G75*
G02*
X11712900Y-8368000I-38100J0D01*
G01*
X11712900Y-8368000D02*
G75*
G02*
X11789100Y-8368000I38100J0D01*
G01*
X11789100Y-11416000D02*
G75*
G02*
X11712900Y-11416000I-38100J0D01*
G01*
X11712900Y-11416000D02*
G75*
G02*
X11789100Y-11416000I38100J0D01*
G01*
X12043100Y-8368000D02*
G75*
G02*
X11966900Y-8368000I-38100J0D01*
G01*
X11966900Y-8368000D02*
G75*
G02*
X12043100Y-8368000I38100J0D01*
G01*
X12043100Y-11416000D02*
G75*
G02*
X11966900Y-11416000I-38100J0D01*
G01*
X11966900Y-11416000D02*
G75*
G02*
X12043100Y-11416000I38100J0D01*
G01*
X12297100Y-8368000D02*
G75*
G02*
X12220900Y-8368000I-38100J0D01*
G01*
X12220900Y-8368000D02*
G75*
G02*
X12297100Y-8368000I38100J0D01*
G01*
X12551100Y-8368000D02*
G75*
G02*
X12474900Y-8368000I-38100J0D01*
G01*
X12474900Y-8368000D02*
G75*
G02*
X12551100Y-8368000I38100J0D01*
G01*
X15942000Y-8455000D02*
X15942000Y-8535000D01*
X15902000Y-8495000D02*
X15982000Y-8495000D01*
X16069000Y-10487000D02*
X16069000Y-10567000D01*
X16029000Y-10527000D02*
X16109000Y-10527000D01*
X16069000Y-10987000D02*
X16069000Y-11067000D01*
X16029000Y-11027000D02*
X16109000Y-11027000D01*
X16069000Y-11757000D02*
X16069000Y-11837000D01*
X16029000Y-11797000D02*
X16109000Y-11797000D01*
X16069000Y-12257000D02*
X16069000Y-12337000D01*
X16029000Y-12297000D02*
X16109000Y-12297000D01*
X16077000Y-9217000D02*
X16077000Y-9297000D01*
X16037000Y-9257000D02*
X16117000Y-9257000D01*
X16077000Y-9717000D02*
X16077000Y-9797000D01*
X16037000Y-9757000D02*
X16117000Y-9757000D01*
X16580000Y-10320000D02*
X16580000Y-10400000D01*
X16540000Y-10360000D02*
X16620000Y-10360000D01*
X16580000Y-11082000D02*
X16580000Y-11162000D01*
X16540000Y-11122000D02*
X16620000Y-11122000D01*
X16590000Y-9070000D02*
X16590000Y-9150000D01*
X16550000Y-9110000D02*
X16630000Y-9110000D01*
X16590000Y-9832000D02*
X16590000Y-9912000D01*
X16550000Y-9872000D02*
X16630000Y-9872000D01*
X16600000Y-11620000D02*
X16600000Y-11700000D01*
X16560000Y-11660000D02*
X16640000Y-11660000D01*
X16600000Y-12382000D02*
X16600000Y-12462000D01*
X16560000Y-12422000D02*
X16640000Y-12422000D01*
X16704000Y-8455000D02*
X16704000Y-8535000D01*
X16664000Y-8495000D02*
X16744000Y-8495000D01*
X17201820Y-8531820D02*
X17201820Y-8468180D01*
X17138180Y-8468180D01*
X17138180Y-8531820D01*
X17201820Y-8531820D01*
X17455820Y-8531820D02*
X17455820Y-8468180D01*
X17392180Y-8468180D01*
X17392180Y-8531820D01*
X17455820Y-8531820D01*
X14037000Y-8799000D02*
X14087000Y-8749000D01*
X14037000Y-8699000D01*
X13987000Y-8749000D01*
X14037000Y-8799000D01*
X14037000Y-9053000D02*
X14087000Y-9003000D01*
X14037000Y-8953000D01*
X13987000Y-9003000D01*
X14037000Y-9053000D01*
X14037000Y-9307000D02*
X14087000Y-9257000D01*
X14037000Y-9207000D01*
X13987000Y-9257000D01*
X14037000Y-9307000D01*
X14037000Y-9561000D02*
X14087000Y-9511000D01*
X14037000Y-9461000D01*
X13987000Y-9511000D01*
X14037000Y-9561000D01*
X14037000Y-9815000D02*
X14087000Y-9765000D01*
X14037000Y-9715000D01*
X13987000Y-9765000D01*
X14037000Y-9815000D01*
X14037000Y-10069000D02*
X14087000Y-10019000D01*
X14037000Y-9969000D01*
X13987000Y-10019000D01*
X14037000Y-10069000D01*
X14037000Y-10323000D02*
X14087000Y-10273000D01*
X14037000Y-10223000D01*
X13987000Y-10273000D01*
X14037000Y-10323000D01*
X14037000Y-10577000D02*
X14087000Y-10527000D01*
X14037000Y-10477000D01*
X13987000Y-10527000D01*
X14037000Y-10577000D01*
X14037000Y-10831000D02*
X14087000Y-10781000D01*
X14037000Y-10731000D01*
X13987000Y-10781000D01*
X14037000Y-10831000D01*
X14037000Y-11085000D02*
X14087000Y-11035000D01*
X14037000Y-10985000D01*
X13987000Y-11035000D01*
X14037000Y-11085000D01*
X14037000Y-11339000D02*
X14087000Y-11289000D01*
X14037000Y-11239000D01*
X13987000Y-11289000D01*
X14037000Y-11339000D01*
X14037000Y-11593000D02*
X14087000Y-11543000D01*
X14037000Y-11493000D01*
X13987000Y-11543000D01*
X14037000Y-11593000D01*
X14037000Y-11847000D02*
X14087000Y-11797000D01*
X14037000Y-11747000D01*
X13987000Y-11797000D01*
X14037000Y-11847000D01*
X14037000Y-12101000D02*
X14087000Y-12051000D01*
X14037000Y-12001000D01*
X13987000Y-12051000D01*
X14037000Y-12101000D01*
X14037000Y-12355000D02*
X14087000Y-12305000D01*
X14037000Y-12255000D01*
X13987000Y-12305000D01*
X14037000Y-12355000D01*
X15561000Y-8799000D02*
X15611000Y-8749000D01*
X15561000Y-8699000D01*
X15511000Y-8749000D01*
X15561000Y-8799000D01*
X15561000Y-9053000D02*
X15611000Y-9003000D01*
X15561000Y-8953000D01*
X15511000Y-9003000D01*
X15561000Y-9053000D01*
X15561000Y-9307000D02*
X15611000Y-9257000D01*
X15561000Y-9207000D01*
X15511000Y-9257000D01*
X15561000Y-9307000D01*
X15561000Y-9561000D02*
X15611000Y-9511000D01*
X15561000Y-9461000D01*
X15511000Y-9511000D01*
X15561000Y-9561000D01*
X15561000Y-9815000D02*
X15611000Y-9765000D01*
X15561000Y-9715000D01*
X15511000Y-9765000D01*
X15561000Y-9815000D01*
X15561000Y-10069000D02*
X15611000Y-10019000D01*
X15561000Y-9969000D01*
X15511000Y-10019000D01*
X15561000Y-10069000D01*
X15561000Y-10323000D02*
X15611000Y-10273000D01*
X15561000Y-10223000D01*
X15511000Y-10273000D01*
X15561000Y-10323000D01*
X15561000Y-10577000D02*
X15611000Y-10527000D01*
X15561000Y-10477000D01*
X15511000Y-10527000D01*
X15561000Y-10577000D01*
X15561000Y-10831000D02*
X15611000Y-10781000D01*
X15561000Y-10731000D01*
X15511000Y-10781000D01*
X15561000Y-10831000D01*
X15561000Y-11085000D02*
X15611000Y-11035000D01*
X15561000Y-10985000D01*
X15511000Y-11035000D01*
X15561000Y-11085000D01*
X15561000Y-11339000D02*
X15611000Y-11289000D01*
X15561000Y-11239000D01*
X15511000Y-11289000D01*
X15561000Y-11339000D01*
X15561000Y-11593000D02*
X15611000Y-11543000D01*
X15561000Y-11493000D01*
X15511000Y-11543000D01*
X15561000Y-11593000D01*
X15561000Y-11847000D02*
X15611000Y-11797000D01*
X15561000Y-11747000D01*
X15511000Y-11797000D01*
X15561000Y-11847000D01*
X15561000Y-12101000D02*
X15611000Y-12051000D01*
X15561000Y-12001000D01*
X15511000Y-12051000D01*
X15561000Y-12101000D01*
X15561000Y-12355000D02*
X15611000Y-12305000D01*
X15561000Y-12255000D01*
X15511000Y-12305000D01*
X15561000Y-12355000D01*
D13*
X17015000Y-9329000D02*
X17125000Y-9439000D01*
X17125000Y-9329000D02*
X17015000Y-9439000D01*
X17125000Y-9384000D02*
G75*
G02*
X17015000Y-9384000I-55000J0D01*
G01*
X17015000Y-9384000D02*
G75*
G02*
X17125000Y-9384000I55000J0D01*
G01*
X17015000Y-9779000D02*
X17125000Y-9889000D01*
X17125000Y-9779000D02*
X17015000Y-9889000D01*
X17125000Y-9834000D02*
G75*
G02*
X17015000Y-9834000I-55000J0D01*
G01*
X17015000Y-9834000D02*
G75*
G02*
X17125000Y-9834000I55000J0D01*
G01*
X17015000Y-10472000D02*
X17125000Y-10582000D01*
X17125000Y-10472000D02*
X17015000Y-10582000D01*
X17125000Y-10527000D02*
G75*
G02*
X17015000Y-10527000I-55000J0D01*
G01*
X17015000Y-10527000D02*
G75*
G02*
X17125000Y-10527000I55000J0D01*
G01*
X17015000Y-10922000D02*
X17125000Y-11032000D01*
X17125000Y-10922000D02*
X17015000Y-11032000D01*
X17125000Y-10977000D02*
G75*
G02*
X17015000Y-10977000I-55000J0D01*
G01*
X17015000Y-10977000D02*
G75*
G02*
X17125000Y-10977000I55000J0D01*
G01*
X17015000Y-11869000D02*
X17125000Y-11979000D01*
X17125000Y-11869000D02*
X17015000Y-11979000D01*
X17125000Y-11924000D02*
G75*
G02*
X17015000Y-11924000I-55000J0D01*
G01*
X17015000Y-11924000D02*
G75*
G02*
X17125000Y-11924000I55000J0D01*
G01*
X17015000Y-12319000D02*
X17125000Y-12429000D01*
X17125000Y-12319000D02*
X17015000Y-12429000D01*
X17125000Y-12374000D02*
G75*
G02*
X17015000Y-12374000I-55000J0D01*
G01*
X17015000Y-12374000D02*
G75*
G02*
X17125000Y-12374000I55000J0D01*
G01*
X17665000Y-9329000D02*
X17775000Y-9439000D01*
X17775000Y-9329000D02*
X17665000Y-9439000D01*
X17775000Y-9384000D02*
G75*
G02*
X17665000Y-9384000I-55000J0D01*
G01*
X17665000Y-9384000D02*
G75*
G02*
X17775000Y-9384000I55000J0D01*
G01*
X17665000Y-9779000D02*
X17775000Y-9889000D01*
X17775000Y-9779000D02*
X17665000Y-9889000D01*
X17775000Y-9834000D02*
G75*
G02*
X17665000Y-9834000I-55000J0D01*
G01*
X17665000Y-9834000D02*
G75*
G02*
X17775000Y-9834000I55000J0D01*
G01*
X17665000Y-10472000D02*
X17775000Y-10582000D01*
X17775000Y-10472000D02*
X17665000Y-10582000D01*
X17775000Y-10527000D02*
G75*
G02*
X17665000Y-10527000I-55000J0D01*
G01*
X17665000Y-10527000D02*
G75*
G02*
X17775000Y-10527000I55000J0D01*
G01*
X17665000Y-10922000D02*
X17775000Y-11032000D01*
X17775000Y-10922000D02*
X17665000Y-11032000D01*
X17775000Y-10977000D02*
G75*
G02*
X17665000Y-10977000I-55000J0D01*
G01*
X17665000Y-10977000D02*
G75*
G02*
X17775000Y-10977000I55000J0D01*
G01*
X17665000Y-11869000D02*
X17775000Y-11979000D01*
X17775000Y-11869000D02*
X17665000Y-11979000D01*
X17775000Y-11924000D02*
G75*
G02*
X17665000Y-11924000I-55000J0D01*
G01*
X17665000Y-11924000D02*
G75*
G02*
X17775000Y-11924000I55000J0D01*
G01*
X17665000Y-12319000D02*
X17775000Y-12429000D01*
X17775000Y-12319000D02*
X17665000Y-12429000D01*
X17775000Y-12374000D02*
G75*
G02*
X17665000Y-12374000I-55000J0D01*
G01*
X17665000Y-12374000D02*
G75*
G02*
X17775000Y-12374000I55000J0D01*
G01*
D11*
X10958872Y-13113389D02*
X10958872Y-12913389D01*
X10958872Y-12913389D02*
X11006491Y-12913389D01*
X11006491Y-12913389D02*
X11035062Y-12922913D01*
X11035062Y-12922913D02*
X11054110Y-12941960D01*
X11054110Y-12941960D02*
X11063634Y-12961008D01*
X11063634Y-12961008D02*
X11073158Y-12999103D01*
X11073158Y-12999103D02*
X11073158Y-13027674D01*
X11073158Y-13027674D02*
X11063634Y-13065770D01*
X11063634Y-13065770D02*
X11054110Y-13084817D01*
X11054110Y-13084817D02*
X11035062Y-13103865D01*
X11035062Y-13103865D02*
X11006491Y-13113389D01*
X11006491Y-13113389D02*
X10958872Y-13113389D01*
X11158872Y-13113389D02*
X11158872Y-12980055D01*
X11158872Y-13018151D02*
X11168396Y-12999103D01*
X11168396Y-12999103D02*
X11177919Y-12989579D01*
X11177919Y-12989579D02*
X11196967Y-12980055D01*
X11196967Y-12980055D02*
X11216015Y-12980055D01*
X11282681Y-13113389D02*
X11282681Y-12980055D01*
X11282681Y-12913389D02*
X11273157Y-12922913D01*
X11273157Y-12922913D02*
X11282681Y-12932436D01*
X11282681Y-12932436D02*
X11292205Y-12922913D01*
X11292205Y-12922913D02*
X11282681Y-12913389D01*
X11282681Y-12913389D02*
X11282681Y-12932436D01*
X11406491Y-13113389D02*
X11387443Y-13103865D01*
X11387443Y-13103865D02*
X11377919Y-13084817D01*
X11377919Y-13084817D02*
X11377919Y-12913389D01*
X11511253Y-13113389D02*
X11492205Y-13103865D01*
X11492205Y-13103865D02*
X11482681Y-13084817D01*
X11482681Y-13084817D02*
X11482681Y-12913389D01*
X11739824Y-13113389D02*
X11739824Y-12913389D01*
X11739824Y-12913389D02*
X11806491Y-13056246D01*
X11806491Y-13056246D02*
X11873157Y-12913389D01*
X11873157Y-12913389D02*
X11873157Y-13113389D01*
X12054110Y-13113389D02*
X12054110Y-13008627D01*
X12054110Y-13008627D02*
X12044586Y-12989579D01*
X12044586Y-12989579D02*
X12025538Y-12980055D01*
X12025538Y-12980055D02*
X11987443Y-12980055D01*
X11987443Y-12980055D02*
X11968396Y-12989579D01*
X12054110Y-13103865D02*
X12035062Y-13113389D01*
X12035062Y-13113389D02*
X11987443Y-13113389D01*
X11987443Y-13113389D02*
X11968396Y-13103865D01*
X11968396Y-13103865D02*
X11958872Y-13084817D01*
X11958872Y-13084817D02*
X11958872Y-13065770D01*
X11958872Y-13065770D02*
X11968396Y-13046722D01*
X11968396Y-13046722D02*
X11987443Y-13037198D01*
X11987443Y-13037198D02*
X12035062Y-13037198D01*
X12035062Y-13037198D02*
X12054110Y-13027674D01*
X12149348Y-12980055D02*
X12149348Y-13180055D01*
X12149348Y-12989579D02*
X12168396Y-12980055D01*
X12168396Y-12980055D02*
X12206491Y-12980055D01*
X12206491Y-12980055D02*
X12225538Y-12989579D01*
X12225538Y-12989579D02*
X12235062Y-12999103D01*
X12235062Y-12999103D02*
X12244586Y-13018151D01*
X12244586Y-13018151D02*
X12244586Y-13075293D01*
X12244586Y-13075293D02*
X12235062Y-13094341D01*
X12235062Y-13094341D02*
X12225538Y-13103865D01*
X12225538Y-13103865D02*
X12206491Y-13113389D01*
X12206491Y-13113389D02*
X12168396Y-13113389D01*
X12168396Y-13113389D02*
X12149348Y-13103865D01*
X12330300Y-13094341D02*
X12339824Y-13103865D01*
X12339824Y-13103865D02*
X12330300Y-13113389D01*
X12330300Y-13113389D02*
X12320777Y-13103865D01*
X12320777Y-13103865D02*
X12330300Y-13094341D01*
X12330300Y-13094341D02*
X12330300Y-13113389D01*
X12330300Y-12989579D02*
X12339824Y-12999103D01*
X12339824Y-12999103D02*
X12330300Y-13008627D01*
X12330300Y-13008627D02*
X12320777Y-12999103D01*
X12320777Y-12999103D02*
X12330300Y-12989579D01*
X12330300Y-12989579D02*
X12330300Y-13008627D01*
D12*
X10668095Y-13426905D02*
X10698095Y-13456905D01*
X10698095Y-13426905D02*
X10668095Y-13456905D01*
D11*
X10996967Y-13333389D02*
X11016015Y-13333389D01*
X11016015Y-13333389D02*
X11035062Y-13342913D01*
X11035062Y-13342913D02*
X11044586Y-13352436D01*
X11044586Y-13352436D02*
X11054110Y-13371484D01*
X11054110Y-13371484D02*
X11063634Y-13409579D01*
X11063634Y-13409579D02*
X11063634Y-13457198D01*
X11063634Y-13457198D02*
X11054110Y-13495293D01*
X11054110Y-13495293D02*
X11044586Y-13514341D01*
X11044586Y-13514341D02*
X11035062Y-13523865D01*
X11035062Y-13523865D02*
X11016015Y-13533389D01*
X11016015Y-13533389D02*
X10996967Y-13533389D01*
X10996967Y-13533389D02*
X10977919Y-13523865D01*
X10977919Y-13523865D02*
X10968396Y-13514341D01*
X10968396Y-13514341D02*
X10958872Y-13495293D01*
X10958872Y-13495293D02*
X10949348Y-13457198D01*
X10949348Y-13457198D02*
X10949348Y-13409579D01*
X10949348Y-13409579D02*
X10958872Y-13371484D01*
X10958872Y-13371484D02*
X10968396Y-13352436D01*
X10968396Y-13352436D02*
X10977919Y-13342913D01*
X10977919Y-13342913D02*
X10996967Y-13333389D01*
X11149348Y-13514341D02*
X11158872Y-13523865D01*
X11158872Y-13523865D02*
X11149348Y-13533389D01*
X11149348Y-13533389D02*
X11139824Y-13523865D01*
X11139824Y-13523865D02*
X11149348Y-13514341D01*
X11149348Y-13514341D02*
X11149348Y-13533389D01*
X11225538Y-13333389D02*
X11349348Y-13333389D01*
X11349348Y-13333389D02*
X11282681Y-13409579D01*
X11282681Y-13409579D02*
X11311253Y-13409579D01*
X11311253Y-13409579D02*
X11330300Y-13419103D01*
X11330300Y-13419103D02*
X11339824Y-13428627D01*
X11339824Y-13428627D02*
X11349348Y-13447674D01*
X11349348Y-13447674D02*
X11349348Y-13495293D01*
X11349348Y-13495293D02*
X11339824Y-13514341D01*
X11339824Y-13514341D02*
X11330300Y-13523865D01*
X11330300Y-13523865D02*
X11311253Y-13533389D01*
X11311253Y-13533389D02*
X11254110Y-13533389D01*
X11254110Y-13533389D02*
X11235062Y-13523865D01*
X11235062Y-13523865D02*
X11225538Y-13514341D01*
X11473157Y-13333389D02*
X11492205Y-13333389D01*
X11492205Y-13333389D02*
X11511253Y-13342913D01*
X11511253Y-13342913D02*
X11520777Y-13352436D01*
X11520777Y-13352436D02*
X11530300Y-13371484D01*
X11530300Y-13371484D02*
X11539824Y-13409579D01*
X11539824Y-13409579D02*
X11539824Y-13457198D01*
X11539824Y-13457198D02*
X11530300Y-13495293D01*
X11530300Y-13495293D02*
X11520777Y-13514341D01*
X11520777Y-13514341D02*
X11511253Y-13523865D01*
X11511253Y-13523865D02*
X11492205Y-13533389D01*
X11492205Y-13533389D02*
X11473157Y-13533389D01*
X11473157Y-13533389D02*
X11454110Y-13523865D01*
X11454110Y-13523865D02*
X11444586Y-13514341D01*
X11444586Y-13514341D02*
X11435062Y-13495293D01*
X11435062Y-13495293D02*
X11425538Y-13457198D01*
X11425538Y-13457198D02*
X11425538Y-13409579D01*
X11425538Y-13409579D02*
X11435062Y-13371484D01*
X11435062Y-13371484D02*
X11444586Y-13352436D01*
X11444586Y-13352436D02*
X11454110Y-13342913D01*
X11454110Y-13342913D02*
X11473157Y-13333389D01*
X11663634Y-13333389D02*
X11682681Y-13333389D01*
X11682681Y-13333389D02*
X11701729Y-13342913D01*
X11701729Y-13342913D02*
X11711253Y-13352436D01*
X11711253Y-13352436D02*
X11720777Y-13371484D01*
X11720777Y-13371484D02*
X11730300Y-13409579D01*
X11730300Y-13409579D02*
X11730300Y-13457198D01*
X11730300Y-13457198D02*
X11720777Y-13495293D01*
X11720777Y-13495293D02*
X11711253Y-13514341D01*
X11711253Y-13514341D02*
X11701729Y-13523865D01*
X11701729Y-13523865D02*
X11682681Y-13533389D01*
X11682681Y-13533389D02*
X11663634Y-13533389D01*
X11663634Y-13533389D02*
X11644586Y-13523865D01*
X11644586Y-13523865D02*
X11635062Y-13514341D01*
X11635062Y-13514341D02*
X11625538Y-13495293D01*
X11625538Y-13495293D02*
X11616015Y-13457198D01*
X11616015Y-13457198D02*
X11616015Y-13409579D01*
X11616015Y-13409579D02*
X11625538Y-13371484D01*
X11625538Y-13371484D02*
X11635062Y-13352436D01*
X11635062Y-13352436D02*
X11644586Y-13342913D01*
X11644586Y-13342913D02*
X11663634Y-13333389D01*
X11816015Y-13533389D02*
X11816015Y-13400055D01*
X11816015Y-13419103D02*
X11825538Y-13409579D01*
X11825538Y-13409579D02*
X11844586Y-13400055D01*
X11844586Y-13400055D02*
X11873158Y-13400055D01*
X11873158Y-13400055D02*
X11892205Y-13409579D01*
X11892205Y-13409579D02*
X11901729Y-13428627D01*
X11901729Y-13428627D02*
X11901729Y-13533389D01*
X11901729Y-13428627D02*
X11911253Y-13409579D01*
X11911253Y-13409579D02*
X11930300Y-13400055D01*
X11930300Y-13400055D02*
X11958872Y-13400055D01*
X11958872Y-13400055D02*
X11977919Y-13409579D01*
X11977919Y-13409579D02*
X11987443Y-13428627D01*
X11987443Y-13428627D02*
X11987443Y-13533389D01*
X12082681Y-13533389D02*
X12082681Y-13400055D01*
X12082681Y-13419103D02*
X12092205Y-13409579D01*
X12092205Y-13409579D02*
X12111253Y-13400055D01*
X12111253Y-13400055D02*
X12139824Y-13400055D01*
X12139824Y-13400055D02*
X12158872Y-13409579D01*
X12158872Y-13409579D02*
X12168396Y-13428627D01*
X12168396Y-13428627D02*
X12168396Y-13533389D01*
X12168396Y-13428627D02*
X12177919Y-13409579D01*
X12177919Y-13409579D02*
X12196967Y-13400055D01*
X12196967Y-13400055D02*
X12225538Y-13400055D01*
X12225538Y-13400055D02*
X12244586Y-13409579D01*
X12244586Y-13409579D02*
X12254110Y-13428627D01*
X12254110Y-13428627D02*
X12254110Y-13533389D01*
X12644586Y-13323865D02*
X12473158Y-13581008D01*
X12901729Y-13333389D02*
X12920777Y-13333389D01*
X12920777Y-13333389D02*
X12939824Y-13342913D01*
X12939824Y-13342913D02*
X12949348Y-13352436D01*
X12949348Y-13352436D02*
X12958872Y-13371484D01*
X12958872Y-13371484D02*
X12968396Y-13409579D01*
X12968396Y-13409579D02*
X12968396Y-13457198D01*
X12968396Y-13457198D02*
X12958872Y-13495293D01*
X12958872Y-13495293D02*
X12949348Y-13514341D01*
X12949348Y-13514341D02*
X12939824Y-13523865D01*
X12939824Y-13523865D02*
X12920777Y-13533389D01*
X12920777Y-13533389D02*
X12901729Y-13533389D01*
X12901729Y-13533389D02*
X12882681Y-13523865D01*
X12882681Y-13523865D02*
X12873158Y-13514341D01*
X12873158Y-13514341D02*
X12863634Y-13495293D01*
X12863634Y-13495293D02*
X12854110Y-13457198D01*
X12854110Y-13457198D02*
X12854110Y-13409579D01*
X12854110Y-13409579D02*
X12863634Y-13371484D01*
X12863634Y-13371484D02*
X12873158Y-13352436D01*
X12873158Y-13352436D02*
X12882681Y-13342913D01*
X12882681Y-13342913D02*
X12901729Y-13333389D01*
X13054110Y-13514341D02*
X13063634Y-13523865D01*
X13063634Y-13523865D02*
X13054110Y-13533389D01*
X13054110Y-13533389D02*
X13044586Y-13523865D01*
X13044586Y-13523865D02*
X13054110Y-13514341D01*
X13054110Y-13514341D02*
X13054110Y-13533389D01*
X13187443Y-13333389D02*
X13206491Y-13333389D01*
X13206491Y-13333389D02*
X13225539Y-13342913D01*
X13225539Y-13342913D02*
X13235062Y-13352436D01*
X13235062Y-13352436D02*
X13244586Y-13371484D01*
X13244586Y-13371484D02*
X13254110Y-13409579D01*
X13254110Y-13409579D02*
X13254110Y-13457198D01*
X13254110Y-13457198D02*
X13244586Y-13495293D01*
X13244586Y-13495293D02*
X13235062Y-13514341D01*
X13235062Y-13514341D02*
X13225539Y-13523865D01*
X13225539Y-13523865D02*
X13206491Y-13533389D01*
X13206491Y-13533389D02*
X13187443Y-13533389D01*
X13187443Y-13533389D02*
X13168396Y-13523865D01*
X13168396Y-13523865D02*
X13158872Y-13514341D01*
X13158872Y-13514341D02*
X13149348Y-13495293D01*
X13149348Y-13495293D02*
X13139824Y-13457198D01*
X13139824Y-13457198D02*
X13139824Y-13409579D01*
X13139824Y-13409579D02*
X13149348Y-13371484D01*
X13149348Y-13371484D02*
X13158872Y-13352436D01*
X13158872Y-13352436D02*
X13168396Y-13342913D01*
X13168396Y-13342913D02*
X13187443Y-13333389D01*
X13444586Y-13533389D02*
X13330301Y-13533389D01*
X13387443Y-13533389D02*
X13387443Y-13333389D01*
X13387443Y-13333389D02*
X13368396Y-13361960D01*
X13368396Y-13361960D02*
X13349348Y-13381008D01*
X13349348Y-13381008D02*
X13330301Y-13390532D01*
X13635062Y-13533389D02*
X13520777Y-13533389D01*
X13577920Y-13533389D02*
X13577920Y-13333389D01*
X13577920Y-13333389D02*
X13558872Y-13361960D01*
X13558872Y-13361960D02*
X13539824Y-13381008D01*
X13539824Y-13381008D02*
X13520777Y-13390532D01*
X13749348Y-13419103D02*
X13730301Y-13409579D01*
X13730301Y-13409579D02*
X13720777Y-13400055D01*
X13720777Y-13400055D02*
X13711253Y-13381008D01*
X13711253Y-13381008D02*
X13711253Y-13371484D01*
X13711253Y-13371484D02*
X13720777Y-13352436D01*
X13720777Y-13352436D02*
X13730301Y-13342913D01*
X13730301Y-13342913D02*
X13749348Y-13333389D01*
X13749348Y-13333389D02*
X13787443Y-13333389D01*
X13787443Y-13333389D02*
X13806491Y-13342913D01*
X13806491Y-13342913D02*
X13816015Y-13352436D01*
X13816015Y-13352436D02*
X13825539Y-13371484D01*
X13825539Y-13371484D02*
X13825539Y-13381008D01*
X13825539Y-13381008D02*
X13816015Y-13400055D01*
X13816015Y-13400055D02*
X13806491Y-13409579D01*
X13806491Y-13409579D02*
X13787443Y-13419103D01*
X13787443Y-13419103D02*
X13749348Y-13419103D01*
X13749348Y-13419103D02*
X13730301Y-13428627D01*
X13730301Y-13428627D02*
X13720777Y-13438151D01*
X13720777Y-13438151D02*
X13711253Y-13457198D01*
X13711253Y-13457198D02*
X13711253Y-13495293D01*
X13711253Y-13495293D02*
X13720777Y-13514341D01*
X13720777Y-13514341D02*
X13730301Y-13523865D01*
X13730301Y-13523865D02*
X13749348Y-13533389D01*
X13749348Y-13533389D02*
X13787443Y-13533389D01*
X13787443Y-13533389D02*
X13806491Y-13523865D01*
X13806491Y-13523865D02*
X13816015Y-13514341D01*
X13816015Y-13514341D02*
X13825539Y-13495293D01*
X13825539Y-13495293D02*
X13825539Y-13457198D01*
X13825539Y-13457198D02*
X13816015Y-13438151D01*
X13816015Y-13438151D02*
X13806491Y-13428627D01*
X13806491Y-13428627D02*
X13787443Y-13419103D01*
X13901729Y-13333389D02*
X13901729Y-13371484D01*
X13977920Y-13333389D02*
X13977920Y-13371484D01*
X14273158Y-13609579D02*
X14263634Y-13600055D01*
X14263634Y-13600055D02*
X14244586Y-13571484D01*
X14244586Y-13571484D02*
X14235063Y-13552436D01*
X14235063Y-13552436D02*
X14225539Y-13523865D01*
X14225539Y-13523865D02*
X14216015Y-13476246D01*
X14216015Y-13476246D02*
X14216015Y-13438151D01*
X14216015Y-13438151D02*
X14225539Y-13390532D01*
X14225539Y-13390532D02*
X14235063Y-13361960D01*
X14235063Y-13361960D02*
X14244586Y-13342913D01*
X14244586Y-13342913D02*
X14263634Y-13314341D01*
X14263634Y-13314341D02*
X14273158Y-13304817D01*
X14435063Y-13400055D02*
X14435063Y-13533389D01*
X14387443Y-13323865D02*
X14339824Y-13466722D01*
X14339824Y-13466722D02*
X14463634Y-13466722D01*
X14692205Y-13533389D02*
X14692205Y-13333389D01*
X14777920Y-13533389D02*
X14777920Y-13428627D01*
X14777920Y-13428627D02*
X14768396Y-13409579D01*
X14768396Y-13409579D02*
X14749348Y-13400055D01*
X14749348Y-13400055D02*
X14720777Y-13400055D01*
X14720777Y-13400055D02*
X14701729Y-13409579D01*
X14701729Y-13409579D02*
X14692205Y-13419103D01*
X14901729Y-13533389D02*
X14882682Y-13523865D01*
X14882682Y-13523865D02*
X14873158Y-13514341D01*
X14873158Y-13514341D02*
X14863634Y-13495293D01*
X14863634Y-13495293D02*
X14863634Y-13438151D01*
X14863634Y-13438151D02*
X14873158Y-13419103D01*
X14873158Y-13419103D02*
X14882682Y-13409579D01*
X14882682Y-13409579D02*
X14901729Y-13400055D01*
X14901729Y-13400055D02*
X14930301Y-13400055D01*
X14930301Y-13400055D02*
X14949348Y-13409579D01*
X14949348Y-13409579D02*
X14958872Y-13419103D01*
X14958872Y-13419103D02*
X14968396Y-13438151D01*
X14968396Y-13438151D02*
X14968396Y-13495293D01*
X14968396Y-13495293D02*
X14958872Y-13514341D01*
X14958872Y-13514341D02*
X14949348Y-13523865D01*
X14949348Y-13523865D02*
X14930301Y-13533389D01*
X14930301Y-13533389D02*
X14901729Y-13533389D01*
X15082682Y-13533389D02*
X15063634Y-13523865D01*
X15063634Y-13523865D02*
X15054110Y-13504817D01*
X15054110Y-13504817D02*
X15054110Y-13333389D01*
X15235063Y-13523865D02*
X15216015Y-13533389D01*
X15216015Y-13533389D02*
X15177920Y-13533389D01*
X15177920Y-13533389D02*
X15158872Y-13523865D01*
X15158872Y-13523865D02*
X15149348Y-13504817D01*
X15149348Y-13504817D02*
X15149348Y-13428627D01*
X15149348Y-13428627D02*
X15158872Y-13409579D01*
X15158872Y-13409579D02*
X15177920Y-13400055D01*
X15177920Y-13400055D02*
X15216015Y-13400055D01*
X15216015Y-13400055D02*
X15235063Y-13409579D01*
X15235063Y-13409579D02*
X15244586Y-13428627D01*
X15244586Y-13428627D02*
X15244586Y-13447674D01*
X15244586Y-13447674D02*
X15149348Y-13466722D01*
X15320777Y-13523865D02*
X15339825Y-13533389D01*
X15339825Y-13533389D02*
X15377920Y-13533389D01*
X15377920Y-13533389D02*
X15396967Y-13523865D01*
X15396967Y-13523865D02*
X15406491Y-13504817D01*
X15406491Y-13504817D02*
X15406491Y-13495293D01*
X15406491Y-13495293D02*
X15396967Y-13476246D01*
X15396967Y-13476246D02*
X15377920Y-13466722D01*
X15377920Y-13466722D02*
X15349348Y-13466722D01*
X15349348Y-13466722D02*
X15330301Y-13457198D01*
X15330301Y-13457198D02*
X15320777Y-13438151D01*
X15320777Y-13438151D02*
X15320777Y-13428627D01*
X15320777Y-13428627D02*
X15330301Y-13409579D01*
X15330301Y-13409579D02*
X15349348Y-13400055D01*
X15349348Y-13400055D02*
X15377920Y-13400055D01*
X15377920Y-13400055D02*
X15396967Y-13409579D01*
X15473158Y-13609579D02*
X15482682Y-13600055D01*
X15482682Y-13600055D02*
X15501729Y-13571484D01*
X15501729Y-13571484D02*
X15511253Y-13552436D01*
X15511253Y-13552436D02*
X15520777Y-13523865D01*
X15520777Y-13523865D02*
X15530301Y-13476246D01*
X15530301Y-13476246D02*
X15530301Y-13438151D01*
X15530301Y-13438151D02*
X15520777Y-13390532D01*
X15520777Y-13390532D02*
X15511253Y-13361960D01*
X15511253Y-13361960D02*
X15501729Y-13342913D01*
X15501729Y-13342913D02*
X15482682Y-13314341D01*
X15482682Y-13314341D02*
X15473158Y-13304817D01*
D12*
X10698095Y-13705905D02*
G75*
G02*
X10621895Y-13705905I-38100J0D01*
G01*
X10621895Y-13705905D02*
G75*
G02*
X10698095Y-13705905I38100J0D01*
G01*
D11*
X10996967Y-13597389D02*
X11016015Y-13597389D01*
X11016015Y-13597389D02*
X11035062Y-13606913D01*
X11035062Y-13606913D02*
X11044586Y-13616436D01*
X11044586Y-13616436D02*
X11054110Y-13635484D01*
X11054110Y-13635484D02*
X11063634Y-13673579D01*
X11063634Y-13673579D02*
X11063634Y-13721198D01*
X11063634Y-13721198D02*
X11054110Y-13759293D01*
X11054110Y-13759293D02*
X11044586Y-13778341D01*
X11044586Y-13778341D02*
X11035062Y-13787865D01*
X11035062Y-13787865D02*
X11016015Y-13797389D01*
X11016015Y-13797389D02*
X10996967Y-13797389D01*
X10996967Y-13797389D02*
X10977919Y-13787865D01*
X10977919Y-13787865D02*
X10968396Y-13778341D01*
X10968396Y-13778341D02*
X10958872Y-13759293D01*
X10958872Y-13759293D02*
X10949348Y-13721198D01*
X10949348Y-13721198D02*
X10949348Y-13673579D01*
X10949348Y-13673579D02*
X10958872Y-13635484D01*
X10958872Y-13635484D02*
X10968396Y-13616436D01*
X10968396Y-13616436D02*
X10977919Y-13606913D01*
X10977919Y-13606913D02*
X10996967Y-13597389D01*
X11149348Y-13778341D02*
X11158872Y-13787865D01*
X11158872Y-13787865D02*
X11149348Y-13797389D01*
X11149348Y-13797389D02*
X11139824Y-13787865D01*
X11139824Y-13787865D02*
X11149348Y-13778341D01*
X11149348Y-13778341D02*
X11149348Y-13797389D01*
X11225538Y-13597389D02*
X11358872Y-13597389D01*
X11358872Y-13597389D02*
X11273157Y-13797389D01*
X11520777Y-13597389D02*
X11482681Y-13597389D01*
X11482681Y-13597389D02*
X11463634Y-13606913D01*
X11463634Y-13606913D02*
X11454110Y-13616436D01*
X11454110Y-13616436D02*
X11435062Y-13645008D01*
X11435062Y-13645008D02*
X11425538Y-13683103D01*
X11425538Y-13683103D02*
X11425538Y-13759293D01*
X11425538Y-13759293D02*
X11435062Y-13778341D01*
X11435062Y-13778341D02*
X11444586Y-13787865D01*
X11444586Y-13787865D02*
X11463634Y-13797389D01*
X11463634Y-13797389D02*
X11501729Y-13797389D01*
X11501729Y-13797389D02*
X11520777Y-13787865D01*
X11520777Y-13787865D02*
X11530300Y-13778341D01*
X11530300Y-13778341D02*
X11539824Y-13759293D01*
X11539824Y-13759293D02*
X11539824Y-13711674D01*
X11539824Y-13711674D02*
X11530300Y-13692627D01*
X11530300Y-13692627D02*
X11520777Y-13683103D01*
X11520777Y-13683103D02*
X11501729Y-13673579D01*
X11501729Y-13673579D02*
X11463634Y-13673579D01*
X11463634Y-13673579D02*
X11444586Y-13683103D01*
X11444586Y-13683103D02*
X11435062Y-13692627D01*
X11435062Y-13692627D02*
X11425538Y-13711674D01*
X11616015Y-13616436D02*
X11625538Y-13606913D01*
X11625538Y-13606913D02*
X11644586Y-13597389D01*
X11644586Y-13597389D02*
X11692205Y-13597389D01*
X11692205Y-13597389D02*
X11711253Y-13606913D01*
X11711253Y-13606913D02*
X11720777Y-13616436D01*
X11720777Y-13616436D02*
X11730300Y-13635484D01*
X11730300Y-13635484D02*
X11730300Y-13654532D01*
X11730300Y-13654532D02*
X11720777Y-13683103D01*
X11720777Y-13683103D02*
X11606491Y-13797389D01*
X11606491Y-13797389D02*
X11730300Y-13797389D01*
X11816015Y-13797389D02*
X11816015Y-13664055D01*
X11816015Y-13683103D02*
X11825538Y-13673579D01*
X11825538Y-13673579D02*
X11844586Y-13664055D01*
X11844586Y-13664055D02*
X11873158Y-13664055D01*
X11873158Y-13664055D02*
X11892205Y-13673579D01*
X11892205Y-13673579D02*
X11901729Y-13692627D01*
X11901729Y-13692627D02*
X11901729Y-13797389D01*
X11901729Y-13692627D02*
X11911253Y-13673579D01*
X11911253Y-13673579D02*
X11930300Y-13664055D01*
X11930300Y-13664055D02*
X11958872Y-13664055D01*
X11958872Y-13664055D02*
X11977919Y-13673579D01*
X11977919Y-13673579D02*
X11987443Y-13692627D01*
X11987443Y-13692627D02*
X11987443Y-13797389D01*
X12082681Y-13797389D02*
X12082681Y-13664055D01*
X12082681Y-13683103D02*
X12092205Y-13673579D01*
X12092205Y-13673579D02*
X12111253Y-13664055D01*
X12111253Y-13664055D02*
X12139824Y-13664055D01*
X12139824Y-13664055D02*
X12158872Y-13673579D01*
X12158872Y-13673579D02*
X12168396Y-13692627D01*
X12168396Y-13692627D02*
X12168396Y-13797389D01*
X12168396Y-13692627D02*
X12177919Y-13673579D01*
X12177919Y-13673579D02*
X12196967Y-13664055D01*
X12196967Y-13664055D02*
X12225538Y-13664055D01*
X12225538Y-13664055D02*
X12244586Y-13673579D01*
X12244586Y-13673579D02*
X12254110Y-13692627D01*
X12254110Y-13692627D02*
X12254110Y-13797389D01*
X12644586Y-13587865D02*
X12473158Y-13845008D01*
X12901729Y-13597389D02*
X12920777Y-13597389D01*
X12920777Y-13597389D02*
X12939824Y-13606913D01*
X12939824Y-13606913D02*
X12949348Y-13616436D01*
X12949348Y-13616436D02*
X12958872Y-13635484D01*
X12958872Y-13635484D02*
X12968396Y-13673579D01*
X12968396Y-13673579D02*
X12968396Y-13721198D01*
X12968396Y-13721198D02*
X12958872Y-13759293D01*
X12958872Y-13759293D02*
X12949348Y-13778341D01*
X12949348Y-13778341D02*
X12939824Y-13787865D01*
X12939824Y-13787865D02*
X12920777Y-13797389D01*
X12920777Y-13797389D02*
X12901729Y-13797389D01*
X12901729Y-13797389D02*
X12882681Y-13787865D01*
X12882681Y-13787865D02*
X12873158Y-13778341D01*
X12873158Y-13778341D02*
X12863634Y-13759293D01*
X12863634Y-13759293D02*
X12854110Y-13721198D01*
X12854110Y-13721198D02*
X12854110Y-13673579D01*
X12854110Y-13673579D02*
X12863634Y-13635484D01*
X12863634Y-13635484D02*
X12873158Y-13616436D01*
X12873158Y-13616436D02*
X12882681Y-13606913D01*
X12882681Y-13606913D02*
X12901729Y-13597389D01*
X13054110Y-13778341D02*
X13063634Y-13787865D01*
X13063634Y-13787865D02*
X13054110Y-13797389D01*
X13054110Y-13797389D02*
X13044586Y-13787865D01*
X13044586Y-13787865D02*
X13054110Y-13778341D01*
X13054110Y-13778341D02*
X13054110Y-13797389D01*
X13187443Y-13597389D02*
X13206491Y-13597389D01*
X13206491Y-13597389D02*
X13225539Y-13606913D01*
X13225539Y-13606913D02*
X13235062Y-13616436D01*
X13235062Y-13616436D02*
X13244586Y-13635484D01*
X13244586Y-13635484D02*
X13254110Y-13673579D01*
X13254110Y-13673579D02*
X13254110Y-13721198D01*
X13254110Y-13721198D02*
X13244586Y-13759293D01*
X13244586Y-13759293D02*
X13235062Y-13778341D01*
X13235062Y-13778341D02*
X13225539Y-13787865D01*
X13225539Y-13787865D02*
X13206491Y-13797389D01*
X13206491Y-13797389D02*
X13187443Y-13797389D01*
X13187443Y-13797389D02*
X13168396Y-13787865D01*
X13168396Y-13787865D02*
X13158872Y-13778341D01*
X13158872Y-13778341D02*
X13149348Y-13759293D01*
X13149348Y-13759293D02*
X13139824Y-13721198D01*
X13139824Y-13721198D02*
X13139824Y-13673579D01*
X13139824Y-13673579D02*
X13149348Y-13635484D01*
X13149348Y-13635484D02*
X13158872Y-13616436D01*
X13158872Y-13616436D02*
X13168396Y-13606913D01*
X13168396Y-13606913D02*
X13187443Y-13597389D01*
X13320777Y-13597389D02*
X13444586Y-13597389D01*
X13444586Y-13597389D02*
X13377920Y-13673579D01*
X13377920Y-13673579D02*
X13406491Y-13673579D01*
X13406491Y-13673579D02*
X13425539Y-13683103D01*
X13425539Y-13683103D02*
X13435062Y-13692627D01*
X13435062Y-13692627D02*
X13444586Y-13711674D01*
X13444586Y-13711674D02*
X13444586Y-13759293D01*
X13444586Y-13759293D02*
X13435062Y-13778341D01*
X13435062Y-13778341D02*
X13425539Y-13787865D01*
X13425539Y-13787865D02*
X13406491Y-13797389D01*
X13406491Y-13797389D02*
X13349348Y-13797389D01*
X13349348Y-13797389D02*
X13330301Y-13787865D01*
X13330301Y-13787865D02*
X13320777Y-13778341D01*
X13568396Y-13597389D02*
X13587443Y-13597389D01*
X13587443Y-13597389D02*
X13606491Y-13606913D01*
X13606491Y-13606913D02*
X13616015Y-13616436D01*
X13616015Y-13616436D02*
X13625539Y-13635484D01*
X13625539Y-13635484D02*
X13635062Y-13673579D01*
X13635062Y-13673579D02*
X13635062Y-13721198D01*
X13635062Y-13721198D02*
X13625539Y-13759293D01*
X13625539Y-13759293D02*
X13616015Y-13778341D01*
X13616015Y-13778341D02*
X13606491Y-13787865D01*
X13606491Y-13787865D02*
X13587443Y-13797389D01*
X13587443Y-13797389D02*
X13568396Y-13797389D01*
X13568396Y-13797389D02*
X13549348Y-13787865D01*
X13549348Y-13787865D02*
X13539824Y-13778341D01*
X13539824Y-13778341D02*
X13530301Y-13759293D01*
X13530301Y-13759293D02*
X13520777Y-13721198D01*
X13520777Y-13721198D02*
X13520777Y-13673579D01*
X13520777Y-13673579D02*
X13530301Y-13635484D01*
X13530301Y-13635484D02*
X13539824Y-13616436D01*
X13539824Y-13616436D02*
X13549348Y-13606913D01*
X13549348Y-13606913D02*
X13568396Y-13597389D01*
X13758872Y-13597389D02*
X13777920Y-13597389D01*
X13777920Y-13597389D02*
X13796967Y-13606913D01*
X13796967Y-13606913D02*
X13806491Y-13616436D01*
X13806491Y-13616436D02*
X13816015Y-13635484D01*
X13816015Y-13635484D02*
X13825539Y-13673579D01*
X13825539Y-13673579D02*
X13825539Y-13721198D01*
X13825539Y-13721198D02*
X13816015Y-13759293D01*
X13816015Y-13759293D02*
X13806491Y-13778341D01*
X13806491Y-13778341D02*
X13796967Y-13787865D01*
X13796967Y-13787865D02*
X13777920Y-13797389D01*
X13777920Y-13797389D02*
X13758872Y-13797389D01*
X13758872Y-13797389D02*
X13739824Y-13787865D01*
X13739824Y-13787865D02*
X13730301Y-13778341D01*
X13730301Y-13778341D02*
X13720777Y-13759293D01*
X13720777Y-13759293D02*
X13711253Y-13721198D01*
X13711253Y-13721198D02*
X13711253Y-13673579D01*
X13711253Y-13673579D02*
X13720777Y-13635484D01*
X13720777Y-13635484D02*
X13730301Y-13616436D01*
X13730301Y-13616436D02*
X13739824Y-13606913D01*
X13739824Y-13606913D02*
X13758872Y-13597389D01*
X13901729Y-13597389D02*
X13901729Y-13635484D01*
X13977920Y-13597389D02*
X13977920Y-13635484D01*
X14273158Y-13873579D02*
X14263634Y-13864055D01*
X14263634Y-13864055D02*
X14244586Y-13835484D01*
X14244586Y-13835484D02*
X14235063Y-13816436D01*
X14235063Y-13816436D02*
X14225539Y-13787865D01*
X14225539Y-13787865D02*
X14216015Y-13740246D01*
X14216015Y-13740246D02*
X14216015Y-13702151D01*
X14216015Y-13702151D02*
X14225539Y-13654532D01*
X14225539Y-13654532D02*
X14235063Y-13625960D01*
X14235063Y-13625960D02*
X14244586Y-13606913D01*
X14244586Y-13606913D02*
X14263634Y-13578341D01*
X14263634Y-13578341D02*
X14273158Y-13568817D01*
X14358872Y-13797389D02*
X14396967Y-13797389D01*
X14396967Y-13797389D02*
X14416015Y-13787865D01*
X14416015Y-13787865D02*
X14425539Y-13778341D01*
X14425539Y-13778341D02*
X14444586Y-13749770D01*
X14444586Y-13749770D02*
X14454110Y-13711674D01*
X14454110Y-13711674D02*
X14454110Y-13635484D01*
X14454110Y-13635484D02*
X14444586Y-13616436D01*
X14444586Y-13616436D02*
X14435063Y-13606913D01*
X14435063Y-13606913D02*
X14416015Y-13597389D01*
X14416015Y-13597389D02*
X14377920Y-13597389D01*
X14377920Y-13597389D02*
X14358872Y-13606913D01*
X14358872Y-13606913D02*
X14349348Y-13616436D01*
X14349348Y-13616436D02*
X14339824Y-13635484D01*
X14339824Y-13635484D02*
X14339824Y-13683103D01*
X14339824Y-13683103D02*
X14349348Y-13702151D01*
X14349348Y-13702151D02*
X14358872Y-13711674D01*
X14358872Y-13711674D02*
X14377920Y-13721198D01*
X14377920Y-13721198D02*
X14416015Y-13721198D01*
X14416015Y-13721198D02*
X14435063Y-13711674D01*
X14435063Y-13711674D02*
X14444586Y-13702151D01*
X14444586Y-13702151D02*
X14454110Y-13683103D01*
X14692205Y-13797389D02*
X14692205Y-13597389D01*
X14777920Y-13797389D02*
X14777920Y-13692627D01*
X14777920Y-13692627D02*
X14768396Y-13673579D01*
X14768396Y-13673579D02*
X14749348Y-13664055D01*
X14749348Y-13664055D02*
X14720777Y-13664055D01*
X14720777Y-13664055D02*
X14701729Y-13673579D01*
X14701729Y-13673579D02*
X14692205Y-13683103D01*
X14901729Y-13797389D02*
X14882682Y-13787865D01*
X14882682Y-13787865D02*
X14873158Y-13778341D01*
X14873158Y-13778341D02*
X14863634Y-13759293D01*
X14863634Y-13759293D02*
X14863634Y-13702151D01*
X14863634Y-13702151D02*
X14873158Y-13683103D01*
X14873158Y-13683103D02*
X14882682Y-13673579D01*
X14882682Y-13673579D02*
X14901729Y-13664055D01*
X14901729Y-13664055D02*
X14930301Y-13664055D01*
X14930301Y-13664055D02*
X14949348Y-13673579D01*
X14949348Y-13673579D02*
X14958872Y-13683103D01*
X14958872Y-13683103D02*
X14968396Y-13702151D01*
X14968396Y-13702151D02*
X14968396Y-13759293D01*
X14968396Y-13759293D02*
X14958872Y-13778341D01*
X14958872Y-13778341D02*
X14949348Y-13787865D01*
X14949348Y-13787865D02*
X14930301Y-13797389D01*
X14930301Y-13797389D02*
X14901729Y-13797389D01*
X15082682Y-13797389D02*
X15063634Y-13787865D01*
X15063634Y-13787865D02*
X15054110Y-13768817D01*
X15054110Y-13768817D02*
X15054110Y-13597389D01*
X15235063Y-13787865D02*
X15216015Y-13797389D01*
X15216015Y-13797389D02*
X15177920Y-13797389D01*
X15177920Y-13797389D02*
X15158872Y-13787865D01*
X15158872Y-13787865D02*
X15149348Y-13768817D01*
X15149348Y-13768817D02*
X15149348Y-13692627D01*
X15149348Y-13692627D02*
X15158872Y-13673579D01*
X15158872Y-13673579D02*
X15177920Y-13664055D01*
X15177920Y-13664055D02*
X15216015Y-13664055D01*
X15216015Y-13664055D02*
X15235063Y-13673579D01*
X15235063Y-13673579D02*
X15244586Y-13692627D01*
X15244586Y-13692627D02*
X15244586Y-13711674D01*
X15244586Y-13711674D02*
X15149348Y-13730722D01*
X15320777Y-13787865D02*
X15339825Y-13797389D01*
X15339825Y-13797389D02*
X15377920Y-13797389D01*
X15377920Y-13797389D02*
X15396967Y-13787865D01*
X15396967Y-13787865D02*
X15406491Y-13768817D01*
X15406491Y-13768817D02*
X15406491Y-13759293D01*
X15406491Y-13759293D02*
X15396967Y-13740246D01*
X15396967Y-13740246D02*
X15377920Y-13730722D01*
X15377920Y-13730722D02*
X15349348Y-13730722D01*
X15349348Y-13730722D02*
X15330301Y-13721198D01*
X15330301Y-13721198D02*
X15320777Y-13702151D01*
X15320777Y-13702151D02*
X15320777Y-13692627D01*
X15320777Y-13692627D02*
X15330301Y-13673579D01*
X15330301Y-13673579D02*
X15349348Y-13664055D01*
X15349348Y-13664055D02*
X15377920Y-13664055D01*
X15377920Y-13664055D02*
X15396967Y-13673579D01*
X15473158Y-13873579D02*
X15482682Y-13864055D01*
X15482682Y-13864055D02*
X15501729Y-13835484D01*
X15501729Y-13835484D02*
X15511253Y-13816436D01*
X15511253Y-13816436D02*
X15520777Y-13787865D01*
X15520777Y-13787865D02*
X15530301Y-13740246D01*
X15530301Y-13740246D02*
X15530301Y-13702151D01*
X15530301Y-13702151D02*
X15520777Y-13654532D01*
X15520777Y-13654532D02*
X15511253Y-13625960D01*
X15511253Y-13625960D02*
X15501729Y-13606913D01*
X15501729Y-13606913D02*
X15482682Y-13578341D01*
X15482682Y-13578341D02*
X15473158Y-13568817D01*
D12*
X10658095Y-13929905D02*
X10658095Y-14009905D01*
X10618095Y-13969905D02*
X10698095Y-13969905D01*
D11*
X10996967Y-13861389D02*
X11016015Y-13861389D01*
X11016015Y-13861389D02*
X11035062Y-13870913D01*
X11035062Y-13870913D02*
X11044586Y-13880436D01*
X11044586Y-13880436D02*
X11054110Y-13899484D01*
X11054110Y-13899484D02*
X11063634Y-13937579D01*
X11063634Y-13937579D02*
X11063634Y-13985198D01*
X11063634Y-13985198D02*
X11054110Y-14023293D01*
X11054110Y-14023293D02*
X11044586Y-14042341D01*
X11044586Y-14042341D02*
X11035062Y-14051865D01*
X11035062Y-14051865D02*
X11016015Y-14061389D01*
X11016015Y-14061389D02*
X10996967Y-14061389D01*
X10996967Y-14061389D02*
X10977919Y-14051865D01*
X10977919Y-14051865D02*
X10968396Y-14042341D01*
X10968396Y-14042341D02*
X10958872Y-14023293D01*
X10958872Y-14023293D02*
X10949348Y-13985198D01*
X10949348Y-13985198D02*
X10949348Y-13937579D01*
X10949348Y-13937579D02*
X10958872Y-13899484D01*
X10958872Y-13899484D02*
X10968396Y-13880436D01*
X10968396Y-13880436D02*
X10977919Y-13870913D01*
X10977919Y-13870913D02*
X10996967Y-13861389D01*
X11149348Y-14042341D02*
X11158872Y-14051865D01*
X11158872Y-14051865D02*
X11149348Y-14061389D01*
X11149348Y-14061389D02*
X11139824Y-14051865D01*
X11139824Y-14051865D02*
X11149348Y-14042341D01*
X11149348Y-14042341D02*
X11149348Y-14061389D01*
X11273157Y-13947103D02*
X11254110Y-13937579D01*
X11254110Y-13937579D02*
X11244586Y-13928055D01*
X11244586Y-13928055D02*
X11235062Y-13909008D01*
X11235062Y-13909008D02*
X11235062Y-13899484D01*
X11235062Y-13899484D02*
X11244586Y-13880436D01*
X11244586Y-13880436D02*
X11254110Y-13870913D01*
X11254110Y-13870913D02*
X11273157Y-13861389D01*
X11273157Y-13861389D02*
X11311253Y-13861389D01*
X11311253Y-13861389D02*
X11330300Y-13870913D01*
X11330300Y-13870913D02*
X11339824Y-13880436D01*
X11339824Y-13880436D02*
X11349348Y-13899484D01*
X11349348Y-13899484D02*
X11349348Y-13909008D01*
X11349348Y-13909008D02*
X11339824Y-13928055D01*
X11339824Y-13928055D02*
X11330300Y-13937579D01*
X11330300Y-13937579D02*
X11311253Y-13947103D01*
X11311253Y-13947103D02*
X11273157Y-13947103D01*
X11273157Y-13947103D02*
X11254110Y-13956627D01*
X11254110Y-13956627D02*
X11244586Y-13966151D01*
X11244586Y-13966151D02*
X11235062Y-13985198D01*
X11235062Y-13985198D02*
X11235062Y-14023293D01*
X11235062Y-14023293D02*
X11244586Y-14042341D01*
X11244586Y-14042341D02*
X11254110Y-14051865D01*
X11254110Y-14051865D02*
X11273157Y-14061389D01*
X11273157Y-14061389D02*
X11311253Y-14061389D01*
X11311253Y-14061389D02*
X11330300Y-14051865D01*
X11330300Y-14051865D02*
X11339824Y-14042341D01*
X11339824Y-14042341D02*
X11349348Y-14023293D01*
X11349348Y-14023293D02*
X11349348Y-13985198D01*
X11349348Y-13985198D02*
X11339824Y-13966151D01*
X11339824Y-13966151D02*
X11330300Y-13956627D01*
X11330300Y-13956627D02*
X11311253Y-13947103D01*
X11473157Y-13861389D02*
X11492205Y-13861389D01*
X11492205Y-13861389D02*
X11511253Y-13870913D01*
X11511253Y-13870913D02*
X11520777Y-13880436D01*
X11520777Y-13880436D02*
X11530300Y-13899484D01*
X11530300Y-13899484D02*
X11539824Y-13937579D01*
X11539824Y-13937579D02*
X11539824Y-13985198D01*
X11539824Y-13985198D02*
X11530300Y-14023293D01*
X11530300Y-14023293D02*
X11520777Y-14042341D01*
X11520777Y-14042341D02*
X11511253Y-14051865D01*
X11511253Y-14051865D02*
X11492205Y-14061389D01*
X11492205Y-14061389D02*
X11473157Y-14061389D01*
X11473157Y-14061389D02*
X11454110Y-14051865D01*
X11454110Y-14051865D02*
X11444586Y-14042341D01*
X11444586Y-14042341D02*
X11435062Y-14023293D01*
X11435062Y-14023293D02*
X11425538Y-13985198D01*
X11425538Y-13985198D02*
X11425538Y-13937579D01*
X11425538Y-13937579D02*
X11435062Y-13899484D01*
X11435062Y-13899484D02*
X11444586Y-13880436D01*
X11444586Y-13880436D02*
X11454110Y-13870913D01*
X11454110Y-13870913D02*
X11473157Y-13861389D01*
X11663634Y-13861389D02*
X11682681Y-13861389D01*
X11682681Y-13861389D02*
X11701729Y-13870913D01*
X11701729Y-13870913D02*
X11711253Y-13880436D01*
X11711253Y-13880436D02*
X11720777Y-13899484D01*
X11720777Y-13899484D02*
X11730300Y-13937579D01*
X11730300Y-13937579D02*
X11730300Y-13985198D01*
X11730300Y-13985198D02*
X11720777Y-14023293D01*
X11720777Y-14023293D02*
X11711253Y-14042341D01*
X11711253Y-14042341D02*
X11701729Y-14051865D01*
X11701729Y-14051865D02*
X11682681Y-14061389D01*
X11682681Y-14061389D02*
X11663634Y-14061389D01*
X11663634Y-14061389D02*
X11644586Y-14051865D01*
X11644586Y-14051865D02*
X11635062Y-14042341D01*
X11635062Y-14042341D02*
X11625538Y-14023293D01*
X11625538Y-14023293D02*
X11616015Y-13985198D01*
X11616015Y-13985198D02*
X11616015Y-13937579D01*
X11616015Y-13937579D02*
X11625538Y-13899484D01*
X11625538Y-13899484D02*
X11635062Y-13880436D01*
X11635062Y-13880436D02*
X11644586Y-13870913D01*
X11644586Y-13870913D02*
X11663634Y-13861389D01*
X11816015Y-14061389D02*
X11816015Y-13928055D01*
X11816015Y-13947103D02*
X11825538Y-13937579D01*
X11825538Y-13937579D02*
X11844586Y-13928055D01*
X11844586Y-13928055D02*
X11873158Y-13928055D01*
X11873158Y-13928055D02*
X11892205Y-13937579D01*
X11892205Y-13937579D02*
X11901729Y-13956627D01*
X11901729Y-13956627D02*
X11901729Y-14061389D01*
X11901729Y-13956627D02*
X11911253Y-13937579D01*
X11911253Y-13937579D02*
X11930300Y-13928055D01*
X11930300Y-13928055D02*
X11958872Y-13928055D01*
X11958872Y-13928055D02*
X11977919Y-13937579D01*
X11977919Y-13937579D02*
X11987443Y-13956627D01*
X11987443Y-13956627D02*
X11987443Y-14061389D01*
X12082681Y-14061389D02*
X12082681Y-13928055D01*
X12082681Y-13947103D02*
X12092205Y-13937579D01*
X12092205Y-13937579D02*
X12111253Y-13928055D01*
X12111253Y-13928055D02*
X12139824Y-13928055D01*
X12139824Y-13928055D02*
X12158872Y-13937579D01*
X12158872Y-13937579D02*
X12168396Y-13956627D01*
X12168396Y-13956627D02*
X12168396Y-14061389D01*
X12168396Y-13956627D02*
X12177919Y-13937579D01*
X12177919Y-13937579D02*
X12196967Y-13928055D01*
X12196967Y-13928055D02*
X12225538Y-13928055D01*
X12225538Y-13928055D02*
X12244586Y-13937579D01*
X12244586Y-13937579D02*
X12254110Y-13956627D01*
X12254110Y-13956627D02*
X12254110Y-14061389D01*
X12644586Y-13851865D02*
X12473158Y-14109008D01*
X12901729Y-13861389D02*
X12920777Y-13861389D01*
X12920777Y-13861389D02*
X12939824Y-13870913D01*
X12939824Y-13870913D02*
X12949348Y-13880436D01*
X12949348Y-13880436D02*
X12958872Y-13899484D01*
X12958872Y-13899484D02*
X12968396Y-13937579D01*
X12968396Y-13937579D02*
X12968396Y-13985198D01*
X12968396Y-13985198D02*
X12958872Y-14023293D01*
X12958872Y-14023293D02*
X12949348Y-14042341D01*
X12949348Y-14042341D02*
X12939824Y-14051865D01*
X12939824Y-14051865D02*
X12920777Y-14061389D01*
X12920777Y-14061389D02*
X12901729Y-14061389D01*
X12901729Y-14061389D02*
X12882681Y-14051865D01*
X12882681Y-14051865D02*
X12873158Y-14042341D01*
X12873158Y-14042341D02*
X12863634Y-14023293D01*
X12863634Y-14023293D02*
X12854110Y-13985198D01*
X12854110Y-13985198D02*
X12854110Y-13937579D01*
X12854110Y-13937579D02*
X12863634Y-13899484D01*
X12863634Y-13899484D02*
X12873158Y-13880436D01*
X12873158Y-13880436D02*
X12882681Y-13870913D01*
X12882681Y-13870913D02*
X12901729Y-13861389D01*
X13054110Y-14042341D02*
X13063634Y-14051865D01*
X13063634Y-14051865D02*
X13054110Y-14061389D01*
X13054110Y-14061389D02*
X13044586Y-14051865D01*
X13044586Y-14051865D02*
X13054110Y-14042341D01*
X13054110Y-14042341D02*
X13054110Y-14061389D01*
X13187443Y-13861389D02*
X13206491Y-13861389D01*
X13206491Y-13861389D02*
X13225539Y-13870913D01*
X13225539Y-13870913D02*
X13235062Y-13880436D01*
X13235062Y-13880436D02*
X13244586Y-13899484D01*
X13244586Y-13899484D02*
X13254110Y-13937579D01*
X13254110Y-13937579D02*
X13254110Y-13985198D01*
X13254110Y-13985198D02*
X13244586Y-14023293D01*
X13244586Y-14023293D02*
X13235062Y-14042341D01*
X13235062Y-14042341D02*
X13225539Y-14051865D01*
X13225539Y-14051865D02*
X13206491Y-14061389D01*
X13206491Y-14061389D02*
X13187443Y-14061389D01*
X13187443Y-14061389D02*
X13168396Y-14051865D01*
X13168396Y-14051865D02*
X13158872Y-14042341D01*
X13158872Y-14042341D02*
X13149348Y-14023293D01*
X13149348Y-14023293D02*
X13139824Y-13985198D01*
X13139824Y-13985198D02*
X13139824Y-13937579D01*
X13139824Y-13937579D02*
X13149348Y-13899484D01*
X13149348Y-13899484D02*
X13158872Y-13880436D01*
X13158872Y-13880436D02*
X13168396Y-13870913D01*
X13168396Y-13870913D02*
X13187443Y-13861389D01*
X13320777Y-13861389D02*
X13444586Y-13861389D01*
X13444586Y-13861389D02*
X13377920Y-13937579D01*
X13377920Y-13937579D02*
X13406491Y-13937579D01*
X13406491Y-13937579D02*
X13425539Y-13947103D01*
X13425539Y-13947103D02*
X13435062Y-13956627D01*
X13435062Y-13956627D02*
X13444586Y-13975674D01*
X13444586Y-13975674D02*
X13444586Y-14023293D01*
X13444586Y-14023293D02*
X13435062Y-14042341D01*
X13435062Y-14042341D02*
X13425539Y-14051865D01*
X13425539Y-14051865D02*
X13406491Y-14061389D01*
X13406491Y-14061389D02*
X13349348Y-14061389D01*
X13349348Y-14061389D02*
X13330301Y-14051865D01*
X13330301Y-14051865D02*
X13320777Y-14042341D01*
X13635062Y-14061389D02*
X13520777Y-14061389D01*
X13577920Y-14061389D02*
X13577920Y-13861389D01*
X13577920Y-13861389D02*
X13558872Y-13889960D01*
X13558872Y-13889960D02*
X13539824Y-13909008D01*
X13539824Y-13909008D02*
X13520777Y-13918532D01*
X13816015Y-13861389D02*
X13720777Y-13861389D01*
X13720777Y-13861389D02*
X13711253Y-13956627D01*
X13711253Y-13956627D02*
X13720777Y-13947103D01*
X13720777Y-13947103D02*
X13739824Y-13937579D01*
X13739824Y-13937579D02*
X13787443Y-13937579D01*
X13787443Y-13937579D02*
X13806491Y-13947103D01*
X13806491Y-13947103D02*
X13816015Y-13956627D01*
X13816015Y-13956627D02*
X13825539Y-13975674D01*
X13825539Y-13975674D02*
X13825539Y-14023293D01*
X13825539Y-14023293D02*
X13816015Y-14042341D01*
X13816015Y-14042341D02*
X13806491Y-14051865D01*
X13806491Y-14051865D02*
X13787443Y-14061389D01*
X13787443Y-14061389D02*
X13739824Y-14061389D01*
X13739824Y-14061389D02*
X13720777Y-14051865D01*
X13720777Y-14051865D02*
X13711253Y-14042341D01*
X13901729Y-13861389D02*
X13901729Y-13899484D01*
X13977920Y-13861389D02*
X13977920Y-13899484D01*
X14273158Y-14137579D02*
X14263634Y-14128055D01*
X14263634Y-14128055D02*
X14244586Y-14099484D01*
X14244586Y-14099484D02*
X14235063Y-14080436D01*
X14235063Y-14080436D02*
X14225539Y-14051865D01*
X14225539Y-14051865D02*
X14216015Y-14004246D01*
X14216015Y-14004246D02*
X14216015Y-13966151D01*
X14216015Y-13966151D02*
X14225539Y-13918532D01*
X14225539Y-13918532D02*
X14235063Y-13889960D01*
X14235063Y-13889960D02*
X14244586Y-13870913D01*
X14244586Y-13870913D02*
X14263634Y-13842341D01*
X14263634Y-13842341D02*
X14273158Y-13832817D01*
X14454110Y-14061389D02*
X14339824Y-14061389D01*
X14396967Y-14061389D02*
X14396967Y-13861389D01*
X14396967Y-13861389D02*
X14377920Y-13889960D01*
X14377920Y-13889960D02*
X14358872Y-13909008D01*
X14358872Y-13909008D02*
X14339824Y-13918532D01*
X14625539Y-13928055D02*
X14625539Y-14061389D01*
X14577920Y-13851865D02*
X14530301Y-13994722D01*
X14530301Y-13994722D02*
X14654110Y-13994722D01*
X14882682Y-14061389D02*
X14882682Y-13861389D01*
X14968396Y-14061389D02*
X14968396Y-13956627D01*
X14968396Y-13956627D02*
X14958872Y-13937579D01*
X14958872Y-13937579D02*
X14939825Y-13928055D01*
X14939825Y-13928055D02*
X14911253Y-13928055D01*
X14911253Y-13928055D02*
X14892205Y-13937579D01*
X14892205Y-13937579D02*
X14882682Y-13947103D01*
X15092205Y-14061389D02*
X15073158Y-14051865D01*
X15073158Y-14051865D02*
X15063634Y-14042341D01*
X15063634Y-14042341D02*
X15054110Y-14023293D01*
X15054110Y-14023293D02*
X15054110Y-13966151D01*
X15054110Y-13966151D02*
X15063634Y-13947103D01*
X15063634Y-13947103D02*
X15073158Y-13937579D01*
X15073158Y-13937579D02*
X15092205Y-13928055D01*
X15092205Y-13928055D02*
X15120777Y-13928055D01*
X15120777Y-13928055D02*
X15139825Y-13937579D01*
X15139825Y-13937579D02*
X15149348Y-13947103D01*
X15149348Y-13947103D02*
X15158872Y-13966151D01*
X15158872Y-13966151D02*
X15158872Y-14023293D01*
X15158872Y-14023293D02*
X15149348Y-14042341D01*
X15149348Y-14042341D02*
X15139825Y-14051865D01*
X15139825Y-14051865D02*
X15120777Y-14061389D01*
X15120777Y-14061389D02*
X15092205Y-14061389D01*
X15273158Y-14061389D02*
X15254110Y-14051865D01*
X15254110Y-14051865D02*
X15244586Y-14032817D01*
X15244586Y-14032817D02*
X15244586Y-13861389D01*
X15425539Y-14051865D02*
X15406491Y-14061389D01*
X15406491Y-14061389D02*
X15368396Y-14061389D01*
X15368396Y-14061389D02*
X15349348Y-14051865D01*
X15349348Y-14051865D02*
X15339825Y-14032817D01*
X15339825Y-14032817D02*
X15339825Y-13956627D01*
X15339825Y-13956627D02*
X15349348Y-13937579D01*
X15349348Y-13937579D02*
X15368396Y-13928055D01*
X15368396Y-13928055D02*
X15406491Y-13928055D01*
X15406491Y-13928055D02*
X15425539Y-13937579D01*
X15425539Y-13937579D02*
X15435063Y-13956627D01*
X15435063Y-13956627D02*
X15435063Y-13975674D01*
X15435063Y-13975674D02*
X15339825Y-13994722D01*
X15511253Y-14051865D02*
X15530301Y-14061389D01*
X15530301Y-14061389D02*
X15568396Y-14061389D01*
X15568396Y-14061389D02*
X15587444Y-14051865D01*
X15587444Y-14051865D02*
X15596967Y-14032817D01*
X15596967Y-14032817D02*
X15596967Y-14023293D01*
X15596967Y-14023293D02*
X15587444Y-14004246D01*
X15587444Y-14004246D02*
X15568396Y-13994722D01*
X15568396Y-13994722D02*
X15539825Y-13994722D01*
X15539825Y-13994722D02*
X15520777Y-13985198D01*
X15520777Y-13985198D02*
X15511253Y-13966151D01*
X15511253Y-13966151D02*
X15511253Y-13956627D01*
X15511253Y-13956627D02*
X15520777Y-13937579D01*
X15520777Y-13937579D02*
X15539825Y-13928055D01*
X15539825Y-13928055D02*
X15568396Y-13928055D01*
X15568396Y-13928055D02*
X15587444Y-13937579D01*
X15663634Y-14137579D02*
X15673158Y-14128055D01*
X15673158Y-14128055D02*
X15692206Y-14099484D01*
X15692206Y-14099484D02*
X15701729Y-14080436D01*
X15701729Y-14080436D02*
X15711253Y-14051865D01*
X15711253Y-14051865D02*
X15720777Y-14004246D01*
X15720777Y-14004246D02*
X15720777Y-13966151D01*
X15720777Y-13966151D02*
X15711253Y-13918532D01*
X15711253Y-13918532D02*
X15701729Y-13889960D01*
X15701729Y-13889960D02*
X15692206Y-13870913D01*
X15692206Y-13870913D02*
X15673158Y-13842341D01*
X15673158Y-13842341D02*
X15663634Y-13832817D01*
D12*
X10684915Y-14265725D02*
X10684915Y-14202085D01*
X10621275Y-14202085D01*
X10621275Y-14265725D01*
X10684915Y-14265725D01*
D11*
X10996967Y-14125389D02*
X11016015Y-14125389D01*
X11016015Y-14125389D02*
X11035062Y-14134913D01*
X11035062Y-14134913D02*
X11044586Y-14144436D01*
X11044586Y-14144436D02*
X11054110Y-14163484D01*
X11054110Y-14163484D02*
X11063634Y-14201579D01*
X11063634Y-14201579D02*
X11063634Y-14249198D01*
X11063634Y-14249198D02*
X11054110Y-14287293D01*
X11054110Y-14287293D02*
X11044586Y-14306341D01*
X11044586Y-14306341D02*
X11035062Y-14315865D01*
X11035062Y-14315865D02*
X11016015Y-14325389D01*
X11016015Y-14325389D02*
X10996967Y-14325389D01*
X10996967Y-14325389D02*
X10977919Y-14315865D01*
X10977919Y-14315865D02*
X10968396Y-14306341D01*
X10968396Y-14306341D02*
X10958872Y-14287293D01*
X10958872Y-14287293D02*
X10949348Y-14249198D01*
X10949348Y-14249198D02*
X10949348Y-14201579D01*
X10949348Y-14201579D02*
X10958872Y-14163484D01*
X10958872Y-14163484D02*
X10968396Y-14144436D01*
X10968396Y-14144436D02*
X10977919Y-14134913D01*
X10977919Y-14134913D02*
X10996967Y-14125389D01*
X11149348Y-14306341D02*
X11158872Y-14315865D01*
X11158872Y-14315865D02*
X11149348Y-14325389D01*
X11149348Y-14325389D02*
X11139824Y-14315865D01*
X11139824Y-14315865D02*
X11149348Y-14306341D01*
X11149348Y-14306341D02*
X11149348Y-14325389D01*
X11254110Y-14325389D02*
X11292205Y-14325389D01*
X11292205Y-14325389D02*
X11311253Y-14315865D01*
X11311253Y-14315865D02*
X11320777Y-14306341D01*
X11320777Y-14306341D02*
X11339824Y-14277770D01*
X11339824Y-14277770D02*
X11349348Y-14239674D01*
X11349348Y-14239674D02*
X11349348Y-14163484D01*
X11349348Y-14163484D02*
X11339824Y-14144436D01*
X11339824Y-14144436D02*
X11330300Y-14134913D01*
X11330300Y-14134913D02*
X11311253Y-14125389D01*
X11311253Y-14125389D02*
X11273157Y-14125389D01*
X11273157Y-14125389D02*
X11254110Y-14134913D01*
X11254110Y-14134913D02*
X11244586Y-14144436D01*
X11244586Y-14144436D02*
X11235062Y-14163484D01*
X11235062Y-14163484D02*
X11235062Y-14211103D01*
X11235062Y-14211103D02*
X11244586Y-14230151D01*
X11244586Y-14230151D02*
X11254110Y-14239674D01*
X11254110Y-14239674D02*
X11273157Y-14249198D01*
X11273157Y-14249198D02*
X11311253Y-14249198D01*
X11311253Y-14249198D02*
X11330300Y-14239674D01*
X11330300Y-14239674D02*
X11339824Y-14230151D01*
X11339824Y-14230151D02*
X11349348Y-14211103D01*
X11473157Y-14125389D02*
X11492205Y-14125389D01*
X11492205Y-14125389D02*
X11511253Y-14134913D01*
X11511253Y-14134913D02*
X11520777Y-14144436D01*
X11520777Y-14144436D02*
X11530300Y-14163484D01*
X11530300Y-14163484D02*
X11539824Y-14201579D01*
X11539824Y-14201579D02*
X11539824Y-14249198D01*
X11539824Y-14249198D02*
X11530300Y-14287293D01*
X11530300Y-14287293D02*
X11520777Y-14306341D01*
X11520777Y-14306341D02*
X11511253Y-14315865D01*
X11511253Y-14315865D02*
X11492205Y-14325389D01*
X11492205Y-14325389D02*
X11473157Y-14325389D01*
X11473157Y-14325389D02*
X11454110Y-14315865D01*
X11454110Y-14315865D02*
X11444586Y-14306341D01*
X11444586Y-14306341D02*
X11435062Y-14287293D01*
X11435062Y-14287293D02*
X11425538Y-14249198D01*
X11425538Y-14249198D02*
X11425538Y-14201579D01*
X11425538Y-14201579D02*
X11435062Y-14163484D01*
X11435062Y-14163484D02*
X11444586Y-14144436D01*
X11444586Y-14144436D02*
X11454110Y-14134913D01*
X11454110Y-14134913D02*
X11473157Y-14125389D01*
X11663634Y-14125389D02*
X11682681Y-14125389D01*
X11682681Y-14125389D02*
X11701729Y-14134913D01*
X11701729Y-14134913D02*
X11711253Y-14144436D01*
X11711253Y-14144436D02*
X11720777Y-14163484D01*
X11720777Y-14163484D02*
X11730300Y-14201579D01*
X11730300Y-14201579D02*
X11730300Y-14249198D01*
X11730300Y-14249198D02*
X11720777Y-14287293D01*
X11720777Y-14287293D02*
X11711253Y-14306341D01*
X11711253Y-14306341D02*
X11701729Y-14315865D01*
X11701729Y-14315865D02*
X11682681Y-14325389D01*
X11682681Y-14325389D02*
X11663634Y-14325389D01*
X11663634Y-14325389D02*
X11644586Y-14315865D01*
X11644586Y-14315865D02*
X11635062Y-14306341D01*
X11635062Y-14306341D02*
X11625538Y-14287293D01*
X11625538Y-14287293D02*
X11616015Y-14249198D01*
X11616015Y-14249198D02*
X11616015Y-14201579D01*
X11616015Y-14201579D02*
X11625538Y-14163484D01*
X11625538Y-14163484D02*
X11635062Y-14144436D01*
X11635062Y-14144436D02*
X11644586Y-14134913D01*
X11644586Y-14134913D02*
X11663634Y-14125389D01*
X11816015Y-14325389D02*
X11816015Y-14192055D01*
X11816015Y-14211103D02*
X11825538Y-14201579D01*
X11825538Y-14201579D02*
X11844586Y-14192055D01*
X11844586Y-14192055D02*
X11873158Y-14192055D01*
X11873158Y-14192055D02*
X11892205Y-14201579D01*
X11892205Y-14201579D02*
X11901729Y-14220627D01*
X11901729Y-14220627D02*
X11901729Y-14325389D01*
X11901729Y-14220627D02*
X11911253Y-14201579D01*
X11911253Y-14201579D02*
X11930300Y-14192055D01*
X11930300Y-14192055D02*
X11958872Y-14192055D01*
X11958872Y-14192055D02*
X11977919Y-14201579D01*
X11977919Y-14201579D02*
X11987443Y-14220627D01*
X11987443Y-14220627D02*
X11987443Y-14325389D01*
X12082681Y-14325389D02*
X12082681Y-14192055D01*
X12082681Y-14211103D02*
X12092205Y-14201579D01*
X12092205Y-14201579D02*
X12111253Y-14192055D01*
X12111253Y-14192055D02*
X12139824Y-14192055D01*
X12139824Y-14192055D02*
X12158872Y-14201579D01*
X12158872Y-14201579D02*
X12168396Y-14220627D01*
X12168396Y-14220627D02*
X12168396Y-14325389D01*
X12168396Y-14220627D02*
X12177919Y-14201579D01*
X12177919Y-14201579D02*
X12196967Y-14192055D01*
X12196967Y-14192055D02*
X12225538Y-14192055D01*
X12225538Y-14192055D02*
X12244586Y-14201579D01*
X12244586Y-14201579D02*
X12254110Y-14220627D01*
X12254110Y-14220627D02*
X12254110Y-14325389D01*
X12644586Y-14115865D02*
X12473158Y-14373008D01*
X12901729Y-14125389D02*
X12920777Y-14125389D01*
X12920777Y-14125389D02*
X12939824Y-14134913D01*
X12939824Y-14134913D02*
X12949348Y-14144436D01*
X12949348Y-14144436D02*
X12958872Y-14163484D01*
X12958872Y-14163484D02*
X12968396Y-14201579D01*
X12968396Y-14201579D02*
X12968396Y-14249198D01*
X12968396Y-14249198D02*
X12958872Y-14287293D01*
X12958872Y-14287293D02*
X12949348Y-14306341D01*
X12949348Y-14306341D02*
X12939824Y-14315865D01*
X12939824Y-14315865D02*
X12920777Y-14325389D01*
X12920777Y-14325389D02*
X12901729Y-14325389D01*
X12901729Y-14325389D02*
X12882681Y-14315865D01*
X12882681Y-14315865D02*
X12873158Y-14306341D01*
X12873158Y-14306341D02*
X12863634Y-14287293D01*
X12863634Y-14287293D02*
X12854110Y-14249198D01*
X12854110Y-14249198D02*
X12854110Y-14201579D01*
X12854110Y-14201579D02*
X12863634Y-14163484D01*
X12863634Y-14163484D02*
X12873158Y-14144436D01*
X12873158Y-14144436D02*
X12882681Y-14134913D01*
X12882681Y-14134913D02*
X12901729Y-14125389D01*
X13054110Y-14306341D02*
X13063634Y-14315865D01*
X13063634Y-14315865D02*
X13054110Y-14325389D01*
X13054110Y-14325389D02*
X13044586Y-14315865D01*
X13044586Y-14315865D02*
X13054110Y-14306341D01*
X13054110Y-14306341D02*
X13054110Y-14325389D01*
X13187443Y-14125389D02*
X13206491Y-14125389D01*
X13206491Y-14125389D02*
X13225539Y-14134913D01*
X13225539Y-14134913D02*
X13235062Y-14144436D01*
X13235062Y-14144436D02*
X13244586Y-14163484D01*
X13244586Y-14163484D02*
X13254110Y-14201579D01*
X13254110Y-14201579D02*
X13254110Y-14249198D01*
X13254110Y-14249198D02*
X13244586Y-14287293D01*
X13244586Y-14287293D02*
X13235062Y-14306341D01*
X13235062Y-14306341D02*
X13225539Y-14315865D01*
X13225539Y-14315865D02*
X13206491Y-14325389D01*
X13206491Y-14325389D02*
X13187443Y-14325389D01*
X13187443Y-14325389D02*
X13168396Y-14315865D01*
X13168396Y-14315865D02*
X13158872Y-14306341D01*
X13158872Y-14306341D02*
X13149348Y-14287293D01*
X13149348Y-14287293D02*
X13139824Y-14249198D01*
X13139824Y-14249198D02*
X13139824Y-14201579D01*
X13139824Y-14201579D02*
X13149348Y-14163484D01*
X13149348Y-14163484D02*
X13158872Y-14144436D01*
X13158872Y-14144436D02*
X13168396Y-14134913D01*
X13168396Y-14134913D02*
X13187443Y-14125389D01*
X13320777Y-14125389D02*
X13444586Y-14125389D01*
X13444586Y-14125389D02*
X13377920Y-14201579D01*
X13377920Y-14201579D02*
X13406491Y-14201579D01*
X13406491Y-14201579D02*
X13425539Y-14211103D01*
X13425539Y-14211103D02*
X13435062Y-14220627D01*
X13435062Y-14220627D02*
X13444586Y-14239674D01*
X13444586Y-14239674D02*
X13444586Y-14287293D01*
X13444586Y-14287293D02*
X13435062Y-14306341D01*
X13435062Y-14306341D02*
X13425539Y-14315865D01*
X13425539Y-14315865D02*
X13406491Y-14325389D01*
X13406491Y-14325389D02*
X13349348Y-14325389D01*
X13349348Y-14325389D02*
X13330301Y-14315865D01*
X13330301Y-14315865D02*
X13320777Y-14306341D01*
X13625539Y-14125389D02*
X13530301Y-14125389D01*
X13530301Y-14125389D02*
X13520777Y-14220627D01*
X13520777Y-14220627D02*
X13530301Y-14211103D01*
X13530301Y-14211103D02*
X13549348Y-14201579D01*
X13549348Y-14201579D02*
X13596967Y-14201579D01*
X13596967Y-14201579D02*
X13616015Y-14211103D01*
X13616015Y-14211103D02*
X13625539Y-14220627D01*
X13625539Y-14220627D02*
X13635062Y-14239674D01*
X13635062Y-14239674D02*
X13635062Y-14287293D01*
X13635062Y-14287293D02*
X13625539Y-14306341D01*
X13625539Y-14306341D02*
X13616015Y-14315865D01*
X13616015Y-14315865D02*
X13596967Y-14325389D01*
X13596967Y-14325389D02*
X13549348Y-14325389D01*
X13549348Y-14325389D02*
X13530301Y-14315865D01*
X13530301Y-14315865D02*
X13520777Y-14306341D01*
X13806491Y-14192055D02*
X13806491Y-14325389D01*
X13758872Y-14115865D02*
X13711253Y-14258722D01*
X13711253Y-14258722D02*
X13835062Y-14258722D01*
X13901729Y-14125389D02*
X13901729Y-14163484D01*
X13977920Y-14125389D02*
X13977920Y-14163484D01*
X14273158Y-14401579D02*
X14263634Y-14392055D01*
X14263634Y-14392055D02*
X14244586Y-14363484D01*
X14244586Y-14363484D02*
X14235063Y-14344436D01*
X14235063Y-14344436D02*
X14225539Y-14315865D01*
X14225539Y-14315865D02*
X14216015Y-14268246D01*
X14216015Y-14268246D02*
X14216015Y-14230151D01*
X14216015Y-14230151D02*
X14225539Y-14182532D01*
X14225539Y-14182532D02*
X14235063Y-14153960D01*
X14235063Y-14153960D02*
X14244586Y-14134913D01*
X14244586Y-14134913D02*
X14263634Y-14106341D01*
X14263634Y-14106341D02*
X14273158Y-14096817D01*
X14339824Y-14144436D02*
X14349348Y-14134913D01*
X14349348Y-14134913D02*
X14368396Y-14125389D01*
X14368396Y-14125389D02*
X14416015Y-14125389D01*
X14416015Y-14125389D02*
X14435063Y-14134913D01*
X14435063Y-14134913D02*
X14444586Y-14144436D01*
X14444586Y-14144436D02*
X14454110Y-14163484D01*
X14454110Y-14163484D02*
X14454110Y-14182532D01*
X14454110Y-14182532D02*
X14444586Y-14211103D01*
X14444586Y-14211103D02*
X14330301Y-14325389D01*
X14330301Y-14325389D02*
X14454110Y-14325389D01*
X14692205Y-14325389D02*
X14692205Y-14125389D01*
X14777920Y-14325389D02*
X14777920Y-14220627D01*
X14777920Y-14220627D02*
X14768396Y-14201579D01*
X14768396Y-14201579D02*
X14749348Y-14192055D01*
X14749348Y-14192055D02*
X14720777Y-14192055D01*
X14720777Y-14192055D02*
X14701729Y-14201579D01*
X14701729Y-14201579D02*
X14692205Y-14211103D01*
X14901729Y-14325389D02*
X14882682Y-14315865D01*
X14882682Y-14315865D02*
X14873158Y-14306341D01*
X14873158Y-14306341D02*
X14863634Y-14287293D01*
X14863634Y-14287293D02*
X14863634Y-14230151D01*
X14863634Y-14230151D02*
X14873158Y-14211103D01*
X14873158Y-14211103D02*
X14882682Y-14201579D01*
X14882682Y-14201579D02*
X14901729Y-14192055D01*
X14901729Y-14192055D02*
X14930301Y-14192055D01*
X14930301Y-14192055D02*
X14949348Y-14201579D01*
X14949348Y-14201579D02*
X14958872Y-14211103D01*
X14958872Y-14211103D02*
X14968396Y-14230151D01*
X14968396Y-14230151D02*
X14968396Y-14287293D01*
X14968396Y-14287293D02*
X14958872Y-14306341D01*
X14958872Y-14306341D02*
X14949348Y-14315865D01*
X14949348Y-14315865D02*
X14930301Y-14325389D01*
X14930301Y-14325389D02*
X14901729Y-14325389D01*
X15082682Y-14325389D02*
X15063634Y-14315865D01*
X15063634Y-14315865D02*
X15054110Y-14296817D01*
X15054110Y-14296817D02*
X15054110Y-14125389D01*
X15235063Y-14315865D02*
X15216015Y-14325389D01*
X15216015Y-14325389D02*
X15177920Y-14325389D01*
X15177920Y-14325389D02*
X15158872Y-14315865D01*
X15158872Y-14315865D02*
X15149348Y-14296817D01*
X15149348Y-14296817D02*
X15149348Y-14220627D01*
X15149348Y-14220627D02*
X15158872Y-14201579D01*
X15158872Y-14201579D02*
X15177920Y-14192055D01*
X15177920Y-14192055D02*
X15216015Y-14192055D01*
X15216015Y-14192055D02*
X15235063Y-14201579D01*
X15235063Y-14201579D02*
X15244586Y-14220627D01*
X15244586Y-14220627D02*
X15244586Y-14239674D01*
X15244586Y-14239674D02*
X15149348Y-14258722D01*
X15320777Y-14315865D02*
X15339825Y-14325389D01*
X15339825Y-14325389D02*
X15377920Y-14325389D01*
X15377920Y-14325389D02*
X15396967Y-14315865D01*
X15396967Y-14315865D02*
X15406491Y-14296817D01*
X15406491Y-14296817D02*
X15406491Y-14287293D01*
X15406491Y-14287293D02*
X15396967Y-14268246D01*
X15396967Y-14268246D02*
X15377920Y-14258722D01*
X15377920Y-14258722D02*
X15349348Y-14258722D01*
X15349348Y-14258722D02*
X15330301Y-14249198D01*
X15330301Y-14249198D02*
X15320777Y-14230151D01*
X15320777Y-14230151D02*
X15320777Y-14220627D01*
X15320777Y-14220627D02*
X15330301Y-14201579D01*
X15330301Y-14201579D02*
X15349348Y-14192055D01*
X15349348Y-14192055D02*
X15377920Y-14192055D01*
X15377920Y-14192055D02*
X15396967Y-14201579D01*
X15473158Y-14401579D02*
X15482682Y-14392055D01*
X15482682Y-14392055D02*
X15501729Y-14363484D01*
X15501729Y-14363484D02*
X15511253Y-14344436D01*
X15511253Y-14344436D02*
X15520777Y-14315865D01*
X15520777Y-14315865D02*
X15530301Y-14268246D01*
X15530301Y-14268246D02*
X15530301Y-14230151D01*
X15530301Y-14230151D02*
X15520777Y-14182532D01*
X15520777Y-14182532D02*
X15511253Y-14153960D01*
X15511253Y-14153960D02*
X15501729Y-14134913D01*
X15501729Y-14134913D02*
X15482682Y-14106341D01*
X15482682Y-14106341D02*
X15473158Y-14096817D01*
D12*
X10648095Y-14547905D02*
X10698095Y-14497905D01*
X10648095Y-14447905D01*
X10598095Y-14497905D01*
X10648095Y-14547905D01*
D11*
X11063634Y-14589389D02*
X10949348Y-14589389D01*
X11006491Y-14589389D02*
X11006491Y-14389389D01*
X11006491Y-14389389D02*
X10987443Y-14417960D01*
X10987443Y-14417960D02*
X10968396Y-14437008D01*
X10968396Y-14437008D02*
X10949348Y-14446532D01*
X11149348Y-14570341D02*
X11158872Y-14579865D01*
X11158872Y-14579865D02*
X11149348Y-14589389D01*
X11149348Y-14589389D02*
X11139824Y-14579865D01*
X11139824Y-14579865D02*
X11149348Y-14570341D01*
X11149348Y-14570341D02*
X11149348Y-14589389D01*
X11282681Y-14389389D02*
X11301729Y-14389389D01*
X11301729Y-14389389D02*
X11320777Y-14398913D01*
X11320777Y-14398913D02*
X11330300Y-14408436D01*
X11330300Y-14408436D02*
X11339824Y-14427484D01*
X11339824Y-14427484D02*
X11349348Y-14465579D01*
X11349348Y-14465579D02*
X11349348Y-14513198D01*
X11349348Y-14513198D02*
X11339824Y-14551293D01*
X11339824Y-14551293D02*
X11330300Y-14570341D01*
X11330300Y-14570341D02*
X11320777Y-14579865D01*
X11320777Y-14579865D02*
X11301729Y-14589389D01*
X11301729Y-14589389D02*
X11282681Y-14589389D01*
X11282681Y-14589389D02*
X11263634Y-14579865D01*
X11263634Y-14579865D02*
X11254110Y-14570341D01*
X11254110Y-14570341D02*
X11244586Y-14551293D01*
X11244586Y-14551293D02*
X11235062Y-14513198D01*
X11235062Y-14513198D02*
X11235062Y-14465579D01*
X11235062Y-14465579D02*
X11244586Y-14427484D01*
X11244586Y-14427484D02*
X11254110Y-14408436D01*
X11254110Y-14408436D02*
X11263634Y-14398913D01*
X11263634Y-14398913D02*
X11282681Y-14389389D01*
X11473157Y-14389389D02*
X11492205Y-14389389D01*
X11492205Y-14389389D02*
X11511253Y-14398913D01*
X11511253Y-14398913D02*
X11520777Y-14408436D01*
X11520777Y-14408436D02*
X11530300Y-14427484D01*
X11530300Y-14427484D02*
X11539824Y-14465579D01*
X11539824Y-14465579D02*
X11539824Y-14513198D01*
X11539824Y-14513198D02*
X11530300Y-14551293D01*
X11530300Y-14551293D02*
X11520777Y-14570341D01*
X11520777Y-14570341D02*
X11511253Y-14579865D01*
X11511253Y-14579865D02*
X11492205Y-14589389D01*
X11492205Y-14589389D02*
X11473157Y-14589389D01*
X11473157Y-14589389D02*
X11454110Y-14579865D01*
X11454110Y-14579865D02*
X11444586Y-14570341D01*
X11444586Y-14570341D02*
X11435062Y-14551293D01*
X11435062Y-14551293D02*
X11425538Y-14513198D01*
X11425538Y-14513198D02*
X11425538Y-14465579D01*
X11425538Y-14465579D02*
X11435062Y-14427484D01*
X11435062Y-14427484D02*
X11444586Y-14408436D01*
X11444586Y-14408436D02*
X11454110Y-14398913D01*
X11454110Y-14398913D02*
X11473157Y-14389389D01*
X11663634Y-14389389D02*
X11682681Y-14389389D01*
X11682681Y-14389389D02*
X11701729Y-14398913D01*
X11701729Y-14398913D02*
X11711253Y-14408436D01*
X11711253Y-14408436D02*
X11720777Y-14427484D01*
X11720777Y-14427484D02*
X11730300Y-14465579D01*
X11730300Y-14465579D02*
X11730300Y-14513198D01*
X11730300Y-14513198D02*
X11720777Y-14551293D01*
X11720777Y-14551293D02*
X11711253Y-14570341D01*
X11711253Y-14570341D02*
X11701729Y-14579865D01*
X11701729Y-14579865D02*
X11682681Y-14589389D01*
X11682681Y-14589389D02*
X11663634Y-14589389D01*
X11663634Y-14589389D02*
X11644586Y-14579865D01*
X11644586Y-14579865D02*
X11635062Y-14570341D01*
X11635062Y-14570341D02*
X11625538Y-14551293D01*
X11625538Y-14551293D02*
X11616015Y-14513198D01*
X11616015Y-14513198D02*
X11616015Y-14465579D01*
X11616015Y-14465579D02*
X11625538Y-14427484D01*
X11625538Y-14427484D02*
X11635062Y-14408436D01*
X11635062Y-14408436D02*
X11644586Y-14398913D01*
X11644586Y-14398913D02*
X11663634Y-14389389D01*
X11816015Y-14589389D02*
X11816015Y-14456055D01*
X11816015Y-14475103D02*
X11825538Y-14465579D01*
X11825538Y-14465579D02*
X11844586Y-14456055D01*
X11844586Y-14456055D02*
X11873158Y-14456055D01*
X11873158Y-14456055D02*
X11892205Y-14465579D01*
X11892205Y-14465579D02*
X11901729Y-14484627D01*
X11901729Y-14484627D02*
X11901729Y-14589389D01*
X11901729Y-14484627D02*
X11911253Y-14465579D01*
X11911253Y-14465579D02*
X11930300Y-14456055D01*
X11930300Y-14456055D02*
X11958872Y-14456055D01*
X11958872Y-14456055D02*
X11977919Y-14465579D01*
X11977919Y-14465579D02*
X11987443Y-14484627D01*
X11987443Y-14484627D02*
X11987443Y-14589389D01*
X12082681Y-14589389D02*
X12082681Y-14456055D01*
X12082681Y-14475103D02*
X12092205Y-14465579D01*
X12092205Y-14465579D02*
X12111253Y-14456055D01*
X12111253Y-14456055D02*
X12139824Y-14456055D01*
X12139824Y-14456055D02*
X12158872Y-14465579D01*
X12158872Y-14465579D02*
X12168396Y-14484627D01*
X12168396Y-14484627D02*
X12168396Y-14589389D01*
X12168396Y-14484627D02*
X12177919Y-14465579D01*
X12177919Y-14465579D02*
X12196967Y-14456055D01*
X12196967Y-14456055D02*
X12225538Y-14456055D01*
X12225538Y-14456055D02*
X12244586Y-14465579D01*
X12244586Y-14465579D02*
X12254110Y-14484627D01*
X12254110Y-14484627D02*
X12254110Y-14589389D01*
X12644586Y-14379865D02*
X12473158Y-14637008D01*
X12901729Y-14389389D02*
X12920777Y-14389389D01*
X12920777Y-14389389D02*
X12939824Y-14398913D01*
X12939824Y-14398913D02*
X12949348Y-14408436D01*
X12949348Y-14408436D02*
X12958872Y-14427484D01*
X12958872Y-14427484D02*
X12968396Y-14465579D01*
X12968396Y-14465579D02*
X12968396Y-14513198D01*
X12968396Y-14513198D02*
X12958872Y-14551293D01*
X12958872Y-14551293D02*
X12949348Y-14570341D01*
X12949348Y-14570341D02*
X12939824Y-14579865D01*
X12939824Y-14579865D02*
X12920777Y-14589389D01*
X12920777Y-14589389D02*
X12901729Y-14589389D01*
X12901729Y-14589389D02*
X12882681Y-14579865D01*
X12882681Y-14579865D02*
X12873158Y-14570341D01*
X12873158Y-14570341D02*
X12863634Y-14551293D01*
X12863634Y-14551293D02*
X12854110Y-14513198D01*
X12854110Y-14513198D02*
X12854110Y-14465579D01*
X12854110Y-14465579D02*
X12863634Y-14427484D01*
X12863634Y-14427484D02*
X12873158Y-14408436D01*
X12873158Y-14408436D02*
X12882681Y-14398913D01*
X12882681Y-14398913D02*
X12901729Y-14389389D01*
X13054110Y-14570341D02*
X13063634Y-14579865D01*
X13063634Y-14579865D02*
X13054110Y-14589389D01*
X13054110Y-14589389D02*
X13044586Y-14579865D01*
X13044586Y-14579865D02*
X13054110Y-14570341D01*
X13054110Y-14570341D02*
X13054110Y-14589389D01*
X13187443Y-14389389D02*
X13206491Y-14389389D01*
X13206491Y-14389389D02*
X13225539Y-14398913D01*
X13225539Y-14398913D02*
X13235062Y-14408436D01*
X13235062Y-14408436D02*
X13244586Y-14427484D01*
X13244586Y-14427484D02*
X13254110Y-14465579D01*
X13254110Y-14465579D02*
X13254110Y-14513198D01*
X13254110Y-14513198D02*
X13244586Y-14551293D01*
X13244586Y-14551293D02*
X13235062Y-14570341D01*
X13235062Y-14570341D02*
X13225539Y-14579865D01*
X13225539Y-14579865D02*
X13206491Y-14589389D01*
X13206491Y-14589389D02*
X13187443Y-14589389D01*
X13187443Y-14589389D02*
X13168396Y-14579865D01*
X13168396Y-14579865D02*
X13158872Y-14570341D01*
X13158872Y-14570341D02*
X13149348Y-14551293D01*
X13149348Y-14551293D02*
X13139824Y-14513198D01*
X13139824Y-14513198D02*
X13139824Y-14465579D01*
X13139824Y-14465579D02*
X13149348Y-14427484D01*
X13149348Y-14427484D02*
X13158872Y-14408436D01*
X13158872Y-14408436D02*
X13168396Y-14398913D01*
X13168396Y-14398913D02*
X13187443Y-14389389D01*
X13320777Y-14389389D02*
X13444586Y-14389389D01*
X13444586Y-14389389D02*
X13377920Y-14465579D01*
X13377920Y-14465579D02*
X13406491Y-14465579D01*
X13406491Y-14465579D02*
X13425539Y-14475103D01*
X13425539Y-14475103D02*
X13435062Y-14484627D01*
X13435062Y-14484627D02*
X13444586Y-14503674D01*
X13444586Y-14503674D02*
X13444586Y-14551293D01*
X13444586Y-14551293D02*
X13435062Y-14570341D01*
X13435062Y-14570341D02*
X13425539Y-14579865D01*
X13425539Y-14579865D02*
X13406491Y-14589389D01*
X13406491Y-14589389D02*
X13349348Y-14589389D01*
X13349348Y-14589389D02*
X13330301Y-14579865D01*
X13330301Y-14579865D02*
X13320777Y-14570341D01*
X13539824Y-14589389D02*
X13577920Y-14589389D01*
X13577920Y-14589389D02*
X13596967Y-14579865D01*
X13596967Y-14579865D02*
X13606491Y-14570341D01*
X13606491Y-14570341D02*
X13625539Y-14541770D01*
X13625539Y-14541770D02*
X13635062Y-14503674D01*
X13635062Y-14503674D02*
X13635062Y-14427484D01*
X13635062Y-14427484D02*
X13625539Y-14408436D01*
X13625539Y-14408436D02*
X13616015Y-14398913D01*
X13616015Y-14398913D02*
X13596967Y-14389389D01*
X13596967Y-14389389D02*
X13558872Y-14389389D01*
X13558872Y-14389389D02*
X13539824Y-14398913D01*
X13539824Y-14398913D02*
X13530301Y-14408436D01*
X13530301Y-14408436D02*
X13520777Y-14427484D01*
X13520777Y-14427484D02*
X13520777Y-14475103D01*
X13520777Y-14475103D02*
X13530301Y-14494151D01*
X13530301Y-14494151D02*
X13539824Y-14503674D01*
X13539824Y-14503674D02*
X13558872Y-14513198D01*
X13558872Y-14513198D02*
X13596967Y-14513198D01*
X13596967Y-14513198D02*
X13616015Y-14503674D01*
X13616015Y-14503674D02*
X13625539Y-14494151D01*
X13625539Y-14494151D02*
X13635062Y-14475103D01*
X13806491Y-14456055D02*
X13806491Y-14589389D01*
X13758872Y-14379865D02*
X13711253Y-14522722D01*
X13711253Y-14522722D02*
X13835062Y-14522722D01*
X13901729Y-14389389D02*
X13901729Y-14427484D01*
X13977920Y-14389389D02*
X13977920Y-14427484D01*
X14273158Y-14665579D02*
X14263634Y-14656055D01*
X14263634Y-14656055D02*
X14244586Y-14627484D01*
X14244586Y-14627484D02*
X14235063Y-14608436D01*
X14235063Y-14608436D02*
X14225539Y-14579865D01*
X14225539Y-14579865D02*
X14216015Y-14532246D01*
X14216015Y-14532246D02*
X14216015Y-14494151D01*
X14216015Y-14494151D02*
X14225539Y-14446532D01*
X14225539Y-14446532D02*
X14235063Y-14417960D01*
X14235063Y-14417960D02*
X14244586Y-14398913D01*
X14244586Y-14398913D02*
X14263634Y-14370341D01*
X14263634Y-14370341D02*
X14273158Y-14360817D01*
X14330301Y-14389389D02*
X14454110Y-14389389D01*
X14454110Y-14389389D02*
X14387443Y-14465579D01*
X14387443Y-14465579D02*
X14416015Y-14465579D01*
X14416015Y-14465579D02*
X14435063Y-14475103D01*
X14435063Y-14475103D02*
X14444586Y-14484627D01*
X14444586Y-14484627D02*
X14454110Y-14503674D01*
X14454110Y-14503674D02*
X14454110Y-14551293D01*
X14454110Y-14551293D02*
X14444586Y-14570341D01*
X14444586Y-14570341D02*
X14435063Y-14579865D01*
X14435063Y-14579865D02*
X14416015Y-14589389D01*
X14416015Y-14589389D02*
X14358872Y-14589389D01*
X14358872Y-14589389D02*
X14339824Y-14579865D01*
X14339824Y-14579865D02*
X14330301Y-14570341D01*
X14577920Y-14389389D02*
X14596967Y-14389389D01*
X14596967Y-14389389D02*
X14616015Y-14398913D01*
X14616015Y-14398913D02*
X14625539Y-14408436D01*
X14625539Y-14408436D02*
X14635063Y-14427484D01*
X14635063Y-14427484D02*
X14644586Y-14465579D01*
X14644586Y-14465579D02*
X14644586Y-14513198D01*
X14644586Y-14513198D02*
X14635063Y-14551293D01*
X14635063Y-14551293D02*
X14625539Y-14570341D01*
X14625539Y-14570341D02*
X14616015Y-14579865D01*
X14616015Y-14579865D02*
X14596967Y-14589389D01*
X14596967Y-14589389D02*
X14577920Y-14589389D01*
X14577920Y-14589389D02*
X14558872Y-14579865D01*
X14558872Y-14579865D02*
X14549348Y-14570341D01*
X14549348Y-14570341D02*
X14539824Y-14551293D01*
X14539824Y-14551293D02*
X14530301Y-14513198D01*
X14530301Y-14513198D02*
X14530301Y-14465579D01*
X14530301Y-14465579D02*
X14539824Y-14427484D01*
X14539824Y-14427484D02*
X14549348Y-14408436D01*
X14549348Y-14408436D02*
X14558872Y-14398913D01*
X14558872Y-14398913D02*
X14577920Y-14389389D01*
X14882682Y-14589389D02*
X14882682Y-14389389D01*
X14968396Y-14589389D02*
X14968396Y-14484627D01*
X14968396Y-14484627D02*
X14958872Y-14465579D01*
X14958872Y-14465579D02*
X14939825Y-14456055D01*
X14939825Y-14456055D02*
X14911253Y-14456055D01*
X14911253Y-14456055D02*
X14892205Y-14465579D01*
X14892205Y-14465579D02*
X14882682Y-14475103D01*
X15092205Y-14589389D02*
X15073158Y-14579865D01*
X15073158Y-14579865D02*
X15063634Y-14570341D01*
X15063634Y-14570341D02*
X15054110Y-14551293D01*
X15054110Y-14551293D02*
X15054110Y-14494151D01*
X15054110Y-14494151D02*
X15063634Y-14475103D01*
X15063634Y-14475103D02*
X15073158Y-14465579D01*
X15073158Y-14465579D02*
X15092205Y-14456055D01*
X15092205Y-14456055D02*
X15120777Y-14456055D01*
X15120777Y-14456055D02*
X15139825Y-14465579D01*
X15139825Y-14465579D02*
X15149348Y-14475103D01*
X15149348Y-14475103D02*
X15158872Y-14494151D01*
X15158872Y-14494151D02*
X15158872Y-14551293D01*
X15158872Y-14551293D02*
X15149348Y-14570341D01*
X15149348Y-14570341D02*
X15139825Y-14579865D01*
X15139825Y-14579865D02*
X15120777Y-14589389D01*
X15120777Y-14589389D02*
X15092205Y-14589389D01*
X15273158Y-14589389D02*
X15254110Y-14579865D01*
X15254110Y-14579865D02*
X15244586Y-14560817D01*
X15244586Y-14560817D02*
X15244586Y-14389389D01*
X15425539Y-14579865D02*
X15406491Y-14589389D01*
X15406491Y-14589389D02*
X15368396Y-14589389D01*
X15368396Y-14589389D02*
X15349348Y-14579865D01*
X15349348Y-14579865D02*
X15339825Y-14560817D01*
X15339825Y-14560817D02*
X15339825Y-14484627D01*
X15339825Y-14484627D02*
X15349348Y-14465579D01*
X15349348Y-14465579D02*
X15368396Y-14456055D01*
X15368396Y-14456055D02*
X15406491Y-14456055D01*
X15406491Y-14456055D02*
X15425539Y-14465579D01*
X15425539Y-14465579D02*
X15435063Y-14484627D01*
X15435063Y-14484627D02*
X15435063Y-14503674D01*
X15435063Y-14503674D02*
X15339825Y-14522722D01*
X15511253Y-14579865D02*
X15530301Y-14589389D01*
X15530301Y-14589389D02*
X15568396Y-14589389D01*
X15568396Y-14589389D02*
X15587444Y-14579865D01*
X15587444Y-14579865D02*
X15596967Y-14560817D01*
X15596967Y-14560817D02*
X15596967Y-14551293D01*
X15596967Y-14551293D02*
X15587444Y-14532246D01*
X15587444Y-14532246D02*
X15568396Y-14522722D01*
X15568396Y-14522722D02*
X15539825Y-14522722D01*
X15539825Y-14522722D02*
X15520777Y-14513198D01*
X15520777Y-14513198D02*
X15511253Y-14494151D01*
X15511253Y-14494151D02*
X15511253Y-14484627D01*
X15511253Y-14484627D02*
X15520777Y-14465579D01*
X15520777Y-14465579D02*
X15539825Y-14456055D01*
X15539825Y-14456055D02*
X15568396Y-14456055D01*
X15568396Y-14456055D02*
X15587444Y-14465579D01*
X15663634Y-14665579D02*
X15673158Y-14656055D01*
X15673158Y-14656055D02*
X15692206Y-14627484D01*
X15692206Y-14627484D02*
X15701729Y-14608436D01*
X15701729Y-14608436D02*
X15711253Y-14579865D01*
X15711253Y-14579865D02*
X15720777Y-14532246D01*
X15720777Y-14532246D02*
X15720777Y-14494151D01*
X15720777Y-14494151D02*
X15711253Y-14446532D01*
X15711253Y-14446532D02*
X15701729Y-14417960D01*
X15701729Y-14417960D02*
X15692206Y-14398913D01*
X15692206Y-14398913D02*
X15673158Y-14370341D01*
X15673158Y-14370341D02*
X15663634Y-14360817D01*
D13*
X10588095Y-14706905D02*
X10698095Y-14816905D01*
X10698095Y-14706905D02*
X10588095Y-14816905D01*
X10698095Y-14761905D02*
G75*
G02*
X10588095Y-14761905I-55000J0D01*
G01*
X10588095Y-14761905D02*
G75*
G02*
X10698095Y-14761905I55000J0D01*
G01*
D11*
X11063634Y-14853389D02*
X10949348Y-14853389D01*
X11006491Y-14853389D02*
X11006491Y-14653389D01*
X11006491Y-14653389D02*
X10987443Y-14681960D01*
X10987443Y-14681960D02*
X10968396Y-14701008D01*
X10968396Y-14701008D02*
X10949348Y-14710532D01*
X11149348Y-14834341D02*
X11158872Y-14843865D01*
X11158872Y-14843865D02*
X11149348Y-14853389D01*
X11149348Y-14853389D02*
X11139824Y-14843865D01*
X11139824Y-14843865D02*
X11149348Y-14834341D01*
X11149348Y-14834341D02*
X11149348Y-14853389D01*
X11349348Y-14853389D02*
X11235062Y-14853389D01*
X11292205Y-14853389D02*
X11292205Y-14653389D01*
X11292205Y-14653389D02*
X11273157Y-14681960D01*
X11273157Y-14681960D02*
X11254110Y-14701008D01*
X11254110Y-14701008D02*
X11235062Y-14710532D01*
X11473157Y-14653389D02*
X11492205Y-14653389D01*
X11492205Y-14653389D02*
X11511253Y-14662913D01*
X11511253Y-14662913D02*
X11520777Y-14672436D01*
X11520777Y-14672436D02*
X11530300Y-14691484D01*
X11530300Y-14691484D02*
X11539824Y-14729579D01*
X11539824Y-14729579D02*
X11539824Y-14777198D01*
X11539824Y-14777198D02*
X11530300Y-14815293D01*
X11530300Y-14815293D02*
X11520777Y-14834341D01*
X11520777Y-14834341D02*
X11511253Y-14843865D01*
X11511253Y-14843865D02*
X11492205Y-14853389D01*
X11492205Y-14853389D02*
X11473157Y-14853389D01*
X11473157Y-14853389D02*
X11454110Y-14843865D01*
X11454110Y-14843865D02*
X11444586Y-14834341D01*
X11444586Y-14834341D02*
X11435062Y-14815293D01*
X11435062Y-14815293D02*
X11425538Y-14777198D01*
X11425538Y-14777198D02*
X11425538Y-14729579D01*
X11425538Y-14729579D02*
X11435062Y-14691484D01*
X11435062Y-14691484D02*
X11444586Y-14672436D01*
X11444586Y-14672436D02*
X11454110Y-14662913D01*
X11454110Y-14662913D02*
X11473157Y-14653389D01*
X11663634Y-14653389D02*
X11682681Y-14653389D01*
X11682681Y-14653389D02*
X11701729Y-14662913D01*
X11701729Y-14662913D02*
X11711253Y-14672436D01*
X11711253Y-14672436D02*
X11720777Y-14691484D01*
X11720777Y-14691484D02*
X11730300Y-14729579D01*
X11730300Y-14729579D02*
X11730300Y-14777198D01*
X11730300Y-14777198D02*
X11720777Y-14815293D01*
X11720777Y-14815293D02*
X11711253Y-14834341D01*
X11711253Y-14834341D02*
X11701729Y-14843865D01*
X11701729Y-14843865D02*
X11682681Y-14853389D01*
X11682681Y-14853389D02*
X11663634Y-14853389D01*
X11663634Y-14853389D02*
X11644586Y-14843865D01*
X11644586Y-14843865D02*
X11635062Y-14834341D01*
X11635062Y-14834341D02*
X11625538Y-14815293D01*
X11625538Y-14815293D02*
X11616015Y-14777198D01*
X11616015Y-14777198D02*
X11616015Y-14729579D01*
X11616015Y-14729579D02*
X11625538Y-14691484D01*
X11625538Y-14691484D02*
X11635062Y-14672436D01*
X11635062Y-14672436D02*
X11644586Y-14662913D01*
X11644586Y-14662913D02*
X11663634Y-14653389D01*
X11816015Y-14853389D02*
X11816015Y-14720055D01*
X11816015Y-14739103D02*
X11825538Y-14729579D01*
X11825538Y-14729579D02*
X11844586Y-14720055D01*
X11844586Y-14720055D02*
X11873158Y-14720055D01*
X11873158Y-14720055D02*
X11892205Y-14729579D01*
X11892205Y-14729579D02*
X11901729Y-14748627D01*
X11901729Y-14748627D02*
X11901729Y-14853389D01*
X11901729Y-14748627D02*
X11911253Y-14729579D01*
X11911253Y-14729579D02*
X11930300Y-14720055D01*
X11930300Y-14720055D02*
X11958872Y-14720055D01*
X11958872Y-14720055D02*
X11977919Y-14729579D01*
X11977919Y-14729579D02*
X11987443Y-14748627D01*
X11987443Y-14748627D02*
X11987443Y-14853389D01*
X12082681Y-14853389D02*
X12082681Y-14720055D01*
X12082681Y-14739103D02*
X12092205Y-14729579D01*
X12092205Y-14729579D02*
X12111253Y-14720055D01*
X12111253Y-14720055D02*
X12139824Y-14720055D01*
X12139824Y-14720055D02*
X12158872Y-14729579D01*
X12158872Y-14729579D02*
X12168396Y-14748627D01*
X12168396Y-14748627D02*
X12168396Y-14853389D01*
X12168396Y-14748627D02*
X12177919Y-14729579D01*
X12177919Y-14729579D02*
X12196967Y-14720055D01*
X12196967Y-14720055D02*
X12225538Y-14720055D01*
X12225538Y-14720055D02*
X12244586Y-14729579D01*
X12244586Y-14729579D02*
X12254110Y-14748627D01*
X12254110Y-14748627D02*
X12254110Y-14853389D01*
X12644586Y-14643865D02*
X12473158Y-14901008D01*
X12901729Y-14653389D02*
X12920777Y-14653389D01*
X12920777Y-14653389D02*
X12939824Y-14662913D01*
X12939824Y-14662913D02*
X12949348Y-14672436D01*
X12949348Y-14672436D02*
X12958872Y-14691484D01*
X12958872Y-14691484D02*
X12968396Y-14729579D01*
X12968396Y-14729579D02*
X12968396Y-14777198D01*
X12968396Y-14777198D02*
X12958872Y-14815293D01*
X12958872Y-14815293D02*
X12949348Y-14834341D01*
X12949348Y-14834341D02*
X12939824Y-14843865D01*
X12939824Y-14843865D02*
X12920777Y-14853389D01*
X12920777Y-14853389D02*
X12901729Y-14853389D01*
X12901729Y-14853389D02*
X12882681Y-14843865D01*
X12882681Y-14843865D02*
X12873158Y-14834341D01*
X12873158Y-14834341D02*
X12863634Y-14815293D01*
X12863634Y-14815293D02*
X12854110Y-14777198D01*
X12854110Y-14777198D02*
X12854110Y-14729579D01*
X12854110Y-14729579D02*
X12863634Y-14691484D01*
X12863634Y-14691484D02*
X12873158Y-14672436D01*
X12873158Y-14672436D02*
X12882681Y-14662913D01*
X12882681Y-14662913D02*
X12901729Y-14653389D01*
X13054110Y-14834341D02*
X13063634Y-14843865D01*
X13063634Y-14843865D02*
X13054110Y-14853389D01*
X13054110Y-14853389D02*
X13044586Y-14843865D01*
X13044586Y-14843865D02*
X13054110Y-14834341D01*
X13054110Y-14834341D02*
X13054110Y-14853389D01*
X13187443Y-14653389D02*
X13206491Y-14653389D01*
X13206491Y-14653389D02*
X13225539Y-14662913D01*
X13225539Y-14662913D02*
X13235062Y-14672436D01*
X13235062Y-14672436D02*
X13244586Y-14691484D01*
X13244586Y-14691484D02*
X13254110Y-14729579D01*
X13254110Y-14729579D02*
X13254110Y-14777198D01*
X13254110Y-14777198D02*
X13244586Y-14815293D01*
X13244586Y-14815293D02*
X13235062Y-14834341D01*
X13235062Y-14834341D02*
X13225539Y-14843865D01*
X13225539Y-14843865D02*
X13206491Y-14853389D01*
X13206491Y-14853389D02*
X13187443Y-14853389D01*
X13187443Y-14853389D02*
X13168396Y-14843865D01*
X13168396Y-14843865D02*
X13158872Y-14834341D01*
X13158872Y-14834341D02*
X13149348Y-14815293D01*
X13149348Y-14815293D02*
X13139824Y-14777198D01*
X13139824Y-14777198D02*
X13139824Y-14729579D01*
X13139824Y-14729579D02*
X13149348Y-14691484D01*
X13149348Y-14691484D02*
X13158872Y-14672436D01*
X13158872Y-14672436D02*
X13168396Y-14662913D01*
X13168396Y-14662913D02*
X13187443Y-14653389D01*
X13425539Y-14720055D02*
X13425539Y-14853389D01*
X13377920Y-14643865D02*
X13330301Y-14786722D01*
X13330301Y-14786722D02*
X13454110Y-14786722D01*
X13511253Y-14653389D02*
X13635062Y-14653389D01*
X13635062Y-14653389D02*
X13568396Y-14729579D01*
X13568396Y-14729579D02*
X13596967Y-14729579D01*
X13596967Y-14729579D02*
X13616015Y-14739103D01*
X13616015Y-14739103D02*
X13625539Y-14748627D01*
X13625539Y-14748627D02*
X13635062Y-14767674D01*
X13635062Y-14767674D02*
X13635062Y-14815293D01*
X13635062Y-14815293D02*
X13625539Y-14834341D01*
X13625539Y-14834341D02*
X13616015Y-14843865D01*
X13616015Y-14843865D02*
X13596967Y-14853389D01*
X13596967Y-14853389D02*
X13539824Y-14853389D01*
X13539824Y-14853389D02*
X13520777Y-14843865D01*
X13520777Y-14843865D02*
X13511253Y-14834341D01*
X13701729Y-14653389D02*
X13825539Y-14653389D01*
X13825539Y-14653389D02*
X13758872Y-14729579D01*
X13758872Y-14729579D02*
X13787443Y-14729579D01*
X13787443Y-14729579D02*
X13806491Y-14739103D01*
X13806491Y-14739103D02*
X13816015Y-14748627D01*
X13816015Y-14748627D02*
X13825539Y-14767674D01*
X13825539Y-14767674D02*
X13825539Y-14815293D01*
X13825539Y-14815293D02*
X13816015Y-14834341D01*
X13816015Y-14834341D02*
X13806491Y-14843865D01*
X13806491Y-14843865D02*
X13787443Y-14853389D01*
X13787443Y-14853389D02*
X13730301Y-14853389D01*
X13730301Y-14853389D02*
X13711253Y-14843865D01*
X13711253Y-14843865D02*
X13701729Y-14834341D01*
X13901729Y-14653389D02*
X13901729Y-14691484D01*
X13977920Y-14653389D02*
X13977920Y-14691484D01*
X14273158Y-14929579D02*
X14263634Y-14920055D01*
X14263634Y-14920055D02*
X14244586Y-14891484D01*
X14244586Y-14891484D02*
X14235063Y-14872436D01*
X14235063Y-14872436D02*
X14225539Y-14843865D01*
X14225539Y-14843865D02*
X14216015Y-14796246D01*
X14216015Y-14796246D02*
X14216015Y-14758151D01*
X14216015Y-14758151D02*
X14225539Y-14710532D01*
X14225539Y-14710532D02*
X14235063Y-14681960D01*
X14235063Y-14681960D02*
X14244586Y-14662913D01*
X14244586Y-14662913D02*
X14263634Y-14634341D01*
X14263634Y-14634341D02*
X14273158Y-14624817D01*
X14454110Y-14853389D02*
X14339824Y-14853389D01*
X14396967Y-14853389D02*
X14396967Y-14653389D01*
X14396967Y-14653389D02*
X14377920Y-14681960D01*
X14377920Y-14681960D02*
X14358872Y-14701008D01*
X14358872Y-14701008D02*
X14339824Y-14710532D01*
X14530301Y-14672436D02*
X14539824Y-14662913D01*
X14539824Y-14662913D02*
X14558872Y-14653389D01*
X14558872Y-14653389D02*
X14606491Y-14653389D01*
X14606491Y-14653389D02*
X14625539Y-14662913D01*
X14625539Y-14662913D02*
X14635063Y-14672436D01*
X14635063Y-14672436D02*
X14644586Y-14691484D01*
X14644586Y-14691484D02*
X14644586Y-14710532D01*
X14644586Y-14710532D02*
X14635063Y-14739103D01*
X14635063Y-14739103D02*
X14520777Y-14853389D01*
X14520777Y-14853389D02*
X14644586Y-14853389D01*
X14882682Y-14853389D02*
X14882682Y-14653389D01*
X14968396Y-14853389D02*
X14968396Y-14748627D01*
X14968396Y-14748627D02*
X14958872Y-14729579D01*
X14958872Y-14729579D02*
X14939825Y-14720055D01*
X14939825Y-14720055D02*
X14911253Y-14720055D01*
X14911253Y-14720055D02*
X14892205Y-14729579D01*
X14892205Y-14729579D02*
X14882682Y-14739103D01*
X15092205Y-14853389D02*
X15073158Y-14843865D01*
X15073158Y-14843865D02*
X15063634Y-14834341D01*
X15063634Y-14834341D02*
X15054110Y-14815293D01*
X15054110Y-14815293D02*
X15054110Y-14758151D01*
X15054110Y-14758151D02*
X15063634Y-14739103D01*
X15063634Y-14739103D02*
X15073158Y-14729579D01*
X15073158Y-14729579D02*
X15092205Y-14720055D01*
X15092205Y-14720055D02*
X15120777Y-14720055D01*
X15120777Y-14720055D02*
X15139825Y-14729579D01*
X15139825Y-14729579D02*
X15149348Y-14739103D01*
X15149348Y-14739103D02*
X15158872Y-14758151D01*
X15158872Y-14758151D02*
X15158872Y-14815293D01*
X15158872Y-14815293D02*
X15149348Y-14834341D01*
X15149348Y-14834341D02*
X15139825Y-14843865D01*
X15139825Y-14843865D02*
X15120777Y-14853389D01*
X15120777Y-14853389D02*
X15092205Y-14853389D01*
X15273158Y-14853389D02*
X15254110Y-14843865D01*
X15254110Y-14843865D02*
X15244586Y-14824817D01*
X15244586Y-14824817D02*
X15244586Y-14653389D01*
X15425539Y-14843865D02*
X15406491Y-14853389D01*
X15406491Y-14853389D02*
X15368396Y-14853389D01*
X15368396Y-14853389D02*
X15349348Y-14843865D01*
X15349348Y-14843865D02*
X15339825Y-14824817D01*
X15339825Y-14824817D02*
X15339825Y-14748627D01*
X15339825Y-14748627D02*
X15349348Y-14729579D01*
X15349348Y-14729579D02*
X15368396Y-14720055D01*
X15368396Y-14720055D02*
X15406491Y-14720055D01*
X15406491Y-14720055D02*
X15425539Y-14729579D01*
X15425539Y-14729579D02*
X15435063Y-14748627D01*
X15435063Y-14748627D02*
X15435063Y-14767674D01*
X15435063Y-14767674D02*
X15339825Y-14786722D01*
X15511253Y-14843865D02*
X15530301Y-14853389D01*
X15530301Y-14853389D02*
X15568396Y-14853389D01*
X15568396Y-14853389D02*
X15587444Y-14843865D01*
X15587444Y-14843865D02*
X15596967Y-14824817D01*
X15596967Y-14824817D02*
X15596967Y-14815293D01*
X15596967Y-14815293D02*
X15587444Y-14796246D01*
X15587444Y-14796246D02*
X15568396Y-14786722D01*
X15568396Y-14786722D02*
X15539825Y-14786722D01*
X15539825Y-14786722D02*
X15520777Y-14777198D01*
X15520777Y-14777198D02*
X15511253Y-14758151D01*
X15511253Y-14758151D02*
X15511253Y-14748627D01*
X15511253Y-14748627D02*
X15520777Y-14729579D01*
X15520777Y-14729579D02*
X15539825Y-14720055D01*
X15539825Y-14720055D02*
X15568396Y-14720055D01*
X15568396Y-14720055D02*
X15587444Y-14729579D01*
X15663634Y-14929579D02*
X15673158Y-14920055D01*
X15673158Y-14920055D02*
X15692206Y-14891484D01*
X15692206Y-14891484D02*
X15701729Y-14872436D01*
X15701729Y-14872436D02*
X15711253Y-14843865D01*
X15711253Y-14843865D02*
X15720777Y-14796246D01*
X15720777Y-14796246D02*
X15720777Y-14758151D01*
X15720777Y-14758151D02*
X15711253Y-14710532D01*
X15711253Y-14710532D02*
X15701729Y-14681960D01*
X15701729Y-14681960D02*
X15692206Y-14662913D01*
X15692206Y-14662913D02*
X15673158Y-14634341D01*
X15673158Y-14634341D02*
X15663634Y-14624817D01*
M02*
