G04 #@! TF.GenerationSoftware,KiCad,Pcbnew,8.0.6*
G04 #@! TF.CreationDate,2026-09-01T23:35:07+08:00*
G04 #@! TF.ProjectId,learning,6c656172-6e69-46e6-972e-6b696361645f,rev?*
G04 #@! TF.SameCoordinates,Original*
G04 #@! TF.FileFunction,Copper,L1,Top*
G04 #@! TF.FilePolarity,Positive*
%FSLAX46Y46*%
G04 Gerber Fmt 4.6, Leading zero omitted, Abs format (unit mm)*
G04 Created by KiCad (PCBNEW 8.0.6) date 2026-09-01 23:35:07*
%MOMM*%
%LPD*%
G01*
G04 APERTURE LIST*
G04 #@! TA.AperFunction,ComponentPad*
%ADD10R,1.524000X1.524000*%
G04 #@! TD*
G04 #@! TA.AperFunction,ComponentPad*
%ADD11C,1.524000*%
G04 #@! TD*
G04 #@! TA.AperFunction,ComponentPad*
%ADD12C,2.000000*%
G04 #@! TD*
G04 #@! TA.AperFunction,ComponentPad*
%ADD13C,1.600000*%
G04 #@! TD*
G04 #@! TA.AperFunction,ComponentPad*
%ADD14O,1.600000X1.600000*%
G04 #@! TD*
G04 #@! TA.AperFunction,ComponentPad*
%ADD15R,1.800000X1.800000*%
G04 #@! TD*
G04 #@! TA.AperFunction,ComponentPad*
%ADD16C,1.800000*%
G04 #@! TD*
G04 #@! TA.AperFunction,ComponentPad*
%ADD17R,1.600000X1.600000*%
G04 #@! TD*
G04 #@! TA.AperFunction,ViaPad*
%ADD18C,0.600000*%
G04 #@! TD*
G04 #@! TA.AperFunction,Conductor*
%ADD19C,0.200000*%
G04 #@! TD*
G04 #@! TA.AperFunction,Conductor*
%ADD20C,0.400000*%
G04 #@! TD*
G04 APERTURE END LIST*
D10*
X117510000Y-83680000D03*
D11*
X120050000Y-83680000D03*
X122590000Y-83680000D03*
X125130000Y-83680000D03*
X120050000Y-114160000D03*
X117510000Y-114160000D03*
X114970000Y-114160000D03*
X112430000Y-114160000D03*
D10*
X109890000Y-114160000D03*
D12*
X177200000Y-123740000D03*
X170700000Y-123740000D03*
X177200000Y-119240000D03*
X170700000Y-119240000D03*
X177200000Y-109770000D03*
X170700000Y-109770000D03*
X177200000Y-105270000D03*
X170700000Y-105270000D03*
X177200000Y-98340000D03*
X170700000Y-98340000D03*
X177200000Y-93840000D03*
X170700000Y-93840000D03*
D13*
X159420000Y-84950000D03*
D14*
X167040000Y-84950000D03*
D13*
X166000000Y-116600000D03*
D14*
X166000000Y-124220000D03*
D13*
X165800000Y-103600000D03*
D14*
X165800000Y-111220000D03*
D13*
X165900000Y-91100000D03*
D14*
X165900000Y-98720000D03*
D15*
X174240000Y-85000000D03*
D16*
X171700000Y-85000000D03*
D13*
X160690000Y-122970000D03*
X160690000Y-117970000D03*
X160690000Y-110270000D03*
X160690000Y-105270000D03*
X160770000Y-97570000D03*
X160770000Y-92570000D03*
D17*
X155610000Y-123050000D03*
D14*
X155610000Y-120510000D03*
X155610000Y-117970000D03*
X155610000Y-115430000D03*
X155610000Y-112890000D03*
X155610000Y-110350000D03*
X155610000Y-107810000D03*
X155610000Y-105270000D03*
X155610000Y-102730000D03*
X155610000Y-100190000D03*
X155610000Y-97650000D03*
X155610000Y-95110000D03*
X155610000Y-92570000D03*
X155610000Y-90030000D03*
X155610000Y-87490000D03*
X140370000Y-87490000D03*
X140370000Y-90030000D03*
X140370000Y-92570000D03*
X140370000Y-95110000D03*
X140370000Y-97650000D03*
X140370000Y-100190000D03*
X140370000Y-102730000D03*
X140370000Y-105270000D03*
X140370000Y-107810000D03*
X140370000Y-110350000D03*
X140370000Y-112890000D03*
X140370000Y-115430000D03*
X140370000Y-117970000D03*
X140370000Y-120510000D03*
X140370000Y-123050000D03*
D18*
X122400000Y-107900000D03*
X126100000Y-105200000D03*
X157873000Y-108100000D03*
X158400000Y-111500000D03*
D19*
X122400000Y-107900000D02*
X119400000Y-107900000D01*
X114970000Y-112330000D02*
X114970000Y-114160000D01*
X119400000Y-107900000D02*
X114970000Y-112330000D01*
X126100000Y-105200000D02*
X121390000Y-105200000D01*
X121390000Y-105200000D02*
X112430000Y-114160000D01*
X122490000Y-107810000D02*
X122400000Y-107900000D01*
X140370000Y-107810000D02*
X122490000Y-107810000D01*
X126170000Y-105270000D02*
X126100000Y-105200000D01*
X140370000Y-105270000D02*
X126170000Y-105270000D01*
D20*
X120050000Y-114160000D02*
X139100000Y-114160000D01*
X139100000Y-114160000D02*
X140370000Y-115430000D01*
D19*
X157583000Y-107810000D02*
X157873000Y-108100000D01*
X155610000Y-107810000D02*
X157583000Y-107810000D01*
X157010000Y-112890000D02*
X158400000Y-111500000D01*
X155610000Y-112890000D02*
X157010000Y-112890000D01*
X155610000Y-110350000D02*
X160610000Y-110350000D01*
X160610000Y-110350000D02*
X160690000Y-110270000D01*
X166000000Y-116600000D02*
X141540000Y-116600000D01*
X141540000Y-116600000D02*
X140370000Y-115430000D01*
X170700000Y-123740000D02*
X177200000Y-123740000D01*
X166000000Y-124220000D02*
X170220000Y-124220000D01*
X170220000Y-124220000D02*
X170700000Y-123740000D01*
X160690000Y-122970000D02*
X164750000Y-122970000D01*
X164750000Y-122970000D02*
X166000000Y-124220000D01*
X170700000Y-109770000D02*
X177200000Y-109770000D01*
X165800000Y-111220000D02*
X169250000Y-111220000D01*
X169250000Y-111220000D02*
X170700000Y-109770000D01*
X160690000Y-110270000D02*
X164850000Y-110270000D01*
X164850000Y-110270000D02*
X165800000Y-111220000D01*
X170700000Y-98340000D02*
X177200000Y-98340000D01*
X165900000Y-98720000D02*
X170320000Y-98720000D01*
X170320000Y-98720000D02*
X170700000Y-98340000D01*
X160770000Y-97570000D02*
X164750000Y-97570000D01*
X164750000Y-97570000D02*
X165900000Y-98720000D01*
X159420000Y-84950000D02*
X158150000Y-84950000D01*
X158150000Y-84950000D02*
X155610000Y-87490000D01*
X167040000Y-84950000D02*
X171650000Y-84950000D01*
X171650000Y-84950000D02*
X171700000Y-85000000D01*
G04 #@! TA.AperFunction,Conductor*
G36*
X178442539Y-80520185D02*
G01*
X178488294Y-80572989D01*
X178499500Y-80624500D01*
X178499500Y-92842689D01*
X178479815Y-92909728D01*
X178463181Y-92930370D01*
X177723787Y-93669764D01*
X177712518Y-93627708D01*
X177640110Y-93502292D01*
X177537708Y-93399890D01*
X177412292Y-93327482D01*
X177370235Y-93316212D01*
X178070057Y-92616390D01*
X178070056Y-92616389D01*
X178023229Y-92579943D01*
X177804614Y-92461635D01*
X177804603Y-92461630D01*
X177569493Y-92380916D01*
X177324293Y-92340000D01*
X177075707Y-92340000D01*
X176830506Y-92380916D01*
X176595396Y-92461630D01*
X176595390Y-92461632D01*
X176376761Y-92579949D01*
X176329942Y-92616388D01*
X176329942Y-92616390D01*
X177029765Y-93316212D01*
X176987708Y-93327482D01*
X176862292Y-93399890D01*
X176759890Y-93502292D01*
X176687482Y-93627708D01*
X176676212Y-93669764D01*
X175976564Y-92970116D01*
X175876267Y-93123632D01*
X175776412Y-93351282D01*
X175715387Y-93592261D01*
X175715385Y-93592270D01*
X175694859Y-93839994D01*
X175694859Y-93840005D01*
X175715385Y-94087729D01*
X175715387Y-94087738D01*
X175776412Y-94328717D01*
X175876266Y-94556364D01*
X175976564Y-94709882D01*
X176676212Y-94010234D01*
X176687482Y-94052292D01*
X176759890Y-94177708D01*
X176862292Y-94280110D01*
X176987708Y-94352518D01*
X177029765Y-94363787D01*
X176329942Y-95063609D01*
X176376768Y-95100055D01*
X176376770Y-95100056D01*
X176595385Y-95218364D01*
X176595396Y-95218369D01*
X176830506Y-95299083D01*
X177075707Y-95340000D01*
X177324293Y-95340000D01*
X177569493Y-95299083D01*
X177804603Y-95218369D01*
X177804614Y-95218364D01*
X178023228Y-95100057D01*
X178023231Y-95100055D01*
X178070056Y-95063609D01*
X177370234Y-94363787D01*
X177412292Y-94352518D01*
X177537708Y-94280110D01*
X177640110Y-94177708D01*
X177712518Y-94052292D01*
X177723787Y-94010235D01*
X178463181Y-94749629D01*
X178496666Y-94810952D01*
X178499500Y-94837310D01*
X178499500Y-97218373D01*
X178479815Y-97285412D01*
X178427011Y-97331167D01*
X178357853Y-97341111D01*
X178294297Y-97312086D01*
X178284271Y-97302356D01*
X178219747Y-97232265D01*
X178219744Y-97232262D01*
X178179946Y-97201286D01*
X178023509Y-97079526D01*
X178023507Y-97079525D01*
X178023506Y-97079524D01*
X177804811Y-96961172D01*
X177804802Y-96961169D01*
X177569616Y-96880429D01*
X177324335Y-96839500D01*
X177075665Y-96839500D01*
X176830383Y-96880429D01*
X176595197Y-96961169D01*
X176595188Y-96961172D01*
X176376493Y-97079524D01*
X176180257Y-97232261D01*
X176011833Y-97415217D01*
X175875827Y-97623391D01*
X175857440Y-97665311D01*
X175812483Y-97718796D01*
X175745747Y-97739486D01*
X175743884Y-97739500D01*
X172156116Y-97739500D01*
X172089077Y-97719815D01*
X172043322Y-97667011D01*
X172042560Y-97665311D01*
X172024172Y-97623391D01*
X171888166Y-97415217D01*
X171866557Y-97391744D01*
X171719744Y-97232262D01*
X171523509Y-97079526D01*
X171523507Y-97079525D01*
X171523506Y-97079524D01*
X171304811Y-96961172D01*
X171304802Y-96961169D01*
X171069616Y-96880429D01*
X170824335Y-96839500D01*
X170575665Y-96839500D01*
X170330383Y-96880429D01*
X170095197Y-96961169D01*
X170095188Y-96961172D01*
X169876493Y-97079524D01*
X169680257Y-97232261D01*
X169511833Y-97415217D01*
X169375826Y-97623393D01*
X169275936Y-97851118D01*
X169231666Y-98025940D01*
X169196126Y-98086096D01*
X169133706Y-98117488D01*
X169111460Y-98119500D01*
X167131692Y-98119500D01*
X167064653Y-98099815D01*
X167030119Y-98066625D01*
X166900047Y-97880861D01*
X166900045Y-97880858D01*
X166739141Y-97719954D01*
X166552734Y-97589432D01*
X166552732Y-97589431D01*
X166346497Y-97493261D01*
X166346488Y-97493258D01*
X166126697Y-97434366D01*
X166126693Y-97434365D01*
X166126692Y-97434365D01*
X166126691Y-97434364D01*
X166126686Y-97434364D01*
X165900002Y-97414532D01*
X165899998Y-97414532D01*
X165673313Y-97434364D01*
X165673302Y-97434366D01*
X165577067Y-97460152D01*
X165507217Y-97458489D01*
X165457293Y-97428058D01*
X165237590Y-97208355D01*
X165237588Y-97208352D01*
X165118717Y-97089481D01*
X165118716Y-97089480D01*
X165031904Y-97039360D01*
X165031904Y-97039359D01*
X165031900Y-97039358D01*
X164981785Y-97010423D01*
X164829057Y-96969499D01*
X164670943Y-96969499D01*
X164663347Y-96969499D01*
X164663331Y-96969500D01*
X162001692Y-96969500D01*
X161934653Y-96949815D01*
X161900119Y-96916625D01*
X161770047Y-96730861D01*
X161770045Y-96730858D01*
X161609141Y-96569954D01*
X161422734Y-96439432D01*
X161422732Y-96439431D01*
X161216497Y-96343261D01*
X161216488Y-96343258D01*
X160996697Y-96284366D01*
X160996693Y-96284365D01*
X160996692Y-96284365D01*
X160996691Y-96284364D01*
X160996686Y-96284364D01*
X160770002Y-96264532D01*
X160769998Y-96264532D01*
X160543313Y-96284364D01*
X160543302Y-96284366D01*
X160323511Y-96343258D01*
X160323502Y-96343261D01*
X160117267Y-96439431D01*
X160117265Y-96439432D01*
X159930858Y-96569954D01*
X159769954Y-96730858D01*
X159639432Y-96917265D01*
X159639431Y-96917267D01*
X159543261Y-97123502D01*
X159543258Y-97123511D01*
X159484366Y-97343302D01*
X159484364Y-97343313D01*
X159464532Y-97569998D01*
X159464532Y-97570001D01*
X159484364Y-97796686D01*
X159484366Y-97796697D01*
X159543258Y-98016488D01*
X159543261Y-98016497D01*
X159639431Y-98222732D01*
X159639432Y-98222734D01*
X159769954Y-98409141D01*
X159930858Y-98570045D01*
X159930861Y-98570047D01*
X160117266Y-98700568D01*
X160323504Y-98796739D01*
X160543308Y-98855635D01*
X160705230Y-98869801D01*
X160769998Y-98875468D01*
X160770000Y-98875468D01*
X160770002Y-98875468D01*
X160826673Y-98870509D01*
X160996692Y-98855635D01*
X161216496Y-98796739D01*
X161422734Y-98700568D01*
X161609139Y-98570047D01*
X161770047Y-98409139D01*
X161900118Y-98223375D01*
X161954693Y-98179752D01*
X162001692Y-98170500D01*
X164449903Y-98170500D01*
X164516942Y-98190185D01*
X164537584Y-98206819D01*
X164608058Y-98277293D01*
X164641543Y-98338616D01*
X164640152Y-98397067D01*
X164614366Y-98493302D01*
X164614364Y-98493313D01*
X164594532Y-98719998D01*
X164594532Y-98720001D01*
X164614364Y-98946686D01*
X164614366Y-98946697D01*
X164673258Y-99166488D01*
X164673261Y-99166497D01*
X164769431Y-99372732D01*
X164769432Y-99372734D01*
X164899954Y-99559141D01*
X165060858Y-99720045D01*
X165094361Y-99743504D01*
X165247266Y-99850568D01*
X165453504Y-99946739D01*
X165673308Y-100005635D01*
X165835230Y-100019801D01*
X165899998Y-100025468D01*
X165900000Y-100025468D01*
X165900002Y-100025468D01*
X165956673Y-100020509D01*
X166126692Y-100005635D01*
X166346496Y-99946739D01*
X166552734Y-99850568D01*
X166739139Y-99720047D01*
X166900047Y-99559139D01*
X167030118Y-99373375D01*
X167084693Y-99329752D01*
X167131692Y-99320500D01*
X169508734Y-99320500D01*
X169575773Y-99340185D01*
X169599960Y-99360514D01*
X169680256Y-99447738D01*
X169876491Y-99600474D01*
X170095190Y-99718828D01*
X170330386Y-99799571D01*
X170575665Y-99840500D01*
X170824335Y-99840500D01*
X171069614Y-99799571D01*
X171304810Y-99718828D01*
X171523509Y-99600474D01*
X171719744Y-99447738D01*
X171888164Y-99264785D01*
X172024173Y-99056607D01*
X172042560Y-99014689D01*
X172087517Y-98961204D01*
X172154253Y-98940514D01*
X172156116Y-98940500D01*
X175743884Y-98940500D01*
X175810923Y-98960185D01*
X175856678Y-99012989D01*
X175857440Y-99014689D01*
X175875827Y-99056608D01*
X176011833Y-99264782D01*
X176011836Y-99264785D01*
X176180256Y-99447738D01*
X176376491Y-99600474D01*
X176595190Y-99718828D01*
X176830386Y-99799571D01*
X177075665Y-99840500D01*
X177324335Y-99840500D01*
X177569614Y-99799571D01*
X177804810Y-99718828D01*
X178023509Y-99600474D01*
X178219744Y-99447738D01*
X178284272Y-99377641D01*
X178344157Y-99341653D01*
X178413995Y-99343753D01*
X178471611Y-99383277D01*
X178498713Y-99447676D01*
X178499500Y-99461626D01*
X178499500Y-104272689D01*
X178479815Y-104339728D01*
X178463181Y-104360370D01*
X177723787Y-105099764D01*
X177712518Y-105057708D01*
X177640110Y-104932292D01*
X177537708Y-104829890D01*
X177412292Y-104757482D01*
X177370235Y-104746212D01*
X178070057Y-104046390D01*
X178070056Y-104046389D01*
X178023229Y-104009943D01*
X177804614Y-103891635D01*
X177804603Y-103891630D01*
X177569493Y-103810916D01*
X177324293Y-103770000D01*
X177075707Y-103770000D01*
X176830506Y-103810916D01*
X176595396Y-103891630D01*
X176595390Y-103891632D01*
X176376761Y-104009949D01*
X176329942Y-104046388D01*
X176329942Y-104046390D01*
X177029765Y-104746212D01*
X176987708Y-104757482D01*
X176862292Y-104829890D01*
X176759890Y-104932292D01*
X176687482Y-105057708D01*
X176676212Y-105099764D01*
X175976564Y-104400116D01*
X175876267Y-104553632D01*
X175776412Y-104781282D01*
X175715387Y-105022261D01*
X175715385Y-105022270D01*
X175694859Y-105269994D01*
X175694859Y-105270005D01*
X175715385Y-105517729D01*
X175715387Y-105517738D01*
X175776412Y-105758717D01*
X175876266Y-105986364D01*
X175976564Y-106139882D01*
X176676212Y-105440234D01*
X176687482Y-105482292D01*
X176759890Y-105607708D01*
X176862292Y-105710110D01*
X176987708Y-105782518D01*
X177029765Y-105793787D01*
X176329942Y-106493609D01*
X176376768Y-106530055D01*
X176376770Y-106530056D01*
X176595385Y-106648364D01*
X176595396Y-106648369D01*
X176830506Y-106729083D01*
X177075707Y-106770000D01*
X177324293Y-106770000D01*
X177569493Y-106729083D01*
X177804603Y-106648369D01*
X177804614Y-106648364D01*
X178023228Y-106530057D01*
X178023231Y-106530055D01*
X178070056Y-106493609D01*
X177370234Y-105793787D01*
X177412292Y-105782518D01*
X177537708Y-105710110D01*
X177640110Y-105607708D01*
X177712518Y-105482292D01*
X177723787Y-105440235D01*
X178463181Y-106179629D01*
X178496666Y-106240952D01*
X178499500Y-106267310D01*
X178499500Y-108648373D01*
X178479815Y-108715412D01*
X178427011Y-108761167D01*
X178357853Y-108771111D01*
X178294297Y-108742086D01*
X178284271Y-108732356D01*
X178219747Y-108662265D01*
X178219744Y-108662262D01*
X178201899Y-108648373D01*
X178023509Y-108509526D01*
X178023507Y-108509525D01*
X178023506Y-108509524D01*
X177804811Y-108391172D01*
X177804802Y-108391169D01*
X177569616Y-108310429D01*
X177324335Y-108269500D01*
X177075665Y-108269500D01*
X176830383Y-108310429D01*
X176595197Y-108391169D01*
X176595188Y-108391172D01*
X176376493Y-108509524D01*
X176180257Y-108662261D01*
X176011833Y-108845217D01*
X175875827Y-109053391D01*
X175857440Y-109095311D01*
X175812483Y-109148796D01*
X175745747Y-109169486D01*
X175743884Y-109169500D01*
X172156116Y-109169500D01*
X172089077Y-109149815D01*
X172043322Y-109097011D01*
X172042560Y-109095311D01*
X172024172Y-109053391D01*
X171888166Y-108845217D01*
X171855788Y-108810045D01*
X171719744Y-108662262D01*
X171523509Y-108509526D01*
X171523507Y-108509525D01*
X171523506Y-108509524D01*
X171304811Y-108391172D01*
X171304802Y-108391169D01*
X171069616Y-108310429D01*
X170824335Y-108269500D01*
X170575665Y-108269500D01*
X170330383Y-108310429D01*
X170095197Y-108391169D01*
X170095188Y-108391172D01*
X169876493Y-108509524D01*
X169680257Y-108662261D01*
X169511833Y-108845217D01*
X169375826Y-109053393D01*
X169275936Y-109281118D01*
X169214892Y-109522175D01*
X169214890Y-109522187D01*
X169194357Y-109769994D01*
X169194357Y-109770005D01*
X169214890Y-110017812D01*
X169214892Y-110017824D01*
X169276007Y-110259160D01*
X169273382Y-110328980D01*
X169243482Y-110377281D01*
X169037582Y-110583182D01*
X168976262Y-110616666D01*
X168949903Y-110619500D01*
X167031692Y-110619500D01*
X166964653Y-110599815D01*
X166930119Y-110566625D01*
X166800047Y-110380861D01*
X166800045Y-110380858D01*
X166639141Y-110219954D01*
X166452734Y-110089432D01*
X166452732Y-110089431D01*
X166246497Y-109993261D01*
X166246488Y-109993258D01*
X166026697Y-109934366D01*
X166026693Y-109934365D01*
X166026692Y-109934365D01*
X166026691Y-109934364D01*
X166026686Y-109934364D01*
X165800002Y-109914532D01*
X165799998Y-109914532D01*
X165573313Y-109934364D01*
X165573302Y-109934366D01*
X165477067Y-109960152D01*
X165407217Y-109958489D01*
X165357293Y-109928058D01*
X165337590Y-109908355D01*
X165337588Y-109908352D01*
X165218717Y-109789481D01*
X165218716Y-109789480D01*
X165131904Y-109739360D01*
X165131904Y-109739359D01*
X165131900Y-109739358D01*
X165081785Y-109710423D01*
X164929057Y-109669499D01*
X164770943Y-109669499D01*
X164763347Y-109669499D01*
X164763331Y-109669500D01*
X161921692Y-109669500D01*
X161854653Y-109649815D01*
X161820119Y-109616625D01*
X161690047Y-109430861D01*
X161690045Y-109430858D01*
X161529141Y-109269954D01*
X161342734Y-109139432D01*
X161342732Y-109139431D01*
X161136497Y-109043261D01*
X161136488Y-109043258D01*
X160916697Y-108984366D01*
X160916693Y-108984365D01*
X160916692Y-108984365D01*
X160916691Y-108984364D01*
X160916686Y-108984364D01*
X160690002Y-108964532D01*
X160689998Y-108964532D01*
X160463313Y-108984364D01*
X160463302Y-108984366D01*
X160243511Y-109043258D01*
X160243502Y-109043261D01*
X160037267Y-109139431D01*
X160037265Y-109139432D01*
X159850858Y-109269954D01*
X159689954Y-109430858D01*
X159559432Y-109617265D01*
X159559429Y-109617271D01*
X159531156Y-109677904D01*
X159484984Y-109730344D01*
X159418774Y-109749500D01*
X156841692Y-109749500D01*
X156774653Y-109729815D01*
X156740119Y-109696625D01*
X156625064Y-109532308D01*
X156610045Y-109510858D01*
X156449141Y-109349954D01*
X156262734Y-109219432D01*
X156262728Y-109219429D01*
X156204725Y-109192382D01*
X156152285Y-109146210D01*
X156133133Y-109079017D01*
X156153348Y-109012135D01*
X156204725Y-108967618D01*
X156211343Y-108964532D01*
X156262734Y-108940568D01*
X156449139Y-108810047D01*
X156610047Y-108649139D01*
X156740118Y-108463375D01*
X156794693Y-108419752D01*
X156841692Y-108410500D01*
X157054160Y-108410500D01*
X157121199Y-108430185D01*
X157159152Y-108468525D01*
X157243184Y-108602262D01*
X157370738Y-108729816D01*
X157390266Y-108742086D01*
X157498421Y-108810045D01*
X157523478Y-108825789D01*
X157693745Y-108885368D01*
X157693750Y-108885369D01*
X157872996Y-108905565D01*
X157873000Y-108905565D01*
X157873004Y-108905565D01*
X158052249Y-108885369D01*
X158052252Y-108885368D01*
X158052255Y-108885368D01*
X158222522Y-108825789D01*
X158375262Y-108729816D01*
X158502816Y-108602262D01*
X158598789Y-108449522D01*
X158658368Y-108279255D01*
X158659467Y-108269500D01*
X158678565Y-108100003D01*
X158678565Y-108099996D01*
X158658369Y-107920750D01*
X158658368Y-107920745D01*
X158619617Y-107810001D01*
X158598789Y-107750478D01*
X158502816Y-107597738D01*
X158375262Y-107470184D01*
X158222523Y-107374211D01*
X158052254Y-107314631D01*
X158052250Y-107314630D01*
X157921092Y-107299853D01*
X157872981Y-107284023D01*
X157864907Y-107279362D01*
X157864904Y-107279360D01*
X157814785Y-107250423D01*
X157662057Y-107209499D01*
X157503943Y-107209499D01*
X157496347Y-107209499D01*
X157496331Y-107209500D01*
X156841692Y-107209500D01*
X156774653Y-107189815D01*
X156740119Y-107156625D01*
X156610047Y-106970861D01*
X156610045Y-106970858D01*
X156449141Y-106809954D01*
X156262734Y-106679432D01*
X156262728Y-106679429D01*
X156204725Y-106652382D01*
X156152285Y-106606210D01*
X156133133Y-106539017D01*
X156153348Y-106472135D01*
X156204725Y-106427618D01*
X156262734Y-106400568D01*
X156449139Y-106270047D01*
X156610047Y-106109139D01*
X156740568Y-105922734D01*
X156836739Y-105716496D01*
X156895635Y-105496692D01*
X156915468Y-105270000D01*
X156915467Y-105269997D01*
X159385034Y-105269997D01*
X159385034Y-105270002D01*
X159404858Y-105496599D01*
X159404860Y-105496610D01*
X159463730Y-105716317D01*
X159463735Y-105716331D01*
X159559863Y-105922478D01*
X159610974Y-105995472D01*
X160290000Y-105316446D01*
X160290000Y-105322661D01*
X160317259Y-105424394D01*
X160369920Y-105515606D01*
X160444394Y-105590080D01*
X160535606Y-105642741D01*
X160637339Y-105670000D01*
X160643553Y-105670000D01*
X159964526Y-106349025D01*
X160037513Y-106400132D01*
X160037521Y-106400136D01*
X160243668Y-106496264D01*
X160243682Y-106496269D01*
X160463389Y-106555139D01*
X160463400Y-106555141D01*
X160689998Y-106574966D01*
X160690002Y-106574966D01*
X160916599Y-106555141D01*
X160916610Y-106555139D01*
X161136317Y-106496269D01*
X161136331Y-106496264D01*
X161342478Y-106400136D01*
X161415471Y-106349024D01*
X160736447Y-105670000D01*
X160742661Y-105670000D01*
X160844394Y-105642741D01*
X160935606Y-105590080D01*
X161010080Y-105515606D01*
X161062741Y-105424394D01*
X161090000Y-105322661D01*
X161090000Y-105316447D01*
X161769024Y-105995471D01*
X161820136Y-105922478D01*
X161916264Y-105716331D01*
X161916269Y-105716317D01*
X161975139Y-105496610D01*
X161975141Y-105496599D01*
X161994966Y-105270002D01*
X161994966Y-105269997D01*
X161994966Y-105269994D01*
X169194859Y-105269994D01*
X169194859Y-105270005D01*
X169215385Y-105517729D01*
X169215387Y-105517738D01*
X169276412Y-105758717D01*
X169376266Y-105986364D01*
X169476564Y-106139882D01*
X170176212Y-105440234D01*
X170187482Y-105482292D01*
X170259890Y-105607708D01*
X170362292Y-105710110D01*
X170487708Y-105782518D01*
X170529765Y-105793787D01*
X169829942Y-106493609D01*
X169876768Y-106530055D01*
X169876770Y-106530056D01*
X170095385Y-106648364D01*
X170095396Y-106648369D01*
X170330506Y-106729083D01*
X170575707Y-106770000D01*
X170824293Y-106770000D01*
X171069493Y-106729083D01*
X171304603Y-106648369D01*
X171304614Y-106648364D01*
X171523228Y-106530057D01*
X171523231Y-106530055D01*
X171570056Y-106493609D01*
X170870234Y-105793787D01*
X170912292Y-105782518D01*
X171037708Y-105710110D01*
X171140110Y-105607708D01*
X171212518Y-105482292D01*
X171223787Y-105440235D01*
X171923434Y-106139882D01*
X172023731Y-105986369D01*
X172123587Y-105758717D01*
X172184612Y-105517738D01*
X172184614Y-105517729D01*
X172205141Y-105270005D01*
X172205141Y-105269994D01*
X172184614Y-105022270D01*
X172184612Y-105022261D01*
X172123587Y-104781282D01*
X172023731Y-104553630D01*
X171923434Y-104400116D01*
X171223787Y-105099764D01*
X171212518Y-105057708D01*
X171140110Y-104932292D01*
X171037708Y-104829890D01*
X170912292Y-104757482D01*
X170870235Y-104746212D01*
X171570057Y-104046390D01*
X171570056Y-104046389D01*
X171523229Y-104009943D01*
X171304614Y-103891635D01*
X171304603Y-103891630D01*
X171069493Y-103810916D01*
X170824293Y-103770000D01*
X170575707Y-103770000D01*
X170330506Y-103810916D01*
X170095396Y-103891630D01*
X170095390Y-103891632D01*
X169876761Y-104009949D01*
X169829942Y-104046388D01*
X169829942Y-104046390D01*
X170529765Y-104746212D01*
X170487708Y-104757482D01*
X170362292Y-104829890D01*
X170259890Y-104932292D01*
X170187482Y-105057708D01*
X170176212Y-105099764D01*
X169476564Y-104400116D01*
X169376267Y-104553632D01*
X169276412Y-104781282D01*
X169215387Y-105022261D01*
X169215385Y-105022270D01*
X169194859Y-105269994D01*
X161994966Y-105269994D01*
X161975141Y-105043400D01*
X161975139Y-105043389D01*
X161916269Y-104823682D01*
X161916264Y-104823668D01*
X161820136Y-104617521D01*
X161820132Y-104617513D01*
X161769025Y-104544526D01*
X161090000Y-105223551D01*
X161090000Y-105217339D01*
X161062741Y-105115606D01*
X161010080Y-105024394D01*
X160935606Y-104949920D01*
X160844394Y-104897259D01*
X160742661Y-104870000D01*
X160736448Y-104870000D01*
X161415472Y-104190974D01*
X161342478Y-104139863D01*
X161136331Y-104043735D01*
X161136317Y-104043730D01*
X160916610Y-103984860D01*
X160916599Y-103984858D01*
X160690002Y-103965034D01*
X160689998Y-103965034D01*
X160463400Y-103984858D01*
X160463389Y-103984860D01*
X160243682Y-104043730D01*
X160243673Y-104043734D01*
X160037516Y-104139866D01*
X160037512Y-104139868D01*
X159964526Y-104190973D01*
X159964526Y-104190974D01*
X160643553Y-104870000D01*
X160637339Y-104870000D01*
X160535606Y-104897259D01*
X160444394Y-104949920D01*
X160369920Y-105024394D01*
X160317259Y-105115606D01*
X160290000Y-105217339D01*
X160290000Y-105223552D01*
X159610974Y-104544526D01*
X159610973Y-104544526D01*
X159559868Y-104617512D01*
X159559866Y-104617516D01*
X159463734Y-104823673D01*
X159463730Y-104823682D01*
X159404860Y-105043389D01*
X159404858Y-105043400D01*
X159385034Y-105269997D01*
X156915467Y-105269997D01*
X156915467Y-105269994D01*
X156901960Y-105115606D01*
X156895635Y-105043308D01*
X156836739Y-104823504D01*
X156740568Y-104617266D01*
X156610047Y-104430861D01*
X156610045Y-104430858D01*
X156449141Y-104269954D01*
X156262734Y-104139432D01*
X156262728Y-104139429D01*
X156204725Y-104112382D01*
X156152285Y-104066210D01*
X156133133Y-103999017D01*
X156153348Y-103932135D01*
X156204725Y-103887618D01*
X156262734Y-103860568D01*
X156449139Y-103730047D01*
X156579188Y-103599998D01*
X164494532Y-103599998D01*
X164494532Y-103600001D01*
X164514364Y-103826686D01*
X164514366Y-103826697D01*
X164573258Y-104046488D01*
X164573261Y-104046497D01*
X164669431Y-104252732D01*
X164669432Y-104252734D01*
X164799954Y-104439141D01*
X164960858Y-104600045D01*
X164985817Y-104617521D01*
X165147266Y-104730568D01*
X165353504Y-104826739D01*
X165353509Y-104826740D01*
X165353511Y-104826741D01*
X165406415Y-104840916D01*
X165573308Y-104885635D01*
X165735230Y-104899801D01*
X165799998Y-104905468D01*
X165800000Y-104905468D01*
X165800002Y-104905468D01*
X165856673Y-104900509D01*
X166026692Y-104885635D01*
X166246496Y-104826739D01*
X166452734Y-104730568D01*
X166639139Y-104600047D01*
X166800047Y-104439139D01*
X166930568Y-104252734D01*
X167026739Y-104046496D01*
X167085635Y-103826692D01*
X167105468Y-103600000D01*
X167085635Y-103373308D01*
X167026739Y-103153504D01*
X166930568Y-102947266D01*
X166800047Y-102760861D01*
X166800045Y-102760858D01*
X166639141Y-102599954D01*
X166452734Y-102469432D01*
X166452732Y-102469431D01*
X166246497Y-102373261D01*
X166246488Y-102373258D01*
X166026697Y-102314366D01*
X166026693Y-102314365D01*
X166026692Y-102314365D01*
X166026691Y-102314364D01*
X166026686Y-102314364D01*
X165800002Y-102294532D01*
X165799998Y-102294532D01*
X165573313Y-102314364D01*
X165573302Y-102314366D01*
X165353511Y-102373258D01*
X165353502Y-102373261D01*
X165147267Y-102469431D01*
X165147265Y-102469432D01*
X164960858Y-102599954D01*
X164799954Y-102760858D01*
X164669432Y-102947265D01*
X164669431Y-102947267D01*
X164573261Y-103153502D01*
X164573258Y-103153511D01*
X164514366Y-103373302D01*
X164514364Y-103373313D01*
X164494532Y-103599998D01*
X156579188Y-103599998D01*
X156610047Y-103569139D01*
X156740568Y-103382734D01*
X156836739Y-103176496D01*
X156895635Y-102956692D01*
X156915468Y-102730000D01*
X156895635Y-102503308D01*
X156836739Y-102283504D01*
X156740568Y-102077266D01*
X156610047Y-101890861D01*
X156610045Y-101890858D01*
X156449141Y-101729954D01*
X156262734Y-101599432D01*
X156262728Y-101599429D01*
X156204725Y-101572382D01*
X156152285Y-101526210D01*
X156133133Y-101459017D01*
X156153348Y-101392135D01*
X156204725Y-101347618D01*
X156262734Y-101320568D01*
X156449139Y-101190047D01*
X156610047Y-101029139D01*
X156740568Y-100842734D01*
X156836739Y-100636496D01*
X156895635Y-100416692D01*
X156915468Y-100190000D01*
X156895635Y-99963308D01*
X156836739Y-99743504D01*
X156740568Y-99537266D01*
X156610047Y-99350861D01*
X156610045Y-99350858D01*
X156449141Y-99189954D01*
X156262734Y-99059432D01*
X156262728Y-99059429D01*
X156204725Y-99032382D01*
X156152285Y-98986210D01*
X156133133Y-98919017D01*
X156153348Y-98852135D01*
X156204725Y-98807618D01*
X156262734Y-98780568D01*
X156449139Y-98650047D01*
X156610047Y-98489139D01*
X156740568Y-98302734D01*
X156836739Y-98096496D01*
X156895635Y-97876692D01*
X156913980Y-97667011D01*
X156915468Y-97650001D01*
X156915468Y-97649998D01*
X156901755Y-97493258D01*
X156895635Y-97423308D01*
X156850916Y-97256415D01*
X156836741Y-97203511D01*
X156836738Y-97203502D01*
X156783568Y-97089479D01*
X156740568Y-96997266D01*
X156610047Y-96810861D01*
X156610045Y-96810858D01*
X156449141Y-96649954D01*
X156262734Y-96519432D01*
X156262728Y-96519429D01*
X156204725Y-96492382D01*
X156152285Y-96446210D01*
X156133133Y-96379017D01*
X156153348Y-96312135D01*
X156204725Y-96267618D01*
X156211343Y-96264532D01*
X156262734Y-96240568D01*
X156449139Y-96110047D01*
X156610047Y-95949139D01*
X156740568Y-95762734D01*
X156836739Y-95556496D01*
X156895635Y-95336692D01*
X156915468Y-95110000D01*
X156895635Y-94883308D01*
X156836739Y-94663504D01*
X156740568Y-94457266D01*
X156610047Y-94270861D01*
X156610045Y-94270858D01*
X156449141Y-94109954D01*
X156262734Y-93979432D01*
X156262728Y-93979429D01*
X156204725Y-93952382D01*
X156152285Y-93906210D01*
X156133133Y-93839017D01*
X156153348Y-93772135D01*
X156204725Y-93727618D01*
X156262734Y-93700568D01*
X156449139Y-93570047D01*
X156610047Y-93409139D01*
X156740568Y-93222734D01*
X156836739Y-93016496D01*
X156895635Y-92796692D01*
X156915468Y-92570000D01*
X156915468Y-92569997D01*
X159465034Y-92569997D01*
X159465034Y-92570002D01*
X159484858Y-92796599D01*
X159484860Y-92796610D01*
X159543730Y-93016317D01*
X159543735Y-93016331D01*
X159639863Y-93222478D01*
X159690974Y-93295472D01*
X160370000Y-92616446D01*
X160370000Y-92622661D01*
X160397259Y-92724394D01*
X160449920Y-92815606D01*
X160524394Y-92890080D01*
X160615606Y-92942741D01*
X160717339Y-92970000D01*
X160723553Y-92970000D01*
X160044526Y-93649025D01*
X160117513Y-93700132D01*
X160117521Y-93700136D01*
X160323668Y-93796264D01*
X160323682Y-93796269D01*
X160543389Y-93855139D01*
X160543400Y-93855141D01*
X160769998Y-93874966D01*
X160770002Y-93874966D01*
X160996599Y-93855141D01*
X160996610Y-93855139D01*
X161053132Y-93839994D01*
X169194859Y-93839994D01*
X169194859Y-93840005D01*
X169215385Y-94087729D01*
X169215387Y-94087738D01*
X169276412Y-94328717D01*
X169376266Y-94556364D01*
X169476564Y-94709882D01*
X170176212Y-94010234D01*
X170187482Y-94052292D01*
X170259890Y-94177708D01*
X170362292Y-94280110D01*
X170487708Y-94352518D01*
X170529765Y-94363787D01*
X169829942Y-95063609D01*
X169876768Y-95100055D01*
X169876770Y-95100056D01*
X170095385Y-95218364D01*
X170095396Y-95218369D01*
X170330506Y-95299083D01*
X170575707Y-95340000D01*
X170824293Y-95340000D01*
X171069493Y-95299083D01*
X171304603Y-95218369D01*
X171304614Y-95218364D01*
X171523228Y-95100057D01*
X171523231Y-95100055D01*
X171570056Y-95063609D01*
X170870234Y-94363787D01*
X170912292Y-94352518D01*
X171037708Y-94280110D01*
X171140110Y-94177708D01*
X171212518Y-94052292D01*
X171223787Y-94010235D01*
X171923434Y-94709882D01*
X172023731Y-94556369D01*
X172123587Y-94328717D01*
X172184612Y-94087738D01*
X172184614Y-94087729D01*
X172205141Y-93840005D01*
X172205141Y-93839994D01*
X172184614Y-93592270D01*
X172184612Y-93592261D01*
X172123587Y-93351282D01*
X172023731Y-93123630D01*
X171923434Y-92970116D01*
X171223787Y-93669764D01*
X171212518Y-93627708D01*
X171140110Y-93502292D01*
X171037708Y-93399890D01*
X170912292Y-93327482D01*
X170870235Y-93316212D01*
X171570057Y-92616390D01*
X171570056Y-92616389D01*
X171523229Y-92579943D01*
X171304614Y-92461635D01*
X171304603Y-92461630D01*
X171069493Y-92380916D01*
X170824293Y-92340000D01*
X170575707Y-92340000D01*
X170330506Y-92380916D01*
X170095396Y-92461630D01*
X170095390Y-92461632D01*
X169876761Y-92579949D01*
X169829942Y-92616388D01*
X169829942Y-92616390D01*
X170529765Y-93316212D01*
X170487708Y-93327482D01*
X170362292Y-93399890D01*
X170259890Y-93502292D01*
X170187482Y-93627708D01*
X170176212Y-93669764D01*
X169476564Y-92970116D01*
X169376267Y-93123632D01*
X169276412Y-93351282D01*
X169215387Y-93592261D01*
X169215385Y-93592270D01*
X169194859Y-93839994D01*
X161053132Y-93839994D01*
X161216317Y-93796269D01*
X161216331Y-93796264D01*
X161422478Y-93700136D01*
X161495471Y-93649024D01*
X160816447Y-92970000D01*
X160822661Y-92970000D01*
X160924394Y-92942741D01*
X161015606Y-92890080D01*
X161090080Y-92815606D01*
X161142741Y-92724394D01*
X161170000Y-92622661D01*
X161170000Y-92616447D01*
X161849024Y-93295471D01*
X161900136Y-93222478D01*
X161996264Y-93016331D01*
X161996269Y-93016317D01*
X162055139Y-92796610D01*
X162055141Y-92796599D01*
X162074966Y-92570002D01*
X162074966Y-92569997D01*
X162055141Y-92343400D01*
X162055139Y-92343389D01*
X161996269Y-92123682D01*
X161996264Y-92123668D01*
X161900136Y-91917521D01*
X161900132Y-91917513D01*
X161849025Y-91844526D01*
X161170000Y-92523551D01*
X161170000Y-92517339D01*
X161142741Y-92415606D01*
X161090080Y-92324394D01*
X161015606Y-92249920D01*
X160924394Y-92197259D01*
X160822661Y-92170000D01*
X160816448Y-92170000D01*
X161495472Y-91490974D01*
X161422478Y-91439863D01*
X161216331Y-91343735D01*
X161216317Y-91343730D01*
X160996610Y-91284860D01*
X160996599Y-91284858D01*
X160770002Y-91265034D01*
X160769998Y-91265034D01*
X160543400Y-91284858D01*
X160543389Y-91284860D01*
X160323682Y-91343730D01*
X160323673Y-91343734D01*
X160117516Y-91439866D01*
X160117512Y-91439868D01*
X160044526Y-91490973D01*
X160044526Y-91490974D01*
X160723553Y-92170000D01*
X160717339Y-92170000D01*
X160615606Y-92197259D01*
X160524394Y-92249920D01*
X160449920Y-92324394D01*
X160397259Y-92415606D01*
X160370000Y-92517339D01*
X160370000Y-92523552D01*
X159690974Y-91844526D01*
X159690973Y-91844526D01*
X159639868Y-91917512D01*
X159639866Y-91917516D01*
X159543734Y-92123673D01*
X159543730Y-92123682D01*
X159484860Y-92343389D01*
X159484858Y-92343400D01*
X159465034Y-92569997D01*
X156915468Y-92569997D01*
X156895635Y-92343308D01*
X156836739Y-92123504D01*
X156740568Y-91917266D01*
X156610047Y-91730861D01*
X156610045Y-91730858D01*
X156449141Y-91569954D01*
X156262734Y-91439432D01*
X156262728Y-91439429D01*
X156204725Y-91412382D01*
X156152285Y-91366210D01*
X156133133Y-91299017D01*
X156153348Y-91232135D01*
X156204725Y-91187618D01*
X156262734Y-91160568D01*
X156349238Y-91099998D01*
X164594532Y-91099998D01*
X164594532Y-91100001D01*
X164614364Y-91326686D01*
X164614366Y-91326697D01*
X164673258Y-91546488D01*
X164673261Y-91546497D01*
X164769431Y-91752732D01*
X164769432Y-91752734D01*
X164899954Y-91939141D01*
X165060858Y-92100045D01*
X165094361Y-92123504D01*
X165247266Y-92230568D01*
X165453504Y-92326739D01*
X165673308Y-92385635D01*
X165835230Y-92399801D01*
X165899998Y-92405468D01*
X165900000Y-92405468D01*
X165900002Y-92405468D01*
X165956673Y-92400509D01*
X166126692Y-92385635D01*
X166346496Y-92326739D01*
X166552734Y-92230568D01*
X166739139Y-92100047D01*
X166900047Y-91939139D01*
X167030568Y-91752734D01*
X167126739Y-91546496D01*
X167185635Y-91326692D01*
X167205468Y-91100000D01*
X167185635Y-90873308D01*
X167126739Y-90653504D01*
X167030568Y-90447266D01*
X166900047Y-90260861D01*
X166900045Y-90260858D01*
X166739141Y-90099954D01*
X166552734Y-89969432D01*
X166552732Y-89969431D01*
X166346497Y-89873261D01*
X166346488Y-89873258D01*
X166126697Y-89814366D01*
X166126693Y-89814365D01*
X166126692Y-89814365D01*
X166126691Y-89814364D01*
X166126686Y-89814364D01*
X165900002Y-89794532D01*
X165899998Y-89794532D01*
X165673313Y-89814364D01*
X165673302Y-89814366D01*
X165453511Y-89873258D01*
X165453502Y-89873261D01*
X165247267Y-89969431D01*
X165247265Y-89969432D01*
X165060858Y-90099954D01*
X164899954Y-90260858D01*
X164769432Y-90447265D01*
X164769431Y-90447267D01*
X164673261Y-90653502D01*
X164673258Y-90653511D01*
X164614366Y-90873302D01*
X164614364Y-90873313D01*
X164594532Y-91099998D01*
X156349238Y-91099998D01*
X156449139Y-91030047D01*
X156610047Y-90869139D01*
X156740568Y-90682734D01*
X156836739Y-90476496D01*
X156895635Y-90256692D01*
X156915468Y-90030000D01*
X156895635Y-89803308D01*
X156836739Y-89583504D01*
X156740568Y-89377266D01*
X156610047Y-89190861D01*
X156610045Y-89190858D01*
X156449141Y-89029954D01*
X156262734Y-88899432D01*
X156262728Y-88899429D01*
X156204725Y-88872382D01*
X156152285Y-88826210D01*
X156133133Y-88759017D01*
X156153348Y-88692135D01*
X156204725Y-88647618D01*
X156262734Y-88620568D01*
X156449139Y-88490047D01*
X156610047Y-88329139D01*
X156740568Y-88142734D01*
X156836739Y-87936496D01*
X156895635Y-87716692D01*
X156915468Y-87490000D01*
X156895635Y-87263308D01*
X156869847Y-87167066D01*
X156871510Y-87097217D01*
X156901939Y-87047294D01*
X158208441Y-85740792D01*
X158269762Y-85707309D01*
X158339454Y-85712293D01*
X158395387Y-85754165D01*
X158397689Y-85757343D01*
X158419953Y-85789139D01*
X158580861Y-85950047D01*
X158767266Y-86080568D01*
X158973504Y-86176739D01*
X159193308Y-86235635D01*
X159355230Y-86249801D01*
X159419998Y-86255468D01*
X159420000Y-86255468D01*
X159420002Y-86255468D01*
X159476673Y-86250509D01*
X159646692Y-86235635D01*
X159866496Y-86176739D01*
X160072734Y-86080568D01*
X160259139Y-85950047D01*
X160420047Y-85789139D01*
X160550568Y-85602734D01*
X160646739Y-85396496D01*
X160705635Y-85176692D01*
X160725468Y-84950000D01*
X160725468Y-84949998D01*
X165734532Y-84949998D01*
X165734532Y-84950001D01*
X165754364Y-85176686D01*
X165754366Y-85176697D01*
X165813258Y-85396488D01*
X165813261Y-85396497D01*
X165909431Y-85602732D01*
X165909432Y-85602734D01*
X166039954Y-85789141D01*
X166200858Y-85950045D01*
X166200861Y-85950047D01*
X166387266Y-86080568D01*
X166593504Y-86176739D01*
X166813308Y-86235635D01*
X166975230Y-86249801D01*
X167039998Y-86255468D01*
X167040000Y-86255468D01*
X167040002Y-86255468D01*
X167096673Y-86250509D01*
X167266692Y-86235635D01*
X167486496Y-86176739D01*
X167692734Y-86080568D01*
X167879139Y-85950047D01*
X168040047Y-85789139D01*
X168170118Y-85603375D01*
X168224693Y-85559752D01*
X168271692Y-85550500D01*
X170331150Y-85550500D01*
X170398189Y-85570185D01*
X170443944Y-85622989D01*
X170444706Y-85624690D01*
X170464075Y-85668848D01*
X170591016Y-85863147D01*
X170591019Y-85863151D01*
X170591021Y-85863153D01*
X170748216Y-86033913D01*
X170748219Y-86033915D01*
X170748222Y-86033918D01*
X170931365Y-86176464D01*
X170931371Y-86176468D01*
X170931374Y-86176470D01*
X171135497Y-86286936D01*
X171249487Y-86326068D01*
X171355015Y-86362297D01*
X171355017Y-86362297D01*
X171355019Y-86362298D01*
X171583951Y-86400500D01*
X171583952Y-86400500D01*
X171816048Y-86400500D01*
X171816049Y-86400500D01*
X172044981Y-86362298D01*
X172264503Y-86286936D01*
X172468626Y-86176470D01*
X172651784Y-86033913D01*
X172660511Y-86024432D01*
X172720394Y-85988441D01*
X172790232Y-85990538D01*
X172847850Y-86030060D01*
X172867924Y-86065080D01*
X172896645Y-86142086D01*
X172896649Y-86142093D01*
X172982809Y-86257187D01*
X172982812Y-86257190D01*
X173097906Y-86343350D01*
X173097913Y-86343354D01*
X173232620Y-86393596D01*
X173232627Y-86393598D01*
X173292155Y-86399999D01*
X173292172Y-86400000D01*
X173990000Y-86400000D01*
X173990000Y-85375277D01*
X174066306Y-85419333D01*
X174180756Y-85450000D01*
X174299244Y-85450000D01*
X174413694Y-85419333D01*
X174490000Y-85375277D01*
X174490000Y-86400000D01*
X175187828Y-86400000D01*
X175187844Y-86399999D01*
X175247372Y-86393598D01*
X175247379Y-86393596D01*
X175382086Y-86343354D01*
X175382093Y-86343350D01*
X175497187Y-86257190D01*
X175497190Y-86257187D01*
X175583350Y-86142093D01*
X175583354Y-86142086D01*
X175633596Y-86007379D01*
X175633598Y-86007372D01*
X175639999Y-85947844D01*
X175640000Y-85947827D01*
X175640000Y-85250000D01*
X174615278Y-85250000D01*
X174659333Y-85173694D01*
X174690000Y-85059244D01*
X174690000Y-84940756D01*
X174659333Y-84826306D01*
X174615278Y-84750000D01*
X175640000Y-84750000D01*
X175640000Y-84052172D01*
X175639999Y-84052155D01*
X175633598Y-83992627D01*
X175633596Y-83992620D01*
X175583354Y-83857913D01*
X175583350Y-83857906D01*
X175497190Y-83742812D01*
X175497187Y-83742809D01*
X175382093Y-83656649D01*
X175382086Y-83656645D01*
X175247379Y-83606403D01*
X175247372Y-83606401D01*
X175187844Y-83600000D01*
X174490000Y-83600000D01*
X174490000Y-84624722D01*
X174413694Y-84580667D01*
X174299244Y-84550000D01*
X174180756Y-84550000D01*
X174066306Y-84580667D01*
X173990000Y-84624722D01*
X173990000Y-83600000D01*
X173292155Y-83600000D01*
X173232627Y-83606401D01*
X173232620Y-83606403D01*
X173097913Y-83656645D01*
X173097906Y-83656649D01*
X172982812Y-83742809D01*
X172982809Y-83742812D01*
X172896649Y-83857906D01*
X172896646Y-83857911D01*
X172867924Y-83934920D01*
X172826052Y-83990853D01*
X172760588Y-84015270D01*
X172692315Y-84000418D01*
X172660514Y-83975571D01*
X172651784Y-83966087D01*
X172651779Y-83966083D01*
X172651777Y-83966081D01*
X172468634Y-83823535D01*
X172468628Y-83823531D01*
X172264504Y-83713064D01*
X172264495Y-83713061D01*
X172044984Y-83637702D01*
X171857404Y-83606401D01*
X171816049Y-83599500D01*
X171583951Y-83599500D01*
X171542596Y-83606401D01*
X171355015Y-83637702D01*
X171135504Y-83713061D01*
X171135495Y-83713064D01*
X170931371Y-83823531D01*
X170931365Y-83823535D01*
X170748222Y-83966081D01*
X170748219Y-83966084D01*
X170748216Y-83966086D01*
X170748216Y-83966087D01*
X170723791Y-83992620D01*
X170591016Y-84136852D01*
X170488792Y-84293321D01*
X170435646Y-84338678D01*
X170384983Y-84349500D01*
X168271692Y-84349500D01*
X168204653Y-84329815D01*
X168170119Y-84296625D01*
X168040047Y-84110861D01*
X168040045Y-84110858D01*
X167879141Y-83949954D01*
X167692734Y-83819432D01*
X167692732Y-83819431D01*
X167486497Y-83723261D01*
X167486488Y-83723258D01*
X167266697Y-83664366D01*
X167266693Y-83664365D01*
X167266692Y-83664365D01*
X167266691Y-83664364D01*
X167266686Y-83664364D01*
X167040002Y-83644532D01*
X167039998Y-83644532D01*
X166813313Y-83664364D01*
X166813302Y-83664366D01*
X166593511Y-83723258D01*
X166593502Y-83723261D01*
X166387267Y-83819431D01*
X166387265Y-83819432D01*
X166200858Y-83949954D01*
X166039954Y-84110858D01*
X165909432Y-84297265D01*
X165909431Y-84297267D01*
X165813261Y-84503502D01*
X165813258Y-84503511D01*
X165754366Y-84723302D01*
X165754364Y-84723313D01*
X165734532Y-84949998D01*
X160725468Y-84949998D01*
X160705635Y-84723308D01*
X160646739Y-84503504D01*
X160550568Y-84297266D01*
X160420047Y-84110861D01*
X160420045Y-84110858D01*
X160259141Y-83949954D01*
X160072734Y-83819432D01*
X160072732Y-83819431D01*
X159866497Y-83723261D01*
X159866488Y-83723258D01*
X159646697Y-83664366D01*
X159646693Y-83664365D01*
X159646692Y-83664365D01*
X159646691Y-83664364D01*
X159646686Y-83664364D01*
X159420002Y-83644532D01*
X159419998Y-83644532D01*
X159193313Y-83664364D01*
X159193302Y-83664366D01*
X158973511Y-83723258D01*
X158973502Y-83723261D01*
X158767267Y-83819431D01*
X158767265Y-83819432D01*
X158580858Y-83949954D01*
X158419954Y-84110858D01*
X158368173Y-84184811D01*
X158289881Y-84296624D01*
X158235307Y-84340248D01*
X158188308Y-84349500D01*
X158070940Y-84349500D01*
X158030019Y-84360464D01*
X158030019Y-84360465D01*
X157992751Y-84370451D01*
X157918214Y-84390423D01*
X157918209Y-84390426D01*
X157781290Y-84469475D01*
X157781282Y-84469481D01*
X157669478Y-84581286D01*
X156052705Y-86198058D01*
X155991382Y-86231543D01*
X155932931Y-86230152D01*
X155836697Y-86204366D01*
X155836693Y-86204365D01*
X155836692Y-86204365D01*
X155836691Y-86204364D01*
X155836686Y-86204364D01*
X155610002Y-86184532D01*
X155609998Y-86184532D01*
X155383313Y-86204364D01*
X155383302Y-86204366D01*
X155163511Y-86263258D01*
X155163502Y-86263261D01*
X154957267Y-86359431D01*
X154957265Y-86359432D01*
X154770858Y-86489954D01*
X154609954Y-86650858D01*
X154479432Y-86837265D01*
X154479431Y-86837267D01*
X154383261Y-87043502D01*
X154383258Y-87043511D01*
X154324366Y-87263302D01*
X154324364Y-87263313D01*
X154304532Y-87489998D01*
X154304532Y-87490001D01*
X154324364Y-87716686D01*
X154324366Y-87716697D01*
X154383258Y-87936488D01*
X154383261Y-87936497D01*
X154479431Y-88142732D01*
X154479432Y-88142734D01*
X154609954Y-88329141D01*
X154770858Y-88490045D01*
X154770861Y-88490047D01*
X154957266Y-88620568D01*
X155015275Y-88647618D01*
X155067714Y-88693791D01*
X155086866Y-88760984D01*
X155066650Y-88827865D01*
X155015275Y-88872382D01*
X154957267Y-88899431D01*
X154957265Y-88899432D01*
X154770858Y-89029954D01*
X154609954Y-89190858D01*
X154479432Y-89377265D01*
X154479431Y-89377267D01*
X154383261Y-89583502D01*
X154383258Y-89583511D01*
X154324366Y-89803302D01*
X154324364Y-89803313D01*
X154304532Y-90029998D01*
X154304532Y-90030001D01*
X154324364Y-90256686D01*
X154324366Y-90256697D01*
X154383258Y-90476488D01*
X154383261Y-90476497D01*
X154479431Y-90682732D01*
X154479432Y-90682734D01*
X154609954Y-90869141D01*
X154770858Y-91030045D01*
X154770861Y-91030047D01*
X154957266Y-91160568D01*
X155015275Y-91187618D01*
X155067714Y-91233791D01*
X155086866Y-91300984D01*
X155066650Y-91367865D01*
X155015275Y-91412382D01*
X154957267Y-91439431D01*
X154957265Y-91439432D01*
X154770858Y-91569954D01*
X154609954Y-91730858D01*
X154479432Y-91917265D01*
X154479431Y-91917267D01*
X154383261Y-92123502D01*
X154383258Y-92123511D01*
X154324366Y-92343302D01*
X154324364Y-92343313D01*
X154304532Y-92569998D01*
X154304532Y-92570001D01*
X154324364Y-92796686D01*
X154324366Y-92796697D01*
X154383258Y-93016488D01*
X154383261Y-93016497D01*
X154479431Y-93222732D01*
X154479432Y-93222734D01*
X154609954Y-93409141D01*
X154770858Y-93570045D01*
X154770861Y-93570047D01*
X154957266Y-93700568D01*
X155015275Y-93727618D01*
X155067714Y-93773791D01*
X155086866Y-93840984D01*
X155066650Y-93907865D01*
X155015275Y-93952382D01*
X154957267Y-93979431D01*
X154957265Y-93979432D01*
X154770858Y-94109954D01*
X154609954Y-94270858D01*
X154479432Y-94457265D01*
X154479431Y-94457267D01*
X154383261Y-94663502D01*
X154383258Y-94663511D01*
X154324366Y-94883302D01*
X154324364Y-94883313D01*
X154304532Y-95109998D01*
X154304532Y-95110001D01*
X154324364Y-95336686D01*
X154324366Y-95336697D01*
X154383258Y-95556488D01*
X154383261Y-95556497D01*
X154479431Y-95762732D01*
X154479432Y-95762734D01*
X154609954Y-95949141D01*
X154770858Y-96110045D01*
X154770861Y-96110047D01*
X154957266Y-96240568D01*
X155008657Y-96264532D01*
X155015275Y-96267618D01*
X155067714Y-96313791D01*
X155086866Y-96380984D01*
X155066650Y-96447865D01*
X155015275Y-96492382D01*
X154957267Y-96519431D01*
X154957265Y-96519432D01*
X154770858Y-96649954D01*
X154609954Y-96810858D01*
X154479432Y-96997265D01*
X154479431Y-96997267D01*
X154383261Y-97203502D01*
X154383258Y-97203511D01*
X154324366Y-97423302D01*
X154324364Y-97423313D01*
X154304532Y-97649998D01*
X154304532Y-97650001D01*
X154324364Y-97876686D01*
X154324366Y-97876697D01*
X154383258Y-98096488D01*
X154383261Y-98096497D01*
X154479431Y-98302732D01*
X154479432Y-98302734D01*
X154609954Y-98489141D01*
X154770858Y-98650045D01*
X154770861Y-98650047D01*
X154957266Y-98780568D01*
X155015275Y-98807618D01*
X155067714Y-98853791D01*
X155086866Y-98920984D01*
X155066650Y-98987865D01*
X155015275Y-99032382D01*
X154957267Y-99059431D01*
X154957265Y-99059432D01*
X154770858Y-99189954D01*
X154609954Y-99350858D01*
X154479432Y-99537265D01*
X154479431Y-99537267D01*
X154383261Y-99743502D01*
X154383258Y-99743511D01*
X154324366Y-99963302D01*
X154324364Y-99963313D01*
X154304532Y-100189998D01*
X154304532Y-100190001D01*
X154324364Y-100416686D01*
X154324366Y-100416697D01*
X154383258Y-100636488D01*
X154383261Y-100636497D01*
X154479431Y-100842732D01*
X154479432Y-100842734D01*
X154609954Y-101029141D01*
X154770858Y-101190045D01*
X154770861Y-101190047D01*
X154957266Y-101320568D01*
X155015275Y-101347618D01*
X155067714Y-101393791D01*
X155086866Y-101460984D01*
X155066650Y-101527865D01*
X155015275Y-101572382D01*
X154957267Y-101599431D01*
X154957265Y-101599432D01*
X154770858Y-101729954D01*
X154609954Y-101890858D01*
X154479432Y-102077265D01*
X154479431Y-102077267D01*
X154383261Y-102283502D01*
X154383258Y-102283511D01*
X154324366Y-102503302D01*
X154324364Y-102503313D01*
X154304532Y-102729998D01*
X154304532Y-102730001D01*
X154324364Y-102956686D01*
X154324366Y-102956697D01*
X154383258Y-103176488D01*
X154383261Y-103176497D01*
X154479431Y-103382732D01*
X154479432Y-103382734D01*
X154609954Y-103569141D01*
X154770858Y-103730045D01*
X154770861Y-103730047D01*
X154957266Y-103860568D01*
X155015275Y-103887618D01*
X155067714Y-103933791D01*
X155086866Y-104000984D01*
X155066650Y-104067865D01*
X155015275Y-104112382D01*
X154957267Y-104139431D01*
X154957265Y-104139432D01*
X154770858Y-104269954D01*
X154609954Y-104430858D01*
X154479432Y-104617265D01*
X154479431Y-104617267D01*
X154383261Y-104823502D01*
X154383258Y-104823511D01*
X154324366Y-105043302D01*
X154324364Y-105043313D01*
X154304532Y-105269998D01*
X154304532Y-105270001D01*
X154324364Y-105496686D01*
X154324366Y-105496697D01*
X154383258Y-105716488D01*
X154383261Y-105716497D01*
X154479431Y-105922732D01*
X154479432Y-105922734D01*
X154609954Y-106109141D01*
X154770858Y-106270045D01*
X154770861Y-106270047D01*
X154957266Y-106400568D01*
X155015275Y-106427618D01*
X155067714Y-106473791D01*
X155086866Y-106540984D01*
X155066650Y-106607865D01*
X155015275Y-106652382D01*
X154957267Y-106679431D01*
X154957265Y-106679432D01*
X154770858Y-106809954D01*
X154609954Y-106970858D01*
X154479432Y-107157265D01*
X154479431Y-107157267D01*
X154383261Y-107363502D01*
X154383258Y-107363511D01*
X154324366Y-107583302D01*
X154324364Y-107583313D01*
X154304532Y-107809998D01*
X154304532Y-107810001D01*
X154324364Y-108036686D01*
X154324366Y-108036697D01*
X154383258Y-108256488D01*
X154383261Y-108256497D01*
X154479431Y-108462732D01*
X154479432Y-108462734D01*
X154609954Y-108649141D01*
X154770858Y-108810045D01*
X154770861Y-108810047D01*
X154957266Y-108940568D01*
X155008657Y-108964532D01*
X155015275Y-108967618D01*
X155067714Y-109013791D01*
X155086866Y-109080984D01*
X155066650Y-109147865D01*
X155015275Y-109192382D01*
X154957267Y-109219431D01*
X154957265Y-109219432D01*
X154770858Y-109349954D01*
X154609954Y-109510858D01*
X154479432Y-109697265D01*
X154479431Y-109697267D01*
X154383261Y-109903502D01*
X154383258Y-109903511D01*
X154324366Y-110123302D01*
X154324364Y-110123313D01*
X154304532Y-110349998D01*
X154304532Y-110350001D01*
X154324364Y-110576686D01*
X154324366Y-110576697D01*
X154383258Y-110796488D01*
X154383261Y-110796497D01*
X154479431Y-111002732D01*
X154479432Y-111002734D01*
X154609954Y-111189141D01*
X154770858Y-111350045D01*
X154770861Y-111350047D01*
X154957266Y-111480568D01*
X155015275Y-111507618D01*
X155067714Y-111553791D01*
X155086866Y-111620984D01*
X155066650Y-111687865D01*
X155015275Y-111732382D01*
X154957267Y-111759431D01*
X154957265Y-111759432D01*
X154770858Y-111889954D01*
X154609954Y-112050858D01*
X154479432Y-112237265D01*
X154479431Y-112237267D01*
X154383261Y-112443502D01*
X154383258Y-112443511D01*
X154324366Y-112663302D01*
X154324364Y-112663313D01*
X154304532Y-112889998D01*
X154304532Y-112890001D01*
X154324364Y-113116686D01*
X154324366Y-113116697D01*
X154383258Y-113336488D01*
X154383261Y-113336497D01*
X154479431Y-113542732D01*
X154479432Y-113542734D01*
X154609954Y-113729141D01*
X154770858Y-113890045D01*
X154770861Y-113890047D01*
X154957266Y-114020568D01*
X155015865Y-114047893D01*
X155068305Y-114094065D01*
X155087457Y-114161258D01*
X155067242Y-114228139D01*
X155015867Y-114272657D01*
X154957515Y-114299867D01*
X154771179Y-114430342D01*
X154610342Y-114591179D01*
X154479865Y-114777517D01*
X154383734Y-114983673D01*
X154383730Y-114983682D01*
X154331127Y-115179999D01*
X154331128Y-115180000D01*
X155176988Y-115180000D01*
X155144075Y-115237007D01*
X155110000Y-115364174D01*
X155110000Y-115495826D01*
X155144075Y-115622993D01*
X155176988Y-115680000D01*
X154331128Y-115680000D01*
X154374912Y-115843407D01*
X154373249Y-115913257D01*
X154334086Y-115971119D01*
X154269858Y-115998623D01*
X154255137Y-115999500D01*
X141840097Y-115999500D01*
X141773058Y-115979815D01*
X141752416Y-115963181D01*
X141661941Y-115872706D01*
X141628456Y-115811383D01*
X141629847Y-115752931D01*
X141634114Y-115737007D01*
X141655635Y-115656692D01*
X141675468Y-115430000D01*
X141655635Y-115203308D01*
X141596739Y-114983504D01*
X141500568Y-114777266D01*
X141370047Y-114590861D01*
X141370045Y-114590858D01*
X141209141Y-114429954D01*
X141022734Y-114299432D01*
X141022728Y-114299429D01*
X140964725Y-114272382D01*
X140912285Y-114226210D01*
X140893133Y-114159017D01*
X140913348Y-114092135D01*
X140964725Y-114047618D01*
X141022734Y-114020568D01*
X141209139Y-113890047D01*
X141370047Y-113729139D01*
X141500568Y-113542734D01*
X141596739Y-113336496D01*
X141655635Y-113116692D01*
X141675468Y-112890000D01*
X141655635Y-112663308D01*
X141596739Y-112443504D01*
X141500568Y-112237266D01*
X141370047Y-112050861D01*
X141370045Y-112050858D01*
X141209141Y-111889954D01*
X141022734Y-111759432D01*
X141022728Y-111759429D01*
X140964725Y-111732382D01*
X140912285Y-111686210D01*
X140893133Y-111619017D01*
X140913348Y-111552135D01*
X140964725Y-111507618D01*
X141022734Y-111480568D01*
X141209139Y-111350047D01*
X141370047Y-111189139D01*
X141500568Y-111002734D01*
X141596739Y-110796496D01*
X141655635Y-110576692D01*
X141673673Y-110370514D01*
X141675468Y-110350001D01*
X141675468Y-110349998D01*
X141669801Y-110285230D01*
X141655635Y-110123308D01*
X141596739Y-109903504D01*
X141500568Y-109697266D01*
X141402839Y-109557693D01*
X141370045Y-109510858D01*
X141209141Y-109349954D01*
X141022734Y-109219432D01*
X141022728Y-109219429D01*
X140964725Y-109192382D01*
X140912285Y-109146210D01*
X140893133Y-109079017D01*
X140913348Y-109012135D01*
X140964725Y-108967618D01*
X140971343Y-108964532D01*
X141022734Y-108940568D01*
X141209139Y-108810047D01*
X141370047Y-108649139D01*
X141500568Y-108462734D01*
X141596739Y-108256496D01*
X141655635Y-108036692D01*
X141675468Y-107810000D01*
X141670260Y-107750478D01*
X141655635Y-107583313D01*
X141655635Y-107583308D01*
X141596739Y-107363504D01*
X141500568Y-107157266D01*
X141370047Y-106970861D01*
X141370045Y-106970858D01*
X141209141Y-106809954D01*
X141022734Y-106679432D01*
X141022728Y-106679429D01*
X140964725Y-106652382D01*
X140912285Y-106606210D01*
X140893133Y-106539017D01*
X140913348Y-106472135D01*
X140964725Y-106427618D01*
X141022734Y-106400568D01*
X141209139Y-106270047D01*
X141370047Y-106109139D01*
X141500568Y-105922734D01*
X141596739Y-105716496D01*
X141655635Y-105496692D01*
X141675468Y-105270000D01*
X141675467Y-105269994D01*
X141661960Y-105115606D01*
X141655635Y-105043308D01*
X141596739Y-104823504D01*
X141500568Y-104617266D01*
X141370047Y-104430861D01*
X141370045Y-104430858D01*
X141209141Y-104269954D01*
X141022734Y-104139432D01*
X141022728Y-104139429D01*
X140964725Y-104112382D01*
X140912285Y-104066210D01*
X140893133Y-103999017D01*
X140913348Y-103932135D01*
X140964725Y-103887618D01*
X141022734Y-103860568D01*
X141209139Y-103730047D01*
X141370047Y-103569139D01*
X141500568Y-103382734D01*
X141596739Y-103176496D01*
X141655635Y-102956692D01*
X141675468Y-102730000D01*
X141655635Y-102503308D01*
X141596739Y-102283504D01*
X141500568Y-102077266D01*
X141370047Y-101890861D01*
X141370045Y-101890858D01*
X141209141Y-101729954D01*
X141022734Y-101599432D01*
X141022728Y-101599429D01*
X140964725Y-101572382D01*
X140912285Y-101526210D01*
X140893133Y-101459017D01*
X140913348Y-101392135D01*
X140964725Y-101347618D01*
X141022734Y-101320568D01*
X141209139Y-101190047D01*
X141370047Y-101029139D01*
X141500568Y-100842734D01*
X141596739Y-100636496D01*
X141655635Y-100416692D01*
X141675468Y-100190000D01*
X141655635Y-99963308D01*
X141596739Y-99743504D01*
X141500568Y-99537266D01*
X141370047Y-99350861D01*
X141370045Y-99350858D01*
X141209141Y-99189954D01*
X141022734Y-99059432D01*
X141022728Y-99059429D01*
X140964725Y-99032382D01*
X140912285Y-98986210D01*
X140893133Y-98919017D01*
X140913348Y-98852135D01*
X140964725Y-98807618D01*
X141022734Y-98780568D01*
X141209139Y-98650047D01*
X141370047Y-98489139D01*
X141500568Y-98302734D01*
X141596739Y-98096496D01*
X141655635Y-97876692D01*
X141673980Y-97667011D01*
X141675468Y-97650001D01*
X141675468Y-97649998D01*
X141661755Y-97493258D01*
X141655635Y-97423308D01*
X141610916Y-97256415D01*
X141596741Y-97203511D01*
X141596738Y-97203502D01*
X141543568Y-97089479D01*
X141500568Y-96997266D01*
X141370047Y-96810861D01*
X141370045Y-96810858D01*
X141209141Y-96649954D01*
X141022734Y-96519432D01*
X141022728Y-96519429D01*
X140964725Y-96492382D01*
X140912285Y-96446210D01*
X140893133Y-96379017D01*
X140913348Y-96312135D01*
X140964725Y-96267618D01*
X140971343Y-96264532D01*
X141022734Y-96240568D01*
X141209139Y-96110047D01*
X141370047Y-95949139D01*
X141500568Y-95762734D01*
X141596739Y-95556496D01*
X141655635Y-95336692D01*
X141675468Y-95110000D01*
X141655635Y-94883308D01*
X141596739Y-94663504D01*
X141500568Y-94457266D01*
X141370047Y-94270861D01*
X141370045Y-94270858D01*
X141209141Y-94109954D01*
X141022734Y-93979432D01*
X141022728Y-93979429D01*
X140964725Y-93952382D01*
X140912285Y-93906210D01*
X140893133Y-93839017D01*
X140913348Y-93772135D01*
X140964725Y-93727618D01*
X141022734Y-93700568D01*
X141209139Y-93570047D01*
X141370047Y-93409139D01*
X141500568Y-93222734D01*
X141596739Y-93016496D01*
X141655635Y-92796692D01*
X141675468Y-92570000D01*
X141655635Y-92343308D01*
X141596739Y-92123504D01*
X141500568Y-91917266D01*
X141370047Y-91730861D01*
X141370045Y-91730858D01*
X141209141Y-91569954D01*
X141022734Y-91439432D01*
X141022728Y-91439429D01*
X140964725Y-91412382D01*
X140912285Y-91366210D01*
X140893133Y-91299017D01*
X140913348Y-91232135D01*
X140964725Y-91187618D01*
X141022734Y-91160568D01*
X141209139Y-91030047D01*
X141370047Y-90869139D01*
X141500568Y-90682734D01*
X141596739Y-90476496D01*
X141655635Y-90256692D01*
X141675468Y-90030000D01*
X141655635Y-89803308D01*
X141596739Y-89583504D01*
X141500568Y-89377266D01*
X141370047Y-89190861D01*
X141370045Y-89190858D01*
X141209141Y-89029954D01*
X141022734Y-88899432D01*
X141022728Y-88899429D01*
X140964725Y-88872382D01*
X140912285Y-88826210D01*
X140893133Y-88759017D01*
X140913348Y-88692135D01*
X140964725Y-88647618D01*
X141022734Y-88620568D01*
X141209139Y-88490047D01*
X141370047Y-88329139D01*
X141500568Y-88142734D01*
X141596739Y-87936496D01*
X141655635Y-87716692D01*
X141675468Y-87490000D01*
X141655635Y-87263308D01*
X141596739Y-87043504D01*
X141500568Y-86837266D01*
X141370047Y-86650861D01*
X141370045Y-86650858D01*
X141209141Y-86489954D01*
X141022734Y-86359432D01*
X141022732Y-86359431D01*
X140816497Y-86263261D01*
X140816488Y-86263258D01*
X140596697Y-86204366D01*
X140596693Y-86204365D01*
X140596692Y-86204365D01*
X140596691Y-86204364D01*
X140596686Y-86204364D01*
X140370002Y-86184532D01*
X140369998Y-86184532D01*
X140143313Y-86204364D01*
X140143302Y-86204366D01*
X139923511Y-86263258D01*
X139923502Y-86263261D01*
X139717267Y-86359431D01*
X139717265Y-86359432D01*
X139530858Y-86489954D01*
X139369954Y-86650858D01*
X139239432Y-86837265D01*
X139239431Y-86837267D01*
X139143261Y-87043502D01*
X139143258Y-87043511D01*
X139084366Y-87263302D01*
X139084364Y-87263313D01*
X139064532Y-87489998D01*
X139064532Y-87490001D01*
X139084364Y-87716686D01*
X139084366Y-87716697D01*
X139143258Y-87936488D01*
X139143261Y-87936497D01*
X139239431Y-88142732D01*
X139239432Y-88142734D01*
X139369954Y-88329141D01*
X139530858Y-88490045D01*
X139530861Y-88490047D01*
X139717266Y-88620568D01*
X139775275Y-88647618D01*
X139827714Y-88693791D01*
X139846866Y-88760984D01*
X139826650Y-88827865D01*
X139775275Y-88872382D01*
X139717267Y-88899431D01*
X139717265Y-88899432D01*
X139530858Y-89029954D01*
X139369954Y-89190858D01*
X139239432Y-89377265D01*
X139239431Y-89377267D01*
X139143261Y-89583502D01*
X139143258Y-89583511D01*
X139084366Y-89803302D01*
X139084364Y-89803313D01*
X139064532Y-90029998D01*
X139064532Y-90030001D01*
X139084364Y-90256686D01*
X139084366Y-90256697D01*
X139143258Y-90476488D01*
X139143261Y-90476497D01*
X139239431Y-90682732D01*
X139239432Y-90682734D01*
X139369954Y-90869141D01*
X139530858Y-91030045D01*
X139530861Y-91030047D01*
X139717266Y-91160568D01*
X139775275Y-91187618D01*
X139827714Y-91233791D01*
X139846866Y-91300984D01*
X139826650Y-91367865D01*
X139775275Y-91412382D01*
X139717267Y-91439431D01*
X139717265Y-91439432D01*
X139530858Y-91569954D01*
X139369954Y-91730858D01*
X139239432Y-91917265D01*
X139239431Y-91917267D01*
X139143261Y-92123502D01*
X139143258Y-92123511D01*
X139084366Y-92343302D01*
X139084364Y-92343313D01*
X139064532Y-92569998D01*
X139064532Y-92570001D01*
X139084364Y-92796686D01*
X139084366Y-92796697D01*
X139143258Y-93016488D01*
X139143261Y-93016497D01*
X139239431Y-93222732D01*
X139239432Y-93222734D01*
X139369954Y-93409141D01*
X139530858Y-93570045D01*
X139530861Y-93570047D01*
X139717266Y-93700568D01*
X139775275Y-93727618D01*
X139827714Y-93773791D01*
X139846866Y-93840984D01*
X139826650Y-93907865D01*
X139775275Y-93952382D01*
X139717267Y-93979431D01*
X139717265Y-93979432D01*
X139530858Y-94109954D01*
X139369954Y-94270858D01*
X139239432Y-94457265D01*
X139239431Y-94457267D01*
X139143261Y-94663502D01*
X139143258Y-94663511D01*
X139084366Y-94883302D01*
X139084364Y-94883313D01*
X139064532Y-95109998D01*
X139064532Y-95110001D01*
X139084364Y-95336686D01*
X139084366Y-95336697D01*
X139143258Y-95556488D01*
X139143261Y-95556497D01*
X139239431Y-95762732D01*
X139239432Y-95762734D01*
X139369954Y-95949141D01*
X139530858Y-96110045D01*
X139530861Y-96110047D01*
X139717266Y-96240568D01*
X139768657Y-96264532D01*
X139775275Y-96267618D01*
X139827714Y-96313791D01*
X139846866Y-96380984D01*
X139826650Y-96447865D01*
X139775275Y-96492382D01*
X139717267Y-96519431D01*
X139717265Y-96519432D01*
X139530858Y-96649954D01*
X139369954Y-96810858D01*
X139239432Y-96997265D01*
X139239431Y-96997267D01*
X139143261Y-97203502D01*
X139143258Y-97203511D01*
X139084366Y-97423302D01*
X139084364Y-97423313D01*
X139064532Y-97649998D01*
X139064532Y-97650001D01*
X139084364Y-97876686D01*
X139084366Y-97876697D01*
X139143258Y-98096488D01*
X139143261Y-98096497D01*
X139239431Y-98302732D01*
X139239432Y-98302734D01*
X139369954Y-98489141D01*
X139530858Y-98650045D01*
X139530861Y-98650047D01*
X139717266Y-98780568D01*
X139775275Y-98807618D01*
X139827714Y-98853791D01*
X139846866Y-98920984D01*
X139826650Y-98987865D01*
X139775275Y-99032382D01*
X139717267Y-99059431D01*
X139717265Y-99059432D01*
X139530858Y-99189954D01*
X139369954Y-99350858D01*
X139239432Y-99537265D01*
X139239431Y-99537267D01*
X139143261Y-99743502D01*
X139143258Y-99743511D01*
X139084366Y-99963302D01*
X139084364Y-99963313D01*
X139064532Y-100189998D01*
X139064532Y-100190001D01*
X139084364Y-100416686D01*
X139084366Y-100416697D01*
X139143258Y-100636488D01*
X139143261Y-100636497D01*
X139239431Y-100842732D01*
X139239432Y-100842734D01*
X139369954Y-101029141D01*
X139530858Y-101190045D01*
X139530861Y-101190047D01*
X139717266Y-101320568D01*
X139775275Y-101347618D01*
X139827714Y-101393791D01*
X139846866Y-101460984D01*
X139826650Y-101527865D01*
X139775275Y-101572382D01*
X139717267Y-101599431D01*
X139717265Y-101599432D01*
X139530858Y-101729954D01*
X139369954Y-101890858D01*
X139239432Y-102077265D01*
X139239431Y-102077267D01*
X139143261Y-102283502D01*
X139143258Y-102283511D01*
X139084366Y-102503302D01*
X139084364Y-102503313D01*
X139064532Y-102729998D01*
X139064532Y-102730001D01*
X139084364Y-102956686D01*
X139084366Y-102956697D01*
X139143258Y-103176488D01*
X139143261Y-103176497D01*
X139239431Y-103382732D01*
X139239432Y-103382734D01*
X139369954Y-103569141D01*
X139530858Y-103730045D01*
X139530861Y-103730047D01*
X139717266Y-103860568D01*
X139775275Y-103887618D01*
X139827714Y-103933791D01*
X139846866Y-104000984D01*
X139826650Y-104067865D01*
X139775275Y-104112382D01*
X139717267Y-104139431D01*
X139717265Y-104139432D01*
X139530858Y-104269954D01*
X139369954Y-104430858D01*
X139339599Y-104474211D01*
X139239881Y-104616624D01*
X139185307Y-104660248D01*
X139138308Y-104669500D01*
X126752940Y-104669500D01*
X126685901Y-104649815D01*
X126665259Y-104633181D01*
X126602262Y-104570184D01*
X126449523Y-104474211D01*
X126279254Y-104414631D01*
X126279249Y-104414630D01*
X126100004Y-104394435D01*
X126099996Y-104394435D01*
X125920750Y-104414630D01*
X125920745Y-104414631D01*
X125750476Y-104474211D01*
X125597736Y-104570185D01*
X125594903Y-104572445D01*
X125592724Y-104573334D01*
X125591842Y-104573889D01*
X125591744Y-104573734D01*
X125530217Y-104598855D01*
X125517588Y-104599500D01*
X121476670Y-104599500D01*
X121476654Y-104599499D01*
X121469058Y-104599499D01*
X121310943Y-104599499D01*
X121234579Y-104619961D01*
X121158214Y-104640423D01*
X121158209Y-104640426D01*
X121021290Y-104719475D01*
X121021282Y-104719481D01*
X112841679Y-112899084D01*
X112780356Y-112932569D01*
X112721906Y-112931178D01*
X112650076Y-112911932D01*
X112650073Y-112911931D01*
X112650068Y-112911930D01*
X112650065Y-112911929D01*
X112650062Y-112911929D01*
X112430002Y-112892677D01*
X112429998Y-112892677D01*
X112209937Y-112911929D01*
X112209929Y-112911930D01*
X111996554Y-112969104D01*
X111996548Y-112969107D01*
X111796340Y-113062465D01*
X111796338Y-113062466D01*
X111615377Y-113189175D01*
X111459175Y-113345377D01*
X111378074Y-113461203D01*
X111323497Y-113504828D01*
X111253999Y-113512022D01*
X111191644Y-113480499D01*
X111156230Y-113420270D01*
X111152499Y-113390080D01*
X111152499Y-113350129D01*
X111152498Y-113350123D01*
X111152497Y-113350116D01*
X111146091Y-113290517D01*
X111130422Y-113248507D01*
X111095797Y-113155671D01*
X111095793Y-113155664D01*
X111009547Y-113040455D01*
X111009544Y-113040452D01*
X110894335Y-112954206D01*
X110894328Y-112954202D01*
X110759482Y-112903908D01*
X110759483Y-112903908D01*
X110699883Y-112897501D01*
X110699881Y-112897500D01*
X110699873Y-112897500D01*
X110699864Y-112897500D01*
X109080129Y-112897500D01*
X109080123Y-112897501D01*
X109020516Y-112903908D01*
X108885671Y-112954202D01*
X108885664Y-112954206D01*
X108770455Y-113040452D01*
X108770452Y-113040455D01*
X108684206Y-113155664D01*
X108684202Y-113155671D01*
X108633908Y-113290517D01*
X108628010Y-113345380D01*
X108627501Y-113350123D01*
X108627500Y-113350135D01*
X108627500Y-114969870D01*
X108627501Y-114969876D01*
X108633908Y-115029483D01*
X108684202Y-115164328D01*
X108684206Y-115164335D01*
X108770452Y-115279544D01*
X108770455Y-115279547D01*
X108885664Y-115365793D01*
X108885671Y-115365797D01*
X109020517Y-115416091D01*
X109020516Y-115416091D01*
X109027444Y-115416835D01*
X109080127Y-115422500D01*
X110699872Y-115422499D01*
X110759483Y-115416091D01*
X110894331Y-115365796D01*
X111009546Y-115279546D01*
X111095796Y-115164331D01*
X111146091Y-115029483D01*
X111152500Y-114969873D01*
X111152499Y-114929920D01*
X111172182Y-114862884D01*
X111224985Y-114817128D01*
X111294143Y-114807183D01*
X111357700Y-114836206D01*
X111378073Y-114858796D01*
X111459174Y-114974620D01*
X111459175Y-114974621D01*
X111615378Y-115130824D01*
X111615384Y-115130829D01*
X111796333Y-115257531D01*
X111796335Y-115257532D01*
X111796338Y-115257534D01*
X111996550Y-115350894D01*
X112209932Y-115408070D01*
X112367123Y-115421822D01*
X112429998Y-115427323D01*
X112430000Y-115427323D01*
X112430002Y-115427323D01*
X112485151Y-115422498D01*
X112650068Y-115408070D01*
X112863450Y-115350894D01*
X113063662Y-115257534D01*
X113244620Y-115130826D01*
X113400826Y-114974620D01*
X113527534Y-114793662D01*
X113587618Y-114664811D01*
X113633790Y-114612371D01*
X113700983Y-114593219D01*
X113767865Y-114613435D01*
X113812382Y-114664811D01*
X113872464Y-114793658D01*
X113872468Y-114793666D01*
X113999170Y-114974615D01*
X113999175Y-114974621D01*
X114155378Y-115130824D01*
X114155384Y-115130829D01*
X114336333Y-115257531D01*
X114336335Y-115257532D01*
X114336338Y-115257534D01*
X114536550Y-115350894D01*
X114749932Y-115408070D01*
X114907123Y-115421822D01*
X114969998Y-115427323D01*
X114970000Y-115427323D01*
X114970002Y-115427323D01*
X115025151Y-115422498D01*
X115190068Y-115408070D01*
X115403450Y-115350894D01*
X115603662Y-115257534D01*
X115784620Y-115130826D01*
X115940826Y-114974620D01*
X116067534Y-114793662D01*
X116127894Y-114664218D01*
X116174066Y-114611779D01*
X116241259Y-114592627D01*
X116308141Y-114612843D01*
X116352658Y-114664219D01*
X116412898Y-114793405D01*
X116412901Y-114793411D01*
X116458258Y-114858187D01*
X116458259Y-114858188D01*
X117129000Y-114187447D01*
X117129000Y-114210160D01*
X117154964Y-114307061D01*
X117205124Y-114393940D01*
X117276060Y-114464876D01*
X117362939Y-114515036D01*
X117459840Y-114541000D01*
X117482553Y-114541000D01*
X116811810Y-115211740D01*
X116876590Y-115257099D01*
X116876592Y-115257100D01*
X117076715Y-115350419D01*
X117076729Y-115350424D01*
X117290013Y-115407573D01*
X117290023Y-115407575D01*
X117509999Y-115426821D01*
X117510001Y-115426821D01*
X117729976Y-115407575D01*
X117729986Y-115407573D01*
X117943270Y-115350424D01*
X117943284Y-115350419D01*
X118143407Y-115257100D01*
X118143417Y-115257094D01*
X118208188Y-115211741D01*
X117537448Y-114541000D01*
X117560160Y-114541000D01*
X117657061Y-114515036D01*
X117743940Y-114464876D01*
X117814876Y-114393940D01*
X117865036Y-114307061D01*
X117891000Y-114210160D01*
X117891000Y-114187447D01*
X118561741Y-114858188D01*
X118607094Y-114793417D01*
X118607095Y-114793416D01*
X118667340Y-114664219D01*
X118713512Y-114611780D01*
X118780706Y-114592627D01*
X118847587Y-114612842D01*
X118892105Y-114664218D01*
X118952466Y-114793662D01*
X118952468Y-114793666D01*
X119079170Y-114974615D01*
X119079175Y-114974621D01*
X119235378Y-115130824D01*
X119235384Y-115130829D01*
X119416333Y-115257531D01*
X119416335Y-115257532D01*
X119416338Y-115257534D01*
X119616550Y-115350894D01*
X119829932Y-115408070D01*
X119987123Y-115421822D01*
X120049998Y-115427323D01*
X120050000Y-115427323D01*
X120050002Y-115427323D01*
X120105151Y-115422498D01*
X120270068Y-115408070D01*
X120483450Y-115350894D01*
X120683662Y-115257534D01*
X120864620Y-115130826D01*
X121020826Y-114974620D01*
X121063710Y-114913376D01*
X121118287Y-114869751D01*
X121165284Y-114860500D01*
X138758481Y-114860500D01*
X138825520Y-114880185D01*
X138846162Y-114896819D01*
X139048972Y-115099629D01*
X139082457Y-115160952D01*
X139084819Y-115198117D01*
X139064532Y-115429998D01*
X139064532Y-115430001D01*
X139084364Y-115656686D01*
X139084366Y-115656697D01*
X139143258Y-115876488D01*
X139143261Y-115876497D01*
X139239431Y-116082732D01*
X139239432Y-116082734D01*
X139369954Y-116269141D01*
X139530858Y-116430045D01*
X139530861Y-116430047D01*
X139717266Y-116560568D01*
X139775275Y-116587618D01*
X139827714Y-116633791D01*
X139846866Y-116700984D01*
X139826650Y-116767865D01*
X139775275Y-116812382D01*
X139717267Y-116839431D01*
X139717265Y-116839432D01*
X139530858Y-116969954D01*
X139369954Y-117130858D01*
X139239432Y-117317265D01*
X139239431Y-117317267D01*
X139143261Y-117523502D01*
X139143258Y-117523511D01*
X139084366Y-117743302D01*
X139084364Y-117743313D01*
X139064532Y-117969998D01*
X139064532Y-117970001D01*
X139084364Y-118196686D01*
X139084366Y-118196697D01*
X139143258Y-118416488D01*
X139143261Y-118416497D01*
X139239431Y-118622732D01*
X139239432Y-118622734D01*
X139369954Y-118809141D01*
X139530858Y-118970045D01*
X139530861Y-118970047D01*
X139717266Y-119100568D01*
X139775865Y-119127893D01*
X139828305Y-119174065D01*
X139847457Y-119241258D01*
X139827242Y-119308139D01*
X139775867Y-119352657D01*
X139717515Y-119379867D01*
X139531179Y-119510342D01*
X139370342Y-119671179D01*
X139239865Y-119857517D01*
X139143734Y-120063673D01*
X139143730Y-120063682D01*
X139091127Y-120259999D01*
X139091128Y-120260000D01*
X139936988Y-120260000D01*
X139904075Y-120317007D01*
X139870000Y-120444174D01*
X139870000Y-120575826D01*
X139904075Y-120702993D01*
X139936988Y-120760000D01*
X139091128Y-120760000D01*
X139143730Y-120956317D01*
X139143734Y-120956326D01*
X139239865Y-121162482D01*
X139370342Y-121348820D01*
X139531179Y-121509657D01*
X139717518Y-121640134D01*
X139717520Y-121640135D01*
X139775865Y-121667342D01*
X139828305Y-121713514D01*
X139847457Y-121780707D01*
X139827242Y-121847589D01*
X139775867Y-121892105D01*
X139717268Y-121919431D01*
X139717264Y-121919433D01*
X139530858Y-122049954D01*
X139369954Y-122210858D01*
X139239432Y-122397265D01*
X139239431Y-122397267D01*
X139143261Y-122603502D01*
X139143258Y-122603511D01*
X139084366Y-122823302D01*
X139084364Y-122823313D01*
X139064532Y-123049998D01*
X139064532Y-123050001D01*
X139084364Y-123276686D01*
X139084366Y-123276697D01*
X139143258Y-123496488D01*
X139143261Y-123496497D01*
X139239431Y-123702732D01*
X139239432Y-123702734D01*
X139369954Y-123889141D01*
X139530858Y-124050045D01*
X139530861Y-124050047D01*
X139717266Y-124180568D01*
X139923504Y-124276739D01*
X140143308Y-124335635D01*
X140305230Y-124349801D01*
X140369998Y-124355468D01*
X140370000Y-124355468D01*
X140370002Y-124355468D01*
X140426807Y-124350498D01*
X140596692Y-124335635D01*
X140816496Y-124276739D01*
X141022734Y-124180568D01*
X141209139Y-124050047D01*
X141370047Y-123889139D01*
X141500568Y-123702734D01*
X141596739Y-123496496D01*
X141655635Y-123276692D01*
X141673980Y-123067011D01*
X141675468Y-123050001D01*
X141675468Y-123049998D01*
X141655635Y-122823313D01*
X141655635Y-122823308D01*
X141610916Y-122656415D01*
X141596741Y-122603511D01*
X141596738Y-122603502D01*
X141543568Y-122489479D01*
X141500568Y-122397266D01*
X141370047Y-122210861D01*
X141370045Y-122210858D01*
X141209141Y-122049954D01*
X141022734Y-121919432D01*
X141022732Y-121919431D01*
X141011275Y-121914088D01*
X140964132Y-121892105D01*
X140911694Y-121845934D01*
X140892542Y-121778740D01*
X140912758Y-121711859D01*
X140964134Y-121667341D01*
X141022484Y-121640132D01*
X141208820Y-121509657D01*
X141369657Y-121348820D01*
X141500134Y-121162482D01*
X141596265Y-120956326D01*
X141596269Y-120956317D01*
X141648872Y-120760000D01*
X140803012Y-120760000D01*
X140835925Y-120702993D01*
X140870000Y-120575826D01*
X140870000Y-120444174D01*
X140835925Y-120317007D01*
X140803012Y-120260000D01*
X141648872Y-120260000D01*
X141648872Y-120259999D01*
X141596269Y-120063682D01*
X141596265Y-120063673D01*
X141500134Y-119857517D01*
X141369657Y-119671179D01*
X141208820Y-119510342D01*
X141022482Y-119379865D01*
X140964133Y-119352657D01*
X140911694Y-119306484D01*
X140892542Y-119239291D01*
X140912758Y-119172410D01*
X140964129Y-119127895D01*
X141022734Y-119100568D01*
X141209139Y-118970047D01*
X141370047Y-118809139D01*
X141500568Y-118622734D01*
X141596739Y-118416496D01*
X141655635Y-118196692D01*
X141675468Y-117970000D01*
X141655635Y-117743308D01*
X141596739Y-117523504D01*
X141528377Y-117376904D01*
X141517886Y-117307828D01*
X141546406Y-117244044D01*
X141604882Y-117205804D01*
X141640760Y-117200500D01*
X154339240Y-117200500D01*
X154406279Y-117220185D01*
X154452034Y-117272989D01*
X154461978Y-117342147D01*
X154451622Y-117376905D01*
X154383261Y-117523502D01*
X154383258Y-117523511D01*
X154324366Y-117743302D01*
X154324364Y-117743313D01*
X154304532Y-117969998D01*
X154304532Y-117970001D01*
X154324364Y-118196686D01*
X154324366Y-118196697D01*
X154383258Y-118416488D01*
X154383261Y-118416497D01*
X154479431Y-118622732D01*
X154479432Y-118622734D01*
X154609954Y-118809141D01*
X154770858Y-118970045D01*
X154770861Y-118970047D01*
X154957266Y-119100568D01*
X155015275Y-119127618D01*
X155067714Y-119173791D01*
X155086866Y-119240984D01*
X155066650Y-119307865D01*
X155015275Y-119352382D01*
X154957267Y-119379431D01*
X154957265Y-119379432D01*
X154770858Y-119509954D01*
X154609954Y-119670858D01*
X154479432Y-119857265D01*
X154479431Y-119857267D01*
X154383261Y-120063502D01*
X154383258Y-120063511D01*
X154324366Y-120283302D01*
X154324364Y-120283313D01*
X154304532Y-120509998D01*
X154304532Y-120510001D01*
X154324364Y-120736686D01*
X154324366Y-120736697D01*
X154383258Y-120956488D01*
X154383261Y-120956497D01*
X154479431Y-121162732D01*
X154479432Y-121162734D01*
X154609954Y-121349141D01*
X154770858Y-121510045D01*
X154795462Y-121527273D01*
X154839087Y-121581849D01*
X154846281Y-121651348D01*
X154814758Y-121713703D01*
X154754529Y-121749117D01*
X154737593Y-121752138D01*
X154702516Y-121755908D01*
X154567671Y-121806202D01*
X154567664Y-121806206D01*
X154452455Y-121892452D01*
X154452452Y-121892455D01*
X154366206Y-122007664D01*
X154366202Y-122007671D01*
X154315908Y-122142517D01*
X154309501Y-122202116D01*
X154309501Y-122202123D01*
X154309500Y-122202135D01*
X154309500Y-123897870D01*
X154309501Y-123897876D01*
X154315908Y-123957483D01*
X154366202Y-124092328D01*
X154366206Y-124092335D01*
X154452452Y-124207544D01*
X154452455Y-124207547D01*
X154567664Y-124293793D01*
X154567671Y-124293797D01*
X154702517Y-124344091D01*
X154702516Y-124344091D01*
X154709444Y-124344835D01*
X154762127Y-124350500D01*
X156457872Y-124350499D01*
X156517483Y-124344091D01*
X156652331Y-124293796D01*
X156767546Y-124207546D01*
X156853796Y-124092331D01*
X156904091Y-123957483D01*
X156910500Y-123897873D01*
X156910499Y-122202128D01*
X156904091Y-122142517D01*
X156899742Y-122130858D01*
X156853797Y-122007671D01*
X156853793Y-122007664D01*
X156767547Y-121892455D01*
X156767544Y-121892452D01*
X156652335Y-121806206D01*
X156652328Y-121806202D01*
X156517482Y-121755908D01*
X156517483Y-121755908D01*
X156482404Y-121752137D01*
X156417853Y-121725399D01*
X156378005Y-121668006D01*
X156375512Y-121598181D01*
X156411165Y-121538092D01*
X156424539Y-121527272D01*
X156449140Y-121510046D01*
X156610045Y-121349141D01*
X156610047Y-121349139D01*
X156740568Y-121162734D01*
X156836739Y-120956496D01*
X156895635Y-120736692D01*
X156915468Y-120510000D01*
X156895635Y-120283308D01*
X156836739Y-120063504D01*
X156740568Y-119857266D01*
X156610047Y-119670861D01*
X156610045Y-119670858D01*
X156449141Y-119509954D01*
X156262734Y-119379432D01*
X156262728Y-119379429D01*
X156204725Y-119352382D01*
X156152285Y-119306210D01*
X156133133Y-119239017D01*
X156153348Y-119172135D01*
X156204725Y-119127618D01*
X156262734Y-119100568D01*
X156449139Y-118970047D01*
X156610047Y-118809139D01*
X156740568Y-118622734D01*
X156836739Y-118416496D01*
X156895635Y-118196692D01*
X156915468Y-117970000D01*
X156895635Y-117743308D01*
X156836739Y-117523504D01*
X156768377Y-117376904D01*
X156757886Y-117307828D01*
X156786406Y-117244044D01*
X156844882Y-117205804D01*
X156880760Y-117200500D01*
X159419791Y-117200500D01*
X159486830Y-117220185D01*
X159532585Y-117272989D01*
X159542529Y-117342147D01*
X159532173Y-117376905D01*
X159463734Y-117523673D01*
X159463730Y-117523682D01*
X159404860Y-117743389D01*
X159404858Y-117743400D01*
X159385034Y-117969997D01*
X159385034Y-117970002D01*
X159404858Y-118196599D01*
X159404860Y-118196610D01*
X159463730Y-118416317D01*
X159463735Y-118416331D01*
X159559863Y-118622478D01*
X159610974Y-118695472D01*
X160290000Y-118016446D01*
X160290000Y-118022661D01*
X160317259Y-118124394D01*
X160369920Y-118215606D01*
X160444394Y-118290080D01*
X160535606Y-118342741D01*
X160637339Y-118370000D01*
X160643553Y-118370000D01*
X159964526Y-119049025D01*
X160037513Y-119100132D01*
X160037521Y-119100136D01*
X160243668Y-119196264D01*
X160243682Y-119196269D01*
X160463389Y-119255139D01*
X160463400Y-119255141D01*
X160689998Y-119274966D01*
X160690002Y-119274966D01*
X160916599Y-119255141D01*
X160916610Y-119255139D01*
X160973132Y-119239994D01*
X169194859Y-119239994D01*
X169194859Y-119240005D01*
X169215385Y-119487729D01*
X169215387Y-119487738D01*
X169276412Y-119728717D01*
X169376266Y-119956364D01*
X169476564Y-120109882D01*
X170176212Y-119410234D01*
X170187482Y-119452292D01*
X170259890Y-119577708D01*
X170362292Y-119680110D01*
X170487708Y-119752518D01*
X170529765Y-119763787D01*
X169829942Y-120463609D01*
X169876768Y-120500055D01*
X169876770Y-120500056D01*
X170095385Y-120618364D01*
X170095396Y-120618369D01*
X170330506Y-120699083D01*
X170575707Y-120740000D01*
X170824293Y-120740000D01*
X171069493Y-120699083D01*
X171304603Y-120618369D01*
X171304614Y-120618364D01*
X171523228Y-120500057D01*
X171523231Y-120500055D01*
X171570056Y-120463609D01*
X170870234Y-119763787D01*
X170912292Y-119752518D01*
X171037708Y-119680110D01*
X171140110Y-119577708D01*
X171212518Y-119452292D01*
X171223787Y-119410235D01*
X171923434Y-120109882D01*
X172023731Y-119956369D01*
X172123587Y-119728717D01*
X172184612Y-119487738D01*
X172184614Y-119487729D01*
X172205141Y-119240005D01*
X172205141Y-119239994D01*
X172184614Y-118992270D01*
X172184612Y-118992261D01*
X172123587Y-118751282D01*
X172023731Y-118523630D01*
X171923434Y-118370116D01*
X171223787Y-119069764D01*
X171212518Y-119027708D01*
X171140110Y-118902292D01*
X171037708Y-118799890D01*
X170912292Y-118727482D01*
X170870235Y-118716212D01*
X171570057Y-118016390D01*
X171570056Y-118016389D01*
X171523229Y-117979943D01*
X171304614Y-117861635D01*
X171304603Y-117861630D01*
X171069493Y-117780916D01*
X170824293Y-117740000D01*
X170575707Y-117740000D01*
X170330506Y-117780916D01*
X170095396Y-117861630D01*
X170095390Y-117861632D01*
X169876761Y-117979949D01*
X169829942Y-118016388D01*
X169829942Y-118016390D01*
X170529765Y-118716212D01*
X170487708Y-118727482D01*
X170362292Y-118799890D01*
X170259890Y-118902292D01*
X170187482Y-119027708D01*
X170176212Y-119069764D01*
X169476564Y-118370116D01*
X169376267Y-118523632D01*
X169276412Y-118751282D01*
X169215387Y-118992261D01*
X169215385Y-118992270D01*
X169194859Y-119239994D01*
X160973132Y-119239994D01*
X161136317Y-119196269D01*
X161136331Y-119196264D01*
X161342478Y-119100136D01*
X161415471Y-119049024D01*
X160736447Y-118370000D01*
X160742661Y-118370000D01*
X160844394Y-118342741D01*
X160935606Y-118290080D01*
X161010080Y-118215606D01*
X161062741Y-118124394D01*
X161090000Y-118022661D01*
X161090000Y-118016447D01*
X161769024Y-118695471D01*
X161820136Y-118622478D01*
X161916264Y-118416331D01*
X161916269Y-118416317D01*
X161975139Y-118196610D01*
X161975141Y-118196599D01*
X161994966Y-117970002D01*
X161994966Y-117969997D01*
X161975141Y-117743400D01*
X161975139Y-117743389D01*
X161916269Y-117523682D01*
X161916265Y-117523673D01*
X161847827Y-117376905D01*
X161837335Y-117307827D01*
X161865855Y-117244043D01*
X161924331Y-117205804D01*
X161960209Y-117200500D01*
X164768308Y-117200500D01*
X164835347Y-117220185D01*
X164869880Y-117253374D01*
X164914618Y-117317267D01*
X164999954Y-117439141D01*
X165160858Y-117600045D01*
X165160861Y-117600047D01*
X165347266Y-117730568D01*
X165553504Y-117826739D01*
X165773308Y-117885635D01*
X165935230Y-117899801D01*
X165999998Y-117905468D01*
X166000000Y-117905468D01*
X166000002Y-117905468D01*
X166056673Y-117900509D01*
X166226692Y-117885635D01*
X166446496Y-117826739D01*
X166652734Y-117730568D01*
X166839139Y-117600047D01*
X167000047Y-117439139D01*
X167130568Y-117252734D01*
X167226739Y-117046496D01*
X167285635Y-116826692D01*
X167305468Y-116600000D01*
X167285635Y-116373308D01*
X167226739Y-116153504D01*
X167130568Y-115947266D01*
X167000047Y-115760861D01*
X167000045Y-115760858D01*
X166839141Y-115599954D01*
X166652734Y-115469432D01*
X166652732Y-115469431D01*
X166446497Y-115373261D01*
X166446488Y-115373258D01*
X166226697Y-115314366D01*
X166226693Y-115314365D01*
X166226692Y-115314365D01*
X166226691Y-115314364D01*
X166226686Y-115314364D01*
X166000002Y-115294532D01*
X165999998Y-115294532D01*
X165773313Y-115314364D01*
X165773302Y-115314366D01*
X165553511Y-115373258D01*
X165553502Y-115373261D01*
X165347267Y-115469431D01*
X165347265Y-115469432D01*
X165160858Y-115599954D01*
X164999954Y-115760858D01*
X164964577Y-115811383D01*
X164869881Y-115946624D01*
X164815307Y-115990248D01*
X164768308Y-115999500D01*
X156964863Y-115999500D01*
X156897824Y-115979815D01*
X156852069Y-115927011D01*
X156842125Y-115857853D01*
X156845088Y-115843407D01*
X156888872Y-115680000D01*
X156043012Y-115680000D01*
X156075925Y-115622993D01*
X156110000Y-115495826D01*
X156110000Y-115364174D01*
X156075925Y-115237007D01*
X156043012Y-115180000D01*
X156888872Y-115180000D01*
X156888872Y-115179999D01*
X156836269Y-114983682D01*
X156836265Y-114983673D01*
X156740134Y-114777517D01*
X156609657Y-114591179D01*
X156448820Y-114430342D01*
X156262482Y-114299865D01*
X156204133Y-114272657D01*
X156151694Y-114226484D01*
X156132542Y-114159291D01*
X156152758Y-114092410D01*
X156204129Y-114047895D01*
X156262734Y-114020568D01*
X156449139Y-113890047D01*
X156610047Y-113729139D01*
X156740118Y-113543375D01*
X156794693Y-113499752D01*
X156841692Y-113490500D01*
X156923331Y-113490500D01*
X156923347Y-113490501D01*
X156930943Y-113490501D01*
X157089054Y-113490501D01*
X157089057Y-113490501D01*
X157241785Y-113449577D01*
X157291904Y-113420639D01*
X157378716Y-113370520D01*
X157490520Y-113258716D01*
X157490520Y-113258714D01*
X157500728Y-113248507D01*
X157500730Y-113248504D01*
X158418535Y-112330698D01*
X158479856Y-112297215D01*
X158492311Y-112295163D01*
X158579255Y-112285368D01*
X158749522Y-112225789D01*
X158902262Y-112129816D01*
X159029816Y-112002262D01*
X159125789Y-111849522D01*
X159185368Y-111679255D01*
X159185369Y-111679249D01*
X159205565Y-111500003D01*
X159205565Y-111499996D01*
X159185369Y-111320750D01*
X159185368Y-111320745D01*
X159125788Y-111150475D01*
X159119503Y-111140473D01*
X159100502Y-111073236D01*
X159120869Y-111006401D01*
X159174137Y-110961186D01*
X159224496Y-110950500D01*
X159514323Y-110950500D01*
X159581362Y-110970185D01*
X159615898Y-111003377D01*
X159689954Y-111109141D01*
X159850858Y-111270045D01*
X159850861Y-111270047D01*
X160037266Y-111400568D01*
X160243504Y-111496739D01*
X160463308Y-111555635D01*
X160625230Y-111569801D01*
X160689998Y-111575468D01*
X160690000Y-111575468D01*
X160690002Y-111575468D01*
X160746673Y-111570509D01*
X160916692Y-111555635D01*
X161136496Y-111496739D01*
X161342734Y-111400568D01*
X161529139Y-111270047D01*
X161690047Y-111109139D01*
X161820118Y-110923375D01*
X161874693Y-110879752D01*
X161921692Y-110870500D01*
X164389787Y-110870500D01*
X164456826Y-110890185D01*
X164502581Y-110942989D01*
X164513315Y-111005307D01*
X164494532Y-111219998D01*
X164494532Y-111220001D01*
X164514364Y-111446686D01*
X164514366Y-111446697D01*
X164573258Y-111666488D01*
X164573261Y-111666497D01*
X164669431Y-111872732D01*
X164669432Y-111872734D01*
X164799954Y-112059141D01*
X164960858Y-112220045D01*
X164985454Y-112237267D01*
X165147266Y-112350568D01*
X165353504Y-112446739D01*
X165573308Y-112505635D01*
X165735230Y-112519801D01*
X165799998Y-112525468D01*
X165800000Y-112525468D01*
X165800002Y-112525468D01*
X165856673Y-112520509D01*
X166026692Y-112505635D01*
X166246496Y-112446739D01*
X166452734Y-112350568D01*
X166639139Y-112220047D01*
X166800047Y-112059139D01*
X166930118Y-111873375D01*
X166984693Y-111829752D01*
X167031692Y-111820500D01*
X169163331Y-111820500D01*
X169163347Y-111820501D01*
X169170943Y-111820501D01*
X169329054Y-111820501D01*
X169329057Y-111820501D01*
X169481785Y-111779577D01*
X169531904Y-111750639D01*
X169618716Y-111700520D01*
X169730520Y-111588716D01*
X169730520Y-111588714D01*
X169740728Y-111578507D01*
X169740730Y-111578504D01*
X170096452Y-111222781D01*
X170157773Y-111189298D01*
X170224392Y-111193182D01*
X170296350Y-111217886D01*
X170330385Y-111229571D01*
X170575665Y-111270500D01*
X170824335Y-111270500D01*
X171069614Y-111229571D01*
X171304810Y-111148828D01*
X171523509Y-111030474D01*
X171719744Y-110877738D01*
X171888164Y-110694785D01*
X172024173Y-110486607D01*
X172042560Y-110444689D01*
X172087517Y-110391204D01*
X172154253Y-110370514D01*
X172156116Y-110370500D01*
X175743884Y-110370500D01*
X175810923Y-110390185D01*
X175856678Y-110442989D01*
X175857440Y-110444689D01*
X175875827Y-110486608D01*
X176011833Y-110694782D01*
X176011836Y-110694785D01*
X176180256Y-110877738D01*
X176376491Y-111030474D01*
X176595190Y-111148828D01*
X176830386Y-111229571D01*
X177075665Y-111270500D01*
X177324335Y-111270500D01*
X177569614Y-111229571D01*
X177804810Y-111148828D01*
X178023509Y-111030474D01*
X178219744Y-110877738D01*
X178284272Y-110807641D01*
X178344157Y-110771653D01*
X178413995Y-110773753D01*
X178471611Y-110813277D01*
X178498713Y-110877676D01*
X178499500Y-110891626D01*
X178499500Y-118242689D01*
X178479815Y-118309728D01*
X178463181Y-118330370D01*
X177723787Y-119069764D01*
X177712518Y-119027708D01*
X177640110Y-118902292D01*
X177537708Y-118799890D01*
X177412292Y-118727482D01*
X177370235Y-118716212D01*
X178070057Y-118016390D01*
X178070056Y-118016389D01*
X178023229Y-117979943D01*
X177804614Y-117861635D01*
X177804603Y-117861630D01*
X177569493Y-117780916D01*
X177324293Y-117740000D01*
X177075707Y-117740000D01*
X176830506Y-117780916D01*
X176595396Y-117861630D01*
X176595390Y-117861632D01*
X176376761Y-117979949D01*
X176329942Y-118016388D01*
X176329942Y-118016390D01*
X177029765Y-118716212D01*
X176987708Y-118727482D01*
X176862292Y-118799890D01*
X176759890Y-118902292D01*
X176687482Y-119027708D01*
X176676212Y-119069764D01*
X175976564Y-118370116D01*
X175876267Y-118523632D01*
X175776412Y-118751282D01*
X175715387Y-118992261D01*
X175715385Y-118992270D01*
X175694859Y-119239994D01*
X175694859Y-119240005D01*
X175715385Y-119487729D01*
X175715387Y-119487738D01*
X175776412Y-119728717D01*
X175876266Y-119956364D01*
X175976564Y-120109882D01*
X176676212Y-119410234D01*
X176687482Y-119452292D01*
X176759890Y-119577708D01*
X176862292Y-119680110D01*
X176987708Y-119752518D01*
X177029765Y-119763787D01*
X176329942Y-120463609D01*
X176376768Y-120500055D01*
X176376770Y-120500056D01*
X176595385Y-120618364D01*
X176595396Y-120618369D01*
X176830506Y-120699083D01*
X177075707Y-120740000D01*
X177324293Y-120740000D01*
X177569493Y-120699083D01*
X177804603Y-120618369D01*
X177804614Y-120618364D01*
X178023228Y-120500057D01*
X178023231Y-120500055D01*
X178070056Y-120463609D01*
X177370234Y-119763787D01*
X177412292Y-119752518D01*
X177537708Y-119680110D01*
X177640110Y-119577708D01*
X177712518Y-119452292D01*
X177723787Y-119410235D01*
X178463181Y-120149629D01*
X178496666Y-120210952D01*
X178499500Y-120237310D01*
X178499500Y-122618373D01*
X178479815Y-122685412D01*
X178427011Y-122731167D01*
X178357853Y-122741111D01*
X178294297Y-122712086D01*
X178284271Y-122702356D01*
X178219747Y-122632265D01*
X178219744Y-122632262D01*
X178179946Y-122601286D01*
X178023509Y-122479526D01*
X178023507Y-122479525D01*
X178023506Y-122479524D01*
X177804811Y-122361172D01*
X177804802Y-122361169D01*
X177569616Y-122280429D01*
X177324335Y-122239500D01*
X177075665Y-122239500D01*
X176830383Y-122280429D01*
X176595197Y-122361169D01*
X176595188Y-122361172D01*
X176376493Y-122479524D01*
X176180257Y-122632261D01*
X176011833Y-122815217D01*
X175875827Y-123023391D01*
X175857440Y-123065311D01*
X175812483Y-123118796D01*
X175745747Y-123139486D01*
X175743884Y-123139500D01*
X172156116Y-123139500D01*
X172089077Y-123119815D01*
X172043322Y-123067011D01*
X172042560Y-123065311D01*
X172024172Y-123023391D01*
X171888166Y-122815217D01*
X171866557Y-122791744D01*
X171719744Y-122632262D01*
X171523509Y-122479526D01*
X171523507Y-122479525D01*
X171523506Y-122479524D01*
X171304811Y-122361172D01*
X171304802Y-122361169D01*
X171069616Y-122280429D01*
X170824335Y-122239500D01*
X170575665Y-122239500D01*
X170330383Y-122280429D01*
X170095197Y-122361169D01*
X170095188Y-122361172D01*
X169876493Y-122479524D01*
X169680257Y-122632261D01*
X169511833Y-122815217D01*
X169375826Y-123023393D01*
X169275936Y-123251118D01*
X169214892Y-123492175D01*
X169214892Y-123492176D01*
X169214892Y-123492179D01*
X169213768Y-123505739D01*
X169188616Y-123570924D01*
X169132214Y-123612162D01*
X169090192Y-123619500D01*
X167231692Y-123619500D01*
X167164653Y-123599815D01*
X167130119Y-123566625D01*
X167000047Y-123380861D01*
X167000045Y-123380858D01*
X166839141Y-123219954D01*
X166652734Y-123089432D01*
X166652732Y-123089431D01*
X166446497Y-122993261D01*
X166446488Y-122993258D01*
X166226697Y-122934366D01*
X166226693Y-122934365D01*
X166226692Y-122934365D01*
X166226691Y-122934364D01*
X166226686Y-122934364D01*
X166000002Y-122914532D01*
X165999998Y-122914532D01*
X165773313Y-122934364D01*
X165773302Y-122934366D01*
X165677067Y-122960152D01*
X165607217Y-122958489D01*
X165557293Y-122928058D01*
X165237590Y-122608355D01*
X165237588Y-122608352D01*
X165118717Y-122489481D01*
X165118716Y-122489480D01*
X165031904Y-122439360D01*
X165031904Y-122439359D01*
X165031900Y-122439358D01*
X164981785Y-122410423D01*
X164829057Y-122369499D01*
X164670943Y-122369499D01*
X164663347Y-122369499D01*
X164663331Y-122369500D01*
X161921692Y-122369500D01*
X161854653Y-122349815D01*
X161820119Y-122316625D01*
X161690047Y-122130861D01*
X161690045Y-122130858D01*
X161529141Y-121969954D01*
X161342734Y-121839432D01*
X161342732Y-121839431D01*
X161136497Y-121743261D01*
X161136488Y-121743258D01*
X160916697Y-121684366D01*
X160916693Y-121684365D01*
X160916692Y-121684365D01*
X160916691Y-121684364D01*
X160916686Y-121684364D01*
X160690002Y-121664532D01*
X160689998Y-121664532D01*
X160463313Y-121684364D01*
X160463302Y-121684366D01*
X160243511Y-121743258D01*
X160243502Y-121743261D01*
X160037267Y-121839431D01*
X160037265Y-121839432D01*
X159850858Y-121969954D01*
X159689954Y-122130858D01*
X159559432Y-122317265D01*
X159559431Y-122317267D01*
X159463261Y-122523502D01*
X159463258Y-122523511D01*
X159404366Y-122743302D01*
X159404364Y-122743313D01*
X159384532Y-122969998D01*
X159384532Y-122970001D01*
X159404364Y-123196686D01*
X159404366Y-123196697D01*
X159463258Y-123416488D01*
X159463261Y-123416497D01*
X159559431Y-123622732D01*
X159559432Y-123622734D01*
X159689954Y-123809141D01*
X159850858Y-123970045D01*
X159850861Y-123970047D01*
X160037266Y-124100568D01*
X160243504Y-124196739D01*
X160463308Y-124255635D01*
X160625230Y-124269801D01*
X160689998Y-124275468D01*
X160690000Y-124275468D01*
X160690002Y-124275468D01*
X160746673Y-124270509D01*
X160916692Y-124255635D01*
X161136496Y-124196739D01*
X161342734Y-124100568D01*
X161529139Y-123970047D01*
X161690047Y-123809139D01*
X161820118Y-123623375D01*
X161874693Y-123579752D01*
X161921692Y-123570500D01*
X164449903Y-123570500D01*
X164516942Y-123590185D01*
X164537584Y-123606819D01*
X164708058Y-123777293D01*
X164741543Y-123838616D01*
X164740152Y-123897067D01*
X164714366Y-123993302D01*
X164714364Y-123993313D01*
X164694532Y-124219998D01*
X164694532Y-124220001D01*
X164714364Y-124446686D01*
X164714366Y-124446697D01*
X164773258Y-124666488D01*
X164773261Y-124666497D01*
X164869431Y-124872732D01*
X164869432Y-124872734D01*
X164999954Y-125059141D01*
X165160858Y-125220045D01*
X165160861Y-125220047D01*
X165347266Y-125350568D01*
X165553504Y-125446739D01*
X165773308Y-125505635D01*
X165935230Y-125519801D01*
X165999998Y-125525468D01*
X166000000Y-125525468D01*
X166000002Y-125525468D01*
X166056673Y-125520509D01*
X166226692Y-125505635D01*
X166446496Y-125446739D01*
X166652734Y-125350568D01*
X166839139Y-125220047D01*
X167000047Y-125059139D01*
X167130118Y-124873375D01*
X167184693Y-124829752D01*
X167231692Y-124820500D01*
X169602691Y-124820500D01*
X169669730Y-124840185D01*
X169678853Y-124846646D01*
X169680255Y-124847737D01*
X169680256Y-124847738D01*
X169876491Y-125000474D01*
X170095190Y-125118828D01*
X170330386Y-125199571D01*
X170575665Y-125240500D01*
X170824335Y-125240500D01*
X171069614Y-125199571D01*
X171304810Y-125118828D01*
X171523509Y-125000474D01*
X171719744Y-124847738D01*
X171888164Y-124664785D01*
X172024173Y-124456607D01*
X172042560Y-124414689D01*
X172087517Y-124361204D01*
X172154253Y-124340514D01*
X172156116Y-124340500D01*
X175743884Y-124340500D01*
X175810923Y-124360185D01*
X175856678Y-124412989D01*
X175857440Y-124414689D01*
X175875827Y-124456608D01*
X176011833Y-124664782D01*
X176013411Y-124666496D01*
X176180256Y-124847738D01*
X176376491Y-125000474D01*
X176595190Y-125118828D01*
X176830386Y-125199571D01*
X177075665Y-125240500D01*
X177324335Y-125240500D01*
X177569614Y-125199571D01*
X177804810Y-125118828D01*
X178023509Y-125000474D01*
X178219744Y-124847738D01*
X178284272Y-124777641D01*
X178344157Y-124741653D01*
X178413995Y-124743753D01*
X178471611Y-124783277D01*
X178498713Y-124847676D01*
X178499500Y-124861626D01*
X178499500Y-127375500D01*
X178479815Y-127442539D01*
X178427011Y-127488294D01*
X178375500Y-127499500D01*
X107624500Y-127499500D01*
X107557461Y-127479815D01*
X107511706Y-127427011D01*
X107500500Y-127375500D01*
X107500500Y-82870155D01*
X116248000Y-82870155D01*
X116248000Y-83430000D01*
X117221184Y-83430000D01*
X117205124Y-83446060D01*
X117154964Y-83532939D01*
X117129000Y-83629840D01*
X117129000Y-83730160D01*
X117154964Y-83827061D01*
X117205124Y-83913940D01*
X117221184Y-83930000D01*
X116248000Y-83930000D01*
X116248000Y-84489844D01*
X116254401Y-84549372D01*
X116254403Y-84549379D01*
X116304645Y-84684086D01*
X116304649Y-84684093D01*
X116390809Y-84799187D01*
X116390812Y-84799190D01*
X116505906Y-84885350D01*
X116505913Y-84885354D01*
X116640620Y-84935596D01*
X116640627Y-84935598D01*
X116700155Y-84941999D01*
X116700172Y-84942000D01*
X117260000Y-84942000D01*
X117260000Y-83968816D01*
X117276060Y-83984876D01*
X117362939Y-84035036D01*
X117459840Y-84061000D01*
X117560160Y-84061000D01*
X117657061Y-84035036D01*
X117743940Y-83984876D01*
X117760000Y-83968816D01*
X117760000Y-84942000D01*
X118319828Y-84942000D01*
X118319844Y-84941999D01*
X118379372Y-84935598D01*
X118379379Y-84935596D01*
X118514086Y-84885354D01*
X118514093Y-84885350D01*
X118629187Y-84799190D01*
X118629190Y-84799187D01*
X118715350Y-84684093D01*
X118715354Y-84684086D01*
X118765596Y-84549379D01*
X118765598Y-84549372D01*
X118771999Y-84489844D01*
X118772000Y-84489827D01*
X118772000Y-84449207D01*
X118791685Y-84382168D01*
X118844489Y-84336413D01*
X118913647Y-84326469D01*
X118977203Y-84355494D01*
X118997573Y-84378082D01*
X119006215Y-84390423D01*
X119079170Y-84494615D01*
X119079175Y-84494621D01*
X119235378Y-84650824D01*
X119235384Y-84650829D01*
X119416333Y-84777531D01*
X119416335Y-84777532D01*
X119416338Y-84777534D01*
X119616550Y-84870894D01*
X119829932Y-84928070D01*
X119974937Y-84940756D01*
X120049998Y-84947323D01*
X120050000Y-84947323D01*
X120050002Y-84947323D01*
X120105017Y-84942509D01*
X120270068Y-84928070D01*
X120483450Y-84870894D01*
X120683662Y-84777534D01*
X120864620Y-84650826D01*
X121020826Y-84494620D01*
X121147534Y-84313662D01*
X121207618Y-84184811D01*
X121253790Y-84132371D01*
X121320983Y-84113219D01*
X121387865Y-84133435D01*
X121432382Y-84184811D01*
X121492464Y-84313658D01*
X121492468Y-84313666D01*
X121619170Y-84494615D01*
X121619175Y-84494621D01*
X121775378Y-84650824D01*
X121775384Y-84650829D01*
X121956333Y-84777531D01*
X121956335Y-84777532D01*
X121956338Y-84777534D01*
X122156550Y-84870894D01*
X122369932Y-84928070D01*
X122514937Y-84940756D01*
X122589998Y-84947323D01*
X122590000Y-84947323D01*
X122590002Y-84947323D01*
X122645017Y-84942509D01*
X122810068Y-84928070D01*
X123023450Y-84870894D01*
X123223662Y-84777534D01*
X123404620Y-84650826D01*
X123560826Y-84494620D01*
X123687534Y-84313662D01*
X123747618Y-84184811D01*
X123793790Y-84132371D01*
X123860983Y-84113219D01*
X123927865Y-84133435D01*
X123972382Y-84184811D01*
X124032464Y-84313658D01*
X124032468Y-84313666D01*
X124159170Y-84494615D01*
X124159175Y-84494621D01*
X124315378Y-84650824D01*
X124315384Y-84650829D01*
X124496333Y-84777531D01*
X124496335Y-84777532D01*
X124496338Y-84777534D01*
X124696550Y-84870894D01*
X124909932Y-84928070D01*
X125054937Y-84940756D01*
X125129998Y-84947323D01*
X125130000Y-84947323D01*
X125130002Y-84947323D01*
X125185017Y-84942509D01*
X125350068Y-84928070D01*
X125563450Y-84870894D01*
X125763662Y-84777534D01*
X125944620Y-84650826D01*
X126100826Y-84494620D01*
X126227534Y-84313662D01*
X126320894Y-84113450D01*
X126378070Y-83900068D01*
X126397323Y-83680000D01*
X126393622Y-83637702D01*
X126378070Y-83459937D01*
X126378070Y-83459932D01*
X126320894Y-83246550D01*
X126227534Y-83046339D01*
X126132624Y-82910793D01*
X126100827Y-82865381D01*
X126046066Y-82810620D01*
X125944620Y-82709174D01*
X125944616Y-82709171D01*
X125944615Y-82709170D01*
X125763666Y-82582468D01*
X125763662Y-82582466D01*
X125763660Y-82582465D01*
X125563450Y-82489106D01*
X125563447Y-82489105D01*
X125563445Y-82489104D01*
X125350070Y-82431930D01*
X125350062Y-82431929D01*
X125130002Y-82412677D01*
X125129998Y-82412677D01*
X124909937Y-82431929D01*
X124909929Y-82431930D01*
X124696554Y-82489104D01*
X124696548Y-82489107D01*
X124496340Y-82582465D01*
X124496338Y-82582466D01*
X124315377Y-82709175D01*
X124159175Y-82865377D01*
X124032466Y-83046338D01*
X124032465Y-83046340D01*
X123972382Y-83175189D01*
X123926209Y-83227628D01*
X123859016Y-83246780D01*
X123792135Y-83226564D01*
X123747618Y-83175189D01*
X123687534Y-83046340D01*
X123687533Y-83046338D01*
X123560827Y-82865381D01*
X123506066Y-82810620D01*
X123404620Y-82709174D01*
X123404616Y-82709171D01*
X123404615Y-82709170D01*
X123223666Y-82582468D01*
X123223662Y-82582466D01*
X123223660Y-82582465D01*
X123023450Y-82489106D01*
X123023447Y-82489105D01*
X123023445Y-82489104D01*
X122810070Y-82431930D01*
X122810062Y-82431929D01*
X122590002Y-82412677D01*
X122589998Y-82412677D01*
X122369937Y-82431929D01*
X122369929Y-82431930D01*
X122156554Y-82489104D01*
X122156548Y-82489107D01*
X121956340Y-82582465D01*
X121956338Y-82582466D01*
X121775377Y-82709175D01*
X121619175Y-82865377D01*
X121492466Y-83046338D01*
X121492465Y-83046340D01*
X121432382Y-83175189D01*
X121386209Y-83227628D01*
X121319016Y-83246780D01*
X121252135Y-83226564D01*
X121207618Y-83175189D01*
X121147534Y-83046340D01*
X121147533Y-83046338D01*
X121020827Y-82865381D01*
X120966066Y-82810620D01*
X120864620Y-82709174D01*
X120864616Y-82709171D01*
X120864615Y-82709170D01*
X120683666Y-82582468D01*
X120683662Y-82582466D01*
X120683660Y-82582465D01*
X120483450Y-82489106D01*
X120483447Y-82489105D01*
X120483445Y-82489104D01*
X120270070Y-82431930D01*
X120270062Y-82431929D01*
X120050002Y-82412677D01*
X120049998Y-82412677D01*
X119829937Y-82431929D01*
X119829929Y-82431930D01*
X119616554Y-82489104D01*
X119616548Y-82489107D01*
X119416340Y-82582465D01*
X119416338Y-82582466D01*
X119235377Y-82709175D01*
X119079175Y-82865377D01*
X118997575Y-82981916D01*
X118942998Y-83025541D01*
X118873500Y-83032735D01*
X118811145Y-83001212D01*
X118775731Y-82940983D01*
X118772000Y-82910793D01*
X118772000Y-82870172D01*
X118771999Y-82870155D01*
X118765598Y-82810627D01*
X118765596Y-82810620D01*
X118715354Y-82675913D01*
X118715350Y-82675906D01*
X118629190Y-82560812D01*
X118629187Y-82560809D01*
X118514093Y-82474649D01*
X118514086Y-82474645D01*
X118379379Y-82424403D01*
X118379372Y-82424401D01*
X118319844Y-82418000D01*
X117760000Y-82418000D01*
X117760000Y-83391184D01*
X117743940Y-83375124D01*
X117657061Y-83324964D01*
X117560160Y-83299000D01*
X117459840Y-83299000D01*
X117362939Y-83324964D01*
X117276060Y-83375124D01*
X117260000Y-83391184D01*
X117260000Y-82418000D01*
X116700155Y-82418000D01*
X116640627Y-82424401D01*
X116640620Y-82424403D01*
X116505913Y-82474645D01*
X116505906Y-82474649D01*
X116390812Y-82560809D01*
X116390809Y-82560812D01*
X116304649Y-82675906D01*
X116304645Y-82675913D01*
X116254403Y-82810620D01*
X116254401Y-82810627D01*
X116248000Y-82870155D01*
X107500500Y-82870155D01*
X107500500Y-80624500D01*
X107520185Y-80557461D01*
X107572989Y-80511706D01*
X107624500Y-80500500D01*
X178375500Y-80500500D01*
X178442539Y-80520185D01*
G37*
G04 #@! TD.AperFunction*
G04 #@! TA.AperFunction,Conductor*
G36*
X139205347Y-108430185D02*
G01*
X139239880Y-108463374D01*
X139325480Y-108585624D01*
X139369954Y-108649141D01*
X139530858Y-108810045D01*
X139530861Y-108810047D01*
X139717266Y-108940568D01*
X139768657Y-108964532D01*
X139775275Y-108967618D01*
X139827714Y-109013791D01*
X139846866Y-109080984D01*
X139826650Y-109147865D01*
X139775275Y-109192382D01*
X139717267Y-109219431D01*
X139717265Y-109219432D01*
X139530858Y-109349954D01*
X139369954Y-109510858D01*
X139239432Y-109697265D01*
X139239431Y-109697267D01*
X139143261Y-109903502D01*
X139143258Y-109903511D01*
X139084366Y-110123302D01*
X139084364Y-110123313D01*
X139064532Y-110349998D01*
X139064532Y-110350001D01*
X139084364Y-110576686D01*
X139084366Y-110576697D01*
X139143258Y-110796488D01*
X139143261Y-110796497D01*
X139239431Y-111002732D01*
X139239432Y-111002734D01*
X139369954Y-111189141D01*
X139530858Y-111350045D01*
X139530861Y-111350047D01*
X139717266Y-111480568D01*
X139775275Y-111507618D01*
X139827714Y-111553791D01*
X139846866Y-111620984D01*
X139826650Y-111687865D01*
X139775275Y-111732382D01*
X139717267Y-111759431D01*
X139717265Y-111759432D01*
X139530858Y-111889954D01*
X139369954Y-112050858D01*
X139239432Y-112237265D01*
X139239431Y-112237267D01*
X139143261Y-112443502D01*
X139143258Y-112443511D01*
X139084366Y-112663302D01*
X139084364Y-112663313D01*
X139064532Y-112889998D01*
X139064532Y-112890001D01*
X139084364Y-113116686D01*
X139084366Y-113116697D01*
X139134395Y-113303407D01*
X139132732Y-113373256D01*
X139093569Y-113431119D01*
X139029341Y-113458623D01*
X139014620Y-113459500D01*
X121165284Y-113459500D01*
X121098245Y-113439815D01*
X121063709Y-113406623D01*
X121020827Y-113345381D01*
X120965962Y-113290516D01*
X120864620Y-113189174D01*
X120864616Y-113189171D01*
X120864615Y-113189170D01*
X120683666Y-113062468D01*
X120683662Y-113062466D01*
X120636457Y-113040454D01*
X120483450Y-112969106D01*
X120483447Y-112969105D01*
X120483445Y-112969104D01*
X120270070Y-112911930D01*
X120270062Y-112911929D01*
X120050002Y-112892677D01*
X120049998Y-112892677D01*
X119829937Y-112911929D01*
X119829929Y-112911930D01*
X119616554Y-112969104D01*
X119616548Y-112969107D01*
X119416340Y-113062465D01*
X119416338Y-113062466D01*
X119235377Y-113189175D01*
X119079175Y-113345377D01*
X118952467Y-113526337D01*
X118892105Y-113655782D01*
X118845932Y-113708221D01*
X118778738Y-113727372D01*
X118711857Y-113707156D01*
X118667341Y-113655780D01*
X118607098Y-113526589D01*
X118607097Y-113526587D01*
X118561741Y-113461811D01*
X118561740Y-113461810D01*
X117891000Y-114132551D01*
X117891000Y-114109840D01*
X117865036Y-114012939D01*
X117814876Y-113926060D01*
X117743940Y-113855124D01*
X117657061Y-113804964D01*
X117560160Y-113779000D01*
X117537448Y-113779000D01*
X118208188Y-113108259D01*
X118208187Y-113108258D01*
X118143411Y-113062901D01*
X118143405Y-113062898D01*
X117943284Y-112969580D01*
X117943270Y-112969575D01*
X117729986Y-112912426D01*
X117729976Y-112912424D01*
X117510001Y-112893179D01*
X117509999Y-112893179D01*
X117290023Y-112912424D01*
X117290013Y-112912426D01*
X117076729Y-112969575D01*
X117076720Y-112969579D01*
X116876590Y-113062901D01*
X116811811Y-113108258D01*
X117482553Y-113779000D01*
X117459840Y-113779000D01*
X117362939Y-113804964D01*
X117276060Y-113855124D01*
X117205124Y-113926060D01*
X117154964Y-114012939D01*
X117129000Y-114109840D01*
X117129000Y-114132553D01*
X116458258Y-113461811D01*
X116412901Y-113526590D01*
X116352658Y-113655781D01*
X116306485Y-113708220D01*
X116239292Y-113727372D01*
X116172411Y-113707156D01*
X116127894Y-113655781D01*
X116067651Y-113526590D01*
X116067534Y-113526339D01*
X115958429Y-113370520D01*
X115940827Y-113345381D01*
X115885962Y-113290516D01*
X115784620Y-113189174D01*
X115784616Y-113189171D01*
X115784615Y-113189170D01*
X115623377Y-113076270D01*
X115579752Y-113021693D01*
X115570500Y-112974695D01*
X115570500Y-112630097D01*
X115590185Y-112563058D01*
X115606819Y-112542416D01*
X119612416Y-108536819D01*
X119673739Y-108503334D01*
X119700097Y-108500500D01*
X121817588Y-108500500D01*
X121884627Y-108520185D01*
X121894903Y-108527555D01*
X121897736Y-108529814D01*
X121897738Y-108529816D01*
X122050478Y-108625789D01*
X122220745Y-108685368D01*
X122220750Y-108685369D01*
X122399996Y-108705565D01*
X122400000Y-108705565D01*
X122400004Y-108705565D01*
X122579249Y-108685369D01*
X122579252Y-108685368D01*
X122579255Y-108685368D01*
X122749522Y-108625789D01*
X122902262Y-108529816D01*
X122985259Y-108446819D01*
X123046582Y-108413334D01*
X123072940Y-108410500D01*
X139138308Y-108410500D01*
X139205347Y-108430185D01*
G37*
G04 #@! TD.AperFunction*
M02*
