%TF.GenerationSoftware,KiCad,Pcbnew,8.0.6*%
%TF.CreationDate,2026-09-01T23:35:02+08:00*%
%TF.ProjectId,learning,6c656172-6e69-46e6-972e-6b696361645f,rev?*%
%TF.SameCoordinates,Original*%
%TF.FileFunction,Drillmap*%
%TF.FilePolarity,Positive*%
%FSLAX45Y45*%
G04 Gerber Fmt 4.5, Leading zero omitted, Abs format (unit mm)*
G04 Created by KiCad (PCBNEW 8.0.6) date 2026-09-01 23:35:02*
%MOMM*%
%LPD*%
G01*
G04 APERTURE LIST*
%ADD10C,0.038100*%
%ADD11C,0.200000*%
G04 APERTURE END LIST*
D10*
X10700000Y-8000000D02*
X10700000Y-8100000D01*
X17900000Y-8000000D02*
X10700000Y-8000000D01*
X17900000Y-12800000D02*
X17900000Y-8000000D01*
X10700000Y-12800000D02*
X17900000Y-12800000D01*
X10700000Y-8100000D02*
X10700000Y-12800000D01*
D11*
X10958872Y-13113389D02*
X10958872Y-12913389D01*
X10958872Y-12913389D02*
X11006491Y-12913389D01*
X11006491Y-12913389D02*
X11035062Y-12922913D01*
X11035062Y-12922913D02*
X11054110Y-12941960D01*
X11054110Y-12941960D02*
X11063634Y-12961008D01*
X11063634Y-12961008D02*
X11073158Y-12999103D01*
X11073158Y-12999103D02*
X11073158Y-13027674D01*
X11073158Y-13027674D02*
X11063634Y-13065770D01*
X11063634Y-13065770D02*
X11054110Y-13084817D01*
X11054110Y-13084817D02*
X11035062Y-13103865D01*
X11035062Y-13103865D02*
X11006491Y-13113389D01*
X11006491Y-13113389D02*
X10958872Y-13113389D01*
X11158872Y-13113389D02*
X11158872Y-12980055D01*
X11158872Y-13018151D02*
X11168396Y-12999103D01*
X11168396Y-12999103D02*
X11177919Y-12989579D01*
X11177919Y-12989579D02*
X11196967Y-12980055D01*
X11196967Y-12980055D02*
X11216015Y-12980055D01*
X11282681Y-13113389D02*
X11282681Y-12980055D01*
X11282681Y-12913389D02*
X11273157Y-12922913D01*
X11273157Y-12922913D02*
X11282681Y-12932436D01*
X11282681Y-12932436D02*
X11292205Y-12922913D01*
X11292205Y-12922913D02*
X11282681Y-12913389D01*
X11282681Y-12913389D02*
X11282681Y-12932436D01*
X11406491Y-13113389D02*
X11387443Y-13103865D01*
X11387443Y-13103865D02*
X11377919Y-13084817D01*
X11377919Y-13084817D02*
X11377919Y-12913389D01*
X11511253Y-13113389D02*
X11492205Y-13103865D01*
X11492205Y-13103865D02*
X11482681Y-13084817D01*
X11482681Y-13084817D02*
X11482681Y-12913389D01*
X11739824Y-13113389D02*
X11739824Y-12913389D01*
X11739824Y-12913389D02*
X11806491Y-13056246D01*
X11806491Y-13056246D02*
X11873157Y-12913389D01*
X11873157Y-12913389D02*
X11873157Y-13113389D01*
X12054110Y-13113389D02*
X12054110Y-13008627D01*
X12054110Y-13008627D02*
X12044586Y-12989579D01*
X12044586Y-12989579D02*
X12025538Y-12980055D01*
X12025538Y-12980055D02*
X11987443Y-12980055D01*
X11987443Y-12980055D02*
X11968396Y-12989579D01*
X12054110Y-13103865D02*
X12035062Y-13113389D01*
X12035062Y-13113389D02*
X11987443Y-13113389D01*
X11987443Y-13113389D02*
X11968396Y-13103865D01*
X11968396Y-13103865D02*
X11958872Y-13084817D01*
X11958872Y-13084817D02*
X11958872Y-13065770D01*
X11958872Y-13065770D02*
X11968396Y-13046722D01*
X11968396Y-13046722D02*
X11987443Y-13037198D01*
X11987443Y-13037198D02*
X12035062Y-13037198D01*
X12035062Y-13037198D02*
X12054110Y-13027674D01*
X12149348Y-12980055D02*
X12149348Y-13180055D01*
X12149348Y-12989579D02*
X12168396Y-12980055D01*
X12168396Y-12980055D02*
X12206491Y-12980055D01*
X12206491Y-12980055D02*
X12225538Y-12989579D01*
X12225538Y-12989579D02*
X12235062Y-12999103D01*
X12235062Y-12999103D02*
X12244586Y-13018151D01*
X12244586Y-13018151D02*
X12244586Y-13075293D01*
X12244586Y-13075293D02*
X12235062Y-13094341D01*
X12235062Y-13094341D02*
X12225538Y-13103865D01*
X12225538Y-13103865D02*
X12206491Y-13113389D01*
X12206491Y-13113389D02*
X12168396Y-13113389D01*
X12168396Y-13113389D02*
X12149348Y-13103865D01*
X12330300Y-13094341D02*
X12339824Y-13103865D01*
X12339824Y-13103865D02*
X12330300Y-13113389D01*
X12330300Y-13113389D02*
X12320777Y-13103865D01*
X12320777Y-13103865D02*
X12330300Y-13094341D01*
X12330300Y-13094341D02*
X12330300Y-13113389D01*
X12330300Y-12989579D02*
X12339824Y-12999103D01*
X12339824Y-12999103D02*
X12330300Y-13008627D01*
X12330300Y-13008627D02*
X12320777Y-12999103D01*
X12320777Y-12999103D02*
X12330300Y-12989579D01*
X12330300Y-12989579D02*
X12330300Y-13008627D01*
M02*
