M48
; DRILL file {KiCad 8.0.6} date 2026-09-01T23:35:03+0800
; FORMAT={-:-/ absolute / metric / decimal}
; #@! TF.CreationDate,2026-09-01T23:35:03+08:00
; #@! TF.GenerationSoftware,Kicad,Pcbnew,8.0.6
; #@! TF.FileFunction,Plated,1,4,PTH
FMAT,2
METRIC
; #@! TA.AperFunction,Plated,PTH,ViaDrill
T1C0.300
; #@! TA.AperFunction,Plated,PTH,ComponentDrill
T2C0.762
; #@! TA.AperFunction,Plated,PTH,ComponentDrill
T3C0.800
; #@! TA.AperFunction,Plated,PTH,ComponentDrill
T4C0.900
; #@! TA.AperFunction,Plated,PTH,ComponentDrill
T5C1.000
; #@! TA.AperFunction,Plated,PTH,ComponentDrill
T6C1.100
%
G90
G05
T1
X122.4Y-107.9
X126.1Y-105.2
X157.873Y-108.1
X158.4Y-111.5
T2
X109.89Y-114.16
X112.43Y-114.16
X114.97Y-114.16
X117.51Y-83.68
X117.51Y-114.16
X120.05Y-83.68
X120.05Y-114.16
X122.59Y-83.68
X125.13Y-83.68
T3
X159.42Y-84.95
X160.69Y-105.27
X160.69Y-110.27
X160.69Y-117.97
X160.69Y-122.97
X160.77Y-92.57
X160.77Y-97.57
X165.8Y-103.6
X165.8Y-111.22
X165.9Y-91.1
X165.9Y-98.72
X166.0Y-116.6
X166.0Y-124.22
X167.04Y-84.95
T4
X171.7Y-85.0
X174.24Y-85.0
T5
X140.37Y-87.49
X140.37Y-90.03
X140.37Y-92.57
X140.37Y-95.11
X140.37Y-97.65
X140.37Y-100.19
X140.37Y-102.73
X140.37Y-105.27
X140.37Y-107.81
X140.37Y-110.35
X140.37Y-112.89
X140.37Y-115.43
X140.37Y-117.97
X140.37Y-120.51
X140.37Y-123.05
X155.61Y-87.49
X155.61Y-90.03
X155.61Y-92.57
X155.61Y-95.11
X155.61Y-97.65
X155.61Y-100.19
X155.61Y-102.73
X155.61Y-105.27
X155.61Y-107.81
X155.61Y-110.35
X155.61Y-112.89
X155.61Y-115.43
X155.61Y-117.97
X155.61Y-120.51
X155.61Y-123.05
T6
X170.7Y-93.84
X170.7Y-98.34
X170.7Y-105.27
X170.7Y-109.77
X170.7Y-119.24
X170.7Y-123.74
X177.2Y-93.84
X177.2Y-98.34
X177.2Y-105.27
X177.2Y-109.77
X177.2Y-119.24
X177.2Y-123.74
M30
