G04 #@! TF.GenerationSoftware,KiCad,Pcbnew,8.0.6*
G04 #@! TF.CreationDate,2026-09-01T23:35:07+08:00*
G04 #@! TF.ProjectId,learning,6c656172-6e69-46e6-972e-6b696361645f,rev?*
G04 #@! TF.SameCoordinates,Original*
G04 #@! TF.FileFunction,Copper,L2,Inr*
G04 #@! TF.FilePolarity,Positive*
%FSLAX46Y46*%
G04 Gerber Fmt 4.6, Leading zero omitted, Abs format (unit mm)*
G04 Created by KiCad (PCBNEW 8.0.6) date 2026-09-01 23:35:07*
%MOMM*%
%LPD*%
G01*
G04 APERTURE LIST*
G04 #@! TA.AperFunction,ComponentPad*
%ADD10R,1.524000X1.524000*%
G04 #@! TD*
G04 #@! TA.AperFunction,ComponentPad*
%ADD11C,1.524000*%
G04 #@! TD*
G04 #@! TA.AperFunction,ComponentPad*
%ADD12C,2.000000*%
G04 #@! TD*
G04 #@! TA.AperFunction,ComponentPad*
%ADD13C,1.600000*%
G04 #@! TD*
G04 #@! TA.AperFunction,ComponentPad*
%ADD14O,1.600000X1.600000*%
G04 #@! TD*
G04 #@! TA.AperFunction,ComponentPad*
%ADD15R,1.800000X1.800000*%
G04 #@! TD*
G04 #@! TA.AperFunction,ComponentPad*
%ADD16C,1.800000*%
G04 #@! TD*
G04 #@! TA.AperFunction,ComponentPad*
%ADD17R,1.600000X1.600000*%
G04 #@! TD*
G04 #@! TA.AperFunction,ViaPad*
%ADD18C,0.600000*%
G04 #@! TD*
G04 APERTURE END LIST*
D10*
X117510000Y-83680000D03*
D11*
X120050000Y-83680000D03*
X122590000Y-83680000D03*
X125130000Y-83680000D03*
X120050000Y-114160000D03*
X117510000Y-114160000D03*
X114970000Y-114160000D03*
X112430000Y-114160000D03*
D10*
X109890000Y-114160000D03*
D12*
X177200000Y-123740000D03*
X170700000Y-123740000D03*
X177200000Y-119240000D03*
X170700000Y-119240000D03*
X177200000Y-109770000D03*
X170700000Y-109770000D03*
X177200000Y-105270000D03*
X170700000Y-105270000D03*
X177200000Y-98340000D03*
X170700000Y-98340000D03*
X177200000Y-93840000D03*
X170700000Y-93840000D03*
D13*
X159420000Y-84950000D03*
D14*
X167040000Y-84950000D03*
D13*
X166000000Y-116600000D03*
D14*
X166000000Y-124220000D03*
D13*
X165800000Y-103600000D03*
D14*
X165800000Y-111220000D03*
D13*
X165900000Y-91100000D03*
D14*
X165900000Y-98720000D03*
D15*
X174240000Y-85000000D03*
D16*
X171700000Y-85000000D03*
D13*
X160690000Y-122970000D03*
X160690000Y-117970000D03*
X160690000Y-110270000D03*
X160690000Y-105270000D03*
X160770000Y-97570000D03*
X160770000Y-92570000D03*
D17*
X155610000Y-123050000D03*
D14*
X155610000Y-120510000D03*
X155610000Y-117970000D03*
X155610000Y-115430000D03*
X155610000Y-112890000D03*
X155610000Y-110350000D03*
X155610000Y-107810000D03*
X155610000Y-105270000D03*
X155610000Y-102730000D03*
X155610000Y-100190000D03*
X155610000Y-97650000D03*
X155610000Y-95110000D03*
X155610000Y-92570000D03*
X155610000Y-90030000D03*
X155610000Y-87490000D03*
X140370000Y-87490000D03*
X140370000Y-90030000D03*
X140370000Y-92570000D03*
X140370000Y-95110000D03*
X140370000Y-97650000D03*
X140370000Y-100190000D03*
X140370000Y-102730000D03*
X140370000Y-105270000D03*
X140370000Y-107810000D03*
X140370000Y-110350000D03*
X140370000Y-112890000D03*
X140370000Y-115430000D03*
X140370000Y-117970000D03*
X140370000Y-120510000D03*
X140370000Y-123050000D03*
D18*
X122400000Y-107900000D03*
X126100000Y-105200000D03*
X157873000Y-108100000D03*
X158400000Y-111500000D03*
M02*
