%TF.GenerationSoftware,KiCad,Pcbnew,8.0.6*%
%TF.CreationDate,2026-09-07T02:57:58+08:00*%
%TF.ProjectId,SMD_test,534d445f-7465-4737-942e-6b696361645f,rev?*%
%TF.SameCoordinates,Original*%
%TF.FileFunction,Legend,Bot*%
%TF.FilePolarity,Positive*%
%FSLAX46Y46*%
G04 Gerber Fmt 4.6, Leading zero omitted, Abs format (unit mm)*
G04 Created by KiCad (PCBNEW 8.0.6) date 2026-09-07 02:57:58*
%MOMM*%
%LPD*%
G01*
G04 APERTURE LIST*
%ADD10C,0.152400*%
%ADD11C,0.304800*%
%ADD12C,0.200000*%
%ADD13C,0.400000*%
%ADD14C,0.100000*%
%ADD15C,0.150000*%
%ADD16C,0.120000*%
G04 APERTURE END LIST*
D10*
X147644917Y-98260375D02*
X147257870Y-98260375D01*
X147722327Y-98492603D02*
X147451394Y-97679803D01*
X147451394Y-97679803D02*
X147180460Y-98492603D01*
X146483774Y-98492603D02*
X146948231Y-98492603D01*
X146716003Y-98492603D02*
X146716003Y-97679803D01*
X146716003Y-97679803D02*
X146793412Y-97795918D01*
X146793412Y-97795918D02*
X146870822Y-97873327D01*
X146870822Y-97873327D02*
X146948231Y-97912032D01*
X158692603Y-120458243D02*
X158305556Y-120187310D01*
X158692603Y-119993786D02*
X157879803Y-119993786D01*
X157879803Y-119993786D02*
X157879803Y-120303424D01*
X157879803Y-120303424D02*
X157918508Y-120380834D01*
X157918508Y-120380834D02*
X157957213Y-120419539D01*
X157957213Y-120419539D02*
X158034622Y-120458243D01*
X158034622Y-120458243D02*
X158150737Y-120458243D01*
X158150737Y-120458243D02*
X158228146Y-120419539D01*
X158228146Y-120419539D02*
X158266851Y-120380834D01*
X158266851Y-120380834D02*
X158305556Y-120303424D01*
X158305556Y-120303424D02*
X158305556Y-119993786D01*
X158692603Y-121232339D02*
X158692603Y-120767882D01*
X158692603Y-121000110D02*
X157879803Y-121000110D01*
X157879803Y-121000110D02*
X157995918Y-120922701D01*
X157995918Y-120922701D02*
X158073327Y-120845291D01*
X158073327Y-120845291D02*
X158112032Y-120767882D01*
X164015194Y-120658243D02*
X164053899Y-120619539D01*
X164053899Y-120619539D02*
X164092603Y-120503424D01*
X164092603Y-120503424D02*
X164092603Y-120426015D01*
X164092603Y-120426015D02*
X164053899Y-120309901D01*
X164053899Y-120309901D02*
X163976489Y-120232491D01*
X163976489Y-120232491D02*
X163899079Y-120193786D01*
X163899079Y-120193786D02*
X163744260Y-120155082D01*
X163744260Y-120155082D02*
X163628146Y-120155082D01*
X163628146Y-120155082D02*
X163473327Y-120193786D01*
X163473327Y-120193786D02*
X163395918Y-120232491D01*
X163395918Y-120232491D02*
X163318508Y-120309901D01*
X163318508Y-120309901D02*
X163279803Y-120426015D01*
X163279803Y-120426015D02*
X163279803Y-120503424D01*
X163279803Y-120503424D02*
X163318508Y-120619539D01*
X163318508Y-120619539D02*
X163357213Y-120658243D01*
X164092603Y-121432339D02*
X164092603Y-120967882D01*
X164092603Y-121200110D02*
X163279803Y-121200110D01*
X163279803Y-121200110D02*
X163395918Y-121122701D01*
X163395918Y-121122701D02*
X163473327Y-121045291D01*
X163473327Y-121045291D02*
X163512032Y-120967882D01*
X164806213Y-110292603D02*
X164806213Y-109479803D01*
X164806213Y-109479803D02*
X164612689Y-109479803D01*
X164612689Y-109479803D02*
X164496575Y-109518508D01*
X164496575Y-109518508D02*
X164419165Y-109595918D01*
X164419165Y-109595918D02*
X164380460Y-109673327D01*
X164380460Y-109673327D02*
X164341756Y-109828146D01*
X164341756Y-109828146D02*
X164341756Y-109944260D01*
X164341756Y-109944260D02*
X164380460Y-110099079D01*
X164380460Y-110099079D02*
X164419165Y-110176489D01*
X164419165Y-110176489D02*
X164496575Y-110253899D01*
X164496575Y-110253899D02*
X164612689Y-110292603D01*
X164612689Y-110292603D02*
X164806213Y-110292603D01*
X163567660Y-110292603D02*
X164032117Y-110292603D01*
X163799889Y-110292603D02*
X163799889Y-109479803D01*
X163799889Y-109479803D02*
X163877298Y-109595918D01*
X163877298Y-109595918D02*
X163954708Y-109673327D01*
X163954708Y-109673327D02*
X164032117Y-109712032D01*
X130641756Y-112992603D02*
X130912689Y-112605556D01*
X131106213Y-112992603D02*
X131106213Y-112179803D01*
X131106213Y-112179803D02*
X130796575Y-112179803D01*
X130796575Y-112179803D02*
X130719165Y-112218508D01*
X130719165Y-112218508D02*
X130680460Y-112257213D01*
X130680460Y-112257213D02*
X130641756Y-112334622D01*
X130641756Y-112334622D02*
X130641756Y-112450737D01*
X130641756Y-112450737D02*
X130680460Y-112528146D01*
X130680460Y-112528146D02*
X130719165Y-112566851D01*
X130719165Y-112566851D02*
X130796575Y-112605556D01*
X130796575Y-112605556D02*
X131106213Y-112605556D01*
X130332117Y-112257213D02*
X130293413Y-112218508D01*
X130293413Y-112218508D02*
X130216003Y-112179803D01*
X130216003Y-112179803D02*
X130022479Y-112179803D01*
X130022479Y-112179803D02*
X129945070Y-112218508D01*
X129945070Y-112218508D02*
X129906365Y-112257213D01*
X129906365Y-112257213D02*
X129867660Y-112334622D01*
X129867660Y-112334622D02*
X129867660Y-112412032D01*
X129867660Y-112412032D02*
X129906365Y-112528146D01*
X129906365Y-112528146D02*
X130370822Y-112992603D01*
X130370822Y-112992603D02*
X129867660Y-112992603D01*
X129473984Y-92079803D02*
X129473984Y-92660375D01*
X129473984Y-92660375D02*
X129512689Y-92776489D01*
X129512689Y-92776489D02*
X129590098Y-92853899D01*
X129590098Y-92853899D02*
X129706213Y-92892603D01*
X129706213Y-92892603D02*
X129783622Y-92892603D01*
X128661184Y-92892603D02*
X129125641Y-92892603D01*
X128893413Y-92892603D02*
X128893413Y-92079803D01*
X128893413Y-92079803D02*
X128970822Y-92195918D01*
X128970822Y-92195918D02*
X129048232Y-92273327D01*
X129048232Y-92273327D02*
X129125641Y-92312032D01*
D11*
X166025759Y-78622498D02*
X166098331Y-78695070D01*
X166098331Y-78695070D02*
X166316045Y-78767641D01*
X166316045Y-78767641D02*
X166461188Y-78767641D01*
X166461188Y-78767641D02*
X166678902Y-78695070D01*
X166678902Y-78695070D02*
X166824045Y-78549927D01*
X166824045Y-78549927D02*
X166896616Y-78404784D01*
X166896616Y-78404784D02*
X166969188Y-78114498D01*
X166969188Y-78114498D02*
X166969188Y-77896784D01*
X166969188Y-77896784D02*
X166896616Y-77606498D01*
X166896616Y-77606498D02*
X166824045Y-77461355D01*
X166824045Y-77461355D02*
X166678902Y-77316212D01*
X166678902Y-77316212D02*
X166461188Y-77243641D01*
X166461188Y-77243641D02*
X166316045Y-77243641D01*
X166316045Y-77243641D02*
X166098331Y-77316212D01*
X166098331Y-77316212D02*
X166025759Y-77388784D01*
X164719474Y-78767641D02*
X164719474Y-77969355D01*
X164719474Y-77969355D02*
X164792045Y-77824212D01*
X164792045Y-77824212D02*
X164937188Y-77751641D01*
X164937188Y-77751641D02*
X165227474Y-77751641D01*
X165227474Y-77751641D02*
X165372616Y-77824212D01*
X164719474Y-78695070D02*
X164864616Y-78767641D01*
X164864616Y-78767641D02*
X165227474Y-78767641D01*
X165227474Y-78767641D02*
X165372616Y-78695070D01*
X165372616Y-78695070D02*
X165445188Y-78549927D01*
X165445188Y-78549927D02*
X165445188Y-78404784D01*
X165445188Y-78404784D02*
X165372616Y-78259641D01*
X165372616Y-78259641D02*
X165227474Y-78187070D01*
X165227474Y-78187070D02*
X164864616Y-78187070D01*
X164864616Y-78187070D02*
X164719474Y-78114498D01*
X163993759Y-78767641D02*
X163993759Y-77751641D01*
X163993759Y-78041927D02*
X163921188Y-77896784D01*
X163921188Y-77896784D02*
X163848617Y-77824212D01*
X163848617Y-77824212D02*
X163703474Y-77751641D01*
X163703474Y-77751641D02*
X163558331Y-77751641D01*
X163122902Y-78695070D02*
X162977759Y-78767641D01*
X162977759Y-78767641D02*
X162687473Y-78767641D01*
X162687473Y-78767641D02*
X162542330Y-78695070D01*
X162542330Y-78695070D02*
X162469759Y-78549927D01*
X162469759Y-78549927D02*
X162469759Y-78477355D01*
X162469759Y-78477355D02*
X162542330Y-78332212D01*
X162542330Y-78332212D02*
X162687473Y-78259641D01*
X162687473Y-78259641D02*
X162905188Y-78259641D01*
X162905188Y-78259641D02*
X163050330Y-78187070D01*
X163050330Y-78187070D02*
X163122902Y-78041927D01*
X163122902Y-78041927D02*
X163122902Y-77969355D01*
X163122902Y-77969355D02*
X163050330Y-77824212D01*
X163050330Y-77824212D02*
X162905188Y-77751641D01*
X162905188Y-77751641D02*
X162687473Y-77751641D01*
X162687473Y-77751641D02*
X162542330Y-77824212D01*
X161598902Y-78767641D02*
X161744045Y-78695070D01*
X161744045Y-78695070D02*
X161816616Y-78622498D01*
X161816616Y-78622498D02*
X161889188Y-78477355D01*
X161889188Y-78477355D02*
X161889188Y-78041927D01*
X161889188Y-78041927D02*
X161816616Y-77896784D01*
X161816616Y-77896784D02*
X161744045Y-77824212D01*
X161744045Y-77824212D02*
X161598902Y-77751641D01*
X161598902Y-77751641D02*
X161381188Y-77751641D01*
X161381188Y-77751641D02*
X161236045Y-77824212D01*
X161236045Y-77824212D02*
X161163474Y-77896784D01*
X161163474Y-77896784D02*
X161090902Y-78041927D01*
X161090902Y-78041927D02*
X161090902Y-78477355D01*
X161090902Y-78477355D02*
X161163474Y-78622498D01*
X161163474Y-78622498D02*
X161236045Y-78695070D01*
X161236045Y-78695070D02*
X161381188Y-78767641D01*
X161381188Y-78767641D02*
X161598902Y-78767641D01*
X160437759Y-77751641D02*
X160437759Y-78767641D01*
X160437759Y-77896784D02*
X160365188Y-77824212D01*
X160365188Y-77824212D02*
X160220045Y-77751641D01*
X160220045Y-77751641D02*
X160002331Y-77751641D01*
X160002331Y-77751641D02*
X159857188Y-77824212D01*
X159857188Y-77824212D02*
X159784617Y-77969355D01*
X159784617Y-77969355D02*
X159784617Y-78767641D01*
X129741759Y-121551641D02*
X129378902Y-122567641D01*
X129378902Y-122567641D02*
X129016045Y-121551641D01*
X127637188Y-122567641D02*
X128508045Y-122567641D01*
X128072616Y-122567641D02*
X128072616Y-121043641D01*
X128072616Y-121043641D02*
X128217759Y-121261355D01*
X128217759Y-121261355D02*
X128362902Y-121406498D01*
X128362902Y-121406498D02*
X128508045Y-121479070D01*
X126984044Y-122422498D02*
X126911473Y-122495070D01*
X126911473Y-122495070D02*
X126984044Y-122567641D01*
X126984044Y-122567641D02*
X127056616Y-122495070D01*
X127056616Y-122495070D02*
X126984044Y-122422498D01*
X126984044Y-122422498D02*
X126984044Y-122567641D01*
X125968045Y-121043641D02*
X125822902Y-121043641D01*
X125822902Y-121043641D02*
X125677759Y-121116212D01*
X125677759Y-121116212D02*
X125605188Y-121188784D01*
X125605188Y-121188784D02*
X125532616Y-121333927D01*
X125532616Y-121333927D02*
X125460045Y-121624212D01*
X125460045Y-121624212D02*
X125460045Y-121987070D01*
X125460045Y-121987070D02*
X125532616Y-122277355D01*
X125532616Y-122277355D02*
X125605188Y-122422498D01*
X125605188Y-122422498D02*
X125677759Y-122495070D01*
X125677759Y-122495070D02*
X125822902Y-122567641D01*
X125822902Y-122567641D02*
X125968045Y-122567641D01*
X125968045Y-122567641D02*
X126113188Y-122495070D01*
X126113188Y-122495070D02*
X126185759Y-122422498D01*
X126185759Y-122422498D02*
X126258330Y-122277355D01*
X126258330Y-122277355D02*
X126330902Y-121987070D01*
X126330902Y-121987070D02*
X126330902Y-121624212D01*
X126330902Y-121624212D02*
X126258330Y-121333927D01*
X126258330Y-121333927D02*
X126185759Y-121188784D01*
X126185759Y-121188784D02*
X126113188Y-121116212D01*
X126113188Y-121116212D02*
X125968045Y-121043641D01*
D12*
X136275279Y-118695536D02*
X136130136Y-118695536D01*
X136130136Y-118695536D02*
X135984993Y-118768107D01*
X135984993Y-118768107D02*
X135912422Y-118840679D01*
X135912422Y-118840679D02*
X135839850Y-118985822D01*
X135839850Y-118985822D02*
X135767279Y-119276107D01*
X135767279Y-119276107D02*
X135767279Y-119638965D01*
X135767279Y-119638965D02*
X135839850Y-119929250D01*
X135839850Y-119929250D02*
X135912422Y-120074393D01*
X135912422Y-120074393D02*
X135984993Y-120146965D01*
X135984993Y-120146965D02*
X136130136Y-120219536D01*
X136130136Y-120219536D02*
X136275279Y-120219536D01*
X136275279Y-120219536D02*
X136420422Y-120146965D01*
X136420422Y-120146965D02*
X136492993Y-120074393D01*
X136492993Y-120074393D02*
X136565564Y-119929250D01*
X136565564Y-119929250D02*
X136638136Y-119638965D01*
X136638136Y-119638965D02*
X136638136Y-119276107D01*
X136638136Y-119276107D02*
X136565564Y-118985822D01*
X136565564Y-118985822D02*
X136492993Y-118840679D01*
X136492993Y-118840679D02*
X136420422Y-118768107D01*
X136420422Y-118768107D02*
X136275279Y-118695536D01*
X135259278Y-118695536D02*
X134243278Y-118695536D01*
X134243278Y-118695536D02*
X134896421Y-120219536D01*
X132574135Y-118622965D02*
X133880421Y-120582393D01*
X132138707Y-120146965D02*
X131920993Y-120219536D01*
X131920993Y-120219536D02*
X131558135Y-120219536D01*
X131558135Y-120219536D02*
X131412993Y-120146965D01*
X131412993Y-120146965D02*
X131340421Y-120074393D01*
X131340421Y-120074393D02*
X131267850Y-119929250D01*
X131267850Y-119929250D02*
X131267850Y-119784107D01*
X131267850Y-119784107D02*
X131340421Y-119638965D01*
X131340421Y-119638965D02*
X131412993Y-119566393D01*
X131412993Y-119566393D02*
X131558135Y-119493822D01*
X131558135Y-119493822D02*
X131848421Y-119421250D01*
X131848421Y-119421250D02*
X131993564Y-119348679D01*
X131993564Y-119348679D02*
X132066135Y-119276107D01*
X132066135Y-119276107D02*
X132138707Y-119130965D01*
X132138707Y-119130965D02*
X132138707Y-118985822D01*
X132138707Y-118985822D02*
X132066135Y-118840679D01*
X132066135Y-118840679D02*
X131993564Y-118768107D01*
X131993564Y-118768107D02*
X131848421Y-118695536D01*
X131848421Y-118695536D02*
X131485564Y-118695536D01*
X131485564Y-118695536D02*
X131267850Y-118768107D01*
X130614706Y-119421250D02*
X130106706Y-119421250D01*
X129888992Y-120219536D02*
X130614706Y-120219536D01*
X130614706Y-120219536D02*
X130614706Y-118695536D01*
X130614706Y-118695536D02*
X129888992Y-118695536D01*
X129235849Y-120219536D02*
X129235849Y-118695536D01*
X129235849Y-118695536D02*
X128655278Y-118695536D01*
X128655278Y-118695536D02*
X128510135Y-118768107D01*
X128510135Y-118768107D02*
X128437564Y-118840679D01*
X128437564Y-118840679D02*
X128364992Y-118985822D01*
X128364992Y-118985822D02*
X128364992Y-119203536D01*
X128364992Y-119203536D02*
X128437564Y-119348679D01*
X128437564Y-119348679D02*
X128510135Y-119421250D01*
X128510135Y-119421250D02*
X128655278Y-119493822D01*
X128655278Y-119493822D02*
X129235849Y-119493822D01*
X127929564Y-118695536D02*
X127058707Y-118695536D01*
X127494135Y-120219536D02*
X127494135Y-118695536D01*
X125462135Y-118622965D02*
X126768421Y-120582393D01*
X136638136Y-121294234D02*
X136565564Y-121221662D01*
X136565564Y-121221662D02*
X136420422Y-121149091D01*
X136420422Y-121149091D02*
X136057564Y-121149091D01*
X136057564Y-121149091D02*
X135912422Y-121221662D01*
X135912422Y-121221662D02*
X135839850Y-121294234D01*
X135839850Y-121294234D02*
X135767279Y-121439377D01*
X135767279Y-121439377D02*
X135767279Y-121584520D01*
X135767279Y-121584520D02*
X135839850Y-121802234D01*
X135839850Y-121802234D02*
X136710707Y-122673091D01*
X136710707Y-122673091D02*
X135767279Y-122673091D01*
X134823850Y-121149091D02*
X134678707Y-121149091D01*
X134678707Y-121149091D02*
X134533564Y-121221662D01*
X134533564Y-121221662D02*
X134460993Y-121294234D01*
X134460993Y-121294234D02*
X134388421Y-121439377D01*
X134388421Y-121439377D02*
X134315850Y-121729662D01*
X134315850Y-121729662D02*
X134315850Y-122092520D01*
X134315850Y-122092520D02*
X134388421Y-122382805D01*
X134388421Y-122382805D02*
X134460993Y-122527948D01*
X134460993Y-122527948D02*
X134533564Y-122600520D01*
X134533564Y-122600520D02*
X134678707Y-122673091D01*
X134678707Y-122673091D02*
X134823850Y-122673091D01*
X134823850Y-122673091D02*
X134968993Y-122600520D01*
X134968993Y-122600520D02*
X135041564Y-122527948D01*
X135041564Y-122527948D02*
X135114135Y-122382805D01*
X135114135Y-122382805D02*
X135186707Y-122092520D01*
X135186707Y-122092520D02*
X135186707Y-121729662D01*
X135186707Y-121729662D02*
X135114135Y-121439377D01*
X135114135Y-121439377D02*
X135041564Y-121294234D01*
X135041564Y-121294234D02*
X134968993Y-121221662D01*
X134968993Y-121221662D02*
X134823850Y-121149091D01*
X133735278Y-121294234D02*
X133662706Y-121221662D01*
X133662706Y-121221662D02*
X133517564Y-121149091D01*
X133517564Y-121149091D02*
X133154706Y-121149091D01*
X133154706Y-121149091D02*
X133009564Y-121221662D01*
X133009564Y-121221662D02*
X132936992Y-121294234D01*
X132936992Y-121294234D02*
X132864421Y-121439377D01*
X132864421Y-121439377D02*
X132864421Y-121584520D01*
X132864421Y-121584520D02*
X132936992Y-121802234D01*
X132936992Y-121802234D02*
X133807849Y-122673091D01*
X133807849Y-122673091D02*
X132864421Y-122673091D01*
X131558135Y-121149091D02*
X131848420Y-121149091D01*
X131848420Y-121149091D02*
X131993563Y-121221662D01*
X131993563Y-121221662D02*
X132066135Y-121294234D01*
X132066135Y-121294234D02*
X132211277Y-121511948D01*
X132211277Y-121511948D02*
X132283849Y-121802234D01*
X132283849Y-121802234D02*
X132283849Y-122382805D01*
X132283849Y-122382805D02*
X132211277Y-122527948D01*
X132211277Y-122527948D02*
X132138706Y-122600520D01*
X132138706Y-122600520D02*
X131993563Y-122673091D01*
X131993563Y-122673091D02*
X131703277Y-122673091D01*
X131703277Y-122673091D02*
X131558135Y-122600520D01*
X131558135Y-122600520D02*
X131485563Y-122527948D01*
X131485563Y-122527948D02*
X131412992Y-122382805D01*
X131412992Y-122382805D02*
X131412992Y-122019948D01*
X131412992Y-122019948D02*
X131485563Y-121874805D01*
X131485563Y-121874805D02*
X131558135Y-121802234D01*
X131558135Y-121802234D02*
X131703277Y-121729662D01*
X131703277Y-121729662D02*
X131993563Y-121729662D01*
X131993563Y-121729662D02*
X132138706Y-121802234D01*
X132138706Y-121802234D02*
X132211277Y-121874805D01*
X132211277Y-121874805D02*
X132283849Y-122019948D01*
D11*
X166641759Y-79543641D02*
X166278902Y-81067641D01*
X166278902Y-81067641D02*
X165988616Y-79979070D01*
X165988616Y-79979070D02*
X165698331Y-81067641D01*
X165698331Y-81067641D02*
X165335474Y-79543641D01*
X164101760Y-80051641D02*
X164101760Y-81067641D01*
X164754902Y-80051641D02*
X164754902Y-80849927D01*
X164754902Y-80849927D02*
X164682331Y-80995070D01*
X164682331Y-80995070D02*
X164537188Y-81067641D01*
X164537188Y-81067641D02*
X164319474Y-81067641D01*
X164319474Y-81067641D02*
X164174331Y-80995070D01*
X164174331Y-80995070D02*
X164101760Y-80922498D01*
D13*
X136415890Y-117709200D02*
X136130176Y-117804438D01*
X136130176Y-117804438D02*
X135653985Y-117804438D01*
X135653985Y-117804438D02*
X135463509Y-117709200D01*
X135463509Y-117709200D02*
X135368271Y-117613961D01*
X135368271Y-117613961D02*
X135273033Y-117423485D01*
X135273033Y-117423485D02*
X135273033Y-117233009D01*
X135273033Y-117233009D02*
X135368271Y-117042533D01*
X135368271Y-117042533D02*
X135463509Y-116947295D01*
X135463509Y-116947295D02*
X135653985Y-116852057D01*
X135653985Y-116852057D02*
X136034938Y-116756819D01*
X136034938Y-116756819D02*
X136225414Y-116661580D01*
X136225414Y-116661580D02*
X136320652Y-116566342D01*
X136320652Y-116566342D02*
X136415890Y-116375866D01*
X136415890Y-116375866D02*
X136415890Y-116185390D01*
X136415890Y-116185390D02*
X136320652Y-115994914D01*
X136320652Y-115994914D02*
X136225414Y-115899676D01*
X136225414Y-115899676D02*
X136034938Y-115804438D01*
X136034938Y-115804438D02*
X135558747Y-115804438D01*
X135558747Y-115804438D02*
X135273033Y-115899676D01*
X134415890Y-117804438D02*
X134415890Y-115804438D01*
X134415890Y-115804438D02*
X133749223Y-117233009D01*
X133749223Y-117233009D02*
X133082557Y-115804438D01*
X133082557Y-115804438D02*
X133082557Y-117804438D01*
X132130176Y-117804438D02*
X132130176Y-115804438D01*
X132130176Y-115804438D02*
X131653986Y-115804438D01*
X131653986Y-115804438D02*
X131368271Y-115899676D01*
X131368271Y-115899676D02*
X131177795Y-116090152D01*
X131177795Y-116090152D02*
X131082557Y-116280628D01*
X131082557Y-116280628D02*
X130987319Y-116661580D01*
X130987319Y-116661580D02*
X130987319Y-116947295D01*
X130987319Y-116947295D02*
X131082557Y-117328247D01*
X131082557Y-117328247D02*
X131177795Y-117518723D01*
X131177795Y-117518723D02*
X131368271Y-117709200D01*
X131368271Y-117709200D02*
X131653986Y-117804438D01*
X131653986Y-117804438D02*
X132130176Y-117804438D01*
X128892080Y-115804438D02*
X127749223Y-115804438D01*
X128320652Y-117804438D02*
X128320652Y-115804438D01*
X126320651Y-117709200D02*
X126511127Y-117804438D01*
X126511127Y-117804438D02*
X126892080Y-117804438D01*
X126892080Y-117804438D02*
X127082556Y-117709200D01*
X127082556Y-117709200D02*
X127177794Y-117518723D01*
X127177794Y-117518723D02*
X127177794Y-116756819D01*
X127177794Y-116756819D02*
X127082556Y-116566342D01*
X127082556Y-116566342D02*
X126892080Y-116471104D01*
X126892080Y-116471104D02*
X126511127Y-116471104D01*
X126511127Y-116471104D02*
X126320651Y-116566342D01*
X126320651Y-116566342D02*
X126225413Y-116756819D01*
X126225413Y-116756819D02*
X126225413Y-116947295D01*
X126225413Y-116947295D02*
X127177794Y-117137771D01*
X125463508Y-117709200D02*
X125273032Y-117804438D01*
X125273032Y-117804438D02*
X124892080Y-117804438D01*
X124892080Y-117804438D02*
X124701603Y-117709200D01*
X124701603Y-117709200D02*
X124606365Y-117518723D01*
X124606365Y-117518723D02*
X124606365Y-117423485D01*
X124606365Y-117423485D02*
X124701603Y-117233009D01*
X124701603Y-117233009D02*
X124892080Y-117137771D01*
X124892080Y-117137771D02*
X125177794Y-117137771D01*
X125177794Y-117137771D02*
X125368270Y-117042533D01*
X125368270Y-117042533D02*
X125463508Y-116852057D01*
X125463508Y-116852057D02*
X125463508Y-116756819D01*
X125463508Y-116756819D02*
X125368270Y-116566342D01*
X125368270Y-116566342D02*
X125177794Y-116471104D01*
X125177794Y-116471104D02*
X124892080Y-116471104D01*
X124892080Y-116471104D02*
X124701603Y-116566342D01*
X124034936Y-116471104D02*
X123273032Y-116471104D01*
X123749222Y-115804438D02*
X123749222Y-117518723D01*
X123749222Y-117518723D02*
X123653984Y-117709200D01*
X123653984Y-117709200D02*
X123463508Y-117804438D01*
X123463508Y-117804438D02*
X123273032Y-117804438D01*
D14*
X129793333Y-90627419D02*
X129793333Y-91341704D01*
X129793333Y-91341704D02*
X129840952Y-91484561D01*
X129840952Y-91484561D02*
X129936190Y-91579800D01*
X129936190Y-91579800D02*
X130079047Y-91627419D01*
X130079047Y-91627419D02*
X130174285Y-91627419D01*
X128793333Y-91627419D02*
X129364761Y-91627419D01*
X129079047Y-91627419D02*
X129079047Y-90627419D01*
X129079047Y-90627419D02*
X129174285Y-90770276D01*
X129174285Y-90770276D02*
X129269523Y-90865514D01*
X129269523Y-90865514D02*
X129364761Y-90913133D01*
X128297580Y-106994972D02*
X127297580Y-106661639D01*
X127297580Y-106661639D02*
X128297580Y-106328306D01*
X127392819Y-105423544D02*
X127345200Y-105471163D01*
X127345200Y-105471163D02*
X127297580Y-105614020D01*
X127297580Y-105614020D02*
X127297580Y-105709258D01*
X127297580Y-105709258D02*
X127345200Y-105852115D01*
X127345200Y-105852115D02*
X127440438Y-105947353D01*
X127440438Y-105947353D02*
X127535676Y-105994972D01*
X127535676Y-105994972D02*
X127726152Y-106042591D01*
X127726152Y-106042591D02*
X127869009Y-106042591D01*
X127869009Y-106042591D02*
X128059485Y-105994972D01*
X128059485Y-105994972D02*
X128154723Y-105947353D01*
X128154723Y-105947353D02*
X128249961Y-105852115D01*
X128249961Y-105852115D02*
X128297580Y-105709258D01*
X128297580Y-105709258D02*
X128297580Y-105614020D01*
X128297580Y-105614020D02*
X128249961Y-105471163D01*
X128249961Y-105471163D02*
X128202342Y-105423544D01*
X127392819Y-104423544D02*
X127345200Y-104471163D01*
X127345200Y-104471163D02*
X127297580Y-104614020D01*
X127297580Y-104614020D02*
X127297580Y-104709258D01*
X127297580Y-104709258D02*
X127345200Y-104852115D01*
X127345200Y-104852115D02*
X127440438Y-104947353D01*
X127440438Y-104947353D02*
X127535676Y-104994972D01*
X127535676Y-104994972D02*
X127726152Y-105042591D01*
X127726152Y-105042591D02*
X127869009Y-105042591D01*
X127869009Y-105042591D02*
X128059485Y-104994972D01*
X128059485Y-104994972D02*
X128154723Y-104947353D01*
X128154723Y-104947353D02*
X128249961Y-104852115D01*
X128249961Y-104852115D02*
X128297580Y-104709258D01*
X128297580Y-104709258D02*
X128297580Y-104614020D01*
X128297580Y-104614020D02*
X128249961Y-104471163D01*
X128249961Y-104471163D02*
X128202342Y-104423544D01*
X130027961Y-106582306D02*
X130075580Y-106677544D01*
X130075580Y-106677544D02*
X130075580Y-106820401D01*
X130075580Y-106820401D02*
X130027961Y-106963258D01*
X130027961Y-106963258D02*
X129932723Y-107058496D01*
X129932723Y-107058496D02*
X129837485Y-107106115D01*
X129837485Y-107106115D02*
X129647009Y-107153734D01*
X129647009Y-107153734D02*
X129504152Y-107153734D01*
X129504152Y-107153734D02*
X129313676Y-107106115D01*
X129313676Y-107106115D02*
X129218438Y-107058496D01*
X129218438Y-107058496D02*
X129123200Y-106963258D01*
X129123200Y-106963258D02*
X129075580Y-106820401D01*
X129075580Y-106820401D02*
X129075580Y-106725163D01*
X129075580Y-106725163D02*
X129123200Y-106582306D01*
X129123200Y-106582306D02*
X129170819Y-106534687D01*
X129170819Y-106534687D02*
X129504152Y-106534687D01*
X129504152Y-106534687D02*
X129504152Y-106725163D01*
X129075580Y-106106115D02*
X130075580Y-106106115D01*
X130075580Y-106106115D02*
X129075580Y-105534687D01*
X129075580Y-105534687D02*
X130075580Y-105534687D01*
X129075580Y-105058496D02*
X130075580Y-105058496D01*
X130075580Y-105058496D02*
X130075580Y-104820401D01*
X130075580Y-104820401D02*
X130027961Y-104677544D01*
X130027961Y-104677544D02*
X129932723Y-104582306D01*
X129932723Y-104582306D02*
X129837485Y-104534687D01*
X129837485Y-104534687D02*
X129647009Y-104487068D01*
X129647009Y-104487068D02*
X129504152Y-104487068D01*
X129504152Y-104487068D02*
X129313676Y-104534687D01*
X129313676Y-104534687D02*
X129218438Y-104582306D01*
X129218438Y-104582306D02*
X129123200Y-104677544D01*
X129123200Y-104677544D02*
X129075580Y-104820401D01*
X129075580Y-104820401D02*
X129075580Y-105058496D01*
X130853580Y-107106115D02*
X131853580Y-107106115D01*
X131853580Y-107106115D02*
X131853580Y-106868020D01*
X131853580Y-106868020D02*
X131805961Y-106725163D01*
X131805961Y-106725163D02*
X131710723Y-106629925D01*
X131710723Y-106629925D02*
X131615485Y-106582306D01*
X131615485Y-106582306D02*
X131425009Y-106534687D01*
X131425009Y-106534687D02*
X131282152Y-106534687D01*
X131282152Y-106534687D02*
X131091676Y-106582306D01*
X131091676Y-106582306D02*
X130996438Y-106629925D01*
X130996438Y-106629925D02*
X130901200Y-106725163D01*
X130901200Y-106725163D02*
X130853580Y-106868020D01*
X130853580Y-106868020D02*
X130853580Y-107106115D01*
X131853580Y-105915639D02*
X131853580Y-105725163D01*
X131853580Y-105725163D02*
X131805961Y-105629925D01*
X131805961Y-105629925D02*
X131710723Y-105534687D01*
X131710723Y-105534687D02*
X131520247Y-105487068D01*
X131520247Y-105487068D02*
X131186914Y-105487068D01*
X131186914Y-105487068D02*
X130996438Y-105534687D01*
X130996438Y-105534687D02*
X130901200Y-105629925D01*
X130901200Y-105629925D02*
X130853580Y-105725163D01*
X130853580Y-105725163D02*
X130853580Y-105915639D01*
X130853580Y-105915639D02*
X130901200Y-106010877D01*
X130901200Y-106010877D02*
X130996438Y-106106115D01*
X130996438Y-106106115D02*
X131186914Y-106153734D01*
X131186914Y-106153734D02*
X131520247Y-106153734D01*
X131520247Y-106153734D02*
X131710723Y-106106115D01*
X131710723Y-106106115D02*
X131805961Y-106010877D01*
X131805961Y-106010877D02*
X131853580Y-105915639D01*
D15*
X160868094Y-106364819D02*
X160868094Y-105364819D01*
X160868094Y-105364819D02*
X160629999Y-105364819D01*
X160629999Y-105364819D02*
X160487142Y-105412438D01*
X160487142Y-105412438D02*
X160391904Y-105507676D01*
X160391904Y-105507676D02*
X160344285Y-105602914D01*
X160344285Y-105602914D02*
X160296666Y-105793390D01*
X160296666Y-105793390D02*
X160296666Y-105936247D01*
X160296666Y-105936247D02*
X160344285Y-106126723D01*
X160344285Y-106126723D02*
X160391904Y-106221961D01*
X160391904Y-106221961D02*
X160487142Y-106317200D01*
X160487142Y-106317200D02*
X160629999Y-106364819D01*
X160629999Y-106364819D02*
X160868094Y-106364819D01*
X159344285Y-106364819D02*
X159915713Y-106364819D01*
X159629999Y-106364819D02*
X159629999Y-105364819D01*
X159629999Y-105364819D02*
X159725237Y-105507676D01*
X159725237Y-105507676D02*
X159820475Y-105602914D01*
X159820475Y-105602914D02*
X159915713Y-105650533D01*
X130536666Y-114944819D02*
X130869999Y-114468628D01*
X131108094Y-114944819D02*
X131108094Y-113944819D01*
X131108094Y-113944819D02*
X130727142Y-113944819D01*
X130727142Y-113944819D02*
X130631904Y-113992438D01*
X130631904Y-113992438D02*
X130584285Y-114040057D01*
X130584285Y-114040057D02*
X130536666Y-114135295D01*
X130536666Y-114135295D02*
X130536666Y-114278152D01*
X130536666Y-114278152D02*
X130584285Y-114373390D01*
X130584285Y-114373390D02*
X130631904Y-114421009D01*
X130631904Y-114421009D02*
X130727142Y-114468628D01*
X130727142Y-114468628D02*
X131108094Y-114468628D01*
X130155713Y-114040057D02*
X130108094Y-113992438D01*
X130108094Y-113992438D02*
X130012856Y-113944819D01*
X130012856Y-113944819D02*
X129774761Y-113944819D01*
X129774761Y-113944819D02*
X129679523Y-113992438D01*
X129679523Y-113992438D02*
X129631904Y-114040057D01*
X129631904Y-114040057D02*
X129584285Y-114135295D01*
X129584285Y-114135295D02*
X129584285Y-114230533D01*
X129584285Y-114230533D02*
X129631904Y-114373390D01*
X129631904Y-114373390D02*
X130203332Y-114944819D01*
X130203332Y-114944819D02*
X129584285Y-114944819D01*
X160734819Y-120393333D02*
X160258628Y-120060000D01*
X160734819Y-119821905D02*
X159734819Y-119821905D01*
X159734819Y-119821905D02*
X159734819Y-120202857D01*
X159734819Y-120202857D02*
X159782438Y-120298095D01*
X159782438Y-120298095D02*
X159830057Y-120345714D01*
X159830057Y-120345714D02*
X159925295Y-120393333D01*
X159925295Y-120393333D02*
X160068152Y-120393333D01*
X160068152Y-120393333D02*
X160163390Y-120345714D01*
X160163390Y-120345714D02*
X160211009Y-120298095D01*
X160211009Y-120298095D02*
X160258628Y-120202857D01*
X160258628Y-120202857D02*
X160258628Y-119821905D01*
X160734819Y-121345714D02*
X160734819Y-120774286D01*
X160734819Y-121060000D02*
X159734819Y-121060000D01*
X159734819Y-121060000D02*
X159877676Y-120964762D01*
X159877676Y-120964762D02*
X159972914Y-120869524D01*
X159972914Y-120869524D02*
X160020533Y-120774286D01*
X166419580Y-120603333D02*
X166467200Y-120555714D01*
X166467200Y-120555714D02*
X166514819Y-120412857D01*
X166514819Y-120412857D02*
X166514819Y-120317619D01*
X166514819Y-120317619D02*
X166467200Y-120174762D01*
X166467200Y-120174762D02*
X166371961Y-120079524D01*
X166371961Y-120079524D02*
X166276723Y-120031905D01*
X166276723Y-120031905D02*
X166086247Y-119984286D01*
X166086247Y-119984286D02*
X165943390Y-119984286D01*
X165943390Y-119984286D02*
X165752914Y-120031905D01*
X165752914Y-120031905D02*
X165657676Y-120079524D01*
X165657676Y-120079524D02*
X165562438Y-120174762D01*
X165562438Y-120174762D02*
X165514819Y-120317619D01*
X165514819Y-120317619D02*
X165514819Y-120412857D01*
X165514819Y-120412857D02*
X165562438Y-120555714D01*
X165562438Y-120555714D02*
X165610057Y-120603333D01*
X166514819Y-121555714D02*
X166514819Y-120984286D01*
X166514819Y-121270000D02*
X165514819Y-121270000D01*
X165514819Y-121270000D02*
X165657676Y-121174762D01*
X165657676Y-121174762D02*
X165752914Y-121079524D01*
X165752914Y-121079524D02*
X165800533Y-120984286D01*
X147694285Y-77369104D02*
X147218095Y-77369104D01*
X147789523Y-77654819D02*
X147456190Y-76654819D01*
X147456190Y-76654819D02*
X147122857Y-77654819D01*
X146265714Y-77654819D02*
X146837142Y-77654819D01*
X146551428Y-77654819D02*
X146551428Y-76654819D01*
X146551428Y-76654819D02*
X146646666Y-76797676D01*
X146646666Y-76797676D02*
X146741904Y-76892914D01*
X146741904Y-76892914D02*
X146837142Y-76940533D01*
X148241904Y-117294819D02*
X148241904Y-118104342D01*
X148241904Y-118104342D02*
X148194285Y-118199580D01*
X148194285Y-118199580D02*
X148146666Y-118247200D01*
X148146666Y-118247200D02*
X148051428Y-118294819D01*
X148051428Y-118294819D02*
X147860952Y-118294819D01*
X147860952Y-118294819D02*
X147765714Y-118247200D01*
X147765714Y-118247200D02*
X147718095Y-118199580D01*
X147718095Y-118199580D02*
X147670476Y-118104342D01*
X147670476Y-118104342D02*
X147670476Y-117294819D01*
X147241904Y-118247200D02*
X147099047Y-118294819D01*
X147099047Y-118294819D02*
X146860952Y-118294819D01*
X146860952Y-118294819D02*
X146765714Y-118247200D01*
X146765714Y-118247200D02*
X146718095Y-118199580D01*
X146718095Y-118199580D02*
X146670476Y-118104342D01*
X146670476Y-118104342D02*
X146670476Y-118009104D01*
X146670476Y-118009104D02*
X146718095Y-117913866D01*
X146718095Y-117913866D02*
X146765714Y-117866247D01*
X146765714Y-117866247D02*
X146860952Y-117818628D01*
X146860952Y-117818628D02*
X147051428Y-117771009D01*
X147051428Y-117771009D02*
X147146666Y-117723390D01*
X147146666Y-117723390D02*
X147194285Y-117675771D01*
X147194285Y-117675771D02*
X147241904Y-117580533D01*
X147241904Y-117580533D02*
X147241904Y-117485295D01*
X147241904Y-117485295D02*
X147194285Y-117390057D01*
X147194285Y-117390057D02*
X147146666Y-117342438D01*
X147146666Y-117342438D02*
X147051428Y-117294819D01*
X147051428Y-117294819D02*
X146813333Y-117294819D01*
X146813333Y-117294819D02*
X146670476Y-117342438D01*
X145908571Y-117771009D02*
X145765714Y-117818628D01*
X145765714Y-117818628D02*
X145718095Y-117866247D01*
X145718095Y-117866247D02*
X145670476Y-117961485D01*
X145670476Y-117961485D02*
X145670476Y-118104342D01*
X145670476Y-118104342D02*
X145718095Y-118199580D01*
X145718095Y-118199580D02*
X145765714Y-118247200D01*
X145765714Y-118247200D02*
X145860952Y-118294819D01*
X145860952Y-118294819D02*
X146241904Y-118294819D01*
X146241904Y-118294819D02*
X146241904Y-117294819D01*
X146241904Y-117294819D02*
X145908571Y-117294819D01*
X145908571Y-117294819D02*
X145813333Y-117342438D01*
X145813333Y-117342438D02*
X145765714Y-117390057D01*
X145765714Y-117390057D02*
X145718095Y-117485295D01*
X145718095Y-117485295D02*
X145718095Y-117580533D01*
X145718095Y-117580533D02*
X145765714Y-117675771D01*
X145765714Y-117675771D02*
X145813333Y-117723390D01*
X145813333Y-117723390D02*
X145908571Y-117771009D01*
X145908571Y-117771009D02*
X146241904Y-117771009D01*
%TO.C,J1*%
D14*
X136856000Y-78462000D02*
X122856000Y-78462000D01*
X122856000Y-109462000D01*
X136856000Y-109462000D01*
X136856000Y-78462000D01*
D16*
%TO.C,D1*%
X162690000Y-111415000D02*
X162690000Y-108325000D01*
X157140000Y-109870462D02*
G75*
G02*
X162690000Y-108325170I2990000J462D01*
G01*
X162690000Y-111414830D02*
G75*
G02*
X157140000Y-109869538I-2560000J1544830D01*
G01*
X162630000Y-109870000D02*
G75*
G02*
X157630000Y-109870000I-2500000J0D01*
G01*
X157630000Y-109870000D02*
G75*
G02*
X162630000Y-109870000I2500000J0D01*
G01*
%TO.C,R2*%
X128450000Y-111650000D02*
X128450000Y-113490000D01*
X128450000Y-112570000D02*
X127500000Y-112570000D01*
X128450000Y-113490000D02*
X132290000Y-113490000D01*
X132290000Y-111650000D02*
X128450000Y-111650000D01*
X132290000Y-112570000D02*
X133240000Y-112570000D01*
X132290000Y-113490000D02*
X132290000Y-111650000D01*
%TO.C,R1*%
X157440000Y-118640000D02*
X157440000Y-122480000D01*
X157440000Y-122480000D02*
X159280000Y-122480000D01*
X158360000Y-118640000D02*
X158360000Y-117690000D01*
X158360000Y-122480000D02*
X158360000Y-123430000D01*
X159280000Y-118640000D02*
X157440000Y-118640000D01*
X159280000Y-122480000D02*
X159280000Y-118640000D01*
%TO.C,C1*%
X162190000Y-118300000D02*
X162190000Y-123240000D01*
X162190000Y-118300000D02*
X162505000Y-118300000D01*
X162190000Y-123240000D02*
X162505000Y-123240000D01*
X164615000Y-118300000D02*
X164930000Y-118300000D01*
X164615000Y-123240000D02*
X164930000Y-123240000D01*
X164930000Y-118300000D02*
X164930000Y-123240000D01*
%TO.C,A1*%
X137960000Y-78340000D02*
X137960000Y-121780000D01*
X137960000Y-81010000D02*
X140630000Y-81010000D01*
X137960000Y-119110000D02*
X140630000Y-119110000D01*
X140630000Y-119110000D02*
X140630000Y-81010000D01*
X143040000Y-113900000D02*
X150920000Y-113900000D01*
X143040000Y-121780000D02*
X137960000Y-121780000D01*
X143040000Y-124320000D02*
X143040000Y-113900000D01*
X150920000Y-113900000D02*
X150920000Y-124320000D01*
X150920000Y-121780000D02*
X156000000Y-121780000D01*
X150920000Y-124320000D02*
X143040000Y-124320000D01*
X153330000Y-81010000D02*
X153330000Y-83550000D01*
X153330000Y-119110000D02*
X153330000Y-83550000D01*
X156000000Y-78340000D02*
X137960000Y-78340000D01*
X156000000Y-81010000D02*
X153330000Y-81010000D01*
X156000000Y-81010000D02*
X156000000Y-78340000D01*
X156000000Y-83550000D02*
X153330000Y-83550000D01*
X156000000Y-119110000D02*
X153330000Y-119110000D01*
X156000000Y-121780000D02*
X156000000Y-83550000D01*
%TD*%
M02*
