%TF.GenerationSoftware,KiCad,Pcbnew,8.0.6*%
%TF.CreationDate,2026-09-07T00:34:31+08:00*%
%TF.ProjectId,SMD_test,534d445f-7465-4737-942e-6b696361645f,rev?*%
%TF.SameCoordinates,Original*%
%TF.FileFunction,Soldermask,Bot*%
%TF.FilePolarity,Negative*%
%FSLAX46Y46*%
G04 Gerber Fmt 4.6, Leading zero omitted, Abs format (unit mm)*
G04 Created by KiCad (PCBNEW 8.0.6) date 2026-09-07 00:34:31*
%MOMM*%
%LPD*%
G01*
G04 APERTURE LIST*
G04 APERTURE END LIST*
G36*
X158401933Y-123675104D02*
G01*
X158444376Y-123675104D01*
X158480119Y-123683914D01*
X158515680Y-123687921D01*
X158561679Y-123704017D01*
X158608223Y-123715489D01*
X158635745Y-123729933D01*
X158663553Y-123739664D01*
X158710549Y-123769193D01*
X158757645Y-123793911D01*
X158776568Y-123810675D01*
X158796205Y-123823014D01*
X158840541Y-123867350D01*
X158883958Y-123905814D01*
X158894994Y-123921803D01*
X158906985Y-123933794D01*
X158944680Y-123993786D01*
X158979819Y-124044694D01*
X158984617Y-124057346D01*
X158990335Y-124066446D01*
X159017370Y-124143710D01*
X159039659Y-124202479D01*
X159040575Y-124210024D01*
X159042078Y-124214319D01*
X159054723Y-124326543D01*
X159060000Y-124370000D01*
X159054722Y-124413459D01*
X159042078Y-124525680D01*
X159040575Y-124529974D01*
X159039659Y-124537521D01*
X159017366Y-124596301D01*
X158990335Y-124673553D01*
X158984618Y-124682650D01*
X158979819Y-124695306D01*
X158944673Y-124746223D01*
X158906985Y-124806205D01*
X158894997Y-124818192D01*
X158883958Y-124834186D01*
X158840532Y-124872657D01*
X158796205Y-124916985D01*
X158776572Y-124929320D01*
X158757645Y-124946089D01*
X158710540Y-124970811D01*
X158663553Y-125000335D01*
X158635750Y-125010063D01*
X158608223Y-125024511D01*
X158561670Y-125035985D01*
X158515680Y-125052078D01*
X158480126Y-125056084D01*
X158444376Y-125064896D01*
X158401924Y-125064896D01*
X158360000Y-125069620D01*
X158318076Y-125064896D01*
X158275624Y-125064896D01*
X158239873Y-125056084D01*
X158204319Y-125052078D01*
X158158326Y-125035984D01*
X158111777Y-125024511D01*
X158084251Y-125010064D01*
X158056446Y-125000335D01*
X158009453Y-124970808D01*
X157962355Y-124946089D01*
X157943430Y-124929323D01*
X157923794Y-124916985D01*
X157879458Y-124872649D01*
X157836042Y-124834186D01*
X157825005Y-124818196D01*
X157813014Y-124806205D01*
X157775315Y-124746207D01*
X157740181Y-124695306D01*
X157735383Y-124682654D01*
X157729664Y-124673553D01*
X157702620Y-124596267D01*
X157680341Y-124537521D01*
X157679425Y-124529978D01*
X157677921Y-124525680D01*
X157665263Y-124413345D01*
X157660000Y-124370000D01*
X157665262Y-124326658D01*
X157677921Y-124214319D01*
X157679425Y-124210019D01*
X157680341Y-124202479D01*
X157702616Y-124143744D01*
X157729664Y-124066446D01*
X157735384Y-124057342D01*
X157740181Y-124044694D01*
X157775308Y-123993802D01*
X157813014Y-123933794D01*
X157825007Y-123921800D01*
X157836042Y-123905814D01*
X157879449Y-123867358D01*
X157923794Y-123823014D01*
X157943433Y-123810673D01*
X157962355Y-123793911D01*
X158009444Y-123769196D01*
X158056446Y-123739664D01*
X158084256Y-123729932D01*
X158111777Y-123715489D01*
X158158316Y-123704017D01*
X158204319Y-123687921D01*
X158239881Y-123683913D01*
X158275624Y-123675104D01*
X158318067Y-123675104D01*
X158360000Y-123670379D01*
X158401933Y-123675104D01*
G37*
G36*
X163601811Y-122474711D02*
G01*
X163643588Y-122474711D01*
X163690718Y-122484728D01*
X163738017Y-122490058D01*
X163772408Y-122502092D01*
X163807110Y-122509468D01*
X163857117Y-122531733D01*
X163907107Y-122549225D01*
X163933128Y-122565575D01*
X163959835Y-122577466D01*
X164009633Y-122613646D01*
X164058792Y-122644535D01*
X164076444Y-122662187D01*
X164095084Y-122675730D01*
X164141165Y-122726908D01*
X164185465Y-122771208D01*
X164195654Y-122787424D01*
X164206946Y-122799965D01*
X164245573Y-122866870D01*
X164280775Y-122922893D01*
X164285170Y-122935453D01*
X164290535Y-122944746D01*
X164318010Y-123029305D01*
X164339942Y-123091983D01*
X164340773Y-123099363D01*
X164342195Y-123103738D01*
X164355076Y-123226306D01*
X164360000Y-123270000D01*
X164355076Y-123313697D01*
X164342195Y-123436261D01*
X164340773Y-123440635D01*
X164339942Y-123448017D01*
X164318005Y-123510707D01*
X164290535Y-123595253D01*
X164285171Y-123604543D01*
X164280775Y-123617107D01*
X164245566Y-123673140D01*
X164206946Y-123740034D01*
X164195656Y-123752572D01*
X164185465Y-123768792D01*
X164141155Y-123813101D01*
X164095084Y-123864269D01*
X164076448Y-123877808D01*
X164058792Y-123895465D01*
X164009623Y-123926359D01*
X163959835Y-123962533D01*
X163933134Y-123974421D01*
X163907107Y-123990775D01*
X163857107Y-124008270D01*
X163807110Y-124030531D01*
X163772414Y-124037905D01*
X163738017Y-124049942D01*
X163690715Y-124055271D01*
X163643588Y-124065289D01*
X163601811Y-124065289D01*
X163560000Y-124070000D01*
X163518189Y-124065289D01*
X163476412Y-124065289D01*
X163429284Y-124055271D01*
X163381983Y-124049942D01*
X163347586Y-124037906D01*
X163312889Y-124030531D01*
X163262887Y-124008268D01*
X163212893Y-123990775D01*
X163186868Y-123974422D01*
X163160164Y-123962533D01*
X163110369Y-123926355D01*
X163061208Y-123895465D01*
X163043554Y-123877811D01*
X163024915Y-123864269D01*
X162978833Y-123813090D01*
X162934535Y-123768792D01*
X162924345Y-123752575D01*
X162913053Y-123740034D01*
X162874420Y-123673120D01*
X162839225Y-123617107D01*
X162834830Y-123604547D01*
X162829464Y-123595253D01*
X162801980Y-123510667D01*
X162780058Y-123448017D01*
X162779226Y-123440639D01*
X162777804Y-123436261D01*
X162764908Y-123313565D01*
X162760000Y-123270000D01*
X162764908Y-123226438D01*
X162777804Y-123103738D01*
X162779226Y-123099358D01*
X162780058Y-123091983D01*
X162801975Y-123029345D01*
X162829464Y-122944746D01*
X162834831Y-122935449D01*
X162839225Y-122922893D01*
X162874413Y-122866890D01*
X162913053Y-122799965D01*
X162924347Y-122787421D01*
X162934535Y-122771208D01*
X162978826Y-122726916D01*
X163024917Y-122675728D01*
X163043559Y-122662183D01*
X163061208Y-122644535D01*
X163110354Y-122613654D01*
X163160162Y-122577467D01*
X163186873Y-122565574D01*
X163212893Y-122549225D01*
X163262877Y-122531734D01*
X163312889Y-122509468D01*
X163347592Y-122502091D01*
X163381983Y-122490058D01*
X163429281Y-122484728D01*
X163476412Y-122474711D01*
X163518189Y-122474711D01*
X163560000Y-122470000D01*
X163601811Y-122474711D01*
G37*
G36*
X163601811Y-117474711D02*
G01*
X163643588Y-117474711D01*
X163690718Y-117484728D01*
X163738017Y-117490058D01*
X163772408Y-117502092D01*
X163807110Y-117509468D01*
X163857117Y-117531733D01*
X163907107Y-117549225D01*
X163933128Y-117565575D01*
X163959835Y-117577466D01*
X164009633Y-117613646D01*
X164058792Y-117644535D01*
X164076444Y-117662187D01*
X164095084Y-117675730D01*
X164141165Y-117726908D01*
X164185465Y-117771208D01*
X164195654Y-117787424D01*
X164206946Y-117799965D01*
X164245573Y-117866870D01*
X164280775Y-117922893D01*
X164285170Y-117935453D01*
X164290535Y-117944746D01*
X164318010Y-118029305D01*
X164339942Y-118091983D01*
X164340773Y-118099363D01*
X164342195Y-118103738D01*
X164355076Y-118226306D01*
X164360000Y-118270000D01*
X164355076Y-118313697D01*
X164342195Y-118436261D01*
X164340773Y-118440635D01*
X164339942Y-118448017D01*
X164318005Y-118510707D01*
X164290535Y-118595253D01*
X164285171Y-118604543D01*
X164280775Y-118617107D01*
X164245566Y-118673140D01*
X164206946Y-118740034D01*
X164195656Y-118752572D01*
X164185465Y-118768792D01*
X164141155Y-118813101D01*
X164095084Y-118864269D01*
X164076448Y-118877808D01*
X164058792Y-118895465D01*
X164009623Y-118926359D01*
X163959835Y-118962533D01*
X163933134Y-118974421D01*
X163907107Y-118990775D01*
X163857107Y-119008270D01*
X163807110Y-119030531D01*
X163772414Y-119037905D01*
X163738017Y-119049942D01*
X163690715Y-119055271D01*
X163643588Y-119065289D01*
X163601811Y-119065289D01*
X163560000Y-119070000D01*
X163518189Y-119065289D01*
X163476412Y-119065289D01*
X163429284Y-119055271D01*
X163381983Y-119049942D01*
X163347586Y-119037906D01*
X163312889Y-119030531D01*
X163262887Y-119008268D01*
X163212893Y-118990775D01*
X163186868Y-118974422D01*
X163160164Y-118962533D01*
X163110369Y-118926355D01*
X163061208Y-118895465D01*
X163043554Y-118877811D01*
X163024915Y-118864269D01*
X162978833Y-118813090D01*
X162934535Y-118768792D01*
X162924345Y-118752575D01*
X162913053Y-118740034D01*
X162874420Y-118673120D01*
X162839225Y-118617107D01*
X162834830Y-118604547D01*
X162829464Y-118595253D01*
X162801980Y-118510667D01*
X162780058Y-118448017D01*
X162779226Y-118440639D01*
X162777804Y-118436261D01*
X162764908Y-118313565D01*
X162760000Y-118270000D01*
X162764908Y-118226438D01*
X162777804Y-118103738D01*
X162779226Y-118099358D01*
X162780058Y-118091983D01*
X162801975Y-118029345D01*
X162829464Y-117944746D01*
X162834831Y-117935449D01*
X162839225Y-117922893D01*
X162874413Y-117866890D01*
X162913053Y-117799965D01*
X162924347Y-117787421D01*
X162934535Y-117771208D01*
X162978826Y-117726916D01*
X163024917Y-117675728D01*
X163043559Y-117662183D01*
X163061208Y-117644535D01*
X163110354Y-117613654D01*
X163160162Y-117577467D01*
X163186873Y-117565574D01*
X163212893Y-117549225D01*
X163262877Y-117531734D01*
X163312889Y-117509468D01*
X163347592Y-117502091D01*
X163381983Y-117490058D01*
X163429281Y-117484728D01*
X163476412Y-117474711D01*
X163518189Y-117474711D01*
X163560000Y-117470000D01*
X163601811Y-117474711D01*
G37*
G36*
X139401811Y-117044711D02*
G01*
X139443588Y-117044711D01*
X139490718Y-117054728D01*
X139538017Y-117060058D01*
X139572408Y-117072092D01*
X139607110Y-117079468D01*
X139657117Y-117101733D01*
X139707107Y-117119225D01*
X139733128Y-117135575D01*
X139759835Y-117147466D01*
X139809633Y-117183646D01*
X139858792Y-117214535D01*
X139876444Y-117232187D01*
X139895084Y-117245730D01*
X139941165Y-117296908D01*
X139985465Y-117341208D01*
X139995654Y-117357424D01*
X140006946Y-117369965D01*
X140045573Y-117436870D01*
X140080775Y-117492893D01*
X140085170Y-117505453D01*
X140090535Y-117514746D01*
X140118010Y-117599305D01*
X140139942Y-117661983D01*
X140140773Y-117669363D01*
X140142195Y-117673738D01*
X140155076Y-117796306D01*
X140160000Y-117840000D01*
X140155076Y-117883697D01*
X140142195Y-118006261D01*
X140140773Y-118010635D01*
X140139942Y-118018017D01*
X140118005Y-118080707D01*
X140090535Y-118165253D01*
X140085171Y-118174543D01*
X140080775Y-118187107D01*
X140045566Y-118243140D01*
X140006946Y-118310034D01*
X139995656Y-118322572D01*
X139985465Y-118338792D01*
X139941155Y-118383101D01*
X139895084Y-118434269D01*
X139876448Y-118447808D01*
X139858792Y-118465465D01*
X139809623Y-118496359D01*
X139759835Y-118532533D01*
X139733134Y-118544421D01*
X139707107Y-118560775D01*
X139657107Y-118578270D01*
X139607110Y-118600531D01*
X139572414Y-118607905D01*
X139538017Y-118619942D01*
X139490715Y-118625271D01*
X139443588Y-118635289D01*
X139401811Y-118635289D01*
X139360000Y-118640000D01*
X139318189Y-118635289D01*
X139276412Y-118635289D01*
X139229284Y-118625271D01*
X139181983Y-118619942D01*
X139147586Y-118607906D01*
X139112889Y-118600531D01*
X139062887Y-118578268D01*
X139012893Y-118560775D01*
X138986868Y-118544422D01*
X138960164Y-118532533D01*
X138910369Y-118496355D01*
X138861208Y-118465465D01*
X138843554Y-118447811D01*
X138824915Y-118434269D01*
X138778833Y-118383090D01*
X138734535Y-118338792D01*
X138724345Y-118322575D01*
X138713053Y-118310034D01*
X138674420Y-118243120D01*
X138639225Y-118187107D01*
X138634830Y-118174547D01*
X138629464Y-118165253D01*
X138601980Y-118080667D01*
X138580058Y-118018017D01*
X138579226Y-118010639D01*
X138577804Y-118006261D01*
X138564908Y-117883565D01*
X138560000Y-117840000D01*
X138564908Y-117796438D01*
X138577804Y-117673738D01*
X138579226Y-117669358D01*
X138580058Y-117661983D01*
X138601975Y-117599345D01*
X138629464Y-117514746D01*
X138634831Y-117505449D01*
X138639225Y-117492893D01*
X138674413Y-117436890D01*
X138713053Y-117369965D01*
X138724347Y-117357421D01*
X138734535Y-117341208D01*
X138778826Y-117296916D01*
X138824917Y-117245728D01*
X138843559Y-117232183D01*
X138861208Y-117214535D01*
X138910354Y-117183654D01*
X138960162Y-117147467D01*
X138986873Y-117135574D01*
X139012893Y-117119225D01*
X139062877Y-117101734D01*
X139112889Y-117079468D01*
X139147592Y-117072091D01*
X139181983Y-117060058D01*
X139229281Y-117054728D01*
X139276412Y-117044711D01*
X139318189Y-117044711D01*
X139360000Y-117040000D01*
X139401811Y-117044711D01*
G37*
G36*
X154641811Y-117044711D02*
G01*
X154683588Y-117044711D01*
X154730718Y-117054728D01*
X154778017Y-117060058D01*
X154812408Y-117072092D01*
X154847110Y-117079468D01*
X154897117Y-117101733D01*
X154947107Y-117119225D01*
X154973128Y-117135575D01*
X154999835Y-117147466D01*
X155049633Y-117183646D01*
X155098792Y-117214535D01*
X155116444Y-117232187D01*
X155135084Y-117245730D01*
X155181165Y-117296908D01*
X155225465Y-117341208D01*
X155235654Y-117357424D01*
X155246946Y-117369965D01*
X155285573Y-117436870D01*
X155320775Y-117492893D01*
X155325170Y-117505453D01*
X155330535Y-117514746D01*
X155358010Y-117599305D01*
X155379942Y-117661983D01*
X155380773Y-117669363D01*
X155382195Y-117673738D01*
X155395076Y-117796306D01*
X155400000Y-117840000D01*
X155395076Y-117883697D01*
X155382195Y-118006261D01*
X155380773Y-118010635D01*
X155379942Y-118018017D01*
X155358005Y-118080707D01*
X155330535Y-118165253D01*
X155325171Y-118174543D01*
X155320775Y-118187107D01*
X155285566Y-118243140D01*
X155246946Y-118310034D01*
X155235656Y-118322572D01*
X155225465Y-118338792D01*
X155181155Y-118383101D01*
X155135084Y-118434269D01*
X155116448Y-118447808D01*
X155098792Y-118465465D01*
X155049623Y-118496359D01*
X154999835Y-118532533D01*
X154973134Y-118544421D01*
X154947107Y-118560775D01*
X154897107Y-118578270D01*
X154847110Y-118600531D01*
X154812414Y-118607905D01*
X154778017Y-118619942D01*
X154730715Y-118625271D01*
X154683588Y-118635289D01*
X154641811Y-118635289D01*
X154600000Y-118640000D01*
X154558189Y-118635289D01*
X154516412Y-118635289D01*
X154469284Y-118625271D01*
X154421983Y-118619942D01*
X154387586Y-118607906D01*
X154352889Y-118600531D01*
X154302887Y-118578268D01*
X154252893Y-118560775D01*
X154226868Y-118544422D01*
X154200164Y-118532533D01*
X154150369Y-118496355D01*
X154101208Y-118465465D01*
X154083554Y-118447811D01*
X154064915Y-118434269D01*
X154018833Y-118383090D01*
X153974535Y-118338792D01*
X153964345Y-118322575D01*
X153953053Y-118310034D01*
X153914420Y-118243120D01*
X153879225Y-118187107D01*
X153874830Y-118174547D01*
X153869464Y-118165253D01*
X153841980Y-118080667D01*
X153820058Y-118018017D01*
X153819226Y-118010639D01*
X153817804Y-118006261D01*
X153804908Y-117883565D01*
X153800000Y-117840000D01*
X153804908Y-117796438D01*
X153817804Y-117673738D01*
X153819226Y-117669358D01*
X153820058Y-117661983D01*
X153841975Y-117599345D01*
X153869464Y-117514746D01*
X153874831Y-117505449D01*
X153879225Y-117492893D01*
X153914413Y-117436890D01*
X153953053Y-117369965D01*
X153964347Y-117357421D01*
X153974535Y-117341208D01*
X154018826Y-117296916D01*
X154064917Y-117245728D01*
X154083559Y-117232183D01*
X154101208Y-117214535D01*
X154150354Y-117183654D01*
X154200162Y-117147467D01*
X154226873Y-117135574D01*
X154252893Y-117119225D01*
X154302877Y-117101734D01*
X154352889Y-117079468D01*
X154387592Y-117072091D01*
X154421983Y-117060058D01*
X154469281Y-117054728D01*
X154516412Y-117044711D01*
X154558189Y-117044711D01*
X154600000Y-117040000D01*
X154641811Y-117044711D01*
G37*
G36*
X158401933Y-116055104D02*
G01*
X158444376Y-116055104D01*
X158480119Y-116063914D01*
X158515680Y-116067921D01*
X158561679Y-116084017D01*
X158608223Y-116095489D01*
X158635745Y-116109933D01*
X158663553Y-116119664D01*
X158710549Y-116149193D01*
X158757645Y-116173911D01*
X158776568Y-116190675D01*
X158796205Y-116203014D01*
X158840541Y-116247350D01*
X158883958Y-116285814D01*
X158894994Y-116301803D01*
X158906985Y-116313794D01*
X158944680Y-116373786D01*
X158979819Y-116424694D01*
X158984617Y-116437346D01*
X158990335Y-116446446D01*
X159017370Y-116523710D01*
X159039659Y-116582479D01*
X159040575Y-116590024D01*
X159042078Y-116594319D01*
X159054723Y-116706543D01*
X159060000Y-116750000D01*
X159054722Y-116793459D01*
X159042078Y-116905680D01*
X159040575Y-116909974D01*
X159039659Y-116917521D01*
X159017366Y-116976301D01*
X158990335Y-117053553D01*
X158984618Y-117062650D01*
X158979819Y-117075306D01*
X158944673Y-117126223D01*
X158906985Y-117186205D01*
X158894997Y-117198192D01*
X158883958Y-117214186D01*
X158840532Y-117252657D01*
X158796205Y-117296985D01*
X158776572Y-117309320D01*
X158757645Y-117326089D01*
X158710540Y-117350811D01*
X158663553Y-117380335D01*
X158635750Y-117390063D01*
X158608223Y-117404511D01*
X158561670Y-117415985D01*
X158515680Y-117432078D01*
X158480126Y-117436084D01*
X158444376Y-117444896D01*
X158401924Y-117444896D01*
X158360000Y-117449620D01*
X158318076Y-117444896D01*
X158275624Y-117444896D01*
X158239873Y-117436084D01*
X158204319Y-117432078D01*
X158158326Y-117415984D01*
X158111777Y-117404511D01*
X158084251Y-117390064D01*
X158056446Y-117380335D01*
X158009453Y-117350808D01*
X157962355Y-117326089D01*
X157943430Y-117309323D01*
X157923794Y-117296985D01*
X157879458Y-117252649D01*
X157836042Y-117214186D01*
X157825005Y-117198196D01*
X157813014Y-117186205D01*
X157775315Y-117126207D01*
X157740181Y-117075306D01*
X157735383Y-117062654D01*
X157729664Y-117053553D01*
X157702620Y-116976267D01*
X157680341Y-116917521D01*
X157679425Y-116909978D01*
X157677921Y-116905680D01*
X157665263Y-116793345D01*
X157660000Y-116750000D01*
X157665262Y-116706658D01*
X157677921Y-116594319D01*
X157679425Y-116590019D01*
X157680341Y-116582479D01*
X157702616Y-116523744D01*
X157729664Y-116446446D01*
X157735384Y-116437342D01*
X157740181Y-116424694D01*
X157775308Y-116373802D01*
X157813014Y-116313794D01*
X157825007Y-116301800D01*
X157836042Y-116285814D01*
X157879449Y-116247358D01*
X157923794Y-116203014D01*
X157943433Y-116190673D01*
X157962355Y-116173911D01*
X158009444Y-116149196D01*
X158056446Y-116119664D01*
X158084256Y-116109932D01*
X158111777Y-116095489D01*
X158158316Y-116084017D01*
X158204319Y-116067921D01*
X158239881Y-116063913D01*
X158275624Y-116055104D01*
X158318067Y-116055104D01*
X158360000Y-116050379D01*
X158401933Y-116055104D01*
G37*
G36*
X139401811Y-114504711D02*
G01*
X139443588Y-114504711D01*
X139490718Y-114514728D01*
X139538017Y-114520058D01*
X139572408Y-114532092D01*
X139607110Y-114539468D01*
X139657117Y-114561733D01*
X139707107Y-114579225D01*
X139733128Y-114595575D01*
X139759835Y-114607466D01*
X139809633Y-114643646D01*
X139858792Y-114674535D01*
X139876444Y-114692187D01*
X139895084Y-114705730D01*
X139941165Y-114756908D01*
X139985465Y-114801208D01*
X139995654Y-114817424D01*
X140006946Y-114829965D01*
X140045573Y-114896870D01*
X140080775Y-114952893D01*
X140085170Y-114965453D01*
X140090535Y-114974746D01*
X140118010Y-115059305D01*
X140139942Y-115121983D01*
X140140773Y-115129363D01*
X140142195Y-115133738D01*
X140155076Y-115256306D01*
X140160000Y-115300000D01*
X140155076Y-115343697D01*
X140142195Y-115466261D01*
X140140773Y-115470635D01*
X140139942Y-115478017D01*
X140118005Y-115540707D01*
X140090535Y-115625253D01*
X140085171Y-115634543D01*
X140080775Y-115647107D01*
X140045566Y-115703140D01*
X140006946Y-115770034D01*
X139995656Y-115782572D01*
X139985465Y-115798792D01*
X139941155Y-115843101D01*
X139895084Y-115894269D01*
X139876448Y-115907808D01*
X139858792Y-115925465D01*
X139809623Y-115956359D01*
X139759835Y-115992533D01*
X139733134Y-116004421D01*
X139707107Y-116020775D01*
X139657107Y-116038270D01*
X139607110Y-116060531D01*
X139572414Y-116067905D01*
X139538017Y-116079942D01*
X139490715Y-116085271D01*
X139443588Y-116095289D01*
X139401811Y-116095289D01*
X139360000Y-116100000D01*
X139318189Y-116095289D01*
X139276412Y-116095289D01*
X139229284Y-116085271D01*
X139181983Y-116079942D01*
X139147586Y-116067906D01*
X139112889Y-116060531D01*
X139062887Y-116038268D01*
X139012893Y-116020775D01*
X138986868Y-116004422D01*
X138960164Y-115992533D01*
X138910369Y-115956355D01*
X138861208Y-115925465D01*
X138843554Y-115907811D01*
X138824915Y-115894269D01*
X138778833Y-115843090D01*
X138734535Y-115798792D01*
X138724345Y-115782575D01*
X138713053Y-115770034D01*
X138674420Y-115703120D01*
X138639225Y-115647107D01*
X138634830Y-115634547D01*
X138629464Y-115625253D01*
X138601980Y-115540667D01*
X138580058Y-115478017D01*
X138579226Y-115470639D01*
X138577804Y-115466261D01*
X138564908Y-115343565D01*
X138560000Y-115300000D01*
X138564908Y-115256438D01*
X138577804Y-115133738D01*
X138579226Y-115129358D01*
X138580058Y-115121983D01*
X138601975Y-115059345D01*
X138629464Y-114974746D01*
X138634831Y-114965449D01*
X138639225Y-114952893D01*
X138674413Y-114896890D01*
X138713053Y-114829965D01*
X138724347Y-114817421D01*
X138734535Y-114801208D01*
X138778826Y-114756916D01*
X138824917Y-114705728D01*
X138843559Y-114692183D01*
X138861208Y-114674535D01*
X138910354Y-114643654D01*
X138960162Y-114607467D01*
X138986873Y-114595574D01*
X139012893Y-114579225D01*
X139062877Y-114561734D01*
X139112889Y-114539468D01*
X139147592Y-114532091D01*
X139181983Y-114520058D01*
X139229281Y-114514728D01*
X139276412Y-114504711D01*
X139318189Y-114504711D01*
X139360000Y-114500000D01*
X139401811Y-114504711D01*
G37*
G36*
X154641811Y-114504711D02*
G01*
X154683588Y-114504711D01*
X154730718Y-114514728D01*
X154778017Y-114520058D01*
X154812408Y-114532092D01*
X154847110Y-114539468D01*
X154897117Y-114561733D01*
X154947107Y-114579225D01*
X154973128Y-114595575D01*
X154999835Y-114607466D01*
X155049633Y-114643646D01*
X155098792Y-114674535D01*
X155116444Y-114692187D01*
X155135084Y-114705730D01*
X155181165Y-114756908D01*
X155225465Y-114801208D01*
X155235654Y-114817424D01*
X155246946Y-114829965D01*
X155285573Y-114896870D01*
X155320775Y-114952893D01*
X155325170Y-114965453D01*
X155330535Y-114974746D01*
X155358010Y-115059305D01*
X155379942Y-115121983D01*
X155380773Y-115129363D01*
X155382195Y-115133738D01*
X155395076Y-115256306D01*
X155400000Y-115300000D01*
X155395076Y-115343697D01*
X155382195Y-115466261D01*
X155380773Y-115470635D01*
X155379942Y-115478017D01*
X155358005Y-115540707D01*
X155330535Y-115625253D01*
X155325171Y-115634543D01*
X155320775Y-115647107D01*
X155285566Y-115703140D01*
X155246946Y-115770034D01*
X155235656Y-115782572D01*
X155225465Y-115798792D01*
X155181155Y-115843101D01*
X155135084Y-115894269D01*
X155116448Y-115907808D01*
X155098792Y-115925465D01*
X155049623Y-115956359D01*
X154999835Y-115992533D01*
X154973134Y-116004421D01*
X154947107Y-116020775D01*
X154897107Y-116038270D01*
X154847110Y-116060531D01*
X154812414Y-116067905D01*
X154778017Y-116079942D01*
X154730715Y-116085271D01*
X154683588Y-116095289D01*
X154641811Y-116095289D01*
X154600000Y-116100000D01*
X154558189Y-116095289D01*
X154516412Y-116095289D01*
X154469284Y-116085271D01*
X154421983Y-116079942D01*
X154387586Y-116067906D01*
X154352889Y-116060531D01*
X154302887Y-116038268D01*
X154252893Y-116020775D01*
X154226868Y-116004422D01*
X154200164Y-115992533D01*
X154150369Y-115956355D01*
X154101208Y-115925465D01*
X154083554Y-115907811D01*
X154064915Y-115894269D01*
X154018833Y-115843090D01*
X153974535Y-115798792D01*
X153964345Y-115782575D01*
X153953053Y-115770034D01*
X153914420Y-115703120D01*
X153879225Y-115647107D01*
X153874830Y-115634547D01*
X153869464Y-115625253D01*
X153841980Y-115540667D01*
X153820058Y-115478017D01*
X153819226Y-115470639D01*
X153817804Y-115466261D01*
X153804908Y-115343565D01*
X153800000Y-115300000D01*
X153804908Y-115256438D01*
X153817804Y-115133738D01*
X153819226Y-115129358D01*
X153820058Y-115121983D01*
X153841975Y-115059345D01*
X153869464Y-114974746D01*
X153874831Y-114965449D01*
X153879225Y-114952893D01*
X153914413Y-114896890D01*
X153953053Y-114829965D01*
X153964347Y-114817421D01*
X153974535Y-114801208D01*
X154018826Y-114756916D01*
X154064917Y-114705728D01*
X154083559Y-114692183D01*
X154101208Y-114674535D01*
X154150354Y-114643654D01*
X154200162Y-114607467D01*
X154226873Y-114595574D01*
X154252893Y-114579225D01*
X154302877Y-114561734D01*
X154352889Y-114539468D01*
X154387592Y-114532091D01*
X154421983Y-114520058D01*
X154469281Y-114514728D01*
X154516412Y-114504711D01*
X154558189Y-114504711D01*
X154600000Y-114500000D01*
X154641811Y-114504711D01*
G37*
G36*
X139401811Y-111964711D02*
G01*
X139443588Y-111964711D01*
X139490718Y-111974728D01*
X139538017Y-111980058D01*
X139572408Y-111992092D01*
X139607110Y-111999468D01*
X139657117Y-112021733D01*
X139707107Y-112039225D01*
X139733128Y-112055575D01*
X139759835Y-112067466D01*
X139809633Y-112103646D01*
X139858792Y-112134535D01*
X139876444Y-112152187D01*
X139895084Y-112165730D01*
X139941165Y-112216908D01*
X139985465Y-112261208D01*
X139995654Y-112277424D01*
X140006946Y-112289965D01*
X140045573Y-112356870D01*
X140080775Y-112412893D01*
X140085170Y-112425453D01*
X140090535Y-112434746D01*
X140118010Y-112519305D01*
X140139942Y-112581983D01*
X140140773Y-112589363D01*
X140142195Y-112593738D01*
X140155076Y-112716306D01*
X140160000Y-112760000D01*
X140155076Y-112803697D01*
X140142195Y-112926261D01*
X140140773Y-112930635D01*
X140139942Y-112938017D01*
X140118005Y-113000707D01*
X140090535Y-113085253D01*
X140085171Y-113094543D01*
X140080775Y-113107107D01*
X140045566Y-113163140D01*
X140006946Y-113230034D01*
X139995656Y-113242572D01*
X139985465Y-113258792D01*
X139941155Y-113303101D01*
X139895084Y-113354269D01*
X139876448Y-113367808D01*
X139858792Y-113385465D01*
X139809623Y-113416359D01*
X139759835Y-113452533D01*
X139733134Y-113464421D01*
X139707107Y-113480775D01*
X139657107Y-113498270D01*
X139607110Y-113520531D01*
X139572414Y-113527905D01*
X139538017Y-113539942D01*
X139490715Y-113545271D01*
X139443588Y-113555289D01*
X139401811Y-113555289D01*
X139360000Y-113560000D01*
X139318189Y-113555289D01*
X139276412Y-113555289D01*
X139229284Y-113545271D01*
X139181983Y-113539942D01*
X139147586Y-113527906D01*
X139112889Y-113520531D01*
X139062887Y-113498268D01*
X139012893Y-113480775D01*
X138986868Y-113464422D01*
X138960164Y-113452533D01*
X138910369Y-113416355D01*
X138861208Y-113385465D01*
X138843554Y-113367811D01*
X138824915Y-113354269D01*
X138778833Y-113303090D01*
X138734535Y-113258792D01*
X138724345Y-113242575D01*
X138713053Y-113230034D01*
X138674420Y-113163120D01*
X138639225Y-113107107D01*
X138634830Y-113094547D01*
X138629464Y-113085253D01*
X138601980Y-113000667D01*
X138580058Y-112938017D01*
X138579226Y-112930639D01*
X138577804Y-112926261D01*
X138564908Y-112803565D01*
X138560000Y-112760000D01*
X138564908Y-112716438D01*
X138577804Y-112593738D01*
X138579226Y-112589358D01*
X138580058Y-112581983D01*
X138601975Y-112519345D01*
X138629464Y-112434746D01*
X138634831Y-112425449D01*
X138639225Y-112412893D01*
X138674413Y-112356890D01*
X138713053Y-112289965D01*
X138724347Y-112277421D01*
X138734535Y-112261208D01*
X138778826Y-112216916D01*
X138824917Y-112165728D01*
X138843559Y-112152183D01*
X138861208Y-112134535D01*
X138910354Y-112103654D01*
X138960162Y-112067467D01*
X138986873Y-112055574D01*
X139012893Y-112039225D01*
X139062877Y-112021734D01*
X139112889Y-111999468D01*
X139147592Y-111992091D01*
X139181983Y-111980058D01*
X139229281Y-111974728D01*
X139276412Y-111964711D01*
X139318189Y-111964711D01*
X139360000Y-111960000D01*
X139401811Y-111964711D01*
G37*
G36*
X154641811Y-111964711D02*
G01*
X154683588Y-111964711D01*
X154730718Y-111974728D01*
X154778017Y-111980058D01*
X154812408Y-111992092D01*
X154847110Y-111999468D01*
X154897117Y-112021733D01*
X154947107Y-112039225D01*
X154973128Y-112055575D01*
X154999835Y-112067466D01*
X155049633Y-112103646D01*
X155098792Y-112134535D01*
X155116444Y-112152187D01*
X155135084Y-112165730D01*
X155181165Y-112216908D01*
X155225465Y-112261208D01*
X155235654Y-112277424D01*
X155246946Y-112289965D01*
X155285573Y-112356870D01*
X155320775Y-112412893D01*
X155325170Y-112425453D01*
X155330535Y-112434746D01*
X155358010Y-112519305D01*
X155379942Y-112581983D01*
X155380773Y-112589363D01*
X155382195Y-112593738D01*
X155395076Y-112716306D01*
X155400000Y-112760000D01*
X155395076Y-112803697D01*
X155382195Y-112926261D01*
X155380773Y-112930635D01*
X155379942Y-112938017D01*
X155358005Y-113000707D01*
X155330535Y-113085253D01*
X155325171Y-113094543D01*
X155320775Y-113107107D01*
X155285566Y-113163140D01*
X155246946Y-113230034D01*
X155235656Y-113242572D01*
X155225465Y-113258792D01*
X155181155Y-113303101D01*
X155135084Y-113354269D01*
X155116448Y-113367808D01*
X155098792Y-113385465D01*
X155049623Y-113416359D01*
X154999835Y-113452533D01*
X154973134Y-113464421D01*
X154947107Y-113480775D01*
X154897107Y-113498270D01*
X154847110Y-113520531D01*
X154812414Y-113527905D01*
X154778017Y-113539942D01*
X154730715Y-113545271D01*
X154683588Y-113555289D01*
X154641811Y-113555289D01*
X154600000Y-113560000D01*
X154558189Y-113555289D01*
X154516412Y-113555289D01*
X154469284Y-113545271D01*
X154421983Y-113539942D01*
X154387586Y-113527906D01*
X154352889Y-113520531D01*
X154302887Y-113498268D01*
X154252893Y-113480775D01*
X154226868Y-113464422D01*
X154200164Y-113452533D01*
X154150369Y-113416355D01*
X154101208Y-113385465D01*
X154083554Y-113367811D01*
X154064915Y-113354269D01*
X154018833Y-113303090D01*
X153974535Y-113258792D01*
X153964345Y-113242575D01*
X153953053Y-113230034D01*
X153914420Y-113163120D01*
X153879225Y-113107107D01*
X153874830Y-113094547D01*
X153869464Y-113085253D01*
X153841980Y-113000667D01*
X153820058Y-112938017D01*
X153819226Y-112930639D01*
X153817804Y-112926261D01*
X153804908Y-112803565D01*
X153800000Y-112760000D01*
X153804908Y-112716438D01*
X153817804Y-112593738D01*
X153819226Y-112589358D01*
X153820058Y-112581983D01*
X153841975Y-112519345D01*
X153869464Y-112434746D01*
X153874831Y-112425449D01*
X153879225Y-112412893D01*
X153914413Y-112356890D01*
X153953053Y-112289965D01*
X153964347Y-112277421D01*
X153974535Y-112261208D01*
X154018826Y-112216916D01*
X154064917Y-112165728D01*
X154083559Y-112152183D01*
X154101208Y-112134535D01*
X154150354Y-112103654D01*
X154200162Y-112067467D01*
X154226873Y-112055574D01*
X154252893Y-112039225D01*
X154302877Y-112021734D01*
X154352889Y-111999468D01*
X154387592Y-111992091D01*
X154421983Y-111980058D01*
X154469281Y-111974728D01*
X154516412Y-111964711D01*
X154558189Y-111964711D01*
X154600000Y-111960000D01*
X154641811Y-111964711D01*
G37*
G36*
X126601933Y-111875104D02*
G01*
X126644376Y-111875104D01*
X126680119Y-111883914D01*
X126715680Y-111887921D01*
X126761679Y-111904017D01*
X126808223Y-111915489D01*
X126835745Y-111929933D01*
X126863553Y-111939664D01*
X126910549Y-111969193D01*
X126957645Y-111993911D01*
X126976568Y-112010675D01*
X126996205Y-112023014D01*
X127040541Y-112067350D01*
X127083958Y-112105814D01*
X127094994Y-112121803D01*
X127106985Y-112133794D01*
X127144680Y-112193786D01*
X127179819Y-112244694D01*
X127184617Y-112257346D01*
X127190335Y-112266446D01*
X127217370Y-112343710D01*
X127239659Y-112402479D01*
X127240575Y-112410024D01*
X127242078Y-112414319D01*
X127254723Y-112526543D01*
X127260000Y-112570000D01*
X127254722Y-112613459D01*
X127242078Y-112725680D01*
X127240575Y-112729974D01*
X127239659Y-112737521D01*
X127217366Y-112796301D01*
X127190335Y-112873553D01*
X127184618Y-112882650D01*
X127179819Y-112895306D01*
X127144673Y-112946223D01*
X127106985Y-113006205D01*
X127094997Y-113018192D01*
X127083958Y-113034186D01*
X127040532Y-113072657D01*
X126996205Y-113116985D01*
X126976572Y-113129320D01*
X126957645Y-113146089D01*
X126910540Y-113170811D01*
X126863553Y-113200335D01*
X126835750Y-113210063D01*
X126808223Y-113224511D01*
X126761670Y-113235985D01*
X126715680Y-113252078D01*
X126680126Y-113256084D01*
X126644376Y-113264896D01*
X126601924Y-113264896D01*
X126560000Y-113269620D01*
X126518076Y-113264896D01*
X126475624Y-113264896D01*
X126439873Y-113256084D01*
X126404319Y-113252078D01*
X126358326Y-113235984D01*
X126311777Y-113224511D01*
X126284251Y-113210064D01*
X126256446Y-113200335D01*
X126209453Y-113170808D01*
X126162355Y-113146089D01*
X126143430Y-113129323D01*
X126123794Y-113116985D01*
X126079458Y-113072649D01*
X126036042Y-113034186D01*
X126025005Y-113018196D01*
X126013014Y-113006205D01*
X125975315Y-112946207D01*
X125940181Y-112895306D01*
X125935383Y-112882654D01*
X125929664Y-112873553D01*
X125902620Y-112796267D01*
X125880341Y-112737521D01*
X125879425Y-112729978D01*
X125877921Y-112725680D01*
X125865263Y-112613345D01*
X125860000Y-112570000D01*
X125865262Y-112526658D01*
X125877921Y-112414319D01*
X125879425Y-112410019D01*
X125880341Y-112402479D01*
X125902616Y-112343744D01*
X125929664Y-112266446D01*
X125935384Y-112257342D01*
X125940181Y-112244694D01*
X125975308Y-112193802D01*
X126013014Y-112133794D01*
X126025007Y-112121800D01*
X126036042Y-112105814D01*
X126079449Y-112067358D01*
X126123794Y-112023014D01*
X126143433Y-112010673D01*
X126162355Y-111993911D01*
X126209444Y-111969196D01*
X126256446Y-111939664D01*
X126284256Y-111929932D01*
X126311777Y-111915489D01*
X126358316Y-111904017D01*
X126404319Y-111887921D01*
X126439881Y-111883913D01*
X126475624Y-111875104D01*
X126518067Y-111875104D01*
X126560000Y-111870379D01*
X126601933Y-111875104D01*
G37*
G36*
X134221933Y-111875104D02*
G01*
X134264376Y-111875104D01*
X134300119Y-111883914D01*
X134335680Y-111887921D01*
X134381679Y-111904017D01*
X134428223Y-111915489D01*
X134455745Y-111929933D01*
X134483553Y-111939664D01*
X134530549Y-111969193D01*
X134577645Y-111993911D01*
X134596568Y-112010675D01*
X134616205Y-112023014D01*
X134660541Y-112067350D01*
X134703958Y-112105814D01*
X134714994Y-112121803D01*
X134726985Y-112133794D01*
X134764680Y-112193786D01*
X134799819Y-112244694D01*
X134804617Y-112257346D01*
X134810335Y-112266446D01*
X134837370Y-112343710D01*
X134859659Y-112402479D01*
X134860575Y-112410024D01*
X134862078Y-112414319D01*
X134874723Y-112526543D01*
X134880000Y-112570000D01*
X134874722Y-112613459D01*
X134862078Y-112725680D01*
X134860575Y-112729974D01*
X134859659Y-112737521D01*
X134837366Y-112796301D01*
X134810335Y-112873553D01*
X134804618Y-112882650D01*
X134799819Y-112895306D01*
X134764673Y-112946223D01*
X134726985Y-113006205D01*
X134714997Y-113018192D01*
X134703958Y-113034186D01*
X134660532Y-113072657D01*
X134616205Y-113116985D01*
X134596572Y-113129320D01*
X134577645Y-113146089D01*
X134530540Y-113170811D01*
X134483553Y-113200335D01*
X134455750Y-113210063D01*
X134428223Y-113224511D01*
X134381670Y-113235985D01*
X134335680Y-113252078D01*
X134300126Y-113256084D01*
X134264376Y-113264896D01*
X134221924Y-113264896D01*
X134180000Y-113269620D01*
X134138076Y-113264896D01*
X134095624Y-113264896D01*
X134059873Y-113256084D01*
X134024319Y-113252078D01*
X133978326Y-113235984D01*
X133931777Y-113224511D01*
X133904251Y-113210064D01*
X133876446Y-113200335D01*
X133829453Y-113170808D01*
X133782355Y-113146089D01*
X133763430Y-113129323D01*
X133743794Y-113116985D01*
X133699458Y-113072649D01*
X133656042Y-113034186D01*
X133645005Y-113018196D01*
X133633014Y-113006205D01*
X133595315Y-112946207D01*
X133560181Y-112895306D01*
X133555383Y-112882654D01*
X133549664Y-112873553D01*
X133522620Y-112796267D01*
X133500341Y-112737521D01*
X133499425Y-112729978D01*
X133497921Y-112725680D01*
X133485263Y-112613345D01*
X133480000Y-112570000D01*
X133485262Y-112526658D01*
X133497921Y-112414319D01*
X133499425Y-112410019D01*
X133500341Y-112402479D01*
X133522616Y-112343744D01*
X133549664Y-112266446D01*
X133555384Y-112257342D01*
X133560181Y-112244694D01*
X133595308Y-112193802D01*
X133633014Y-112133794D01*
X133645007Y-112121800D01*
X133656042Y-112105814D01*
X133699449Y-112067358D01*
X133743794Y-112023014D01*
X133763433Y-112010673D01*
X133782355Y-111993911D01*
X133829444Y-111969196D01*
X133876446Y-111939664D01*
X133904256Y-111929932D01*
X133931777Y-111915489D01*
X133978316Y-111904017D01*
X134024319Y-111887921D01*
X134059881Y-111883913D01*
X134095624Y-111875104D01*
X134138067Y-111875104D01*
X134180000Y-111870379D01*
X134221933Y-111875104D01*
G37*
G36*
X139401811Y-109424711D02*
G01*
X139443588Y-109424711D01*
X139490718Y-109434728D01*
X139538017Y-109440058D01*
X139572408Y-109452092D01*
X139607110Y-109459468D01*
X139657117Y-109481733D01*
X139707107Y-109499225D01*
X139733128Y-109515575D01*
X139759835Y-109527466D01*
X139809633Y-109563646D01*
X139858792Y-109594535D01*
X139876444Y-109612187D01*
X139895084Y-109625730D01*
X139941165Y-109676908D01*
X139985465Y-109721208D01*
X139995654Y-109737424D01*
X140006946Y-109749965D01*
X140045573Y-109816870D01*
X140080775Y-109872893D01*
X140085170Y-109885453D01*
X140090535Y-109894746D01*
X140118010Y-109979305D01*
X140139942Y-110041983D01*
X140140773Y-110049363D01*
X140142195Y-110053738D01*
X140155076Y-110176306D01*
X140160000Y-110220000D01*
X140155076Y-110263697D01*
X140142195Y-110386261D01*
X140140773Y-110390635D01*
X140139942Y-110398017D01*
X140118005Y-110460707D01*
X140090535Y-110545253D01*
X140085171Y-110554543D01*
X140080775Y-110567107D01*
X140045566Y-110623140D01*
X140006946Y-110690034D01*
X139995656Y-110702572D01*
X139985465Y-110718792D01*
X139941155Y-110763101D01*
X139895084Y-110814269D01*
X139876448Y-110827808D01*
X139858792Y-110845465D01*
X139809623Y-110876359D01*
X139759835Y-110912533D01*
X139733134Y-110924421D01*
X139707107Y-110940775D01*
X139657107Y-110958270D01*
X139607110Y-110980531D01*
X139572414Y-110987905D01*
X139538017Y-110999942D01*
X139490715Y-111005271D01*
X139443588Y-111015289D01*
X139401811Y-111015289D01*
X139360000Y-111020000D01*
X139318189Y-111015289D01*
X139276412Y-111015289D01*
X139229284Y-111005271D01*
X139181983Y-110999942D01*
X139147586Y-110987906D01*
X139112889Y-110980531D01*
X139062887Y-110958268D01*
X139012893Y-110940775D01*
X138986868Y-110924422D01*
X138960164Y-110912533D01*
X138910369Y-110876355D01*
X138861208Y-110845465D01*
X138843554Y-110827811D01*
X138824915Y-110814269D01*
X138778833Y-110763090D01*
X138734535Y-110718792D01*
X138724345Y-110702575D01*
X138713053Y-110690034D01*
X138674420Y-110623120D01*
X138639225Y-110567107D01*
X138634830Y-110554547D01*
X138629464Y-110545253D01*
X138601980Y-110460667D01*
X138580058Y-110398017D01*
X138579226Y-110390639D01*
X138577804Y-110386261D01*
X138564908Y-110263565D01*
X138560000Y-110220000D01*
X138564908Y-110176438D01*
X138577804Y-110053738D01*
X138579226Y-110049358D01*
X138580058Y-110041983D01*
X138601975Y-109979345D01*
X138629464Y-109894746D01*
X138634831Y-109885449D01*
X138639225Y-109872893D01*
X138674413Y-109816890D01*
X138713053Y-109749965D01*
X138724347Y-109737421D01*
X138734535Y-109721208D01*
X138778826Y-109676916D01*
X138824917Y-109625728D01*
X138843559Y-109612183D01*
X138861208Y-109594535D01*
X138910354Y-109563654D01*
X138960162Y-109527467D01*
X138986873Y-109515574D01*
X139012893Y-109499225D01*
X139062877Y-109481734D01*
X139112889Y-109459468D01*
X139147592Y-109452091D01*
X139181983Y-109440058D01*
X139229281Y-109434728D01*
X139276412Y-109424711D01*
X139318189Y-109424711D01*
X139360000Y-109420000D01*
X139401811Y-109424711D01*
G37*
G36*
X154641811Y-109424711D02*
G01*
X154683588Y-109424711D01*
X154730718Y-109434728D01*
X154778017Y-109440058D01*
X154812408Y-109452092D01*
X154847110Y-109459468D01*
X154897117Y-109481733D01*
X154947107Y-109499225D01*
X154973128Y-109515575D01*
X154999835Y-109527466D01*
X155049633Y-109563646D01*
X155098792Y-109594535D01*
X155116444Y-109612187D01*
X155135084Y-109625730D01*
X155181165Y-109676908D01*
X155225465Y-109721208D01*
X155235654Y-109737424D01*
X155246946Y-109749965D01*
X155285573Y-109816870D01*
X155320775Y-109872893D01*
X155325170Y-109885453D01*
X155330535Y-109894746D01*
X155358010Y-109979305D01*
X155379942Y-110041983D01*
X155380773Y-110049363D01*
X155382195Y-110053738D01*
X155395076Y-110176306D01*
X155400000Y-110220000D01*
X155395076Y-110263697D01*
X155382195Y-110386261D01*
X155380773Y-110390635D01*
X155379942Y-110398017D01*
X155358005Y-110460707D01*
X155330535Y-110545253D01*
X155325171Y-110554543D01*
X155320775Y-110567107D01*
X155285566Y-110623140D01*
X155246946Y-110690034D01*
X155235656Y-110702572D01*
X155225465Y-110718792D01*
X155181155Y-110763101D01*
X155135084Y-110814269D01*
X155116448Y-110827808D01*
X155098792Y-110845465D01*
X155049623Y-110876359D01*
X154999835Y-110912533D01*
X154973134Y-110924421D01*
X154947107Y-110940775D01*
X154897107Y-110958270D01*
X154847110Y-110980531D01*
X154812414Y-110987905D01*
X154778017Y-110999942D01*
X154730715Y-111005271D01*
X154683588Y-111015289D01*
X154641811Y-111015289D01*
X154600000Y-111020000D01*
X154558189Y-111015289D01*
X154516412Y-111015289D01*
X154469284Y-111005271D01*
X154421983Y-110999942D01*
X154387586Y-110987906D01*
X154352889Y-110980531D01*
X154302887Y-110958268D01*
X154252893Y-110940775D01*
X154226868Y-110924422D01*
X154200164Y-110912533D01*
X154150369Y-110876355D01*
X154101208Y-110845465D01*
X154083554Y-110827811D01*
X154064915Y-110814269D01*
X154018833Y-110763090D01*
X153974535Y-110718792D01*
X153964345Y-110702575D01*
X153953053Y-110690034D01*
X153914420Y-110623120D01*
X153879225Y-110567107D01*
X153874830Y-110554547D01*
X153869464Y-110545253D01*
X153841980Y-110460667D01*
X153820058Y-110398017D01*
X153819226Y-110390639D01*
X153817804Y-110386261D01*
X153804908Y-110263565D01*
X153800000Y-110220000D01*
X153804908Y-110176438D01*
X153817804Y-110053738D01*
X153819226Y-110049358D01*
X153820058Y-110041983D01*
X153841975Y-109979345D01*
X153869464Y-109894746D01*
X153874831Y-109885449D01*
X153879225Y-109872893D01*
X153914413Y-109816890D01*
X153953053Y-109749965D01*
X153964347Y-109737421D01*
X153974535Y-109721208D01*
X154018826Y-109676916D01*
X154064917Y-109625728D01*
X154083559Y-109612183D01*
X154101208Y-109594535D01*
X154150354Y-109563654D01*
X154200162Y-109527467D01*
X154226873Y-109515574D01*
X154252893Y-109499225D01*
X154302877Y-109481734D01*
X154352889Y-109459468D01*
X154387592Y-109452091D01*
X154421983Y-109440058D01*
X154469281Y-109434728D01*
X154516412Y-109424711D01*
X154558189Y-109424711D01*
X154600000Y-109420000D01*
X154641811Y-109424711D01*
G37*
G36*
X162300000Y-110770000D02*
G01*
X160500000Y-110770000D01*
X160500000Y-108970000D01*
X162300000Y-108970000D01*
X162300000Y-110770000D01*
G37*
G36*
X158907113Y-108974930D02*
G01*
X158954076Y-108974930D01*
X158994622Y-108983548D01*
X159035526Y-108987577D01*
X159086916Y-109003166D01*
X159138115Y-109014049D01*
X159170879Y-109028636D01*
X159204304Y-109038776D01*
X159257420Y-109067166D01*
X159310000Y-109090577D01*
X159334445Y-109108337D01*
X159359849Y-109121916D01*
X159411669Y-109164444D01*
X159462218Y-109201170D01*
X159478631Y-109219398D01*
X159496190Y-109233809D01*
X159543379Y-109291308D01*
X159588115Y-109340993D01*
X159597512Y-109357269D01*
X159608083Y-109370150D01*
X159647183Y-109443302D01*
X159682191Y-109503937D01*
X159686218Y-109516331D01*
X159691223Y-109525695D01*
X159718821Y-109616672D01*
X159740333Y-109682879D01*
X159741090Y-109690082D01*
X159742422Y-109694473D01*
X159755377Y-109826021D01*
X159760000Y-109870000D01*
X159755377Y-109913982D01*
X159742422Y-110045526D01*
X159741090Y-110049916D01*
X159740333Y-110057121D01*
X159718816Y-110123341D01*
X159691223Y-110214304D01*
X159686219Y-110223665D01*
X159682191Y-110236063D01*
X159647176Y-110296709D01*
X159608083Y-110369849D01*
X159597514Y-110382726D01*
X159588115Y-110399007D01*
X159543369Y-110448701D01*
X159496190Y-110506190D01*
X159478634Y-110520597D01*
X159462218Y-110538830D01*
X159411659Y-110575563D01*
X159359849Y-110618083D01*
X159334450Y-110631658D01*
X159310000Y-110649423D01*
X159257408Y-110672838D01*
X159204304Y-110701223D01*
X159170886Y-110711360D01*
X159138115Y-110725951D01*
X159086905Y-110736836D01*
X159035526Y-110752422D01*
X158994631Y-110756449D01*
X158954076Y-110765070D01*
X158907103Y-110765070D01*
X158860000Y-110769709D01*
X158812897Y-110765070D01*
X158765924Y-110765070D01*
X158725368Y-110756449D01*
X158684473Y-110752422D01*
X158633091Y-110736835D01*
X158581885Y-110725951D01*
X158549115Y-110711361D01*
X158515695Y-110701223D01*
X158462585Y-110672835D01*
X158410000Y-110649423D01*
X158385552Y-110631660D01*
X158360150Y-110618083D01*
X158308332Y-110575556D01*
X158257782Y-110538830D01*
X158241368Y-110520600D01*
X158223809Y-110506190D01*
X158176618Y-110448688D01*
X158131885Y-110399007D01*
X158122487Y-110382730D01*
X158111916Y-110369849D01*
X158072810Y-110296686D01*
X158037809Y-110236063D01*
X158033782Y-110223670D01*
X158028776Y-110214304D01*
X158001168Y-110123294D01*
X157979667Y-110057121D01*
X157978910Y-110049921D01*
X157977577Y-110045526D01*
X157964606Y-109913831D01*
X157960000Y-109870000D01*
X157964606Y-109826172D01*
X157977577Y-109694473D01*
X157978910Y-109690077D01*
X157979667Y-109682879D01*
X158001163Y-109616719D01*
X158028776Y-109525695D01*
X158033783Y-109516327D01*
X158037809Y-109503937D01*
X158072802Y-109443326D01*
X158111916Y-109370150D01*
X158122489Y-109357265D01*
X158131885Y-109340993D01*
X158176609Y-109291321D01*
X158223809Y-109233809D01*
X158241371Y-109219395D01*
X158257782Y-109201170D01*
X158308321Y-109164450D01*
X158360150Y-109121916D01*
X158385557Y-109108335D01*
X158410000Y-109090577D01*
X158462573Y-109067169D01*
X158515695Y-109038776D01*
X158549122Y-109028635D01*
X158581885Y-109014049D01*
X158633080Y-109003166D01*
X158684473Y-108987577D01*
X158725377Y-108983548D01*
X158765924Y-108974930D01*
X158812887Y-108974930D01*
X158860000Y-108970290D01*
X158907113Y-108974930D01*
G37*
G36*
X131403561Y-107683105D02*
G01*
X131564619Y-107739462D01*
X131709099Y-107830244D01*
X131829756Y-107950901D01*
X131920538Y-108095381D01*
X131976895Y-108256439D01*
X131996000Y-108426000D01*
X131976895Y-108595561D01*
X131920538Y-108756619D01*
X131829756Y-108901099D01*
X131709099Y-109021756D01*
X131564619Y-109112538D01*
X131403561Y-109168895D01*
X131234000Y-109188000D01*
X131064439Y-109168895D01*
X130903381Y-109112538D01*
X130758901Y-109021756D01*
X130638244Y-108901099D01*
X130547462Y-108756619D01*
X130491105Y-108595561D01*
X130472000Y-108426000D01*
X130491105Y-108256439D01*
X130547462Y-108095381D01*
X130638244Y-107950901D01*
X130758901Y-107830244D01*
X130903381Y-107739462D01*
X131064439Y-107683105D01*
X131234000Y-107664000D01*
X131403561Y-107683105D01*
G37*
G36*
X128440000Y-109124000D02*
G01*
X126916000Y-109124000D01*
X126916000Y-107600000D01*
X128440000Y-107600000D01*
X128440000Y-109124000D01*
G37*
G36*
X129625561Y-107619105D02*
G01*
X129786619Y-107675462D01*
X129931099Y-107766244D01*
X130051756Y-107886901D01*
X130142538Y-108031381D01*
X130198895Y-108192439D01*
X130218000Y-108362000D01*
X130198895Y-108531561D01*
X130142538Y-108692619D01*
X130051756Y-108837099D01*
X129931099Y-108957756D01*
X129786619Y-109048538D01*
X129625561Y-109104895D01*
X129456000Y-109124000D01*
X129286439Y-109104895D01*
X129125381Y-109048538D01*
X128980901Y-108957756D01*
X128860244Y-108837099D01*
X128769462Y-108692619D01*
X128713105Y-108531561D01*
X128694000Y-108362000D01*
X128713105Y-108192439D01*
X128769462Y-108031381D01*
X128860244Y-107886901D01*
X128980901Y-107766244D01*
X129125381Y-107675462D01*
X129286439Y-107619105D01*
X129456000Y-107600000D01*
X129625561Y-107619105D01*
G37*
G36*
X139401811Y-106884711D02*
G01*
X139443588Y-106884711D01*
X139490718Y-106894728D01*
X139538017Y-106900058D01*
X139572408Y-106912092D01*
X139607110Y-106919468D01*
X139657117Y-106941733D01*
X139707107Y-106959225D01*
X139733128Y-106975575D01*
X139759835Y-106987466D01*
X139809633Y-107023646D01*
X139858792Y-107054535D01*
X139876444Y-107072187D01*
X139895084Y-107085730D01*
X139941165Y-107136908D01*
X139985465Y-107181208D01*
X139995654Y-107197424D01*
X140006946Y-107209965D01*
X140045573Y-107276870D01*
X140080775Y-107332893D01*
X140085170Y-107345453D01*
X140090535Y-107354746D01*
X140118010Y-107439305D01*
X140139942Y-107501983D01*
X140140773Y-107509363D01*
X140142195Y-107513738D01*
X140155076Y-107636306D01*
X140160000Y-107680000D01*
X140155076Y-107723697D01*
X140142195Y-107846261D01*
X140140773Y-107850635D01*
X140139942Y-107858017D01*
X140118005Y-107920707D01*
X140090535Y-108005253D01*
X140085171Y-108014543D01*
X140080775Y-108027107D01*
X140045566Y-108083140D01*
X140006946Y-108150034D01*
X139995656Y-108162572D01*
X139985465Y-108178792D01*
X139941155Y-108223101D01*
X139895084Y-108274269D01*
X139876448Y-108287808D01*
X139858792Y-108305465D01*
X139809623Y-108336359D01*
X139759835Y-108372533D01*
X139733134Y-108384421D01*
X139707107Y-108400775D01*
X139657107Y-108418270D01*
X139607110Y-108440531D01*
X139572414Y-108447905D01*
X139538017Y-108459942D01*
X139490715Y-108465271D01*
X139443588Y-108475289D01*
X139401811Y-108475289D01*
X139360000Y-108480000D01*
X139318189Y-108475289D01*
X139276412Y-108475289D01*
X139229284Y-108465271D01*
X139181983Y-108459942D01*
X139147586Y-108447906D01*
X139112889Y-108440531D01*
X139062887Y-108418268D01*
X139012893Y-108400775D01*
X138986868Y-108384422D01*
X138960164Y-108372533D01*
X138910369Y-108336355D01*
X138861208Y-108305465D01*
X138843554Y-108287811D01*
X138824915Y-108274269D01*
X138778833Y-108223090D01*
X138734535Y-108178792D01*
X138724345Y-108162575D01*
X138713053Y-108150034D01*
X138674420Y-108083120D01*
X138639225Y-108027107D01*
X138634830Y-108014547D01*
X138629464Y-108005253D01*
X138601980Y-107920667D01*
X138580058Y-107858017D01*
X138579226Y-107850639D01*
X138577804Y-107846261D01*
X138564908Y-107723565D01*
X138560000Y-107680000D01*
X138564908Y-107636438D01*
X138577804Y-107513738D01*
X138579226Y-107509358D01*
X138580058Y-107501983D01*
X138601975Y-107439345D01*
X138629464Y-107354746D01*
X138634831Y-107345449D01*
X138639225Y-107332893D01*
X138674413Y-107276890D01*
X138713053Y-107209965D01*
X138724347Y-107197421D01*
X138734535Y-107181208D01*
X138778826Y-107136916D01*
X138824917Y-107085728D01*
X138843559Y-107072183D01*
X138861208Y-107054535D01*
X138910354Y-107023654D01*
X138960162Y-106987467D01*
X138986873Y-106975574D01*
X139012893Y-106959225D01*
X139062877Y-106941734D01*
X139112889Y-106919468D01*
X139147592Y-106912091D01*
X139181983Y-106900058D01*
X139229281Y-106894728D01*
X139276412Y-106884711D01*
X139318189Y-106884711D01*
X139360000Y-106880000D01*
X139401811Y-106884711D01*
G37*
G36*
X154641811Y-106884711D02*
G01*
X154683588Y-106884711D01*
X154730718Y-106894728D01*
X154778017Y-106900058D01*
X154812408Y-106912092D01*
X154847110Y-106919468D01*
X154897117Y-106941733D01*
X154947107Y-106959225D01*
X154973128Y-106975575D01*
X154999835Y-106987466D01*
X155049633Y-107023646D01*
X155098792Y-107054535D01*
X155116444Y-107072187D01*
X155135084Y-107085730D01*
X155181165Y-107136908D01*
X155225465Y-107181208D01*
X155235654Y-107197424D01*
X155246946Y-107209965D01*
X155285573Y-107276870D01*
X155320775Y-107332893D01*
X155325170Y-107345453D01*
X155330535Y-107354746D01*
X155358010Y-107439305D01*
X155379942Y-107501983D01*
X155380773Y-107509363D01*
X155382195Y-107513738D01*
X155395076Y-107636306D01*
X155400000Y-107680000D01*
X155395076Y-107723697D01*
X155382195Y-107846261D01*
X155380773Y-107850635D01*
X155379942Y-107858017D01*
X155358005Y-107920707D01*
X155330535Y-108005253D01*
X155325171Y-108014543D01*
X155320775Y-108027107D01*
X155285566Y-108083140D01*
X155246946Y-108150034D01*
X155235656Y-108162572D01*
X155225465Y-108178792D01*
X155181155Y-108223101D01*
X155135084Y-108274269D01*
X155116448Y-108287808D01*
X155098792Y-108305465D01*
X155049623Y-108336359D01*
X154999835Y-108372533D01*
X154973134Y-108384421D01*
X154947107Y-108400775D01*
X154897107Y-108418270D01*
X154847110Y-108440531D01*
X154812414Y-108447905D01*
X154778017Y-108459942D01*
X154730715Y-108465271D01*
X154683588Y-108475289D01*
X154641811Y-108475289D01*
X154600000Y-108480000D01*
X154558189Y-108475289D01*
X154516412Y-108475289D01*
X154469284Y-108465271D01*
X154421983Y-108459942D01*
X154387586Y-108447906D01*
X154352889Y-108440531D01*
X154302887Y-108418268D01*
X154252893Y-108400775D01*
X154226868Y-108384422D01*
X154200164Y-108372533D01*
X154150369Y-108336355D01*
X154101208Y-108305465D01*
X154083554Y-108287811D01*
X154064915Y-108274269D01*
X154018833Y-108223090D01*
X153974535Y-108178792D01*
X153964345Y-108162575D01*
X153953053Y-108150034D01*
X153914420Y-108083120D01*
X153879225Y-108027107D01*
X153874830Y-108014547D01*
X153869464Y-108005253D01*
X153841980Y-107920667D01*
X153820058Y-107858017D01*
X153819226Y-107850639D01*
X153817804Y-107846261D01*
X153804908Y-107723565D01*
X153800000Y-107680000D01*
X153804908Y-107636438D01*
X153817804Y-107513738D01*
X153819226Y-107509358D01*
X153820058Y-107501983D01*
X153841975Y-107439345D01*
X153869464Y-107354746D01*
X153874831Y-107345449D01*
X153879225Y-107332893D01*
X153914413Y-107276890D01*
X153953053Y-107209965D01*
X153964347Y-107197421D01*
X153974535Y-107181208D01*
X154018826Y-107136916D01*
X154064917Y-107085728D01*
X154083559Y-107072183D01*
X154101208Y-107054535D01*
X154150354Y-107023654D01*
X154200162Y-106987467D01*
X154226873Y-106975574D01*
X154252893Y-106959225D01*
X154302877Y-106941734D01*
X154352889Y-106919468D01*
X154387592Y-106912091D01*
X154421983Y-106900058D01*
X154469281Y-106894728D01*
X154516412Y-106884711D01*
X154558189Y-106884711D01*
X154600000Y-106880000D01*
X154641811Y-106884711D01*
G37*
G36*
X139401811Y-104344711D02*
G01*
X139443588Y-104344711D01*
X139490718Y-104354728D01*
X139538017Y-104360058D01*
X139572408Y-104372092D01*
X139607110Y-104379468D01*
X139657117Y-104401733D01*
X139707107Y-104419225D01*
X139733128Y-104435575D01*
X139759835Y-104447466D01*
X139809633Y-104483646D01*
X139858792Y-104514535D01*
X139876444Y-104532187D01*
X139895084Y-104545730D01*
X139941165Y-104596908D01*
X139985465Y-104641208D01*
X139995654Y-104657424D01*
X140006946Y-104669965D01*
X140045573Y-104736870D01*
X140080775Y-104792893D01*
X140085170Y-104805453D01*
X140090535Y-104814746D01*
X140118010Y-104899305D01*
X140139942Y-104961983D01*
X140140773Y-104969363D01*
X140142195Y-104973738D01*
X140155076Y-105096306D01*
X140160000Y-105140000D01*
X140155076Y-105183697D01*
X140142195Y-105306261D01*
X140140773Y-105310635D01*
X140139942Y-105318017D01*
X140118005Y-105380707D01*
X140090535Y-105465253D01*
X140085171Y-105474543D01*
X140080775Y-105487107D01*
X140045566Y-105543140D01*
X140006946Y-105610034D01*
X139995656Y-105622572D01*
X139985465Y-105638792D01*
X139941155Y-105683101D01*
X139895084Y-105734269D01*
X139876448Y-105747808D01*
X139858792Y-105765465D01*
X139809623Y-105796359D01*
X139759835Y-105832533D01*
X139733134Y-105844421D01*
X139707107Y-105860775D01*
X139657107Y-105878270D01*
X139607110Y-105900531D01*
X139572414Y-105907905D01*
X139538017Y-105919942D01*
X139490715Y-105925271D01*
X139443588Y-105935289D01*
X139401811Y-105935289D01*
X139360000Y-105940000D01*
X139318189Y-105935289D01*
X139276412Y-105935289D01*
X139229284Y-105925271D01*
X139181983Y-105919942D01*
X139147586Y-105907906D01*
X139112889Y-105900531D01*
X139062887Y-105878268D01*
X139012893Y-105860775D01*
X138986868Y-105844422D01*
X138960164Y-105832533D01*
X138910369Y-105796355D01*
X138861208Y-105765465D01*
X138843554Y-105747811D01*
X138824915Y-105734269D01*
X138778833Y-105683090D01*
X138734535Y-105638792D01*
X138724345Y-105622575D01*
X138713053Y-105610034D01*
X138674420Y-105543120D01*
X138639225Y-105487107D01*
X138634830Y-105474547D01*
X138629464Y-105465253D01*
X138601980Y-105380667D01*
X138580058Y-105318017D01*
X138579226Y-105310639D01*
X138577804Y-105306261D01*
X138564908Y-105183565D01*
X138560000Y-105140000D01*
X138564908Y-105096438D01*
X138577804Y-104973738D01*
X138579226Y-104969358D01*
X138580058Y-104961983D01*
X138601975Y-104899345D01*
X138629464Y-104814746D01*
X138634831Y-104805449D01*
X138639225Y-104792893D01*
X138674413Y-104736890D01*
X138713053Y-104669965D01*
X138724347Y-104657421D01*
X138734535Y-104641208D01*
X138778826Y-104596916D01*
X138824917Y-104545728D01*
X138843559Y-104532183D01*
X138861208Y-104514535D01*
X138910354Y-104483654D01*
X138960162Y-104447467D01*
X138986873Y-104435574D01*
X139012893Y-104419225D01*
X139062877Y-104401734D01*
X139112889Y-104379468D01*
X139147592Y-104372091D01*
X139181983Y-104360058D01*
X139229281Y-104354728D01*
X139276412Y-104344711D01*
X139318189Y-104344711D01*
X139360000Y-104340000D01*
X139401811Y-104344711D01*
G37*
G36*
X154641811Y-104344711D02*
G01*
X154683588Y-104344711D01*
X154730718Y-104354728D01*
X154778017Y-104360058D01*
X154812408Y-104372092D01*
X154847110Y-104379468D01*
X154897117Y-104401733D01*
X154947107Y-104419225D01*
X154973128Y-104435575D01*
X154999835Y-104447466D01*
X155049633Y-104483646D01*
X155098792Y-104514535D01*
X155116444Y-104532187D01*
X155135084Y-104545730D01*
X155181165Y-104596908D01*
X155225465Y-104641208D01*
X155235654Y-104657424D01*
X155246946Y-104669965D01*
X155285573Y-104736870D01*
X155320775Y-104792893D01*
X155325170Y-104805453D01*
X155330535Y-104814746D01*
X155358010Y-104899305D01*
X155379942Y-104961983D01*
X155380773Y-104969363D01*
X155382195Y-104973738D01*
X155395076Y-105096306D01*
X155400000Y-105140000D01*
X155395076Y-105183697D01*
X155382195Y-105306261D01*
X155380773Y-105310635D01*
X155379942Y-105318017D01*
X155358005Y-105380707D01*
X155330535Y-105465253D01*
X155325171Y-105474543D01*
X155320775Y-105487107D01*
X155285566Y-105543140D01*
X155246946Y-105610034D01*
X155235656Y-105622572D01*
X155225465Y-105638792D01*
X155181155Y-105683101D01*
X155135084Y-105734269D01*
X155116448Y-105747808D01*
X155098792Y-105765465D01*
X155049623Y-105796359D01*
X154999835Y-105832533D01*
X154973134Y-105844421D01*
X154947107Y-105860775D01*
X154897107Y-105878270D01*
X154847110Y-105900531D01*
X154812414Y-105907905D01*
X154778017Y-105919942D01*
X154730715Y-105925271D01*
X154683588Y-105935289D01*
X154641811Y-105935289D01*
X154600000Y-105940000D01*
X154558189Y-105935289D01*
X154516412Y-105935289D01*
X154469284Y-105925271D01*
X154421983Y-105919942D01*
X154387586Y-105907906D01*
X154352889Y-105900531D01*
X154302887Y-105878268D01*
X154252893Y-105860775D01*
X154226868Y-105844422D01*
X154200164Y-105832533D01*
X154150369Y-105796355D01*
X154101208Y-105765465D01*
X154083554Y-105747811D01*
X154064915Y-105734269D01*
X154018833Y-105683090D01*
X153974535Y-105638792D01*
X153964345Y-105622575D01*
X153953053Y-105610034D01*
X153914420Y-105543120D01*
X153879225Y-105487107D01*
X153874830Y-105474547D01*
X153869464Y-105465253D01*
X153841980Y-105380667D01*
X153820058Y-105318017D01*
X153819226Y-105310639D01*
X153817804Y-105306261D01*
X153804908Y-105183565D01*
X153800000Y-105140000D01*
X153804908Y-105096438D01*
X153817804Y-104973738D01*
X153819226Y-104969358D01*
X153820058Y-104961983D01*
X153841975Y-104899345D01*
X153869464Y-104814746D01*
X153874831Y-104805449D01*
X153879225Y-104792893D01*
X153914413Y-104736890D01*
X153953053Y-104669965D01*
X153964347Y-104657421D01*
X153974535Y-104641208D01*
X154018826Y-104596916D01*
X154064917Y-104545728D01*
X154083559Y-104532183D01*
X154101208Y-104514535D01*
X154150354Y-104483654D01*
X154200162Y-104447467D01*
X154226873Y-104435574D01*
X154252893Y-104419225D01*
X154302877Y-104401734D01*
X154352889Y-104379468D01*
X154387592Y-104372091D01*
X154421983Y-104360058D01*
X154469281Y-104354728D01*
X154516412Y-104344711D01*
X154558189Y-104344711D01*
X154600000Y-104340000D01*
X154641811Y-104344711D01*
G37*
G36*
X139401811Y-101804711D02*
G01*
X139443588Y-101804711D01*
X139490718Y-101814728D01*
X139538017Y-101820058D01*
X139572408Y-101832092D01*
X139607110Y-101839468D01*
X139657117Y-101861733D01*
X139707107Y-101879225D01*
X139733128Y-101895575D01*
X139759835Y-101907466D01*
X139809633Y-101943646D01*
X139858792Y-101974535D01*
X139876444Y-101992187D01*
X139895084Y-102005730D01*
X139941165Y-102056908D01*
X139985465Y-102101208D01*
X139995654Y-102117424D01*
X140006946Y-102129965D01*
X140045573Y-102196870D01*
X140080775Y-102252893D01*
X140085170Y-102265453D01*
X140090535Y-102274746D01*
X140118010Y-102359305D01*
X140139942Y-102421983D01*
X140140773Y-102429363D01*
X140142195Y-102433738D01*
X140155076Y-102556306D01*
X140160000Y-102600000D01*
X140155076Y-102643697D01*
X140142195Y-102766261D01*
X140140773Y-102770635D01*
X140139942Y-102778017D01*
X140118005Y-102840707D01*
X140090535Y-102925253D01*
X140085171Y-102934543D01*
X140080775Y-102947107D01*
X140045566Y-103003140D01*
X140006946Y-103070034D01*
X139995656Y-103082572D01*
X139985465Y-103098792D01*
X139941155Y-103143101D01*
X139895084Y-103194269D01*
X139876448Y-103207808D01*
X139858792Y-103225465D01*
X139809623Y-103256359D01*
X139759835Y-103292533D01*
X139733134Y-103304421D01*
X139707107Y-103320775D01*
X139657107Y-103338270D01*
X139607110Y-103360531D01*
X139572414Y-103367905D01*
X139538017Y-103379942D01*
X139490715Y-103385271D01*
X139443588Y-103395289D01*
X139401811Y-103395289D01*
X139360000Y-103400000D01*
X139318189Y-103395289D01*
X139276412Y-103395289D01*
X139229284Y-103385271D01*
X139181983Y-103379942D01*
X139147586Y-103367906D01*
X139112889Y-103360531D01*
X139062887Y-103338268D01*
X139012893Y-103320775D01*
X138986868Y-103304422D01*
X138960164Y-103292533D01*
X138910369Y-103256355D01*
X138861208Y-103225465D01*
X138843554Y-103207811D01*
X138824915Y-103194269D01*
X138778833Y-103143090D01*
X138734535Y-103098792D01*
X138724345Y-103082575D01*
X138713053Y-103070034D01*
X138674420Y-103003120D01*
X138639225Y-102947107D01*
X138634830Y-102934547D01*
X138629464Y-102925253D01*
X138601980Y-102840667D01*
X138580058Y-102778017D01*
X138579226Y-102770639D01*
X138577804Y-102766261D01*
X138564908Y-102643565D01*
X138560000Y-102600000D01*
X138564908Y-102556438D01*
X138577804Y-102433738D01*
X138579226Y-102429358D01*
X138580058Y-102421983D01*
X138601975Y-102359345D01*
X138629464Y-102274746D01*
X138634831Y-102265449D01*
X138639225Y-102252893D01*
X138674413Y-102196890D01*
X138713053Y-102129965D01*
X138724347Y-102117421D01*
X138734535Y-102101208D01*
X138778826Y-102056916D01*
X138824917Y-102005728D01*
X138843559Y-101992183D01*
X138861208Y-101974535D01*
X138910354Y-101943654D01*
X138960162Y-101907467D01*
X138986873Y-101895574D01*
X139012893Y-101879225D01*
X139062877Y-101861734D01*
X139112889Y-101839468D01*
X139147592Y-101832091D01*
X139181983Y-101820058D01*
X139229281Y-101814728D01*
X139276412Y-101804711D01*
X139318189Y-101804711D01*
X139360000Y-101800000D01*
X139401811Y-101804711D01*
G37*
G36*
X154641811Y-101804711D02*
G01*
X154683588Y-101804711D01*
X154730718Y-101814728D01*
X154778017Y-101820058D01*
X154812408Y-101832092D01*
X154847110Y-101839468D01*
X154897117Y-101861733D01*
X154947107Y-101879225D01*
X154973128Y-101895575D01*
X154999835Y-101907466D01*
X155049633Y-101943646D01*
X155098792Y-101974535D01*
X155116444Y-101992187D01*
X155135084Y-102005730D01*
X155181165Y-102056908D01*
X155225465Y-102101208D01*
X155235654Y-102117424D01*
X155246946Y-102129965D01*
X155285573Y-102196870D01*
X155320775Y-102252893D01*
X155325170Y-102265453D01*
X155330535Y-102274746D01*
X155358010Y-102359305D01*
X155379942Y-102421983D01*
X155380773Y-102429363D01*
X155382195Y-102433738D01*
X155395076Y-102556306D01*
X155400000Y-102600000D01*
X155395076Y-102643697D01*
X155382195Y-102766261D01*
X155380773Y-102770635D01*
X155379942Y-102778017D01*
X155358005Y-102840707D01*
X155330535Y-102925253D01*
X155325171Y-102934543D01*
X155320775Y-102947107D01*
X155285566Y-103003140D01*
X155246946Y-103070034D01*
X155235656Y-103082572D01*
X155225465Y-103098792D01*
X155181155Y-103143101D01*
X155135084Y-103194269D01*
X155116448Y-103207808D01*
X155098792Y-103225465D01*
X155049623Y-103256359D01*
X154999835Y-103292533D01*
X154973134Y-103304421D01*
X154947107Y-103320775D01*
X154897107Y-103338270D01*
X154847110Y-103360531D01*
X154812414Y-103367905D01*
X154778017Y-103379942D01*
X154730715Y-103385271D01*
X154683588Y-103395289D01*
X154641811Y-103395289D01*
X154600000Y-103400000D01*
X154558189Y-103395289D01*
X154516412Y-103395289D01*
X154469284Y-103385271D01*
X154421983Y-103379942D01*
X154387586Y-103367906D01*
X154352889Y-103360531D01*
X154302887Y-103338268D01*
X154252893Y-103320775D01*
X154226868Y-103304422D01*
X154200164Y-103292533D01*
X154150369Y-103256355D01*
X154101208Y-103225465D01*
X154083554Y-103207811D01*
X154064915Y-103194269D01*
X154018833Y-103143090D01*
X153974535Y-103098792D01*
X153964345Y-103082575D01*
X153953053Y-103070034D01*
X153914420Y-103003120D01*
X153879225Y-102947107D01*
X153874830Y-102934547D01*
X153869464Y-102925253D01*
X153841980Y-102840667D01*
X153820058Y-102778017D01*
X153819226Y-102770639D01*
X153817804Y-102766261D01*
X153804908Y-102643565D01*
X153800000Y-102600000D01*
X153804908Y-102556438D01*
X153817804Y-102433738D01*
X153819226Y-102429358D01*
X153820058Y-102421983D01*
X153841975Y-102359345D01*
X153869464Y-102274746D01*
X153874831Y-102265449D01*
X153879225Y-102252893D01*
X153914413Y-102196890D01*
X153953053Y-102129965D01*
X153964347Y-102117421D01*
X153974535Y-102101208D01*
X154018826Y-102056916D01*
X154064917Y-102005728D01*
X154083559Y-101992183D01*
X154101208Y-101974535D01*
X154150354Y-101943654D01*
X154200162Y-101907467D01*
X154226873Y-101895574D01*
X154252893Y-101879225D01*
X154302877Y-101861734D01*
X154352889Y-101839468D01*
X154387592Y-101832091D01*
X154421983Y-101820058D01*
X154469281Y-101814728D01*
X154516412Y-101804711D01*
X154558189Y-101804711D01*
X154600000Y-101800000D01*
X154641811Y-101804711D01*
G37*
G36*
X139401811Y-99264711D02*
G01*
X139443588Y-99264711D01*
X139490718Y-99274728D01*
X139538017Y-99280058D01*
X139572408Y-99292092D01*
X139607110Y-99299468D01*
X139657117Y-99321733D01*
X139707107Y-99339225D01*
X139733128Y-99355575D01*
X139759835Y-99367466D01*
X139809633Y-99403646D01*
X139858792Y-99434535D01*
X139876444Y-99452187D01*
X139895084Y-99465730D01*
X139941165Y-99516908D01*
X139985465Y-99561208D01*
X139995654Y-99577424D01*
X140006946Y-99589965D01*
X140045573Y-99656870D01*
X140080775Y-99712893D01*
X140085170Y-99725453D01*
X140090535Y-99734746D01*
X140118010Y-99819305D01*
X140139942Y-99881983D01*
X140140773Y-99889363D01*
X140142195Y-99893738D01*
X140155076Y-100016306D01*
X140160000Y-100060000D01*
X140155076Y-100103697D01*
X140142195Y-100226261D01*
X140140773Y-100230635D01*
X140139942Y-100238017D01*
X140118005Y-100300707D01*
X140090535Y-100385253D01*
X140085171Y-100394543D01*
X140080775Y-100407107D01*
X140045566Y-100463140D01*
X140006946Y-100530034D01*
X139995656Y-100542572D01*
X139985465Y-100558792D01*
X139941155Y-100603101D01*
X139895084Y-100654269D01*
X139876448Y-100667808D01*
X139858792Y-100685465D01*
X139809623Y-100716359D01*
X139759835Y-100752533D01*
X139733134Y-100764421D01*
X139707107Y-100780775D01*
X139657107Y-100798270D01*
X139607110Y-100820531D01*
X139572414Y-100827905D01*
X139538017Y-100839942D01*
X139490715Y-100845271D01*
X139443588Y-100855289D01*
X139401811Y-100855289D01*
X139360000Y-100860000D01*
X139318189Y-100855289D01*
X139276412Y-100855289D01*
X139229284Y-100845271D01*
X139181983Y-100839942D01*
X139147586Y-100827906D01*
X139112889Y-100820531D01*
X139062887Y-100798268D01*
X139012893Y-100780775D01*
X138986868Y-100764422D01*
X138960164Y-100752533D01*
X138910369Y-100716355D01*
X138861208Y-100685465D01*
X138843554Y-100667811D01*
X138824915Y-100654269D01*
X138778833Y-100603090D01*
X138734535Y-100558792D01*
X138724345Y-100542575D01*
X138713053Y-100530034D01*
X138674420Y-100463120D01*
X138639225Y-100407107D01*
X138634830Y-100394547D01*
X138629464Y-100385253D01*
X138601980Y-100300667D01*
X138580058Y-100238017D01*
X138579226Y-100230639D01*
X138577804Y-100226261D01*
X138564908Y-100103565D01*
X138560000Y-100060000D01*
X138564908Y-100016438D01*
X138577804Y-99893738D01*
X138579226Y-99889358D01*
X138580058Y-99881983D01*
X138601975Y-99819345D01*
X138629464Y-99734746D01*
X138634831Y-99725449D01*
X138639225Y-99712893D01*
X138674413Y-99656890D01*
X138713053Y-99589965D01*
X138724347Y-99577421D01*
X138734535Y-99561208D01*
X138778826Y-99516916D01*
X138824917Y-99465728D01*
X138843559Y-99452183D01*
X138861208Y-99434535D01*
X138910354Y-99403654D01*
X138960162Y-99367467D01*
X138986873Y-99355574D01*
X139012893Y-99339225D01*
X139062877Y-99321734D01*
X139112889Y-99299468D01*
X139147592Y-99292091D01*
X139181983Y-99280058D01*
X139229281Y-99274728D01*
X139276412Y-99264711D01*
X139318189Y-99264711D01*
X139360000Y-99260000D01*
X139401811Y-99264711D01*
G37*
G36*
X154641811Y-99264711D02*
G01*
X154683588Y-99264711D01*
X154730718Y-99274728D01*
X154778017Y-99280058D01*
X154812408Y-99292092D01*
X154847110Y-99299468D01*
X154897117Y-99321733D01*
X154947107Y-99339225D01*
X154973128Y-99355575D01*
X154999835Y-99367466D01*
X155049633Y-99403646D01*
X155098792Y-99434535D01*
X155116444Y-99452187D01*
X155135084Y-99465730D01*
X155181165Y-99516908D01*
X155225465Y-99561208D01*
X155235654Y-99577424D01*
X155246946Y-99589965D01*
X155285573Y-99656870D01*
X155320775Y-99712893D01*
X155325170Y-99725453D01*
X155330535Y-99734746D01*
X155358010Y-99819305D01*
X155379942Y-99881983D01*
X155380773Y-99889363D01*
X155382195Y-99893738D01*
X155395076Y-100016306D01*
X155400000Y-100060000D01*
X155395076Y-100103697D01*
X155382195Y-100226261D01*
X155380773Y-100230635D01*
X155379942Y-100238017D01*
X155358005Y-100300707D01*
X155330535Y-100385253D01*
X155325171Y-100394543D01*
X155320775Y-100407107D01*
X155285566Y-100463140D01*
X155246946Y-100530034D01*
X155235656Y-100542572D01*
X155225465Y-100558792D01*
X155181155Y-100603101D01*
X155135084Y-100654269D01*
X155116448Y-100667808D01*
X155098792Y-100685465D01*
X155049623Y-100716359D01*
X154999835Y-100752533D01*
X154973134Y-100764421D01*
X154947107Y-100780775D01*
X154897107Y-100798270D01*
X154847110Y-100820531D01*
X154812414Y-100827905D01*
X154778017Y-100839942D01*
X154730715Y-100845271D01*
X154683588Y-100855289D01*
X154641811Y-100855289D01*
X154600000Y-100860000D01*
X154558189Y-100855289D01*
X154516412Y-100855289D01*
X154469284Y-100845271D01*
X154421983Y-100839942D01*
X154387586Y-100827906D01*
X154352889Y-100820531D01*
X154302887Y-100798268D01*
X154252893Y-100780775D01*
X154226868Y-100764422D01*
X154200164Y-100752533D01*
X154150369Y-100716355D01*
X154101208Y-100685465D01*
X154083554Y-100667811D01*
X154064915Y-100654269D01*
X154018833Y-100603090D01*
X153974535Y-100558792D01*
X153964345Y-100542575D01*
X153953053Y-100530034D01*
X153914420Y-100463120D01*
X153879225Y-100407107D01*
X153874830Y-100394547D01*
X153869464Y-100385253D01*
X153841980Y-100300667D01*
X153820058Y-100238017D01*
X153819226Y-100230639D01*
X153817804Y-100226261D01*
X153804908Y-100103565D01*
X153800000Y-100060000D01*
X153804908Y-100016438D01*
X153817804Y-99893738D01*
X153819226Y-99889358D01*
X153820058Y-99881983D01*
X153841975Y-99819345D01*
X153869464Y-99734746D01*
X153874831Y-99725449D01*
X153879225Y-99712893D01*
X153914413Y-99656890D01*
X153953053Y-99589965D01*
X153964347Y-99577421D01*
X153974535Y-99561208D01*
X154018826Y-99516916D01*
X154064917Y-99465728D01*
X154083559Y-99452183D01*
X154101208Y-99434535D01*
X154150354Y-99403654D01*
X154200162Y-99367467D01*
X154226873Y-99355574D01*
X154252893Y-99339225D01*
X154302877Y-99321734D01*
X154352889Y-99299468D01*
X154387592Y-99292091D01*
X154421983Y-99280058D01*
X154469281Y-99274728D01*
X154516412Y-99264711D01*
X154558189Y-99264711D01*
X154600000Y-99260000D01*
X154641811Y-99264711D01*
G37*
G36*
X139401811Y-96724711D02*
G01*
X139443588Y-96724711D01*
X139490718Y-96734728D01*
X139538017Y-96740058D01*
X139572408Y-96752092D01*
X139607110Y-96759468D01*
X139657117Y-96781733D01*
X139707107Y-96799225D01*
X139733128Y-96815575D01*
X139759835Y-96827466D01*
X139809633Y-96863646D01*
X139858792Y-96894535D01*
X139876444Y-96912187D01*
X139895084Y-96925730D01*
X139941165Y-96976908D01*
X139985465Y-97021208D01*
X139995654Y-97037424D01*
X140006946Y-97049965D01*
X140045573Y-97116870D01*
X140080775Y-97172893D01*
X140085170Y-97185453D01*
X140090535Y-97194746D01*
X140118010Y-97279305D01*
X140139942Y-97341983D01*
X140140773Y-97349363D01*
X140142195Y-97353738D01*
X140155076Y-97476306D01*
X140160000Y-97520000D01*
X140155076Y-97563697D01*
X140142195Y-97686261D01*
X140140773Y-97690635D01*
X140139942Y-97698017D01*
X140118005Y-97760707D01*
X140090535Y-97845253D01*
X140085171Y-97854543D01*
X140080775Y-97867107D01*
X140045566Y-97923140D01*
X140006946Y-97990034D01*
X139995656Y-98002572D01*
X139985465Y-98018792D01*
X139941155Y-98063101D01*
X139895084Y-98114269D01*
X139876448Y-98127808D01*
X139858792Y-98145465D01*
X139809623Y-98176359D01*
X139759835Y-98212533D01*
X139733134Y-98224421D01*
X139707107Y-98240775D01*
X139657107Y-98258270D01*
X139607110Y-98280531D01*
X139572414Y-98287905D01*
X139538017Y-98299942D01*
X139490715Y-98305271D01*
X139443588Y-98315289D01*
X139401811Y-98315289D01*
X139360000Y-98320000D01*
X139318189Y-98315289D01*
X139276412Y-98315289D01*
X139229284Y-98305271D01*
X139181983Y-98299942D01*
X139147586Y-98287906D01*
X139112889Y-98280531D01*
X139062887Y-98258268D01*
X139012893Y-98240775D01*
X138986868Y-98224422D01*
X138960164Y-98212533D01*
X138910369Y-98176355D01*
X138861208Y-98145465D01*
X138843554Y-98127811D01*
X138824915Y-98114269D01*
X138778833Y-98063090D01*
X138734535Y-98018792D01*
X138724345Y-98002575D01*
X138713053Y-97990034D01*
X138674420Y-97923120D01*
X138639225Y-97867107D01*
X138634830Y-97854547D01*
X138629464Y-97845253D01*
X138601980Y-97760667D01*
X138580058Y-97698017D01*
X138579226Y-97690639D01*
X138577804Y-97686261D01*
X138564908Y-97563565D01*
X138560000Y-97520000D01*
X138564908Y-97476438D01*
X138577804Y-97353738D01*
X138579226Y-97349358D01*
X138580058Y-97341983D01*
X138601975Y-97279345D01*
X138629464Y-97194746D01*
X138634831Y-97185449D01*
X138639225Y-97172893D01*
X138674413Y-97116890D01*
X138713053Y-97049965D01*
X138724347Y-97037421D01*
X138734535Y-97021208D01*
X138778826Y-96976916D01*
X138824917Y-96925728D01*
X138843559Y-96912183D01*
X138861208Y-96894535D01*
X138910354Y-96863654D01*
X138960162Y-96827467D01*
X138986873Y-96815574D01*
X139012893Y-96799225D01*
X139062877Y-96781734D01*
X139112889Y-96759468D01*
X139147592Y-96752091D01*
X139181983Y-96740058D01*
X139229281Y-96734728D01*
X139276412Y-96724711D01*
X139318189Y-96724711D01*
X139360000Y-96720000D01*
X139401811Y-96724711D01*
G37*
G36*
X154641811Y-96724711D02*
G01*
X154683588Y-96724711D01*
X154730718Y-96734728D01*
X154778017Y-96740058D01*
X154812408Y-96752092D01*
X154847110Y-96759468D01*
X154897117Y-96781733D01*
X154947107Y-96799225D01*
X154973128Y-96815575D01*
X154999835Y-96827466D01*
X155049633Y-96863646D01*
X155098792Y-96894535D01*
X155116444Y-96912187D01*
X155135084Y-96925730D01*
X155181165Y-96976908D01*
X155225465Y-97021208D01*
X155235654Y-97037424D01*
X155246946Y-97049965D01*
X155285573Y-97116870D01*
X155320775Y-97172893D01*
X155325170Y-97185453D01*
X155330535Y-97194746D01*
X155358010Y-97279305D01*
X155379942Y-97341983D01*
X155380773Y-97349363D01*
X155382195Y-97353738D01*
X155395076Y-97476306D01*
X155400000Y-97520000D01*
X155395076Y-97563697D01*
X155382195Y-97686261D01*
X155380773Y-97690635D01*
X155379942Y-97698017D01*
X155358005Y-97760707D01*
X155330535Y-97845253D01*
X155325171Y-97854543D01*
X155320775Y-97867107D01*
X155285566Y-97923140D01*
X155246946Y-97990034D01*
X155235656Y-98002572D01*
X155225465Y-98018792D01*
X155181155Y-98063101D01*
X155135084Y-98114269D01*
X155116448Y-98127808D01*
X155098792Y-98145465D01*
X155049623Y-98176359D01*
X154999835Y-98212533D01*
X154973134Y-98224421D01*
X154947107Y-98240775D01*
X154897107Y-98258270D01*
X154847110Y-98280531D01*
X154812414Y-98287905D01*
X154778017Y-98299942D01*
X154730715Y-98305271D01*
X154683588Y-98315289D01*
X154641811Y-98315289D01*
X154600000Y-98320000D01*
X154558189Y-98315289D01*
X154516412Y-98315289D01*
X154469284Y-98305271D01*
X154421983Y-98299942D01*
X154387586Y-98287906D01*
X154352889Y-98280531D01*
X154302887Y-98258268D01*
X154252893Y-98240775D01*
X154226868Y-98224422D01*
X154200164Y-98212533D01*
X154150369Y-98176355D01*
X154101208Y-98145465D01*
X154083554Y-98127811D01*
X154064915Y-98114269D01*
X154018833Y-98063090D01*
X153974535Y-98018792D01*
X153964345Y-98002575D01*
X153953053Y-97990034D01*
X153914420Y-97923120D01*
X153879225Y-97867107D01*
X153874830Y-97854547D01*
X153869464Y-97845253D01*
X153841980Y-97760667D01*
X153820058Y-97698017D01*
X153819226Y-97690639D01*
X153817804Y-97686261D01*
X153804908Y-97563565D01*
X153800000Y-97520000D01*
X153804908Y-97476438D01*
X153817804Y-97353738D01*
X153819226Y-97349358D01*
X153820058Y-97341983D01*
X153841975Y-97279345D01*
X153869464Y-97194746D01*
X153874831Y-97185449D01*
X153879225Y-97172893D01*
X153914413Y-97116890D01*
X153953053Y-97049965D01*
X153964347Y-97037421D01*
X153974535Y-97021208D01*
X154018826Y-96976916D01*
X154064917Y-96925728D01*
X154083559Y-96912183D01*
X154101208Y-96894535D01*
X154150354Y-96863654D01*
X154200162Y-96827467D01*
X154226873Y-96815574D01*
X154252893Y-96799225D01*
X154302877Y-96781734D01*
X154352889Y-96759468D01*
X154387592Y-96752091D01*
X154421983Y-96740058D01*
X154469281Y-96734728D01*
X154516412Y-96724711D01*
X154558189Y-96724711D01*
X154600000Y-96720000D01*
X154641811Y-96724711D01*
G37*
G36*
X139401811Y-94184711D02*
G01*
X139443588Y-94184711D01*
X139490718Y-94194728D01*
X139538017Y-94200058D01*
X139572408Y-94212092D01*
X139607110Y-94219468D01*
X139657117Y-94241733D01*
X139707107Y-94259225D01*
X139733128Y-94275575D01*
X139759835Y-94287466D01*
X139809633Y-94323646D01*
X139858792Y-94354535D01*
X139876444Y-94372187D01*
X139895084Y-94385730D01*
X139941165Y-94436908D01*
X139985465Y-94481208D01*
X139995654Y-94497424D01*
X140006946Y-94509965D01*
X140045573Y-94576870D01*
X140080775Y-94632893D01*
X140085170Y-94645453D01*
X140090535Y-94654746D01*
X140118010Y-94739305D01*
X140139942Y-94801983D01*
X140140773Y-94809363D01*
X140142195Y-94813738D01*
X140155076Y-94936306D01*
X140160000Y-94980000D01*
X140155076Y-95023697D01*
X140142195Y-95146261D01*
X140140773Y-95150635D01*
X140139942Y-95158017D01*
X140118005Y-95220707D01*
X140090535Y-95305253D01*
X140085171Y-95314543D01*
X140080775Y-95327107D01*
X140045566Y-95383140D01*
X140006946Y-95450034D01*
X139995656Y-95462572D01*
X139985465Y-95478792D01*
X139941155Y-95523101D01*
X139895084Y-95574269D01*
X139876448Y-95587808D01*
X139858792Y-95605465D01*
X139809623Y-95636359D01*
X139759835Y-95672533D01*
X139733134Y-95684421D01*
X139707107Y-95700775D01*
X139657107Y-95718270D01*
X139607110Y-95740531D01*
X139572414Y-95747905D01*
X139538017Y-95759942D01*
X139490715Y-95765271D01*
X139443588Y-95775289D01*
X139401811Y-95775289D01*
X139360000Y-95780000D01*
X139318189Y-95775289D01*
X139276412Y-95775289D01*
X139229284Y-95765271D01*
X139181983Y-95759942D01*
X139147586Y-95747906D01*
X139112889Y-95740531D01*
X139062887Y-95718268D01*
X139012893Y-95700775D01*
X138986868Y-95684422D01*
X138960164Y-95672533D01*
X138910369Y-95636355D01*
X138861208Y-95605465D01*
X138843554Y-95587811D01*
X138824915Y-95574269D01*
X138778833Y-95523090D01*
X138734535Y-95478792D01*
X138724345Y-95462575D01*
X138713053Y-95450034D01*
X138674420Y-95383120D01*
X138639225Y-95327107D01*
X138634830Y-95314547D01*
X138629464Y-95305253D01*
X138601980Y-95220667D01*
X138580058Y-95158017D01*
X138579226Y-95150639D01*
X138577804Y-95146261D01*
X138564908Y-95023565D01*
X138560000Y-94980000D01*
X138564908Y-94936438D01*
X138577804Y-94813738D01*
X138579226Y-94809358D01*
X138580058Y-94801983D01*
X138601975Y-94739345D01*
X138629464Y-94654746D01*
X138634831Y-94645449D01*
X138639225Y-94632893D01*
X138674413Y-94576890D01*
X138713053Y-94509965D01*
X138724347Y-94497421D01*
X138734535Y-94481208D01*
X138778826Y-94436916D01*
X138824917Y-94385728D01*
X138843559Y-94372183D01*
X138861208Y-94354535D01*
X138910354Y-94323654D01*
X138960162Y-94287467D01*
X138986873Y-94275574D01*
X139012893Y-94259225D01*
X139062877Y-94241734D01*
X139112889Y-94219468D01*
X139147592Y-94212091D01*
X139181983Y-94200058D01*
X139229281Y-94194728D01*
X139276412Y-94184711D01*
X139318189Y-94184711D01*
X139360000Y-94180000D01*
X139401811Y-94184711D01*
G37*
G36*
X154641811Y-94184711D02*
G01*
X154683588Y-94184711D01*
X154730718Y-94194728D01*
X154778017Y-94200058D01*
X154812408Y-94212092D01*
X154847110Y-94219468D01*
X154897117Y-94241733D01*
X154947107Y-94259225D01*
X154973128Y-94275575D01*
X154999835Y-94287466D01*
X155049633Y-94323646D01*
X155098792Y-94354535D01*
X155116444Y-94372187D01*
X155135084Y-94385730D01*
X155181165Y-94436908D01*
X155225465Y-94481208D01*
X155235654Y-94497424D01*
X155246946Y-94509965D01*
X155285573Y-94576870D01*
X155320775Y-94632893D01*
X155325170Y-94645453D01*
X155330535Y-94654746D01*
X155358010Y-94739305D01*
X155379942Y-94801983D01*
X155380773Y-94809363D01*
X155382195Y-94813738D01*
X155395076Y-94936306D01*
X155400000Y-94980000D01*
X155395076Y-95023697D01*
X155382195Y-95146261D01*
X155380773Y-95150635D01*
X155379942Y-95158017D01*
X155358005Y-95220707D01*
X155330535Y-95305253D01*
X155325171Y-95314543D01*
X155320775Y-95327107D01*
X155285566Y-95383140D01*
X155246946Y-95450034D01*
X155235656Y-95462572D01*
X155225465Y-95478792D01*
X155181155Y-95523101D01*
X155135084Y-95574269D01*
X155116448Y-95587808D01*
X155098792Y-95605465D01*
X155049623Y-95636359D01*
X154999835Y-95672533D01*
X154973134Y-95684421D01*
X154947107Y-95700775D01*
X154897107Y-95718270D01*
X154847110Y-95740531D01*
X154812414Y-95747905D01*
X154778017Y-95759942D01*
X154730715Y-95765271D01*
X154683588Y-95775289D01*
X154641811Y-95775289D01*
X154600000Y-95780000D01*
X154558189Y-95775289D01*
X154516412Y-95775289D01*
X154469284Y-95765271D01*
X154421983Y-95759942D01*
X154387586Y-95747906D01*
X154352889Y-95740531D01*
X154302887Y-95718268D01*
X154252893Y-95700775D01*
X154226868Y-95684422D01*
X154200164Y-95672533D01*
X154150369Y-95636355D01*
X154101208Y-95605465D01*
X154083554Y-95587811D01*
X154064915Y-95574269D01*
X154018833Y-95523090D01*
X153974535Y-95478792D01*
X153964345Y-95462575D01*
X153953053Y-95450034D01*
X153914420Y-95383120D01*
X153879225Y-95327107D01*
X153874830Y-95314547D01*
X153869464Y-95305253D01*
X153841980Y-95220667D01*
X153820058Y-95158017D01*
X153819226Y-95150639D01*
X153817804Y-95146261D01*
X153804908Y-95023565D01*
X153800000Y-94980000D01*
X153804908Y-94936438D01*
X153817804Y-94813738D01*
X153819226Y-94809358D01*
X153820058Y-94801983D01*
X153841975Y-94739345D01*
X153869464Y-94654746D01*
X153874831Y-94645449D01*
X153879225Y-94632893D01*
X153914413Y-94576890D01*
X153953053Y-94509965D01*
X153964347Y-94497421D01*
X153974535Y-94481208D01*
X154018826Y-94436916D01*
X154064917Y-94385728D01*
X154083559Y-94372183D01*
X154101208Y-94354535D01*
X154150354Y-94323654D01*
X154200162Y-94287467D01*
X154226873Y-94275574D01*
X154252893Y-94259225D01*
X154302877Y-94241734D01*
X154352889Y-94219468D01*
X154387592Y-94212091D01*
X154421983Y-94200058D01*
X154469281Y-94194728D01*
X154516412Y-94184711D01*
X154558189Y-94184711D01*
X154600000Y-94180000D01*
X154641811Y-94184711D01*
G37*
G36*
X139401811Y-91644711D02*
G01*
X139443588Y-91644711D01*
X139490718Y-91654728D01*
X139538017Y-91660058D01*
X139572408Y-91672092D01*
X139607110Y-91679468D01*
X139657117Y-91701733D01*
X139707107Y-91719225D01*
X139733128Y-91735575D01*
X139759835Y-91747466D01*
X139809633Y-91783646D01*
X139858792Y-91814535D01*
X139876444Y-91832187D01*
X139895084Y-91845730D01*
X139941165Y-91896908D01*
X139985465Y-91941208D01*
X139995654Y-91957424D01*
X140006946Y-91969965D01*
X140045573Y-92036870D01*
X140080775Y-92092893D01*
X140085170Y-92105453D01*
X140090535Y-92114746D01*
X140118010Y-92199305D01*
X140139942Y-92261983D01*
X140140773Y-92269363D01*
X140142195Y-92273738D01*
X140155076Y-92396306D01*
X140160000Y-92440000D01*
X140155076Y-92483697D01*
X140142195Y-92606261D01*
X140140773Y-92610635D01*
X140139942Y-92618017D01*
X140118005Y-92680707D01*
X140090535Y-92765253D01*
X140085171Y-92774543D01*
X140080775Y-92787107D01*
X140045566Y-92843140D01*
X140006946Y-92910034D01*
X139995656Y-92922572D01*
X139985465Y-92938792D01*
X139941155Y-92983101D01*
X139895084Y-93034269D01*
X139876448Y-93047808D01*
X139858792Y-93065465D01*
X139809623Y-93096359D01*
X139759835Y-93132533D01*
X139733134Y-93144421D01*
X139707107Y-93160775D01*
X139657107Y-93178270D01*
X139607110Y-93200531D01*
X139572414Y-93207905D01*
X139538017Y-93219942D01*
X139490715Y-93225271D01*
X139443588Y-93235289D01*
X139401811Y-93235289D01*
X139360000Y-93240000D01*
X139318189Y-93235289D01*
X139276412Y-93235289D01*
X139229284Y-93225271D01*
X139181983Y-93219942D01*
X139147586Y-93207906D01*
X139112889Y-93200531D01*
X139062887Y-93178268D01*
X139012893Y-93160775D01*
X138986868Y-93144422D01*
X138960164Y-93132533D01*
X138910369Y-93096355D01*
X138861208Y-93065465D01*
X138843554Y-93047811D01*
X138824915Y-93034269D01*
X138778833Y-92983090D01*
X138734535Y-92938792D01*
X138724345Y-92922575D01*
X138713053Y-92910034D01*
X138674420Y-92843120D01*
X138639225Y-92787107D01*
X138634830Y-92774547D01*
X138629464Y-92765253D01*
X138601980Y-92680667D01*
X138580058Y-92618017D01*
X138579226Y-92610639D01*
X138577804Y-92606261D01*
X138564908Y-92483565D01*
X138560000Y-92440000D01*
X138564908Y-92396438D01*
X138577804Y-92273738D01*
X138579226Y-92269358D01*
X138580058Y-92261983D01*
X138601975Y-92199345D01*
X138629464Y-92114746D01*
X138634831Y-92105449D01*
X138639225Y-92092893D01*
X138674413Y-92036890D01*
X138713053Y-91969965D01*
X138724347Y-91957421D01*
X138734535Y-91941208D01*
X138778826Y-91896916D01*
X138824917Y-91845728D01*
X138843559Y-91832183D01*
X138861208Y-91814535D01*
X138910354Y-91783654D01*
X138960162Y-91747467D01*
X138986873Y-91735574D01*
X139012893Y-91719225D01*
X139062877Y-91701734D01*
X139112889Y-91679468D01*
X139147592Y-91672091D01*
X139181983Y-91660058D01*
X139229281Y-91654728D01*
X139276412Y-91644711D01*
X139318189Y-91644711D01*
X139360000Y-91640000D01*
X139401811Y-91644711D01*
G37*
G36*
X154641811Y-91644711D02*
G01*
X154683588Y-91644711D01*
X154730718Y-91654728D01*
X154778017Y-91660058D01*
X154812408Y-91672092D01*
X154847110Y-91679468D01*
X154897117Y-91701733D01*
X154947107Y-91719225D01*
X154973128Y-91735575D01*
X154999835Y-91747466D01*
X155049633Y-91783646D01*
X155098792Y-91814535D01*
X155116444Y-91832187D01*
X155135084Y-91845730D01*
X155181165Y-91896908D01*
X155225465Y-91941208D01*
X155235654Y-91957424D01*
X155246946Y-91969965D01*
X155285573Y-92036870D01*
X155320775Y-92092893D01*
X155325170Y-92105453D01*
X155330535Y-92114746D01*
X155358010Y-92199305D01*
X155379942Y-92261983D01*
X155380773Y-92269363D01*
X155382195Y-92273738D01*
X155395076Y-92396306D01*
X155400000Y-92440000D01*
X155395076Y-92483697D01*
X155382195Y-92606261D01*
X155380773Y-92610635D01*
X155379942Y-92618017D01*
X155358005Y-92680707D01*
X155330535Y-92765253D01*
X155325171Y-92774543D01*
X155320775Y-92787107D01*
X155285566Y-92843140D01*
X155246946Y-92910034D01*
X155235656Y-92922572D01*
X155225465Y-92938792D01*
X155181155Y-92983101D01*
X155135084Y-93034269D01*
X155116448Y-93047808D01*
X155098792Y-93065465D01*
X155049623Y-93096359D01*
X154999835Y-93132533D01*
X154973134Y-93144421D01*
X154947107Y-93160775D01*
X154897107Y-93178270D01*
X154847110Y-93200531D01*
X154812414Y-93207905D01*
X154778017Y-93219942D01*
X154730715Y-93225271D01*
X154683588Y-93235289D01*
X154641811Y-93235289D01*
X154600000Y-93240000D01*
X154558189Y-93235289D01*
X154516412Y-93235289D01*
X154469284Y-93225271D01*
X154421983Y-93219942D01*
X154387586Y-93207906D01*
X154352889Y-93200531D01*
X154302887Y-93178268D01*
X154252893Y-93160775D01*
X154226868Y-93144422D01*
X154200164Y-93132533D01*
X154150369Y-93096355D01*
X154101208Y-93065465D01*
X154083554Y-93047811D01*
X154064915Y-93034269D01*
X154018833Y-92983090D01*
X153974535Y-92938792D01*
X153964345Y-92922575D01*
X153953053Y-92910034D01*
X153914420Y-92843120D01*
X153879225Y-92787107D01*
X153874830Y-92774547D01*
X153869464Y-92765253D01*
X153841980Y-92680667D01*
X153820058Y-92618017D01*
X153819226Y-92610639D01*
X153817804Y-92606261D01*
X153804908Y-92483565D01*
X153800000Y-92440000D01*
X153804908Y-92396438D01*
X153817804Y-92273738D01*
X153819226Y-92269358D01*
X153820058Y-92261983D01*
X153841975Y-92199345D01*
X153869464Y-92114746D01*
X153874831Y-92105449D01*
X153879225Y-92092893D01*
X153914413Y-92036890D01*
X153953053Y-91969965D01*
X153964347Y-91957421D01*
X153974535Y-91941208D01*
X154018826Y-91896916D01*
X154064917Y-91845728D01*
X154083559Y-91832183D01*
X154101208Y-91814535D01*
X154150354Y-91783654D01*
X154200162Y-91747467D01*
X154226873Y-91735574D01*
X154252893Y-91719225D01*
X154302877Y-91701734D01*
X154352889Y-91679468D01*
X154387592Y-91672091D01*
X154421983Y-91660058D01*
X154469281Y-91654728D01*
X154516412Y-91644711D01*
X154558189Y-91644711D01*
X154600000Y-91640000D01*
X154641811Y-91644711D01*
G37*
G36*
X139401811Y-89104711D02*
G01*
X139443588Y-89104711D01*
X139490718Y-89114728D01*
X139538017Y-89120058D01*
X139572408Y-89132092D01*
X139607110Y-89139468D01*
X139657117Y-89161733D01*
X139707107Y-89179225D01*
X139733128Y-89195575D01*
X139759835Y-89207466D01*
X139809633Y-89243646D01*
X139858792Y-89274535D01*
X139876444Y-89292187D01*
X139895084Y-89305730D01*
X139941165Y-89356908D01*
X139985465Y-89401208D01*
X139995654Y-89417424D01*
X140006946Y-89429965D01*
X140045573Y-89496870D01*
X140080775Y-89552893D01*
X140085170Y-89565453D01*
X140090535Y-89574746D01*
X140118010Y-89659305D01*
X140139942Y-89721983D01*
X140140773Y-89729363D01*
X140142195Y-89733738D01*
X140155076Y-89856306D01*
X140160000Y-89900000D01*
X140155076Y-89943697D01*
X140142195Y-90066261D01*
X140140773Y-90070635D01*
X140139942Y-90078017D01*
X140118005Y-90140707D01*
X140090535Y-90225253D01*
X140085171Y-90234543D01*
X140080775Y-90247107D01*
X140045566Y-90303140D01*
X140006946Y-90370034D01*
X139995656Y-90382572D01*
X139985465Y-90398792D01*
X139941155Y-90443101D01*
X139895084Y-90494269D01*
X139876448Y-90507808D01*
X139858792Y-90525465D01*
X139809623Y-90556359D01*
X139759835Y-90592533D01*
X139733134Y-90604421D01*
X139707107Y-90620775D01*
X139657107Y-90638270D01*
X139607110Y-90660531D01*
X139572414Y-90667905D01*
X139538017Y-90679942D01*
X139490715Y-90685271D01*
X139443588Y-90695289D01*
X139401811Y-90695289D01*
X139360000Y-90700000D01*
X139318189Y-90695289D01*
X139276412Y-90695289D01*
X139229284Y-90685271D01*
X139181983Y-90679942D01*
X139147586Y-90667906D01*
X139112889Y-90660531D01*
X139062887Y-90638268D01*
X139012893Y-90620775D01*
X138986868Y-90604422D01*
X138960164Y-90592533D01*
X138910369Y-90556355D01*
X138861208Y-90525465D01*
X138843554Y-90507811D01*
X138824915Y-90494269D01*
X138778833Y-90443090D01*
X138734535Y-90398792D01*
X138724345Y-90382575D01*
X138713053Y-90370034D01*
X138674420Y-90303120D01*
X138639225Y-90247107D01*
X138634830Y-90234547D01*
X138629464Y-90225253D01*
X138601980Y-90140667D01*
X138580058Y-90078017D01*
X138579226Y-90070639D01*
X138577804Y-90066261D01*
X138564908Y-89943565D01*
X138560000Y-89900000D01*
X138564908Y-89856438D01*
X138577804Y-89733738D01*
X138579226Y-89729358D01*
X138580058Y-89721983D01*
X138601975Y-89659345D01*
X138629464Y-89574746D01*
X138634831Y-89565449D01*
X138639225Y-89552893D01*
X138674413Y-89496890D01*
X138713053Y-89429965D01*
X138724347Y-89417421D01*
X138734535Y-89401208D01*
X138778826Y-89356916D01*
X138824917Y-89305728D01*
X138843559Y-89292183D01*
X138861208Y-89274535D01*
X138910354Y-89243654D01*
X138960162Y-89207467D01*
X138986873Y-89195574D01*
X139012893Y-89179225D01*
X139062877Y-89161734D01*
X139112889Y-89139468D01*
X139147592Y-89132091D01*
X139181983Y-89120058D01*
X139229281Y-89114728D01*
X139276412Y-89104711D01*
X139318189Y-89104711D01*
X139360000Y-89100000D01*
X139401811Y-89104711D01*
G37*
G36*
X154641811Y-89104711D02*
G01*
X154683588Y-89104711D01*
X154730718Y-89114728D01*
X154778017Y-89120058D01*
X154812408Y-89132092D01*
X154847110Y-89139468D01*
X154897117Y-89161733D01*
X154947107Y-89179225D01*
X154973128Y-89195575D01*
X154999835Y-89207466D01*
X155049633Y-89243646D01*
X155098792Y-89274535D01*
X155116444Y-89292187D01*
X155135084Y-89305730D01*
X155181165Y-89356908D01*
X155225465Y-89401208D01*
X155235654Y-89417424D01*
X155246946Y-89429965D01*
X155285573Y-89496870D01*
X155320775Y-89552893D01*
X155325170Y-89565453D01*
X155330535Y-89574746D01*
X155358010Y-89659305D01*
X155379942Y-89721983D01*
X155380773Y-89729363D01*
X155382195Y-89733738D01*
X155395076Y-89856306D01*
X155400000Y-89900000D01*
X155395076Y-89943697D01*
X155382195Y-90066261D01*
X155380773Y-90070635D01*
X155379942Y-90078017D01*
X155358005Y-90140707D01*
X155330535Y-90225253D01*
X155325171Y-90234543D01*
X155320775Y-90247107D01*
X155285566Y-90303140D01*
X155246946Y-90370034D01*
X155235656Y-90382572D01*
X155225465Y-90398792D01*
X155181155Y-90443101D01*
X155135084Y-90494269D01*
X155116448Y-90507808D01*
X155098792Y-90525465D01*
X155049623Y-90556359D01*
X154999835Y-90592533D01*
X154973134Y-90604421D01*
X154947107Y-90620775D01*
X154897107Y-90638270D01*
X154847110Y-90660531D01*
X154812414Y-90667905D01*
X154778017Y-90679942D01*
X154730715Y-90685271D01*
X154683588Y-90695289D01*
X154641811Y-90695289D01*
X154600000Y-90700000D01*
X154558189Y-90695289D01*
X154516412Y-90695289D01*
X154469284Y-90685271D01*
X154421983Y-90679942D01*
X154387586Y-90667906D01*
X154352889Y-90660531D01*
X154302887Y-90638268D01*
X154252893Y-90620775D01*
X154226868Y-90604422D01*
X154200164Y-90592533D01*
X154150369Y-90556355D01*
X154101208Y-90525465D01*
X154083554Y-90507811D01*
X154064915Y-90494269D01*
X154018833Y-90443090D01*
X153974535Y-90398792D01*
X153964345Y-90382575D01*
X153953053Y-90370034D01*
X153914420Y-90303120D01*
X153879225Y-90247107D01*
X153874830Y-90234547D01*
X153869464Y-90225253D01*
X153841980Y-90140667D01*
X153820058Y-90078017D01*
X153819226Y-90070639D01*
X153817804Y-90066261D01*
X153804908Y-89943565D01*
X153800000Y-89900000D01*
X153804908Y-89856438D01*
X153817804Y-89733738D01*
X153819226Y-89729358D01*
X153820058Y-89721983D01*
X153841975Y-89659345D01*
X153869464Y-89574746D01*
X153874831Y-89565449D01*
X153879225Y-89552893D01*
X153914413Y-89496890D01*
X153953053Y-89429965D01*
X153964347Y-89417421D01*
X153974535Y-89401208D01*
X154018826Y-89356916D01*
X154064917Y-89305728D01*
X154083559Y-89292183D01*
X154101208Y-89274535D01*
X154150354Y-89243654D01*
X154200162Y-89207467D01*
X154226873Y-89195574D01*
X154252893Y-89179225D01*
X154302877Y-89161734D01*
X154352889Y-89139468D01*
X154387592Y-89132091D01*
X154421983Y-89120058D01*
X154469281Y-89114728D01*
X154516412Y-89104711D01*
X154558189Y-89104711D01*
X154600000Y-89100000D01*
X154641811Y-89104711D01*
G37*
G36*
X139401811Y-86564711D02*
G01*
X139443588Y-86564711D01*
X139490718Y-86574728D01*
X139538017Y-86580058D01*
X139572408Y-86592092D01*
X139607110Y-86599468D01*
X139657117Y-86621733D01*
X139707107Y-86639225D01*
X139733128Y-86655575D01*
X139759835Y-86667466D01*
X139809633Y-86703646D01*
X139858792Y-86734535D01*
X139876444Y-86752187D01*
X139895084Y-86765730D01*
X139941165Y-86816908D01*
X139985465Y-86861208D01*
X139995654Y-86877424D01*
X140006946Y-86889965D01*
X140045573Y-86956870D01*
X140080775Y-87012893D01*
X140085170Y-87025453D01*
X140090535Y-87034746D01*
X140118010Y-87119305D01*
X140139942Y-87181983D01*
X140140773Y-87189363D01*
X140142195Y-87193738D01*
X140155076Y-87316306D01*
X140160000Y-87360000D01*
X140155076Y-87403697D01*
X140142195Y-87526261D01*
X140140773Y-87530635D01*
X140139942Y-87538017D01*
X140118005Y-87600707D01*
X140090535Y-87685253D01*
X140085171Y-87694543D01*
X140080775Y-87707107D01*
X140045566Y-87763140D01*
X140006946Y-87830034D01*
X139995656Y-87842572D01*
X139985465Y-87858792D01*
X139941155Y-87903101D01*
X139895084Y-87954269D01*
X139876448Y-87967808D01*
X139858792Y-87985465D01*
X139809623Y-88016359D01*
X139759835Y-88052533D01*
X139733134Y-88064421D01*
X139707107Y-88080775D01*
X139657107Y-88098270D01*
X139607110Y-88120531D01*
X139572414Y-88127905D01*
X139538017Y-88139942D01*
X139490715Y-88145271D01*
X139443588Y-88155289D01*
X139401811Y-88155289D01*
X139360000Y-88160000D01*
X139318189Y-88155289D01*
X139276412Y-88155289D01*
X139229284Y-88145271D01*
X139181983Y-88139942D01*
X139147586Y-88127906D01*
X139112889Y-88120531D01*
X139062887Y-88098268D01*
X139012893Y-88080775D01*
X138986868Y-88064422D01*
X138960164Y-88052533D01*
X138910369Y-88016355D01*
X138861208Y-87985465D01*
X138843554Y-87967811D01*
X138824915Y-87954269D01*
X138778833Y-87903090D01*
X138734535Y-87858792D01*
X138724345Y-87842575D01*
X138713053Y-87830034D01*
X138674420Y-87763120D01*
X138639225Y-87707107D01*
X138634830Y-87694547D01*
X138629464Y-87685253D01*
X138601980Y-87600667D01*
X138580058Y-87538017D01*
X138579226Y-87530639D01*
X138577804Y-87526261D01*
X138564908Y-87403565D01*
X138560000Y-87360000D01*
X138564908Y-87316438D01*
X138577804Y-87193738D01*
X138579226Y-87189358D01*
X138580058Y-87181983D01*
X138601975Y-87119345D01*
X138629464Y-87034746D01*
X138634831Y-87025449D01*
X138639225Y-87012893D01*
X138674413Y-86956890D01*
X138713053Y-86889965D01*
X138724347Y-86877421D01*
X138734535Y-86861208D01*
X138778826Y-86816916D01*
X138824917Y-86765728D01*
X138843559Y-86752183D01*
X138861208Y-86734535D01*
X138910354Y-86703654D01*
X138960162Y-86667467D01*
X138986873Y-86655574D01*
X139012893Y-86639225D01*
X139062877Y-86621734D01*
X139112889Y-86599468D01*
X139147592Y-86592091D01*
X139181983Y-86580058D01*
X139229281Y-86574728D01*
X139276412Y-86564711D01*
X139318189Y-86564711D01*
X139360000Y-86560000D01*
X139401811Y-86564711D01*
G37*
G36*
X154641811Y-86564711D02*
G01*
X154683588Y-86564711D01*
X154730718Y-86574728D01*
X154778017Y-86580058D01*
X154812408Y-86592092D01*
X154847110Y-86599468D01*
X154897117Y-86621733D01*
X154947107Y-86639225D01*
X154973128Y-86655575D01*
X154999835Y-86667466D01*
X155049633Y-86703646D01*
X155098792Y-86734535D01*
X155116444Y-86752187D01*
X155135084Y-86765730D01*
X155181165Y-86816908D01*
X155225465Y-86861208D01*
X155235654Y-86877424D01*
X155246946Y-86889965D01*
X155285573Y-86956870D01*
X155320775Y-87012893D01*
X155325170Y-87025453D01*
X155330535Y-87034746D01*
X155358010Y-87119305D01*
X155379942Y-87181983D01*
X155380773Y-87189363D01*
X155382195Y-87193738D01*
X155395076Y-87316306D01*
X155400000Y-87360000D01*
X155395076Y-87403697D01*
X155382195Y-87526261D01*
X155380773Y-87530635D01*
X155379942Y-87538017D01*
X155358005Y-87600707D01*
X155330535Y-87685253D01*
X155325171Y-87694543D01*
X155320775Y-87707107D01*
X155285566Y-87763140D01*
X155246946Y-87830034D01*
X155235656Y-87842572D01*
X155225465Y-87858792D01*
X155181155Y-87903101D01*
X155135084Y-87954269D01*
X155116448Y-87967808D01*
X155098792Y-87985465D01*
X155049623Y-88016359D01*
X154999835Y-88052533D01*
X154973134Y-88064421D01*
X154947107Y-88080775D01*
X154897107Y-88098270D01*
X154847110Y-88120531D01*
X154812414Y-88127905D01*
X154778017Y-88139942D01*
X154730715Y-88145271D01*
X154683588Y-88155289D01*
X154641811Y-88155289D01*
X154600000Y-88160000D01*
X154558189Y-88155289D01*
X154516412Y-88155289D01*
X154469284Y-88145271D01*
X154421983Y-88139942D01*
X154387586Y-88127906D01*
X154352889Y-88120531D01*
X154302887Y-88098268D01*
X154252893Y-88080775D01*
X154226868Y-88064422D01*
X154200164Y-88052533D01*
X154150369Y-88016355D01*
X154101208Y-87985465D01*
X154083554Y-87967811D01*
X154064915Y-87954269D01*
X154018833Y-87903090D01*
X153974535Y-87858792D01*
X153964345Y-87842575D01*
X153953053Y-87830034D01*
X153914420Y-87763120D01*
X153879225Y-87707107D01*
X153874830Y-87694547D01*
X153869464Y-87685253D01*
X153841980Y-87600667D01*
X153820058Y-87538017D01*
X153819226Y-87530639D01*
X153817804Y-87526261D01*
X153804908Y-87403565D01*
X153800000Y-87360000D01*
X153804908Y-87316438D01*
X153817804Y-87193738D01*
X153819226Y-87189358D01*
X153820058Y-87181983D01*
X153841975Y-87119345D01*
X153869464Y-87034746D01*
X153874831Y-87025449D01*
X153879225Y-87012893D01*
X153914413Y-86956890D01*
X153953053Y-86889965D01*
X153964347Y-86877421D01*
X153974535Y-86861208D01*
X154018826Y-86816916D01*
X154064917Y-86765728D01*
X154083559Y-86752183D01*
X154101208Y-86734535D01*
X154150354Y-86703654D01*
X154200162Y-86667467D01*
X154226873Y-86655574D01*
X154252893Y-86639225D01*
X154302877Y-86621734D01*
X154352889Y-86599468D01*
X154387592Y-86592091D01*
X154421983Y-86580058D01*
X154469281Y-86574728D01*
X154516412Y-86564711D01*
X154558189Y-86564711D01*
X154600000Y-86560000D01*
X154641811Y-86564711D01*
G37*
G36*
X139401811Y-84024711D02*
G01*
X139443588Y-84024711D01*
X139490718Y-84034728D01*
X139538017Y-84040058D01*
X139572408Y-84052092D01*
X139607110Y-84059468D01*
X139657117Y-84081733D01*
X139707107Y-84099225D01*
X139733128Y-84115575D01*
X139759835Y-84127466D01*
X139809633Y-84163646D01*
X139858792Y-84194535D01*
X139876444Y-84212187D01*
X139895084Y-84225730D01*
X139941165Y-84276908D01*
X139985465Y-84321208D01*
X139995654Y-84337424D01*
X140006946Y-84349965D01*
X140045573Y-84416870D01*
X140080775Y-84472893D01*
X140085170Y-84485453D01*
X140090535Y-84494746D01*
X140118010Y-84579305D01*
X140139942Y-84641983D01*
X140140773Y-84649363D01*
X140142195Y-84653738D01*
X140155076Y-84776306D01*
X140160000Y-84820000D01*
X140155076Y-84863697D01*
X140142195Y-84986261D01*
X140140773Y-84990635D01*
X140139942Y-84998017D01*
X140118005Y-85060707D01*
X140090535Y-85145253D01*
X140085171Y-85154543D01*
X140080775Y-85167107D01*
X140045566Y-85223140D01*
X140006946Y-85290034D01*
X139995656Y-85302572D01*
X139985465Y-85318792D01*
X139941155Y-85363101D01*
X139895084Y-85414269D01*
X139876448Y-85427808D01*
X139858792Y-85445465D01*
X139809623Y-85476359D01*
X139759835Y-85512533D01*
X139733134Y-85524421D01*
X139707107Y-85540775D01*
X139657107Y-85558270D01*
X139607110Y-85580531D01*
X139572414Y-85587905D01*
X139538017Y-85599942D01*
X139490715Y-85605271D01*
X139443588Y-85615289D01*
X139401811Y-85615289D01*
X139360000Y-85620000D01*
X139318189Y-85615289D01*
X139276412Y-85615289D01*
X139229284Y-85605271D01*
X139181983Y-85599942D01*
X139147586Y-85587906D01*
X139112889Y-85580531D01*
X139062887Y-85558268D01*
X139012893Y-85540775D01*
X138986868Y-85524422D01*
X138960164Y-85512533D01*
X138910369Y-85476355D01*
X138861208Y-85445465D01*
X138843554Y-85427811D01*
X138824915Y-85414269D01*
X138778833Y-85363090D01*
X138734535Y-85318792D01*
X138724345Y-85302575D01*
X138713053Y-85290034D01*
X138674420Y-85223120D01*
X138639225Y-85167107D01*
X138634830Y-85154547D01*
X138629464Y-85145253D01*
X138601980Y-85060667D01*
X138580058Y-84998017D01*
X138579226Y-84990639D01*
X138577804Y-84986261D01*
X138564908Y-84863565D01*
X138560000Y-84820000D01*
X138564908Y-84776438D01*
X138577804Y-84653738D01*
X138579226Y-84649358D01*
X138580058Y-84641983D01*
X138601975Y-84579345D01*
X138629464Y-84494746D01*
X138634831Y-84485449D01*
X138639225Y-84472893D01*
X138674413Y-84416890D01*
X138713053Y-84349965D01*
X138724347Y-84337421D01*
X138734535Y-84321208D01*
X138778826Y-84276916D01*
X138824917Y-84225728D01*
X138843559Y-84212183D01*
X138861208Y-84194535D01*
X138910354Y-84163654D01*
X138960162Y-84127467D01*
X138986873Y-84115574D01*
X139012893Y-84099225D01*
X139062877Y-84081734D01*
X139112889Y-84059468D01*
X139147592Y-84052091D01*
X139181983Y-84040058D01*
X139229281Y-84034728D01*
X139276412Y-84024711D01*
X139318189Y-84024711D01*
X139360000Y-84020000D01*
X139401811Y-84024711D01*
G37*
G36*
X154641811Y-84024711D02*
G01*
X154683588Y-84024711D01*
X154730718Y-84034728D01*
X154778017Y-84040058D01*
X154812408Y-84052092D01*
X154847110Y-84059468D01*
X154897117Y-84081733D01*
X154947107Y-84099225D01*
X154973128Y-84115575D01*
X154999835Y-84127466D01*
X155049633Y-84163646D01*
X155098792Y-84194535D01*
X155116444Y-84212187D01*
X155135084Y-84225730D01*
X155181165Y-84276908D01*
X155225465Y-84321208D01*
X155235654Y-84337424D01*
X155246946Y-84349965D01*
X155285573Y-84416870D01*
X155320775Y-84472893D01*
X155325170Y-84485453D01*
X155330535Y-84494746D01*
X155358010Y-84579305D01*
X155379942Y-84641983D01*
X155380773Y-84649363D01*
X155382195Y-84653738D01*
X155395076Y-84776306D01*
X155400000Y-84820000D01*
X155395076Y-84863697D01*
X155382195Y-84986261D01*
X155380773Y-84990635D01*
X155379942Y-84998017D01*
X155358005Y-85060707D01*
X155330535Y-85145253D01*
X155325171Y-85154543D01*
X155320775Y-85167107D01*
X155285566Y-85223140D01*
X155246946Y-85290034D01*
X155235656Y-85302572D01*
X155225465Y-85318792D01*
X155181155Y-85363101D01*
X155135084Y-85414269D01*
X155116448Y-85427808D01*
X155098792Y-85445465D01*
X155049623Y-85476359D01*
X154999835Y-85512533D01*
X154973134Y-85524421D01*
X154947107Y-85540775D01*
X154897107Y-85558270D01*
X154847110Y-85580531D01*
X154812414Y-85587905D01*
X154778017Y-85599942D01*
X154730715Y-85605271D01*
X154683588Y-85615289D01*
X154641811Y-85615289D01*
X154600000Y-85620000D01*
X154558189Y-85615289D01*
X154516412Y-85615289D01*
X154469284Y-85605271D01*
X154421983Y-85599942D01*
X154387586Y-85587906D01*
X154352889Y-85580531D01*
X154302887Y-85558268D01*
X154252893Y-85540775D01*
X154226868Y-85524422D01*
X154200164Y-85512533D01*
X154150369Y-85476355D01*
X154101208Y-85445465D01*
X154083554Y-85427811D01*
X154064915Y-85414269D01*
X154018833Y-85363090D01*
X153974535Y-85318792D01*
X153964345Y-85302575D01*
X153953053Y-85290034D01*
X153914420Y-85223120D01*
X153879225Y-85167107D01*
X153874830Y-85154547D01*
X153869464Y-85145253D01*
X153841980Y-85060667D01*
X153820058Y-84998017D01*
X153819226Y-84990639D01*
X153817804Y-84986261D01*
X153804908Y-84863565D01*
X153800000Y-84820000D01*
X153804908Y-84776438D01*
X153817804Y-84653738D01*
X153819226Y-84649358D01*
X153820058Y-84641983D01*
X153841975Y-84579345D01*
X153869464Y-84494746D01*
X153874831Y-84485449D01*
X153879225Y-84472893D01*
X153914413Y-84416890D01*
X153953053Y-84349965D01*
X153964347Y-84337421D01*
X153974535Y-84321208D01*
X154018826Y-84276916D01*
X154064917Y-84225728D01*
X154083559Y-84212183D01*
X154101208Y-84194535D01*
X154150354Y-84163654D01*
X154200162Y-84127467D01*
X154226873Y-84115574D01*
X154252893Y-84099225D01*
X154302877Y-84081734D01*
X154352889Y-84059468D01*
X154387592Y-84052091D01*
X154421983Y-84040058D01*
X154469281Y-84034728D01*
X154516412Y-84024711D01*
X154558189Y-84024711D01*
X154600000Y-84020000D01*
X154641811Y-84024711D01*
G37*
G36*
X139401811Y-81484711D02*
G01*
X139443588Y-81484711D01*
X139490718Y-81494728D01*
X139538017Y-81500058D01*
X139572408Y-81512092D01*
X139607110Y-81519468D01*
X139657117Y-81541733D01*
X139707107Y-81559225D01*
X139733128Y-81575575D01*
X139759835Y-81587466D01*
X139809633Y-81623646D01*
X139858792Y-81654535D01*
X139876444Y-81672187D01*
X139895084Y-81685730D01*
X139941165Y-81736908D01*
X139985465Y-81781208D01*
X139995654Y-81797424D01*
X140006946Y-81809965D01*
X140045573Y-81876870D01*
X140080775Y-81932893D01*
X140085170Y-81945453D01*
X140090535Y-81954746D01*
X140118010Y-82039305D01*
X140139942Y-82101983D01*
X140140773Y-82109363D01*
X140142195Y-82113738D01*
X140155076Y-82236306D01*
X140160000Y-82280000D01*
X140155076Y-82323697D01*
X140142195Y-82446261D01*
X140140773Y-82450635D01*
X140139942Y-82458017D01*
X140118005Y-82520707D01*
X140090535Y-82605253D01*
X140085171Y-82614543D01*
X140080775Y-82627107D01*
X140045566Y-82683140D01*
X140006946Y-82750034D01*
X139995656Y-82762572D01*
X139985465Y-82778792D01*
X139941155Y-82823101D01*
X139895084Y-82874269D01*
X139876448Y-82887808D01*
X139858792Y-82905465D01*
X139809623Y-82936359D01*
X139759835Y-82972533D01*
X139733134Y-82984421D01*
X139707107Y-83000775D01*
X139657107Y-83018270D01*
X139607110Y-83040531D01*
X139572414Y-83047905D01*
X139538017Y-83059942D01*
X139490715Y-83065271D01*
X139443588Y-83075289D01*
X139401811Y-83075289D01*
X139360000Y-83080000D01*
X139318189Y-83075289D01*
X139276412Y-83075289D01*
X139229284Y-83065271D01*
X139181983Y-83059942D01*
X139147586Y-83047906D01*
X139112889Y-83040531D01*
X139062887Y-83018268D01*
X139012893Y-83000775D01*
X138986868Y-82984422D01*
X138960164Y-82972533D01*
X138910369Y-82936355D01*
X138861208Y-82905465D01*
X138843554Y-82887811D01*
X138824915Y-82874269D01*
X138778833Y-82823090D01*
X138734535Y-82778792D01*
X138724345Y-82762575D01*
X138713053Y-82750034D01*
X138674420Y-82683120D01*
X138639225Y-82627107D01*
X138634830Y-82614547D01*
X138629464Y-82605253D01*
X138601980Y-82520667D01*
X138580058Y-82458017D01*
X138579226Y-82450639D01*
X138577804Y-82446261D01*
X138564908Y-82323565D01*
X138560000Y-82280000D01*
X138564908Y-82236438D01*
X138577804Y-82113738D01*
X138579226Y-82109358D01*
X138580058Y-82101983D01*
X138601975Y-82039345D01*
X138629464Y-81954746D01*
X138634831Y-81945449D01*
X138639225Y-81932893D01*
X138674413Y-81876890D01*
X138713053Y-81809965D01*
X138724347Y-81797421D01*
X138734535Y-81781208D01*
X138778826Y-81736916D01*
X138824917Y-81685728D01*
X138843559Y-81672183D01*
X138861208Y-81654535D01*
X138910354Y-81623654D01*
X138960162Y-81587467D01*
X138986873Y-81575574D01*
X139012893Y-81559225D01*
X139062877Y-81541734D01*
X139112889Y-81519468D01*
X139147592Y-81512091D01*
X139181983Y-81500058D01*
X139229281Y-81494728D01*
X139276412Y-81484711D01*
X139318189Y-81484711D01*
X139360000Y-81480000D01*
X139401811Y-81484711D01*
G37*
G36*
X155400000Y-83080000D02*
G01*
X153800000Y-83080000D01*
X153800000Y-81480000D01*
X155400000Y-81480000D01*
X155400000Y-83080000D01*
G37*
M02*
