%TF.GenerationSoftware,KiCad,Pcbnew,8.0.6*%
%TF.CreationDate,2026-09-07T00:34:17+08:00*%
%TF.ProjectId,SMD_test,534d445f-7465-4737-942e-6b696361645f,rev?*%
%TF.SameCoordinates,Original*%
%TF.FileFunction,Drillmap*%
%TF.FilePolarity,Positive*%
%FSLAX45Y45*%
G04 Gerber Fmt 4.5, Leading zero omitted, Abs format (unit mm)*
G04 Created by KiCad (PCBNEW 8.0.6) date 2026-09-07 00:34:17*
%MOMM*%
%LPD*%
G01*
G04 APERTURE LIST*
%ADD10C,0.038100*%
%ADD11C,0.200000*%
G04 APERTURE END LIST*
D10*
X16766000Y-12557000D02*
X16756000Y-12557000D01*
X12166000Y-12557000D02*
X16756000Y-12557000D01*
X12166000Y-7617000D02*
X12166000Y-12557000D01*
X16766000Y-7617000D02*
X12166000Y-7617000D01*
X16766000Y-12227000D02*
X16766000Y-7617000D01*
X16766000Y-12227000D02*
X16766000Y-12557000D01*
D11*
X12424872Y-12870389D02*
X12424872Y-12670389D01*
X12424872Y-12670389D02*
X12472491Y-12670389D01*
X12472491Y-12670389D02*
X12501062Y-12679913D01*
X12501062Y-12679913D02*
X12520110Y-12698960D01*
X12520110Y-12698960D02*
X12529634Y-12718008D01*
X12529634Y-12718008D02*
X12539157Y-12756103D01*
X12539157Y-12756103D02*
X12539157Y-12784674D01*
X12539157Y-12784674D02*
X12529634Y-12822770D01*
X12529634Y-12822770D02*
X12520110Y-12841817D01*
X12520110Y-12841817D02*
X12501062Y-12860865D01*
X12501062Y-12860865D02*
X12472491Y-12870389D01*
X12472491Y-12870389D02*
X12424872Y-12870389D01*
X12624872Y-12870389D02*
X12624872Y-12737055D01*
X12624872Y-12775151D02*
X12634396Y-12756103D01*
X12634396Y-12756103D02*
X12643919Y-12746579D01*
X12643919Y-12746579D02*
X12662967Y-12737055D01*
X12662967Y-12737055D02*
X12682015Y-12737055D01*
X12748681Y-12870389D02*
X12748681Y-12737055D01*
X12748681Y-12670389D02*
X12739157Y-12679913D01*
X12739157Y-12679913D02*
X12748681Y-12689436D01*
X12748681Y-12689436D02*
X12758205Y-12679913D01*
X12758205Y-12679913D02*
X12748681Y-12670389D01*
X12748681Y-12670389D02*
X12748681Y-12689436D01*
X12872491Y-12870389D02*
X12853443Y-12860865D01*
X12853443Y-12860865D02*
X12843919Y-12841817D01*
X12843919Y-12841817D02*
X12843919Y-12670389D01*
X12977253Y-12870389D02*
X12958205Y-12860865D01*
X12958205Y-12860865D02*
X12948681Y-12841817D01*
X12948681Y-12841817D02*
X12948681Y-12670389D01*
X13205824Y-12870389D02*
X13205824Y-12670389D01*
X13205824Y-12670389D02*
X13272491Y-12813246D01*
X13272491Y-12813246D02*
X13339157Y-12670389D01*
X13339157Y-12670389D02*
X13339157Y-12870389D01*
X13520110Y-12870389D02*
X13520110Y-12765627D01*
X13520110Y-12765627D02*
X13510586Y-12746579D01*
X13510586Y-12746579D02*
X13491538Y-12737055D01*
X13491538Y-12737055D02*
X13453443Y-12737055D01*
X13453443Y-12737055D02*
X13434396Y-12746579D01*
X13520110Y-12860865D02*
X13501062Y-12870389D01*
X13501062Y-12870389D02*
X13453443Y-12870389D01*
X13453443Y-12870389D02*
X13434396Y-12860865D01*
X13434396Y-12860865D02*
X13424872Y-12841817D01*
X13424872Y-12841817D02*
X13424872Y-12822770D01*
X13424872Y-12822770D02*
X13434396Y-12803722D01*
X13434396Y-12803722D02*
X13453443Y-12794198D01*
X13453443Y-12794198D02*
X13501062Y-12794198D01*
X13501062Y-12794198D02*
X13520110Y-12784674D01*
X13615348Y-12737055D02*
X13615348Y-12937055D01*
X13615348Y-12746579D02*
X13634396Y-12737055D01*
X13634396Y-12737055D02*
X13672491Y-12737055D01*
X13672491Y-12737055D02*
X13691538Y-12746579D01*
X13691538Y-12746579D02*
X13701062Y-12756103D01*
X13701062Y-12756103D02*
X13710586Y-12775151D01*
X13710586Y-12775151D02*
X13710586Y-12832293D01*
X13710586Y-12832293D02*
X13701062Y-12851341D01*
X13701062Y-12851341D02*
X13691538Y-12860865D01*
X13691538Y-12860865D02*
X13672491Y-12870389D01*
X13672491Y-12870389D02*
X13634396Y-12870389D01*
X13634396Y-12870389D02*
X13615348Y-12860865D01*
X13796300Y-12851341D02*
X13805824Y-12860865D01*
X13805824Y-12860865D02*
X13796300Y-12870389D01*
X13796300Y-12870389D02*
X13786777Y-12860865D01*
X13786777Y-12860865D02*
X13796300Y-12851341D01*
X13796300Y-12851341D02*
X13796300Y-12870389D01*
X13796300Y-12746579D02*
X13805824Y-12756103D01*
X13805824Y-12756103D02*
X13796300Y-12765627D01*
X13796300Y-12765627D02*
X13786777Y-12756103D01*
X13786777Y-12756103D02*
X13796300Y-12746579D01*
X13796300Y-12746579D02*
X13796300Y-12765627D01*
M02*
