%TF.GenerationSoftware,KiCad,Pcbnew,8.0.6*%
%TF.CreationDate,2026-09-07T00:34:31+08:00*%
%TF.ProjectId,SMD_test,534d445f-7465-4737-942e-6b696361645f,rev?*%
%TF.SameCoordinates,Original*%
%TF.FileFunction,Copper,L4,Bot*%
%TF.FilePolarity,Positive*%
%FSLAX46Y46*%
G04 Gerber Fmt 4.6, Leading zero omitted, Abs format (unit mm)*
G04 Created by KiCad (PCBNEW 8.0.6) date 2026-09-07 00:34:31*
%MOMM*%
%LPD*%
G01*
G04 APERTURE LIST*
%ADD10C,0.304800*%
%TA.AperFunction,NonConductor*%
%ADD11C,0.304800*%
%TD*%
%ADD12C,0.200000*%
%TA.AperFunction,NonConductor*%
%ADD13C,0.200000*%
%TD*%
%ADD14C,0.400000*%
%TA.AperFunction,NonConductor*%
%ADD15C,0.400000*%
%TD*%
%TA.AperFunction,SMDPad,CuDef*%
%ADD16C,1.400000*%
%TD*%
%TA.AperFunction,SMDPad,CuDef*%
%ADD17O,1.400000X1.400000*%
%TD*%
%TA.AperFunction,SMDPad,CuDef*%
%ADD18R,1.524000X1.524000*%
%TD*%
%TA.AperFunction,SMDPad,CuDef*%
%ADD19C,1.524000*%
%TD*%
%TA.AperFunction,SMDPad,CuDef*%
%ADD20C,1.800000*%
%TD*%
%TA.AperFunction,SMDPad,CuDef*%
%ADD21R,1.800000X1.800000*%
%TD*%
%TA.AperFunction,SMDPad,CuDef*%
%ADD22C,1.600000*%
%TD*%
%TA.AperFunction,SMDPad,CuDef*%
%ADD23O,1.600000X1.600000*%
%TD*%
%TA.AperFunction,SMDPad,CuDef*%
%ADD24R,1.600000X1.600000*%
%TD*%
%TA.AperFunction,Conductor*%
%ADD25C,0.200000*%
%TD*%
G04 APERTURE END LIST*
D10*
D11*
X166641759Y-79543641D02*
X166278902Y-81067641D01*
X166278902Y-81067641D02*
X165988616Y-79979070D01*
X165988616Y-79979070D02*
X165698331Y-81067641D01*
X165698331Y-81067641D02*
X165335474Y-79543641D01*
X164101760Y-80051641D02*
X164101760Y-81067641D01*
X164754902Y-80051641D02*
X164754902Y-80849927D01*
X164754902Y-80849927D02*
X164682331Y-80995070D01*
X164682331Y-80995070D02*
X164537188Y-81067641D01*
X164537188Y-81067641D02*
X164319474Y-81067641D01*
X164319474Y-81067641D02*
X164174331Y-80995070D01*
X164174331Y-80995070D02*
X164101760Y-80922498D01*
D10*
D11*
X129741759Y-121551641D02*
X129378902Y-122567641D01*
X129378902Y-122567641D02*
X129016045Y-121551641D01*
X127637188Y-122567641D02*
X128508045Y-122567641D01*
X128072616Y-122567641D02*
X128072616Y-121043641D01*
X128072616Y-121043641D02*
X128217759Y-121261355D01*
X128217759Y-121261355D02*
X128362902Y-121406498D01*
X128362902Y-121406498D02*
X128508045Y-121479070D01*
X126984044Y-122422498D02*
X126911473Y-122495070D01*
X126911473Y-122495070D02*
X126984044Y-122567641D01*
X126984044Y-122567641D02*
X127056616Y-122495070D01*
X127056616Y-122495070D02*
X126984044Y-122422498D01*
X126984044Y-122422498D02*
X126984044Y-122567641D01*
X125968045Y-121043641D02*
X125822902Y-121043641D01*
X125822902Y-121043641D02*
X125677759Y-121116212D01*
X125677759Y-121116212D02*
X125605188Y-121188784D01*
X125605188Y-121188784D02*
X125532616Y-121333927D01*
X125532616Y-121333927D02*
X125460045Y-121624212D01*
X125460045Y-121624212D02*
X125460045Y-121987070D01*
X125460045Y-121987070D02*
X125532616Y-122277355D01*
X125532616Y-122277355D02*
X125605188Y-122422498D01*
X125605188Y-122422498D02*
X125677759Y-122495070D01*
X125677759Y-122495070D02*
X125822902Y-122567641D01*
X125822902Y-122567641D02*
X125968045Y-122567641D01*
X125968045Y-122567641D02*
X126113188Y-122495070D01*
X126113188Y-122495070D02*
X126185759Y-122422498D01*
X126185759Y-122422498D02*
X126258330Y-122277355D01*
X126258330Y-122277355D02*
X126330902Y-121987070D01*
X126330902Y-121987070D02*
X126330902Y-121624212D01*
X126330902Y-121624212D02*
X126258330Y-121333927D01*
X126258330Y-121333927D02*
X126185759Y-121188784D01*
X126185759Y-121188784D02*
X126113188Y-121116212D01*
X126113188Y-121116212D02*
X125968045Y-121043641D01*
D12*
D13*
X136275279Y-118695536D02*
X136130136Y-118695536D01*
X136130136Y-118695536D02*
X135984993Y-118768107D01*
X135984993Y-118768107D02*
X135912422Y-118840679D01*
X135912422Y-118840679D02*
X135839850Y-118985822D01*
X135839850Y-118985822D02*
X135767279Y-119276107D01*
X135767279Y-119276107D02*
X135767279Y-119638965D01*
X135767279Y-119638965D02*
X135839850Y-119929250D01*
X135839850Y-119929250D02*
X135912422Y-120074393D01*
X135912422Y-120074393D02*
X135984993Y-120146965D01*
X135984993Y-120146965D02*
X136130136Y-120219536D01*
X136130136Y-120219536D02*
X136275279Y-120219536D01*
X136275279Y-120219536D02*
X136420422Y-120146965D01*
X136420422Y-120146965D02*
X136492993Y-120074393D01*
X136492993Y-120074393D02*
X136565564Y-119929250D01*
X136565564Y-119929250D02*
X136638136Y-119638965D01*
X136638136Y-119638965D02*
X136638136Y-119276107D01*
X136638136Y-119276107D02*
X136565564Y-118985822D01*
X136565564Y-118985822D02*
X136492993Y-118840679D01*
X136492993Y-118840679D02*
X136420422Y-118768107D01*
X136420422Y-118768107D02*
X136275279Y-118695536D01*
X135259278Y-118695536D02*
X134243278Y-118695536D01*
X134243278Y-118695536D02*
X134896421Y-120219536D01*
X132574135Y-118622965D02*
X133880421Y-120582393D01*
X132138707Y-120146965D02*
X131920993Y-120219536D01*
X131920993Y-120219536D02*
X131558135Y-120219536D01*
X131558135Y-120219536D02*
X131412993Y-120146965D01*
X131412993Y-120146965D02*
X131340421Y-120074393D01*
X131340421Y-120074393D02*
X131267850Y-119929250D01*
X131267850Y-119929250D02*
X131267850Y-119784107D01*
X131267850Y-119784107D02*
X131340421Y-119638965D01*
X131340421Y-119638965D02*
X131412993Y-119566393D01*
X131412993Y-119566393D02*
X131558135Y-119493822D01*
X131558135Y-119493822D02*
X131848421Y-119421250D01*
X131848421Y-119421250D02*
X131993564Y-119348679D01*
X131993564Y-119348679D02*
X132066135Y-119276107D01*
X132066135Y-119276107D02*
X132138707Y-119130965D01*
X132138707Y-119130965D02*
X132138707Y-118985822D01*
X132138707Y-118985822D02*
X132066135Y-118840679D01*
X132066135Y-118840679D02*
X131993564Y-118768107D01*
X131993564Y-118768107D02*
X131848421Y-118695536D01*
X131848421Y-118695536D02*
X131485564Y-118695536D01*
X131485564Y-118695536D02*
X131267850Y-118768107D01*
X130614706Y-119421250D02*
X130106706Y-119421250D01*
X129888992Y-120219536D02*
X130614706Y-120219536D01*
X130614706Y-120219536D02*
X130614706Y-118695536D01*
X130614706Y-118695536D02*
X129888992Y-118695536D01*
X129235849Y-120219536D02*
X129235849Y-118695536D01*
X129235849Y-118695536D02*
X128655278Y-118695536D01*
X128655278Y-118695536D02*
X128510135Y-118768107D01*
X128510135Y-118768107D02*
X128437564Y-118840679D01*
X128437564Y-118840679D02*
X128364992Y-118985822D01*
X128364992Y-118985822D02*
X128364992Y-119203536D01*
X128364992Y-119203536D02*
X128437564Y-119348679D01*
X128437564Y-119348679D02*
X128510135Y-119421250D01*
X128510135Y-119421250D02*
X128655278Y-119493822D01*
X128655278Y-119493822D02*
X129235849Y-119493822D01*
X127929564Y-118695536D02*
X127058707Y-118695536D01*
X127494135Y-120219536D02*
X127494135Y-118695536D01*
X125462135Y-118622965D02*
X126768421Y-120582393D01*
X136638136Y-121294234D02*
X136565564Y-121221662D01*
X136565564Y-121221662D02*
X136420422Y-121149091D01*
X136420422Y-121149091D02*
X136057564Y-121149091D01*
X136057564Y-121149091D02*
X135912422Y-121221662D01*
X135912422Y-121221662D02*
X135839850Y-121294234D01*
X135839850Y-121294234D02*
X135767279Y-121439377D01*
X135767279Y-121439377D02*
X135767279Y-121584520D01*
X135767279Y-121584520D02*
X135839850Y-121802234D01*
X135839850Y-121802234D02*
X136710707Y-122673091D01*
X136710707Y-122673091D02*
X135767279Y-122673091D01*
X134823850Y-121149091D02*
X134678707Y-121149091D01*
X134678707Y-121149091D02*
X134533564Y-121221662D01*
X134533564Y-121221662D02*
X134460993Y-121294234D01*
X134460993Y-121294234D02*
X134388421Y-121439377D01*
X134388421Y-121439377D02*
X134315850Y-121729662D01*
X134315850Y-121729662D02*
X134315850Y-122092520D01*
X134315850Y-122092520D02*
X134388421Y-122382805D01*
X134388421Y-122382805D02*
X134460993Y-122527948D01*
X134460993Y-122527948D02*
X134533564Y-122600520D01*
X134533564Y-122600520D02*
X134678707Y-122673091D01*
X134678707Y-122673091D02*
X134823850Y-122673091D01*
X134823850Y-122673091D02*
X134968993Y-122600520D01*
X134968993Y-122600520D02*
X135041564Y-122527948D01*
X135041564Y-122527948D02*
X135114135Y-122382805D01*
X135114135Y-122382805D02*
X135186707Y-122092520D01*
X135186707Y-122092520D02*
X135186707Y-121729662D01*
X135186707Y-121729662D02*
X135114135Y-121439377D01*
X135114135Y-121439377D02*
X135041564Y-121294234D01*
X135041564Y-121294234D02*
X134968993Y-121221662D01*
X134968993Y-121221662D02*
X134823850Y-121149091D01*
X133735278Y-121294234D02*
X133662706Y-121221662D01*
X133662706Y-121221662D02*
X133517564Y-121149091D01*
X133517564Y-121149091D02*
X133154706Y-121149091D01*
X133154706Y-121149091D02*
X133009564Y-121221662D01*
X133009564Y-121221662D02*
X132936992Y-121294234D01*
X132936992Y-121294234D02*
X132864421Y-121439377D01*
X132864421Y-121439377D02*
X132864421Y-121584520D01*
X132864421Y-121584520D02*
X132936992Y-121802234D01*
X132936992Y-121802234D02*
X133807849Y-122673091D01*
X133807849Y-122673091D02*
X132864421Y-122673091D01*
X131558135Y-121149091D02*
X131848420Y-121149091D01*
X131848420Y-121149091D02*
X131993563Y-121221662D01*
X131993563Y-121221662D02*
X132066135Y-121294234D01*
X132066135Y-121294234D02*
X132211277Y-121511948D01*
X132211277Y-121511948D02*
X132283849Y-121802234D01*
X132283849Y-121802234D02*
X132283849Y-122382805D01*
X132283849Y-122382805D02*
X132211277Y-122527948D01*
X132211277Y-122527948D02*
X132138706Y-122600520D01*
X132138706Y-122600520D02*
X131993563Y-122673091D01*
X131993563Y-122673091D02*
X131703277Y-122673091D01*
X131703277Y-122673091D02*
X131558135Y-122600520D01*
X131558135Y-122600520D02*
X131485563Y-122527948D01*
X131485563Y-122527948D02*
X131412992Y-122382805D01*
X131412992Y-122382805D02*
X131412992Y-122019948D01*
X131412992Y-122019948D02*
X131485563Y-121874805D01*
X131485563Y-121874805D02*
X131558135Y-121802234D01*
X131558135Y-121802234D02*
X131703277Y-121729662D01*
X131703277Y-121729662D02*
X131993563Y-121729662D01*
X131993563Y-121729662D02*
X132138706Y-121802234D01*
X132138706Y-121802234D02*
X132211277Y-121874805D01*
X132211277Y-121874805D02*
X132283849Y-122019948D01*
D14*
D15*
X136415890Y-117709200D02*
X136130176Y-117804438D01*
X136130176Y-117804438D02*
X135653985Y-117804438D01*
X135653985Y-117804438D02*
X135463509Y-117709200D01*
X135463509Y-117709200D02*
X135368271Y-117613961D01*
X135368271Y-117613961D02*
X135273033Y-117423485D01*
X135273033Y-117423485D02*
X135273033Y-117233009D01*
X135273033Y-117233009D02*
X135368271Y-117042533D01*
X135368271Y-117042533D02*
X135463509Y-116947295D01*
X135463509Y-116947295D02*
X135653985Y-116852057D01*
X135653985Y-116852057D02*
X136034938Y-116756819D01*
X136034938Y-116756819D02*
X136225414Y-116661580D01*
X136225414Y-116661580D02*
X136320652Y-116566342D01*
X136320652Y-116566342D02*
X136415890Y-116375866D01*
X136415890Y-116375866D02*
X136415890Y-116185390D01*
X136415890Y-116185390D02*
X136320652Y-115994914D01*
X136320652Y-115994914D02*
X136225414Y-115899676D01*
X136225414Y-115899676D02*
X136034938Y-115804438D01*
X136034938Y-115804438D02*
X135558747Y-115804438D01*
X135558747Y-115804438D02*
X135273033Y-115899676D01*
X134415890Y-117804438D02*
X134415890Y-115804438D01*
X134415890Y-115804438D02*
X133749223Y-117233009D01*
X133749223Y-117233009D02*
X133082557Y-115804438D01*
X133082557Y-115804438D02*
X133082557Y-117804438D01*
X132130176Y-117804438D02*
X132130176Y-115804438D01*
X132130176Y-115804438D02*
X131653986Y-115804438D01*
X131653986Y-115804438D02*
X131368271Y-115899676D01*
X131368271Y-115899676D02*
X131177795Y-116090152D01*
X131177795Y-116090152D02*
X131082557Y-116280628D01*
X131082557Y-116280628D02*
X130987319Y-116661580D01*
X130987319Y-116661580D02*
X130987319Y-116947295D01*
X130987319Y-116947295D02*
X131082557Y-117328247D01*
X131082557Y-117328247D02*
X131177795Y-117518723D01*
X131177795Y-117518723D02*
X131368271Y-117709200D01*
X131368271Y-117709200D02*
X131653986Y-117804438D01*
X131653986Y-117804438D02*
X132130176Y-117804438D01*
X128892080Y-115804438D02*
X127749223Y-115804438D01*
X128320652Y-117804438D02*
X128320652Y-115804438D01*
X126320651Y-117709200D02*
X126511127Y-117804438D01*
X126511127Y-117804438D02*
X126892080Y-117804438D01*
X126892080Y-117804438D02*
X127082556Y-117709200D01*
X127082556Y-117709200D02*
X127177794Y-117518723D01*
X127177794Y-117518723D02*
X127177794Y-116756819D01*
X127177794Y-116756819D02*
X127082556Y-116566342D01*
X127082556Y-116566342D02*
X126892080Y-116471104D01*
X126892080Y-116471104D02*
X126511127Y-116471104D01*
X126511127Y-116471104D02*
X126320651Y-116566342D01*
X126320651Y-116566342D02*
X126225413Y-116756819D01*
X126225413Y-116756819D02*
X126225413Y-116947295D01*
X126225413Y-116947295D02*
X127177794Y-117137771D01*
X125463508Y-117709200D02*
X125273032Y-117804438D01*
X125273032Y-117804438D02*
X124892080Y-117804438D01*
X124892080Y-117804438D02*
X124701603Y-117709200D01*
X124701603Y-117709200D02*
X124606365Y-117518723D01*
X124606365Y-117518723D02*
X124606365Y-117423485D01*
X124606365Y-117423485D02*
X124701603Y-117233009D01*
X124701603Y-117233009D02*
X124892080Y-117137771D01*
X124892080Y-117137771D02*
X125177794Y-117137771D01*
X125177794Y-117137771D02*
X125368270Y-117042533D01*
X125368270Y-117042533D02*
X125463508Y-116852057D01*
X125463508Y-116852057D02*
X125463508Y-116756819D01*
X125463508Y-116756819D02*
X125368270Y-116566342D01*
X125368270Y-116566342D02*
X125177794Y-116471104D01*
X125177794Y-116471104D02*
X124892080Y-116471104D01*
X124892080Y-116471104D02*
X124701603Y-116566342D01*
X124034936Y-116471104D02*
X123273032Y-116471104D01*
X123749222Y-115804438D02*
X123749222Y-117518723D01*
X123749222Y-117518723D02*
X123653984Y-117709200D01*
X123653984Y-117709200D02*
X123463508Y-117804438D01*
X123463508Y-117804438D02*
X123273032Y-117804438D01*
D10*
D11*
X166025759Y-78622498D02*
X166098331Y-78695070D01*
X166098331Y-78695070D02*
X166316045Y-78767641D01*
X166316045Y-78767641D02*
X166461188Y-78767641D01*
X166461188Y-78767641D02*
X166678902Y-78695070D01*
X166678902Y-78695070D02*
X166824045Y-78549927D01*
X166824045Y-78549927D02*
X166896616Y-78404784D01*
X166896616Y-78404784D02*
X166969188Y-78114498D01*
X166969188Y-78114498D02*
X166969188Y-77896784D01*
X166969188Y-77896784D02*
X166896616Y-77606498D01*
X166896616Y-77606498D02*
X166824045Y-77461355D01*
X166824045Y-77461355D02*
X166678902Y-77316212D01*
X166678902Y-77316212D02*
X166461188Y-77243641D01*
X166461188Y-77243641D02*
X166316045Y-77243641D01*
X166316045Y-77243641D02*
X166098331Y-77316212D01*
X166098331Y-77316212D02*
X166025759Y-77388784D01*
X164719474Y-78767641D02*
X164719474Y-77969355D01*
X164719474Y-77969355D02*
X164792045Y-77824212D01*
X164792045Y-77824212D02*
X164937188Y-77751641D01*
X164937188Y-77751641D02*
X165227474Y-77751641D01*
X165227474Y-77751641D02*
X165372616Y-77824212D01*
X164719474Y-78695070D02*
X164864616Y-78767641D01*
X164864616Y-78767641D02*
X165227474Y-78767641D01*
X165227474Y-78767641D02*
X165372616Y-78695070D01*
X165372616Y-78695070D02*
X165445188Y-78549927D01*
X165445188Y-78549927D02*
X165445188Y-78404784D01*
X165445188Y-78404784D02*
X165372616Y-78259641D01*
X165372616Y-78259641D02*
X165227474Y-78187070D01*
X165227474Y-78187070D02*
X164864616Y-78187070D01*
X164864616Y-78187070D02*
X164719474Y-78114498D01*
X163993759Y-78767641D02*
X163993759Y-77751641D01*
X163993759Y-78041927D02*
X163921188Y-77896784D01*
X163921188Y-77896784D02*
X163848617Y-77824212D01*
X163848617Y-77824212D02*
X163703474Y-77751641D01*
X163703474Y-77751641D02*
X163558331Y-77751641D01*
X163122902Y-78695070D02*
X162977759Y-78767641D01*
X162977759Y-78767641D02*
X162687473Y-78767641D01*
X162687473Y-78767641D02*
X162542330Y-78695070D01*
X162542330Y-78695070D02*
X162469759Y-78549927D01*
X162469759Y-78549927D02*
X162469759Y-78477355D01*
X162469759Y-78477355D02*
X162542330Y-78332212D01*
X162542330Y-78332212D02*
X162687473Y-78259641D01*
X162687473Y-78259641D02*
X162905188Y-78259641D01*
X162905188Y-78259641D02*
X163050330Y-78187070D01*
X163050330Y-78187070D02*
X163122902Y-78041927D01*
X163122902Y-78041927D02*
X163122902Y-77969355D01*
X163122902Y-77969355D02*
X163050330Y-77824212D01*
X163050330Y-77824212D02*
X162905188Y-77751641D01*
X162905188Y-77751641D02*
X162687473Y-77751641D01*
X162687473Y-77751641D02*
X162542330Y-77824212D01*
X161598902Y-78767641D02*
X161744045Y-78695070D01*
X161744045Y-78695070D02*
X161816616Y-78622498D01*
X161816616Y-78622498D02*
X161889188Y-78477355D01*
X161889188Y-78477355D02*
X161889188Y-78041927D01*
X161889188Y-78041927D02*
X161816616Y-77896784D01*
X161816616Y-77896784D02*
X161744045Y-77824212D01*
X161744045Y-77824212D02*
X161598902Y-77751641D01*
X161598902Y-77751641D02*
X161381188Y-77751641D01*
X161381188Y-77751641D02*
X161236045Y-77824212D01*
X161236045Y-77824212D02*
X161163474Y-77896784D01*
X161163474Y-77896784D02*
X161090902Y-78041927D01*
X161090902Y-78041927D02*
X161090902Y-78477355D01*
X161090902Y-78477355D02*
X161163474Y-78622498D01*
X161163474Y-78622498D02*
X161236045Y-78695070D01*
X161236045Y-78695070D02*
X161381188Y-78767641D01*
X161381188Y-78767641D02*
X161598902Y-78767641D01*
X160437759Y-77751641D02*
X160437759Y-78767641D01*
X160437759Y-77896784D02*
X160365188Y-77824212D01*
X160365188Y-77824212D02*
X160220045Y-77751641D01*
X160220045Y-77751641D02*
X160002331Y-77751641D01*
X160002331Y-77751641D02*
X159857188Y-77824212D01*
X159857188Y-77824212D02*
X159784617Y-77969355D01*
X159784617Y-77969355D02*
X159784617Y-78767641D01*
D16*
%TO.P,R2,1*%
%TO.N,+5V*%
X126560000Y-112570000D03*
D17*
%TO.P,R2,2*%
%TO.N,Net-(J1-Pin_1)*%
X134180000Y-112570000D03*
%TD*%
D16*
%TO.P,R1,1*%
%TO.N,Net-(A1-D12)*%
X158360000Y-124370000D03*
D17*
%TO.P,R1,2*%
%TO.N,Net-(D1-A)*%
X158360000Y-116750000D03*
%TD*%
D18*
%TO.P,J1,1,Pin_1*%
%TO.N,Net-(J1-Pin_1)*%
X127678000Y-108362000D03*
D19*
%TO.P,J1,2,Pin_2*%
%TO.N,GND*%
X129456000Y-108362000D03*
%TO.P,J1,3,Pin_3*%
%TO.N,Net-(A1-D2)*%
X131234000Y-108426000D03*
%TD*%
D20*
%TO.P,D1,2,A*%
%TO.N,Net-(D1-A)*%
X158860000Y-109870000D03*
D21*
%TO.P,D1,1,K*%
%TO.N,GND*%
X161400000Y-109870000D03*
%TD*%
D22*
%TO.P,C1,2*%
%TO.N,GND*%
X163560000Y-118270000D03*
%TO.P,C1,1*%
%TO.N,Net-(A1-D2)*%
X163560000Y-123270000D03*
%TD*%
D23*
%TO.P,A1,30,VIN*%
%TO.N,unconnected-(A1-VIN-Pad30)*%
X139360000Y-82280000D03*
%TO.P,A1,29,GND*%
%TO.N,GND*%
X139360000Y-84820000D03*
%TO.P,A1,28,~{RESET}*%
%TO.N,unconnected-(A1-~{RESET}-Pad28)*%
X139360000Y-87360000D03*
%TO.P,A1,27,+5V*%
%TO.N,+5V*%
X139360000Y-89900000D03*
%TO.P,A1,26,A7*%
%TO.N,unconnected-(A1-A7-Pad26)*%
X139360000Y-92440000D03*
%TO.P,A1,25,A6*%
%TO.N,unconnected-(A1-A6-Pad25)*%
X139360000Y-94980000D03*
%TO.P,A1,24,A5*%
%TO.N,unconnected-(A1-A5-Pad24)*%
X139360000Y-97520000D03*
%TO.P,A1,23,A4*%
%TO.N,unconnected-(A1-A4-Pad23)*%
X139360000Y-100060000D03*
%TO.P,A1,22,A3*%
%TO.N,unconnected-(A1-A3-Pad22)*%
X139360000Y-102600000D03*
%TO.P,A1,21,A2*%
%TO.N,unconnected-(A1-A2-Pad21)*%
X139360000Y-105140000D03*
%TO.P,A1,20,A1*%
%TO.N,unconnected-(A1-A1-Pad20)*%
X139360000Y-107680000D03*
%TO.P,A1,19,A0*%
%TO.N,unconnected-(A1-A0-Pad19)*%
X139360000Y-110220000D03*
%TO.P,A1,18,AREF*%
%TO.N,unconnected-(A1-AREF-Pad18)*%
X139360000Y-112760000D03*
%TO.P,A1,17,3V3*%
%TO.N,unconnected-(A1-3V3-Pad17)*%
X139360000Y-115300000D03*
%TO.P,A1,16,D13*%
%TO.N,unconnected-(A1-D13-Pad16)*%
X139360000Y-117840000D03*
%TO.P,A1,15,D12*%
%TO.N,Net-(A1-D12)*%
X154600000Y-117840000D03*
%TO.P,A1,14,D11*%
%TO.N,unconnected-(A1-D11-Pad14)*%
X154600000Y-115300000D03*
%TO.P,A1,13,D10*%
%TO.N,unconnected-(A1-D10-Pad13)*%
X154600000Y-112760000D03*
%TO.P,A1,12,D9*%
%TO.N,unconnected-(A1-D9-Pad12)*%
X154600000Y-110220000D03*
%TO.P,A1,11,D8*%
%TO.N,unconnected-(A1-D8-Pad11)*%
X154600000Y-107680000D03*
%TO.P,A1,10,D7*%
%TO.N,unconnected-(A1-D7-Pad10)*%
X154600000Y-105140000D03*
%TO.P,A1,9,D6*%
%TO.N,unconnected-(A1-D6-Pad9)*%
X154600000Y-102600000D03*
%TO.P,A1,8,D5*%
%TO.N,unconnected-(A1-D5-Pad8)*%
X154600000Y-100060000D03*
%TO.P,A1,7,D4*%
%TO.N,unconnected-(A1-D4-Pad7)*%
X154600000Y-97520000D03*
%TO.P,A1,6,D3*%
%TO.N,unconnected-(A1-D3-Pad6)*%
X154600000Y-94980000D03*
%TO.P,A1,5,D2*%
%TO.N,Net-(A1-D2)*%
X154600000Y-92440000D03*
%TO.P,A1,4,GND*%
%TO.N,GND*%
X154600000Y-89900000D03*
%TO.P,A1,3,~{RESET}*%
%TO.N,unconnected-(A1-~{RESET}-Pad3)*%
X154600000Y-87360000D03*
%TO.P,A1,2,D0/RX*%
%TO.N,unconnected-(A1-D0{slash}RX-Pad2)*%
X154600000Y-84820000D03*
D24*
%TO.P,A1,1,D1/TX*%
%TO.N,unconnected-(A1-D1{slash}TX-Pad1)*%
X154600000Y-82280000D03*
%TD*%
D25*
%TO.N,GND*%
X154600000Y-89900000D02*
X154390000Y-89900000D01*
X154390000Y-89900000D02*
X149310000Y-84820000D01*
X149310000Y-84820000D02*
X139360000Y-84820000D01*
X154600000Y-89900000D02*
X161400000Y-96700000D01*
X161400000Y-96700000D02*
X161400000Y-109870000D01*
X140460000Y-85920000D02*
X139360000Y-84820000D01*
X140460000Y-85920000D02*
X140460000Y-97970000D01*
X138785000Y-99033000D02*
X129456000Y-108362000D01*
X140460000Y-97970000D02*
X139397000Y-99033000D01*
X139397000Y-99033000D02*
X138785000Y-99033000D01*
%TO.N,Net-(A1-D2)*%
X163560000Y-123270000D02*
X157433000Y-117143000D01*
X157433000Y-117143000D02*
X157433000Y-95273000D01*
X157433000Y-95273000D02*
X154600000Y-92440000D01*
%TO.N,Net-(A1-D12)*%
X158360000Y-124370000D02*
X158360000Y-121600000D01*
X158360000Y-121600000D02*
X154600000Y-117840000D01*
%TO.N,GND*%
X163560000Y-118270000D02*
X163560000Y-112030000D01*
X163560000Y-112030000D02*
X161400000Y-109870000D01*
%TO.N,Net-(D1-A)*%
X158860000Y-109870000D02*
X158860000Y-116250000D01*
X158860000Y-116250000D02*
X158360000Y-116750000D01*
%TO.N,+5V*%
X137060000Y-97002000D02*
X137060000Y-90570000D01*
X126560000Y-107502000D02*
X137060000Y-97002000D01*
X137060000Y-90570000D02*
X137730000Y-89900000D01*
X126560000Y-112570000D02*
X126560000Y-107502000D01*
X137730000Y-89900000D02*
X139360000Y-89900000D01*
%TO.N,Net-(J1-Pin_1)*%
X134180000Y-112570000D02*
X132265342Y-112570000D01*
X128057342Y-108362000D02*
X127678000Y-108362000D01*
X132265342Y-112570000D02*
X128057342Y-108362000D01*
%TO.N,Net-(A1-D2)*%
X131234000Y-108426000D02*
X138390000Y-101270000D01*
X138390000Y-101270000D02*
X145770000Y-101270000D01*
X145770000Y-101270000D02*
X154600000Y-92440000D01*
%TD*%
M02*
