%TF.GenerationSoftware,KiCad,Pcbnew,8.0.6*%
%TF.CreationDate,2026-09-07T02:39:41+08:00*%
%TF.ProjectId,SMD_test,534d445f-7465-4737-942e-6b696361645f,rev?*%
%TF.SameCoordinates,Original*%
%TF.FileFunction,Legend,Bot*%
%TF.FilePolarity,Positive*%
%FSLAX46Y46*%
G04 Gerber Fmt 4.6, Leading zero omitted, Abs format (unit mm)*
G04 Created by KiCad (PCBNEW 8.0.6) date 2026-09-07 02:39:41*
%MOMM*%
%LPD*%
G01*
G04 APERTURE LIST*
%ADD10C,0.050000*%
%ADD11C,0.304800*%
%ADD12C,0.200000*%
%ADD13C,0.400000*%
%ADD14C,0.100000*%
%ADD15C,0.150000*%
%ADD16C,0.120000*%
G04 APERTURE END LIST*
D10*
X166948058Y-82481517D02*
X166948058Y-82148184D01*
X166948058Y-81981517D02*
X166971867Y-82005327D01*
X166971867Y-82005327D02*
X166948058Y-82029136D01*
X166948058Y-82029136D02*
X166924248Y-82005327D01*
X166924248Y-82005327D02*
X166948058Y-81981517D01*
X166948058Y-81981517D02*
X166948058Y-82029136D01*
X166709963Y-82481517D02*
X166709963Y-82148184D01*
X166709963Y-82195803D02*
X166686153Y-82171993D01*
X166686153Y-82171993D02*
X166638534Y-82148184D01*
X166638534Y-82148184D02*
X166567106Y-82148184D01*
X166567106Y-82148184D02*
X166519487Y-82171993D01*
X166519487Y-82171993D02*
X166495677Y-82219612D01*
X166495677Y-82219612D02*
X166495677Y-82481517D01*
X166495677Y-82219612D02*
X166471868Y-82171993D01*
X166471868Y-82171993D02*
X166424249Y-82148184D01*
X166424249Y-82148184D02*
X166352820Y-82148184D01*
X166352820Y-82148184D02*
X166305201Y-82171993D01*
X166305201Y-82171993D02*
X166281391Y-82219612D01*
X166281391Y-82219612D02*
X166281391Y-82481517D01*
X165662344Y-82148184D02*
X165662344Y-82481517D01*
X165662344Y-82195803D02*
X165638534Y-82171993D01*
X165638534Y-82171993D02*
X165590915Y-82148184D01*
X165590915Y-82148184D02*
X165519487Y-82148184D01*
X165519487Y-82148184D02*
X165471868Y-82171993D01*
X165471868Y-82171993D02*
X165448058Y-82219612D01*
X165448058Y-82219612D02*
X165448058Y-82481517D01*
X164995677Y-82481517D02*
X164995677Y-82219612D01*
X164995677Y-82219612D02*
X165019487Y-82171993D01*
X165019487Y-82171993D02*
X165067106Y-82148184D01*
X165067106Y-82148184D02*
X165162344Y-82148184D01*
X165162344Y-82148184D02*
X165209963Y-82171993D01*
X164995677Y-82457708D02*
X165043296Y-82481517D01*
X165043296Y-82481517D02*
X165162344Y-82481517D01*
X165162344Y-82481517D02*
X165209963Y-82457708D01*
X165209963Y-82457708D02*
X165233772Y-82410088D01*
X165233772Y-82410088D02*
X165233772Y-82362469D01*
X165233772Y-82362469D02*
X165209963Y-82314850D01*
X165209963Y-82314850D02*
X165162344Y-82291041D01*
X165162344Y-82291041D02*
X165043296Y-82291041D01*
X165043296Y-82291041D02*
X164995677Y-82267231D01*
X164805201Y-82148184D02*
X164686153Y-82481517D01*
X164567106Y-82148184D02*
X164686153Y-82481517D01*
X164686153Y-82481517D02*
X164733772Y-82600565D01*
X164733772Y-82600565D02*
X164757582Y-82624374D01*
X164757582Y-82624374D02*
X164805201Y-82648184D01*
X164186154Y-82457708D02*
X164233773Y-82481517D01*
X164233773Y-82481517D02*
X164329011Y-82481517D01*
X164329011Y-82481517D02*
X164376630Y-82457708D01*
X164376630Y-82457708D02*
X164400439Y-82410088D01*
X164400439Y-82410088D02*
X164400439Y-82219612D01*
X164400439Y-82219612D02*
X164376630Y-82171993D01*
X164376630Y-82171993D02*
X164329011Y-82148184D01*
X164329011Y-82148184D02*
X164233773Y-82148184D01*
X164233773Y-82148184D02*
X164186154Y-82171993D01*
X164186154Y-82171993D02*
X164162344Y-82219612D01*
X164162344Y-82219612D02*
X164162344Y-82267231D01*
X164162344Y-82267231D02*
X164400439Y-82314850D01*
X163876630Y-82481517D02*
X163924249Y-82457708D01*
X163924249Y-82457708D02*
X163948059Y-82433898D01*
X163948059Y-82433898D02*
X163971868Y-82386279D01*
X163971868Y-82386279D02*
X163971868Y-82243422D01*
X163971868Y-82243422D02*
X163948059Y-82195803D01*
X163948059Y-82195803D02*
X163924249Y-82171993D01*
X163924249Y-82171993D02*
X163876630Y-82148184D01*
X163876630Y-82148184D02*
X163805202Y-82148184D01*
X163805202Y-82148184D02*
X163757583Y-82171993D01*
X163757583Y-82171993D02*
X163733773Y-82195803D01*
X163733773Y-82195803D02*
X163709964Y-82243422D01*
X163709964Y-82243422D02*
X163709964Y-82386279D01*
X163709964Y-82386279D02*
X163733773Y-82433898D01*
X163733773Y-82433898D02*
X163757583Y-82457708D01*
X163757583Y-82457708D02*
X163805202Y-82481517D01*
X163805202Y-82481517D02*
X163876630Y-82481517D01*
X163495678Y-82148184D02*
X163495678Y-82481517D01*
X163495678Y-82195803D02*
X163471868Y-82171993D01*
X163471868Y-82171993D02*
X163424249Y-82148184D01*
X163424249Y-82148184D02*
X163352821Y-82148184D01*
X163352821Y-82148184D02*
X163305202Y-82171993D01*
X163305202Y-82171993D02*
X163281392Y-82219612D01*
X163281392Y-82219612D02*
X163281392Y-82481517D01*
X163043297Y-82433898D02*
X163019487Y-82457708D01*
X163019487Y-82457708D02*
X163043297Y-82481517D01*
X163043297Y-82481517D02*
X163067106Y-82457708D01*
X163067106Y-82457708D02*
X163043297Y-82433898D01*
X163043297Y-82433898D02*
X163043297Y-82481517D01*
X163043297Y-82291041D02*
X163067106Y-82005327D01*
X163067106Y-82005327D02*
X163043297Y-81981517D01*
X163043297Y-81981517D02*
X163019487Y-82005327D01*
X163019487Y-82005327D02*
X163043297Y-82291041D01*
X163043297Y-82291041D02*
X163043297Y-81981517D01*
X166995677Y-82953156D02*
X166876629Y-83286489D01*
X166757582Y-82953156D02*
X166876629Y-83286489D01*
X166876629Y-83286489D02*
X166924248Y-83405537D01*
X166924248Y-83405537D02*
X166948058Y-83429346D01*
X166948058Y-83429346D02*
X166995677Y-83453156D01*
X166495677Y-83286489D02*
X166543296Y-83262680D01*
X166543296Y-83262680D02*
X166567106Y-83238870D01*
X166567106Y-83238870D02*
X166590915Y-83191251D01*
X166590915Y-83191251D02*
X166590915Y-83048394D01*
X166590915Y-83048394D02*
X166567106Y-83000775D01*
X166567106Y-83000775D02*
X166543296Y-82976965D01*
X166543296Y-82976965D02*
X166495677Y-82953156D01*
X166495677Y-82953156D02*
X166424249Y-82953156D01*
X166424249Y-82953156D02*
X166376630Y-82976965D01*
X166376630Y-82976965D02*
X166352820Y-83000775D01*
X166352820Y-83000775D02*
X166329011Y-83048394D01*
X166329011Y-83048394D02*
X166329011Y-83191251D01*
X166329011Y-83191251D02*
X166352820Y-83238870D01*
X166352820Y-83238870D02*
X166376630Y-83262680D01*
X166376630Y-83262680D02*
X166424249Y-83286489D01*
X166424249Y-83286489D02*
X166495677Y-83286489D01*
X166043296Y-83286489D02*
X166090915Y-83262680D01*
X166090915Y-83262680D02*
X166114725Y-83238870D01*
X166114725Y-83238870D02*
X166138534Y-83191251D01*
X166138534Y-83191251D02*
X166138534Y-83048394D01*
X166138534Y-83048394D02*
X166114725Y-83000775D01*
X166114725Y-83000775D02*
X166090915Y-82976965D01*
X166090915Y-82976965D02*
X166043296Y-82953156D01*
X166043296Y-82953156D02*
X165971868Y-82953156D01*
X165971868Y-82953156D02*
X165924249Y-82976965D01*
X165924249Y-82976965D02*
X165900439Y-83000775D01*
X165900439Y-83000775D02*
X165876630Y-83048394D01*
X165876630Y-83048394D02*
X165876630Y-83191251D01*
X165876630Y-83191251D02*
X165900439Y-83238870D01*
X165900439Y-83238870D02*
X165924249Y-83262680D01*
X165924249Y-83262680D02*
X165971868Y-83286489D01*
X165971868Y-83286489D02*
X166043296Y-83286489D01*
X165281392Y-82953156D02*
X165281392Y-83381727D01*
X165281392Y-83381727D02*
X165305201Y-83429346D01*
X165305201Y-83429346D02*
X165352820Y-83453156D01*
X165352820Y-83453156D02*
X165376630Y-83453156D01*
X165281392Y-82786489D02*
X165305201Y-82810299D01*
X165305201Y-82810299D02*
X165281392Y-82834108D01*
X165281392Y-82834108D02*
X165257582Y-82810299D01*
X165257582Y-82810299D02*
X165281392Y-82786489D01*
X165281392Y-82786489D02*
X165281392Y-82834108D01*
X164852821Y-83262680D02*
X164900440Y-83286489D01*
X164900440Y-83286489D02*
X164995678Y-83286489D01*
X164995678Y-83286489D02*
X165043297Y-83262680D01*
X165043297Y-83262680D02*
X165067106Y-83215060D01*
X165067106Y-83215060D02*
X165067106Y-83024584D01*
X165067106Y-83024584D02*
X165043297Y-82976965D01*
X165043297Y-82976965D02*
X164995678Y-82953156D01*
X164995678Y-82953156D02*
X164900440Y-82953156D01*
X164900440Y-82953156D02*
X164852821Y-82976965D01*
X164852821Y-82976965D02*
X164829011Y-83024584D01*
X164829011Y-83024584D02*
X164829011Y-83072203D01*
X164829011Y-83072203D02*
X165067106Y-83119822D01*
X164543297Y-83286489D02*
X164590916Y-83262680D01*
X164590916Y-83262680D02*
X164614726Y-83238870D01*
X164614726Y-83238870D02*
X164638535Y-83191251D01*
X164638535Y-83191251D02*
X164638535Y-83048394D01*
X164638535Y-83048394D02*
X164614726Y-83000775D01*
X164614726Y-83000775D02*
X164590916Y-82976965D01*
X164590916Y-82976965D02*
X164543297Y-82953156D01*
X164543297Y-82953156D02*
X164471869Y-82953156D01*
X164471869Y-82953156D02*
X164424250Y-82976965D01*
X164424250Y-82976965D02*
X164400440Y-83000775D01*
X164400440Y-83000775D02*
X164376631Y-83048394D01*
X164376631Y-83048394D02*
X164376631Y-83191251D01*
X164376631Y-83191251D02*
X164400440Y-83238870D01*
X164400440Y-83238870D02*
X164424250Y-83262680D01*
X164424250Y-83262680D02*
X164471869Y-83286489D01*
X164471869Y-83286489D02*
X164543297Y-83286489D01*
X164162345Y-82953156D02*
X164162345Y-83286489D01*
X164162345Y-83000775D02*
X164138535Y-82976965D01*
X164138535Y-82976965D02*
X164090916Y-82953156D01*
X164090916Y-82953156D02*
X164019488Y-82953156D01*
X164019488Y-82953156D02*
X163971869Y-82976965D01*
X163971869Y-82976965D02*
X163948059Y-83024584D01*
X163948059Y-83024584D02*
X163948059Y-83286489D01*
X163495678Y-82953156D02*
X163495678Y-83357918D01*
X163495678Y-83357918D02*
X163519488Y-83405537D01*
X163519488Y-83405537D02*
X163543297Y-83429346D01*
X163543297Y-83429346D02*
X163590916Y-83453156D01*
X163590916Y-83453156D02*
X163662345Y-83453156D01*
X163662345Y-83453156D02*
X163709964Y-83429346D01*
X163495678Y-83262680D02*
X163543297Y-83286489D01*
X163543297Y-83286489D02*
X163638535Y-83286489D01*
X163638535Y-83286489D02*
X163686154Y-83262680D01*
X163686154Y-83262680D02*
X163709964Y-83238870D01*
X163709964Y-83238870D02*
X163733773Y-83191251D01*
X163733773Y-83191251D02*
X163733773Y-83048394D01*
X163733773Y-83048394D02*
X163709964Y-83000775D01*
X163709964Y-83000775D02*
X163686154Y-82976965D01*
X163686154Y-82976965D02*
X163638535Y-82953156D01*
X163638535Y-82953156D02*
X163543297Y-82953156D01*
X163543297Y-82953156D02*
X163495678Y-82976965D01*
X163305202Y-82953156D02*
X163186154Y-83286489D01*
X163067107Y-82953156D02*
X163186154Y-83286489D01*
X163186154Y-83286489D02*
X163233773Y-83405537D01*
X163233773Y-83405537D02*
X163257583Y-83429346D01*
X163257583Y-83429346D02*
X163305202Y-83453156D01*
X162686155Y-83262680D02*
X162733774Y-83286489D01*
X162733774Y-83286489D02*
X162829012Y-83286489D01*
X162829012Y-83286489D02*
X162876631Y-83262680D01*
X162876631Y-83262680D02*
X162900440Y-83215060D01*
X162900440Y-83215060D02*
X162900440Y-83024584D01*
X162900440Y-83024584D02*
X162876631Y-82976965D01*
X162876631Y-82976965D02*
X162829012Y-82953156D01*
X162829012Y-82953156D02*
X162733774Y-82953156D01*
X162733774Y-82953156D02*
X162686155Y-82976965D01*
X162686155Y-82976965D02*
X162662345Y-83024584D01*
X162662345Y-83024584D02*
X162662345Y-83072203D01*
X162662345Y-83072203D02*
X162900440Y-83119822D01*
X162376631Y-83286489D02*
X162424250Y-83262680D01*
X162424250Y-83262680D02*
X162448060Y-83238870D01*
X162448060Y-83238870D02*
X162471869Y-83191251D01*
X162471869Y-83191251D02*
X162471869Y-83048394D01*
X162471869Y-83048394D02*
X162448060Y-83000775D01*
X162448060Y-83000775D02*
X162424250Y-82976965D01*
X162424250Y-82976965D02*
X162376631Y-82953156D01*
X162376631Y-82953156D02*
X162305203Y-82953156D01*
X162305203Y-82953156D02*
X162257584Y-82976965D01*
X162257584Y-82976965D02*
X162233774Y-83000775D01*
X162233774Y-83000775D02*
X162209965Y-83048394D01*
X162209965Y-83048394D02*
X162209965Y-83191251D01*
X162209965Y-83191251D02*
X162233774Y-83238870D01*
X162233774Y-83238870D02*
X162257584Y-83262680D01*
X162257584Y-83262680D02*
X162305203Y-83286489D01*
X162305203Y-83286489D02*
X162376631Y-83286489D01*
X161995679Y-82953156D02*
X161995679Y-83286489D01*
X161995679Y-83000775D02*
X161971869Y-82976965D01*
X161971869Y-82976965D02*
X161924250Y-82953156D01*
X161924250Y-82953156D02*
X161852822Y-82953156D01*
X161852822Y-82953156D02*
X161805203Y-82976965D01*
X161805203Y-82976965D02*
X161781393Y-83024584D01*
X161781393Y-83024584D02*
X161781393Y-83286489D01*
X161543298Y-83238870D02*
X161519488Y-83262680D01*
X161519488Y-83262680D02*
X161543298Y-83286489D01*
X161543298Y-83286489D02*
X161567107Y-83262680D01*
X161567107Y-83262680D02*
X161543298Y-83238870D01*
X161543298Y-83238870D02*
X161543298Y-83286489D01*
X161543298Y-83096013D02*
X161567107Y-82810299D01*
X161567107Y-82810299D02*
X161543298Y-82786489D01*
X161543298Y-82786489D02*
X161519488Y-82810299D01*
X161519488Y-82810299D02*
X161543298Y-83096013D01*
X161543298Y-83096013D02*
X161543298Y-82786489D01*
X166948058Y-84091461D02*
X166948058Y-83758128D01*
X166948058Y-83805747D02*
X166924248Y-83781937D01*
X166924248Y-83781937D02*
X166876629Y-83758128D01*
X166876629Y-83758128D02*
X166805201Y-83758128D01*
X166805201Y-83758128D02*
X166757582Y-83781937D01*
X166757582Y-83781937D02*
X166733772Y-83829556D01*
X166733772Y-83829556D02*
X166733772Y-84091461D01*
X166733772Y-83829556D02*
X166709963Y-83781937D01*
X166709963Y-83781937D02*
X166662344Y-83758128D01*
X166662344Y-83758128D02*
X166590915Y-83758128D01*
X166590915Y-83758128D02*
X166543296Y-83781937D01*
X166543296Y-83781937D02*
X166519486Y-83829556D01*
X166519486Y-83829556D02*
X166519486Y-84091461D01*
X166209962Y-84091461D02*
X166257581Y-84067652D01*
X166257581Y-84067652D02*
X166281391Y-84043842D01*
X166281391Y-84043842D02*
X166305200Y-83996223D01*
X166305200Y-83996223D02*
X166305200Y-83853366D01*
X166305200Y-83853366D02*
X166281391Y-83805747D01*
X166281391Y-83805747D02*
X166257581Y-83781937D01*
X166257581Y-83781937D02*
X166209962Y-83758128D01*
X166209962Y-83758128D02*
X166138534Y-83758128D01*
X166138534Y-83758128D02*
X166090915Y-83781937D01*
X166090915Y-83781937D02*
X166067105Y-83805747D01*
X166067105Y-83805747D02*
X166043296Y-83853366D01*
X166043296Y-83853366D02*
X166043296Y-83996223D01*
X166043296Y-83996223D02*
X166067105Y-84043842D01*
X166067105Y-84043842D02*
X166090915Y-84067652D01*
X166090915Y-84067652D02*
X166138534Y-84091461D01*
X166138534Y-84091461D02*
X166209962Y-84091461D01*
X165829010Y-84091461D02*
X165829010Y-83758128D01*
X165829010Y-83805747D02*
X165805200Y-83781937D01*
X165805200Y-83781937D02*
X165757581Y-83758128D01*
X165757581Y-83758128D02*
X165686153Y-83758128D01*
X165686153Y-83758128D02*
X165638534Y-83781937D01*
X165638534Y-83781937D02*
X165614724Y-83829556D01*
X165614724Y-83829556D02*
X165614724Y-84091461D01*
X165614724Y-83829556D02*
X165590915Y-83781937D01*
X165590915Y-83781937D02*
X165543296Y-83758128D01*
X165543296Y-83758128D02*
X165471867Y-83758128D01*
X165471867Y-83758128D02*
X165424248Y-83781937D01*
X165424248Y-83781937D02*
X165400438Y-83829556D01*
X165400438Y-83829556D02*
X165400438Y-84091461D01*
X165090914Y-84091461D02*
X165138533Y-84067652D01*
X165138533Y-84067652D02*
X165162343Y-84043842D01*
X165162343Y-84043842D02*
X165186152Y-83996223D01*
X165186152Y-83996223D02*
X165186152Y-83853366D01*
X165186152Y-83853366D02*
X165162343Y-83805747D01*
X165162343Y-83805747D02*
X165138533Y-83781937D01*
X165138533Y-83781937D02*
X165090914Y-83758128D01*
X165090914Y-83758128D02*
X165019486Y-83758128D01*
X165019486Y-83758128D02*
X164971867Y-83781937D01*
X164971867Y-83781937D02*
X164948057Y-83805747D01*
X164948057Y-83805747D02*
X164924248Y-83853366D01*
X164924248Y-83853366D02*
X164924248Y-83996223D01*
X164924248Y-83996223D02*
X164948057Y-84043842D01*
X164948057Y-84043842D02*
X164971867Y-84067652D01*
X164971867Y-84067652D02*
X165019486Y-84091461D01*
X165019486Y-84091461D02*
X165090914Y-84091461D01*
X164709962Y-83900985D02*
X164329010Y-83900985D01*
X164090914Y-83758128D02*
X164090914Y-84186699D01*
X164090914Y-84186699D02*
X164114723Y-84234318D01*
X164114723Y-84234318D02*
X164162342Y-84258128D01*
X164162342Y-84258128D02*
X164186152Y-84258128D01*
X164090914Y-83591461D02*
X164114723Y-83615271D01*
X164114723Y-83615271D02*
X164090914Y-83639080D01*
X164090914Y-83639080D02*
X164067104Y-83615271D01*
X164067104Y-83615271D02*
X164090914Y-83591461D01*
X164090914Y-83591461D02*
X164090914Y-83639080D01*
X163852819Y-83758128D02*
X163852819Y-84186699D01*
X163852819Y-84186699D02*
X163876628Y-84234318D01*
X163876628Y-84234318D02*
X163924247Y-84258128D01*
X163924247Y-84258128D02*
X163948057Y-84258128D01*
X163852819Y-83591461D02*
X163876628Y-83615271D01*
X163876628Y-83615271D02*
X163852819Y-83639080D01*
X163852819Y-83639080D02*
X163829009Y-83615271D01*
X163829009Y-83615271D02*
X163852819Y-83591461D01*
X163852819Y-83591461D02*
X163852819Y-83639080D01*
X163400438Y-84091461D02*
X163400438Y-83829556D01*
X163400438Y-83829556D02*
X163424248Y-83781937D01*
X163424248Y-83781937D02*
X163471867Y-83758128D01*
X163471867Y-83758128D02*
X163567105Y-83758128D01*
X163567105Y-83758128D02*
X163614724Y-83781937D01*
X163400438Y-84067652D02*
X163448057Y-84091461D01*
X163448057Y-84091461D02*
X163567105Y-84091461D01*
X163567105Y-84091461D02*
X163614724Y-84067652D01*
X163614724Y-84067652D02*
X163638533Y-84020032D01*
X163638533Y-84020032D02*
X163638533Y-83972413D01*
X163638533Y-83972413D02*
X163614724Y-83924794D01*
X163614724Y-83924794D02*
X163567105Y-83900985D01*
X163567105Y-83900985D02*
X163448057Y-83900985D01*
X163448057Y-83900985D02*
X163400438Y-83877175D01*
X163162343Y-83758128D02*
X163162343Y-84091461D01*
X163162343Y-83805747D02*
X163138533Y-83781937D01*
X163138533Y-83781937D02*
X163090914Y-83758128D01*
X163090914Y-83758128D02*
X163019486Y-83758128D01*
X163019486Y-83758128D02*
X162971867Y-83781937D01*
X162971867Y-83781937D02*
X162948057Y-83829556D01*
X162948057Y-83829556D02*
X162948057Y-84091461D01*
X162495676Y-83758128D02*
X162495676Y-84162890D01*
X162495676Y-84162890D02*
X162519486Y-84210509D01*
X162519486Y-84210509D02*
X162543295Y-84234318D01*
X162543295Y-84234318D02*
X162590914Y-84258128D01*
X162590914Y-84258128D02*
X162662343Y-84258128D01*
X162662343Y-84258128D02*
X162709962Y-84234318D01*
X162495676Y-84067652D02*
X162543295Y-84091461D01*
X162543295Y-84091461D02*
X162638533Y-84091461D01*
X162638533Y-84091461D02*
X162686152Y-84067652D01*
X162686152Y-84067652D02*
X162709962Y-84043842D01*
X162709962Y-84043842D02*
X162733771Y-83996223D01*
X162733771Y-83996223D02*
X162733771Y-83853366D01*
X162733771Y-83853366D02*
X162709962Y-83805747D01*
X162709962Y-83805747D02*
X162686152Y-83781937D01*
X162686152Y-83781937D02*
X162638533Y-83758128D01*
X162638533Y-83758128D02*
X162543295Y-83758128D01*
X162543295Y-83758128D02*
X162495676Y-83781937D01*
X162257581Y-84043842D02*
X162233771Y-84067652D01*
X162233771Y-84067652D02*
X162257581Y-84091461D01*
X162257581Y-84091461D02*
X162281390Y-84067652D01*
X162281390Y-84067652D02*
X162257581Y-84043842D01*
X162257581Y-84043842D02*
X162257581Y-84091461D01*
X162257581Y-83900985D02*
X162281390Y-83615271D01*
X162281390Y-83615271D02*
X162257581Y-83591461D01*
X162257581Y-83591461D02*
X162233771Y-83615271D01*
X162233771Y-83615271D02*
X162257581Y-83900985D01*
X162257581Y-83900985D02*
X162257581Y-83591461D01*
X166971867Y-84872624D02*
X166924248Y-84896433D01*
X166924248Y-84896433D02*
X166829010Y-84896433D01*
X166829010Y-84896433D02*
X166781391Y-84872624D01*
X166781391Y-84872624D02*
X166757582Y-84825004D01*
X166757582Y-84825004D02*
X166757582Y-84801195D01*
X166757582Y-84801195D02*
X166781391Y-84753576D01*
X166781391Y-84753576D02*
X166829010Y-84729766D01*
X166829010Y-84729766D02*
X166900439Y-84729766D01*
X166900439Y-84729766D02*
X166948058Y-84705957D01*
X166948058Y-84705957D02*
X166971867Y-84658338D01*
X166971867Y-84658338D02*
X166971867Y-84634528D01*
X166971867Y-84634528D02*
X166948058Y-84586909D01*
X166948058Y-84586909D02*
X166900439Y-84563100D01*
X166900439Y-84563100D02*
X166829010Y-84563100D01*
X166829010Y-84563100D02*
X166781391Y-84586909D01*
X166329010Y-84896433D02*
X166329010Y-84634528D01*
X166329010Y-84634528D02*
X166352820Y-84586909D01*
X166352820Y-84586909D02*
X166400439Y-84563100D01*
X166400439Y-84563100D02*
X166495677Y-84563100D01*
X166495677Y-84563100D02*
X166543296Y-84586909D01*
X166329010Y-84872624D02*
X166376629Y-84896433D01*
X166376629Y-84896433D02*
X166495677Y-84896433D01*
X166495677Y-84896433D02*
X166543296Y-84872624D01*
X166543296Y-84872624D02*
X166567105Y-84825004D01*
X166567105Y-84825004D02*
X166567105Y-84777385D01*
X166567105Y-84777385D02*
X166543296Y-84729766D01*
X166543296Y-84729766D02*
X166495677Y-84705957D01*
X166495677Y-84705957D02*
X166376629Y-84705957D01*
X166376629Y-84705957D02*
X166329010Y-84682147D01*
X166090915Y-84563100D02*
X166090915Y-84896433D01*
X166090915Y-84610719D02*
X166067105Y-84586909D01*
X166067105Y-84586909D02*
X166019486Y-84563100D01*
X166019486Y-84563100D02*
X165948058Y-84563100D01*
X165948058Y-84563100D02*
X165900439Y-84586909D01*
X165900439Y-84586909D02*
X165876629Y-84634528D01*
X165876629Y-84634528D02*
X165876629Y-84896433D01*
X165424248Y-84896433D02*
X165424248Y-84634528D01*
X165424248Y-84634528D02*
X165448058Y-84586909D01*
X165448058Y-84586909D02*
X165495677Y-84563100D01*
X165495677Y-84563100D02*
X165590915Y-84563100D01*
X165590915Y-84563100D02*
X165638534Y-84586909D01*
X165424248Y-84872624D02*
X165471867Y-84896433D01*
X165471867Y-84896433D02*
X165590915Y-84896433D01*
X165590915Y-84896433D02*
X165638534Y-84872624D01*
X165638534Y-84872624D02*
X165662343Y-84825004D01*
X165662343Y-84825004D02*
X165662343Y-84777385D01*
X165662343Y-84777385D02*
X165638534Y-84729766D01*
X165638534Y-84729766D02*
X165590915Y-84705957D01*
X165590915Y-84705957D02*
X165471867Y-84705957D01*
X165471867Y-84705957D02*
X165424248Y-84682147D01*
X165186153Y-84705957D02*
X164805201Y-84705957D01*
X164567105Y-84563100D02*
X164567105Y-84991671D01*
X164567105Y-84991671D02*
X164590914Y-85039290D01*
X164590914Y-85039290D02*
X164638533Y-85063100D01*
X164638533Y-85063100D02*
X164662343Y-85063100D01*
X164567105Y-84396433D02*
X164590914Y-84420243D01*
X164590914Y-84420243D02*
X164567105Y-84444052D01*
X164567105Y-84444052D02*
X164543295Y-84420243D01*
X164543295Y-84420243D02*
X164567105Y-84396433D01*
X164567105Y-84396433D02*
X164567105Y-84444052D01*
X164329010Y-84563100D02*
X164329010Y-84991671D01*
X164329010Y-84991671D02*
X164352819Y-85039290D01*
X164352819Y-85039290D02*
X164400438Y-85063100D01*
X164400438Y-85063100D02*
X164424248Y-85063100D01*
X164329010Y-84396433D02*
X164352819Y-84420243D01*
X164352819Y-84420243D02*
X164329010Y-84444052D01*
X164329010Y-84444052D02*
X164305200Y-84420243D01*
X164305200Y-84420243D02*
X164329010Y-84396433D01*
X164329010Y-84396433D02*
X164329010Y-84444052D01*
X163876629Y-84896433D02*
X163876629Y-84634528D01*
X163876629Y-84634528D02*
X163900439Y-84586909D01*
X163900439Y-84586909D02*
X163948058Y-84563100D01*
X163948058Y-84563100D02*
X164043296Y-84563100D01*
X164043296Y-84563100D02*
X164090915Y-84586909D01*
X163876629Y-84872624D02*
X163924248Y-84896433D01*
X163924248Y-84896433D02*
X164043296Y-84896433D01*
X164043296Y-84896433D02*
X164090915Y-84872624D01*
X164090915Y-84872624D02*
X164114724Y-84825004D01*
X164114724Y-84825004D02*
X164114724Y-84777385D01*
X164114724Y-84777385D02*
X164090915Y-84729766D01*
X164090915Y-84729766D02*
X164043296Y-84705957D01*
X164043296Y-84705957D02*
X163924248Y-84705957D01*
X163924248Y-84705957D02*
X163876629Y-84682147D01*
X163638534Y-84563100D02*
X163638534Y-84896433D01*
X163638534Y-84610719D02*
X163614724Y-84586909D01*
X163614724Y-84586909D02*
X163567105Y-84563100D01*
X163567105Y-84563100D02*
X163495677Y-84563100D01*
X163495677Y-84563100D02*
X163448058Y-84586909D01*
X163448058Y-84586909D02*
X163424248Y-84634528D01*
X163424248Y-84634528D02*
X163424248Y-84896433D01*
X162971867Y-84563100D02*
X162971867Y-84967862D01*
X162971867Y-84967862D02*
X162995677Y-85015481D01*
X162995677Y-85015481D02*
X163019486Y-85039290D01*
X163019486Y-85039290D02*
X163067105Y-85063100D01*
X163067105Y-85063100D02*
X163138534Y-85063100D01*
X163138534Y-85063100D02*
X163186153Y-85039290D01*
X162971867Y-84872624D02*
X163019486Y-84896433D01*
X163019486Y-84896433D02*
X163114724Y-84896433D01*
X163114724Y-84896433D02*
X163162343Y-84872624D01*
X163162343Y-84872624D02*
X163186153Y-84848814D01*
X163186153Y-84848814D02*
X163209962Y-84801195D01*
X163209962Y-84801195D02*
X163209962Y-84658338D01*
X163209962Y-84658338D02*
X163186153Y-84610719D01*
X163186153Y-84610719D02*
X163162343Y-84586909D01*
X163162343Y-84586909D02*
X163114724Y-84563100D01*
X163114724Y-84563100D02*
X163019486Y-84563100D01*
X163019486Y-84563100D02*
X162971867Y-84586909D01*
X162733772Y-84848814D02*
X162709962Y-84872624D01*
X162709962Y-84872624D02*
X162733772Y-84896433D01*
X162733772Y-84896433D02*
X162757581Y-84872624D01*
X162757581Y-84872624D02*
X162733772Y-84848814D01*
X162733772Y-84848814D02*
X162733772Y-84896433D01*
X162733772Y-84705957D02*
X162757581Y-84420243D01*
X162757581Y-84420243D02*
X162733772Y-84396433D01*
X162733772Y-84396433D02*
X162709962Y-84420243D01*
X162709962Y-84420243D02*
X162733772Y-84705957D01*
X162733772Y-84705957D02*
X162733772Y-84396433D01*
X166948058Y-85368072D02*
X166948058Y-85868072D01*
X166948058Y-85391881D02*
X166900439Y-85368072D01*
X166900439Y-85368072D02*
X166805201Y-85368072D01*
X166805201Y-85368072D02*
X166757582Y-85391881D01*
X166757582Y-85391881D02*
X166733772Y-85415691D01*
X166733772Y-85415691D02*
X166709963Y-85463310D01*
X166709963Y-85463310D02*
X166709963Y-85606167D01*
X166709963Y-85606167D02*
X166733772Y-85653786D01*
X166733772Y-85653786D02*
X166757582Y-85677596D01*
X166757582Y-85677596D02*
X166805201Y-85701405D01*
X166805201Y-85701405D02*
X166900439Y-85701405D01*
X166900439Y-85701405D02*
X166948058Y-85677596D01*
X166281391Y-85701405D02*
X166281391Y-85439500D01*
X166281391Y-85439500D02*
X166305201Y-85391881D01*
X166305201Y-85391881D02*
X166352820Y-85368072D01*
X166352820Y-85368072D02*
X166448058Y-85368072D01*
X166448058Y-85368072D02*
X166495677Y-85391881D01*
X166281391Y-85677596D02*
X166329010Y-85701405D01*
X166329010Y-85701405D02*
X166448058Y-85701405D01*
X166448058Y-85701405D02*
X166495677Y-85677596D01*
X166495677Y-85677596D02*
X166519486Y-85629976D01*
X166519486Y-85629976D02*
X166519486Y-85582357D01*
X166519486Y-85582357D02*
X166495677Y-85534738D01*
X166495677Y-85534738D02*
X166448058Y-85510929D01*
X166448058Y-85510929D02*
X166329010Y-85510929D01*
X166329010Y-85510929D02*
X166281391Y-85487119D01*
X166043296Y-85701405D02*
X166043296Y-85368072D01*
X166043296Y-85463310D02*
X166019486Y-85415691D01*
X166019486Y-85415691D02*
X165995677Y-85391881D01*
X165995677Y-85391881D02*
X165948058Y-85368072D01*
X165948058Y-85368072D02*
X165900439Y-85368072D01*
X165733772Y-85701405D02*
X165733772Y-85201405D01*
X165686153Y-85510929D02*
X165543296Y-85701405D01*
X165543296Y-85368072D02*
X165733772Y-85558548D01*
X164948058Y-85368072D02*
X164948058Y-85796643D01*
X164948058Y-85796643D02*
X164971867Y-85844262D01*
X164971867Y-85844262D02*
X165019486Y-85868072D01*
X165019486Y-85868072D02*
X165043296Y-85868072D01*
X164948058Y-85201405D02*
X164971867Y-85225215D01*
X164971867Y-85225215D02*
X164948058Y-85249024D01*
X164948058Y-85249024D02*
X164924248Y-85225215D01*
X164924248Y-85225215D02*
X164948058Y-85201405D01*
X164948058Y-85201405D02*
X164948058Y-85249024D01*
X164709963Y-85701405D02*
X164709963Y-85368072D01*
X164709963Y-85201405D02*
X164733772Y-85225215D01*
X164733772Y-85225215D02*
X164709963Y-85249024D01*
X164709963Y-85249024D02*
X164686153Y-85225215D01*
X164686153Y-85225215D02*
X164709963Y-85201405D01*
X164709963Y-85201405D02*
X164709963Y-85249024D01*
X164471868Y-85701405D02*
X164471868Y-85201405D01*
X164257582Y-85701405D02*
X164257582Y-85439500D01*
X164257582Y-85439500D02*
X164281392Y-85391881D01*
X164281392Y-85391881D02*
X164329011Y-85368072D01*
X164329011Y-85368072D02*
X164400439Y-85368072D01*
X164400439Y-85368072D02*
X164448058Y-85391881D01*
X164448058Y-85391881D02*
X164471868Y-85415691D01*
X164067106Y-85368072D02*
X163948058Y-85701405D01*
X163829011Y-85368072D02*
X163948058Y-85701405D01*
X163948058Y-85701405D02*
X163995677Y-85820453D01*
X163995677Y-85820453D02*
X164019487Y-85844262D01*
X164019487Y-85844262D02*
X164067106Y-85868072D01*
X163567106Y-85701405D02*
X163614725Y-85677596D01*
X163614725Y-85677596D02*
X163638535Y-85653786D01*
X163638535Y-85653786D02*
X163662344Y-85606167D01*
X163662344Y-85606167D02*
X163662344Y-85463310D01*
X163662344Y-85463310D02*
X163638535Y-85415691D01*
X163638535Y-85415691D02*
X163614725Y-85391881D01*
X163614725Y-85391881D02*
X163567106Y-85368072D01*
X163567106Y-85368072D02*
X163495678Y-85368072D01*
X163495678Y-85368072D02*
X163448059Y-85391881D01*
X163448059Y-85391881D02*
X163424249Y-85415691D01*
X163424249Y-85415691D02*
X163400440Y-85463310D01*
X163400440Y-85463310D02*
X163400440Y-85606167D01*
X163400440Y-85606167D02*
X163424249Y-85653786D01*
X163424249Y-85653786D02*
X163448059Y-85677596D01*
X163448059Y-85677596D02*
X163495678Y-85701405D01*
X163495678Y-85701405D02*
X163567106Y-85701405D01*
X163186154Y-85653786D02*
X163162344Y-85677596D01*
X163162344Y-85677596D02*
X163186154Y-85701405D01*
X163186154Y-85701405D02*
X163209963Y-85677596D01*
X163209963Y-85677596D02*
X163186154Y-85653786D01*
X163186154Y-85653786D02*
X163186154Y-85701405D01*
X163186154Y-85510929D02*
X163209963Y-85225215D01*
X163209963Y-85225215D02*
X163186154Y-85201405D01*
X163186154Y-85201405D02*
X163162344Y-85225215D01*
X163162344Y-85225215D02*
X163186154Y-85510929D01*
X163186154Y-85510929D02*
X163186154Y-85201405D01*
X166948058Y-86506377D02*
X166948058Y-86173044D01*
X166948058Y-86220663D02*
X166924248Y-86196853D01*
X166924248Y-86196853D02*
X166876629Y-86173044D01*
X166876629Y-86173044D02*
X166805201Y-86173044D01*
X166805201Y-86173044D02*
X166757582Y-86196853D01*
X166757582Y-86196853D02*
X166733772Y-86244472D01*
X166733772Y-86244472D02*
X166733772Y-86506377D01*
X166733772Y-86244472D02*
X166709963Y-86196853D01*
X166709963Y-86196853D02*
X166662344Y-86173044D01*
X166662344Y-86173044D02*
X166590915Y-86173044D01*
X166590915Y-86173044D02*
X166543296Y-86196853D01*
X166543296Y-86196853D02*
X166519486Y-86244472D01*
X166519486Y-86244472D02*
X166519486Y-86506377D01*
X166281391Y-86506377D02*
X166281391Y-86173044D01*
X166281391Y-86006377D02*
X166305200Y-86030187D01*
X166305200Y-86030187D02*
X166281391Y-86053996D01*
X166281391Y-86053996D02*
X166257581Y-86030187D01*
X166257581Y-86030187D02*
X166281391Y-86006377D01*
X166281391Y-86006377D02*
X166281391Y-86053996D01*
X166043296Y-86173044D02*
X166043296Y-86506377D01*
X166043296Y-86220663D02*
X166019486Y-86196853D01*
X166019486Y-86196853D02*
X165971867Y-86173044D01*
X165971867Y-86173044D02*
X165900439Y-86173044D01*
X165900439Y-86173044D02*
X165852820Y-86196853D01*
X165852820Y-86196853D02*
X165829010Y-86244472D01*
X165829010Y-86244472D02*
X165829010Y-86506377D01*
X165376629Y-86506377D02*
X165376629Y-86244472D01*
X165376629Y-86244472D02*
X165400439Y-86196853D01*
X165400439Y-86196853D02*
X165448058Y-86173044D01*
X165448058Y-86173044D02*
X165543296Y-86173044D01*
X165543296Y-86173044D02*
X165590915Y-86196853D01*
X165376629Y-86482568D02*
X165424248Y-86506377D01*
X165424248Y-86506377D02*
X165543296Y-86506377D01*
X165543296Y-86506377D02*
X165590915Y-86482568D01*
X165590915Y-86482568D02*
X165614724Y-86434948D01*
X165614724Y-86434948D02*
X165614724Y-86387329D01*
X165614724Y-86387329D02*
X165590915Y-86339710D01*
X165590915Y-86339710D02*
X165543296Y-86315901D01*
X165543296Y-86315901D02*
X165424248Y-86315901D01*
X165424248Y-86315901D02*
X165376629Y-86292091D01*
X165138534Y-86315901D02*
X164757582Y-86315901D01*
X164519486Y-86173044D02*
X164519486Y-86601615D01*
X164519486Y-86601615D02*
X164543295Y-86649234D01*
X164543295Y-86649234D02*
X164590914Y-86673044D01*
X164590914Y-86673044D02*
X164614724Y-86673044D01*
X164519486Y-86006377D02*
X164543295Y-86030187D01*
X164543295Y-86030187D02*
X164519486Y-86053996D01*
X164519486Y-86053996D02*
X164495676Y-86030187D01*
X164495676Y-86030187D02*
X164519486Y-86006377D01*
X164519486Y-86006377D02*
X164519486Y-86053996D01*
X164281391Y-86173044D02*
X164281391Y-86601615D01*
X164281391Y-86601615D02*
X164305200Y-86649234D01*
X164305200Y-86649234D02*
X164352819Y-86673044D01*
X164352819Y-86673044D02*
X164376629Y-86673044D01*
X164281391Y-86006377D02*
X164305200Y-86030187D01*
X164305200Y-86030187D02*
X164281391Y-86053996D01*
X164281391Y-86053996D02*
X164257581Y-86030187D01*
X164257581Y-86030187D02*
X164281391Y-86006377D01*
X164281391Y-86006377D02*
X164281391Y-86053996D01*
X163829010Y-86506377D02*
X163829010Y-86244472D01*
X163829010Y-86244472D02*
X163852820Y-86196853D01*
X163852820Y-86196853D02*
X163900439Y-86173044D01*
X163900439Y-86173044D02*
X163995677Y-86173044D01*
X163995677Y-86173044D02*
X164043296Y-86196853D01*
X163829010Y-86482568D02*
X163876629Y-86506377D01*
X163876629Y-86506377D02*
X163995677Y-86506377D01*
X163995677Y-86506377D02*
X164043296Y-86482568D01*
X164043296Y-86482568D02*
X164067105Y-86434948D01*
X164067105Y-86434948D02*
X164067105Y-86387329D01*
X164067105Y-86387329D02*
X164043296Y-86339710D01*
X164043296Y-86339710D02*
X163995677Y-86315901D01*
X163995677Y-86315901D02*
X163876629Y-86315901D01*
X163876629Y-86315901D02*
X163829010Y-86292091D01*
X163590915Y-86173044D02*
X163590915Y-86506377D01*
X163590915Y-86220663D02*
X163567105Y-86196853D01*
X163567105Y-86196853D02*
X163519486Y-86173044D01*
X163519486Y-86173044D02*
X163448058Y-86173044D01*
X163448058Y-86173044D02*
X163400439Y-86196853D01*
X163400439Y-86196853D02*
X163376629Y-86244472D01*
X163376629Y-86244472D02*
X163376629Y-86506377D01*
X162924248Y-86173044D02*
X162924248Y-86577806D01*
X162924248Y-86577806D02*
X162948058Y-86625425D01*
X162948058Y-86625425D02*
X162971867Y-86649234D01*
X162971867Y-86649234D02*
X163019486Y-86673044D01*
X163019486Y-86673044D02*
X163090915Y-86673044D01*
X163090915Y-86673044D02*
X163138534Y-86649234D01*
X162924248Y-86482568D02*
X162971867Y-86506377D01*
X162971867Y-86506377D02*
X163067105Y-86506377D01*
X163067105Y-86506377D02*
X163114724Y-86482568D01*
X163114724Y-86482568D02*
X163138534Y-86458758D01*
X163138534Y-86458758D02*
X163162343Y-86411139D01*
X163162343Y-86411139D02*
X163162343Y-86268282D01*
X163162343Y-86268282D02*
X163138534Y-86220663D01*
X163138534Y-86220663D02*
X163114724Y-86196853D01*
X163114724Y-86196853D02*
X163067105Y-86173044D01*
X163067105Y-86173044D02*
X162971867Y-86173044D01*
X162971867Y-86173044D02*
X162924248Y-86196853D01*
X162686153Y-86458758D02*
X162662343Y-86482568D01*
X162662343Y-86482568D02*
X162686153Y-86506377D01*
X162686153Y-86506377D02*
X162709962Y-86482568D01*
X162709962Y-86482568D02*
X162686153Y-86458758D01*
X162686153Y-86458758D02*
X162686153Y-86506377D01*
X162686153Y-86315901D02*
X162709962Y-86030187D01*
X162709962Y-86030187D02*
X162686153Y-86006377D01*
X162686153Y-86006377D02*
X162662343Y-86030187D01*
X162662343Y-86030187D02*
X162686153Y-86315901D01*
X162686153Y-86315901D02*
X162686153Y-86006377D01*
X166948058Y-87311349D02*
X166948058Y-86811349D01*
X166900439Y-87120873D02*
X166757582Y-87311349D01*
X166757582Y-86978016D02*
X166948058Y-87168492D01*
X166543296Y-87311349D02*
X166543296Y-86978016D01*
X166543296Y-86811349D02*
X166567105Y-86835159D01*
X166567105Y-86835159D02*
X166543296Y-86858968D01*
X166543296Y-86858968D02*
X166519486Y-86835159D01*
X166519486Y-86835159D02*
X166543296Y-86811349D01*
X166543296Y-86811349D02*
X166543296Y-86858968D01*
X166305201Y-87311349D02*
X166305201Y-86978016D01*
X166305201Y-87025635D02*
X166281391Y-87001825D01*
X166281391Y-87001825D02*
X166233772Y-86978016D01*
X166233772Y-86978016D02*
X166162344Y-86978016D01*
X166162344Y-86978016D02*
X166114725Y-87001825D01*
X166114725Y-87001825D02*
X166090915Y-87049444D01*
X166090915Y-87049444D02*
X166090915Y-87311349D01*
X166090915Y-87049444D02*
X166067106Y-87001825D01*
X166067106Y-87001825D02*
X166019487Y-86978016D01*
X166019487Y-86978016D02*
X165948058Y-86978016D01*
X165948058Y-86978016D02*
X165900439Y-87001825D01*
X165900439Y-87001825D02*
X165876629Y-87049444D01*
X165876629Y-87049444D02*
X165876629Y-87311349D01*
X165043296Y-87311349D02*
X165043296Y-86811349D01*
X165043296Y-87287540D02*
X165090915Y-87311349D01*
X165090915Y-87311349D02*
X165186153Y-87311349D01*
X165186153Y-87311349D02*
X165233772Y-87287540D01*
X165233772Y-87287540D02*
X165257582Y-87263730D01*
X165257582Y-87263730D02*
X165281391Y-87216111D01*
X165281391Y-87216111D02*
X165281391Y-87073254D01*
X165281391Y-87073254D02*
X165257582Y-87025635D01*
X165257582Y-87025635D02*
X165233772Y-87001825D01*
X165233772Y-87001825D02*
X165186153Y-86978016D01*
X165186153Y-86978016D02*
X165090915Y-86978016D01*
X165090915Y-86978016D02*
X165043296Y-87001825D01*
X164590915Y-87311349D02*
X164590915Y-87049444D01*
X164590915Y-87049444D02*
X164614725Y-87001825D01*
X164614725Y-87001825D02*
X164662344Y-86978016D01*
X164662344Y-86978016D02*
X164757582Y-86978016D01*
X164757582Y-86978016D02*
X164805201Y-87001825D01*
X164590915Y-87287540D02*
X164638534Y-87311349D01*
X164638534Y-87311349D02*
X164757582Y-87311349D01*
X164757582Y-87311349D02*
X164805201Y-87287540D01*
X164805201Y-87287540D02*
X164829010Y-87239920D01*
X164829010Y-87239920D02*
X164829010Y-87192301D01*
X164829010Y-87192301D02*
X164805201Y-87144682D01*
X164805201Y-87144682D02*
X164757582Y-87120873D01*
X164757582Y-87120873D02*
X164638534Y-87120873D01*
X164638534Y-87120873D02*
X164590915Y-87097063D01*
X164352820Y-87311349D02*
X164352820Y-86811349D01*
X164138534Y-87311349D02*
X164138534Y-87049444D01*
X164138534Y-87049444D02*
X164162344Y-87001825D01*
X164162344Y-87001825D02*
X164209963Y-86978016D01*
X164209963Y-86978016D02*
X164281391Y-86978016D01*
X164281391Y-86978016D02*
X164329010Y-87001825D01*
X164329010Y-87001825D02*
X164352820Y-87025635D01*
X163948058Y-86978016D02*
X163829010Y-87311349D01*
X163709963Y-86978016D02*
X163829010Y-87311349D01*
X163829010Y-87311349D02*
X163876629Y-87430397D01*
X163876629Y-87430397D02*
X163900439Y-87454206D01*
X163900439Y-87454206D02*
X163948058Y-87478016D01*
X163305201Y-86978016D02*
X163305201Y-87311349D01*
X163519487Y-86978016D02*
X163519487Y-87239920D01*
X163519487Y-87239920D02*
X163495677Y-87287540D01*
X163495677Y-87287540D02*
X163448058Y-87311349D01*
X163448058Y-87311349D02*
X163376630Y-87311349D01*
X163376630Y-87311349D02*
X163329011Y-87287540D01*
X163329011Y-87287540D02*
X163305201Y-87263730D01*
X163067106Y-86978016D02*
X163067106Y-87311349D01*
X163067106Y-87025635D02*
X163043296Y-87001825D01*
X163043296Y-87001825D02*
X162995677Y-86978016D01*
X162995677Y-86978016D02*
X162924249Y-86978016D01*
X162924249Y-86978016D02*
X162876630Y-87001825D01*
X162876630Y-87001825D02*
X162852820Y-87049444D01*
X162852820Y-87049444D02*
X162852820Y-87311349D01*
X162614725Y-87263730D02*
X162590915Y-87287540D01*
X162590915Y-87287540D02*
X162614725Y-87311349D01*
X162614725Y-87311349D02*
X162638534Y-87287540D01*
X162638534Y-87287540D02*
X162614725Y-87263730D01*
X162614725Y-87263730D02*
X162614725Y-87311349D01*
X162614725Y-87120873D02*
X162638534Y-86835159D01*
X162638534Y-86835159D02*
X162614725Y-86811349D01*
X162614725Y-86811349D02*
X162590915Y-86835159D01*
X162590915Y-86835159D02*
X162614725Y-87120873D01*
X162614725Y-87120873D02*
X162614725Y-86811349D01*
X166971867Y-88092512D02*
X166924248Y-88116321D01*
X166924248Y-88116321D02*
X166829010Y-88116321D01*
X166829010Y-88116321D02*
X166781391Y-88092512D01*
X166781391Y-88092512D02*
X166757582Y-88044892D01*
X166757582Y-88044892D02*
X166757582Y-88021083D01*
X166757582Y-88021083D02*
X166781391Y-87973464D01*
X166781391Y-87973464D02*
X166829010Y-87949654D01*
X166829010Y-87949654D02*
X166900439Y-87949654D01*
X166900439Y-87949654D02*
X166948058Y-87925845D01*
X166948058Y-87925845D02*
X166971867Y-87878226D01*
X166971867Y-87878226D02*
X166971867Y-87854416D01*
X166971867Y-87854416D02*
X166948058Y-87806797D01*
X166948058Y-87806797D02*
X166900439Y-87782988D01*
X166900439Y-87782988D02*
X166829010Y-87782988D01*
X166829010Y-87782988D02*
X166781391Y-87806797D01*
X166471867Y-88116321D02*
X166519486Y-88092512D01*
X166519486Y-88092512D02*
X166543296Y-88068702D01*
X166543296Y-88068702D02*
X166567105Y-88021083D01*
X166567105Y-88021083D02*
X166567105Y-87878226D01*
X166567105Y-87878226D02*
X166543296Y-87830607D01*
X166543296Y-87830607D02*
X166519486Y-87806797D01*
X166519486Y-87806797D02*
X166471867Y-87782988D01*
X166471867Y-87782988D02*
X166400439Y-87782988D01*
X166400439Y-87782988D02*
X166352820Y-87806797D01*
X166352820Y-87806797D02*
X166329010Y-87830607D01*
X166329010Y-87830607D02*
X166305201Y-87878226D01*
X166305201Y-87878226D02*
X166305201Y-88021083D01*
X166305201Y-88021083D02*
X166329010Y-88068702D01*
X166329010Y-88068702D02*
X166352820Y-88092512D01*
X166352820Y-88092512D02*
X166400439Y-88116321D01*
X166400439Y-88116321D02*
X166471867Y-88116321D01*
X166090915Y-87782988D02*
X166090915Y-88116321D01*
X166090915Y-87830607D02*
X166067105Y-87806797D01*
X166067105Y-87806797D02*
X166019486Y-87782988D01*
X166019486Y-87782988D02*
X165948058Y-87782988D01*
X165948058Y-87782988D02*
X165900439Y-87806797D01*
X165900439Y-87806797D02*
X165876629Y-87854416D01*
X165876629Y-87854416D02*
X165876629Y-88116321D01*
X165043296Y-88092512D02*
X165090915Y-88116321D01*
X165090915Y-88116321D02*
X165186153Y-88116321D01*
X165186153Y-88116321D02*
X165233772Y-88092512D01*
X165233772Y-88092512D02*
X165257582Y-88068702D01*
X165257582Y-88068702D02*
X165281391Y-88021083D01*
X165281391Y-88021083D02*
X165281391Y-87878226D01*
X165281391Y-87878226D02*
X165257582Y-87830607D01*
X165257582Y-87830607D02*
X165233772Y-87806797D01*
X165233772Y-87806797D02*
X165186153Y-87782988D01*
X165186153Y-87782988D02*
X165090915Y-87782988D01*
X165090915Y-87782988D02*
X165043296Y-87806797D01*
X164829011Y-88116321D02*
X164829011Y-87616321D01*
X164614725Y-88116321D02*
X164614725Y-87854416D01*
X164614725Y-87854416D02*
X164638535Y-87806797D01*
X164638535Y-87806797D02*
X164686154Y-87782988D01*
X164686154Y-87782988D02*
X164757582Y-87782988D01*
X164757582Y-87782988D02*
X164805201Y-87806797D01*
X164805201Y-87806797D02*
X164829011Y-87830607D01*
X164162344Y-88116321D02*
X164162344Y-87854416D01*
X164162344Y-87854416D02*
X164186154Y-87806797D01*
X164186154Y-87806797D02*
X164233773Y-87782988D01*
X164233773Y-87782988D02*
X164329011Y-87782988D01*
X164329011Y-87782988D02*
X164376630Y-87806797D01*
X164162344Y-88092512D02*
X164209963Y-88116321D01*
X164209963Y-88116321D02*
X164329011Y-88116321D01*
X164329011Y-88116321D02*
X164376630Y-88092512D01*
X164376630Y-88092512D02*
X164400439Y-88044892D01*
X164400439Y-88044892D02*
X164400439Y-87997273D01*
X164400439Y-87997273D02*
X164376630Y-87949654D01*
X164376630Y-87949654D02*
X164329011Y-87925845D01*
X164329011Y-87925845D02*
X164209963Y-87925845D01*
X164209963Y-87925845D02*
X164162344Y-87902035D01*
X163733773Y-88092512D02*
X163781392Y-88116321D01*
X163781392Y-88116321D02*
X163876630Y-88116321D01*
X163876630Y-88116321D02*
X163924249Y-88092512D01*
X163924249Y-88092512D02*
X163948058Y-88044892D01*
X163948058Y-88044892D02*
X163948058Y-87854416D01*
X163948058Y-87854416D02*
X163924249Y-87806797D01*
X163924249Y-87806797D02*
X163876630Y-87782988D01*
X163876630Y-87782988D02*
X163781392Y-87782988D01*
X163781392Y-87782988D02*
X163733773Y-87806797D01*
X163733773Y-87806797D02*
X163709963Y-87854416D01*
X163709963Y-87854416D02*
X163709963Y-87902035D01*
X163709963Y-87902035D02*
X163948058Y-87949654D01*
X163543297Y-87782988D02*
X163424249Y-88116321D01*
X163305202Y-87782988D02*
X163424249Y-88116321D01*
X163424249Y-88116321D02*
X163471868Y-88235369D01*
X163471868Y-88235369D02*
X163495678Y-88259178D01*
X163495678Y-88259178D02*
X163543297Y-88282988D01*
X163043297Y-88116321D02*
X163090916Y-88092512D01*
X163090916Y-88092512D02*
X163114726Y-88068702D01*
X163114726Y-88068702D02*
X163138535Y-88021083D01*
X163138535Y-88021083D02*
X163138535Y-87878226D01*
X163138535Y-87878226D02*
X163114726Y-87830607D01*
X163114726Y-87830607D02*
X163090916Y-87806797D01*
X163090916Y-87806797D02*
X163043297Y-87782988D01*
X163043297Y-87782988D02*
X162971869Y-87782988D01*
X162971869Y-87782988D02*
X162924250Y-87806797D01*
X162924250Y-87806797D02*
X162900440Y-87830607D01*
X162900440Y-87830607D02*
X162876631Y-87878226D01*
X162876631Y-87878226D02*
X162876631Y-88021083D01*
X162876631Y-88021083D02*
X162900440Y-88068702D01*
X162900440Y-88068702D02*
X162924250Y-88092512D01*
X162924250Y-88092512D02*
X162971869Y-88116321D01*
X162971869Y-88116321D02*
X163043297Y-88116321D01*
X162448059Y-87782988D02*
X162448059Y-88116321D01*
X162662345Y-87782988D02*
X162662345Y-88044892D01*
X162662345Y-88044892D02*
X162638535Y-88092512D01*
X162638535Y-88092512D02*
X162590916Y-88116321D01*
X162590916Y-88116321D02*
X162519488Y-88116321D01*
X162519488Y-88116321D02*
X162471869Y-88092512D01*
X162471869Y-88092512D02*
X162448059Y-88068702D01*
X162209964Y-87782988D02*
X162209964Y-88116321D01*
X162209964Y-87830607D02*
X162186154Y-87806797D01*
X162186154Y-87806797D02*
X162138535Y-87782988D01*
X162138535Y-87782988D02*
X162067107Y-87782988D01*
X162067107Y-87782988D02*
X162019488Y-87806797D01*
X162019488Y-87806797D02*
X161995678Y-87854416D01*
X161995678Y-87854416D02*
X161995678Y-88116321D01*
X161543297Y-87782988D02*
X161543297Y-88187750D01*
X161543297Y-88187750D02*
X161567107Y-88235369D01*
X161567107Y-88235369D02*
X161590916Y-88259178D01*
X161590916Y-88259178D02*
X161638535Y-88282988D01*
X161638535Y-88282988D02*
X161709964Y-88282988D01*
X161709964Y-88282988D02*
X161757583Y-88259178D01*
X161543297Y-88092512D02*
X161590916Y-88116321D01*
X161590916Y-88116321D02*
X161686154Y-88116321D01*
X161686154Y-88116321D02*
X161733773Y-88092512D01*
X161733773Y-88092512D02*
X161757583Y-88068702D01*
X161757583Y-88068702D02*
X161781392Y-88021083D01*
X161781392Y-88021083D02*
X161781392Y-87878226D01*
X161781392Y-87878226D02*
X161757583Y-87830607D01*
X161757583Y-87830607D02*
X161733773Y-87806797D01*
X161733773Y-87806797D02*
X161686154Y-87782988D01*
X161686154Y-87782988D02*
X161590916Y-87782988D01*
X161590916Y-87782988D02*
X161543297Y-87806797D01*
X161305202Y-88068702D02*
X161281392Y-88092512D01*
X161281392Y-88092512D02*
X161305202Y-88116321D01*
X161305202Y-88116321D02*
X161329011Y-88092512D01*
X161329011Y-88092512D02*
X161305202Y-88068702D01*
X161305202Y-88068702D02*
X161305202Y-88116321D01*
X161305202Y-87925845D02*
X161329011Y-87640131D01*
X161329011Y-87640131D02*
X161305202Y-87616321D01*
X161305202Y-87616321D02*
X161281392Y-87640131D01*
X161281392Y-87640131D02*
X161305202Y-87925845D01*
X161305202Y-87925845D02*
X161305202Y-87616321D01*
X166733772Y-88897484D02*
X166781391Y-88921293D01*
X166781391Y-88921293D02*
X166876629Y-88921293D01*
X166876629Y-88921293D02*
X166924248Y-88897484D01*
X166924248Y-88897484D02*
X166948058Y-88873674D01*
X166948058Y-88873674D02*
X166971867Y-88826055D01*
X166971867Y-88826055D02*
X166971867Y-88683198D01*
X166971867Y-88683198D02*
X166948058Y-88635579D01*
X166948058Y-88635579D02*
X166924248Y-88611769D01*
X166924248Y-88611769D02*
X166876629Y-88587960D01*
X166876629Y-88587960D02*
X166781391Y-88587960D01*
X166781391Y-88587960D02*
X166733772Y-88611769D01*
X166519487Y-88921293D02*
X166519487Y-88421293D01*
X166305201Y-88921293D02*
X166305201Y-88659388D01*
X166305201Y-88659388D02*
X166329011Y-88611769D01*
X166329011Y-88611769D02*
X166376630Y-88587960D01*
X166376630Y-88587960D02*
X166448058Y-88587960D01*
X166448058Y-88587960D02*
X166495677Y-88611769D01*
X166495677Y-88611769D02*
X166519487Y-88635579D01*
X165995677Y-88921293D02*
X166043296Y-88897484D01*
X166043296Y-88897484D02*
X166067106Y-88873674D01*
X166067106Y-88873674D02*
X166090915Y-88826055D01*
X166090915Y-88826055D02*
X166090915Y-88683198D01*
X166090915Y-88683198D02*
X166067106Y-88635579D01*
X166067106Y-88635579D02*
X166043296Y-88611769D01*
X166043296Y-88611769D02*
X165995677Y-88587960D01*
X165995677Y-88587960D02*
X165924249Y-88587960D01*
X165924249Y-88587960D02*
X165876630Y-88611769D01*
X165876630Y-88611769D02*
X165852820Y-88635579D01*
X165852820Y-88635579D02*
X165829011Y-88683198D01*
X165829011Y-88683198D02*
X165829011Y-88826055D01*
X165829011Y-88826055D02*
X165852820Y-88873674D01*
X165852820Y-88873674D02*
X165876630Y-88897484D01*
X165876630Y-88897484D02*
X165924249Y-88921293D01*
X165924249Y-88921293D02*
X165995677Y-88921293D01*
X165400439Y-88587960D02*
X165400439Y-88921293D01*
X165614725Y-88587960D02*
X165614725Y-88849864D01*
X165614725Y-88849864D02*
X165590915Y-88897484D01*
X165590915Y-88897484D02*
X165543296Y-88921293D01*
X165543296Y-88921293D02*
X165471868Y-88921293D01*
X165471868Y-88921293D02*
X165424249Y-88897484D01*
X165424249Y-88897484D02*
X165400439Y-88873674D01*
X164852820Y-88587960D02*
X164662344Y-88587960D01*
X164781392Y-88421293D02*
X164781392Y-88849864D01*
X164781392Y-88849864D02*
X164757582Y-88897484D01*
X164757582Y-88897484D02*
X164709963Y-88921293D01*
X164709963Y-88921293D02*
X164662344Y-88921293D01*
X164543297Y-88587960D02*
X164281392Y-88587960D01*
X164281392Y-88587960D02*
X164543297Y-88921293D01*
X164543297Y-88921293D02*
X164281392Y-88921293D01*
X163876630Y-88587960D02*
X163876630Y-88921293D01*
X164090916Y-88587960D02*
X164090916Y-88849864D01*
X164090916Y-88849864D02*
X164067106Y-88897484D01*
X164067106Y-88897484D02*
X164019487Y-88921293D01*
X164019487Y-88921293D02*
X163948059Y-88921293D01*
X163948059Y-88921293D02*
X163900440Y-88897484D01*
X163900440Y-88897484D02*
X163876630Y-88873674D01*
X163686154Y-88587960D02*
X163567106Y-88921293D01*
X163448059Y-88587960D02*
X163567106Y-88921293D01*
X163567106Y-88921293D02*
X163614725Y-89040341D01*
X163614725Y-89040341D02*
X163638535Y-89064150D01*
X163638535Y-89064150D02*
X163686154Y-89087960D01*
X163043297Y-88587960D02*
X163043297Y-88921293D01*
X163257583Y-88587960D02*
X163257583Y-88849864D01*
X163257583Y-88849864D02*
X163233773Y-88897484D01*
X163233773Y-88897484D02*
X163186154Y-88921293D01*
X163186154Y-88921293D02*
X163114726Y-88921293D01*
X163114726Y-88921293D02*
X163067107Y-88897484D01*
X163067107Y-88897484D02*
X163043297Y-88873674D01*
X162805202Y-88873674D02*
X162781392Y-88897484D01*
X162781392Y-88897484D02*
X162805202Y-88921293D01*
X162805202Y-88921293D02*
X162829011Y-88897484D01*
X162829011Y-88897484D02*
X162805202Y-88873674D01*
X162805202Y-88873674D02*
X162805202Y-88921293D01*
X162805202Y-88730817D02*
X162829011Y-88445103D01*
X162829011Y-88445103D02*
X162805202Y-88421293D01*
X162805202Y-88421293D02*
X162781392Y-88445103D01*
X162781392Y-88445103D02*
X162805202Y-88730817D01*
X162805202Y-88730817D02*
X162805202Y-88421293D01*
X166995677Y-89392932D02*
X166900439Y-89726265D01*
X166900439Y-89726265D02*
X166805201Y-89488170D01*
X166805201Y-89488170D02*
X166709963Y-89726265D01*
X166709963Y-89726265D02*
X166614725Y-89392932D01*
X166352819Y-89726265D02*
X166400438Y-89702456D01*
X166400438Y-89702456D02*
X166424248Y-89678646D01*
X166424248Y-89678646D02*
X166448057Y-89631027D01*
X166448057Y-89631027D02*
X166448057Y-89488170D01*
X166448057Y-89488170D02*
X166424248Y-89440551D01*
X166424248Y-89440551D02*
X166400438Y-89416741D01*
X166400438Y-89416741D02*
X166352819Y-89392932D01*
X166352819Y-89392932D02*
X166281391Y-89392932D01*
X166281391Y-89392932D02*
X166233772Y-89416741D01*
X166233772Y-89416741D02*
X166209962Y-89440551D01*
X166209962Y-89440551D02*
X166186153Y-89488170D01*
X166186153Y-89488170D02*
X166186153Y-89631027D01*
X166186153Y-89631027D02*
X166209962Y-89678646D01*
X166209962Y-89678646D02*
X166233772Y-89702456D01*
X166233772Y-89702456D02*
X166281391Y-89726265D01*
X166281391Y-89726265D02*
X166352819Y-89726265D01*
X165971867Y-89392932D02*
X165971867Y-89726265D01*
X165971867Y-89440551D02*
X165948057Y-89416741D01*
X165948057Y-89416741D02*
X165900438Y-89392932D01*
X165900438Y-89392932D02*
X165829010Y-89392932D01*
X165829010Y-89392932D02*
X165781391Y-89416741D01*
X165781391Y-89416741D02*
X165757581Y-89464360D01*
X165757581Y-89464360D02*
X165757581Y-89726265D01*
X165138534Y-89726265D02*
X165138534Y-89392932D01*
X165138534Y-89226265D02*
X165162343Y-89250075D01*
X165162343Y-89250075D02*
X165138534Y-89273884D01*
X165138534Y-89273884D02*
X165114724Y-89250075D01*
X165114724Y-89250075D02*
X165138534Y-89226265D01*
X165138534Y-89226265D02*
X165138534Y-89273884D01*
X164900439Y-89392932D02*
X164900439Y-89726265D01*
X164900439Y-89440551D02*
X164876629Y-89416741D01*
X164876629Y-89416741D02*
X164829010Y-89392932D01*
X164829010Y-89392932D02*
X164757582Y-89392932D01*
X164757582Y-89392932D02*
X164709963Y-89416741D01*
X164709963Y-89416741D02*
X164686153Y-89464360D01*
X164686153Y-89464360D02*
X164686153Y-89726265D01*
X164257582Y-89702456D02*
X164305201Y-89726265D01*
X164305201Y-89726265D02*
X164400439Y-89726265D01*
X164400439Y-89726265D02*
X164448058Y-89702456D01*
X164448058Y-89702456D02*
X164471867Y-89654836D01*
X164471867Y-89654836D02*
X164471867Y-89464360D01*
X164471867Y-89464360D02*
X164448058Y-89416741D01*
X164448058Y-89416741D02*
X164400439Y-89392932D01*
X164400439Y-89392932D02*
X164305201Y-89392932D01*
X164305201Y-89392932D02*
X164257582Y-89416741D01*
X164257582Y-89416741D02*
X164233772Y-89464360D01*
X164233772Y-89464360D02*
X164233772Y-89511979D01*
X164233772Y-89511979D02*
X164471867Y-89559598D01*
X163948058Y-89726265D02*
X163995677Y-89702456D01*
X163995677Y-89702456D02*
X164019487Y-89678646D01*
X164019487Y-89678646D02*
X164043296Y-89631027D01*
X164043296Y-89631027D02*
X164043296Y-89488170D01*
X164043296Y-89488170D02*
X164019487Y-89440551D01*
X164019487Y-89440551D02*
X163995677Y-89416741D01*
X163995677Y-89416741D02*
X163948058Y-89392932D01*
X163948058Y-89392932D02*
X163876630Y-89392932D01*
X163876630Y-89392932D02*
X163829011Y-89416741D01*
X163829011Y-89416741D02*
X163805201Y-89440551D01*
X163805201Y-89440551D02*
X163781392Y-89488170D01*
X163781392Y-89488170D02*
X163781392Y-89631027D01*
X163781392Y-89631027D02*
X163805201Y-89678646D01*
X163805201Y-89678646D02*
X163829011Y-89702456D01*
X163829011Y-89702456D02*
X163876630Y-89726265D01*
X163876630Y-89726265D02*
X163948058Y-89726265D01*
X163186154Y-89726265D02*
X163186154Y-89392932D01*
X163186154Y-89440551D02*
X163162344Y-89416741D01*
X163162344Y-89416741D02*
X163114725Y-89392932D01*
X163114725Y-89392932D02*
X163043297Y-89392932D01*
X163043297Y-89392932D02*
X162995678Y-89416741D01*
X162995678Y-89416741D02*
X162971868Y-89464360D01*
X162971868Y-89464360D02*
X162971868Y-89726265D01*
X162971868Y-89464360D02*
X162948059Y-89416741D01*
X162948059Y-89416741D02*
X162900440Y-89392932D01*
X162900440Y-89392932D02*
X162829011Y-89392932D01*
X162829011Y-89392932D02*
X162781392Y-89416741D01*
X162781392Y-89416741D02*
X162757582Y-89464360D01*
X162757582Y-89464360D02*
X162757582Y-89726265D01*
X162519487Y-89726265D02*
X162519487Y-89392932D01*
X162519487Y-89226265D02*
X162543296Y-89250075D01*
X162543296Y-89250075D02*
X162519487Y-89273884D01*
X162519487Y-89273884D02*
X162495677Y-89250075D01*
X162495677Y-89250075D02*
X162519487Y-89226265D01*
X162519487Y-89226265D02*
X162519487Y-89273884D01*
X162209963Y-89726265D02*
X162257582Y-89702456D01*
X162257582Y-89702456D02*
X162281392Y-89654836D01*
X162281392Y-89654836D02*
X162281392Y-89226265D01*
X161948058Y-89726265D02*
X161995677Y-89702456D01*
X161995677Y-89702456D02*
X162019487Y-89654836D01*
X162019487Y-89654836D02*
X162019487Y-89226265D01*
X161757582Y-89726265D02*
X161757582Y-89392932D01*
X161757582Y-89226265D02*
X161781391Y-89250075D01*
X161781391Y-89250075D02*
X161757582Y-89273884D01*
X161757582Y-89273884D02*
X161733772Y-89250075D01*
X161733772Y-89250075D02*
X161757582Y-89226265D01*
X161757582Y-89226265D02*
X161757582Y-89273884D01*
X161329011Y-89702456D02*
X161376630Y-89726265D01*
X161376630Y-89726265D02*
X161471868Y-89726265D01*
X161471868Y-89726265D02*
X161519487Y-89702456D01*
X161519487Y-89702456D02*
X161543296Y-89654836D01*
X161543296Y-89654836D02*
X161543296Y-89464360D01*
X161543296Y-89464360D02*
X161519487Y-89416741D01*
X161519487Y-89416741D02*
X161471868Y-89392932D01*
X161471868Y-89392932D02*
X161376630Y-89392932D01*
X161376630Y-89392932D02*
X161329011Y-89416741D01*
X161329011Y-89416741D02*
X161305201Y-89464360D01*
X161305201Y-89464360D02*
X161305201Y-89511979D01*
X161305201Y-89511979D02*
X161543296Y-89559598D01*
X161019487Y-89726265D02*
X161067106Y-89702456D01*
X161067106Y-89702456D02*
X161090916Y-89678646D01*
X161090916Y-89678646D02*
X161114725Y-89631027D01*
X161114725Y-89631027D02*
X161114725Y-89488170D01*
X161114725Y-89488170D02*
X161090916Y-89440551D01*
X161090916Y-89440551D02*
X161067106Y-89416741D01*
X161067106Y-89416741D02*
X161019487Y-89392932D01*
X161019487Y-89392932D02*
X160948059Y-89392932D01*
X160948059Y-89392932D02*
X160900440Y-89416741D01*
X160900440Y-89416741D02*
X160876630Y-89440551D01*
X160876630Y-89440551D02*
X160852821Y-89488170D01*
X160852821Y-89488170D02*
X160852821Y-89631027D01*
X160852821Y-89631027D02*
X160876630Y-89678646D01*
X160876630Y-89678646D02*
X160900440Y-89702456D01*
X160900440Y-89702456D02*
X160948059Y-89726265D01*
X160948059Y-89726265D02*
X161019487Y-89726265D01*
X160638535Y-89392932D02*
X160638535Y-89726265D01*
X160638535Y-89440551D02*
X160614725Y-89416741D01*
X160614725Y-89416741D02*
X160567106Y-89392932D01*
X160567106Y-89392932D02*
X160495678Y-89392932D01*
X160495678Y-89392932D02*
X160448059Y-89416741D01*
X160448059Y-89416741D02*
X160424249Y-89464360D01*
X160424249Y-89464360D02*
X160424249Y-89726265D01*
X160186154Y-89678646D02*
X160162344Y-89702456D01*
X160162344Y-89702456D02*
X160186154Y-89726265D01*
X160186154Y-89726265D02*
X160209963Y-89702456D01*
X160209963Y-89702456D02*
X160186154Y-89678646D01*
X160186154Y-89678646D02*
X160186154Y-89726265D01*
X160186154Y-89535789D02*
X160209963Y-89250075D01*
X160209963Y-89250075D02*
X160186154Y-89226265D01*
X160186154Y-89226265D02*
X160162344Y-89250075D01*
X160162344Y-89250075D02*
X160186154Y-89535789D01*
X160186154Y-89535789D02*
X160186154Y-89226265D01*
X166971867Y-90507428D02*
X166924248Y-90531237D01*
X166924248Y-90531237D02*
X166829010Y-90531237D01*
X166829010Y-90531237D02*
X166781391Y-90507428D01*
X166781391Y-90507428D02*
X166757582Y-90459808D01*
X166757582Y-90459808D02*
X166757582Y-90435999D01*
X166757582Y-90435999D02*
X166781391Y-90388380D01*
X166781391Y-90388380D02*
X166829010Y-90364570D01*
X166829010Y-90364570D02*
X166900439Y-90364570D01*
X166900439Y-90364570D02*
X166948058Y-90340761D01*
X166948058Y-90340761D02*
X166971867Y-90293142D01*
X166971867Y-90293142D02*
X166971867Y-90269332D01*
X166971867Y-90269332D02*
X166948058Y-90221713D01*
X166948058Y-90221713D02*
X166900439Y-90197904D01*
X166900439Y-90197904D02*
X166829010Y-90197904D01*
X166829010Y-90197904D02*
X166781391Y-90221713D01*
X166352820Y-90507428D02*
X166400439Y-90531237D01*
X166400439Y-90531237D02*
X166495677Y-90531237D01*
X166495677Y-90531237D02*
X166543296Y-90507428D01*
X166543296Y-90507428D02*
X166567105Y-90459808D01*
X166567105Y-90459808D02*
X166567105Y-90269332D01*
X166567105Y-90269332D02*
X166543296Y-90221713D01*
X166543296Y-90221713D02*
X166495677Y-90197904D01*
X166495677Y-90197904D02*
X166400439Y-90197904D01*
X166400439Y-90197904D02*
X166352820Y-90221713D01*
X166352820Y-90221713D02*
X166329010Y-90269332D01*
X166329010Y-90269332D02*
X166329010Y-90316951D01*
X166329010Y-90316951D02*
X166567105Y-90364570D01*
X166138534Y-90507428D02*
X166090915Y-90531237D01*
X166090915Y-90531237D02*
X165995677Y-90531237D01*
X165995677Y-90531237D02*
X165948058Y-90507428D01*
X165948058Y-90507428D02*
X165924249Y-90459808D01*
X165924249Y-90459808D02*
X165924249Y-90435999D01*
X165924249Y-90435999D02*
X165948058Y-90388380D01*
X165948058Y-90388380D02*
X165995677Y-90364570D01*
X165995677Y-90364570D02*
X166067106Y-90364570D01*
X166067106Y-90364570D02*
X166114725Y-90340761D01*
X166114725Y-90340761D02*
X166138534Y-90293142D01*
X166138534Y-90293142D02*
X166138534Y-90269332D01*
X166138534Y-90269332D02*
X166114725Y-90221713D01*
X166114725Y-90221713D02*
X166067106Y-90197904D01*
X166067106Y-90197904D02*
X165995677Y-90197904D01*
X165995677Y-90197904D02*
X165948058Y-90221713D01*
X165495677Y-90531237D02*
X165495677Y-90269332D01*
X165495677Y-90269332D02*
X165519487Y-90221713D01*
X165519487Y-90221713D02*
X165567106Y-90197904D01*
X165567106Y-90197904D02*
X165662344Y-90197904D01*
X165662344Y-90197904D02*
X165709963Y-90221713D01*
X165495677Y-90507428D02*
X165543296Y-90531237D01*
X165543296Y-90531237D02*
X165662344Y-90531237D01*
X165662344Y-90531237D02*
X165709963Y-90507428D01*
X165709963Y-90507428D02*
X165733772Y-90459808D01*
X165733772Y-90459808D02*
X165733772Y-90412189D01*
X165733772Y-90412189D02*
X165709963Y-90364570D01*
X165709963Y-90364570D02*
X165662344Y-90340761D01*
X165662344Y-90340761D02*
X165543296Y-90340761D01*
X165543296Y-90340761D02*
X165495677Y-90316951D01*
X165257582Y-90197904D02*
X165257582Y-90531237D01*
X165257582Y-90245523D02*
X165233772Y-90221713D01*
X165233772Y-90221713D02*
X165186153Y-90197904D01*
X165186153Y-90197904D02*
X165114725Y-90197904D01*
X165114725Y-90197904D02*
X165067106Y-90221713D01*
X165067106Y-90221713D02*
X165043296Y-90269332D01*
X165043296Y-90269332D02*
X165043296Y-90531237D01*
X164590915Y-90197904D02*
X164590915Y-90602666D01*
X164590915Y-90602666D02*
X164614725Y-90650285D01*
X164614725Y-90650285D02*
X164638534Y-90674094D01*
X164638534Y-90674094D02*
X164686153Y-90697904D01*
X164686153Y-90697904D02*
X164757582Y-90697904D01*
X164757582Y-90697904D02*
X164805201Y-90674094D01*
X164590915Y-90507428D02*
X164638534Y-90531237D01*
X164638534Y-90531237D02*
X164733772Y-90531237D01*
X164733772Y-90531237D02*
X164781391Y-90507428D01*
X164781391Y-90507428D02*
X164805201Y-90483618D01*
X164805201Y-90483618D02*
X164829010Y-90435999D01*
X164829010Y-90435999D02*
X164829010Y-90293142D01*
X164829010Y-90293142D02*
X164805201Y-90245523D01*
X164805201Y-90245523D02*
X164781391Y-90221713D01*
X164781391Y-90221713D02*
X164733772Y-90197904D01*
X164733772Y-90197904D02*
X164638534Y-90197904D01*
X164638534Y-90197904D02*
X164590915Y-90221713D01*
X164162344Y-90507428D02*
X164209963Y-90531237D01*
X164209963Y-90531237D02*
X164305201Y-90531237D01*
X164305201Y-90531237D02*
X164352820Y-90507428D01*
X164352820Y-90507428D02*
X164376629Y-90459808D01*
X164376629Y-90459808D02*
X164376629Y-90269332D01*
X164376629Y-90269332D02*
X164352820Y-90221713D01*
X164352820Y-90221713D02*
X164305201Y-90197904D01*
X164305201Y-90197904D02*
X164209963Y-90197904D01*
X164209963Y-90197904D02*
X164162344Y-90221713D01*
X164162344Y-90221713D02*
X164138534Y-90269332D01*
X164138534Y-90269332D02*
X164138534Y-90316951D01*
X164138534Y-90316951D02*
X164376629Y-90364570D01*
X163329011Y-90531237D02*
X163329011Y-90031237D01*
X163329011Y-90507428D02*
X163376630Y-90531237D01*
X163376630Y-90531237D02*
X163471868Y-90531237D01*
X163471868Y-90531237D02*
X163519487Y-90507428D01*
X163519487Y-90507428D02*
X163543297Y-90483618D01*
X163543297Y-90483618D02*
X163567106Y-90435999D01*
X163567106Y-90435999D02*
X163567106Y-90293142D01*
X163567106Y-90293142D02*
X163543297Y-90245523D01*
X163543297Y-90245523D02*
X163519487Y-90221713D01*
X163519487Y-90221713D02*
X163471868Y-90197904D01*
X163471868Y-90197904D02*
X163376630Y-90197904D01*
X163376630Y-90197904D02*
X163329011Y-90221713D01*
X162876630Y-90531237D02*
X162876630Y-90269332D01*
X162876630Y-90269332D02*
X162900440Y-90221713D01*
X162900440Y-90221713D02*
X162948059Y-90197904D01*
X162948059Y-90197904D02*
X163043297Y-90197904D01*
X163043297Y-90197904D02*
X163090916Y-90221713D01*
X162876630Y-90507428D02*
X162924249Y-90531237D01*
X162924249Y-90531237D02*
X163043297Y-90531237D01*
X163043297Y-90531237D02*
X163090916Y-90507428D01*
X163090916Y-90507428D02*
X163114725Y-90459808D01*
X163114725Y-90459808D02*
X163114725Y-90412189D01*
X163114725Y-90412189D02*
X163090916Y-90364570D01*
X163090916Y-90364570D02*
X163043297Y-90340761D01*
X163043297Y-90340761D02*
X162924249Y-90340761D01*
X162924249Y-90340761D02*
X162876630Y-90316951D01*
X162638535Y-90197904D02*
X162638535Y-90531237D01*
X162638535Y-90245523D02*
X162614725Y-90221713D01*
X162614725Y-90221713D02*
X162567106Y-90197904D01*
X162567106Y-90197904D02*
X162495678Y-90197904D01*
X162495678Y-90197904D02*
X162448059Y-90221713D01*
X162448059Y-90221713D02*
X162424249Y-90269332D01*
X162424249Y-90269332D02*
X162424249Y-90531237D01*
X161805202Y-90531237D02*
X161805202Y-90031237D01*
X161590916Y-90531237D02*
X161590916Y-90269332D01*
X161590916Y-90269332D02*
X161614726Y-90221713D01*
X161614726Y-90221713D02*
X161662345Y-90197904D01*
X161662345Y-90197904D02*
X161733773Y-90197904D01*
X161733773Y-90197904D02*
X161781392Y-90221713D01*
X161781392Y-90221713D02*
X161805202Y-90245523D01*
X161138535Y-90531237D02*
X161138535Y-90269332D01*
X161138535Y-90269332D02*
X161162345Y-90221713D01*
X161162345Y-90221713D02*
X161209964Y-90197904D01*
X161209964Y-90197904D02*
X161305202Y-90197904D01*
X161305202Y-90197904D02*
X161352821Y-90221713D01*
X161138535Y-90507428D02*
X161186154Y-90531237D01*
X161186154Y-90531237D02*
X161305202Y-90531237D01*
X161305202Y-90531237D02*
X161352821Y-90507428D01*
X161352821Y-90507428D02*
X161376630Y-90459808D01*
X161376630Y-90459808D02*
X161376630Y-90412189D01*
X161376630Y-90412189D02*
X161352821Y-90364570D01*
X161352821Y-90364570D02*
X161305202Y-90340761D01*
X161305202Y-90340761D02*
X161186154Y-90340761D01*
X161186154Y-90340761D02*
X161138535Y-90316951D01*
X160900440Y-90197904D02*
X160900440Y-90531237D01*
X160900440Y-90245523D02*
X160876630Y-90221713D01*
X160876630Y-90221713D02*
X160829011Y-90197904D01*
X160829011Y-90197904D02*
X160757583Y-90197904D01*
X160757583Y-90197904D02*
X160709964Y-90221713D01*
X160709964Y-90221713D02*
X160686154Y-90269332D01*
X160686154Y-90269332D02*
X160686154Y-90531237D01*
X160233773Y-90531237D02*
X160233773Y-90269332D01*
X160233773Y-90269332D02*
X160257583Y-90221713D01*
X160257583Y-90221713D02*
X160305202Y-90197904D01*
X160305202Y-90197904D02*
X160400440Y-90197904D01*
X160400440Y-90197904D02*
X160448059Y-90221713D01*
X160233773Y-90507428D02*
X160281392Y-90531237D01*
X160281392Y-90531237D02*
X160400440Y-90531237D01*
X160400440Y-90531237D02*
X160448059Y-90507428D01*
X160448059Y-90507428D02*
X160471868Y-90459808D01*
X160471868Y-90459808D02*
X160471868Y-90412189D01*
X160471868Y-90412189D02*
X160448059Y-90364570D01*
X160448059Y-90364570D02*
X160400440Y-90340761D01*
X160400440Y-90340761D02*
X160281392Y-90340761D01*
X160281392Y-90340761D02*
X160233773Y-90316951D01*
X159995678Y-90197904D02*
X159995678Y-90697904D01*
X159995678Y-90221713D02*
X159948059Y-90197904D01*
X159948059Y-90197904D02*
X159852821Y-90197904D01*
X159852821Y-90197904D02*
X159805202Y-90221713D01*
X159805202Y-90221713D02*
X159781392Y-90245523D01*
X159781392Y-90245523D02*
X159757583Y-90293142D01*
X159757583Y-90293142D02*
X159757583Y-90435999D01*
X159757583Y-90435999D02*
X159781392Y-90483618D01*
X159781392Y-90483618D02*
X159805202Y-90507428D01*
X159805202Y-90507428D02*
X159852821Y-90531237D01*
X159852821Y-90531237D02*
X159948059Y-90531237D01*
X159948059Y-90531237D02*
X159995678Y-90507428D01*
X159543297Y-90197904D02*
X159543297Y-90697904D01*
X159543297Y-90221713D02*
X159495678Y-90197904D01*
X159495678Y-90197904D02*
X159400440Y-90197904D01*
X159400440Y-90197904D02*
X159352821Y-90221713D01*
X159352821Y-90221713D02*
X159329011Y-90245523D01*
X159329011Y-90245523D02*
X159305202Y-90293142D01*
X159305202Y-90293142D02*
X159305202Y-90435999D01*
X159305202Y-90435999D02*
X159329011Y-90483618D01*
X159329011Y-90483618D02*
X159352821Y-90507428D01*
X159352821Y-90507428D02*
X159400440Y-90531237D01*
X159400440Y-90531237D02*
X159495678Y-90531237D01*
X159495678Y-90531237D02*
X159543297Y-90507428D01*
X158876630Y-90197904D02*
X158876630Y-90531237D01*
X159090916Y-90197904D02*
X159090916Y-90459808D01*
X159090916Y-90459808D02*
X159067106Y-90507428D01*
X159067106Y-90507428D02*
X159019487Y-90531237D01*
X159019487Y-90531237D02*
X158948059Y-90531237D01*
X158948059Y-90531237D02*
X158900440Y-90507428D01*
X158900440Y-90507428D02*
X158876630Y-90483618D01*
X158638535Y-90197904D02*
X158638535Y-90531237D01*
X158638535Y-90245523D02*
X158614725Y-90221713D01*
X158614725Y-90221713D02*
X158567106Y-90197904D01*
X158567106Y-90197904D02*
X158495678Y-90197904D01*
X158495678Y-90197904D02*
X158448059Y-90221713D01*
X158448059Y-90221713D02*
X158424249Y-90269332D01*
X158424249Y-90269332D02*
X158424249Y-90531237D01*
X158186154Y-90531237D02*
X158186154Y-90197904D01*
X158186154Y-90031237D02*
X158209963Y-90055047D01*
X158209963Y-90055047D02*
X158186154Y-90078856D01*
X158186154Y-90078856D02*
X158162344Y-90055047D01*
X158162344Y-90055047D02*
X158186154Y-90031237D01*
X158186154Y-90031237D02*
X158186154Y-90078856D01*
X157948059Y-90197904D02*
X157948059Y-90531237D01*
X157948059Y-90245523D02*
X157924249Y-90221713D01*
X157924249Y-90221713D02*
X157876630Y-90197904D01*
X157876630Y-90197904D02*
X157805202Y-90197904D01*
X157805202Y-90197904D02*
X157757583Y-90221713D01*
X157757583Y-90221713D02*
X157733773Y-90269332D01*
X157733773Y-90269332D02*
X157733773Y-90531237D01*
X167019486Y-91002876D02*
X166829010Y-91002876D01*
X166948058Y-90836209D02*
X166948058Y-91264780D01*
X166948058Y-91264780D02*
X166924248Y-91312400D01*
X166924248Y-91312400D02*
X166876629Y-91336209D01*
X166876629Y-91336209D02*
X166829010Y-91336209D01*
X166471868Y-91312400D02*
X166519487Y-91336209D01*
X166519487Y-91336209D02*
X166614725Y-91336209D01*
X166614725Y-91336209D02*
X166662344Y-91312400D01*
X166662344Y-91312400D02*
X166686153Y-91264780D01*
X166686153Y-91264780D02*
X166686153Y-91074304D01*
X166686153Y-91074304D02*
X166662344Y-91026685D01*
X166662344Y-91026685D02*
X166614725Y-91002876D01*
X166614725Y-91002876D02*
X166519487Y-91002876D01*
X166519487Y-91002876D02*
X166471868Y-91026685D01*
X166471868Y-91026685D02*
X166448058Y-91074304D01*
X166448058Y-91074304D02*
X166448058Y-91121923D01*
X166448058Y-91121923D02*
X166686153Y-91169542D01*
X166019487Y-91002876D02*
X166019487Y-91336209D01*
X166233773Y-91002876D02*
X166233773Y-91264780D01*
X166233773Y-91264780D02*
X166209963Y-91312400D01*
X166209963Y-91312400D02*
X166162344Y-91336209D01*
X166162344Y-91336209D02*
X166090916Y-91336209D01*
X166090916Y-91336209D02*
X166043297Y-91312400D01*
X166043297Y-91312400D02*
X166019487Y-91288590D01*
X165781392Y-91288590D02*
X165757582Y-91312400D01*
X165757582Y-91312400D02*
X165781392Y-91336209D01*
X165781392Y-91336209D02*
X165805201Y-91312400D01*
X165805201Y-91312400D02*
X165781392Y-91288590D01*
X165781392Y-91288590D02*
X165781392Y-91336209D01*
X165590916Y-91002876D02*
X165495678Y-91336209D01*
X165495678Y-91336209D02*
X165400440Y-91098114D01*
X165400440Y-91098114D02*
X165305202Y-91336209D01*
X165305202Y-91336209D02*
X165209964Y-91002876D01*
X164805201Y-91336209D02*
X164805201Y-91074304D01*
X164805201Y-91074304D02*
X164829011Y-91026685D01*
X164829011Y-91026685D02*
X164876630Y-91002876D01*
X164876630Y-91002876D02*
X164971868Y-91002876D01*
X164971868Y-91002876D02*
X165019487Y-91026685D01*
X164805201Y-91312400D02*
X164852820Y-91336209D01*
X164852820Y-91336209D02*
X164971868Y-91336209D01*
X164971868Y-91336209D02*
X165019487Y-91312400D01*
X165019487Y-91312400D02*
X165043296Y-91264780D01*
X165043296Y-91264780D02*
X165043296Y-91217161D01*
X165043296Y-91217161D02*
X165019487Y-91169542D01*
X165019487Y-91169542D02*
X164971868Y-91145733D01*
X164971868Y-91145733D02*
X164852820Y-91145733D01*
X164852820Y-91145733D02*
X164805201Y-91121923D01*
X164567106Y-91288590D02*
X164543296Y-91312400D01*
X164543296Y-91312400D02*
X164567106Y-91336209D01*
X164567106Y-91336209D02*
X164590915Y-91312400D01*
X164590915Y-91312400D02*
X164567106Y-91288590D01*
X164567106Y-91288590D02*
X164567106Y-91336209D01*
X164329011Y-91336209D02*
X164329011Y-91002876D01*
X164329011Y-90836209D02*
X164352820Y-90860019D01*
X164352820Y-90860019D02*
X164329011Y-90883828D01*
X164329011Y-90883828D02*
X164305201Y-90860019D01*
X164305201Y-90860019D02*
X164329011Y-90836209D01*
X164329011Y-90836209D02*
X164329011Y-90883828D01*
X164090916Y-91288590D02*
X164067106Y-91312400D01*
X164067106Y-91312400D02*
X164090916Y-91336209D01*
X164090916Y-91336209D02*
X164114725Y-91312400D01*
X164114725Y-91312400D02*
X164090916Y-91288590D01*
X164090916Y-91288590D02*
X164090916Y-91336209D01*
X163876630Y-91312400D02*
X163829011Y-91336209D01*
X163829011Y-91336209D02*
X163733773Y-91336209D01*
X163733773Y-91336209D02*
X163686154Y-91312400D01*
X163686154Y-91312400D02*
X163662345Y-91264780D01*
X163662345Y-91264780D02*
X163662345Y-91240971D01*
X163662345Y-91240971D02*
X163686154Y-91193352D01*
X163686154Y-91193352D02*
X163733773Y-91169542D01*
X163733773Y-91169542D02*
X163805202Y-91169542D01*
X163805202Y-91169542D02*
X163852821Y-91145733D01*
X163852821Y-91145733D02*
X163876630Y-91098114D01*
X163876630Y-91098114D02*
X163876630Y-91074304D01*
X163876630Y-91074304D02*
X163852821Y-91026685D01*
X163852821Y-91026685D02*
X163805202Y-91002876D01*
X163805202Y-91002876D02*
X163733773Y-91002876D01*
X163733773Y-91002876D02*
X163686154Y-91026685D01*
X163257583Y-91312400D02*
X163305202Y-91336209D01*
X163305202Y-91336209D02*
X163400440Y-91336209D01*
X163400440Y-91336209D02*
X163448059Y-91312400D01*
X163448059Y-91312400D02*
X163471868Y-91264780D01*
X163471868Y-91264780D02*
X163471868Y-91074304D01*
X163471868Y-91074304D02*
X163448059Y-91026685D01*
X163448059Y-91026685D02*
X163400440Y-91002876D01*
X163400440Y-91002876D02*
X163305202Y-91002876D01*
X163305202Y-91002876D02*
X163257583Y-91026685D01*
X163257583Y-91026685D02*
X163233773Y-91074304D01*
X163233773Y-91074304D02*
X163233773Y-91121923D01*
X163233773Y-91121923D02*
X163471868Y-91169542D01*
X162805202Y-91002876D02*
X162805202Y-91336209D01*
X163019488Y-91002876D02*
X163019488Y-91264780D01*
X163019488Y-91264780D02*
X162995678Y-91312400D01*
X162995678Y-91312400D02*
X162948059Y-91336209D01*
X162948059Y-91336209D02*
X162876631Y-91336209D01*
X162876631Y-91336209D02*
X162829012Y-91312400D01*
X162829012Y-91312400D02*
X162805202Y-91288590D01*
D11*
X166025759Y-78622498D02*
X166098331Y-78695070D01*
X166098331Y-78695070D02*
X166316045Y-78767641D01*
X166316045Y-78767641D02*
X166461188Y-78767641D01*
X166461188Y-78767641D02*
X166678902Y-78695070D01*
X166678902Y-78695070D02*
X166824045Y-78549927D01*
X166824045Y-78549927D02*
X166896616Y-78404784D01*
X166896616Y-78404784D02*
X166969188Y-78114498D01*
X166969188Y-78114498D02*
X166969188Y-77896784D01*
X166969188Y-77896784D02*
X166896616Y-77606498D01*
X166896616Y-77606498D02*
X166824045Y-77461355D01*
X166824045Y-77461355D02*
X166678902Y-77316212D01*
X166678902Y-77316212D02*
X166461188Y-77243641D01*
X166461188Y-77243641D02*
X166316045Y-77243641D01*
X166316045Y-77243641D02*
X166098331Y-77316212D01*
X166098331Y-77316212D02*
X166025759Y-77388784D01*
X164719474Y-78767641D02*
X164719474Y-77969355D01*
X164719474Y-77969355D02*
X164792045Y-77824212D01*
X164792045Y-77824212D02*
X164937188Y-77751641D01*
X164937188Y-77751641D02*
X165227474Y-77751641D01*
X165227474Y-77751641D02*
X165372616Y-77824212D01*
X164719474Y-78695070D02*
X164864616Y-78767641D01*
X164864616Y-78767641D02*
X165227474Y-78767641D01*
X165227474Y-78767641D02*
X165372616Y-78695070D01*
X165372616Y-78695070D02*
X165445188Y-78549927D01*
X165445188Y-78549927D02*
X165445188Y-78404784D01*
X165445188Y-78404784D02*
X165372616Y-78259641D01*
X165372616Y-78259641D02*
X165227474Y-78187070D01*
X165227474Y-78187070D02*
X164864616Y-78187070D01*
X164864616Y-78187070D02*
X164719474Y-78114498D01*
X163993759Y-78767641D02*
X163993759Y-77751641D01*
X163993759Y-78041927D02*
X163921188Y-77896784D01*
X163921188Y-77896784D02*
X163848617Y-77824212D01*
X163848617Y-77824212D02*
X163703474Y-77751641D01*
X163703474Y-77751641D02*
X163558331Y-77751641D01*
X163122902Y-78695070D02*
X162977759Y-78767641D01*
X162977759Y-78767641D02*
X162687473Y-78767641D01*
X162687473Y-78767641D02*
X162542330Y-78695070D01*
X162542330Y-78695070D02*
X162469759Y-78549927D01*
X162469759Y-78549927D02*
X162469759Y-78477355D01*
X162469759Y-78477355D02*
X162542330Y-78332212D01*
X162542330Y-78332212D02*
X162687473Y-78259641D01*
X162687473Y-78259641D02*
X162905188Y-78259641D01*
X162905188Y-78259641D02*
X163050330Y-78187070D01*
X163050330Y-78187070D02*
X163122902Y-78041927D01*
X163122902Y-78041927D02*
X163122902Y-77969355D01*
X163122902Y-77969355D02*
X163050330Y-77824212D01*
X163050330Y-77824212D02*
X162905188Y-77751641D01*
X162905188Y-77751641D02*
X162687473Y-77751641D01*
X162687473Y-77751641D02*
X162542330Y-77824212D01*
X161598902Y-78767641D02*
X161744045Y-78695070D01*
X161744045Y-78695070D02*
X161816616Y-78622498D01*
X161816616Y-78622498D02*
X161889188Y-78477355D01*
X161889188Y-78477355D02*
X161889188Y-78041927D01*
X161889188Y-78041927D02*
X161816616Y-77896784D01*
X161816616Y-77896784D02*
X161744045Y-77824212D01*
X161744045Y-77824212D02*
X161598902Y-77751641D01*
X161598902Y-77751641D02*
X161381188Y-77751641D01*
X161381188Y-77751641D02*
X161236045Y-77824212D01*
X161236045Y-77824212D02*
X161163474Y-77896784D01*
X161163474Y-77896784D02*
X161090902Y-78041927D01*
X161090902Y-78041927D02*
X161090902Y-78477355D01*
X161090902Y-78477355D02*
X161163474Y-78622498D01*
X161163474Y-78622498D02*
X161236045Y-78695070D01*
X161236045Y-78695070D02*
X161381188Y-78767641D01*
X161381188Y-78767641D02*
X161598902Y-78767641D01*
X160437759Y-77751641D02*
X160437759Y-78767641D01*
X160437759Y-77896784D02*
X160365188Y-77824212D01*
X160365188Y-77824212D02*
X160220045Y-77751641D01*
X160220045Y-77751641D02*
X160002331Y-77751641D01*
X160002331Y-77751641D02*
X159857188Y-77824212D01*
X159857188Y-77824212D02*
X159784617Y-77969355D01*
X159784617Y-77969355D02*
X159784617Y-78767641D01*
X129741759Y-121551641D02*
X129378902Y-122567641D01*
X129378902Y-122567641D02*
X129016045Y-121551641D01*
X127637188Y-122567641D02*
X128508045Y-122567641D01*
X128072616Y-122567641D02*
X128072616Y-121043641D01*
X128072616Y-121043641D02*
X128217759Y-121261355D01*
X128217759Y-121261355D02*
X128362902Y-121406498D01*
X128362902Y-121406498D02*
X128508045Y-121479070D01*
X126984044Y-122422498D02*
X126911473Y-122495070D01*
X126911473Y-122495070D02*
X126984044Y-122567641D01*
X126984044Y-122567641D02*
X127056616Y-122495070D01*
X127056616Y-122495070D02*
X126984044Y-122422498D01*
X126984044Y-122422498D02*
X126984044Y-122567641D01*
X125968045Y-121043641D02*
X125822902Y-121043641D01*
X125822902Y-121043641D02*
X125677759Y-121116212D01*
X125677759Y-121116212D02*
X125605188Y-121188784D01*
X125605188Y-121188784D02*
X125532616Y-121333927D01*
X125532616Y-121333927D02*
X125460045Y-121624212D01*
X125460045Y-121624212D02*
X125460045Y-121987070D01*
X125460045Y-121987070D02*
X125532616Y-122277355D01*
X125532616Y-122277355D02*
X125605188Y-122422498D01*
X125605188Y-122422498D02*
X125677759Y-122495070D01*
X125677759Y-122495070D02*
X125822902Y-122567641D01*
X125822902Y-122567641D02*
X125968045Y-122567641D01*
X125968045Y-122567641D02*
X126113188Y-122495070D01*
X126113188Y-122495070D02*
X126185759Y-122422498D01*
X126185759Y-122422498D02*
X126258330Y-122277355D01*
X126258330Y-122277355D02*
X126330902Y-121987070D01*
X126330902Y-121987070D02*
X126330902Y-121624212D01*
X126330902Y-121624212D02*
X126258330Y-121333927D01*
X126258330Y-121333927D02*
X126185759Y-121188784D01*
X126185759Y-121188784D02*
X126113188Y-121116212D01*
X126113188Y-121116212D02*
X125968045Y-121043641D01*
D12*
X136275279Y-118695536D02*
X136130136Y-118695536D01*
X136130136Y-118695536D02*
X135984993Y-118768107D01*
X135984993Y-118768107D02*
X135912422Y-118840679D01*
X135912422Y-118840679D02*
X135839850Y-118985822D01*
X135839850Y-118985822D02*
X135767279Y-119276107D01*
X135767279Y-119276107D02*
X135767279Y-119638965D01*
X135767279Y-119638965D02*
X135839850Y-119929250D01*
X135839850Y-119929250D02*
X135912422Y-120074393D01*
X135912422Y-120074393D02*
X135984993Y-120146965D01*
X135984993Y-120146965D02*
X136130136Y-120219536D01*
X136130136Y-120219536D02*
X136275279Y-120219536D01*
X136275279Y-120219536D02*
X136420422Y-120146965D01*
X136420422Y-120146965D02*
X136492993Y-120074393D01*
X136492993Y-120074393D02*
X136565564Y-119929250D01*
X136565564Y-119929250D02*
X136638136Y-119638965D01*
X136638136Y-119638965D02*
X136638136Y-119276107D01*
X136638136Y-119276107D02*
X136565564Y-118985822D01*
X136565564Y-118985822D02*
X136492993Y-118840679D01*
X136492993Y-118840679D02*
X136420422Y-118768107D01*
X136420422Y-118768107D02*
X136275279Y-118695536D01*
X135259278Y-118695536D02*
X134243278Y-118695536D01*
X134243278Y-118695536D02*
X134896421Y-120219536D01*
X132574135Y-118622965D02*
X133880421Y-120582393D01*
X132138707Y-120146965D02*
X131920993Y-120219536D01*
X131920993Y-120219536D02*
X131558135Y-120219536D01*
X131558135Y-120219536D02*
X131412993Y-120146965D01*
X131412993Y-120146965D02*
X131340421Y-120074393D01*
X131340421Y-120074393D02*
X131267850Y-119929250D01*
X131267850Y-119929250D02*
X131267850Y-119784107D01*
X131267850Y-119784107D02*
X131340421Y-119638965D01*
X131340421Y-119638965D02*
X131412993Y-119566393D01*
X131412993Y-119566393D02*
X131558135Y-119493822D01*
X131558135Y-119493822D02*
X131848421Y-119421250D01*
X131848421Y-119421250D02*
X131993564Y-119348679D01*
X131993564Y-119348679D02*
X132066135Y-119276107D01*
X132066135Y-119276107D02*
X132138707Y-119130965D01*
X132138707Y-119130965D02*
X132138707Y-118985822D01*
X132138707Y-118985822D02*
X132066135Y-118840679D01*
X132066135Y-118840679D02*
X131993564Y-118768107D01*
X131993564Y-118768107D02*
X131848421Y-118695536D01*
X131848421Y-118695536D02*
X131485564Y-118695536D01*
X131485564Y-118695536D02*
X131267850Y-118768107D01*
X130614706Y-119421250D02*
X130106706Y-119421250D01*
X129888992Y-120219536D02*
X130614706Y-120219536D01*
X130614706Y-120219536D02*
X130614706Y-118695536D01*
X130614706Y-118695536D02*
X129888992Y-118695536D01*
X129235849Y-120219536D02*
X129235849Y-118695536D01*
X129235849Y-118695536D02*
X128655278Y-118695536D01*
X128655278Y-118695536D02*
X128510135Y-118768107D01*
X128510135Y-118768107D02*
X128437564Y-118840679D01*
X128437564Y-118840679D02*
X128364992Y-118985822D01*
X128364992Y-118985822D02*
X128364992Y-119203536D01*
X128364992Y-119203536D02*
X128437564Y-119348679D01*
X128437564Y-119348679D02*
X128510135Y-119421250D01*
X128510135Y-119421250D02*
X128655278Y-119493822D01*
X128655278Y-119493822D02*
X129235849Y-119493822D01*
X127929564Y-118695536D02*
X127058707Y-118695536D01*
X127494135Y-120219536D02*
X127494135Y-118695536D01*
X125462135Y-118622965D02*
X126768421Y-120582393D01*
X136638136Y-121294234D02*
X136565564Y-121221662D01*
X136565564Y-121221662D02*
X136420422Y-121149091D01*
X136420422Y-121149091D02*
X136057564Y-121149091D01*
X136057564Y-121149091D02*
X135912422Y-121221662D01*
X135912422Y-121221662D02*
X135839850Y-121294234D01*
X135839850Y-121294234D02*
X135767279Y-121439377D01*
X135767279Y-121439377D02*
X135767279Y-121584520D01*
X135767279Y-121584520D02*
X135839850Y-121802234D01*
X135839850Y-121802234D02*
X136710707Y-122673091D01*
X136710707Y-122673091D02*
X135767279Y-122673091D01*
X134823850Y-121149091D02*
X134678707Y-121149091D01*
X134678707Y-121149091D02*
X134533564Y-121221662D01*
X134533564Y-121221662D02*
X134460993Y-121294234D01*
X134460993Y-121294234D02*
X134388421Y-121439377D01*
X134388421Y-121439377D02*
X134315850Y-121729662D01*
X134315850Y-121729662D02*
X134315850Y-122092520D01*
X134315850Y-122092520D02*
X134388421Y-122382805D01*
X134388421Y-122382805D02*
X134460993Y-122527948D01*
X134460993Y-122527948D02*
X134533564Y-122600520D01*
X134533564Y-122600520D02*
X134678707Y-122673091D01*
X134678707Y-122673091D02*
X134823850Y-122673091D01*
X134823850Y-122673091D02*
X134968993Y-122600520D01*
X134968993Y-122600520D02*
X135041564Y-122527948D01*
X135041564Y-122527948D02*
X135114135Y-122382805D01*
X135114135Y-122382805D02*
X135186707Y-122092520D01*
X135186707Y-122092520D02*
X135186707Y-121729662D01*
X135186707Y-121729662D02*
X135114135Y-121439377D01*
X135114135Y-121439377D02*
X135041564Y-121294234D01*
X135041564Y-121294234D02*
X134968993Y-121221662D01*
X134968993Y-121221662D02*
X134823850Y-121149091D01*
X133735278Y-121294234D02*
X133662706Y-121221662D01*
X133662706Y-121221662D02*
X133517564Y-121149091D01*
X133517564Y-121149091D02*
X133154706Y-121149091D01*
X133154706Y-121149091D02*
X133009564Y-121221662D01*
X133009564Y-121221662D02*
X132936992Y-121294234D01*
X132936992Y-121294234D02*
X132864421Y-121439377D01*
X132864421Y-121439377D02*
X132864421Y-121584520D01*
X132864421Y-121584520D02*
X132936992Y-121802234D01*
X132936992Y-121802234D02*
X133807849Y-122673091D01*
X133807849Y-122673091D02*
X132864421Y-122673091D01*
X131558135Y-121149091D02*
X131848420Y-121149091D01*
X131848420Y-121149091D02*
X131993563Y-121221662D01*
X131993563Y-121221662D02*
X132066135Y-121294234D01*
X132066135Y-121294234D02*
X132211277Y-121511948D01*
X132211277Y-121511948D02*
X132283849Y-121802234D01*
X132283849Y-121802234D02*
X132283849Y-122382805D01*
X132283849Y-122382805D02*
X132211277Y-122527948D01*
X132211277Y-122527948D02*
X132138706Y-122600520D01*
X132138706Y-122600520D02*
X131993563Y-122673091D01*
X131993563Y-122673091D02*
X131703277Y-122673091D01*
X131703277Y-122673091D02*
X131558135Y-122600520D01*
X131558135Y-122600520D02*
X131485563Y-122527948D01*
X131485563Y-122527948D02*
X131412992Y-122382805D01*
X131412992Y-122382805D02*
X131412992Y-122019948D01*
X131412992Y-122019948D02*
X131485563Y-121874805D01*
X131485563Y-121874805D02*
X131558135Y-121802234D01*
X131558135Y-121802234D02*
X131703277Y-121729662D01*
X131703277Y-121729662D02*
X131993563Y-121729662D01*
X131993563Y-121729662D02*
X132138706Y-121802234D01*
X132138706Y-121802234D02*
X132211277Y-121874805D01*
X132211277Y-121874805D02*
X132283849Y-122019948D01*
D11*
X166641759Y-79543641D02*
X166278902Y-81067641D01*
X166278902Y-81067641D02*
X165988616Y-79979070D01*
X165988616Y-79979070D02*
X165698331Y-81067641D01*
X165698331Y-81067641D02*
X165335474Y-79543641D01*
X164101760Y-80051641D02*
X164101760Y-81067641D01*
X164754902Y-80051641D02*
X164754902Y-80849927D01*
X164754902Y-80849927D02*
X164682331Y-80995070D01*
X164682331Y-80995070D02*
X164537188Y-81067641D01*
X164537188Y-81067641D02*
X164319474Y-81067641D01*
X164319474Y-81067641D02*
X164174331Y-80995070D01*
X164174331Y-80995070D02*
X164101760Y-80922498D01*
D13*
X136415890Y-117709200D02*
X136130176Y-117804438D01*
X136130176Y-117804438D02*
X135653985Y-117804438D01*
X135653985Y-117804438D02*
X135463509Y-117709200D01*
X135463509Y-117709200D02*
X135368271Y-117613961D01*
X135368271Y-117613961D02*
X135273033Y-117423485D01*
X135273033Y-117423485D02*
X135273033Y-117233009D01*
X135273033Y-117233009D02*
X135368271Y-117042533D01*
X135368271Y-117042533D02*
X135463509Y-116947295D01*
X135463509Y-116947295D02*
X135653985Y-116852057D01*
X135653985Y-116852057D02*
X136034938Y-116756819D01*
X136034938Y-116756819D02*
X136225414Y-116661580D01*
X136225414Y-116661580D02*
X136320652Y-116566342D01*
X136320652Y-116566342D02*
X136415890Y-116375866D01*
X136415890Y-116375866D02*
X136415890Y-116185390D01*
X136415890Y-116185390D02*
X136320652Y-115994914D01*
X136320652Y-115994914D02*
X136225414Y-115899676D01*
X136225414Y-115899676D02*
X136034938Y-115804438D01*
X136034938Y-115804438D02*
X135558747Y-115804438D01*
X135558747Y-115804438D02*
X135273033Y-115899676D01*
X134415890Y-117804438D02*
X134415890Y-115804438D01*
X134415890Y-115804438D02*
X133749223Y-117233009D01*
X133749223Y-117233009D02*
X133082557Y-115804438D01*
X133082557Y-115804438D02*
X133082557Y-117804438D01*
X132130176Y-117804438D02*
X132130176Y-115804438D01*
X132130176Y-115804438D02*
X131653986Y-115804438D01*
X131653986Y-115804438D02*
X131368271Y-115899676D01*
X131368271Y-115899676D02*
X131177795Y-116090152D01*
X131177795Y-116090152D02*
X131082557Y-116280628D01*
X131082557Y-116280628D02*
X130987319Y-116661580D01*
X130987319Y-116661580D02*
X130987319Y-116947295D01*
X130987319Y-116947295D02*
X131082557Y-117328247D01*
X131082557Y-117328247D02*
X131177795Y-117518723D01*
X131177795Y-117518723D02*
X131368271Y-117709200D01*
X131368271Y-117709200D02*
X131653986Y-117804438D01*
X131653986Y-117804438D02*
X132130176Y-117804438D01*
X128892080Y-115804438D02*
X127749223Y-115804438D01*
X128320652Y-117804438D02*
X128320652Y-115804438D01*
X126320651Y-117709200D02*
X126511127Y-117804438D01*
X126511127Y-117804438D02*
X126892080Y-117804438D01*
X126892080Y-117804438D02*
X127082556Y-117709200D01*
X127082556Y-117709200D02*
X127177794Y-117518723D01*
X127177794Y-117518723D02*
X127177794Y-116756819D01*
X127177794Y-116756819D02*
X127082556Y-116566342D01*
X127082556Y-116566342D02*
X126892080Y-116471104D01*
X126892080Y-116471104D02*
X126511127Y-116471104D01*
X126511127Y-116471104D02*
X126320651Y-116566342D01*
X126320651Y-116566342D02*
X126225413Y-116756819D01*
X126225413Y-116756819D02*
X126225413Y-116947295D01*
X126225413Y-116947295D02*
X127177794Y-117137771D01*
X125463508Y-117709200D02*
X125273032Y-117804438D01*
X125273032Y-117804438D02*
X124892080Y-117804438D01*
X124892080Y-117804438D02*
X124701603Y-117709200D01*
X124701603Y-117709200D02*
X124606365Y-117518723D01*
X124606365Y-117518723D02*
X124606365Y-117423485D01*
X124606365Y-117423485D02*
X124701603Y-117233009D01*
X124701603Y-117233009D02*
X124892080Y-117137771D01*
X124892080Y-117137771D02*
X125177794Y-117137771D01*
X125177794Y-117137771D02*
X125368270Y-117042533D01*
X125368270Y-117042533D02*
X125463508Y-116852057D01*
X125463508Y-116852057D02*
X125463508Y-116756819D01*
X125463508Y-116756819D02*
X125368270Y-116566342D01*
X125368270Y-116566342D02*
X125177794Y-116471104D01*
X125177794Y-116471104D02*
X124892080Y-116471104D01*
X124892080Y-116471104D02*
X124701603Y-116566342D01*
X124034936Y-116471104D02*
X123273032Y-116471104D01*
X123749222Y-115804438D02*
X123749222Y-117518723D01*
X123749222Y-117518723D02*
X123653984Y-117709200D01*
X123653984Y-117709200D02*
X123463508Y-117804438D01*
X123463508Y-117804438D02*
X123273032Y-117804438D01*
D14*
X129793333Y-90627419D02*
X129793333Y-91341704D01*
X129793333Y-91341704D02*
X129840952Y-91484561D01*
X129840952Y-91484561D02*
X129936190Y-91579800D01*
X129936190Y-91579800D02*
X130079047Y-91627419D01*
X130079047Y-91627419D02*
X130174285Y-91627419D01*
X128793333Y-91627419D02*
X129364761Y-91627419D01*
X129079047Y-91627419D02*
X129079047Y-90627419D01*
X129079047Y-90627419D02*
X129174285Y-90770276D01*
X129174285Y-90770276D02*
X129269523Y-90865514D01*
X129269523Y-90865514D02*
X129364761Y-90913133D01*
X128297580Y-106994972D02*
X127297580Y-106661639D01*
X127297580Y-106661639D02*
X128297580Y-106328306D01*
X127392819Y-105423544D02*
X127345200Y-105471163D01*
X127345200Y-105471163D02*
X127297580Y-105614020D01*
X127297580Y-105614020D02*
X127297580Y-105709258D01*
X127297580Y-105709258D02*
X127345200Y-105852115D01*
X127345200Y-105852115D02*
X127440438Y-105947353D01*
X127440438Y-105947353D02*
X127535676Y-105994972D01*
X127535676Y-105994972D02*
X127726152Y-106042591D01*
X127726152Y-106042591D02*
X127869009Y-106042591D01*
X127869009Y-106042591D02*
X128059485Y-105994972D01*
X128059485Y-105994972D02*
X128154723Y-105947353D01*
X128154723Y-105947353D02*
X128249961Y-105852115D01*
X128249961Y-105852115D02*
X128297580Y-105709258D01*
X128297580Y-105709258D02*
X128297580Y-105614020D01*
X128297580Y-105614020D02*
X128249961Y-105471163D01*
X128249961Y-105471163D02*
X128202342Y-105423544D01*
X127392819Y-104423544D02*
X127345200Y-104471163D01*
X127345200Y-104471163D02*
X127297580Y-104614020D01*
X127297580Y-104614020D02*
X127297580Y-104709258D01*
X127297580Y-104709258D02*
X127345200Y-104852115D01*
X127345200Y-104852115D02*
X127440438Y-104947353D01*
X127440438Y-104947353D02*
X127535676Y-104994972D01*
X127535676Y-104994972D02*
X127726152Y-105042591D01*
X127726152Y-105042591D02*
X127869009Y-105042591D01*
X127869009Y-105042591D02*
X128059485Y-104994972D01*
X128059485Y-104994972D02*
X128154723Y-104947353D01*
X128154723Y-104947353D02*
X128249961Y-104852115D01*
X128249961Y-104852115D02*
X128297580Y-104709258D01*
X128297580Y-104709258D02*
X128297580Y-104614020D01*
X128297580Y-104614020D02*
X128249961Y-104471163D01*
X128249961Y-104471163D02*
X128202342Y-104423544D01*
X130027961Y-106582306D02*
X130075580Y-106677544D01*
X130075580Y-106677544D02*
X130075580Y-106820401D01*
X130075580Y-106820401D02*
X130027961Y-106963258D01*
X130027961Y-106963258D02*
X129932723Y-107058496D01*
X129932723Y-107058496D02*
X129837485Y-107106115D01*
X129837485Y-107106115D02*
X129647009Y-107153734D01*
X129647009Y-107153734D02*
X129504152Y-107153734D01*
X129504152Y-107153734D02*
X129313676Y-107106115D01*
X129313676Y-107106115D02*
X129218438Y-107058496D01*
X129218438Y-107058496D02*
X129123200Y-106963258D01*
X129123200Y-106963258D02*
X129075580Y-106820401D01*
X129075580Y-106820401D02*
X129075580Y-106725163D01*
X129075580Y-106725163D02*
X129123200Y-106582306D01*
X129123200Y-106582306D02*
X129170819Y-106534687D01*
X129170819Y-106534687D02*
X129504152Y-106534687D01*
X129504152Y-106534687D02*
X129504152Y-106725163D01*
X129075580Y-106106115D02*
X130075580Y-106106115D01*
X130075580Y-106106115D02*
X129075580Y-105534687D01*
X129075580Y-105534687D02*
X130075580Y-105534687D01*
X129075580Y-105058496D02*
X130075580Y-105058496D01*
X130075580Y-105058496D02*
X130075580Y-104820401D01*
X130075580Y-104820401D02*
X130027961Y-104677544D01*
X130027961Y-104677544D02*
X129932723Y-104582306D01*
X129932723Y-104582306D02*
X129837485Y-104534687D01*
X129837485Y-104534687D02*
X129647009Y-104487068D01*
X129647009Y-104487068D02*
X129504152Y-104487068D01*
X129504152Y-104487068D02*
X129313676Y-104534687D01*
X129313676Y-104534687D02*
X129218438Y-104582306D01*
X129218438Y-104582306D02*
X129123200Y-104677544D01*
X129123200Y-104677544D02*
X129075580Y-104820401D01*
X129075580Y-104820401D02*
X129075580Y-105058496D01*
X130853580Y-107106115D02*
X131853580Y-107106115D01*
X131853580Y-107106115D02*
X131853580Y-106868020D01*
X131853580Y-106868020D02*
X131805961Y-106725163D01*
X131805961Y-106725163D02*
X131710723Y-106629925D01*
X131710723Y-106629925D02*
X131615485Y-106582306D01*
X131615485Y-106582306D02*
X131425009Y-106534687D01*
X131425009Y-106534687D02*
X131282152Y-106534687D01*
X131282152Y-106534687D02*
X131091676Y-106582306D01*
X131091676Y-106582306D02*
X130996438Y-106629925D01*
X130996438Y-106629925D02*
X130901200Y-106725163D01*
X130901200Y-106725163D02*
X130853580Y-106868020D01*
X130853580Y-106868020D02*
X130853580Y-107106115D01*
X131853580Y-105915639D02*
X131853580Y-105725163D01*
X131853580Y-105725163D02*
X131805961Y-105629925D01*
X131805961Y-105629925D02*
X131710723Y-105534687D01*
X131710723Y-105534687D02*
X131520247Y-105487068D01*
X131520247Y-105487068D02*
X131186914Y-105487068D01*
X131186914Y-105487068D02*
X130996438Y-105534687D01*
X130996438Y-105534687D02*
X130901200Y-105629925D01*
X130901200Y-105629925D02*
X130853580Y-105725163D01*
X130853580Y-105725163D02*
X130853580Y-105915639D01*
X130853580Y-105915639D02*
X130901200Y-106010877D01*
X130901200Y-106010877D02*
X130996438Y-106106115D01*
X130996438Y-106106115D02*
X131186914Y-106153734D01*
X131186914Y-106153734D02*
X131520247Y-106153734D01*
X131520247Y-106153734D02*
X131710723Y-106106115D01*
X131710723Y-106106115D02*
X131805961Y-106010877D01*
X131805961Y-106010877D02*
X131853580Y-105915639D01*
D15*
X160868094Y-106364819D02*
X160868094Y-105364819D01*
X160868094Y-105364819D02*
X160629999Y-105364819D01*
X160629999Y-105364819D02*
X160487142Y-105412438D01*
X160487142Y-105412438D02*
X160391904Y-105507676D01*
X160391904Y-105507676D02*
X160344285Y-105602914D01*
X160344285Y-105602914D02*
X160296666Y-105793390D01*
X160296666Y-105793390D02*
X160296666Y-105936247D01*
X160296666Y-105936247D02*
X160344285Y-106126723D01*
X160344285Y-106126723D02*
X160391904Y-106221961D01*
X160391904Y-106221961D02*
X160487142Y-106317200D01*
X160487142Y-106317200D02*
X160629999Y-106364819D01*
X160629999Y-106364819D02*
X160868094Y-106364819D01*
X159344285Y-106364819D02*
X159915713Y-106364819D01*
X159629999Y-106364819D02*
X159629999Y-105364819D01*
X159629999Y-105364819D02*
X159725237Y-105507676D01*
X159725237Y-105507676D02*
X159820475Y-105602914D01*
X159820475Y-105602914D02*
X159915713Y-105650533D01*
X130536666Y-114944819D02*
X130869999Y-114468628D01*
X131108094Y-114944819D02*
X131108094Y-113944819D01*
X131108094Y-113944819D02*
X130727142Y-113944819D01*
X130727142Y-113944819D02*
X130631904Y-113992438D01*
X130631904Y-113992438D02*
X130584285Y-114040057D01*
X130584285Y-114040057D02*
X130536666Y-114135295D01*
X130536666Y-114135295D02*
X130536666Y-114278152D01*
X130536666Y-114278152D02*
X130584285Y-114373390D01*
X130584285Y-114373390D02*
X130631904Y-114421009D01*
X130631904Y-114421009D02*
X130727142Y-114468628D01*
X130727142Y-114468628D02*
X131108094Y-114468628D01*
X130155713Y-114040057D02*
X130108094Y-113992438D01*
X130108094Y-113992438D02*
X130012856Y-113944819D01*
X130012856Y-113944819D02*
X129774761Y-113944819D01*
X129774761Y-113944819D02*
X129679523Y-113992438D01*
X129679523Y-113992438D02*
X129631904Y-114040057D01*
X129631904Y-114040057D02*
X129584285Y-114135295D01*
X129584285Y-114135295D02*
X129584285Y-114230533D01*
X129584285Y-114230533D02*
X129631904Y-114373390D01*
X129631904Y-114373390D02*
X130203332Y-114944819D01*
X130203332Y-114944819D02*
X129584285Y-114944819D01*
X160734819Y-120393333D02*
X160258628Y-120060000D01*
X160734819Y-119821905D02*
X159734819Y-119821905D01*
X159734819Y-119821905D02*
X159734819Y-120202857D01*
X159734819Y-120202857D02*
X159782438Y-120298095D01*
X159782438Y-120298095D02*
X159830057Y-120345714D01*
X159830057Y-120345714D02*
X159925295Y-120393333D01*
X159925295Y-120393333D02*
X160068152Y-120393333D01*
X160068152Y-120393333D02*
X160163390Y-120345714D01*
X160163390Y-120345714D02*
X160211009Y-120298095D01*
X160211009Y-120298095D02*
X160258628Y-120202857D01*
X160258628Y-120202857D02*
X160258628Y-119821905D01*
X160734819Y-121345714D02*
X160734819Y-120774286D01*
X160734819Y-121060000D02*
X159734819Y-121060000D01*
X159734819Y-121060000D02*
X159877676Y-120964762D01*
X159877676Y-120964762D02*
X159972914Y-120869524D01*
X159972914Y-120869524D02*
X160020533Y-120774286D01*
X166419580Y-120603333D02*
X166467200Y-120555714D01*
X166467200Y-120555714D02*
X166514819Y-120412857D01*
X166514819Y-120412857D02*
X166514819Y-120317619D01*
X166514819Y-120317619D02*
X166467200Y-120174762D01*
X166467200Y-120174762D02*
X166371961Y-120079524D01*
X166371961Y-120079524D02*
X166276723Y-120031905D01*
X166276723Y-120031905D02*
X166086247Y-119984286D01*
X166086247Y-119984286D02*
X165943390Y-119984286D01*
X165943390Y-119984286D02*
X165752914Y-120031905D01*
X165752914Y-120031905D02*
X165657676Y-120079524D01*
X165657676Y-120079524D02*
X165562438Y-120174762D01*
X165562438Y-120174762D02*
X165514819Y-120317619D01*
X165514819Y-120317619D02*
X165514819Y-120412857D01*
X165514819Y-120412857D02*
X165562438Y-120555714D01*
X165562438Y-120555714D02*
X165610057Y-120603333D01*
X166514819Y-121555714D02*
X166514819Y-120984286D01*
X166514819Y-121270000D02*
X165514819Y-121270000D01*
X165514819Y-121270000D02*
X165657676Y-121174762D01*
X165657676Y-121174762D02*
X165752914Y-121079524D01*
X165752914Y-121079524D02*
X165800533Y-120984286D01*
X147694285Y-77369104D02*
X147218095Y-77369104D01*
X147789523Y-77654819D02*
X147456190Y-76654819D01*
X147456190Y-76654819D02*
X147122857Y-77654819D01*
X146265714Y-77654819D02*
X146837142Y-77654819D01*
X146551428Y-77654819D02*
X146551428Y-76654819D01*
X146551428Y-76654819D02*
X146646666Y-76797676D01*
X146646666Y-76797676D02*
X146741904Y-76892914D01*
X146741904Y-76892914D02*
X146837142Y-76940533D01*
X148241904Y-117294819D02*
X148241904Y-118104342D01*
X148241904Y-118104342D02*
X148194285Y-118199580D01*
X148194285Y-118199580D02*
X148146666Y-118247200D01*
X148146666Y-118247200D02*
X148051428Y-118294819D01*
X148051428Y-118294819D02*
X147860952Y-118294819D01*
X147860952Y-118294819D02*
X147765714Y-118247200D01*
X147765714Y-118247200D02*
X147718095Y-118199580D01*
X147718095Y-118199580D02*
X147670476Y-118104342D01*
X147670476Y-118104342D02*
X147670476Y-117294819D01*
X147241904Y-118247200D02*
X147099047Y-118294819D01*
X147099047Y-118294819D02*
X146860952Y-118294819D01*
X146860952Y-118294819D02*
X146765714Y-118247200D01*
X146765714Y-118247200D02*
X146718095Y-118199580D01*
X146718095Y-118199580D02*
X146670476Y-118104342D01*
X146670476Y-118104342D02*
X146670476Y-118009104D01*
X146670476Y-118009104D02*
X146718095Y-117913866D01*
X146718095Y-117913866D02*
X146765714Y-117866247D01*
X146765714Y-117866247D02*
X146860952Y-117818628D01*
X146860952Y-117818628D02*
X147051428Y-117771009D01*
X147051428Y-117771009D02*
X147146666Y-117723390D01*
X147146666Y-117723390D02*
X147194285Y-117675771D01*
X147194285Y-117675771D02*
X147241904Y-117580533D01*
X147241904Y-117580533D02*
X147241904Y-117485295D01*
X147241904Y-117485295D02*
X147194285Y-117390057D01*
X147194285Y-117390057D02*
X147146666Y-117342438D01*
X147146666Y-117342438D02*
X147051428Y-117294819D01*
X147051428Y-117294819D02*
X146813333Y-117294819D01*
X146813333Y-117294819D02*
X146670476Y-117342438D01*
X145908571Y-117771009D02*
X145765714Y-117818628D01*
X145765714Y-117818628D02*
X145718095Y-117866247D01*
X145718095Y-117866247D02*
X145670476Y-117961485D01*
X145670476Y-117961485D02*
X145670476Y-118104342D01*
X145670476Y-118104342D02*
X145718095Y-118199580D01*
X145718095Y-118199580D02*
X145765714Y-118247200D01*
X145765714Y-118247200D02*
X145860952Y-118294819D01*
X145860952Y-118294819D02*
X146241904Y-118294819D01*
X146241904Y-118294819D02*
X146241904Y-117294819D01*
X146241904Y-117294819D02*
X145908571Y-117294819D01*
X145908571Y-117294819D02*
X145813333Y-117342438D01*
X145813333Y-117342438D02*
X145765714Y-117390057D01*
X145765714Y-117390057D02*
X145718095Y-117485295D01*
X145718095Y-117485295D02*
X145718095Y-117580533D01*
X145718095Y-117580533D02*
X145765714Y-117675771D01*
X145765714Y-117675771D02*
X145813333Y-117723390D01*
X145813333Y-117723390D02*
X145908571Y-117771009D01*
X145908571Y-117771009D02*
X146241904Y-117771009D01*
%TO.C,J1*%
D14*
X136856000Y-78462000D02*
X122856000Y-78462000D01*
X122856000Y-109462000D01*
X136856000Y-109462000D01*
X136856000Y-78462000D01*
D16*
%TO.C,D1*%
X162690000Y-111415000D02*
X162690000Y-108325000D01*
X157140000Y-109870462D02*
G75*
G02*
X162690000Y-108325170I2990000J462D01*
G01*
X162690000Y-111414830D02*
G75*
G02*
X157140000Y-109869538I-2560000J1544830D01*
G01*
X162630000Y-109870000D02*
G75*
G02*
X157630000Y-109870000I-2500000J0D01*
G01*
X157630000Y-109870000D02*
G75*
G02*
X162630000Y-109870000I2500000J0D01*
G01*
%TO.C,R2*%
X128450000Y-111650000D02*
X128450000Y-113490000D01*
X128450000Y-112570000D02*
X127500000Y-112570000D01*
X128450000Y-113490000D02*
X132290000Y-113490000D01*
X132290000Y-111650000D02*
X128450000Y-111650000D01*
X132290000Y-112570000D02*
X133240000Y-112570000D01*
X132290000Y-113490000D02*
X132290000Y-111650000D01*
%TO.C,R1*%
X157440000Y-118640000D02*
X157440000Y-122480000D01*
X157440000Y-122480000D02*
X159280000Y-122480000D01*
X158360000Y-118640000D02*
X158360000Y-117690000D01*
X158360000Y-122480000D02*
X158360000Y-123430000D01*
X159280000Y-118640000D02*
X157440000Y-118640000D01*
X159280000Y-122480000D02*
X159280000Y-118640000D01*
%TO.C,C1*%
X162190000Y-118300000D02*
X162190000Y-123240000D01*
X162190000Y-118300000D02*
X162505000Y-118300000D01*
X162190000Y-123240000D02*
X162505000Y-123240000D01*
X164615000Y-118300000D02*
X164930000Y-118300000D01*
X164615000Y-123240000D02*
X164930000Y-123240000D01*
X164930000Y-118300000D02*
X164930000Y-123240000D01*
%TO.C,A1*%
X137960000Y-78340000D02*
X137960000Y-121780000D01*
X137960000Y-81010000D02*
X140630000Y-81010000D01*
X137960000Y-119110000D02*
X140630000Y-119110000D01*
X140630000Y-119110000D02*
X140630000Y-81010000D01*
X143040000Y-113900000D02*
X150920000Y-113900000D01*
X143040000Y-121780000D02*
X137960000Y-121780000D01*
X143040000Y-124320000D02*
X143040000Y-113900000D01*
X150920000Y-113900000D02*
X150920000Y-124320000D01*
X150920000Y-121780000D02*
X156000000Y-121780000D01*
X150920000Y-124320000D02*
X143040000Y-124320000D01*
X153330000Y-81010000D02*
X153330000Y-83550000D01*
X153330000Y-119110000D02*
X153330000Y-83550000D01*
X156000000Y-78340000D02*
X137960000Y-78340000D01*
X156000000Y-81010000D02*
X153330000Y-81010000D01*
X156000000Y-81010000D02*
X156000000Y-78340000D01*
X156000000Y-83550000D02*
X153330000Y-83550000D01*
X156000000Y-119110000D02*
X153330000Y-119110000D01*
X156000000Y-121780000D02*
X156000000Y-83550000D01*
%TD*%
M02*
